<svg xmlns="http://www.w3.org/2000/svg" xmlns:xlink="http://www.w3.org/1999/xlink" width="533.939" height="351" viewBox="0 0 533.939 351">
  <defs>
    <linearGradient id="linear-gradient" x1="0.137" y1="-0.391" x2="0.769" y2="1.476" gradientUnits="objectBoundingBox">
      <stop offset="0.265" stop-color="#371b85" stop-opacity="0.914"/>
      <stop offset="0.555" stop-color="#f26d5a" stop-opacity="0"/>
    </linearGradient>
    <linearGradient id="linear-gradient-2" x1="0.646" y1="-0.24" x2="0.343" y2="1.355" xlink:href="#linear-gradient"/>
    <linearGradient id="linear-gradient-3" x1="0.727" y1="-0.676" x2="0.253" y2="1.585" xlink:href="#linear-gradient"/>
    <linearGradient id="linear-gradient-4" x1="0.5" y1="1" x2="0.5" gradientUnits="objectBoundingBox">
      <stop offset="0" stop-color="#00aeef"/>
      <stop offset="1" stop-color="#0f5ec9"/>
    </linearGradient>
  </defs>
  <g id="Group_11457" data-name="Group 11457" transform="translate(-34.494 323.774)">
    <g id="Group_11418" data-name="Group 11418" transform="translate(495.014 -159.633)">
      <rect id="Rectangle_1367" data-name="Rectangle 1367" width="2.654" height="58.543" transform="translate(27.755 134.766) rotate(180)" fill="#110809"/>
      <path id="Path_19464" data-name="Path 19464" d="M448.7-74.355c0-8.646-15.3-12.271-22.94-12.285-9.1-.018-22.939,3.337-22.939,12.285" transform="translate(-399.066 221.406)" fill="none" stroke="#110809" stroke-width="2"/>
      <line id="Line_124" data-name="Line 124" y1="14.359" transform="translate(26.436 135.003)" fill="none" stroke="#110809" stroke-width="2"/>
      <path id="Path_19465" data-name="Path 19465" d="M399.842-74.464A3.753,3.753,0,0,0,403.6-70.71a3.754,3.754,0,0,0,3.754-3.754,3.755,3.755,0,0,0-3.754-3.754A3.754,3.754,0,0,0,399.842-74.464Z" transform="translate(-399.842 223.6)" fill="#110809"/>
      <path id="Path_19466" data-name="Path 19466" d="M417.89-74.464a3.753,3.753,0,0,0,3.754,3.754,3.753,3.753,0,0,0,3.754-3.754,3.754,3.754,0,0,0-3.754-3.754A3.754,3.754,0,0,0,417.89-74.464Z" transform="translate(-395.141 223.6)" fill="#110809"/>
      <path id="Path_19467" data-name="Path 19467" d="M435.938-74.464a3.754,3.754,0,0,0,3.754,3.754,3.753,3.753,0,0,0,3.754-3.754,3.754,3.754,0,0,0-3.754-3.754A3.755,3.755,0,0,0,435.938-74.464Z" transform="translate(-390.439 223.6)" fill="#110809"/>
      <path id="Path_19468" data-name="Path 19468" d="M430.709-136.984v-43.074a13.5,13.5,0,0,1,13.5-13.5H459.07a13.5,13.5,0,0,1,13.5,13.5V-131.9a19.394,19.394,0,0,1-19.337,19.337H404.774a2.275,2.275,0,0,1-2.275-2.275h0a2.275,2.275,0,0,1,2.275-2.275h6.067A19.868,19.868,0,0,0,430.709-136.984Z" transform="translate(-399.15 193.555)" fill="#c6f6f7"/>
    </g>
    <g id="Group_11419" data-name="Group 11419" transform="translate(137.453 -167.296)">
      <rect id="Rectangle_1368" data-name="Rectangle 1368" width="2.654" height="58.543" transform="translate(40.556 76.223)" fill="#110809"/>
      <path id="Path_19469" data-name="Path 19469" d="M130.993-80.434c0-8.645,15.3-12.27,22.94-12.285,9.1-.018,22.94,3.337,22.94,12.285" transform="translate(-112.315 227.485)" fill="none" stroke="#110809" stroke-width="2"/>
      <line id="Line_125" data-name="Line 125" y1="14.359" transform="translate(41.875 135.003)" fill="none" stroke="#110809" stroke-width="2"/>
      <path id="Path_19470" data-name="Path 19470" d="M171.921-80.542a3.755,3.755,0,0,1-3.754,3.754,3.754,3.754,0,0,1-3.754-3.754,3.753,3.753,0,0,1,3.754-3.754A3.754,3.754,0,0,1,171.921-80.542Z" transform="translate(-103.609 229.679)" fill="#110809"/>
      <path id="Path_19471" data-name="Path 19471" d="M153.872-80.542a3.754,3.754,0,0,1-3.754,3.754,3.755,3.755,0,0,1-3.754-3.754,3.754,3.754,0,0,1,3.754-3.754A3.753,3.753,0,0,1,153.872-80.542Z" transform="translate(-108.311 229.679)" fill="#110809"/>
      <circle id="Ellipse_333" data-name="Ellipse 333" cx="3.754" cy="3.754" r="3.754" transform="translate(15.304 145.383)" fill="#110809"/>
      <path id="Path_19472" data-name="Path 19472" d="M158.035-143.063v-43.072a13.5,13.5,0,0,0-13.5-13.5H129.672a13.5,13.5,0,0,0-13.5,13.5v48.154a19.393,19.393,0,0,0,19.337,19.337H183.97a2.276,2.276,0,0,0,2.275-2.275h0a2.277,2.277,0,0,0-2.275-2.275H177.9A19.868,19.868,0,0,1,158.035-143.063Z" transform="translate(-116.175 199.634)" fill="#c6f6f7"/>
    </g>
    <g id="Group_11420" data-name="Group 11420" transform="translate(194.678 -260.25)">
      <path id="Path_19473" data-name="Path 19473" d="M240.643-224.571a22.115,22.115,0,0,0,1.421-3.64c1.187-4.064,1.14-8.61,3.5-12.125,1.262.134,1.724,1.714,1.829,2.979a87.9,87.9,0,0,1-.355,14.139,12.361,12.361,0,0,1-.619,3.493,12.329,12.329,0,0,1-2.206,3.33c-1.669,2.008-6,9.639-8.915,8.571-2.079-.761-2.884-5.36-2.281-7.167.895-2.689,2.778-3.556,4.622-5.336A15.569,15.569,0,0,0,240.643-224.571Z" transform="translate(-143.014 281.986)" fill="#ff9575"/>
      <path id="Path_19474" data-name="Path 19474" d="M202.592-69.812a2.725,2.725,0,0,0,.412.523c2.191,2.169,6.691,1.708,9.7,1.721a75.842,75.842,0,0,0,12.761-.666,5.956,5.956,0,0,0,3.682-1.626c2.042-2.374-1.218-4.359-3.059-4.83-1.891-.484-3.879-.61-5.813-.939a11.2,11.2,0,0,1-5.346-2.113,6.9,6.9,0,0,1-2.334-3.93c-.332-1.63-.173-3.561-1.361-4.68a4.308,4.308,0,0,0-4.525-.318,7.817,7.817,0,0,0-3.392,4.238c-.979,2.657-.756,5.69-1.056,8.439C202.1-72.575,201.882-70.982,202.592-69.812Z" transform="translate(-151.018 321.888)" fill="#110809"/>
      <path id="Path_19475" data-name="Path 19475" d="M224.04-122.774q-.147-1.049-.319-2.1c-1.326-8.075-4.2-15.451-6.156-23.3-2.692-10.824-5.4-21.566-8.95-32.153-1.46-4.347-2.6-9.812-4.837-13.792-2.056-3.659-4.842-3.363-9.088-2.566-2.38.445-4.907.966-6.638,2.658a11.682,11.682,0,0,0-2.389,4.061,76.373,76.373,0,0,0-5.386,24.372c-.442,5.889.805,10.3,2.212,15.8,1.591,6.216,1.563,11.866,5.137,17.537,2.406,3.818,5.7,7.175,7.118,11.459,1.414,4.264,1.21,8.849,2.627,13.142,1.248,3.776,3.064,7.335,4.629,10.989,1.768,4.132,1.969,8.739,2.143,13.229q.656,16.852,1.311,33.7l15.614-3.29a3.172,3.172,0,0,0,1.908-.887,3.218,3.218,0,0,0,.408-2.251c-.851-13.726.78-27.466,1.421-41.2A137.574,137.574,0,0,0,224.04-122.774Z" transform="translate(-156.725 293.226)" fill="#0e398a"/>
      <path id="Path_19476" data-name="Path 19476" d="M162.068-65.759a2.768,2.768,0,0,0,.412.522c2.191,2.171,6.691,1.709,9.7,1.722a76.107,76.107,0,0,0,12.761-.666,5.97,5.97,0,0,0,3.682-1.626c2.042-2.374-1.218-4.359-3.059-4.83-1.891-.484-3.879-.61-5.813-.94A11.186,11.186,0,0,1,174.4-73.69a6.9,6.9,0,0,1-2.334-3.929c-.332-1.63-.173-3.562-1.361-4.68a4.305,4.305,0,0,0-4.525-.319,7.822,7.822,0,0,0-3.392,4.238c-.979,2.657-.756,5.69-1.056,8.44C161.577-68.523,161.358-66.929,162.068-65.759Z" transform="translate(-161.574 322.944)" fill="#110809"/>
      <path id="Path_19477" data-name="Path 19477" d="M212.862-244.193c.238-.064.474-.134.7-.217a7.88,7.88,0,0,0,4.443-4.7,16.281,16.281,0,0,0,.811-6.572,43.785,43.785,0,0,1-.151-4.994c.117-1.7.552-3.426.118-5.071-1.1-4.182-6.219-4.7-9.8-4.587-4.268.135-9.226,2.623-11.5,6.335a7.062,7.062,0,0,0-.6,6.571,8.31,8.31,0,0,0,4.131,3.712l-7.542,8.554c-2.254,2.556-5.06,4.873-5.908,8.324-.5,2.022,2.176,2.569,3.169,1.1a12.313,12.313,0,0,1,2.459-2.535,2.815,2.815,0,0,0,2.75,2.542,2.364,2.364,0,0,0,3.063,2.036c5.163-1.854,6.877-8.312,12.176-10.06C211.735-243.932,212.3-244.046,212.862-244.193Z" transform="translate(-154.818 274.168)" fill="#ff9575"/>
      <path id="Path_19478" data-name="Path 19478" d="M201.1-233.02c.761-2.774,4.543-8.416,3.147-10.932-1.156-2.085-3.855-2.923-6.209-2.55a15.163,15.163,0,0,0-6.355,3.124,79.686,79.686,0,0,0-25.2,31.686,25.573,25.573,0,0,0-2.5,8.274,29.877,29.877,0,0,0,1.127,9.1q4.453,19.34,8.9,38.681c3.2,1.35,6.944-1.223,8.168-4.468s.65-6.855.115-10.281q-.994-6.368-1.741-12.77c-.543-4.669-.926-9.671,1.3-13.809.979-1.82,2.443-3.418,2.968-5.418.335-1.273.266-2.637.7-3.88,1.025-2.951,4.306-4.66,6.136-7.073a55.988,55.988,0,0,0,6.049-10.194A64.264,64.264,0,0,0,201.1-233.02Z" transform="translate(-160.961 280.357)" fill="#f02b66"/>
      <path id="Path_19479" data-name="Path 19479" d="M215.022-210.277a43.891,43.891,0,0,1,2.854-13.917c1.534-4.409,4.051-8.6,5.123-13.121a4.662,4.662,0,0,0,.146-2.008,4.544,4.544,0,0,0-2.1-2.593c-6.047-4.185-15.016-6.076-22.268-5.752-10.608.474-18.376,9.765-19.562,19.961-.633,5.452.285,10.96,1.439,16.326s2.549,10.713,2.887,16.191c.231,3.735-.043,7.471-.17,11.2-.118,3.474-.895,7.248,2.869,8.962,9.136,4.16,18.842,1.887,23.687-7.076,2.253-4.165,3.3-8.86,4.194-13.51C215.082-200.606,214.983-205.428,215.022-210.277Z" transform="translate(-157.031 280.067)" fill="#f02b66"/>
      <path id="Path_19480" data-name="Path 19480" d="M241.453-217.049q-5.842,5.612-11.686,11.225a19.176,19.176,0,0,1-3.761,3.045c-1.235-5.181-2.142-10.5-3.51-15.636-1.235-4.637-.913-9.5-1.792-14.189a12.4,12.4,0,0,0-2.386-5.687c-1.221-1.574-1.83-3.563-3.76-4.484-.485-.231-1.013-.366-1.492-.61-1.187-.6-2.138-1.881-3.469-1.838a1.044,1.044,0,0,0-.684.238,1.176,1.176,0,0,0-.274.448,8.109,8.109,0,0,0-.339,2.762,13.828,13.828,0,0,1-1.105,5.87,27.4,27.4,0,0,0-2.237,4.777,38.132,38.132,0,0,0-2.2,13.059c.118,2.962,1.818,4.482,2.776,7.279,1.021,2.982,1.224,6.2,1.835,9.273a37.245,37.245,0,0,0,9.548,18.367,6.843,6.843,0,0,0,2.788,2c8.436,2.59,15.233-8.348,19.824-13.555a59.636,59.636,0,0,0,11.433-19.433,49.764,49.764,0,0,0-6.4-5.9Z" transform="translate(-150.851 280.712)" fill="#f02b66"/>
      <path id="Path_19481" data-name="Path 19481" d="M197.015-202.49a15.143,15.143,0,0,0-4.417-1.126c-.939-.09-3.048-.765-3.877-.188-.911.634-1.161,3.072-1.693,4.122-1.581,3.122-4.147,5.645-6.487,8.2a89.883,89.883,0,0,0-9.735,12.735,24.083,24.083,0,0,0-3.669,8.189c-1.23,6.487,2.353,12.039,2.471,18.365.118,6.382-3.518,12.2-4.75,18.463-1.813,9.222,1.682,18.654,1.475,28.05-.106,4.84-1.192,9.595-2.021,14.365-2.728,15.7-2.676,31.724-2.617,47.654l10.7-1.064a7.817,7.817,0,0,0,3.645-.981,7.129,7.129,0,0,0,1.871-2.115c6.925-10.593,4.7-23.525,7.339-35.55q3.142-14.309,6.226-28.621c.768-3.58,2.055-7.06,2.883-10.676,1.6-6.993,2.507-13.763,4.49-20.643,2.211-7.674,5.027-15.884,6.112-23.743.267-1.926,6.145-24.756,8.493-23.3C207.655-193.945,203.1-199.95,197.015-202.49Z" transform="translate(-161.547 291.442)" fill="#2155b5"/>
      <path id="Path_19482" data-name="Path 19482" d="M225.03-263.259c1.815-1.615,3.074-3.761,2.193-6.289a6.066,6.066,0,0,0-6.735-3.726c-1.985.395-3.674,1.728-5.642,2.2-3.582.86-7.388-1.264-10.965-.378a6.778,6.778,0,0,0-3.868,2.643c-.964,1.368-1.393,3.055-2.362,4.421-1.559,2.2-4.165,3.134-6.577,4.061-1.975.759-5.435,1.571-6.555,3.522a7.206,7.206,0,0,0-.872,4.576,8.938,8.938,0,0,1,.222,1.866c-.1,1.492-1.339,2.605-2.269,3.775-1.926,2.424-2.685,5.947-1.249,8.69a10.42,10.42,0,0,0,4.595,4.079,11.678,11.678,0,0,0,4.161,1.426,16.032,16.032,0,0,0,13.352-4.513,15.62,15.62,0,0,0,4.385-11.053c-.035-2-.35-4.327,1.093-5.719,1.165-1.121,2.507-1.295,2.856-3.072.246-1.252-.441-2.663.237-3.822a4.032,4.032,0,0,1,2.495-1.767,9.753,9.753,0,0,1,4.322.2c2.71.565,4.835.885,7-.955Z" transform="translate(-156.877 273.378)" fill="#1c0029"/>
      <path id="Path_19483" data-name="Path 19483" d="M206.206-257.942c-.02-.436-.081-.872-.077-1.31a4.538,4.538,0,0,0-.048-1.276,1.939,1.939,0,0,0-2.328-1.145,3.833,3.833,0,0,0-2.162,1.781c-1.04,1.629-1,4.315,1.074,5.172,1.568.649,3.391-1.053,3.533-2.6A4.537,4.537,0,0,0,206.206-257.942Z" transform="translate(-151.324 276.413)" fill="#ff9575"/>
      <path id="Path_19484" data-name="Path 19484" d="M190.529-182.2c-2.455-1.363-9.628-5.963-9.63-5.965-.338-.113-4.8,6.926-5.362,10.356a5,5,0,0,0,.882,4.087,4.311,4.311,0,0,0,2.133,1.282,6.749,6.749,0,0,0,5.3-1.01c2.229-1.422,5.493-6.429,6.679-8.75" transform="translate(-157.961 295.577)" fill="none" stroke="#051433" stroke-width="1" opacity="0.6"/>
      <path id="Path_19485" data-name="Path 19485" d="M208.707-255.892a2.808,2.808,0,0,0,1.233,1.724,1.749,1.749,0,0,0,2.023-.165,2.079,2.079,0,0,0,.453-.7,3.808,3.808,0,0,0,.292-1.276c0-.035,0-.079-.037-.09s-.043.064-.011.049" transform="translate(-149.296 277.8)" fill="#fff"/>
    </g>
    <g id="Group_11435" data-name="Group 11435" transform="translate(34.494 -323.774)">
      <path id="Path_19486" data-name="Path 19486" d="M163.567-311.768c.072-2.217-.3-4.6-.406-6.732a21.963,21.963,0,0,0-.32-3.231,2.138,2.138,0,0,0-.28-.792,2.418,2.418,0,0,0-1.066-.75c-.856-.391-1.9-.77-2.684-.245a2.68,2.68,0,0,0-.668.744,14.489,14.489,0,0,0-2.046,5.39c-.251,1.214-.118,4.195-1.266,4.847.638-.362-.345-5.414-1.877-4.955a1.006,1.006,0,0,0-.628.874,4.46,4.46,0,0,0,.1,1.132c.386,2.816-1.32,5.56-1.162,8.4.1,1.877.992,3.595,1.267,5.442a27.511,27.511,0,0,1,.315,5.961c-.108,1.424.019,5.9-1.55,6.718a9.465,9.465,0,0,1,6.609-.769l1.255-8.076a24.375,24.375,0,0,1,1.211-5.229c.915-2.327,2.551-4.376,3.011-6.876A12.636,12.636,0,0,0,163.567-311.768Z" transform="translate(-24.247 323.774)" fill="#ff9575"/>
      <g id="Group_11421" data-name="Group 11421" transform="translate(84.779 285.37)">
        <path id="Path_19487" data-name="Path 19487" d="M134.369-71.807c.26.227.531.44.809.639,3.005,2.162,6.674,2.979,10.126,4.138,1.82.611,6.871,2.063,4.588,4.752-2.332,2.748-7.716,2.159-10.839,1.9-3.4-.285-6.8-.982-10.206-.785-2.166.125-4.341.609-6.483.266-7.484-1.194-3.611-11.473-3.595-16.49.018-4.9-.151-9.881,1.126-14.657.563-2.105,1.616-4.355,3.663-5.1a7.579,7.579,0,0,1,4.684.371c1.552.623,1.839,1.853,2.282,3.444a51.963,51.963,0,0,1,1.6,15.307,9.749,9.749,0,0,0,.337,3.585A6.453,6.453,0,0,0,134.369-71.807Z" transform="translate(-117.753 97.38)" fill="#111314"/>
      </g>
      <g id="Group_11423" data-name="Group 11423" transform="translate(72.681 48.223)">
        <path id="Path_19488" data-name="Path 19488" d="M112.292-261.471c.084.3.17.606.26.909a19.35,19.35,0,0,1,.41,3.629c.2,2.108.294,4.271.681,6.354.5,2.69,7.409,14.73,10,14.678,2.845-.058,5.094-11.714,4.61-14.488-.659-3.775-2.662-11.246-2.672-11.3a9.869,9.869,0,0,0-4.54-5.641c-2.363-1.172-5.681-.933-8.226-.659a2.112,2.112,0,0,0-1.158.374c-.609.509-.492,1.46-.32,2.235C111.629-264.061,111.937-262.759,112.292-261.471Z" transform="translate(-107.362 290.026)" fill="#ff9575"/>
        <path id="Path_19489" data-name="Path 19489" d="M126-257.748a.213.213,0,0,0,.037-.18c-.412-1.616-.72-2.766-.724-2.784-3.6-9.831-13.78-6.938-13.046.145.068.654.2,2.163.358,3.868l1.177.837A8.658,8.658,0,0,0,126-257.748Z" transform="translate(-107.094 290.332)" fill="url(#linear-gradient)"/>
        <g id="Group_11422" data-name="Group 11422">
          <path id="Path_19490" data-name="Path 19490" d="M124.373-279.066c-1.94-.74-5.23,2.031-7.25,2.549-1.965.7-5.052,1.613-6.287,3.281-2.616,3.532-1.365,8.934,1.018,12.532.4.6,1.267,2.157,1.724,2.715,3.657,4.457,9.352,4.175,12.1,3.132,3.279-1.245,4.757-4.3,4.83-8.322.014-.724-.253-3.04-.333-3.759C129.682-271.347,126.414-278.289,124.373-279.066Z" transform="translate(-107.837 287.165)" fill="#ff9575"/>
          <path id="Path_19491" data-name="Path 19491" d="M127.148-285.417a6.761,6.761,0,0,0-1.2.608c-2.164,1.269-4.819,1.228-7.273,1.75-3.652.779-7.337,2.637-9.275,5.962-2.38,4.083-.842,9.239.391,13.479a4.237,4.237,0,0,0,.314.843c1.5,2.793,3.529.435,3.817-1.7.179-1.33,0-2.694.226-4.017a6.444,6.444,0,0,1,6.432-5.332c2.85.2,6.275-.608,7.722-3.347a9.258,9.258,0,0,0,.55-7.279,1.742,1.742,0,0,0-.545-.876A1.227,1.227,0,0,0,127.148-285.417Z" transform="translate(-108.155 285.517)" fill="#151a36"/>
          <path id="Path_19492" data-name="Path 19492" d="M127.071-268.653c-.01.158-.025.313-.048.463a.7.7,0,0,1-.362-.151c-1.481-2.061-1.693-4.753-3.1-6.838-.59-.877-1.574-.895-2.09-1.594a3.019,3.019,0,0,1,.735-3.684,2.292,2.292,0,0,1,3.016.408,3.506,3.506,0,0,1,.487.94,22.2,22.2,0,0,1,1.056,6.418A33.979,33.979,0,0,1,127.071-268.653Z" transform="translate(-104.778 286.734)" fill="#151a36"/>
          <path id="Path_19493" data-name="Path 19493" d="M113.381-264.87a2.714,2.714,0,0,1-1.307,1.262,2.013,2.013,0,0,1-1.79-.082,5.223,5.223,0,0,1-1.665-3.129,2.7,2.7,0,0,1,1.015-2.421C112.354-271.327,114.562-267.145,113.381-264.87Z" transform="translate(-108.039 289.61)" fill="#ff9575"/>
          <path id="Path_19494" data-name="Path 19494" d="M127.291-270.754l.006.067a5.061,5.061,0,0,1,0,1.492,1.72,1.72,0,0,1-.805,1.206c-.9.48-2.158-.547-2.555-1.311a3.712,3.712,0,0,1,.034-3.272,1.848,1.848,0,0,1,1.871-1.079,1.688,1.688,0,0,1,1.1,1.015,5.023,5.023,0,0,1,.311,1.518Z" transform="translate(-104.139 288.6)" fill="#ff9575"/>
        </g>
      </g>
      <path id="Path_19495" data-name="Path 19495" d="M145.766-250.169a2.112,2.112,0,0,0-1.481-.808q-2.507-.577-4.968-1.346a34.418,34.418,0,0,0-4.5-1.476,9.808,9.808,0,0,1-1.208-.246,7.641,7.641,0,0,1-.877-.354q-.8-.367-1.61-.731a6.848,6.848,0,0,1-1.179,5.145c-1.477,1.861-4.225,2.495-6.494,2.179a6.685,6.685,0,0,1-5.246-3.488,34.683,34.683,0,0,1-1.589-3.5,11.279,11.279,0,0,0-3.33.534c-1.738.373-3.463.816-5.182,1.264-2.623.683-5.246,1.383-7.844,2.157-2.816,2.264.091,6.233-.3,7.969-1.172,5.182-.5,67.869-.5,67.869l42.2-.682q.378-5.7.726-11.4.766-12.341,1.429-24.686c.417-7.9.827-15.8,1.006-23.7.034-1.506.038-3.011.053-4.518a28.509,28.509,0,0,1,.01-3.58c.011-.082.023-.164.035-.246.286-1.824.988-3.579,1.01-5.443A1.807,1.807,0,0,0,145.766-250.169Z" transform="translate(-37.854 341.656)" fill="#fad100"/>
      <g id="Group_11425" data-name="Group 11425" transform="translate(71.599 151.678)">
        <g id="Group_11424" data-name="Group 11424">
          <path id="Path_19496" data-name="Path 19496" d="M146-175.732q-.284-5.311-.626-10.618c-.174-2.715-.417-5.541-1.821-7.871-1.893-3.14-7.49-6.2-10.742-7.929-4.624-2.459-10.465-1.174-14.544,1.873-4.287,3.2-6.971,8.143-8.645,13.225a46.893,46.893,0,0,0-.915,25.994c1.151,4.554,3.763,9.6,3.891,14.31.155,5.729-2.123,10.6.26,16.32,1.2,2.893,3.292,5.345,4.557,8.211,1.954,4.433,1.794,9.47,1.6,14.31q-1.161,28.737-2.321,57.475h21.087a.272.272,0,0,0,.009-.03q2.462-16.616,4.506-33.288,1.876-15.3,3.4-30.645C147.726-134.887,147.1-155.132,146-175.732Z" transform="translate(-107.296 203.442)" fill="#d4004a"/>
        </g>
      </g>
      <g id="Group_11426" data-name="Group 11426" transform="translate(16.418 294.076)">
        <path id="Path_19497" data-name="Path 19497" d="M79.07-75.879a2.3,2.3,0,0,0-.024,1.166c.308,1.074,1.949,1.927,2.676,2.845,1.35,1.7,3.65,2.312,5.81,2.559,1.954.224,6.089-.037,7.21,2.091a2.328,2.328,0,0,1,.208,1.286c-.471,5.467-9.882,4.142-13.452,3.905L71.4-62.7c-4.855-.324-9.241-2.352-7.49-8.051a26.887,26.887,0,0,1,1.379-3.367l3.853-8.307c1.068-2.3,2.189-4.679,4.109-6.34,2.313-2,8.043-2.855,9.282.9a6.321,6.321,0,0,1-.475,3.986L80.292-78.82A28.933,28.933,0,0,0,79.07-75.879Z" transform="translate(-63.519 90.473)" fill="#111314"/>
      </g>
      <g id="Group_11428" data-name="Group 11428" transform="translate(19.266 148.646)">
        <g id="Group_11427" data-name="Group 11427">
          <path id="Path_19498" data-name="Path 19498" d="M135.261-198.524a4.739,4.739,0,0,0-.921-2.822,15.518,15.518,0,0,0-2.018-1.387c-1.939-1.528-1.066-2.366-4.231-2.836a26.532,26.532,0,0,0-7.192-.066c-4.174.531-8.585,2.033-11.511,5.193-5.181,5.6-7.574,13.46-8.36,20.9-1.055,9.986.263,20.121-.948,30.088-.716,5.892-2.305,11.639-3.291,17.491-.556,3.294-.942,6.691-2.445,9.673a46.546,46.546,0,0,1-3.918,5.73c-5.979,8.438-5.984,18.676-9.334,28.141-3.9,11-10.906,25.627-15.313,36.432.7.274,1.315.494,1.613.624,1.62.706,3.268,1.337,4.906,2,3.234,1.311,6.366,2.851,9.5,4.393C89.052-57.588,99.828-73.7,107.344-86.087c7.457-12.287,14.982-23,19.161-37.05C133.7-147.347,137.748-173.267,135.261-198.524Z" transform="translate(-65.779 205.848)" fill="#f02b66"/>
        </g>
      </g>
      <path id="Path_19499" data-name="Path 19499" d="M121.4-206.826c.079-.382.154-.761.221-1.138,1.122-6.439,1.8-12.945,2.316-19.457.257-3.26.49-6.522.682-9.784.161-2.763.655-5.472.845-8.245.164-2.39.361-4.936,1.993-6.788a.841.841,0,0,0,.372,0c4.567-1,8.479-5.222,11.54-9.615a1.925,1.925,0,0,1,1.489-.092,3.035,3.035,0,0,1,1.588,2.384c.652,3.064.018,6.18.223,9.27.183,2.766.523,5.072.461,7.868-.069,3.067.412,5.938-.862,8.844-1.463,3.333-1.306,6.669-1.2,10.287.606,20.259,2.12,40.515,4.076,60.611.092.4-.461.6-.87.623a109.878,109.878,0,0,1-14.986-.577,6.4,6.4,0,0,1-2.626-.6,5.077,5.077,0,0,1-1.693-1.748c-2.7-4.189-2.681-8.91-2.951-13.679q-.476-8.435-.952-16.868c-.122-2.166-.466-4.4-.417-6.568A26.554,26.554,0,0,1,121.4-206.826Z" transform="translate(-32.22 339.852)" fill="#2155b5"/>
      <path id="Path_19500" data-name="Path 19500" d="M97.029-210.52c-1.7,13.661-4.228,27.208-5.9,40.877-.149,1.215-.879,3.134.25,4.074a4.314,4.314,0,0,0,2.129.756,107.606,107.606,0,0,0,16.209,1.375c4.1.038,10.1.749,13.761-1.516,3.47-2.144,4.384-6.7,4.975-10.733a159.459,159.459,0,0,0,1.829-16.917,47.584,47.584,0,0,0-.216-7.975c-.35-2.668-.091-5.385-.528-8.042a30.586,30.586,0,0,0-1.548-5.242,196.3,196.3,0,0,1-6.038-20.4c-1.595-6.7-2.521-13.492-3.816-20.232a.278.278,0,0,0-.066-.154.29.29,0,0,0-.193-.054c-2.2-.062-4.24.538-6.407.687-2.018.139-4.054-.053-6.063.181a7.715,7.715,0,0,0-5.316,2.579c-1.982,2.566-1.926,6.466-1.786,9.538.13,2.851.671,5.725.59,8.581C98.679-225.573,97.966-218.029,97.029-210.52Z" transform="translate(-40.006 341.765)" fill="#2155b5"/>
      <g id="Group_11431" data-name="Group 11431" transform="translate(25.85 180.224)">
        <path id="Path_19501" data-name="Path 19501" d="M82.3-165.926c.042-2.433-1.291-4.716-2.511-6.771a2.358,2.358,0,0,0-.562-.708.846.846,0,0,0-.853-.137,1.1,1.1,0,0,0-.416.429c-1.481,2.342-.084,3.529,1.431,5.182.561.613,1.165,1.407.887,2.189a3.231,3.231,0,0,1-.861,1.059c-.488.505-.841,2.495.454,1.882C81.239-163.451,82.27-164.375,82.3-165.926Z" transform="translate(-69.355 182.668)" fill="#ff9575"/>
        <path id="Path_19502" data-name="Path 19502" d="M84.188-160.171c-.02-1.838.222-4.306-1.1-5.786-1.179-1.315-3.335-1.7-5-1.832-4.6-.372-6.407,2.44-7.07,6.613-.175,1.1,1.539,1.313,1.713.217.224-1.413.418-3,1.451-4.074,1.165-1.208,2.919-1.181,4.477-.954,1.583.229,3.113.635,3.626,2.355a14.607,14.607,0,0,1,.2,3.707C82.491-158.818,84.2-159.072,84.188-160.171Z" transform="translate(-71.002 184.175)" fill="#111314"/>
        <g id="Group_11430" data-name="Group 11430" transform="translate(2.345)">
          <g id="Group_11429" data-name="Group 11429">
            <path id="Path_19503" data-name="Path 19503" d="M81.782-173.068a28.636,28.636,0,0,0-.71,3.49,22.4,22.4,0,0,0,.463,5.07c.144,1.295.39,3.013-.72,3.978a3.12,3.12,0,0,1-2.047.691,5.665,5.665,0,0,1-5.008-3.127,10.982,10.982,0,0,1-.88-4.1c-.243-3.895,1.955-7.237,3.543-10.671.431-.933,1.027-2.341,2.009-2.831a2.49,2.49,0,0,1,3.275,1.476,7.532,7.532,0,0,1,.4,4.432C82.023-174.126,81.907-173.6,81.782-173.068Z" transform="translate(-72.862 180.796)" fill="#ff9575"/>
          </g>
        </g>
      </g>
      <g id="Group_11432" data-name="Group 11432" transform="translate(0 199.429)">
        <rect id="Rectangle_1369" data-name="Rectangle 1369" width="57.009" height="36.586" rx="1" transform="matrix(0.992, 0.125, -0.125, 0.992, 4.586, 0.197)" fill="#0e398a"/>
        <path id="Path_19504" data-name="Path 19504" d="M110.08-157,80.916-146.151a1,1,0,0,1-.913-.116l-25.55-17.764a.842.842,0,0,1,.657-1.52l54.713,6.911A.843.843,0,0,1,110.08-157Z" transform="translate(-49.562 165.56)" fill="#2155b5"/>
        <path id="Path_19505" data-name="Path 19505" d="M76.188-150.43c.064-1.04-1.55-1.252-1.615-.2q-.095,1.526-.333,3.037c-.164,1.035,1.451,1.238,1.615.2Q76.1-148.9,76.188-150.43Z" transform="translate(-44.312 169.269)" fill="#2155b5"/>
      </g>
      <g id="Group_11433" data-name="Group 11433" transform="translate(28.322 88.198)">
        <path id="Path_19506" data-name="Path 19506" d="M101.991-250.214A30.242,30.242,0,0,0,90.914-231.05a27.88,27.88,0,0,1-1.235,6.038,26.764,26.764,0,0,1-2.985,4.893,38.708,38.708,0,0,0-6.042,14.943c-1.069,6.081-.669,12.359-1.884,18.412-2.082,10.365-4.906,20.077-5.8,30.674.96.218,11.4,2.121,11.179,2.758,1.577-4.528,3.305-9.031,4.775-13.589,1.16-3.6,2.725-6.739,4.205-10.249,2.234-5.3,1.364-11.713,4.486-16.538,1.214-1.877,2.95-3.361,4.258-5.174,4.041-5.6,3.454-13.389,6.759-19.451,1.835-3.368,4.791-6.039,6.512-9.468,3.067-6.11,1.41-13.022.275-19.373-.891-4.983-3.488-8.227-8.789-5.818A24.1,24.1,0,0,0,101.991-250.214Z" transform="translate(-72.963 253.804)" fill="#2155b5"/>
      </g>
      <g id="Group_11434" data-name="Group 11434" transform="translate(88.942 136.163)">
        <path id="Path_19507" data-name="Path 19507" d="M124.623-213.967a1.785,1.785,0,0,1-1.784,1.785,1.785,1.785,0,0,1-1.785-1.785,1.785,1.785,0,0,1,1.785-1.784A1.784,1.784,0,0,1,124.623-213.967Z" transform="translate(-121.055 215.751)" fill="#111314"/>
        <path id="Path_19508" data-name="Path 19508" d="M124.623-205.174a1.784,1.784,0,0,1-1.784,1.784,1.785,1.785,0,0,1-1.785-1.784,1.784,1.784,0,0,1,1.785-1.784A1.784,1.784,0,0,1,124.623-205.174Z" transform="translate(-121.055 218.042)" fill="#111314"/>
      </g>
      <path id="Path_19509" data-name="Path 19509" d="M117.637-265.552a3.543,3.543,0,0,0,3.942,2.87,3.543,3.543,0,0,0,2.88-3.934Z" transform="translate(-33.004 338.664)" fill="#fff"/>
      <path id="Path_19510" data-name="Path 19510" d="M156.015-304.245c-1.876,5.346-2.047,12.284-3.029,17.76a22.576,22.576,0,0,1-1.371,5.216c-.99,2.232-2.677,4.088-3.789,6.262-2.138,4.182-1.987,9.173-3.624,13.574-2.617,7.036-9.408,11.7-12.884,18.352-3.558,6.816-3.708,15.481-2.812,23.528.324,2.9.783,5.721,1.268,8.346,1.252,6.774,13.263-6.248,15.185-8.292,6.271-6.663,12.026-14.27,14.121-23.349.586-2.54.872-5.139,1.385-7.7.548-2.729,1.355-5.4,2.063-8.089,2.947-11.213,5.716-23.516,5.473-35.144-.067-3.2-.236-6.389-.309-9.582A61.807,61.807,0,0,1,156.015-304.245Z" transform="translate(-30.293 328.862)" fill="#2155b5"/>
      <path id="Path_19511" data-name="Path 19511" d="M111.144-254.593c-.1.7-.236,2.922-.26,3.147q-.227,2.216-.455,4.432l-.881,8.571-.155,1.511,5.58,1.466-4.311,5.123,13.925,21.229c-1.118-5.474-2.218-10.951-3.421-16.41-1.116-5.071-2.515-10.03-3.781-15.057q-1.832-7.268-3.682-14.531a12.969,12.969,0,0,0-2.51.305A.554.554,0,0,0,111.144-254.593Z" transform="translate(-35.151 341.661)" fill="#0e398a"/>
      <path id="Path_19512" data-name="Path 19512" d="M129.275-247.386q-.48-3.379-.837-6.768a7.965,7.965,0,0,1-3.174-.916c.049.808-.185,3.076-.207,3.371q-.138,1.9-.408,3.79c-.343,2.386-.92,4.721-1.353,7.076-.887,4.838-.872,9.822-1.1,14.749-.132,2.832-.238,5.667-.35,8.5q-.085,2.125-.178,4.249-.049,1.1-.1,2.206c-.021.426.125,1.526-.1,1.867l8.708-21.092-4.8-5.123c.169.18,2.646-.713,2.917-.787.639-.171,1.282-.333,1.917-.517.344-.1.7-.124.8-.436a6.3,6.3,0,0,0-.368-1.882Q129.864-243.23,129.275-247.386Z" transform="translate(-32.007 341.672)" fill="#0e398a"/>
    </g>
    <g id="Group_11442" data-name="Group 11442" transform="translate(425.114 -258.586)">
      <path id="Path_19513" data-name="Path 19513" d="M374.117-71.341a8.787,8.787,0,0,1-1.151,1.91c-3.026,3.79-8.542,4.163-12.942,6.2-2,.926-4.908,3.6-2.951,5.887,1.355,1.582,4.772,1.439,6.623,1.306a187.3,187.3,0,0,0,19.511-2.437,3.4,3.4,0,0,0,1.678-.625,3.451,3.451,0,0,0,.828-2.573q.34-8.934.121-17.878c0-.009-8.211-.208-8.986.137-1.717.764-1.467,2.184-1.668,3.845A14.7,14.7,0,0,1,374.117-71.341Z" transform="translate(-341.252 322.19)" fill="#110809"/>
      <path id="Path_19514" data-name="Path 19514" d="M413.913-65.341a7.9,7.9,0,0,1-1.756,1.4,53.212,53.212,0,0,1-9.045,4.351c-2.4.886-5.05,1.737-6.465,3.867-3.21,4.829,3.4,6.005,6.6,5.776a187.3,187.3,0,0,0,19.511-2.438,3.413,3.413,0,0,0,1.678-.624,3.457,3.457,0,0,0,.828-2.573q.34-8.936.12-17.879c0,.071-8.38-.333-9.088.137-1.346.892-.7,2.8-.819,4.172A6.174,6.174,0,0,1,413.913-65.341Z" transform="translate(-330.997 323.767)" fill="#110809"/>
      <g id="Group_11437" data-name="Group 11437" transform="translate(28.203 105.99)">
        <g id="Group_11436" data-name="Group 11436">
          <path id="Path_19515" data-name="Path 19515" d="M422.687-164.087a77.739,77.739,0,0,0-5.492-20.588c-.353-.845-1.036-3.1-2.115-3.292-.614-.111-2.68,1.519-3.338,1.814a33.128,33.128,0,0,1-4.177,1.491c-3.141.932-6.383,1.537-9.461,2.68-2.37.881-6.4,2.374-7.465,4.77q-2.231,5-4.148,10.141c-1.15,3.077-2.859,6.318-3.427,9.539-.5,2.806-.493,5.418-1.45,8.251-3.842,11.39-10.632,21.759-13.144,33.514a85.8,85.8,0,0,0-1.5,15.208A572.183,572.183,0,0,0,368.6-41.245h16.63c.51-3.64,1.022-8.558,1.533-12.2a65.882,65.882,0,0,1,2.462-12.025c.759-2.239,1.758-4.4,2.372-6.679,1.833-6.826.16-14.535,3.476-20.776.818-1.539,1.91-2.916,2.768-4.432a30.289,30.289,0,0,0,2.82-8.124c1.926-8.25,3.221-16.806,7.2-24.286,2.254-4.239,5.3-5.749,8.515-8.839,2.537-2.439,4.528-7.422,5.3-10.784A44.347,44.347,0,0,0,422.687-164.087Z" transform="translate(-366.762 187.972)" fill="#d4004a"/>
        </g>
      </g>
      <path id="Path_19516" data-name="Path 19516" d="M355.441-250.836c-.833-2.222-.63-4.661-.4-6.981a41.558,41.558,0,0,0-.212-9.845,7.5,7.5,0,0,0-.74-2.632c-.66-1.187-2.653-2.372-3.935-1.416a3.753,3.753,0,0,0-1.029,1.413,8.931,8.931,0,0,0-1.262,4.074c.066,1.39.5,2.9-.009,4.272-.451,1.215-1.141-.262-1.3-.933-.14-.6-.892-2.187-1.733-1.811-.942.421-.089,3.21.117,3.953.831,2.97,2.468,5.69,2.924,8.768.24,1.617.13,3.268.294,4.9.28,2.784,1.3,5.395,1.763,8.149a51.363,51.363,0,0,1,.659,5.793c.055,1.015.076,2.032.175,3.044a38.637,38.637,0,0,0,1.192,5.816q.807,3.112,1.613,6.224c.487,1.879,1.094,3.58,1.742,5.385a33.373,33.373,0,0,0,5.621,10.035c2.362,2.98,4.017,7.427,8.471,7.378a29.4,29.4,0,0,0,7.142-1.489,23.866,23.866,0,0,0,7.428-3.644,21.63,21.63,0,0,0,7.874-10.944,8.247,8.247,0,0,0,.319-4.588c-1.129-4.03-5.788-4.516-9.256-3.984L377.01-219c-1.886.289-4.455,2.149-5.581-.263-2.545-5.452-6.212-10.444-9.069-15.744-2.255-4.181-3.739-8.747-5.733-13.052C356.22-248.934,355.8-249.886,355.441-250.836Z" transform="translate(-344.387 272.058)" fill="#ff9575"/>
      <g id="Group_11439" data-name="Group 11439" transform="translate(65.326 102.691)">
        <g id="Group_11438" data-name="Group 11438">
          <path id="Path_19517" data-name="Path 19517" d="M435.392-155.706a36.234,36.234,0,0,0-7.206-25.857c-3.469-4.509-8.343-8.305-14-8.928-20.576-2.27-18.422,35.191-17.321,47.449.88,9.785,2.471,19.495,3.2,29.293.507,6.792-.066,13.588-.014,20.355.05,6.881,2.8,13.915,4.171,20.66.575,2.817,4.129,27.141,5.368,39.2h17.511q4.237-32.389,5.952-65.04c.389-7.452.707-15,.862-22.422.163-7.7-1.694-15.232-.61-23.026C433.856-147.94,434.948-151.773,435.392-155.706Z" transform="translate(-396.213 190.589)" fill="#f02b66"/>
        </g>
      </g>
      <path id="Path_19518" data-name="Path 19518" d="M394.116-234.691c-3-.732-6.8.024-9.514.519-4.318.789-8.4,2.409-12.6,3.61-.224.079-.45.151-.673.231-.27.1-.543.2-.813.31q-.047.735-.093,1.472c.819,7.839,2.106,15.619,3.3,23.411a43.135,43.135,0,0,0,20.346-16.979,18.916,18.916,0,0,0,1.854-4.379,10.869,10.869,0,0,0,.006-1.389C395.771-230.234,394.777-232.423,394.116-234.691Z" transform="translate(-337.605 281.713)" fill="#2155b5"/>
      <path id="Path_19519" data-name="Path 19519" d="M385.481-160.162c4.45-1.113-5.12-37.563-5.825-41.009a98.139,98.139,0,0,1-2.2-14.308c-.168-3.1.029-6.427,1.854-8.938a15.915,15.915,0,0,1,4.674-3.829c8.982-5.617,16.737-12.95,27.876-13.457a4.624,4.624,0,0,1,1.9.2c1.192.465,1.829,1.736,2.357,2.9,2.609,5.752,3.621,12.031,6.287,17.646a93.64,93.64,0,0,1,6.14,17.656c3.193,12.672,6.1,25.509,7.48,38.525-1.651-3.43-19.666.531-23.6.992Q398.928-162.2,385.481-160.162Z" transform="translate(-335.784 279.962)" fill="#2155b5"/>
      <path id="Path_19520" data-name="Path 19520" d="M414.512-237.654c2.031,2.288,3.068,5.839,3.722,8.981,1.746,8.391,3.5,16.868,3.34,25.438a114.982,114.982,0,0,1-1.634,15.181q-2.076,13.608-4.155,27.214c-.692,4.537-1.4,9.071-2.077,13.608-.342,2.27-.232,6.281-1.858,8.155-.891,1.027-2.374,1.259-3.726,1.41q-9.828,1.1-19.733,1.232c-.93-3.422,1.787-6.979,5.095-8.259s7-.874,10.516-.449q-1.424-16.934-2.849-33.867c-1.138-7.966.579-16.318-1.187-24.157s-2.246-15.868-2.946-23.951c-.228-2.622-.4-5.473,1.054-7.666,1.274-1.922,3.526-2.912,5.66-3.787,2.242-.919,4.659-1.837,7.031-1.337A6.815,6.815,0,0,1,414.512-237.654Z" transform="translate(-332.972 280.397)" fill="#ff9575"/>
      <path id="Path_19521" data-name="Path 19521" d="M395.017-205.628a117.521,117.521,0,0,1,27.392-1.834A144.958,144.958,0,0,0,419.542-228c-.874-4.1-2.075-8.413-5.2-11.207-5.4-4.835-16.978-3.563-19.6,3.747C391.7-226.942,393.393-214.216,395.017-205.628Z" transform="translate(-331.709 279.867)" fill="#2155b5"/>
      <g id="Group_11441" data-name="Group 11441" transform="translate(39.862 11.47)">
        <path id="Path_19522" data-name="Path 19522" d="M396.046-242.384c.29,1.651,1.726,8.961,1.867,10.46.247,2.626-2.985,15.619-5.4,16.255-2.655.7-7.818-9.522-8.1-12.223-.384-3.676-.5-11.134-.5-11.183C384.652-249.145,394.856-249.146,396.046-242.384Z" transform="translate(-373.956 267.089)" fill="#ff9575"/>
        <path id="Path_19523" data-name="Path 19523" d="M394.414-246.316c-.572-.58-1.462-.606-2.723-.677a6.911,6.911,0,0,0-4.492,1.056,7.893,7.893,0,0,0-3.289,6.838c.093,1.024.106,1.951.252,2.846a6.073,6.073,0,0,0,1.1,2.7,18.072,18.072,0,0,0,3.106,3.084,5.2,5.2,0,0,0,1.877,1.171,5.042,5.042,0,0,0,3.6-.85c5.706-3.083,2.115-9.911,1.223-14.691A2.742,2.742,0,0,0,394.414-246.316Z" transform="translate(-373.961 267.113)" fill="url(#linear-gradient-2)"/>
        <g id="Group_11440" data-name="Group 11440">
          <path id="Path_19524" data-name="Path 19524" d="M381.4-255.9c1.6-1.2,5.386.5,7.4.451,2.008.135,5.111.163,6.7,1.384,3.358,2.585,3.624,7.927,2.362,11.893-.211.664-.605,2.334-.882,2.974-2.216,5.1-7.573,6.342-10.393,6.1-3.371-.289-5.549-2.732-6.678-6.444-.2-.667-.567-2.887-.682-3.575C378.51-247.333,379.711-254.635,381.4-255.9Z" transform="translate(-375.23 264.687)" fill="#ff9575"/>
          <path id="Path_19525" data-name="Path 19525" d="M378.619-262.091a4.6,4.6,0,0,1,5.079-.183c1.584,1.174,2.23,2.563,4.374,2.447,2.051-.111,3.4-.957,5.507-.134,3.376,1.317,5.478,5.028,5.879,8.492a43.654,43.654,0,0,1-.1,8.391c-.069.146-.483.334-.6-.245a24.715,24.715,0,0,0-.735-3.875,1.8,1.8,0,0,0-1.462-1.216c-.57-.031-1.233.281-1.659-.1a1.586,1.586,0,0,1-.361-.761,3.732,3.732,0,0,0-2.9-2.522c-3.113-.5-5.924.635-9,.61-5.071-.042-9.229-6.691-4.636-10.46A5.958,5.958,0,0,1,378.619-262.091Z" transform="translate(-376.012 262.959)" fill="#110809"/>
          <path id="Path_19526" data-name="Path 19526" d="M378.831-245.281c.059.59.137.474.437.194,1.092-3.016.092-8.142,2.386-8.725.171-.044.6-1.985.174-1.907a4.778,4.778,0,0,0-2.515,1.123C378.222-252.794,378.585-247.686,378.831-245.281Z" transform="translate(-375.345 264.844)" fill="#110809"/>
          <path id="Path_19527" data-name="Path 19527" d="M392.479-246.9a2.09,2.09,0,0,0,1.716,2.339A2.09,2.09,0,0,0,396-246.832a2.088,2.088,0,0,0-1.716-2.339A2.088,2.088,0,0,0,392.479-246.9Z" transform="translate(-371.722 266.55)" fill="#ff9575"/>
          <path id="Path_19528" data-name="Path 19528" d="M377.519-247.228a2.088,2.088,0,0,0,1.714,2.339,2.089,2.089,0,0,0,1.809-2.269,2.087,2.087,0,0,0-1.716-2.338A2.087,2.087,0,0,0,377.519-247.228Z" transform="translate(-375.619 266.466)" fill="#ff9575"/>
        </g>
      </g>
      <path id="Path_19529" data-name="Path 19529" d="M389.161-244.588a3.418,3.418,0,0,1-2.9,3.7,3.417,3.417,0,0,1-3.711-2.889Z" transform="translate(-334.446 279.214)" fill="#fff"/>
    </g>
    <g id="Group_11446" data-name="Group 11446" transform="translate(296.353 -228.275)">
      <path id="Path_19530" data-name="Path 19530" d="M270.9-92.33c1.811,2.705,3.111,5.271,2.629,8.881-.708,5.305-5.038,8.822-6.18,13.973a3.145,3.145,0,0,0-.055,1.456,2.972,2.972,0,0,0,2.128,1.965c5.008,1.317,9.389-6.042,12.219-8.89L292.32-85.7a2.776,2.776,0,0,0-.286-3.822l-11.924-12.32-1.751-1.833c-2.9-3.038-7.258-3.373-9.648-.744-2.065,2.273-1.9,6.16.192,9.21C269.593-94.2,270.274-93.258,270.9-92.33Z" transform="translate(-235.727 284.955)" fill="#110809"/>
      <g id="Group_11443" data-name="Group 11443" transform="translate(49.89 66.726)">
        <rect id="Rectangle_1370" data-name="Rectangle 1370" width="2.654" height="58.543" transform="translate(27.755 134.766) rotate(180)" fill="#110809"/>
        <path id="Path_19531" data-name="Path 19531" d="M330.672-75.875c0-8.645-15.3-12.27-22.939-12.285-9.1-.018-22.94,3.337-22.94,12.285" transform="translate(-281.04 222.926)" fill="none" stroke="#110809" stroke-width="2"/>
        <line id="Line_126" data-name="Line 126" y1="14.359" transform="translate(26.436 135.003)" fill="none" stroke="#110809" stroke-width="2"/>
        <path id="Path_19532" data-name="Path 19532" d="M281.816-75.983a3.754,3.754,0,0,0,3.754,3.754,3.754,3.754,0,0,0,3.754-3.754,3.753,3.753,0,0,0-3.754-3.754A3.753,3.753,0,0,0,281.816-75.983Z" transform="translate(-281.816 225.12)" fill="#110809"/>
        <path id="Path_19533" data-name="Path 19533" d="M299.864-75.983a3.755,3.755,0,0,0,3.754,3.754,3.754,3.754,0,0,0,3.754-3.754,3.753,3.753,0,0,0-3.754-3.754A3.754,3.754,0,0,0,299.864-75.983Z" transform="translate(-277.115 225.12)" fill="#110809"/>
        <path id="Path_19534" data-name="Path 19534" d="M317.913-75.983a3.754,3.754,0,0,0,3.754,3.754,3.755,3.755,0,0,0,3.754-3.754,3.754,3.754,0,0,0-3.754-3.754A3.753,3.753,0,0,0,317.913-75.983Z" transform="translate(-272.413 225.12)" fill="#110809"/>
        <path id="Path_19535" data-name="Path 19535" d="M310.657-138.5v-43.072a13.5,13.5,0,0,1,13.5-13.5h14.863a13.5,13.5,0,0,1,13.5,13.5v48.154a19.393,19.393,0,0,1-19.337,19.337H284.722a2.275,2.275,0,0,1-2.275-2.275h0a2.275,2.275,0,0,1,2.275-2.275h6.067A19.868,19.868,0,0,0,310.657-138.5Z" transform="translate(-281.652 195.075)" fill="#c6f6f7"/>
      </g>
      <path id="Path_19536" data-name="Path 19536" d="M268.187-76.439c-.58,3.205-1.431,5.952-4.287,8.212-4.2,3.32-9.755,2.836-14.158,5.743a3.166,3.166,0,0,0-1.051,1.007,2.975,2.975,0,0,0,.161,2.893c2.684,4.429,10.949,2.188,14.963,2.109l15.156-.3a2.775,2.775,0,0,0,2.453-2.945V-76.865l.015-2.536c.026-4.2-2.869-7.471-6.415-7.243-3.064.2-5.648,3.106-6.267,6.752C268.552-78.687,268.385-77.537,268.187-76.439Z" transform="translate(-240.635 290.044)" fill="#110809"/>
      <g id="Group_11444" data-name="Group 11444" transform="translate(3.548 11.66)">
        <path id="Path_19537" data-name="Path 19537" d="M295.317-168.829c-2.9,2.829-6.31,4.835-10.6,4.5-3.2-.247-6.093-1.924-8.859-3.558-5.811-3.436-9.514-9.359-13.127-14.84-4.992-7.573-11.453-14.41-14.753-22.985-1.627-4.23-2.772-7.83-2.43-12.447.333-4.494,1.468-9.035.461-13.525-.338-1.509-2.062-6.132.142-6.967,2.022-.764,3.924,2.526,4.355,3.966a25.875,25.875,0,0,1,.657,5.312c.647,7.713,3.856,18.3,10.181,23.261,2.05,1.608,4.615,2.411,6.794,3.837,4.282,2.8,6.658,7.69,10.172,11.41a5.328,5.328,0,0,0,3.111,1.916c3.623.377,4.139-3.934,5.552-6.115,2.735-4.218,9.852-9.294,15.076-8.134a9.185,9.185,0,0,1,6.937,7.592,17.921,17.921,0,0,1-.227,4.711,26.119,26.119,0,0,1-.9,4.55c-.934,2.87-2.826,5.314-4.682,7.694C300.827-175.633,298.349-171.783,295.317-168.829Z" transform="translate(-245.051 238.761)" fill="#ff9575"/>
        <path id="Path_19538" data-name="Path 19538" d="M289.2-169.918h0c.016-.059.026-.121.043-.182Z" transform="translate(-233.55 256.647)" fill="#7a483a"/>
        <path id="Path_19539" data-name="Path 19539" d="M297.3-208.233l-.2.939h0Z" transform="translate(-231.493 246.713)" fill="#7a483a"/>
        <path id="Path_19540" data-name="Path 19540" d="M289.358-170.491c-.033.182-.078.357-.124.532l.144-.683C289.369-170.592,289.366-170.541,289.358-170.491Z" transform="translate(-233.541 256.506)" fill="#7a483a"/>
        <path id="Path_19541" data-name="Path 19541" d="M303.534-207.854c-.043,3.057-.334,6.024-.338,7.687a26.855,26.855,0,0,1-.514,6.159,24.681,24.681,0,0,1-1.969,5.062c-2.434,4.985-5.249,10.356-8.917,14.536a81.972,81.972,0,0,1-4.921-6.672c-2.148-3.55-4.2-7.152-6.258-10.755-1.136-1.99-4.653-5.672-4.011-7.888.463-1.6,5.96-5.564,7.3-7.245,3.107-3.887,9.592-10.871,14.99-11.285C302.954-218.565,303.607-213.077,303.534-207.854Z" transform="translate(-236.851 244.099)" fill="#fad100"/>
      </g>
      <path id="Path_19542" data-name="Path 19542" d="M245.249-138.994a11.373,11.373,0,0,1,2.905-7.587c3.865-4.26,10.1-5.2,15.808-5.883l23.25-2.779c13.255-1.583,27.469-3,39.263,3.247,8.094,4.288,10.881,14.227,3.1,20.532-4.327,3.508-10.074,4.584-15.56,5.547l-23.5,4.122c-6.911,1.213-14.961,3.779-21.315-.517-1.684-1.138-3.135-2.667-5.021-3.426-5.372-2.16-15.215-3.325-18.025-9.175A9.55,9.55,0,0,1,245.249-138.994Z" transform="translate(-241.452 271.824)" fill="#0e398a"/>
      <path id="Path_19543" data-name="Path 19543" d="M256.51-151.93a30.594,30.594,0,0,1,7.474-.765c7.287.063,12.533,7.443,8.758,14.24-.818,1.472-2.036,2.793-2.308,4.456a8.477,8.477,0,0,0,.937,4.479C277.75-113.967,287.536-97.2,289.3-80.43c-4.62,2.314-18.276,3.722-20.956-.964q-3.564-6.236-7.129-12.47a64.336,64.336,0,0,0-4.869-7.656c-2.287-2.942-5.071-5.471-7.36-8.411a32.831,32.831,0,0,1-5.237-29.725C246.058-146.82,250.55-150.481,256.51-151.93Z" transform="translate(-242.236 272.84)" fill="#0e398a"/>
      <path id="Path_19544" data-name="Path 19544" d="M269.093-132.011c8.884-12.339,27.712-10.592,34.925-25.015a6.48,6.48,0,0,1,.792-1.337c1.108-1.3,3.057-1.349,4.763-1.342,9.668.035,19.257-1.412,28.759-3.055,5.65-.978,5.568-.1,7.6,5.149a44.844,44.844,0,0,1,3.223,12.15c.512,5.766-1.013,12.013-5.327,15.871a27.127,27.127,0,0,1-8.231,4.508,381.029,381.029,0,0,1-43.262,14.373,31.842,31.842,0,0,1-8.406,1.423,16.906,16.906,0,0,1-13.792-7.56C265.943-123.307,266.31-128.145,269.093-132.011Z" transform="translate(-235.788 270.127)" fill="#2155b5"/>
      <path id="Path_19545" data-name="Path 19545" d="M290.028-213.1a14.1,14.1,0,0,1,3.382-3.565c4.757-3.6,11.579-3.263,17.215-3.446,5.9-.192,12.295.255,17.818,2.5,5.658,2.3,6.837,4.7,7,10.3.224,7.452,2.455,14.961,3.29,22.4a199.48,199.48,0,0,1,1.238,23.759c-.032,4.219-.188,8.439-.5,12.647-.349,4.718-.765,4.75-5.395,5.394-10.824,1.505-25.257,4.644-35.987,1.591-.567-19.195-7.04-37.7-9.734-56.709C287.569-203.815,287.31-208.911,290.028-213.1Z" transform="translate(-230.361 255.268)" fill="#fad100"/>
      <path id="Path_19546" data-name="Path 19546" d="M308.852-203.382a9.873,9.873,0,0,0,4.137-3.113c4.408-5.739.2-9.649-.052-15.463-.183-4.23,2.744-8.46,1.392-12.474-.266-.788-1.041-1.647-1.785-1.276a1.659,1.659,0,0,0-.589.62c-3.7,5.579-8.616,5.123-14.981,6.272.822-.149,1.017,13.781.828,14.728a21.869,21.869,0,0,0-.562,3.236,8.152,8.152,0,0,0,6.135,7.918A8.97,8.97,0,0,0,308.852-203.382Z" transform="translate(-227.977 251.193)" fill="#ff9575"/>
      <path id="Path_19547" data-name="Path 19547" d="M312.6-227.67l-14,.683,1.148,10.337h0c4.678,2.463,15.4,1.75,12.851-3.359Z" transform="translate(-227.553 253.31)" fill="url(#linear-gradient-3)"/>
      <path id="Path_19548" data-name="Path 19548" d="M302.708-216.839a7.484,7.484,0,0,0,5.4-2.138c1.469-1.262,2.685-2.788,4.09-4.122a15.415,15.415,0,0,0,2.406-2.512,11.3,11.3,0,0,0,1.4-4.38c.333-1.9.919-3.619.485-5.574a10.877,10.877,0,0,0-1.352-3.072q-1.233-2.106-2.658-4.093c-1.913-2.665-5.081-4.944-8.534-3.654a7.036,7.036,0,0,0-3.707,3.461c-1.037,2.053-1.184,4.45-2.092,6.563-.3.7-.678,1.355-1.017,2.033-1.408,2.821-2.556,6.4-1.828,9.551a10.934,10.934,0,0,0,4.4,6.856A6.344,6.344,0,0,0,302.708-216.839Z" transform="translate(-228.472 248.338)" fill="#ff9575"/>
      <path id="Path_19549" data-name="Path 19549" d="M319.663-237.749c-2.068-.821-2.115-1.931-2.685-3.948a8.4,8.4,0,0,0-3.971-4.878,11.922,11.922,0,0,0-6.21-1.431,10.778,10.778,0,0,0-4.946,1.23,6.893,6.893,0,0,0-3.272,3.813,3.428,3.428,0,0,0-.079,2.09c.546,1.664,2.98,2.338,4.431,2.91a47.87,47.87,0,0,1,4.94,2.087c3.088,1.637,4.592,4.153,3.044,7.548-.572,1.254-.754,3.444-2.813,2.916a3.116,3.116,0,0,1-1.44-1.171,8.994,8.994,0,0,0-2.946-2.351,7.737,7.737,0,0,0-3.73-.509,15.471,15.471,0,0,1-3.388.125c-.444-.1-.282-.8-.858-.792-.361.008-.537.435-.623.785l-.964,3.924c-.542,2.206-1.075,5.159-.077,7.306a7.87,7.87,0,0,0,3.847,3.638c3.144,1.511,7.621,1.871,10.608-.209,2.221-1.547,2.8-4.012,4.653-5.744,1.639-1.528,4.874-1.765,5.794-3.976.566-1.356-.141-2.989.41-4.356C320.641-231.845,325.807-235.314,319.663-237.749Zm-22.824,15.287a1.337,1.337,0,0,1-.279-.468,2.84,2.84,0,0,1,1.132-3.006,4.6,4.6,0,0,1,5.575.016c.982.789,2.166,1.869,2.28,3.2a1.933,1.933,0,0,1-.59,1.62,2.022,2.022,0,0,1-2.174.156c-1.105-.545-1.392-1.81-2.8-1.308-.837.3-.914.632-1.81.434A2.475,2.475,0,0,1,296.839-222.462Z" transform="translate(-228.879 248.011)" fill="#110809"/>
      <path id="Path_19550" data-name="Path 19550" d="M309.379-232.639a4.362,4.362,0,0,0-.45.54,8.864,8.864,0,0,0-1.485,3.573,3.8,3.8,0,0,0,1.983.418,2.89,2.89,0,0,0,1.284-.678,5.061,5.061,0,0,0,1.723-3.16,1.594,1.594,0,0,0-.179-1.136,1.4,1.4,0,0,0-1.5-.391A3.065,3.065,0,0,0,309.379-232.639Z" transform="translate(-225.25 251.782)" fill="#ff9575"/>
      <path id="Path_19551" data-name="Path 19551" d="M303.543-227.48a4.817,4.817,0,0,1-4.093.32,3.9,3.9,0,0,1-2.629-3.066" transform="translate(-228.017 252.644)" fill="#fff"/>
      <g id="Group_11445" data-name="Group 11445" transform="translate(59.57 39.813)">
        <path id="Path_19552" data-name="Path 19552" d="M340.935-156.315c.856-.095,1.724-.154,2.607-.171-2.709-3.435-6.228-6.17-8.887-9.645-2.986-3.9-2.674-7.792-4.083-12.169-1.165-3.614-3.45-6.8-4.583-10.473-2.758-8.938.594-24.988,13.534-21.064,3.676,1.113,6.572,4.06,8.453,7.408a45.353,45.353,0,0,1,3.848,10.825l6.224,23.721c.93,3.542,1.623,7.179,2.486,10.7,1.211,4.935,4.215,10.467-2.781,12.445a62.565,62.565,0,0,1-12.969,1.771c-8.174.54-16.4,1.4-24.585,1.621-4.975.134-9.742-1.427-14.644-1.98-4.264-.48-8.366,1.021-12.543.314-1.753-.3-3.621-1.592-3.512-3.367a3.754,3.754,0,0,1,1.521-2.5c3.116-2.589,7.666-2.588,11.59-1.583a8.529,8.529,0,0,0,2.711.436,8.92,8.92,0,0,0,2.728-.882c5.666-2.382,10.738-.509,16.347-1.378S335.24-155.688,340.935-156.315Z" transform="translate(-289.495 217.983)" fill="#ff9575"/>
        <path id="Path_19553" data-name="Path 19553" d="M314.624-191.591c-.091-.3-.179-.592-.267-.889-1.3-4.371-2.348-8.965-1.6-13.462s3.7-8.893,8.086-10.122a13.407,13.407,0,0,1,8.605.923c6.713,2.771,11.6,8.552,14.74,14.95,1.49,3.034,3.49,6.623,1.877,9.045-1.989,2.984-25.859,14.331-24.883,16.36A118.823,118.823,0,0,1,314.624-191.591Z" transform="translate(-283.5 216.426)" fill="#fad100"/>
      </g>
      <path id="Path_19554" data-name="Path 19554" d="M271.018-136.207c-5.555,10.421-2.976,23.216-4.055,34.457q-2.059,21.426-5.356,42.709a68.087,68.087,0,0,1,21.468,1.726c4.016-13.713,8.05-27.518,9.519-41.731.449-4.34.664-8.753,1.987-12.911,1.6-5.042,4.78-9.544,5.822-14.733,1.325-6.594-4.321-17.367-11.455-18.176C282.9-145.551,273.954-141.714,271.018-136.207Z" transform="translate(-237.19 274.859)" fill="#2155b5"/>
    </g>
    <g id="Group_11447" data-name="Group 11447" transform="translate(238.977 -156.116)">
      <path id="Rectangle_1371" data-name="Rectangle 1371" d="M0,0H67.518a0,0,0,0,1,0,0V2.36a0,0,0,0,1,0,0H1.524A1.524,1.524,0,0,1,0,.836V0A0,0,0,0,1,0,0Z" transform="translate(90.707 40.052) rotate(180)" fill="#2969ff"/>
      <path id="Path_19555" data-name="Path 19555" d="M208.308-153.072h67.468l-12.033-35.634a3.157,3.157,0,0,0-3.03-2.058H199.9a2.98,2.98,0,0,0-3.031,3.8Z" transform="translate(-196.718 190.765)" fill="#00aeef"/>
      <rect id="Rectangle_1372" data-name="Rectangle 1372" width="67.791" height="2.36" transform="translate(79.381 40.053) rotate(180)" fill="url(#linear-gradient-4)"/>
      <path id="Path_19556" data-name="Path 19556" d="M225.077-175.479a2.784,2.784,0,0,0,3.155,2.164,2.748,2.748,0,0,0,2.745-2.7,3.112,3.112,0,0,0-3.142-2.773.513.513,0,0,0-.256.068.507.507,0,0,0-.265,0A2.953,2.953,0,0,0,225.077-175.479Z" transform="translate(-189.339 193.886)" fill="none" stroke="#0b262a" stroke-width="1"/>
    </g>
    <g id="Group_11448" data-name="Group 11448" transform="translate(68.236 -115.977)">
      <rect id="Rectangle_1373" data-name="Rectangle 1373" width="490.669" height="5.381" fill="#0b262a"/>
      <rect id="Rectangle_1374" data-name="Rectangle 1374" width="5.108" height="140.471" transform="translate(437.034 2.732)" fill="#0b262a"/>
      <path id="Path_19557" data-name="Path 19557" d="M371.727-17.413h-5.108L399.6-156.754H404.7Z" transform="translate(18.282 159.486)" fill="#0b262a"/>
      <path id="Path_19558" data-name="Path 19558" d="M116.943-17.413h5.108L89.073-156.754H83.965Z" transform="translate(-55.348 159.486)" fill="#0b262a"/>
      <rect id="Rectangle_1375" data-name="Rectangle 1375" width="5.108" height="140.471" transform="translate(10.514 2.732)" fill="#0b262a"/>
    </g>
    <g id="Group_11449" data-name="Group 11449" transform="translate(353.585 -309.625)">
      <circle id="Ellipse_334" data-name="Ellipse 334" cx="17.878" cy="17.878" r="17.878" transform="matrix(0.677, -0.736, 0.736, 0.677, 0, 26.32)" fill="#00a7ad"/>
      <path id="Path_19559" data-name="Path 19559" d="M307.006-301.289c0,.852.851,13.622.851,13.622l10.216-6.812" transform="translate(-282.596 315.483)" fill="none" stroke="#0b262a" stroke-width="1"/>
    </g>
    <g id="Group_11451" data-name="Group 11451" transform="translate(321.86 -161.771)">
      <path id="Path_19560" data-name="Path 19560" d="M262.472-164.6l9.547-5.837h46.434a8.623,8.623,0,0,0,8.6-8.647v-7.518a8.622,8.622,0,0,0-8.6-8.646H271.07a8.622,8.622,0,0,0-8.6,8.646Z" transform="translate(-262.472 195.251)" fill="none" stroke="#0b262a" stroke-width="1"/>
      <g id="Group_11450" data-name="Group 11450" transform="translate(21.406 10.581)">
        <path id="Path_19561" data-name="Path 19561" d="M283.082-185.033a1.819,1.819,0,0,1-1.814,1.824,1.819,1.819,0,0,1-1.814-1.824,1.819,1.819,0,0,1,1.814-1.824A1.819,1.819,0,0,1,283.082-185.033Z" transform="translate(-279.454 186.857)" fill="#0b262a"/>
        <path id="Path_19562" data-name="Path 19562" d="M291.717-185.033a1.819,1.819,0,0,1-1.814,1.824,1.819,1.819,0,0,1-1.814-1.824,1.819,1.819,0,0,1,1.814-1.824A1.819,1.819,0,0,1,291.717-185.033Z" transform="translate(-277.205 186.857)" fill="#0b262a"/>
        <path id="Path_19563" data-name="Path 19563" d="M300.352-185.033a1.819,1.819,0,0,1-1.814,1.824,1.819,1.819,0,0,1-1.814-1.824,1.819,1.819,0,0,1,1.814-1.824A1.819,1.819,0,0,1,300.352-185.033Z" transform="translate(-274.955 186.857)" fill="#0b262a"/>
      </g>
    </g>
    <g id="Group_11453" data-name="Group 11453" transform="translate(440.621 -283.088)">
      <path id="Path_19564" data-name="Path 19564" d="M356.69-260.847l9.547-5.837h46.434a8.623,8.623,0,0,0,8.6-8.647v-7.518a8.623,8.623,0,0,0-8.6-8.647H365.288a8.623,8.623,0,0,0-8.6,8.647Z" transform="translate(-356.69 291.496)" fill="none" stroke="#0b262a" stroke-width="1"/>
      <g id="Group_11452" data-name="Group 11452" transform="translate(21.406 10.582)">
        <path id="Path_19565" data-name="Path 19565" d="M377.3-281.277a1.819,1.819,0,0,1-1.814,1.824,1.819,1.819,0,0,1-1.814-1.824,1.819,1.819,0,0,1,1.814-1.824A1.819,1.819,0,0,1,377.3-281.277Z" transform="translate(-373.672 283.101)" fill="#0b262a"/>
        <path id="Path_19566" data-name="Path 19566" d="M385.935-281.277a1.819,1.819,0,0,1-1.814,1.824,1.819,1.819,0,0,1-1.814-1.824,1.819,1.819,0,0,1,1.814-1.824A1.819,1.819,0,0,1,385.935-281.277Z" transform="translate(-371.423 283.101)" fill="#0b262a"/>
        <path id="Path_19567" data-name="Path 19567" d="M394.57-281.277a1.819,1.819,0,0,1-1.814,1.824,1.819,1.819,0,0,1-1.814-1.824,1.819,1.819,0,0,1,1.814-1.824A1.819,1.819,0,0,1,394.57-281.277Z" transform="translate(-369.173 283.101)" fill="#0b262a"/>
      </g>
    </g>
    <g id="Group_11455" data-name="Group 11455" transform="translate(269.502 -247.331)">
      <path id="Path_19568" data-name="Path 19568" d="M285.515-232.48l-9.547-5.839H229.533a8.622,8.622,0,0,1-8.6-8.647v-7.516a8.622,8.622,0,0,1,8.6-8.647h47.385a8.622,8.622,0,0,1,8.6,8.647Z" transform="translate(-220.935 263.129)" fill="none" stroke="#0b262a" stroke-width="1"/>
      <g id="Group_11454" data-name="Group 11454" transform="translate(17.778 10.581)">
        <path id="Path_19569" data-name="Path 19569" d="M252.308-252.91a1.82,1.82,0,0,0,1.815,1.824,1.82,1.82,0,0,0,1.814-1.824,1.82,1.82,0,0,0-1.814-1.825A1.82,1.82,0,0,0,252.308-252.91Z" transform="translate(-230.54 254.735)" fill="#0b262a"/>
        <path id="Path_19570" data-name="Path 19570" d="M243.674-252.91a1.819,1.819,0,0,0,1.814,1.824,1.819,1.819,0,0,0,1.814-1.824,1.819,1.819,0,0,0-1.814-1.825A1.819,1.819,0,0,0,243.674-252.91Z" transform="translate(-232.79 254.735)" fill="#0b262a"/>
        <path id="Path_19571" data-name="Path 19571" d="M235.039-252.91a1.819,1.819,0,0,0,1.814,1.824,1.819,1.819,0,0,0,1.814-1.824,1.819,1.819,0,0,0-1.814-1.825A1.819,1.819,0,0,0,235.039-252.91Z" transform="translate(-235.039 254.735)" fill="#0b262a"/>
      </g>
    </g>
    <g id="Group_11456" data-name="Group 11456" transform="matrix(0.985, -0.174, 0.174, 0.985, 100.207, -294.668)">
      <path id="Path_19572" data-name="Path 19572" d="M0,0A73.661,73.661,0,0,1,3.324,14.4" transform="translate(0 4.442)" fill="none" stroke="#0b262a" stroke-width="1"/>
      <path id="Path_19573" data-name="Path 19573" d="M2.764,0,0,16.064" transform="translate(10.465)" fill="none" stroke="#0b262a" stroke-width="1"/>
      <path id="Path_19574" data-name="Path 19574" d="M5.01,0A23.24,23.24,0,0,0,0,7.182" transform="translate(22.139 7.776)" fill="none" stroke="#0b262a" stroke-width="1"/>
    </g>
  </g>
</svg>
