<svg xmlns="http://www.w3.org/2000/svg" width="17.084" height="17" viewBox="0 0 17.084 17">
  <path id="call-icon" d="M4.7,6.99A14.181,14.181,0,0,0,6.8,9.927a12,12,0,0,0,3.322,2.451.345.345,0,0,0,.288.015,1.237,1.237,0,0,0,.4-.292,4.445,4.445,0,0,0,.364-.446c.534-.7,1.194-1.574,2.128-1.137.021.01.036.021.057.029l3.112,1.79c.01.006.021.015.029.021a1.4,1.4,0,0,1,.584,1.211,3.281,3.281,0,0,1-.456,1.543,3.161,3.161,0,0,1-1.5,1.322,6.819,6.819,0,0,1-1.845.5,6.26,6.26,0,0,1-2.819-.235,12.506,12.506,0,0,1-2.835-1.368l-.074-.047c-.46-.288-.958-.6-1.446-.958A18.139,18.139,0,0,1,1.32,8.887,8.838,8.838,0,0,1,.08,3.294,4.012,4.012,0,0,1,1.439.746,3.643,3.643,0,0,1,4.146.023a.391.391,0,0,1,.313.2l2,3.373a1.055,1.055,0,0,1,.168,1.129,2.194,2.194,0,0,1-.763.855c-.107.092-.235.185-.37.282-.446.324-.954.7-.78,1.137l0-.011Z" transform="translate(0.001 -0.003)" fill="#00a7ad"/>
</svg>
