<svg xmlns="http://www.w3.org/2000/svg" xmlns:xlink="http://www.w3.org/1999/xlink" width="17.084" height="24.818" viewBox="0 0 17.084 24.818">
  <defs>
    <clipPath id="clip-path">
      <path id="Path_16013" data-name="Path 16013" d="M213,139.21h17.084V162.1H213Z" transform="translate(-213 -139.21)" fill="#00a7ad"/>
    </clipPath>
    <clipPath id="clip-path-2">
      <path id="Path_16015" data-name="Path 16015" d="M298,584h8.175v1.509H298Z" transform="translate(-298 -584)" fill="#00a7ad"/>
    </clipPath>
  </defs>
  <g id="Location" transform="translate(-213 -139.21)">
    <g id="Group_7151" data-name="Group 7151" transform="translate(213 139.21)" clip-path="url(#clip-path)">
      <path id="Exclusion_4" data-name="Exclusion 4" d="M8.542,22.873a1.458,1.458,0,0,1-1.32-.834C5.628,19.7,3.961,17.2,2.57,14.747A32.468,32.468,0,0,1,.738,11.074,8.316,8.316,0,0,1,0,8.149,7.635,7.635,0,0,1,.68,5,8.258,8.258,0,0,1,2.524,2.408a8.757,8.757,0,0,1,12.062,0A8.088,8.088,0,0,1,16.385,5a7.855,7.855,0,0,1,.654,3.149c0,1.28-.722,3.236-2.206,5.979-1.267,2.341-2.878,4.857-4.172,6.878l-.011.017c-.228.356-.443.693-.649,1.016A1.781,1.781,0,0,1,8.542,22.873Zm.044-18.22a3.69,3.69,0,1,0,3.69,3.69A3.694,3.694,0,0,0,8.587,4.653Z" transform="translate(0.022)" fill="#00a7ad"/>
    </g>
    <g id="Group_7152" data-name="Group 7152" transform="translate(217.454 162.519)" clip-path="url(#clip-path-2)">
      <path id="Path_16014" data-name="Path 16014" d="M306.4,585.264c0,.409-1.824.741-4.075.741s-4.074-.332-4.074-.741,1.824-.741,4.074-.741,4.075.332,4.075.741" transform="translate(-298.233 -584.496)" fill="#00a7ad" fill-rule="evenodd"/>
    </g>
  </g>
</svg>
