<svg xmlns="http://www.w3.org/2000/svg" width="51.477" height="45.026" viewBox="0 0 51.477 45.026"><path d="M1.634,3.309A1.672,1.672,0,0,1,0,1.634,1.663,1.663,0,0,1,1.634,0h4.44a7.715,7.715,0,0,1,3.979,1.047,6.259,6.259,0,0,1,2.681,3.812.154.154,0,0,0,.042.126l.419,1.675H49.843a1.636,1.636,0,0,1,1.634,1.634,2.1,2.1,0,0,1-.084.5L47.121,26.011a1.614,1.614,0,0,1-1.592,1.257H18.723c.586,2.178,1.173,3.351,1.969,3.9.963.628,2.639.67,5.445.628H45.11a1.634,1.634,0,1,1,0,3.267H26.178c-3.476.042-5.613-.042-7.33-1.173-1.759-1.173-2.681-3.183-3.6-6.827h0L9.634,5.822c0-.042,0-.042-.042-.084A2.919,2.919,0,0,0,8.335,3.853a4.267,4.267,0,0,0-2.3-.545h-4.4ZM40.21,36.984a4.021,4.021,0,1,1-4.021,4.021,4.022,4.022,0,0,1,4.021-4.021Zm-17.634,0a4.021,4.021,0,1,1-4.021,4.021,4.022,4.022,0,0,1,4.021-4.021ZM14.115,9.927l3.728,14.031H44.272L47.749,9.927Z" fill="#2f4858"/></svg>