<svg xmlns="http://www.w3.org/2000/svg" width="494.676" height="361.864" viewBox="0 0 494.676 361.864"><g transform="translate(-38.835 -39.663)"><path d="M527.852,390.866h95.92c45.4,0,2.476,30.778-84.192,30.778-137.844,0-228.226-2.889-192.32-38.794Z" transform="translate(-156.213 -20.117)" fill="#ffece5"/><g transform="translate(430.452 45.137)"><g transform="translate(0 0)"><rect width="85.41" height="78.141" rx="4.087" transform="translate(0)" fill="#798897"/><path d="M638.476,390.582a10.124,10.124,0,1,1,20.249,0" transform="translate(-606.19 -362.412)" fill="none" stroke="#fff" stroke-miterlimit="10" stroke-width="0.396"/><path d="M645.321,381.555h26.3a4.7,4.7,0,0,1,4.627,3.824l3.289,17.5a4.7,4.7,0,0,1-4.618,5.574H642.032a4.708,4.708,0,0,1-4.627-5.574l3.3-17.5A4.7,4.7,0,0,1,645.321,381.555Z" transform="translate(-616.066 -353.021)" fill="none" stroke="#fff" stroke-miterlimit="10" stroke-width="0.396"/></g></g><g transform="translate(417.04 305.646)"><path d="M409.661,353.536l-23.591-7.355-49.446-.479,1.46,51.33a5.774,5.774,0,0,0,2.11,4.143l10.8,9.44,55.469-.727a1.741,1.741,0,0,0,1.875-1.432Z" transform="translate(-336.592 -345.702)" fill="#c69046"/><path d="M374.205,345.7l1.46,51.33a5.773,5.773,0,0,0,2.11,4.143l10.8,9.44.913-57.46Z" transform="translate(-374.173 -345.702)" fill="#ae7d38"/><path d="M336.624,345.7l49.446.479,23.591,7.356-57.736-.331Z" transform="translate(-336.592 -345.702)" fill="#e1a55f"/><path d="M358.892,345.927l17.411,7.384.786,56.728-8.2.163-1.318-56.583L351.5,345.854Z" transform="translate(-326.879 -345.621)" fill="#ae7d38"/><path d="M355.061,406.564c.085-3.458-1.066-51.874-.98-55.33" transform="translate(-308.816 -342.733)" fill="none" stroke="#000" stroke-miterlimit="10" stroke-width="0.056"/><path d="M369.837,351.754c-.976-.495-12.271-5.349-13.248-5.844" transform="translate(-327.449 -345.59)" fill="none" stroke="#000" stroke-miterlimit="10" stroke-width="0.056"/><path d="M377.646,352.906l-.357,5.991-16.545-.142-.268-6.21Z" transform="translate(-341.231 -342.029)" fill="#e1d3ca"/><path d="M373.517,355.778a1.64,1.64,0,0,0-.524-1.491.488.488,0,0,0-.463-.16.339.339,0,0,0-.189.28l-.291,1.366a.307.307,0,0,1-.14.237.454.454,0,0,1-.492-.154c-.215-.232-.32-.519-.556-.741a.838.838,0,0,0-.962-.151c-.224.171-.217.515-.518.587-.389.092-.587-.38-.948-.529-.458-.189-.933.189-1.4.355a3.471,3.471,0,0,1-1.242.112l-4.052-.117" transform="translate(-339.074 -341.189)" fill="none" stroke="#000" stroke-miterlimit="10" stroke-width="0.056"/><path d="M380.028,350.715c-6.084-.151-15.687.048-21.771-.1" transform="translate(-340.203 -343.066)" fill="none" stroke="#000" stroke-miterlimit="10" stroke-width="0.084"/><path d="M374.259,351.074a1.491,1.491,0,0,0-.083,1.3" transform="translate(-358.725 -342.819)" fill="none" stroke="#000" stroke-miterlimit="10" stroke-width="0.084"/><path d="M375,353.185c-.012.507-.585,50.978-.6,51.485" transform="translate(-359.999 -341.686)" fill="none" stroke="#000" stroke-miterlimit="10" stroke-width="0.084"/><path d="M388.118,352.6c-.624.009-12.773-6.353-13.327-6.583" transform="translate(-373.701 -345.531)" fill="none" stroke="#000" stroke-miterlimit="10" stroke-width="0.084"/><path d="M383.26,347.211c.106.871,1.294,46.09,1.4,46.96" transform="translate(-383.26 -344.892)" fill="none" stroke="#000" stroke-miterlimit="10" stroke-width="0.084"/><path d="M364.571,351.268l-24.909-.615" transform="translate(-296.171 -343.045)" fill="none" stroke="#000" stroke-miterlimit="10" stroke-width="0.084"/><path d="M398.986,346.081c-14.481-.357-30.177.029-44.658-.329" transform="translate(-353.123 -345.675)" fill="none" stroke="#000" stroke-miterlimit="10" stroke-width="0.084"/><path d="M390.635,387.493c-11.492-.283-38.76.435-50.251.152" transform="translate(-323.342 -323.307)" fill="none" stroke="#000" stroke-miterlimit="10" stroke-width="0.084"/></g><g transform="translate(38.952 39.683)" opacity="0.49"><g transform="translate(272.904)"><rect width="60.477" height="43.084" rx="1.417" transform="translate(0.085 0.01)" fill="#fdfdfd"/><path d="M473.721,174.82a2.178,2.178,0,0,0-2.178-2.178H415.422a2.179,2.179,0,0,0-2.178,2.178S473.721,174.959,473.721,174.82Z" transform="translate(-413.213 -172.628)" fill="#ede9ed"/><path d="M449.18,205.452v-30.28a2.264,2.264,0,0,0-2.317-2.539c-4.547,0-16.336.055-16.336.055h-9.963l-2.019.025h-5.314" transform="translate(-388.652 -172.633)" fill="none" stroke="#000" stroke-miterlimit="10" stroke-width="0.038"/><path d="M432.651,181.791V174.08h-9.8l-3.708.032H413.6" transform="translate(-372.698 -171.856)" fill="none" stroke="#000" stroke-miterlimit="10" stroke-width="0.038"/><path d="M413.614,207.194a1.423,1.423,0,0,0,.266-.807,8.443,8.443,0,0,0-.029-1.939V185.8" transform="translate(-353.982 -165.566)" fill="none" stroke="#000" stroke-miterlimit="10" stroke-width="0.038"/><path d="M413.615,186.556v-5.714" transform="translate(-353.677 -168.226)" fill="none" stroke="#000" stroke-miterlimit="10" stroke-width="0.038"/><path d="M436.06,174.088h-9.437" transform="translate(-396.112 -171.851)" fill="none" stroke="#000" stroke-miterlimit="10" stroke-width="0.038"/><path d="M454,172.685h-2.151a2.075,2.075,0,0,0-1.863,2.112" transform="translate(-449.955 -172.604)" fill="none" stroke="#000" stroke-miterlimit="10" stroke-width="0.038"/><path d="M454.486,172.685H438.95" transform="translate(-433.482 -172.604)" fill="none" stroke="#000" stroke-miterlimit="10" stroke-width="0.038"/><path d="M449.111,174.043H433.395" transform="translate(-419.57 -171.876)" fill="none" stroke="#000" stroke-miterlimit="10" stroke-width="0.038"/><path d="M452.59,174.313v29.556" transform="translate(-452.547 -171.731)" fill="none" stroke="#000" stroke-miterlimit="10" stroke-width="0.038"/><path d="M452.618,193.955v6.855" transform="translate(-452.618 -161.188)" fill="none" stroke="#000" stroke-miterlimit="10" stroke-width="0.038"/><path d="M452.756,200.792a1.389,1.389,0,0,1-1.451-1.492" transform="translate(-450.734 -158.319)" fill="none" stroke="#000" stroke-miterlimit="10" stroke-width="0.038"/><ellipse cx="0.398" cy="0.398" rx="0.398" ry="0.398" transform="translate(57.428 0.738)" fill="#a3bd73"/><ellipse cx="0.398" cy="0.398" rx="0.398" ry="0.398" transform="translate(55.937 0.738)" fill="#e35155"/><ellipse cx="0.398" cy="0.398" rx="0.398" ry="0.398" transform="translate(54.545 0.738)" fill="#ffc155"/><path d="M446.933,174.054h7.593" transform="translate(-445.79 -171.87)" fill="none" stroke="#000" stroke-miterlimit="10" stroke-width="0.038"/><path d="M444.333,200.29H415.77" transform="translate(-387.707 -157.788)" fill="none" stroke="#000" stroke-miterlimit="10" stroke-width="0.038"/><path d="M456.657,200.29h-16.9" transform="translate(-436.887 -157.788)" fill="none" stroke="#000" stroke-miterlimit="10" stroke-width="0.038"/></g><g transform="translate(50.523 24.58)"><rect width="261.646" height="144.513" rx="4.754" transform="translate(0.286 0.033)" fill="#fdfdfd"/><path d="M688.646,195.965a7.306,7.306,0,0,0-7.3-7.306H434.306A7.306,7.306,0,0,0,427,195.965S688.646,196.435,688.646,195.965Z" transform="translate(-426.897 -188.611)" fill="#ede9ed"/><path d="M426.957,188.63H470.7s7.771-.353,7.771,8.515V298.713" transform="translate(-216.654 -188.628)" fill="none" stroke="#000" stroke-miterlimit="10" stroke-width="0.084"/><path d="M492.1,219.347V193.482H459.243l-12.44.108H428.21" transform="translate(-232.209 -186.022)" fill="none" stroke="#000" stroke-miterlimit="10" stroke-width="0.084"/><path d="M428.24,304.554a4.817,4.817,0,0,0,.894-2.709,28.5,28.5,0,0,0-.1-6.5V232.79" transform="translate(-169.431 -164.924)" fill="none" stroke="#000" stroke-miterlimit="10" stroke-width="0.084"/><path d="M428.245,235.328V216.163" transform="translate(-168.409 -173.848)" fill="none" stroke="#000" stroke-miterlimit="10" stroke-width="0.084"/><path d="M523.847,193.51H471.876" transform="translate(-331.061 -186.007)" fill="none" stroke="#000" stroke-miterlimit="10" stroke-width="0.084"/><path d="M616.953,188.8H531.077" transform="translate(-515.144 -188.534)" fill="none" stroke="#000" stroke-miterlimit="10" stroke-width="0.084"/><path d="M539.084,188.8H493.822" transform="translate(-380.023 -188.534)" fill="none" stroke="#000" stroke-miterlimit="10" stroke-width="0.084"/><path d="M501.085,188.75H467.672" transform="translate(-301.839 -188.562)" fill="none" stroke="#000" stroke-miterlimit="10" stroke-width="0.084"/><path d="M587.562,193.36H529.127" transform="translate(-482.756 -186.088)" fill="none" stroke="#000" stroke-miterlimit="10" stroke-width="0.084"/><path d="M597.234,194.265V293.4" transform="translate(-597.091 -185.602)" fill="none" stroke="#000" stroke-miterlimit="10" stroke-width="0.084"/><path d="M597.327,260.149v22.99" transform="translate(-597.327 -150.239)" fill="none" stroke="#000" stroke-miterlimit="10" stroke-width="0.084"/><path d="M597.792,283.082a4.667,4.667,0,0,1-4.867-5.008" transform="translate(-591.009 -140.618)" fill="none" stroke="#000" stroke-miterlimit="10" stroke-width="0.084"/><ellipse cx="1.334" cy="1.334" rx="1.334" ry="1.334" transform="translate(251.417 2.474)" fill="#a3bd73"/><ellipse cx="1.334" cy="1.334" rx="1.334" ry="1.334" transform="translate(246.415 2.474)" fill="#e35155"/><ellipse cx="1.334" cy="1.334" rx="1.334" ry="1.334" transform="translate(241.747 2.474)" fill="#ffc155"/><path d="M578.258,193.4h25.468" transform="translate(-574.422 -186.068)" fill="none" stroke="#000" stroke-miterlimit="10" stroke-width="0.084"/><path d="M558.719,281.4H435.475" transform="translate(-309.994 -138.835)" fill="none" stroke="#000" stroke-miterlimit="10" stroke-width="0.084"/><path d="M621.825,281.4H533.77" transform="translate(-524.155 -138.835)" fill="none" stroke="#000" stroke-miterlimit="10" stroke-width="0.084"/></g><g transform="translate(38.778 133.088)"><rect width="65.534" height="46.686" rx="1.536" transform="translate(0.091 0.01)" fill="#fdfdfd"/><path d="M627.838,261.606a2.36,2.36,0,0,0-2.36-2.359H564.664a2.36,2.36,0,0,0-2.36,2.359S627.838,261.758,627.838,261.606Z" transform="translate(-562.272 -259.231)" fill="#ede9ed"/><path d="M601.245,294.8V261.988a2.453,2.453,0,0,0-2.511-2.751c-4.927,0-17.7.06-17.7.06H570.236l-2.188.026H562.29" transform="translate(-535.657 -259.237)" fill="none" stroke="#000" stroke-miterlimit="10" stroke-width="0.041"/><path d="M583.335,269.16V260.8H572.721l-4.019.034h-6.007" transform="translate(-518.369 -258.395)" fill="none" stroke="#000" stroke-miterlimit="10" stroke-width="0.041"/><path d="M562.7,296.688a1.55,1.55,0,0,0,.289-.874,9.243,9.243,0,0,0-.032-2.1V273.5" transform="translate(-498.088 -251.579)" fill="none" stroke="#000" stroke-miterlimit="10" stroke-width="0.041"/><path d="M562.706,274.324v-6.192" transform="translate(-497.757 -254.462)" fill="none" stroke="#000" stroke-miterlimit="10" stroke-width="0.041"/><path d="M587.027,260.814H576.8" transform="translate(-543.741 -258.39)" fill="none" stroke="#000" stroke-miterlimit="10" stroke-width="0.041"/><path d="M606.468,259.293h-2.331a2.248,2.248,0,0,0-2.018,2.288" transform="translate(-602.087 -259.206)" fill="none" stroke="#000" stroke-miterlimit="10" stroke-width="0.041"/><path d="M607,259.293H590.159" transform="translate(-584.235 -259.206)" fill="none" stroke="#000" stroke-miterlimit="10" stroke-width="0.041"/><path d="M601.17,260.765H584.14" transform="translate(-569.16 -258.416)" fill="none" stroke="#000" stroke-miterlimit="10" stroke-width="0.041"/><path d="M604.941,261.058v32.026" transform="translate(-604.896 -258.259)" fill="none" stroke="#000" stroke-miterlimit="10" stroke-width="0.041"/><path d="M604.97,282.342v7.427" transform="translate(-604.97 -246.835)" fill="none" stroke="#000" stroke-miterlimit="10" stroke-width="0.041"/><path d="M605.121,289.751a1.51,1.51,0,0,1-1.574-1.618" transform="translate(-602.93 -243.727)" fill="none" stroke="#000" stroke-miterlimit="10" stroke-width="0.041"/><ellipse cx="0.431" cy="0.431" rx="0.431" ry="0.431" transform="translate(62.229 0.799)" fill="#a3bd73"/><ellipse cx="0.431" cy="0.431" rx="0.431" ry="0.431" transform="translate(60.613 0.799)" fill="#e35155"/><ellipse cx="0.431" cy="0.431" rx="0.431" ry="0.431" transform="translate(59.105 0.799)" fill="#ffc155"/><path d="M598.81,260.777h8.228" transform="translate(-597.571 -258.41)" fill="none" stroke="#000" stroke-miterlimit="10" stroke-width="0.041"/><path d="M595.993,289.207H565.042" transform="translate(-534.635 -243.15)" fill="none" stroke="#000" stroke-miterlimit="10" stroke-width="0.041"/><path d="M609.346,289.207H591.03" transform="translate(-587.924 -243.15)" fill="none" stroke="#000" stroke-miterlimit="10" stroke-width="0.041"/></g><g transform="translate(0 108.905)"><g transform="translate(0)"><ellipse cx="7.896" cy="7.896" rx="7.896" ry="7.896" fill="#f08a4f"/><path d="M624.5,249.078a1.2,1.2,0,0,1,.793.3l2.775-2.1a1.223,1.223,0,1,1,.361.441l-2.8,2.116a1.217,1.217,0,0,1,.088.449,1.178,1.178,0,0,1-.062.363l2.845,1.7a1.2,1.2,0,0,1,.739-.258,1.212,1.212,0,1,1-1.212,1.213,1.2,1.2,0,0,1,.115-.507l-2.775-1.654a1.212,1.212,0,1,1-.862-2.064Z" transform="translate(-619.818 -242.399)" fill="#fcfbfc"/></g><path d="M629.57,257.029a8.933,8.933,0,0,0,2.522-6.782c-.211-2.476-4.507-9.445-12.243-5.577" transform="translate(-616.207 -243.486)" fill="none" stroke="#000" stroke-miterlimit="10" stroke-width="0.069"/><path d="M633.1,257.564c-5.485,1.263-10.467-6.516-7.43-11.251" transform="translate(-624.728 -241.99)" fill="none" stroke="#000" stroke-miterlimit="10" stroke-width="0.069"/></g></g><g transform="translate(110.337 104.707)"><g transform="translate(8.047)"><path d="M3.454,0H7.162a3.454,3.454,0,0,1,3.454,3.454V40.2a0,0,0,0,1,0,0H0a0,0,0,0,1,0,0V3.454A3.454,3.454,0,0,1,3.454,0Z" transform="translate(51.098 21.832)" fill="#ffc558"/><path d="M3.454,0H7.162a3.454,3.454,0,0,1,3.454,3.454V24.434a0,0,0,0,1,0,0H0a0,0,0,0,1,0,0V3.454A3.454,3.454,0,0,1,3.454,0Z" transform="translate(34.673 37.597)" fill="#a9c6de"/><path d="M3.454,0H7.162a3.454,3.454,0,0,1,3.454,3.454V52.3a0,0,0,0,1,0,0H0a0,0,0,0,1,0,0V3.454A3.454,3.454,0,0,1,3.454,0Z" transform="translate(17.988 9.726)" fill="#c4c058"/><path d="M3.454,0H7.162a3.454,3.454,0,0,1,3.454,3.454V62.031a0,0,0,0,1,0,0H0a0,0,0,0,1,0,0V3.454A3.454,3.454,0,0,1,3.454,0Z" transform="translate(0)" fill="#f75356"/></g><path d="M580.546,377.891V343.23" transform="translate(-510.901 -316.197)" fill="none" stroke="#000" stroke-miterlimit="10" stroke-width="0.127"/><path d="M599.478,350.094a4.6,4.6,0,0,0-4.6,4.6v19.512" transform="translate(-551.856 -312.512)" fill="none" stroke="#000" stroke-miterlimit="10" stroke-width="0.127"/><path d="M602.12,337.509v43.453" transform="translate(-565.628 -319.267)" fill="none" stroke="#000" stroke-miterlimit="10" stroke-width="0.127"/><path d="M613.725,330.263v42.783" transform="translate(-595.067 -323.157)" fill="none" stroke="#000" stroke-miterlimit="10" stroke-width="0.127"/><path d="M622.811,325.742h-1.263a5.1,5.1,0,0,0-5.1,5.1v56.775" transform="translate(-608.341 -325.583)" fill="none" stroke="#000" stroke-miterlimit="10" stroke-width="0.127"/><path d="M575.011,365.783h78.151" transform="translate(-575.011 -304.091)" fill="none" stroke="#000" stroke-miterlimit="10" stroke-width="0.127"/></g><g transform="translate(105.901 79.767)"><g transform="translate(0.033 0.14)"><path d="M645.436,243.36l-54.166.14-14.484.026a7.277,7.277,0,0,1-7.29-7.263h0a7.277,7.277,0,0,1,7.264-7.29l13.651-.025,55-.141a7.274,7.274,0,0,1,7.289,7.263h0A7.276,7.276,0,0,1,645.436,243.36Z" transform="translate(-569.496 -228.807)" fill="#faf5f7"/><g transform="translate(22.696 3.594)"><path d="M588.675,237.557l-.821,0-1.042-1.753a2.345,2.345,0,0,0-.6-.736,1.116,1.116,0,0,0-.642-.18l-.618,0,0,2.666-.682,0,.011-6.228,1.832,0a2,2,0,0,1,1.365.447,1.536,1.536,0,0,1,.5,1.216,1.638,1.638,0,0,1-1.383,1.672v.018a1.247,1.247,0,0,1,.435.3,5.463,5.463,0,0,1,.487.705Zm-3.719-5.6,0,2.288,1.02,0a1.29,1.29,0,0,0,.928-.337,1.149,1.149,0,0,0,.355-.878.99.99,0,0,0-.326-.79,1.4,1.4,0,0,0-.945-.286Z" transform="translate(-584.265 -231.052)" fill="#6c6c6c" stroke="#6c6c6c" stroke-miterlimit="10" stroke-width="0.09"/><path d="M591.139,234.918l-3.153-.006a1.713,1.713,0,0,0,.41,1.18,1.4,1.4,0,0,0,1.051.41,2.167,2.167,0,0,0,1.388-.5v.644a2.56,2.56,0,0,1-1.546.433,1.838,1.838,0,0,1-1.468-.619,2.524,2.524,0,0,1-.53-1.7,2.456,2.456,0,0,1,.587-1.672,1.85,1.85,0,0,1,1.449-.661,1.655,1.655,0,0,1,1.339.567,2.368,2.368,0,0,1,.473,1.564Zm-.693-.593a1.457,1.457,0,0,0-.3-.974,1.037,1.037,0,0,0-.831-.353,1.2,1.2,0,0,0-.867.361,1.661,1.661,0,0,0-.455.962Z" transform="translate(-582.641 -230.461)" fill="#6c6c6c" stroke="#6c6c6c" stroke-miterlimit="10" stroke-width="0.09"/><path d="M593.619,236.771a2.312,2.312,0,0,1-1.206.31,2.017,2.017,0,0,1-1.518-.612,2.233,2.233,0,0,1-.584-1.618,2.461,2.461,0,0,1,.627-1.766,2.185,2.185,0,0,1,1.67-.658,2.35,2.35,0,0,1,1.023.217l0,.7a1.817,1.817,0,0,0-1.062-.352,1.452,1.452,0,0,0-1.126.49,1.865,1.865,0,0,0-.449,1.308,1.817,1.817,0,0,0,.407,1.248,1.4,1.4,0,0,0,1.116.469,1.809,1.809,0,0,0,1.106-.386Z" transform="translate(-581.02 -230.458)" fill="#6c6c6c" stroke="#6c6c6c" stroke-miterlimit="10" stroke-width="0.09"/><path d="M592.969,234.809a2.439,2.439,0,0,1,.6-1.743,2.166,2.166,0,0,1,1.65-.635,1.981,1.981,0,0,1,1.532.615,2.42,2.42,0,0,1,.556,1.7,2.353,2.353,0,0,1-.609,1.7,2.082,2.082,0,0,1-1.6.638,2.037,2.037,0,0,1-1.555-.629A2.3,2.3,0,0,1,592.969,234.809Zm.681-.028a1.838,1.838,0,0,0,.41,1.26,1.386,1.386,0,0,0,1.1.473,1.346,1.346,0,0,0,1.091-.453,1.963,1.963,0,0,0,.38-1.291,2,2,0,0,0-.378-1.306,1.331,1.331,0,0,0-1.088-.466,1.367,1.367,0,0,0-1.1.476A1.933,1.933,0,0,0,593.65,234.782Z" transform="translate(-579.593 -230.456)" fill="#6c6c6c" stroke="#6c6c6c" stroke-miterlimit="10" stroke-width="0.09"/><path d="M602.809,236.994l-.675,0,.006-2.551a1.956,1.956,0,0,0-.234-1.108.891.891,0,0,0-.776-.323.965.965,0,0,0-.787.426,1.631,1.631,0,0,0-.329,1.014l0,2.539h-.67l0-2.645q0-1.337-1.03-1.339a.955.955,0,0,0-.784.4,1.653,1.653,0,0,0-.315,1.039l0,2.539-.673,0,.009-4.447.672,0,0,.705h.017a1.5,1.5,0,0,1,1.378-.8,1.293,1.293,0,0,1,1.254.928,1.583,1.583,0,0,1,1.477-.924c.98,0,1.468.6,1.466,1.813Z" transform="translate(-577.676 -230.452)" fill="#6c6c6c" stroke="#6c6c6c" stroke-miterlimit="10" stroke-width="0.09"/><path d="M607.779,237l-.675,0,0-2.553a1.969,1.969,0,0,0-.232-1.106.9.9,0,0,0-.776-.324.969.969,0,0,0-.787.427,1.623,1.623,0,0,0-.331,1.013V237h-.67l0-2.645q0-1.337-1.03-1.338a.949.949,0,0,0-.784.4,1.658,1.658,0,0,0-.317,1.037l0,2.539-.673,0,.008-4.447.673,0v.705h.017a1.5,1.5,0,0,1,1.377-.805,1.292,1.292,0,0,1,.776.249,1.279,1.279,0,0,1,.48.679,1.585,1.585,0,0,1,1.477-.924q1.468,0,1.466,1.813Z" transform="translate(-575.008 -230.448)" fill="#6c6c6c" stroke="#6c6c6c" stroke-miterlimit="10" stroke-width="0.09"/><path d="M610.134,234.949l-3.152,0a1.706,1.706,0,0,0,.41,1.179,1.393,1.393,0,0,0,1.05.41,2.175,2.175,0,0,0,1.389-.5v.644a2.562,2.562,0,0,1-1.548.432,1.842,1.842,0,0,1-1.467-.618,2.53,2.53,0,0,1-.529-1.7,2.443,2.443,0,0,1,.587-1.672,1.852,1.852,0,0,1,1.448-.659,1.653,1.653,0,0,1,1.338.567,2.355,2.355,0,0,1,.473,1.563Zm-.693-.593a1.45,1.45,0,0,0-.3-.973,1.024,1.024,0,0,0-.831-.353,1.2,1.2,0,0,0-.867.36,1.679,1.679,0,0,0-.455.962Z" transform="translate(-572.444 -230.443)" fill="#6c6c6c" stroke="#6c6c6c" stroke-miterlimit="10" stroke-width="0.09"/><path d="M613.151,237.011l-.67,0,0-2.539c0-.96-.347-1.443-1.05-1.443a1.143,1.143,0,0,0-.9.406,1.518,1.518,0,0,0-.357,1.039l-.006,2.534-.673,0,.006-4.447.673,0v.745h.015a1.6,1.6,0,0,1,1.463-.844,1.356,1.356,0,0,1,1.117.472,2.1,2.1,0,0,1,.386,1.363Z" transform="translate(-570.723 -230.44)" fill="#6c6c6c" stroke="#6c6c6c" stroke-miterlimit="10" stroke-width="0.09"/><path d="M616.613,237.726l-.664,0v-.765h-.018a1.789,1.789,0,0,1-2.874.267,2.451,2.451,0,0,1-.5-1.627,2.647,2.647,0,0,1,.562-1.761,1.824,1.824,0,0,1,1.474-.664,1.448,1.448,0,0,1,1.343.73h.017l0-2.758.664,0Zm-.659-2.68a1.279,1.279,0,0,0-.369-.922,1.221,1.221,0,0,0-.916-.384,1.254,1.254,0,0,0-1.044.492,2.131,2.131,0,0,0-.387,1.334,1.959,1.959,0,0,0,.36,1.229,1.191,1.191,0,0,0,.985.463,1.252,1.252,0,0,0,.979-.435,1.584,1.584,0,0,0,.39-1.1Z" transform="translate(-569.078 -231.146)" fill="#6c6c6c" stroke="#6c6c6c" stroke-miterlimit="10" stroke-width="0.09"/><path d="M619.812,234.968l-3.153-.006a1.707,1.707,0,0,0,.412,1.179,1.391,1.391,0,0,0,1.051.41,2.168,2.168,0,0,0,1.388-.5v.644a2.552,2.552,0,0,1-1.544.432,1.826,1.826,0,0,1-1.468-.618,2.511,2.511,0,0,1-.53-1.7,2.445,2.445,0,0,1,.587-1.674,1.851,1.851,0,0,1,1.449-.659,1.652,1.652,0,0,1,1.337.567,2.358,2.358,0,0,1,.473,1.563Zm-.692-.595a1.445,1.445,0,0,0-.3-.973,1.023,1.023,0,0,0-.83-.353,1.182,1.182,0,0,0-.867.361,1.638,1.638,0,0,0-.455.962Z" transform="translate(-567.25 -230.434)" fill="#6c6c6c" stroke="#6c6c6c" stroke-miterlimit="10" stroke-width="0.09"/><path d="M623.042,237.737h-.664l0-.767h-.017a1.792,1.792,0,0,1-2.875.269,2.465,2.465,0,0,1-.5-1.629,2.657,2.657,0,0,1,.561-1.761,1.826,1.826,0,0,1,1.472-.662,1.439,1.439,0,0,1,1.345.73h.017l0-2.76.665,0Zm-.659-2.679a1.273,1.273,0,0,0-.366-.922,1.221,1.221,0,0,0-.919-.383,1.25,1.25,0,0,0-1.043.49,2.133,2.133,0,0,0-.384,1.335,1.94,1.94,0,0,0,.36,1.226,1.175,1.175,0,0,0,.982.463,1.248,1.248,0,0,0,.98-.433,1.594,1.594,0,0,0,.389-1.1Z" transform="translate(-565.627 -231.14)" fill="#6c6c6c" stroke="#6c6c6c" stroke-miterlimit="10" stroke-width="0.09"/></g><path d="M591.27,243.45l-14.484.026a7.277,7.277,0,0,1-7.29-7.263h0a7.277,7.277,0,0,1,7.264-7.29l13.651-.025Z" transform="translate(-569.496 -228.758)" fill="#ff5d5f"/><g transform="translate(9.556 2.805)"><ellipse cx="2.842" cy="2.842" rx="2.842" ry="2.842" transform="translate(0.535)" fill="none" stroke="#fff" stroke-miterlimit="10" stroke-width="0.94"/><line x1="2.068" y2="3.624" transform="translate(0 5.288)" fill="none" stroke="#fff" stroke-linecap="round" stroke-linejoin="round" stroke-width="0.94"/></g></g><path d="M576.772,228.915c-7.874.9-8.109,8.481-6.508,10.673a12.556,12.556,0,0,0,2.563,2.566,6.952,6.952,0,0,0,4.672,1.114" transform="translate(-569.475 -228.609)" fill="none" stroke="#3a3b44" stroke-miterlimit="10" stroke-width="0.094"/><path d="M591.5,228.806c3.488-.194,36.84.306,43.773.433" transform="translate(-557.653 -228.691)" fill="none" stroke="#3a3b44" stroke-miterlimit="10" stroke-width="0.094"/><path d="M621.3,229.69a4.815,4.815,0,0,1,3.035,3.949" transform="translate(-541.659 -228.193)" fill="none" stroke="#3a3b44" stroke-miterlimit="10" stroke-width="0.094"/><path d="M621.865,237.775a3.515,3.515,0,0,0,1.359-1.486" transform="translate(-541.355 -224.651)" fill="none" stroke="#3a3b44" stroke-miterlimit="10" stroke-width="0.094"/><path d="M609.256,238.029a110.276,110.276,0,0,0,11.493-.023" transform="translate(-548.122 -223.73)" fill="none" stroke="#3a3b44" stroke-miterlimit="10" stroke-width="0.094"/><path d="M583.438,237.831c-.2-1.386-.207-5.809-.412-7.193" transform="translate(-562.201 -227.684)" fill="none" stroke="#3a3b44" stroke-miterlimit="10" stroke-width="0.094"/><path d="M580.377,229.1c.682-.025,11.827-.361,12.509-.384" transform="translate(-563.623 -228.716)" fill="none" stroke="#3a3b44" stroke-miterlimit="10" stroke-width="0.094"/><path d="M588.591,238.474c.569-.017,19.953-.238,20.522-.254" transform="translate(-559.214 -223.615)" fill="none" stroke="#3a3b44" stroke-miterlimit="10" stroke-width="0.094"/></g><g transform="translate(327.586 115.013)"><path d="M337.6,307.1c-6.358-82.008,80.12-104.219,127.144-69.929,30.515,22.25,39.765,59.137,30.766,88.091-8.855,28.491-37.758,58.76-84.166,51.768" transform="translate(-337.273 -221.652)" fill="none" stroke="#52586b" stroke-miterlimit="10" stroke-width="0.2" stroke-dasharray="1.858"/><path d="M409.26,426.445s1.494-50.511-31.084-83.089-56.189-22.117-56.189-22.117" transform="translate(-224.255 -169.058)" fill="none" stroke="#52586b" stroke-miterlimit="10" stroke-width="0.2" stroke-dasharray="1.858"/><g transform="translate(146.379 38.028)"><rect width="13.729" height="12.56" rx="4.087" transform="translate(0)" fill="#52586b"/><path d="M344.827,249.912a1.627,1.627,0,1,0-3.255,0" transform="translate(-336.287 -245.385)" fill="none" stroke="#fff" stroke-miterlimit="10" stroke-width="0.396"/><path d="M345.933,249.382H341.7a.757.757,0,0,0-.742.616l-.529,2.812a.755.755,0,0,0,.742.894h5.286a.755.755,0,0,0,.742-.894L346.675,250A.757.757,0,0,0,345.933,249.382Z" transform="translate(-336.906 -244.796)" fill="none" stroke="#fff" stroke-miterlimit="10" stroke-width="0.396"/></g></g><path d="M584.563,285.877s-66.522,5.411-73.312-34.166" transform="translate(-362.811 -90.505)" fill="none" stroke="#52586b" stroke-miterlimit="10" stroke-width="0.162" stroke-dasharray="1.858"/><g transform="translate(138.339 216.119)"><g transform="translate(0.208 0)"><ellipse cx="13.484" cy="13.484" rx="13.484" ry="13.484" fill="#c4c058"/><text transform="translate(8.627 16.852)" fill="#fff" font-size="14" font-family="Poppins-SemiBold, Poppins" font-weight="600"><tspan x="0" y="0">$</tspan></text></g><path d="M552.2,310.548a15.262,15.262,0,0,1-4.309-11.579c.36-4.229,7.7-16.13,20.909-9.525" transform="translate(-547.846 -287.42)" fill="none" stroke="#000" stroke-miterlimit="10" stroke-width="0.118"/><path d="M556.221,311.464c9.366,2.156,17.874-11.131,12.689-19.214" transform="translate(-543.35 -284.865)" fill="none" stroke="#000" stroke-miterlimit="10" stroke-width="0.118"/></g><g transform="translate(202.697 45.137)"><path d="M536.427,343.469c-7,11.667-10.11,31.11-18.665,32.276s-19.833.389-19.833.389,3.889-12.443,4.278-21-5.8-39.267-8.945-72.331C490.454,253.269,536.427,343.469,536.427,343.469Z" transform="translate(-489.537 -122.141)" fill="#8d8484"/><path d="M511.086,322.378,499.663,338.8s-5.474,7.615-5.236,6.9,6.854-18.963-.024-22.334Z" transform="translate(-466.14 -97.712)"/><path d="M527.019,341.209l-19.833.389s-1.555,26.444-1.944,32.665,4.666,33.055,14,34.222S527.019,341.209,527.019,341.209Z" transform="translate(-498.794 -87.604)" fill="#385d80"/><path d="M571.338,334.5a71.161,71.161,0,0,1-7.777-20.222c-2.334-11.277-3.89-41.609-9.334-52.885s-25.665-14-33.443-17.889l-37.332-9.333s-22.656,1.177-35,9.721c-10.112,7-14.389,16.723-14,28.388S441.065,341.5,444.564,352s6.651,18.327,17.928,18.716,55.959-1.606,55.959-1.606l38.05,8.882,3.17-8.882Z" transform="translate(-434.229 -145.057)" fill="#c2b2a7"/><path d="M467.052,327.828l-2.6,10.4s-15.338.519-18.719-8.059-2.079-8.839-2.079-8.839Z" transform="translate(-343.74 -98.275)" fill="#8d8484"/><path d="M451.853,287.414c-1.051,5.251-4.979,19.838-4.057,31.643,0,0-.184,7.378.553,8.3s3.874,5.534,3.874,5.534,0-7.378.184-19.368S451.853,287.414,451.853,287.414Z" transform="translate(-335.654 -116.478)" fill="#8d8484"/><path d="M508.67,300.567c1.953,1.8,4.54,5.675,2.431-4.054s-2.755-14.269-5.837-15.078S497,296.676,497,296.676,504.453,296.676,508.67,300.567Z" transform="translate(-470.925 -119.704)" fill="#8d8484"/><path d="M498.63,244.65a11.181,11.181,0,0,1,1.445,3.693,5.065,5.065,0,0,1,.094,1.7,4.473,4.473,0,0,1-1.01,2.111,10.221,10.221,0,0,1-6.205,3.269,25.926,25.926,0,0,1-7.132.633c-11.031-1.057-17.692-3.16-22.426-8.595" transform="translate(-407.61 -139.432)" fill="none" stroke="#000" stroke-miterlimit="10" stroke-width="0.194"/><path d="M442.34,179.231c5.91-2.5,12.276-1.136,17.731,2.728s13.411,1.586,17.049,10.679,9.789,14.017,6.359,28.986c-2.159,9.417-12.859,16.717-9.045,29.628,2.148,7.27,10.153,10.817,11.914,18.153,2.145,8.936-5.9,6.971-7.41,14.158-.828,3.946,12.867,6.445,15.718,17.407,1.291,4.967-.032,7.367-1.729,8.523a7.128,7.128,0,0,0-3.06,6.367c.241,3.542-.214,8.1-3.316,11.2-.344.346-1.086-11.761-2.593-17.68-3.3-12.965-12.382-7.971-15.088-17.915-2.974-10.931-18.582-13.46-18.882-22.289l2.185-5.277Z" transform="translate(-370.222 -175.223)" fill="#3f160b"/><path d="M470.739,210.4c-.778,12.056-.389,32.665-4.278,36.943s6.908,22.887,24.018,22.887,12.744-7.587,10.144-10.355c-4.048-4.306-4.876-4.753-4.876-8.3,0-4.45,3.261-15.921,3.261-15.921Z" transform="translate(-414.008 -157.816)" fill="#ffceb0"/><path d="M489.848,228.452l-5.233,5.005,5.005,22.521s4.457,6.56,10.826,7.925c0,0-12.972,1.578-20.837-7.47-11.625-13.374-5.687-25.707-5.687-26.844s6.826-7.734,6.826-7.734Z" transform="translate(-421.697 -151.667)" fill="#e69e79"/><path d="M491.567,257.118c11.278,0,17.848-22.214,17.848-31.683,0-13.188,2.958-27.371-6.334-34.025-1.93-1.382-5.723.521-5.723.521s-28.954-7.4-33.928,2.236c-6.222,12.054-8.546,17.855-5.823,31.855S475.234,257.118,491.567,257.118Z" transform="translate(-406.64 -169.186)" fill="#ffceb0"/><path d="M477.23,223.926a33.334,33.334,0,0,0,11.237,10.012" transform="translate(-417.13 -150.555)" fill="none" stroke="#000" stroke-miterlimit="10" stroke-width="0.194"/><path d="M478.955,223.679c.956-1.274.115,4.713-3.979,4.563-9.594-.35-11.467-5.5-11.467-5.5S476.147,227.422,478.955,223.679Z" transform="translate(-386.891 -151.19)" fill="#ff8765"/><path d="M478.8,224.008c1.508-.844-.117-2.107-1.989-1.171l-1.872.937s-.819-1.756-3.862-1.638a73.839,73.839,0,0,0-7.724.936S472.951,227.284,478.8,224.008Z" transform="translate(-386.738 -151.519)" fill="#ff8765"/><path d="M492.492,335.955c-29.7,1.718-50.185-4.4-64.863-1.282-8.575,1.823-18.811-9.145-24.691-6.421-15.944,7.389,2.835,46.978,11.39,54.367S492.492,335.955,492.492,335.955Z" transform="translate(-297.442 -94.793)" fill="#005b7e"/><path d="M471.553,331.635l-27.161,13.334-9.877,8.889-16.791-18.272Z" transform="translate(-308.771 -92.743)"/><path d="M469.628,329.083c11.667.778,18.667,6.222,19.444,21s-28.388,33.443-32.276,35-50.165,22.166-50.165,22.166l-28.388-22.555s31.11-30.332,54.442-41.22S460.671,328.485,469.628,329.083Z" transform="translate(-265.634 -94.143)" fill="#ffceb0"/><path d="M444.474,340.3l-11.745,15.971-7.037,10.886-5.448-6.385s-4.507-2.629,1.315-5.635S444.474,340.3,444.474,340.3Z" transform="translate(-283.007 -88.09)" fill="#e69e8d"/><path d="M500.19,385.235c-5.329,3.647-18.513,8.136-28.05,12.062s-14.024,6.172-18.793,9.537-8.976,4.768-12.9,3.647-6.451-24.685-6.451-24.685l33.94-15.988Z" transform="translate(-362.408 -72.254)" fill="#ffceb0"/><path d="M455.336,393.089l-17.765-19.26s4.317-4.149,7.8-1.66,22.911,11.788,23.909,12.95,1,2.324-2.159,3.155S455.336,393.089,455.336,393.089Z" transform="translate(-337.589 -71.414)" fill="#e69e8d"/><path d="M485.912,317.653C471.928,330.5,458.69,346.04,448.58,377.927s1.166,49,21,52.887,85.552-40.442,85.552-40.442S500.3,304.431,485.912,317.653Z" transform="translate(-433.967 -100.99)" fill="#007094"/><path d="M444.8,340.226c9.894,1.939,14.215,79.108,33.092,68.537,18.963-10.619,35.468-21.751,35.468-21.751s-51.18-76.163-65.568-62.94Z" transform="translate(-392.2 -97.63)" fill="#005b7e"/><path d="M502.639,364.409c-3.591,49.064,55.264,26.938,30.858,38.99-14.06,6.945-27.439,11.965-34.687,10.544-19.833-3.888-31.11-21-21-52.887S502.639,364.409,502.639,364.409Z" transform="translate(-463.197 -84.119)" fill="#307094"/><path d="M533.728,390.987c-3.89,7.387-16.711,17.238-30.709,21.514,0,0-56-33.831-64.165-44.719s-20.609-30.332-10.5-43.554,20.28-13.29,30.332-8.944c14.388,6.222,40.406,38.863,45.11,43.943C513.518,369.726,533.728,390.987,533.728,390.987Z" transform="translate(-381.465 -102.899)" fill="#007094"/><path d="M394.285,384.71c14-4.277,26.443-12.832,30.331-20.22,0,0,7.389,9.333,21,19.443s16.721,5.445,20.611,9.723,7,13.609,4.277,17.11-5.832,3.888-9.333,4.277-13.616.111-15.833-.951c-8.792-4.214-6.963-8.518-10.075-10.075S394.285,384.71,394.285,384.71Z" transform="translate(-272.731 -75.108)" fill="#ffceb0"/><path d="M471.173,406.371c-2.722,3.5-5.832,3.888-9.333,4.277s-13.616.111-15.833-.951c-8.792-4.214-6.963-8.518-10.075-10.075s-40.977-19.306-40.977-19.306a73.568,73.568,0,0,0,16.561-7.41c1.629-.993,2.237,1.541,3.846,2.646,4.825,3.313,11.744,12.088,26.981,20.774,0,0-1.1,7.143,8.424,9.525S471.173,406.371,471.173,406.371Z" transform="translate(-273.401 -70.713)" fill="#e69e8d"/><path d="M355.835,377.757c13.611,10.112,16.721,5.445,20.611,9.723s7,13.609,4.277,17.11-5.832,3.888-9.333,4.277c0,0,2.639,2.5,14.982-.025s17.11-1.122,23.282-.841,30.014,1.122,31.136-12.343-16.549-19.074-32.819-18.793-30.014,2.244-33.942,1.122-4.487-1.683-9.817-1.964A14.708,14.708,0,0,0,355.835,377.757Z" transform="translate(-182.951 -68.932)" fill="#c2b2a7"/><path d="M440.822,395.265c-1.122,13.465-24.964,12.623-31.136,12.343s-10.94-1.683-23.282.841-14.982.025-14.982.025c3.5-.389,6.611-.778,9.333-4.277s-.389-12.833-4.277-17.11-7,.389-20.611-9.723c0,0,2.506-2.254,8.965,1.744s16.608,3.382,16.608,3.382,36.908-2.768,48.288,2.46S440.822,395.265,440.822,395.265Z" transform="translate(-182.983 -68.539)" fill="#999292"/><path d="M487,285.725l-89.777-7.481a6.854,6.854,0,0,0-7.055,4.613L362.6,363.489l100.067,3.362,29.094-73.444A5.628,5.628,0,0,0,487,285.725Z" transform="translate(-244.677 -121.413)" fill="#a7a7a7"/><path d="M480.535,288.795l-84.283-7.023a6.433,6.433,0,0,0-6.623,4.332l-25.876,75.7,93.943,3.156,27.314-68.949A5.287,5.287,0,0,0,480.535,288.795Z" transform="translate(-239.664 -119.519)" fill="#d9d9d9"/><path d="M447.247,306.2c-4.49-.945-9.688,12.523-8.979,15.358l8.743,8.506s8.743,20.557,10.633,21.265,17.485,2.6,21.265,1.417,1.182-3.307-.945-3.78c0,0,5.434,1.655,6.379,0s0-3.78-3.544-4.961-10.159-4.254-10.159-4.254-6.852-6.144-7.089-7.326,1.654-1.417,3.072-.472,5.2,5.2,11.814,8.034,7.324,3.307,8.269,2.362.708-3.544-7.089-8.506c-.679-.432-3.968-3.023-4.489-3.544-2.363-2.364-.756-8.377-4.017-13.941,0,0-5.671-4.725-8.034-5.671s-5.671-.237-9.214-1.89A57.5,57.5,0,0,0,447.247,306.2Z" transform="translate(-355.782 -106.42)" fill="#ffceb0"/><path d="M474.377,340s5.392,2.471-.267,4.046-14.934.209-14.934.209-8.947.043-10.706-7.047-6.623-14.845-6.623-14.845l5.016,1.521s7.9,11.858,12.922,13.529Z" transform="translate(-350.984 -97.719)" fill="#e69e8d"/><path d="M517.213,395.184c0,8.415-5.329,14.026-9.537,15.709s-13.465,0-16.83,1.683-4.208,6.172-13.465,3.928-9.256-5.329-9.256-5.329l.561-3.928s5.855-31.128,11.184-33.091,11.536,3.637,17.427,5.883c2.917,1.11,6.725,2.394,10.94,4.208C512.537,386.094,517.213,388.527,517.213,395.184Z" transform="translate(-431.885 -70.141)" fill="#c2b2a7"/><path d="M512.557,393.847c0,8.415-5.329,14.026-9.537,15.709s-13.465,0-16.83,1.683-4.208,6.172-13.465,3.928c-4.492-1.09-4.73-1.655-4.564-2.852.175-1.268,1.12-6.5,2.689-13.894,1.259-5.936,4.706-15.238,8.066-19.72,3.14-4.186,7.834-2.245,13.725,0,2.917,1.11,6.725,2.394,10.94,4.208C507.881,384.757,512.557,387.19,512.557,393.847Z" transform="translate(-427.229 -68.804)" fill="#999292"/><path d="M474.258,404.618c2.711-4.306,6.219-13.874,5.581-20.571,0,0,8.292,1.434,7.974,11.321S474.258,404.618,474.258,404.618Z" transform="translate(-411.92 -64.611)" fill="#7a7171"/><path d="M490.761,234.9" transform="translate(-440.218 -144.663)"/><path d="M469.165,256.313c8.489-10.245,12.509-5.366,15.191-12.2s-12.063-19.028-.894-24.394c9.591-4.609,9.52-12.34,12.683-19.506,3.243-9.44,5.873-16.926,18.395-21.952,14.155-5.683,30.274,1.707,32.355,5.116s5.471,10.9,5.471,10.9c-.827,6.777-4.082,17.442-16.9,18.837-8.168.888-5.127,4.6-7.121,10.092-1.626,4.48-4.924,6.992-3.127,10.822a18.729,18.729,0,0,0,2.723,6.185c3.825,5.9-1.349,8.352-5.174,10.072s-7.028,3.249-5.173,5.4c4.586,5.334,12.108,8.73,12.752,13.894,1.163,9.33-9.4,11.627-8.607,14.558,5.5,5.943,10.388,12.611,10.434,16.294.148,11.913-4.695,12.451-1.428,15.661,2.251,2.213-1.4,1.879-4.948-2.629-9.013-8.655-15.455.613-16.881-10.287-4.075-1.709-8.57-2.165-9.732-7.977-.813-4.065,7.441-7.777,1.111-12.065-5.592-3.786-15.3-7.173-11.758-11.907.75-1-2.239-1.477-8.057,2.639s-16.62,14.889-16.62,14.889C465.2,282.909,460.676,266.558,469.165,256.313Z" transform="translate(-460.424 -176.182)" fill="#3f160b"/><path d="M480.657,223.721a21.44,21.44,0,0,1-17.785-1.388" transform="translate(-387.256 -151.41)" fill="none" stroke="#000" stroke-miterlimit="10" stroke-width="0.194"/><path d="M462.7,225.763a4.629,4.629,0,0,0,3.381-1.824c.712-1.171-1.378-3.433-1.8-4.738a36.275,36.275,0,0,1-1.853-9.852" transform="translate(-372.133 -158.379)" fill="none" stroke="#000" stroke-miterlimit="10" stroke-width="0.194"/><path d="M464.018,205.891c-.632-1.209-4.613-3.642-6.471-.34" transform="translate(-362.434 -161.31)" fill="none" stroke="#000" stroke-miterlimit="10" stroke-width="0.194"/><path d="M482.764,205.558c-2.119-3.985-7.819-1.638-12.251,1.056" transform="translate(-401.105 -161.556)" fill="none" stroke="#000" stroke-miterlimit="10" stroke-width="0.194"/><path d="M474.72,209.723a1.193,1.193,0,0,1-.564,1.743,2.1,2.1,0,0,1-.192-1.967c.077-.181.254-.378.433-.3a.388.388,0,0,1,.177.312,2.373,2.373,0,0,1-.483,1.843,1.384,1.384,0,0,1,.088-1.523" transform="translate(-398.306 -158.469)" fill="none" stroke="#000" stroke-miterlimit="10" stroke-width="0.194"/><path d="M460.514,209.723a1.194,1.194,0,0,1-.566,1.743,2.1,2.1,0,0,1-.192-1.967c.077-.181.255-.378.433-.3a.385.385,0,0,1,.178.312,2.386,2.386,0,0,1-.483,1.843,1.384,1.384,0,0,1,.088-1.523" transform="translate(-362.268 -158.469)" fill="none" stroke="#000" stroke-miterlimit="10" stroke-width="0.194"/><path d="M452.268,272.859c2.316,17.611-6.012,36.538-4.6,58.275" transform="translate(-335.661 -124.291)" fill="none" stroke="#000" stroke-miterlimit="10" stroke-width="0.194"/><path d="M447.408,301.5a19.34,19.34,0,0,0-6.44,4.795" transform="translate(-320.347 -108.916)" fill="none" stroke="#000" stroke-miterlimit="10" stroke-width="0.194"/><path d="M497.019,252.408c4.928,8.541,5.374,18.893,5.037,28.746s-1.308,19.9,1.2,29.438c.79,3,1.893,3.482,1.422,6.547" transform="translate(-463.87 -135.268)" fill="none" stroke="#000" stroke-miterlimit="10" stroke-width="0.194"/><path d="M503.364,273.406a19.222,19.222,0,0,0-4.447-10.909" transform="translate(-465.355 -129.852)" fill="none" stroke="#000" stroke-miterlimit="10" stroke-width="0.194"/><path d="M523.679,298.358a15.607,15.607,0,0,0-14.757-1.423,23.636,23.636,0,0,0-4.649,2.821,51.084,51.084,0,0,0-7.962,7.378" transform="translate(-481.665 -112.026)" fill="none" stroke="#000" stroke-miterlimit="10" stroke-width="0.194"/><path d="M508.577,298.631a13.431,13.431,0,0,0-4.558,4.02" transform="translate(-478.408 -110.458)" fill="none" stroke="#000" stroke-miterlimit="10" stroke-width="0.194"/><path d="M512.313,309.771c-6.728-10.977-17.739-1.059-27.474-3.385-7.264-1.735-11.745-5.259-17.648-7.851" transform="translate(-425.549 -110.51)" fill="none" stroke="#000" stroke-miterlimit="10" stroke-width="0.194"/><path d="M515.258,299.854a14.807,14.807,0,0,0-8.338-6.716,40.145,40.145,0,0,0-10.776-1.819" transform="translate(-472.988 -114.382)" fill="none" stroke="#000" stroke-miterlimit="10" stroke-width="0.194"/><path d="M478.071,243.391a6.822,6.822,0,0,1-.95,6.868,7.33,7.33,0,0,1-4.664,2.2,31.506,31.506,0,0,1-6.328.235" transform="translate(-390.184 -140.107)" fill="none" stroke="#000" stroke-miterlimit="10" stroke-width="0.194"/><path d="M489.462,251.026a17.284,17.284,0,0,1-6.693-2.161l-6.5-3.135" transform="translate(-416.652 -138.852)" fill="none" stroke="#000" stroke-miterlimit="10" stroke-width="0.194"/><path d="M474.141,306.5c-3.479,1.239-5.955,4.429-7.338,7.853a21.312,21.312,0,0,0-1.445,5.829" transform="translate(-384.563 -106.235)" fill="none" stroke="#000" stroke-miterlimit="10" stroke-width="0.194"/><path d="M475.232,305.676a16.466,16.466,0,0,0-7.893,13.9" transform="translate(-388.696 -106.676)" fill="none" stroke="#000" stroke-miterlimit="10" stroke-width="0.194"/><path d="M459.232,331.156c-4.215-2.3-7.21-6.273-10.072-10.129" transform="translate(-344.759 -98.437)" fill="none" stroke="#000" stroke-miterlimit="10" stroke-width="0.194"/><path d="M471.662,342.055c-5.306-.452-10.972-1.043-15.085-4.429a23.422,23.422,0,0,1-2.934-3.037q-3.158-3.734-5.961-7.751c-1.713-2.456-3.393-5.448-2.456-8.291" transform="translate(-350.732 -99.768)" fill="none" stroke="#000" stroke-miterlimit="10" stroke-width="0.194"/><path d="M473.536,346.077l-8.154-1.329a11.621,11.621,0,0,1-3.929-1.129c-1.953-1.111-3.077-3.226-4.06-5.245a185.479,185.479,0,0,1-7.684-18.178" transform="translate(-359.907 -98.883)" fill="none" stroke="#000" stroke-miterlimit="10" stroke-width="0.194"/><path d="M459.991,324.025l-13.359-10.342" transform="translate(-341.633 -102.379)" fill="none" stroke="#000" stroke-miterlimit="10" stroke-width="0.194"/><path d="M445.327,331.772a2.207,2.207,0,0,1-1.483,4.006,8.268,8.268,0,0,1-3.976-.395" transform="translate(-317.487 -92.67)" fill="none" stroke="#000" stroke-miterlimit="10" stroke-width="0.194"/><path d="M451.861,335.222a2,2,0,0,1-1.216,2.016,5.438,5.438,0,0,1-2.482.355,53.367,53.367,0,0,1-5.9-.456" transform="translate(-326.816 -90.818)" fill="none" stroke="#000" stroke-miterlimit="10" stroke-width="0.194"/><path d="M460.1,332.463c.315.587-.493,1.139-1.148,1.268-2.941.579-5.214-1.223-7.8-2.743s-5.558-2.722-7.7-4.818l-4.595-4.49" transform="translate(-329.865 -98.086)" fill="none" stroke="#000" stroke-miterlimit="10" stroke-width="0.194"/><path d="M459.222,314.575a8.422,8.422,0,0,0-.661,4.453" transform="translate(-359.098 -101.9)" fill="none" stroke="#000" stroke-miterlimit="10" stroke-width="0.194"/><path d="M461.958,316.674l-.871,1.074" transform="translate(-365.814 -100.773)" fill="none" stroke="#000" stroke-miterlimit="10" stroke-width="0.194"/><path d="M465.361,319.311a3.269,3.269,0,0,0-1.042.914" transform="translate(-374.184 -99.358)" fill="none" stroke="#000" stroke-miterlimit="10" stroke-width="0.194"/><path d="M454.819,328.3l-1.548,2.508" transform="translate(-346.663 -94.533)" fill="none" stroke="#000" stroke-miterlimit="10" stroke-width="0.194"/><path d="M457.868,333.959l-.7,1.6" transform="translate(-355.699 -91.496)" fill="none" stroke="#000" stroke-miterlimit="10" stroke-width="0.194"/><path d="M448.87,323.143a6.246,6.246,0,0,0-1.621,1.563" transform="translate(-331.461 -97.301)" fill="none" stroke="#000" stroke-miterlimit="10" stroke-width="0.194"/><path d="M530.881,337.191c-7.366.595-16.913.418-22.529-4.384-3.236-2.768-5.044-6.837-6.364-10.885-1.514-4.639-2.079-18.651-3.87-25.811" transform="translate(-491.646 -111.81)" fill="none" stroke="#000" stroke-miterlimit="10" stroke-width="0.194"/><path d="M524.156,248.629c-5.38,10.479-4.858,19.053-3.247,30.721s4.18,26.984,4.8,38.747" transform="translate(-519.807 -137.296)" fill="none" stroke="#000" stroke-miterlimit="10" stroke-width="0.194"/><path d="M462.877,270.442l5.675,18.344" transform="translate(-375.159 -125.588)" fill="none" stroke="#000" stroke-miterlimit="10" stroke-width="0.194"/><path d="M523.1,353.233q-6.293.48-12.586.957a2.4,2.4,0,0,1-1.437-.186,2.268,2.268,0,0,1-.7-2.244c.324-3.255,1.732-6.285,2.732-9.4,2.3-7.155,1.647-16.924-.372-24.165" transform="translate(-499.583 -99.956)" fill="none" stroke="#000" stroke-miterlimit="10" stroke-width="0.194"/><path d="M468.093,291.329c1.189,4.521,1.428,12.614-.476,12.85s-4.521-2.617-4.521-2.617-1.9-30.225-1.191-29.51S468.093,291.329,468.093,291.329Z" transform="translate(-373.884 -124.73)" fill="#8d8484"/><path d="M450.784,300.584s-9.775,5.534-11.99,9.777c0,0,1.846-9.408,5.349-10.883C446.885,298.324,450.784,300.584,450.784,300.584Z" transform="translate(-320.381 -110.18)" fill="#8d8484"/><path d="M512.361,391.318a14.16,14.16,0,0,1-9.812,10.621c-5.117,1.449-10.825-.1-15.769,1.867-2.631,1.045-4.848,3.021-7.564,3.825-3.378,1-6.983-1.16-10.375-2.115" transform="translate(-428.135 -60.709)" fill="none" stroke="#000" stroke-miterlimit="10" stroke-width="0.194"/><path d="M500.479,380.945c-3.6,5.372-5.231,11.788-6.8,18.064l-2.2,8.784" transform="translate(-451.046 -66.276)" fill="none" stroke="#000" stroke-miterlimit="10" stroke-width="0.194"/><path d="M490.435,413.342c-1.331-2.806-.069-6.954.469-10.015a111.318,111.318,0,0,1,7.714-25.528,9,9,0,0,1,2.459-3.779c1.2-.925,3.14-1.088,4.134.063" transform="translate(-453.26 -70.394)" fill="none" stroke="#000" stroke-miterlimit="10" stroke-width="0.194"/><path d="M495.02,392.344c-.211-3.456-2.528-6.505-5.383-8.461s-6.224-3-9.534-4.012a72.439,72.439,0,0,0-11.85-2.915" transform="translate(-409.888 -68.418)" fill="none" stroke="#000" stroke-miterlimit="10" stroke-width="0.194"/><path d="M491.462,376.907a9.192,9.192,0,0,0-3.662,3.018" transform="translate(-436.369 -68.444)" fill="none" stroke="#000" stroke-miterlimit="10" stroke-width="0.194"/><path d="M485.043,376.464l-1.343-.956" transform="translate(-423.65 -69.195)" fill="none" stroke="#000" stroke-miterlimit="10" stroke-width="0.194"/><path d="M481.137,386.849a32.285,32.285,0,0,1-1.563,7.465" transform="translate(-413.403 -63.107)" fill="none" stroke="#000" stroke-miterlimit="10" stroke-width="0.194"/><path d="M424.487,387.216a7.123,7.123,0,0,1-.695,6.806,13.244,13.244,0,0,1-5.463,4.473c-8.715,4.257-17.215,2.777-26.911,2.557a103.617,103.617,0,0,0-24.881,2.453c-3.464.771-7.481,1.6-10.244-.622" transform="translate(-167.878 -62.91)" fill="none" stroke="#000" stroke-miterlimit="10" stroke-width="0.194"/><path d="M416.371,407.808c2.758-1.385,4.065-4.744,3.916-7.827s-2.122-7.338-3.439-10.129a8.276,8.276,0,0,0-1.84-2.812c-1.738-1.517-4.235-1.813-6.5-2.256-5.455-1.068-9.343-5.475-14.3-7.993" transform="translate(-221.381 -68.505)" fill="none" stroke="#000" stroke-miterlimit="10" stroke-width="0.194"/><path d="M395.413,389.8c-2.5-4.338-7.316-9.784-38.345-10.036" transform="translate(-139.418 -66.908)" fill="none" stroke="#000" stroke-miterlimit="10" stroke-width="0.194"/><path d="M417.456,381.285a15.062,15.062,0,0,1-3.4-.33c-1.876-.3-10.719,1.4-17.259.516-5.3-.715-8.477-4.094-10.006-3.926" transform="translate(-207.132 -68.105)" fill="none" stroke="#000" stroke-miterlimit="10" stroke-width="0.194"/><path d="M378.369,392.862a16.154,16.154,0,0,1-1.068-3.885" transform="translate(-153.468 -61.965)" fill="none" stroke="#000" stroke-miterlimit="10" stroke-width="0.194"/><path d="M466.6,393.945c-13.1-13.84-28.545-26.911-52.309-55.825" transform="translate(-298.54 -89.262)" fill="none" stroke="#000" stroke-miterlimit="10" stroke-width="0.194"/><path d="M474.866,400.83c-10.335-5.455-47.724-22.939-57.319-29.61" transform="translate(-311.812 -71.496)" fill="none" stroke="#000" stroke-miterlimit="10" stroke-width="0.194"/><path d="M498.291,375.833A236.775,236.775,0,0,1,461.4,349.419" transform="translate(-402.633 -83.198)" fill="none" stroke="#000" stroke-miterlimit="10" stroke-width="0.194"/><path d="M502.3,351.323a105.429,105.429,0,0,1-13.013-17.208" transform="translate(-449.485 -91.412)" fill="none" stroke="#000" stroke-miterlimit="10" stroke-width="0.194"/><path d="M507.825,358.255q-13.448-7.3-26.16-15.862" transform="translate(-443.304 -86.969)" fill="none" stroke="#000" stroke-miterlimit="10" stroke-width="0.194"/><path d="M495.318,355.852a29.212,29.212,0,0,1-11.95-4.541" transform="translate(-433.414 -82.182)" fill="none" stroke="#000" stroke-miterlimit="10" stroke-width="0.194"/><path d="M456.952,362.3a61.145,61.145,0,0,1-5.787,7.638,40.7,40.7,0,0,1-5.944,5.594,61.267,61.267,0,0,1-9.413,5.452c-3.928,1.975-8.019,3.993-12.414,4.114" transform="translate(-302.884 -76.283)" fill="none" stroke="#000" stroke-miterlimit="10" stroke-width="0.194"/><path d="M438.374,363.647a27.007,27.007,0,0,1-9.648,8.469" transform="translate(-292.499 -75.561)" fill="none" stroke="#000" stroke-miterlimit="10" stroke-width="0.194"/><path d="M452.967,372.382q-6.865,2.928-13.909,5.409" transform="translate(-322.97 -70.872)" fill="none" stroke="#000" stroke-miterlimit="10" stroke-width="0.194"/><path d="M428.094,399.05a48.934,48.934,0,0,1-18.313.721c-3.05-.459-6.165-1.262-8.573-3.19a14.143,14.143,0,0,1-3.945-5.412" transform="translate(-233.867 -60.789)" fill="none" stroke="#000" stroke-miterlimit="10" stroke-width="0.194"/><path d="M413.515,359.919a184.225,184.225,0,0,1,34.362-22.274" transform="translate(-278.627 -89.517)" fill="none" stroke="#000" stroke-miterlimit="10" stroke-width="0.194"/><path d="M471.334,381.421q-17,7.233-34.448,13.342" transform="translate(-337.999 -66.021)" fill="none" stroke="#000" stroke-miterlimit="10" stroke-width="0.194"/><path d="M477.127,392.32c-4.334,3.183-9.039,6.459-14.413,6.66" transform="translate(-383.483 -60.171)" fill="none" stroke="#000" stroke-miterlimit="10" stroke-width="0.194"/><path d="M479.379,371.4q-11.343,7.939-23.409,14.776" transform="translate(-375.372 -71.401)" fill="none" stroke="#000" stroke-miterlimit="10" stroke-width="0.194"/><path d="M415.106,339.787a17.647,17.647,0,0,1-.816,13.105,26.967,26.967,0,0,1-5.737,7.458,86.106,86.106,0,0,1-8.285,6.955c-7.295,5.492-11.509,9.3-21.935,14.175" transform="translate(-192.682 -88.368)" fill="none" stroke="#000" stroke-miterlimit="10" stroke-width="0.194"/><path d="M421.478,367.888l-4.836,2.379a80.168,80.168,0,0,1-11.5,4.93" transform="translate(-239.368 -73.285)" fill="none" stroke="#000" stroke-miterlimit="10" stroke-width="0.194"/><path d="M427.626,335.918c-4.65.565-40.97-.7-45.959-1.043" transform="translate(-209.434 -91.005)" fill="none" stroke="#000" stroke-miterlimit="10" stroke-width="0.194"/><path d="M455,334.9c-4.2-.455-37.558-.893-41.285-.652" transform="translate(-286.055 -91.375)" fill="none" stroke="#000" stroke-miterlimit="10" stroke-width="0.194"/><path d="M374.008,288.082c.512,1.644-.052,3.407-.613,5.036-1.11,3.221-7.653,22.264-9.327,25.233" transform="translate(-128.972 -116.12)" fill="none" stroke="#000" stroke-miterlimit="10" stroke-width="0.194"/><path d="M386.519,309.347c-.664,1.054-14.822,36.238-15.261,37.4" transform="translate(-152.332 -104.706)" fill="none" stroke="#000" stroke-miterlimit="10" stroke-width="0.194"/><path d="M452.587,288.476c-1.09-.435-84.45-6.172-85.54-6.606" transform="translate(-211.928 -119.454)" fill="none" stroke="#000" stroke-miterlimit="10" stroke-width="0.194"/><path d="M439.588,283.3c-1.256,2.048-13.539,37.689-13.986,40.049" transform="translate(-288.913 -118.686)" fill="none" stroke="#000" stroke-miterlimit="10" stroke-width="0.194"/><path d="M442.8,312.308c-1.057,3.3-5.915,17.906-6.972,21.206" transform="translate(-307.827 -103.117)" fill="none" stroke="#000" stroke-miterlimit="10" stroke-width="0.194"/><path d="M450.1,285.216c-3.484,8.833-18.919,55.083-19.942,57.719" transform="translate(-306.414 -117.658)" fill="none" stroke="#000" stroke-miterlimit="10" stroke-width="0.194"/><path d="M440.7,320.144" transform="translate(-313.229 -98.911)" fill="#8d8484"/><path d="M534.185,314.105A133.728,133.728,0,0,0,486.019,397.2" transform="translate(-476.355 -102.152)" fill="none" stroke="#000" stroke-miterlimit="10" stroke-width="0.194"/></g><g transform="translate(344.987 169.538)"><g transform="translate(0.217 0)"><rect width="62.589" height="21.362" rx="3.839" transform="translate(0 4.475)" fill="#f75356"/><text transform="translate(26.076 18)" fill="#fff" font-size="17" font-family="SegoeUI, Segoe UI"><tspan x="0" y="0">200</tspan></text><path d="M427.088,273.161h7.928l-4.071,7.928Z" transform="translate(-399.526 -248.53)" fill="#f75356"/><g transform="translate(7.951 8.33)"><ellipse cx="6.463" cy="6.463" rx="6.463" ry="6.463" transform="translate(0)" fill="#fcfbfc"/><path d="M420.573,271.079a12.756,12.756,0,0,0,5.755.366l-4.905-3.03Z" transform="translate(-410.974 -259.408)" fill="#fcfbfc"/></g></g><path d="M435.371,273.848H412.6" transform="translate(-407.084 -248.161)" fill="none" stroke="#000" stroke-miterlimit="10" stroke-width="0.098"/><path d="M411.133,278.128a4.826,4.826,0,0,1-1.918-3.053,14.406,14.406,0,0,1-.163-3.684l.3-7.061a2.119,2.119,0,0,1,.427-1.445" transform="translate(-409.012 -254.045)" fill="none" stroke="#000" stroke-miterlimit="10" stroke-width="0.098"/><path d="M410.108,262.346A4.786,4.786,0,0,1,414.245,260c.659.011,48.9-.052,51.6-.052" transform="translate(-408.423 -255.621)" fill="none" stroke="#000" stroke-miterlimit="10" stroke-width="0.098"/><path d="M447.566,260.374a6.2,6.2,0,0,1,2.374,1.838,9.069,9.069,0,0,1,.825,2.439,83.5,83.5,0,0,1,.576,11.123" transform="translate(-388.318 -255.393)" fill="none" stroke="#000" stroke-miterlimit="10" stroke-width="0.098"/><path d="M433.809,273.848H450.1" transform="translate(-395.702 -248.161)" fill="none" stroke="#000" stroke-miterlimit="10" stroke-width="0.098"/><path d="M446.655,275.313a6.179,6.179,0,0,0,4.755-4.063" transform="translate(-388.807 -249.556)" fill="none" stroke="#000" stroke-miterlimit="10" stroke-width="0.098"/><path d="M427.721,274.47l2.725,5.758,2.207-4.016" transform="translate(-398.969 -247.827)" fill="none" stroke="#000" stroke-miterlimit="10" stroke-width="0.098"/><path d="M431.772,273.918" transform="translate(-396.795 -248.124)" fill="none" stroke="#000" stroke-miterlimit="10" stroke-width="0.098"/></g><g transform="translate(136.046 217.964)"><g transform="translate(0.077)"><path d="M548.2,329.177s5.667-31.391-1.864-36.412-18.516-1.961-23.841,7.263c-6.55,11.344-9.648,29.24-9.648,29.24" transform="translate(-467.061 -287.721)" fill="none" stroke="#000" stroke-miterlimit="10" stroke-width="1.079"/><path d="M558.656,327.087s5.667-31.393-1.863-36.413-17.951.166-21.6,5.893c-7.032,11.051-11.893,30.61-11.893,30.61" transform="translate(-493.596 -288.645)" fill="none" stroke="#000" stroke-miterlimit="10" stroke-width="1.079"/><g transform="translate(0 35.233)"><path d="M523.717,315.982,515.954,437.61l77.635,8.627s1.726-133.7,0-134.568S523.717,315.982,523.717,315.982Z" transform="translate(-515.954 -311.572)" fill="#ffc558"/><path d="M515.982,312.5c.43.862,9.058,122.059,9.058,122.059L500.455,446.2V311.635l7.332,4.744Z" transform="translate(-422.82 -311.538)" fill="#ec9e58"/><path d="M525.04,396.9l-24.584,11.645L512.963,381.8Z" transform="translate(-422.821 -273.877)" fill="#d08158"/></g><line x1="4.807" y1="109.082" transform="translate(86.172 40.335)" fill="none" stroke="#d08158" stroke-miterlimit="10" stroke-width="1.079"/></g><path d="M516.683,421.066c-.172-7.459-.432-56.518-.6-63.978" transform="translate(-438.4 -251.908)" fill="none" stroke="#000" stroke-miterlimit="10" stroke-width="0.194"/><path d="M516.866,365.482a301.906,301.906,0,0,1-.43-34.036" transform="translate(-438.685 -265.671)" fill="none" stroke="#000" stroke-miterlimit="10" stroke-width="0.194"/><path d="M516.482,336.655c.484-7.876-.35-17.015.135-24.889" transform="translate(-438.936 -276.234)" fill="none" stroke="#000" stroke-miterlimit="10" stroke-width="0.194"/><path d="M512.119,416.624c.375-9.263-2.654-87.9-4.034-97.065" transform="translate(-421.58 -272.052)" fill="none" stroke="#000" stroke-miterlimit="10" stroke-width="0.194"/><path d="M502.822,401.388c-.675-10.528-1.606-19.463-2.755-29.95" transform="translate(-399.93 -244.206)" fill="none" stroke="#000" stroke-miterlimit="10" stroke-width="0.194"/><path d="M509.068,396.305c-.97-18.067-6.01-65.447-6.98-83.514" transform="translate(-409.281 -275.684)" fill="none" stroke="#000" stroke-miterlimit="10" stroke-width="0.194"/><path d="M521.718,393.385a177.247,177.247,0,0,1-17.958,8.206" transform="translate(-424.501 -232.426)" fill="none" stroke="#000" stroke-miterlimit="10" stroke-width="0.194"/><path d="M565.626,314.66c-.592,7.674-3.249,48.117-3.544,55.2" transform="translate(-558.034 -274.681)" fill="none" stroke="#000" stroke-miterlimit="10" stroke-width="0.194"/><path d="M568.039,364.413,565.127,408.7" transform="translate(-565.127 -247.976)" fill="none" stroke="#000" stroke-miterlimit="10" stroke-width="0.194"/><path d="M586.682,401.481c-2.565-.87-66.217-6.809-68.78-7.679" transform="translate(-511.197 -232.202)" fill="none" stroke="#000" stroke-miterlimit="10" stroke-width="0.194"/><path d="M572.351,311.751c-3.345.728-51.493,2.912-54.914,2.757" transform="translate(-496.152 -276.242)" fill="none" stroke="#000" stroke-miterlimit="10" stroke-width="0.194"/><path d="M560.67,314.487a13.486,13.486,0,0,0-4.53-.436" transform="translate(-543.947 -275.028)" fill="none" stroke="#000" stroke-miterlimit="10" stroke-width="0.194"/></g><g transform="translate(105.994 285.828)"><g transform="translate(0 0)"><rect width="59.528" height="84.789" rx="2.176" transform="matrix(0.98, -0.2, 0.2, 0.98, 0, 21.816)" fill="#5d6e7f"/><rect width="59.528" height="84.789" rx="2.007" transform="matrix(0.98, -0.2, 0.2, 0.98, 1.9, 18.943)" fill="#a9c6de"/><rect width="51.509" height="74.091" rx="1.629" transform="matrix(0.98, -0.2, 0.2, 0.98, 7.253, 22.496)" fill="#fff"/><path d="M549.765,353.411c2.617,1.3,25.1-3.565,25.475-5.9.235-1.481-4.815-4.321-4.815-4.321l-4.822-1.455s3.982-5.263,2.356-7.084c-3.473-3.889-14.923-1.085-16.356,3.33-.736,2.274,1.843,4.646,4.26,5.947l-4.123,3.528S548.389,352.729,549.765,353.411Z" transform="translate(-529.365 -332.806)" fill="#98b0ae"/></g><path d="M550.211,373.574l2.154,3.37q3.5-4.366,6.68-8.978" transform="translate(-528.948 -313.933)" fill="none" stroke="#c4c058" stroke-miterlimit="10" stroke-width="0.54"/><path d="M547.306,360.579l2.154,3.369q3.5-4.364,6.68-8.978" transform="translate(-530.507 -320.909)" fill="none" stroke="#c4c058" stroke-miterlimit="10" stroke-width="0.54"/><path d="M553.116,386.723l2.155,3.369q3.5-4.366,6.68-8.978" transform="translate(-527.389 -306.876)" fill="none" stroke="#c4c058" stroke-miterlimit="10" stroke-width="0.54"/><path d="M556.68,356.786c7.988-1.615,19.729-3.9,23.177-5.15" transform="translate(-525.476 -322.698)" fill="none" stroke="#969696" stroke-miterlimit="10" stroke-width="0.14"/><path d="M557.088,358.825c7.988-1.615,19.729-3.894,23.177-5.148" transform="translate(-525.257 -321.603)" fill="none" stroke="#969696" stroke-miterlimit="10" stroke-width="0.14"/><path d="M559.537,368.825c7.987-1.615,19.727-3.9,23.177-5.15" transform="translate(-523.942 -316.236)" fill="none" stroke="#969696" stroke-miterlimit="10" stroke-width="0.14"/><path d="M559.945,370.865c7.986-1.615,19.727-3.894,23.177-5.15" transform="translate(-523.723 -315.142)" fill="none" stroke="#969696" stroke-miterlimit="10" stroke-width="0.14"/><path d="M562.189,382.088c7.988-1.615,19.729-3.9,23.177-5.15" transform="translate(-522.519 -309.118)" fill="none" stroke="#969696" stroke-miterlimit="10" stroke-width="0.14"/><path d="M562.6,384.127c7.988-1.615,19.729-3.894,23.179-5.148" transform="translate(-522.3 -308.022)" fill="none" stroke="#969696" stroke-miterlimit="10" stroke-width="0.14"/><path d="M551.577,411.179c-1-1.737-8.043-36.066-8.3-38.051" transform="translate(-532.669 -311.163)" fill="none" stroke="#000" stroke-miterlimit="10" stroke-width="0.14"/><path d="M545.054,381.717c-.524-2.4-6.59-32.213-7.112-34.615" transform="translate(-535.533 -325.132)" fill="none" stroke="#000" stroke-miterlimit="10" stroke-width="0.14"/><path d="M589.88,408.762c-.618-2.459-8.28-39.374-11.078-54.372" transform="translate(-513.602 -321.22)" fill="none" stroke="#000" stroke-miterlimit="10" stroke-width="0.14"/><path d="M579.8,358.444q-1.528-9.587-3.862-19.02" transform="translate(-515.137 -329.253)" fill="none" stroke="#000" stroke-miterlimit="10" stroke-width="0.14"/><path d="M550.639,352.778c-.406.264-.976-.152-1.047-.632a2.2,2.2,0,0,1,.42-1.362c.981-1.713,1.962-3.427,3.063-5.065a7,7,0,0,1,2.679-2.655c-1.351-.925-3.565-1.669-3.979-3.253-.444-1.706-1.111-3.856,4.079-6.079" transform="translate(-529.286 -332.308)" fill="none" stroke="#000" stroke-miterlimit="10" stroke-width="0.14"/><path d="M556.68,333.071a29.422,29.422,0,0,1,3.607.042c1.256.091,3.27.39,3.839,1.514.7,1.385-.065,2.533-.741,3.929-.294.6-1.4,1.655-1.615,2.288a.658.658,0,0,0-.008.6.7.7,0,0,0,.563.177c2.891.069,6.281,2.6,8.326,4.644" transform="translate(-525.476 -332.683)" fill="none" stroke="#000" stroke-miterlimit="10" stroke-width="0.14"/><path d="M555.5,347.346a60.232,60.232,0,0,0,15.14-4.26" transform="translate(-526.11 -327.288)" fill="none" stroke="#000" stroke-miterlimit="10" stroke-width="0.14"/><path d="M555.461,335.784a1.015,1.015,0,1,0,1.08-1.11" transform="translate(-526.13 -331.803)" fill="none" stroke="#000" stroke-miterlimit="10" stroke-width="0.14"/><path d="M551.214,401.014c1.408.061,34.637-6.436,36-6.8" transform="translate(-528.409 -299.848)" fill="none" stroke="#000" stroke-miterlimit="10" stroke-width="0.14"/><path d="M577.34,394.423c2.688-1.445,9.028-1.383,11.845-2.557" transform="translate(-514.387 -301.105)" fill="none" stroke="#000" stroke-miterlimit="10" stroke-width="0.14"/><path d="M555.228,407.16a1.244,1.244,0,0,1-1.481-.132,3.291,3.291,0,0,1-.861-1.332c-1.723-4.089-6.785-31.539-7.267-35.951" transform="translate(-531.413 -312.978)" fill="none" stroke="#000" stroke-miterlimit="10" stroke-width="0.14"/><path d="M546.407,374.716c-.539-8.146-2.8-16.067-4.849-23.97a2.9,2.9,0,0,1-.054-1.893c.51-1.143,3.364-2.327,4.6-2.133" transform="translate(-533.697 -325.349)" fill="none" stroke="#000" stroke-miterlimit="10" stroke-width="0.14"/><path d="M546.53,346.617a9.469,9.469,0,0,1,4.2-1.217" transform="translate(-530.924 -326.045)" fill="none" stroke="#000" stroke-miterlimit="10" stroke-width="0.14"/><path d="M538.673,347.15c2.583-1.772,15.968-4.266,19.069-4.716" transform="translate(-535.141 -327.637)" fill="none" stroke="#000" stroke-miterlimit="10" stroke-width="0.14"/><path d="M563.264,340.57c2.348-.49,15.773-2.755,18.166-2.585" transform="translate(-521.942 -330.03)" fill="none" stroke="#000" stroke-miterlimit="10" stroke-width="0.14"/><path d="M536.693,348.653c.612,2.317,7.813,37,11.905,58.989" transform="translate(-536.203 -324.299)" fill="none" stroke="#000" stroke-miterlimit="10" stroke-width="0.14"/><path d="M544.563,388.266l3.51,17.37c.129.642,3.665,1.036,4.223,1.382" transform="translate(-531.979 -303.037)" fill="none" stroke="#000" stroke-miterlimit="10" stroke-width="0.14"/><path d="M550.894,403.4c1.323.074,42.554-8.584,43.842-8.9" transform="translate(-528.581 -299.691)" fill="none" stroke="#000" stroke-miterlimit="10" stroke-width="0.14"/><path d="M566.735,342.716c1.191-.61,7.567-1.646,8.9-1.76" transform="translate(-520.079 -328.431)" fill="none" stroke="#000" stroke-miterlimit="10" stroke-width="0.14"/><path d="M574.161,342.872c.584,1.655,4.524,21.591,4.835,23.319l9.067,42.188" transform="translate(-516.093 -327.402)" fill="none" stroke="#000" stroke-miterlimit="10" stroke-width="0.14"/><path d="M564.38,393.97c.847.1,26.235-5.471,27.073-5.631" transform="translate(-521.343 -302.998)" fill="none" stroke="#000" stroke-miterlimit="10" stroke-width="0.14"/></g><g transform="translate(150.95 358.787)"><g transform="translate(0.603 0.877)"><path d="M573.41,403.86l-43.029,11.415a2.884,2.884,0,0,1-3.527-2.048l-.221-.835a2.885,2.885,0,0,1,1.03-3.014,5.865,5.865,0,0,0-2.884-10.53,2.8,2.8,0,0,1-2.293-2.095l-.229-.862a2.883,2.883,0,0,1,2.049-3.527l43.027-11.415A2.885,2.885,0,0,1,570.861,383l.166.626a2.977,2.977,0,0,1-1.477,3.309,5.656,5.656,0,0,0,2.915,10.66,2.8,2.8,0,0,1,2.8,2.019l.191.721A2.884,2.884,0,0,1,573.41,403.86Z" transform="translate(-522.16 -380.853)" fill="#f75356"/><text transform="translate(31.82 18.546) rotate(-14.857)" fill="#fff" font-size="14" font-family="SegoeUI, Segoe UI"><tspan x="0" y="0">%</tspan></text><text transform="translate(10.551 23.529) rotate(-14.857)" fill="#fff" font-size="13" font-family="SegoeUI, Segoe UI"><tspan x="0" y="0">Off</tspan></text></g><path d="M521.767,389.109l1.5,5.479" transform="translate(-521.767 -375.544)" fill="none" stroke="#000" stroke-miterlimit="10" stroke-width="0.14"/><path d="M524.949,404.914q.357,1.4.838,2.757l43.408-11.381" transform="translate(-520.059 -371.69)" fill="none" stroke="#000" stroke-miterlimit="10" stroke-width="0.14"/><path d="M527.871,398.268a7.083,7.083,0,0,1-2.427,2.611c-.3.191-.644.392-.742.735a1.336,1.336,0,0,0,.023.622c.042.2.085.406.131.609" transform="translate(-520.207 -370.628)" fill="none" stroke="#000" stroke-miterlimit="10" stroke-width="0.14"/><path d="M523.9,392.813a5.388,5.388,0,0,1,5.123,4.609,5.977,5.977,0,0,1-.353,2.949" transform="translate(-520.625 -373.556)" fill="none" stroke="#000" stroke-miterlimit="10" stroke-width="0.14"/><line x1="43.811" y2="11.818" transform="translate(2.347 0.558)" fill="none" stroke="#000" stroke-miterlimit="10" stroke-width="0.14"/><path d="M553.372,380.539l.951-.257a26.287,26.287,0,0,0,1.71,6.1c-1.509.416-5.7,2.494-4.984,7.094.049.315,1.331,4.964,8.065,4.085l1.621,5.869-4.695,1.206" transform="translate(-506.094 -380.282)" fill="none" stroke="#000" stroke-miterlimit="10" stroke-width="0.14"/></g><g transform="translate(335.459 65.476)"><g transform="translate(0)"><ellipse cx="12.022" cy="12.022" rx="12.022" ry="12.022" fill="#ffc558"/></g><path d="M432.061,192.648l-2.022,4.1-4.522.657,3.272,3.19-.773,4.5,4.045-2.127,4.045,2.127-.773-4.5,3.272-3.19-4.522-.657Z" transform="translate(-420.562 -187.682)" fill="#fcfbfc"/><path d="M436.292,210.016a13.607,13.607,0,0,0,3.842-10.325c-.321-3.77-6.863-14.381-18.642-8.49" transform="translate(-415.946 -189.395)" fill="none" stroke="#000" stroke-miterlimit="10" stroke-width="0.105"/><path d="M441.676,210.833c-8.352,1.921-15.936-9.923-11.314-17.132" transform="translate(-428.921 -187.117)" fill="none" stroke="#000" stroke-miterlimit="10" stroke-width="0.105"/></g><g transform="translate(413.046 183.253)"><path d="M350.008,304.646l7.719-5.889h43.866a4.723,4.723,0,0,0,4.724-4.724V270.881a4.723,4.723,0,0,0-4.724-4.724H354.732a4.723,4.723,0,0,0-4.724,4.724Z" transform="translate(-349.822 -266.004)" fill="#faf5f7"/><path d="M356.883,279.489v7.1c.249,5.557-6.957,4.905-6.957,4.905" transform="translate(-300.268 -258.848)" fill="none" stroke="#000" stroke-miterlimit="10" stroke-width="0.114"/><path d="M376.385,287.337h-19.3" transform="translate(-330.77 -254.636)" fill="none" stroke="#000" stroke-miterlimit="10" stroke-width="0.114"/><path d="M350.107,278.546v-6.958" transform="translate(-293.764 -263.089)" fill="none" stroke="#000" stroke-miterlimit="10" stroke-width="0.114"/><path d="M388.51,271.011c.051-.965-.607-3.141-1.483-3.548-3.82-1.773-4.5-1.365-5.867-1.365H350.205" transform="translate(-332.321 -266.058)" fill="none" stroke="#000" stroke-miterlimit="10" stroke-width="0.114"/><path d="M392.112,287.213h-8.186l-7.453,6.132" transform="translate(-376.287 -254.702)" fill="none" stroke="#000" stroke-miterlimit="10" stroke-width="0.114"/><path d="M390.583,266.173h-7.23s-3.684-.137-3.684,8.458v28.376" transform="translate(-379.669 -265.996)" fill="none" stroke="#000" stroke-miterlimit="10" stroke-width="0.114"/><g transform="translate(8.764 7.074)"><line x1="37.171" transform="translate(0)" fill="none" stroke="#e3ddd8" stroke-linecap="round" stroke-linejoin="round" stroke-width="1.003"/><line x1="37.171" transform="translate(0 5.448)" fill="none" stroke="#e3ddd8" stroke-linecap="round" stroke-linejoin="round" stroke-width="1.003"/><line x1="37.171" transform="translate(0 10.114)" fill="none" stroke="#e3ddd8" stroke-linecap="round" stroke-linejoin="round" stroke-width="1.003"/><line x1="37.171" transform="translate(0 14.506)" fill="none" stroke="#e3ddd8" stroke-linecap="round" stroke-linejoin="round" stroke-width="1.003"/><line x1="37.171" transform="translate(0 19.446)" fill="none" stroke="#e3ddd8" stroke-linecap="round" stroke-linejoin="round" stroke-width="1.003"/></g></g><g transform="translate(421.922 250.977)"><path d="M391.938,313.127l-.238,13.822a2.112,2.112,0,0,1-2.2,2.073l-26.871-1.094a2.111,2.111,0,0,1-2.025-2.11l.006-13.579a2.112,2.112,0,0,1,2.178-2.11l27.1.853A2.11,2.11,0,0,1,391.938,313.127Z" transform="translate(-360.607 -310.127)" fill="#ffc558"/><path d="M382.127,318.235l-5.193-.4-5.778,1.767s3.745-6.038,7.126-3.94A30.358,30.358,0,0,1,382.127,318.235Z" transform="translate(-367.007 -307.395)"/><path d="M387.581,313.2a66.333,66.333,0,0,1-10.388,7.029,2.377,2.377,0,0,1-1.1.378,2.324,2.324,0,0,1-1.177-.44,70.325,70.325,0,0,1-12-8.544" transform="translate(-359.797 -309.326)" fill="none" stroke="#000" stroke-miterlimit="10" stroke-width="0.167"/><path d="M369.732,320.643a49.82,49.82,0,0,0-6.132-4.44" transform="translate(-343 -306.866)" fill="none" stroke="#000" stroke-miterlimit="10" stroke-width="0.167"/><path d="M382.713,315.228c-3.1,1.795-4.682,4.006-7.63,6.042" transform="translate(-373.628 -307.39)" fill="none" stroke="#000" stroke-miterlimit="10" stroke-width="0.167"/></g><g transform="translate(68.073 166.654)"><path d="M622.2,258.256l-.238,13.82a2.113,2.113,0,0,1-2.2,2.073l-26.87-1.093a2.11,2.11,0,0,1-2.026-2.11l.006-13.58a2.11,2.11,0,0,1,2.178-2.108l27.1.851A2.112,2.112,0,0,1,622.2,258.256Z" transform="translate(-590.866 -255.256)" fill="#ffc558"/><path d="M612.386,263.364l-5.193-.4-5.778,1.767s3.745-6.038,7.126-3.942A30.134,30.134,0,0,1,612.386,263.364Z" transform="translate(-597.266 -252.524)"/><path d="M617.84,258.327a66.4,66.4,0,0,1-10.388,7.028,2.4,2.4,0,0,1-1.1.38,2.332,2.332,0,0,1-1.176-.44,70.409,70.409,0,0,1-12-8.546" transform="translate(-590.056 -254.455)" fill="none" stroke="#000" stroke-miterlimit="10" stroke-width="0.167"/><path d="M599.991,265.772a49.676,49.676,0,0,0-6.132-4.441" transform="translate(-573.259 -251.996)" fill="none" stroke="#000" stroke-miterlimit="10" stroke-width="0.167"/><path d="M612.973,260.357c-3.1,1.793-4.681,4.006-7.63,6.041" transform="translate(-603.889 -252.518)" fill="none" stroke="#000" stroke-miterlimit="10" stroke-width="0.167"/></g><g transform="translate(466.351 82.671)"><path d="M587.834,312.4l-10.737,4.78,3.3,2.146-1.949,3.233,2.346,1.458,2.032-3.11,3.469,2.257Z" transform="translate(-577.097 -312.115)" fill="#e0dfe1"/><path d="M584.493,320.391l-1.127,1.681-2.237-1.546a19.125,19.125,0,0,1,2.124-3.112l-2.307-1.388" transform="translate(-579.671 -310.169)" fill="none" stroke="#3a3b44" stroke-miterlimit="10" stroke-width="0.097"/><path d="M578.224,317.944c1.008.639,2.084,1.438,3.072,2.131" transform="translate(-572.291 -309.14)" fill="none" stroke="#3a3b44" stroke-miterlimit="10" stroke-width="0.097"/><path d="M577.035,317.222c2.9-1.528,10.458-5.007,10.458-5.007-.609,3.178-.974,7.049-1.474,10.245" transform="translate(-576.66 -312.215)" fill="none" stroke="#3a3b44" stroke-miterlimit="10" stroke-width="0.097"/></g><g transform="translate(89.003 199.7)"><g transform="translate(0 0)"><g transform="translate(0)"><path d="M603.113,287.627c-4.423-5.749-11.857-8-17.531-3.37s-5.8,12.217-1.165,17.891,12.277,7.289,17.949,2.654S607.58,293.434,603.113,287.627Zm-.834,15.017c-4.275,4.122-11.384,1.69-15.14-2.908s-3.873-10.508.725-14.266,10.427-2,14.184,2.6S606.466,298.6,602.279,302.644Z" transform="translate(-581.118 -281.77)" fill="#aaa"/></g><path d="M599.936,302.065c4.154-4.045,3.487-10-.254-14.616s-9.531-6.39-14.094-2.631c0,0,8.312-3.839,13.531,4.059C604.632,297.22,599.936,302.065,599.936,302.065Z" transform="translate(-578.719 -281.227)" fill="#858585"/><path d="M586.35,300.622c7.184,9.386,16.016,3.415,16.016,3.415-5.672,4.635-13.314,3.018-17.949-2.654s-4.507-13.256,1.165-17.891l.711-.3s-8.383,5.766-1.028,16.151Z" transform="translate(-581.118 -281.005)" fill="#858585"/><path d="M607.655,312.18h0a2.236,2.236,0,0,1-3.147-.317L593.672,298.3c-.782-.957.819-.7,1.775-1.481l.424-.549c.957-.782.482-1.756,1.265-.8l10.835,13.566A2.235,2.235,0,0,1,607.655,312.18Z" transform="translate(-574.493 -274.631)" fill="#aaa"/><path d="M593.8,297.578l10.527,13.187a2.235,2.235,0,0,0,3.147.317s-.92.67-1.978-.77-10.023-12.551-10.023-12.551-.28-.891-.865-.578h0Z" transform="translate(-574.312 -273.533)" fill="#858585"/></g><path d="M586.723,284.857c-4.627,3.78-4.51,9.726-.73,14.355s10.235,6.946,14.862,3.166,3.916-10.276.137-14.9S591.349,281.075,586.723,284.857Z" transform="translate(-580.001 -281.216)" fill="#e2ffff" opacity="0.42"/><path d="M597.5,299.577c1.772-2,2.175-6.554.386-9.87a13.977,13.977,0,0,0-5.154-5.7" transform="translate(-574.886 -280.567)" fill="none" stroke="#000" stroke-miterlimit="10" stroke-width="0.049"/><path d="M589.071,285.271a6.878,6.878,0,0,1,5.359,3.471,11.91,11.91,0,0,1,1.451,6.4" transform="translate(-576.85 -279.891)" fill="none" stroke="#fff" stroke-miterlimit="10" stroke-width="0.424"/><path d="M594.117,297.746a4.607,4.607,0,0,0,1.441-1.125" transform="translate(-574.142 -273.799)" fill="none" stroke="#000" stroke-miterlimit="10" stroke-width="0.049"/><path d="M600.921,305.052c.578.7.8.971,1.36,1.684a.711.711,0,0,0,.854.149" transform="translate(-570.49 -269.273)" fill="none" stroke="#000" stroke-miterlimit="10" stroke-width="0.049"/><path d="M596.68,299.7c.512.621,5.228,6.68,5.744,7.3" transform="translate(-572.766 -272.146)" fill="none" stroke="#000" stroke-miterlimit="10" stroke-width="0.049"/><path d="M594.7,297.2c.755,1.054,1.584,2.055,2.4,3.058" transform="translate(-573.831 -273.488)" fill="none" stroke="#000" stroke-miterlimit="10" stroke-width="0.049"/><path d="M581.866,290.471a8.313,8.313,0,0,1,.241-3.192" transform="translate(-580.748 -278.813)" fill="none" stroke="#000" stroke-miterlimit="10" stroke-width="0.049"/><path d="M582.219,288.368a9.228,9.228,0,0,1,4.681-5.644" transform="translate(-580.528 -281.258)" fill="none" stroke="#000" stroke-miterlimit="10" stroke-width="0.049"/><path d="M583.078,292.355c1.921,5.452,9.68,9.906,14.653,8.294" transform="translate(-580.067 -276.088)" fill="none" stroke="#000" stroke-miterlimit="10" stroke-width="0.049"/><path d="M591.322,282.343a16.628,16.628,0,0,1,7.51,6.691" transform="translate(-575.642 -281.462)" fill="none" stroke="#000" stroke-miterlimit="10" stroke-width="0.049"/><path d="M596.163,295.619" transform="translate(-573.044 -274.336)" fill="none" stroke="#000" stroke-miterlimit="10" stroke-width="0.049"/><path d="M596.224,299.371c1.52-2.016,3.557-5.337,1.355-10.972" transform="translate(-573.011 -278.212)" fill="none" stroke="#000" stroke-miterlimit="10" stroke-width="0.049"/><path d="M585.231,299.157a13.982,13.982,0,0,1-4.079-10.307" transform="translate(-581.109 -277.97)" fill="none" stroke="#000" stroke-miterlimit="10" stroke-width="0.049"/><path d="M581.269,289.572a18.208,18.208,0,0,1,1.626-4.284" transform="translate(-581.038 -279.882)" fill="none" stroke="#000" stroke-miterlimit="10" stroke-width="0.049"/><path d="M584.936,296.682a12.051,12.051,0,0,0,10.71,2.511" transform="translate(-579.07 -273.766)" fill="none" stroke="#000" stroke-miterlimit="10" stroke-width="0.049"/><path d="M584.334,296.093l.281.241" transform="translate(-579.393 -274.082)" fill="none" stroke="#000" stroke-miterlimit="10" stroke-width="0.049"/></g><g transform="translate(464.426 299.651)"><rect width="68.641" height="15.989" rx="5.202" transform="translate(0.236)" fill="#faf5f7"/><text transform="translate(30.451 8.249)" fill="#6c6c6c" stroke="#6c6c6c" stroke-miterlimit="10" stroke-width="0.261" font-size="7" font-family="SegoeUI, Segoe UI" letter-spacing="-0.025em"><tspan x="-14.52" y="0">#business</tspan></text><path d="M316.5,356.91c-3.96,0-8.953-3.123-7.954-8.864.278-1.6,1.511-2.86,2.506-4.138a1.58,1.58,0,0,1,1.045-.753" transform="translate(-308.413 -341.074)" fill="none" stroke="#000" stroke-miterlimit="10" stroke-width="0.095"/><path d="M312.574,342.315A15.623,15.623,0,0,1,317.79,342" transform="translate(-306.179 -341.742)" fill="none" stroke="#000" stroke-miterlimit="10" stroke-width="0.095"/><path d="M318.137,342.07c1.524.089,47.551-.063,49.076.028" transform="translate(-303.193 -341.658)" fill="none" stroke="#000" stroke-miterlimit="10" stroke-width="0.095"/><path d="M346.118,353.849a28.088,28.088,0,0,0,6.072-.744c1.947-.618,3.8-2.121,4.06-4.148" transform="translate(-288.175 -337.959)" fill="none" stroke="#000" stroke-miterlimit="10" stroke-width="0.095"/><path d="M354.009,349.043a8.123,8.123,0,0,0-1.938-5.575" transform="translate(-284.98 -340.906)" fill="none" stroke="#000" stroke-miterlimit="10" stroke-width="0.095"/><path d="M358.807,351.969H315.97" transform="translate(-304.357 -336.343)" fill="none" stroke="#000" stroke-miterlimit="10" stroke-width="0.095"/></g></g></svg>