<svg xmlns="http://www.w3.org/2000/svg" width="44.007" height="50.084" viewBox="0 0 44.007 50.084"><g transform="translate(-3.882)"><path d="M42.427,9.769a.5.5,0,0,0-.441-.412c-.176-.029-4.046-.294-4.046-.294l-2.95-2.95c-.266-.294-.855-.208-1.077-.147-.029,0-.588.176-1.5.473-.89-2.575-2.465-4.935-5.24-4.935h-.237A3.43,3.43,0,0,0,24.341,0C17.88.029,14.8,8.086,13.828,12.2L9.313,13.588c-1.385.441-1.436.473-1.622,1.794L3.882,44.743,32.42,50.084,47.886,46.75c0-.029-5.431-36.7-5.459-36.98Zm-11.6-2.836c-.718.237-1.536.473-2.418.74V7.141a11.762,11.762,0,0,0-.588-3.912c1.446.222,2.418,1.844,3.007,3.7ZM26.078,3.57A12.3,12.3,0,0,1,26.724,7.9v.266L21.735,9.7c.977-3.647,2.778-5.448,4.343-6.127ZM24.16,1.776a1.518,1.518,0,0,1,.826.265C22.9,3.01,20.7,5.458,19.76,10.357l-3.948,1.21c1.114-3.718,3.712-9.8,8.346-9.8Z" transform="translate(0 0)" fill="#95bf47"/><path d="M49.914,11.007c-.176-.029-4.045-.294-4.045-.294l-2.95-2.95a.589.589,0,0,0-.412-.176L40.354,51.734,55.816,48.4,50.355,11.449a.532.532,0,0,0-.441-.441Z" transform="translate(-7.927 -1.651)" fill="#5e8e3e"/><path d="M29.033,22.674l-1.92,5.666a8.889,8.889,0,0,0-3.718-.886c-3.011,0-3.158,1.887-3.158,2.361,0,2.58,6.757,3.571,6.757,9.649,0,4.78-3.04,7.847-7.12,7.847a9.916,9.916,0,0,1-7.407-3.04l1.3-4.342s2.566,2.214,4.751,2.214A1.932,1.932,0,0,0,20.527,40.2c0-3.4-5.547-3.542-5.547-9.09,0-4.665,3.363-9.209,10.119-9.209a8.677,8.677,0,0,1,3.926.775Z" transform="translate(-1.866 -4.758)" fill="#fff"/></g></svg>