<svg xmlns="http://www.w3.org/2000/svg" width="51.367" height="30.576" viewBox="0 0 51.367 30.576"><g transform="translate(0)"><path d="M4.767,0H46.579a4.786,4.786,0,0,1,4.788,4.788v15.96a4.786,4.786,0,0,1-4.788,4.788H31.585l2.058,5.04-9.051-5.04H4.788A4.786,4.786,0,0,1,0,20.748V4.788A4.768,4.768,0,0,1,4.767,0Z" transform="translate(0)" fill="#9b5c8f"/><path d="M13.146,15.663a1.673,1.673,0,0,1,1.314-.653,1.528,1.528,0,0,1,1.815,1.517q.97,6.6,2.107,11.187l4.568-8.785a1.983,1.983,0,0,1,1.565-1.264c.918-.063,1.481.527,1.71,1.77a39.677,39.677,0,0,0,1.982,7.205q.814-8.027,2.754-11.587a1.6,1.6,0,0,1,1.377-.927,1.8,1.8,0,0,1,1.314.422,1.655,1.655,0,0,1,.647,1.2,1.845,1.845,0,0,1-.208,1.011,25.7,25.7,0,0,0-2.024,7.606,39.637,39.637,0,0,0-.584,8.027,2.522,2.522,0,0,1-.25,1.39,1.345,1.345,0,0,1-1.106.758,2.088,2.088,0,0,1-1.648-.779q-2.91-3-4.61-8.975-2.034,4.045-3,6.067c-1.231,2.381-2.274,3.6-3.15,3.666-.563.042-1.043-.443-1.46-1.454q-1.6-4.14-3.442-15.991a1.807,1.807,0,0,1,.334-1.411ZM57.974,18.97a4.808,4.808,0,0,0-3.338-2.444A5.427,5.427,0,0,0,53.51,16.4c-2,0-3.63,1.053-4.9,3.16A11.246,11.246,0,0,0,46.981,25.5a8.223,8.223,0,0,0,1,4.172,4.807,4.807,0,0,0,3.338,2.444,5.413,5.413,0,0,0,1.127.127c2.023,0,3.65-1.053,4.9-3.16a11.376,11.376,0,0,0,1.627-5.962A7.836,7.836,0,0,0,57.974,18.97Zm-2.628,5.836a5.591,5.591,0,0,1-1.586,3.118,1.994,1.994,0,0,1-1.689.674c-.5-.105-.918-.548-1.231-1.369a5.388,5.388,0,0,1-.375-1.917,7.4,7.4,0,0,1,.146-1.538,6.849,6.849,0,0,1,1.105-2.507c.689-1.033,1.419-1.454,2.169-1.306.5.105.918.548,1.231,1.369a5.393,5.393,0,0,1,.375,1.917,7.465,7.465,0,0,1-.146,1.559ZM44.916,18.97a4.851,4.851,0,0,0-3.338-2.444,5.426,5.426,0,0,0-1.127-.126c-2,0-3.63,1.053-4.9,3.16A11.248,11.248,0,0,0,33.923,25.5a8.223,8.223,0,0,0,1,4.172,4.807,4.807,0,0,0,3.338,2.444,5.415,5.415,0,0,0,1.127.127c2.023,0,3.65-1.053,4.9-3.16a11.374,11.374,0,0,0,1.627-5.962,8.035,8.035,0,0,0-1-4.15Zm-2.649,5.836a5.592,5.592,0,0,1-1.585,3.118,2,2,0,0,1-1.69.674c-.5-.105-.918-.548-1.231-1.369a5.4,5.4,0,0,1-.375-1.917,7.4,7.4,0,0,1,.146-1.538,6.846,6.846,0,0,1,1.106-2.507c.688-1.033,1.418-1.454,2.169-1.306.5.105.918.548,1.231,1.369a5.388,5.388,0,0,1,.375,1.917,6.275,6.275,0,0,1-.146,1.559Z" transform="translate(-10.198 -11.259)" fill="#fff"/></g></svg>