<svg xmlns="http://www.w3.org/2000/svg" xmlns:xlink="http://www.w3.org/1999/xlink" width="492.641" height="377.364" viewBox="0 0 492.641 377.364">
  <defs>
    <linearGradient id="linear-gradient" x1="0.5" y1="1.121" x2="0.5" y2="-4.857" gradientUnits="objectBoundingBox">
      <stop offset="0" stop-color="#256aba"/>
      <stop offset="1" stop-color="#5ca5f7"/>
    </linearGradient>
    <linearGradient id="linear-gradient-2" x1="-0.194" y1="-0.007" x2="2.036" y2="1.621" gradientUnits="objectBoundingBox">
      <stop offset="0" stop-color="#71d2f9"/>
      <stop offset="1" stop-color="#51b9f8"/>
    </linearGradient>
    <linearGradient id="linear-gradient-3" x1="-0.823" y1="-0.465" x2="1.408" y2="1.163" xlink:href="#linear-gradient-2"/>
    <linearGradient id="linear-gradient-4" x1="4.204" y1="0.5" x2="-8.815" y2="0.5" gradientUnits="objectBoundingBox">
      <stop offset="0" stop-color="#cbe1f2"/>
      <stop offset="1" stop-color="#aed2ed"/>
    </linearGradient>
    <linearGradient id="linear-gradient-5" x1="1.237" y1="0.5" x2="-9.178" y2="0.5" xlink:href="#linear-gradient-4"/>
    <linearGradient id="linear-gradient-6" x1="0.5" y1="-0.166" x2="0.5" y2="1.135" xlink:href="#linear-gradient-2"/>
    <linearGradient id="linear-gradient-7" x1="0.5" y1="2.24" x2="0.5" y2="-3.738" xlink:href="#linear-gradient"/>
    <linearGradient id="linear-gradient-8" x1="1.268" y1="1.303" x2="-0.306" y2="-0.343" xlink:href="#linear-gradient-4"/>
    <linearGradient id="linear-gradient-9" x1="0.5" y1="-0.336" x2="0.5" y2="1.078" xlink:href="#linear-gradient-2"/>
    <linearGradient id="linear-gradient-11" x1="0.5" y1="3.359" x2="0.5" y2="-2.619" xlink:href="#linear-gradient"/>
    <linearGradient id="linear-gradient-12" x1="-0.095" y1="0.5" x2="3.052" y2="0.5" xlink:href="#linear-gradient-4"/>
    <linearGradient id="linear-gradient-13" x1="0" y1="0.5" x2="1" y2="0.5" xlink:href="#linear-gradient-2"/>
    <linearGradient id="linear-gradient-15" x1="1.938" y1="1.712" x2="-1.337" y2="-1.048" xlink:href="#linear-gradient-4"/>
    <linearGradient id="linear-gradient-17" x1="0.5" y1="4.477" x2="0.5" y2="-1.501" xlink:href="#linear-gradient"/>
    <linearGradient id="linear-gradient-18" x1="-0.095" y1="0.5" x2="3.052" y2="0.5" xlink:href="#linear-gradient-2"/>
    <linearGradient id="linear-gradient-19" x1="3.168" y1="2.035" x2="-0.733" y2="-0.209" xlink:href="#linear-gradient-4"/>
    <linearGradient id="linear-gradient-20" x1="2.143" y1="1.446" x2="-1.758" y2="-0.799" xlink:href="#linear-gradient-4"/>
    <linearGradient id="linear-gradient-22" x1="0.5" y1="5.596" x2="0.5" y2="-0.382" xlink:href="#linear-gradient"/>
    <linearGradient id="linear-gradient-23" x1="0.5" y1="-0.336" x2="0.5" y2="1.078" xlink:href="#linear-gradient-2"/>
    <linearGradient id="linear-gradient-25" x1="0.468" y1="-0.18" x2="0.52" y2="1.095" gradientUnits="objectBoundingBox">
      <stop offset="0" stop-color="#1a2f79"/>
      <stop offset="1" stop-color="#160545"/>
    </linearGradient>
    <linearGradient id="linear-gradient-26" x1="0.5" y1="0.065" x2="0.5" y2="1.456" xlink:href="#linear-gradient-25"/>
    <linearGradient id="linear-gradient-27" x1="0.5" y1="0.065" x2="0.5" y2="1.456" gradientUnits="objectBoundingBox">
      <stop offset="0" stop-color="#f4cfb3"/>
      <stop offset="1" stop-color="#f2bb9b"/>
    </linearGradient>
    <linearGradient id="linear-gradient-28" x1="0.5" y1="-0.018" x2="0.5" y2="0.971" xlink:href="#linear-gradient-27"/>
    <linearGradient id="linear-gradient-30" x1="0.5" y1="-0.608" x2="0.5" y2="2.098" gradientUnits="objectBoundingBox">
      <stop offset="0" stop-color="#283770"/>
      <stop offset="1" stop-color="#141a5a"/>
    </linearGradient>
    <linearGradient id="linear-gradient-31" x1="0.48" y1="-0.246" x2="0.523" y2="1.118" xlink:href="#linear-gradient-27"/>
    <linearGradient id="linear-gradient-32" x1="0.5" y1="-0.043" x2="0.5" y2="0.873" xlink:href="#linear-gradient-25"/>
    <linearGradient id="linear-gradient-33" x1="0.5" y1="-0.193" x2="0.5" y2="2.157" gradientUnits="objectBoundingBox">
      <stop offset="0" stop-color="#6ec4f7"/>
      <stop offset="1" stop-color="#398ef6"/>
    </linearGradient>
    <linearGradient id="linear-gradient-34" x1="0.5" y1="0.127" x2="0.5" y2="1.272" xlink:href="#linear-gradient-33"/>
    <linearGradient id="linear-gradient-35" x1="0.5" y1="0.008" x2="0.5" y2="0.888" xlink:href="#linear-gradient-33"/>
    <linearGradient id="linear-gradient-36" x1="-6.386" y1="-0.321" x2="-6.859" y2="1.254" xlink:href="#linear-gradient-27"/>
    <linearGradient id="linear-gradient-37" x1="-276.171" y1="-0.21" x2="-274.465" y2="1.367" xlink:href="#linear-gradient-27"/>
    <linearGradient id="linear-gradient-38" x1="-4.003" y1="0.44" x2="-4.299" y2="1.484" xlink:href="#linear-gradient-27"/>
    <linearGradient id="linear-gradient-39" x1="-21.031" y1="0.248" x2="-22.451" y2="4.091" xlink:href="#linear-gradient-27"/>
    <linearGradient id="linear-gradient-40" x1="0.5" y1="-0.475" x2="0.5" y2="2.443" xlink:href="#linear-gradient-33"/>
    <linearGradient id="linear-gradient-41" x1="-1.297" y1="1.271" x2="0.152" y2="2.149" xlink:href="#linear-gradient-27"/>
    <linearGradient id="linear-gradient-43" x1="-1.619" y1="-1.871" x2="0.118" y2="-0.191" xlink:href="#linear-gradient-27"/>
    <linearGradient id="linear-gradient-44" x1="-119.151" y1="-0.086" x2="-119.384" y2="1.05" xlink:href="#linear-gradient-27"/>
    <linearGradient id="linear-gradient-45" x1="0.5" y1="-0.475" x2="0.5" y2="2.443" xlink:href="#linear-gradient-33"/>
    <linearGradient id="linear-gradient-46" x1="0.5" y1="-0.185" x2="0.5" y2="0.333" gradientUnits="objectBoundingBox">
      <stop offset="0" stop-color="#8bbdf2"/>
      <stop offset="1" stop-color="#92c2e8"/>
    </linearGradient>
    <linearGradient id="linear-gradient-47" x1="0.5" y1="0.092" x2="0.5" y2="0.869" xlink:href="#linear-gradient-4"/>
    <linearGradient id="linear-gradient-48" x1="-0.358" y1="-0.804" x2="1.64" y2="2.232" xlink:href="#linear-gradient-4"/>
    <linearGradient id="linear-gradient-49" x1="0.5" y1="0.974" x2="0.5" y2="0.156" xlink:href="#linear-gradient-46"/>
    <linearGradient id="linear-gradient-50" x1="-15.973" y1="1" x2="-15.973" y2="0.038" gradientUnits="objectBoundingBox">
      <stop offset="0" stop-color="#dfedf2"/>
      <stop offset="1" stop-color="#e8f8ff"/>
    </linearGradient>
    <linearGradient id="linear-gradient-51" x1="0.004" y1="-0.008" x2="0.972" y2="0.983" xlink:href="#linear-gradient-2"/>
    <linearGradient id="linear-gradient-55" x1="-123.737" y1="14.139" x2="-122.252" y2="23.315" xlink:href="#linear-gradient-2"/>
    <linearGradient id="linear-gradient-56" x1="-123.795" y1="13.769" x2="-122.31" y2="22.936" xlink:href="#linear-gradient-2"/>
    <linearGradient id="linear-gradient-57" x1="-123.857" y1="13.412" x2="-122.372" y2="22.579" xlink:href="#linear-gradient-2"/>
    <linearGradient id="linear-gradient-58" x1="-248.66" y1="14.195" x2="-245.693" y2="23.362" xlink:href="#linear-gradient-2"/>
    <linearGradient id="linear-gradient-59" x1="-86.791" y1="-20.298" x2="-85.756" y2="-12.933" xlink:href="#linear-gradient-2"/>
    <linearGradient id="linear-gradient-60" x1="-86.855" y1="-20.757" x2="-85.82" y2="-13.392" xlink:href="#linear-gradient-2"/>
    <linearGradient id="linear-gradient-61" x1="-86.925" y1="-21.231" x2="-85.89" y2="-13.86" xlink:href="#linear-gradient-2"/>
    <linearGradient id="linear-gradient-62" x1="-174.919" y1="-20.477" x2="-172.851" y2="-13.107" xlink:href="#linear-gradient-2"/>
    <linearGradient id="linear-gradient-63" x1="-126.587" y1="-32.269" x2="-125.026" y2="-21.267" xlink:href="#linear-gradient-2"/>
    <linearGradient id="linear-gradient-64" x1="-126.652" y1="-32.753" x2="-125.091" y2="-21.74" xlink:href="#linear-gradient-2"/>
    <linearGradient id="linear-gradient-65" x1="-254.291" y1="-31.965" x2="-251.172" y2="-20.963" xlink:href="#linear-gradient-2"/>
    <linearGradient id="linear-gradient-66" x1="0" y1="0.5" x2="1" y2="0.5" xlink:href="#linear-gradient-27"/>
    <linearGradient id="linear-gradient-67" x1="0" y1="0.5" x2="1" y2="0.5" xlink:href="#linear-gradient-25"/>
    <linearGradient id="linear-gradient-70" x1="0.5" y1="1" x2="0.5" y2="0.038" xlink:href="#linear-gradient-30"/>
    <linearGradient id="linear-gradient-71" x1="0.498" y1="0.205" x2="0.509" y2="0.94" xlink:href="#linear-gradient-27"/>
    <linearGradient id="linear-gradient-73" x1="0.5" y1="-0.798" x2="0.5" y2="2.394" gradientUnits="objectBoundingBox">
      <stop offset="0" stop-color="#49a5f7"/>
      <stop offset="1" stop-color="#1c6ceb"/>
    </linearGradient>
    <linearGradient id="linear-gradient-74" x1="0.5" y1="-0.798" x2="0.5" y2="2.394" xlink:href="#linear-gradient-33"/>
    <linearGradient id="linear-gradient-75" x1="0.5" y1="-0.078" x2="0.5" y2="0.788" xlink:href="#linear-gradient-73"/>
    <linearGradient id="linear-gradient-76" x1="0.5" y1="-0.608" x2="0.5" y2="2.098" xlink:href="#linear-gradient-33"/>
    <linearGradient id="linear-gradient-77" x1="0.647" y1="-0.084" x2="0.57" y2="0.387" gradientUnits="objectBoundingBox">
      <stop offset="0" stop-color="#f4cfb3"/>
      <stop offset="1" stop-color="#f2b091"/>
    </linearGradient>
    <linearGradient id="linear-gradient-79" x1="0.5" y1="-0.608" x2="0.5" y2="2.098" xlink:href="#linear-gradient-73"/>
    <linearGradient id="linear-gradient-80" x1="0.471" y1="-0.831" x2="0.528" y2="1.818" xlink:href="#linear-gradient-27"/>
    <linearGradient id="linear-gradient-81" x1="0" y1="0.5" x2="1" y2="0.5" xlink:href="#linear-gradient-30"/>
    <linearGradient id="linear-gradient-82" x1="-143.325" y1="0.5" x2="-142.325" y2="0.5" xlink:href="#linear-gradient-27"/>
    <linearGradient id="linear-gradient-83" x1="-120.163" y1="-4.3" x2="-119.237" y2="-4.3" xlink:href="#linear-gradient-27"/>
    <linearGradient id="linear-gradient-84" x1="-67.936" y1="0.5" x2="-66.936" y2="0.5" xlink:href="#linear-gradient-25"/>
    <linearGradient id="linear-gradient-85" x1="-61.477" y1="-5.039" x2="-61.569" y2="-3.215" xlink:href="#linear-gradient-27"/>
    <linearGradient id="linear-gradient-86" x1="-68.76" y1="-3.326" x2="-68.76" y2="-1.538" xlink:href="#linear-gradient-73"/>
    <linearGradient id="linear-gradient-87" x1="0.5" y1="-0.077" x2="0.5" y2="1.652" xlink:href="#linear-gradient-33"/>
    <linearGradient id="linear-gradient-88" x1="0.5" y1="0.965" x2="0.5" y2="-0.276" xlink:href="#linear-gradient-30"/>
    <linearGradient id="linear-gradient-90" x1="0.5" y1="0.028" x2="0.5" y2="0.923" xlink:href="#linear-gradient-73"/>
    <linearGradient id="linear-gradient-92" x1="-104.291" y1="-0.618" x2="-103.609" y2="0.822" xlink:href="#linear-gradient-27"/>
    <linearGradient id="linear-gradient-93" x1="-192.927" y1="0.5" x2="-191.927" y2="0.5" xlink:href="#linear-gradient-27"/>
    <linearGradient id="linear-gradient-94" x1="-70.602" y1="3.087" x2="-70.14" y2="4.136" xlink:href="#linear-gradient-27"/>
    <linearGradient id="linear-gradient-95" x1="-359.583" y1="10.065" x2="-357.231" y2="14.177" xlink:href="#linear-gradient-27"/>
    <linearGradient id="linear-gradient-96" x1="-39.748" y1="-0.228" x2="-38.916" y2="1.294" gradientUnits="objectBoundingBox">
      <stop offset="0" stop-color="#6ec4f7"/>
      <stop offset="1" stop-color="#489ff6"/>
    </linearGradient>
    <linearGradient id="linear-gradient-97" x1="-1.08" y1="0.005" x2="1.254" y2="0.995" xlink:href="#linear-gradient-27"/>
    <linearGradient id="linear-gradient-98" x1="-71.511" y1="-0.077" x2="-71.511" y2="1.652" xlink:href="#linear-gradient-73"/>
    <linearGradient id="linear-gradient-99" x1="3.547" y1="11.774" x2="-0.72" y2="10.733" xlink:href="#linear-gradient-96"/>
    <linearGradient id="linear-gradient-100" x1="0.728" y1="21.583" x2="-0.507" y2="19.592" xlink:href="#linear-gradient-96"/>
    <linearGradient id="linear-gradient-101" x1="1.592" y1="40.773" x2="-1.27" y2="37" xlink:href="#linear-gradient-96"/>
    <linearGradient id="linear-gradient-102" x1="0.474" y1="34.328" x2="-1.814" y2="31.104" xlink:href="#linear-gradient-96"/>
    <linearGradient id="linear-gradient-103" x1="1.202" y1="34.156" x2="-1.028" y2="30.994" xlink:href="#linear-gradient-96"/>
    <linearGradient id="linear-gradient-104" x1="0.551" y1="-0.068" x2="0.433" y2="1.04" xlink:href="#linear-gradient-27"/>
    <linearGradient id="linear-gradient-105" x1="0.299" y1="0.219" x2="1.506" y2="1.905" xlink:href="#linear-gradient-2"/>
    <linearGradient id="linear-gradient-106" x1="1.429" y1="1.817" x2="-0.071" y2="0.083" xlink:href="#linear-gradient-4"/>
    <linearGradient id="linear-gradient-107" x1="1.271" y1="1.241" x2="-0.166" y2="0.059" xlink:href="#linear-gradient-4"/>
    <linearGradient id="linear-gradient-108" x1="3.623" y1="3.031" x2="0.161" y2="0.225" xlink:href="#linear-gradient-4"/>
    <linearGradient id="linear-gradient-109" x1="0.5" y1="-0.009" x2="0.5" y2="0.922" xlink:href="#linear-gradient-4"/>
    <linearGradient id="linear-gradient-110" x1="0.5" y1="-0.212" x2="0.5" y2="0.838" xlink:href="#linear-gradient-2"/>
  </defs>
  <g id="Group_10522" data-name="Group 10522" transform="translate(-722.135 -77.186)">
    <g id="Group_10521" data-name="Group 10521" transform="translate(706.364 150.131)">
      <g id="Group_10471" data-name="Group 10471" transform="translate(43.37 159.497)">
        <path id="Path_18576" data-name="Path 18576" d="M759.656,318.655a3.732,3.732,0,1,1-3.732-3.732A3.733,3.733,0,0,1,759.656,318.655Z" transform="translate(-752.192 -314.923)" fill="#0b262a" opacity="0.2"/>
        <path id="Path_18577" data-name="Path 18577" d="M865.7,371.288a3.732,3.732,0,1,1-3.732-3.732A3.732,3.732,0,0,1,865.7,371.288Z" transform="translate(-757.879 -317.745)" fill="#0b262a" opacity="0.2"/>
      </g>
      <g id="Group_10472" data-name="Group 10472" transform="translate(245.057 150.443)">
        <path id="Path_18578" data-name="Path 18578" d="M1186.515,278.837h9.4a5.19,5.19,0,0,1,5.19,5.19V432.312" transform="translate(-977.17 -278.837)" fill="none" stroke="#0b262a" stroke-width="1"/>
        <path id="Path_18579" data-name="Path 18579" d="M1186.515,314.573h9.4a5.19,5.19,0,0,1,5.19,5.19V434.229" transform="translate(-977.17 -280.753)" fill="none" stroke="#0b262a" stroke-width="1"/>
        <path id="Path_18580" data-name="Path 18580" d="M1186.515,350.309h9.4a5.19,5.19,0,0,1,5.19,5.19v80.646" transform="translate(-977.17 -282.67)" fill="none" stroke="#0b262a" stroke-width="1"/>
        <path id="Path_18581" data-name="Path 18581" d="M1186.515,386.045h9.4a5.19,5.19,0,0,1,5.19,5.19v46.827" transform="translate(-977.17 -284.586)" fill="none" stroke="#0b262a" stroke-width="1"/>
        <path id="Path_18582" data-name="Path 18582" d="M1186.515,421.781h9.4a5.19,5.19,0,0,1,5.19,5.19v13.007" transform="translate(-977.17 -286.502)" fill="none" stroke="#0b262a" stroke-width="1"/>
        <line id="Line_95" data-name="Line 95" y2="111.438" transform="translate(0 41.938)" fill="none" stroke="#fff" stroke-width="1"/>
      </g>
      <g id="Group_10478" data-name="Group 10478" transform="translate(173.771 -26.375) rotate(-45)">
        <path id="Path_18583" data-name="Path 18583" d="M1126.522,217.929a4.658,4.658,0,1,1,0-6.587A4.658,4.658,0,0,1,1126.522,217.929Z" transform="translate(-1118.571 -193.553)" fill="#ccdfe1"/>
        <g id="Group_10477" data-name="Group 10477" transform="translate(1.589)">
          <g id="Group_10473" data-name="Group 10473" transform="translate(0 11.534)">
            <path id="Path_18584" data-name="Path 18584" d="M1120.615,207.144a1.247,1.247,0,0,1,.609-2.1,9.543,9.543,0,0,1,11.408,11.408,1.248,1.248,0,0,1-2.435-.545,7.048,7.048,0,0,0-8.426-8.428A1.246,1.246,0,0,1,1120.615,207.144Z" transform="translate(-1120.25 -204.809)" fill="#ccdfe1"/>
          </g>
          <g id="Group_10474" data-name="Group 10474" transform="translate(0.527 7.689)">
            <path id="Path_18585" data-name="Path 18585" d="M1121.172,202.946a1.247,1.247,0,0,1,.75-2.122,13.391,13.391,0,0,1,14.744,14.744,1.248,1.248,0,0,1-2.481-.264,10.894,10.894,0,0,0-12-12A1.245,1.245,0,0,1,1121.172,202.946Z" transform="translate(-1120.807 -200.747)" fill="#ccdfe1"/>
          </g>
          <g id="Group_10475" data-name="Group 10475" transform="translate(1.041 3.845)">
            <path id="Path_18586" data-name="Path 18586" d="M1138.469,215.586a1.245,1.245,0,0,1-.363-.943,14.743,14.743,0,0,0-15.447-15.447,1.247,1.247,0,1,1-.121-2.492,17.237,17.237,0,0,1,18.06,18.06,1.248,1.248,0,0,1-2.128.821Z" transform="translate(-1121.35 -196.685)" fill="#ccdfe1"/>
          </g>
          <g id="Group_10476" data-name="Group 10476" transform="translate(1.551)">
            <path id="Path_18587" data-name="Path 18587" d="M1142.359,214.859a1.244,1.244,0,0,1-.365-.9,18.588,18.588,0,0,0-18.841-18.84,1.248,1.248,0,0,1-.034-2.5,21.083,21.083,0,0,1,21.369,21.37,1.247,1.247,0,0,1-2.129.865Z" transform="translate(-1121.889 -192.622)" fill="#ccdfe1"/>
          </g>
          <path id="Path_18588" data-name="Path 18588" d="M1126.19,217.6" transform="translate(-1120.569 -193.961)" fill="#ccdfe1"/>
        </g>
      </g>
      <g id="Group_10494" data-name="Group 10494" transform="translate(299.165 135.428)">
        <g id="Group_10481" data-name="Group 10481" transform="translate(0 134.409)">
          <g id="Group_10480" data-name="Group 10480">
            <rect id="Rectangle_972" data-name="Rectangle 972" width="151.568" height="30.03" rx="8.84" fill="url(#linear-gradient)"/>
            <g id="Group_10479" data-name="Group 10479" transform="translate(7.407 6.68)">
              <rect id="Rectangle_973" data-name="Rectangle 973" width="12.019" height="16.67" rx="1.293" fill="url(#linear-gradient-2)"/>
              <rect id="Rectangle_974" data-name="Rectangle 974" width="12.019" height="16.67" rx="1.293" transform="translate(15.281)" fill="url(#linear-gradient-3)"/>
              <rect id="Rectangle_975" data-name="Rectangle 975" width="68.408" height="16.67" rx="1.293" transform="translate(30.561)" fill="#fff"/>
              <path id="Path_18589" data-name="Path 18589" d="M1147.988,420.647a4.286,4.286,0,1,1-4.286-4.286A4.286,4.286,0,0,1,1147.988,420.647Z" transform="translate(-1036.159 -412.286)" fill="url(#linear-gradient-4)"/>
              <path id="Path_18590" data-name="Path 18590" d="M1160.344,420.647a4.286,4.286,0,1,1-4.286-4.286A4.286,4.286,0,0,1,1160.344,420.647Z" transform="translate(-1036.821 -412.286)" fill="#fff"/>
              <rect id="Rectangle_976" data-name="Rectangle 976" width="10.715" height="3.727" rx="0.855" transform="translate(126.039 6.471)" fill="url(#linear-gradient-5)"/>
            </g>
          </g>
          <rect id="Rectangle_977" data-name="Rectangle 977" width="10.719" height="3.572" transform="translate(13.417 30.03)" fill="#ccdfe1"/>
          <rect id="Rectangle_978" data-name="Rectangle 978" width="10.719" height="3.572" transform="translate(128.086 30.03)" fill="#ccdfe1"/>
          <path id="Rectangle_979" data-name="Rectangle 979" d="M0,0H2.14A1.53,1.53,0,0,1,3.67,1.53V6.2a1.53,1.53,0,0,1-1.53,1.53H0a0,0,0,0,1,0,0V0A0,0,0,0,1,0,0Z" transform="translate(151.568 11.148)" fill="url(#linear-gradient-6)"/>
        </g>
        <g id="Group_10484" data-name="Group 10484" transform="translate(0 100.807)">
          <g id="Group_10483" data-name="Group 10483">
            <rect id="Rectangle_980" data-name="Rectangle 980" width="151.568" height="30.03" rx="8.84" fill="url(#linear-gradient-7)"/>
            <g id="Group_10482" data-name="Group 10482" transform="translate(7.407 6.68)">
              <rect id="Rectangle_981" data-name="Rectangle 981" width="12.019" height="16.67" rx="1.293" fill="url(#linear-gradient-8)"/>
              <rect id="Rectangle_982" data-name="Rectangle 982" width="12.019" height="16.67" rx="1.293" transform="translate(15.281)" fill="#fff"/>
              <rect id="Rectangle_983" data-name="Rectangle 983" width="68.408" height="16.67" rx="1.293" transform="translate(30.561)" fill="#fff"/>
              <path id="Path_18591" data-name="Path 18591" d="M1147.988,385.14a4.286,4.286,0,1,1-4.286-4.286A4.286,4.286,0,0,1,1147.988,385.14Z" transform="translate(-1036.159 -376.78)" fill="url(#linear-gradient-9)"/>
              <path id="Path_18592" data-name="Path 18592" d="M1160.344,385.14a4.286,4.286,0,1,1-4.286-4.286A4.286,4.286,0,0,1,1160.344,385.14Z" transform="translate(-1036.821 -376.78)" fill="#fff"/>
              <rect id="Rectangle_984" data-name="Rectangle 984" width="10.715" height="3.727" rx="0.855" transform="translate(126.039 6.472)" fill="#fff"/>
            </g>
          </g>
          <rect id="Rectangle_985" data-name="Rectangle 985" width="10.719" height="3.572" transform="translate(13.417 30.03)" fill="#ccdfe1"/>
          <rect id="Rectangle_986" data-name="Rectangle 986" width="10.719" height="3.572" transform="translate(128.086 30.03)" fill="#ccdfe1"/>
          <path id="Rectangle_987" data-name="Rectangle 987" d="M0,0H2.14A1.53,1.53,0,0,1,3.67,1.53V6.2a1.53,1.53,0,0,1-1.53,1.53H0a0,0,0,0,1,0,0V0A0,0,0,0,1,0,0Z" transform="translate(151.568 11.148)" fill="url(#linear-gradient-6)"/>
        </g>
        <g id="Group_10487" data-name="Group 10487" transform="translate(0 67.205)">
          <g id="Group_10486" data-name="Group 10486">
            <rect id="Rectangle_988" data-name="Rectangle 988" width="151.568" height="30.03" rx="8.84" fill="url(#linear-gradient-11)"/>
            <g id="Group_10485" data-name="Group 10485" transform="translate(7.407 6.68)">
              <rect id="Rectangle_989" data-name="Rectangle 989" width="12.019" height="16.671" rx="1.293" fill="url(#linear-gradient-12)"/>
              <rect id="Rectangle_990" data-name="Rectangle 990" width="12.019" height="16.671" rx="1.293" transform="translate(15.281)" fill="url(#linear-gradient-13)"/>
              <rect id="Rectangle_991" data-name="Rectangle 991" width="68.408" height="16.671" rx="1.293" transform="translate(30.561)" fill="#fff"/>
              <path id="Path_18593" data-name="Path 18593" d="M1147.988,349.634a4.286,4.286,0,1,1-4.286-4.286A4.286,4.286,0,0,1,1147.988,349.634Z" transform="translate(-1036.159 -341.273)" fill="url(#linear-gradient-9)"/>
              <path id="Path_18594" data-name="Path 18594" d="M1160.344,349.634a4.286,4.286,0,1,1-4.286-4.286A4.286,4.286,0,0,1,1160.344,349.634Z" transform="translate(-1036.821 -341.273)" fill="url(#linear-gradient-15)"/>
              <rect id="Rectangle_992" data-name="Rectangle 992" width="10.715" height="3.727" rx="0.855" transform="translate(126.039 6.472)" fill="#fff"/>
            </g>
          </g>
          <rect id="Rectangle_993" data-name="Rectangle 993" width="10.719" height="3.572" transform="translate(13.417 30.03)" fill="#ccdfe1"/>
          <rect id="Rectangle_994" data-name="Rectangle 994" width="10.719" height="3.572" transform="translate(128.086 30.03)" fill="#ccdfe1"/>
          <path id="Rectangle_995" data-name="Rectangle 995" d="M0,0H2.14A1.53,1.53,0,0,1,3.67,1.53V6.2a1.53,1.53,0,0,1-1.53,1.53H0a0,0,0,0,1,0,0V0A0,0,0,0,1,0,0Z" transform="translate(151.568 11.148)" fill="url(#linear-gradient-6)"/>
        </g>
        <g id="Group_10490" data-name="Group 10490" transform="translate(0 33.602)">
          <g id="Group_10489" data-name="Group 10489">
            <rect id="Rectangle_996" data-name="Rectangle 996" width="151.568" height="30.03" rx="8.84" fill="url(#linear-gradient-17)"/>
            <g id="Group_10488" data-name="Group 10488" transform="translate(7.407 6.68)">
              <rect id="Rectangle_997" data-name="Rectangle 997" width="12.019" height="16.671" rx="1.293" fill="url(#linear-gradient-18)"/>
              <rect id="Rectangle_998" data-name="Rectangle 998" width="12.019" height="16.671" rx="1.293" transform="translate(15.281)" fill="#fff"/>
              <rect id="Rectangle_999" data-name="Rectangle 999" width="68.408" height="16.671" rx="1.293" transform="translate(30.561)" fill="#fff"/>
              <path id="Path_18595" data-name="Path 18595" d="M1147.988,314.128a4.286,4.286,0,1,1-4.286-4.286A4.286,4.286,0,0,1,1147.988,314.128Z" transform="translate(-1036.159 -305.767)" fill="url(#linear-gradient-19)"/>
              <path id="Path_18596" data-name="Path 18596" d="M1160.344,314.128a4.286,4.286,0,1,1-4.286-4.286A4.286,4.286,0,0,1,1160.344,314.128Z" transform="translate(-1036.821 -305.767)" fill="url(#linear-gradient-20)"/>
              <rect id="Rectangle_1000" data-name="Rectangle 1000" width="10.715" height="3.727" rx="0.855" transform="translate(126.039 6.472)" fill="#fff"/>
            </g>
          </g>
          <rect id="Rectangle_1001" data-name="Rectangle 1001" width="10.719" height="3.572" transform="translate(13.417 30.03)" fill="#ccdfe1"/>
          <rect id="Rectangle_1002" data-name="Rectangle 1002" width="10.719" height="3.572" transform="translate(128.086 30.03)" fill="#ccdfe1"/>
          <path id="Rectangle_1003" data-name="Rectangle 1003" d="M0,0H2.14A1.53,1.53,0,0,1,3.67,1.53V6.2a1.53,1.53,0,0,1-1.53,1.53H0a0,0,0,0,1,0,0V0A0,0,0,0,1,0,0Z" transform="translate(151.568 11.148)" fill="url(#linear-gradient-6)"/>
        </g>
        <g id="Group_10493" data-name="Group 10493">
          <g id="Group_10492" data-name="Group 10492">
            <rect id="Rectangle_1004" data-name="Rectangle 1004" width="151.568" height="30.03" rx="8.84" fill="url(#linear-gradient-22)"/>
            <g id="Group_10491" data-name="Group 10491" transform="translate(7.407 6.68)">
              <rect id="Rectangle_1005" data-name="Rectangle 1005" width="12.019" height="16.671" rx="1.293" fill="#fff"/>
              <rect id="Rectangle_1006" data-name="Rectangle 1006" width="12.019" height="16.671" rx="1.293" transform="translate(15.281)" fill="#fff"/>
              <rect id="Rectangle_1007" data-name="Rectangle 1007" width="68.408" height="16.671" rx="1.293" transform="translate(30.561)" fill="#fff"/>
              <path id="Path_18597" data-name="Path 18597" d="M1147.988,278.621a4.286,4.286,0,1,1-4.286-4.285A4.286,4.286,0,0,1,1147.988,278.621Z" transform="translate(-1036.159 -270.261)" fill="#fff"/>
              <path id="Path_18598" data-name="Path 18598" d="M1160.344,278.621a4.286,4.286,0,1,1-4.286-4.285A4.286,4.286,0,0,1,1160.344,278.621Z" transform="translate(-1036.821 -270.261)" fill="url(#linear-gradient-23)"/>
              <rect id="Rectangle_1008" data-name="Rectangle 1008" width="10.715" height="3.727" rx="0.855" transform="translate(126.039 6.472)" fill="#fff"/>
            </g>
          </g>
          <rect id="Rectangle_1009" data-name="Rectangle 1009" width="10.719" height="3.572" transform="translate(13.417 30.03)" fill="#ccdfe1"/>
          <rect id="Rectangle_1010" data-name="Rectangle 1010" width="10.719" height="3.572" transform="translate(128.086 30.03)" fill="#ccdfe1"/>
          <path id="Rectangle_1011" data-name="Rectangle 1011" d="M0,0H2.14A1.53,1.53,0,0,1,3.67,1.53V6.2a1.53,1.53,0,0,1-1.53,1.53H0a0,0,0,0,1,0,0V0A0,0,0,0,1,0,0Z" transform="translate(151.568 11.148)" fill="url(#linear-gradient-6)"/>
        </g>
      </g>
      <g id="Group_10496" data-name="Group 10496" transform="translate(282.019 42.575)">
        <path id="Path_18599" data-name="Path 18599" d="M1051.261,326.105s.888,1.867,1.449,3.337-.157,4.12-.157,4.12h-1.158s-4.586,3.415-6.834,4.8-3.178,1.87-4.367,1.88c-.888.009-3.113-.67-2.9-2.053s7.415-11.035,7.415-11.035S1049.661,327.244,1051.261,326.105Z" transform="translate(-1006.129 -173.503)" fill="url(#linear-gradient-25)"/>
        <path id="Path_18600" data-name="Path 18600" d="M1025.724,289.93a33.979,33.979,0,0,1,2.228,2.957c1.154,1.716,1.273,5.132,1.273,5.132l-17.667,8.393s-3.052-1.951-.315-5.205c3.589-4.265,7.107-8.517,7.107-8.517A16.512,16.512,0,0,0,1025.724,289.93Z" transform="translate(-1004.671 -171.563)" fill="url(#linear-gradient-26)"/>
        <path id="Path_18601" data-name="Path 18601" d="M1017.067,286.856l1.656,5.56s4.5.276,7.374-2.761l-1.1-4.85" transform="translate(-1005.045 -171.289)" fill="url(#linear-gradient-27)"/>
        <path id="Path_18602" data-name="Path 18602" d="M1035.06,241.528s6.671.889,10.467.458c4.394-.5.316-4.681.316-4.681l-10.313,2.483Z" transform="translate(-1006.01 -168.741)" fill="url(#linear-gradient-28)"/>
        <path id="Path_18603" data-name="Path 18603" d="M1054.9,247.607l-1.192,14.044h-14.025a115.783,115.783,0,0,1-12.132-4.05c-2.347-.927-4.836-2.006-7.278-3.218.88,1.883,1.249,3.71,1.751,7.609,1.647,12.795,3.029,22.136,3.029,22.136a15.035,15.035,0,0,1-8.527,2.555s-10.429-28.315-12.038-38.243c-.88-5.451,2.905-11.432,14.962-9.9,4.287.549,15.36,3.407,19.391,4.372A151.449,151.449,0,0,1,1054.9,247.607Z" transform="translate(-1004.363 -168.795)" fill="url(#linear-gradient-26)"/>
        <path id="Path_18604" data-name="Path 18604" d="M1050.335,262.745h-9.341a115.783,115.783,0,0,1-12.132-4.05,74.2,74.2,0,0,0,17.71,2.648C1049.091,261.359,1050.108,261.525,1050.335,262.745Z" transform="translate(-1005.677 -169.888)" opacity="0.5" fill="url(#linear-gradient-30)" style="mix-blend-mode: multiply;isolation: isolate"/>
        <path id="Path_18605" data-name="Path 18605" d="M1044.01,321.79l1.063,5.132s4.955.9,6.549-1.049l-.311-3.616" transform="translate(-1006.49 -173.272)" fill="url(#linear-gradient-31)"/>
        <path id="Path_18606" data-name="Path 18606" d="M1074.575,246s-12.786,3.611-19.134.211c0,0-19.656,24.054-20.427,33.123-.2,2.336,2.985,15.006,5.442,25.789,2.01,8.82,3.37,16.325,3.37,16.325s4.674.079,7.513-1.025c0,0-.729-31.265-3.178-39.034,6.015-4.279,15.48-10.82,21.035-17.544a4.827,4.827,0,0,1,3.713-1.782h0S1077.7,256.04,1074.575,246Z" transform="translate(-1006.007 -169.208)" fill="url(#linear-gradient-32)"/>
        <path id="Path_18607" data-name="Path 18607" d="M1044.946,220.682c-.679-.163-1.331-.34-1.951-.524-6.386-1.878-8.158-4.117-8.158-4.117,4.008-11.245,6.548-13.771,8.424-15.841,3.455-3.815.845,8.372.444,8.586Z" transform="translate(-1005.998 -166.712)" fill="url(#linear-gradient-33)"/>
        <path id="Path_18608" data-name="Path 18608" d="M1043.964,210.118l-1.469,6.8,3.549-.887Z" transform="translate(-1006.408 -167.283)" fill="url(#linear-gradient-34)" style="mix-blend-mode: multiply;isolation: isolate"/>
        <path id="Path_18609" data-name="Path 18609" d="M1075.248,242.164c.218,1.817,1.3,2.484,1.287,4.571,0,.5-1.72,2.645-6.1,3.421a18.155,18.155,0,0,1-18.326-3.308,46.107,46.107,0,0,0-9.187-5.8c-.205-.137-.168-.5.074-.839.193-.273,1.3-1.9,1.32-2.036,1.75-9.424.276-10.363.172-17.574,0-.18-.01-.36-.01-.539-.189-11.12-1.315-16.681-.794-20.116,2.578-2.879,9.69-5.143,10.144-5.237.019-.009,7.486-.057,9.114,0,3.727.959,10.321,2.94,13.6,8.53-.18,4.467.109,9.894-.431,16.85C1076.024,221.136,1074.311,234.413,1075.248,242.164Z" transform="translate(-1006.424 -166.455)" fill="url(#linear-gradient-35)"/>
        <g id="Group_10495" data-name="Group 10495" transform="translate(37.773)">
          <path id="Path_18610" data-name="Path 18610" d="M1046.552,176.618s-.562,3.874,1.243,4.583l.71-4.288" transform="translate(-1044.394 -165.487)" fill="#192139"/>
          <path id="Path_18611" data-name="Path 18611" d="M1056.345,199.753c-4.369-.524-2.408-4.977-1.942-5.566l.007.007s.727-4.741.785-4.968l7.412-3.236s.171,8.1.915,8.205C1064.649,194.726,1063.141,200.562,1056.345,199.753Z" transform="translate(-1044.774 -165.99)" fill="url(#linear-gradient-36)"/>
          <path id="Path_18612" data-name="Path 18612" d="M1060.092,188.836a7.994,7.994,0,0,1-5.425,4.23l.588-3.688Z" transform="translate(-1044.834 -166.142)" fill="url(#linear-gradient-37)" style="mix-blend-mode: multiply;isolation: isolate"/>
          <path id="Path_18613" data-name="Path 18613" d="M1047.481,176.082s-1.677,12.768,3.955,14.865c0,0,5.61.529,8.879-3.868.942-1.267,2.131-1.552,2.52-3.081.631-2.485,1.522-7.068.386-9.83C1061.6,170.235,1047.634,166.5,1047.481,176.082Z" transform="translate(-1044.436 -165.134)" fill="url(#linear-gradient-38)"/>
          <path id="Path_18614" data-name="Path 18614" d="M1051.085,166.838s1.311-3.035,5.353-1.593a9.346,9.346,0,0,1,4.271,3.112,1.455,1.455,0,0,1,2.164.485c.675.916.242,2.865.242,2.865,6.719,1.231-.065,15.5-.147,15.965l-.718.42c-.19-2.089-.13-4-.25-5.459-.037-.44-.735-.7-.9-1.006a4.294,4.294,0,0,1-3.369-.435c-1.313-1.12-1.578-2.957-1.717-4.2-1.245.421-11.5,2.04-11-3.815a7.18,7.18,0,0,1-.613-1.816C1043.2,164.1,1051.085,166.838,1051.085,166.838Z" transform="translate(-1044.276 -164.856)" fill="#192139"/>
          <path id="Path_18615" data-name="Path 18615" d="M1060.605,185.212c2.541.974,3.335-5.282.922-5.559-1.83-.211-1.906,2.343-1.906,2.343S1059.153,184.657,1060.605,185.212Z" transform="translate(-1045.095 -165.649)" fill="url(#linear-gradient-39)"/>
        </g>
        <path id="Path_18616" data-name="Path 18616" d="M1067.217,212.745l2.925,9.639,5.915.828Z" transform="translate(-1007.734 -167.424)" fill="url(#linear-gradient-40)" style="mix-blend-mode: multiply;isolation: isolate"/>
        <path id="Path_18617" data-name="Path 18617" d="M1085.266,223.758a147.072,147.072,0,0,0-6.745-15.989l-9.891,5.677s3.778,7.542,6.282,12.812c-2.416.591-8.657,2.154-13.438,3.7a61.413,61.413,0,0,1-11.683,2.5,27.638,27.638,0,0,1,.26,3.565,243.226,243.226,0,0,0,24.921-.122,34.96,34.96,0,0,0,7.49-1.033c2.312-.795,3.884-1.419,3.99-3.834A21.187,21.187,0,0,0,1085.266,223.758Z" transform="translate(-1006.8 -167.157)" fill="url(#linear-gradient-41)"/>
        <path id="Path_18618" data-name="Path 18618" d="M1061.278,240.561h-13.7V239.22h13.7a.671.671,0,0,1,.67.671h0A.67.67,0,0,1,1061.278,240.561Z" transform="translate(-1006.681 -168.844)" fill="#fff"/>
        <path id="Path_18619" data-name="Path 18619" d="M1051.915,239.1h-32.743a.915.915,0,0,1-.882-.669l-7.021-25.277a.878.878,0,0,1,.846-1.113h31.612a1.72,1.72,0,0,1,1.658,1.261l7,25.185A.484.484,0,0,1,1051.915,239.1Z" transform="translate(-1004.732 -167.387)" fill="#fff"/>
        <path id="Path_18620" data-name="Path 18620" d="M1050.6,239.1H1017.86a.914.914,0,0,1-.881-.669l-7.022-25.277a.878.878,0,0,1,.846-1.113h31.613a1.722,1.722,0,0,1,1.658,1.261l7,25.185A.483.483,0,0,1,1050.6,239.1Z" transform="translate(-1004.662 -167.387)" fill="url(#linear-gradient-6)"/>
        <path id="Path_18621" data-name="Path 18621" d="M1022.37,240.637s.564,1.268,3.135,1.527l-.178-1.527Z" transform="translate(-1005.329 -168.92)" fill="url(#linear-gradient-43)"/>
        <path id="Path_18622" data-name="Path 18622" d="M1023,235.986c.057-.241.63-.5,1.093-.348a8.907,8.907,0,0,1-.347-1.085c.047-.67.7-.585,1.072-.377.428.239.927,1.346,1.062,1.465a4.341,4.341,0,0,1-.332-.815.984.984,0,0,1,1.477-.27,14.575,14.575,0,0,1,1.211,1.852,1.994,1.994,0,0,1-.078-.4c.094-.4.845-.54,1.348-.08a13.7,13.7,0,0,1,1.788,3.127h0c.485,1.09.933,1.226,1.074,1.226h2.694a2.194,2.194,0,0,1-1.476,1.546,17.566,17.566,0,0,1-5.662.616,4.169,4.169,0,0,1-3.4-1.575,20.381,20.381,0,0,1-.962-3.054h0C1023.457,237.444,1022.993,236.026,1023,235.986Z" transform="translate(-1005.363 -168.565)" fill="url(#linear-gradient-44)"/>
        <path id="Path_18623" data-name="Path 18623" d="M1077.782,203.72s2.185,2.729,6.089,12.21a46.916,46.916,0,0,1-13.057,4.873s-1.5-3.041-5.038-11.938" transform="translate(-1007.657 -166.94)" fill="url(#linear-gradient-45)"/>
      </g>
      <g id="Group_10503" data-name="Group 10503" transform="translate(182.342 97.387)">
        <g id="Group_10497" data-name="Group 10497" transform="translate(30.122 49.742)">
          <rect id="Rectangle_1012" data-name="Rectangle 1012" width="21.418" height="156.37" transform="translate(22.62 156.37) rotate(180)" fill="url(#linear-gradient-46)"/>
          <rect id="Rectangle_1013" data-name="Rectangle 1013" width="19.779" height="156.37" transform="translate(19.779 156.37) rotate(180)" fill="url(#linear-gradient-47)"/>
          <rect id="Rectangle_1014" data-name="Rectangle 1014" width="19.779" height="4.676" transform="translate(0 21.185)" opacity="0.5" fill="url(#linear-gradient-48)" style="mix-blend-mode: multiply;isolation: isolate"/>
        </g>
        <g id="Group_10502" data-name="Group 10502">
          <path id="Path_18624" data-name="Path 18624" d="M899.494,318l3.835-.455,10.244-64.585a1.266,1.266,0,0,1,1.251-1.068h70.845l.7-2.215,2.812,1.783c.029.019.061.035.088.057l.009.006h0a1.264,1.264,0,0,1,.466,1.19l-10.543,66.465a1.267,1.267,0,0,1-1.251,1.068H903.332a1.253,1.253,0,0,1-.844-.331v.007Z" transform="translate(-899.063 -249.314)" fill="url(#linear-gradient-49)"/>
          <path id="Path_18625" data-name="Path 18625" d="M900.305,318.292h74.612a1.267,1.267,0,0,0,1.251-1.068l10.542-66.465a1.266,1.266,0,0,0-1.251-1.465H910.848a1.266,1.266,0,0,0-1.251,1.067l-10.543,66.466A1.267,1.267,0,0,0,900.305,318.292Z" transform="translate(-899.038 -249.294)" fill="url(#linear-gradient-50)"/>
          <path id="Path_18626" data-name="Path 18626" d="M904.019,315.315h68.487a.8.8,0,0,0,.794-.679l9.688-61.077a.8.8,0,0,0-.795-.93H913.706a.805.805,0,0,0-.795.679l-9.687,61.076A.8.8,0,0,0,904.019,315.315Z" transform="translate(-899.262 -249.473)" fill="#fff"/>
          <path id="Path_18627" data-name="Path 18627" d="M929.068,287.19h22.765a1.018,1.018,0,0,0,1.006-.858l3.2-20.16a1.019,1.019,0,0,0-1.006-1.178H932.265a1.018,1.018,0,0,0-1.005.858l-3.2,20.161A1.018,1.018,0,0,0,929.068,287.19Z" transform="translate(-900.594 -250.136)" fill="url(#linear-gradient-51)"/>
          <g id="Group_10498" data-name="Group 10498" transform="translate(30.875 16.833)">
            <path id="Path_18628" data-name="Path 18628" d="M933.59,284.839h-1.572a.346.346,0,0,1-.35-.416l1.881-11.842a.506.506,0,0,1,.483-.417H935.6a.347.347,0,0,1,.35.417l-1.881,11.842A.507.507,0,0,1,933.59,284.839Z" transform="translate(-931.662 -267.354)" fill="#eef6fd"/>
            <path id="Path_18629" data-name="Path 18629" d="M937.878,284.978h-1.572a.346.346,0,0,1-.35-.416l1.491-9.388a.507.507,0,0,1,.483-.416H939.5a.347.347,0,0,1,.35.416l-1.492,9.388A.507.507,0,0,1,937.878,284.978Z" transform="translate(-931.892 -267.493)" fill="#eef6fd"/>
            <path id="Path_18630" data-name="Path 18630" d="M942.166,284.878h-1.572a.346.346,0,0,1-.35-.416l1.77-11.141a.507.507,0,0,1,.483-.417h1.572a.347.347,0,0,1,.35.417l-1.77,11.141A.507.507,0,0,1,942.166,284.878Z" transform="translate(-932.122 -267.393)" fill="#eef6fd"/>
            <path id="Path_18631" data-name="Path 18631" d="M946.454,284.566h-1.572a.346.346,0,0,1-.35-.416l2.645-16.652a.507.507,0,0,1,.483-.416h1.572a.346.346,0,0,1,.35.416l-2.645,16.652A.507.507,0,0,1,946.454,284.566Z" transform="translate(-932.352 -267.081)" fill="#eef6fd"/>
            <path id="Path_18632" data-name="Path 18632" d="M950.742,284.762H949.17a.346.346,0,0,1-.35-.416l2.1-13.2a.507.507,0,0,1,.483-.416h1.572a.346.346,0,0,1,.35.416l-2.1,13.2A.508.508,0,0,1,950.742,284.762Z" transform="translate(-932.582 -267.277)" fill="#eef6fd"/>
          </g>
          <path id="Path_18633" data-name="Path 18633" d="M959.617,302.788h12.5a.558.558,0,0,0,.552-.471l1.755-11.067a.559.559,0,0,0-.553-.646h-12.5a.56.56,0,0,0-.553.471l-1.755,11.067A.56.56,0,0,0,959.617,302.788Z" transform="translate(-902.257 -251.509)" fill="url(#linear-gradient-13)"/>
          <path id="Path_18634" data-name="Path 18634" d="M932.624,311.456h27.741a.76.76,0,0,0,.751-.641l2.389-15.057a.761.761,0,0,0-.751-.88H935.013a.762.762,0,0,0-.751.642l-2.388,15.057A.76.76,0,0,0,932.624,311.456Z" transform="translate(-900.798 -251.738)" opacity="0.5" fill="url(#linear-gradient-13)"/>
          <path id="Path_18635" data-name="Path 18635" d="M936.057,301.58l-1.009,6.362h24.4l1.248-7.868a3.915,3.915,0,0,0-3.575.317c-1.61.884-3.942,3.433-5.552,3.252s-2.606-4.3-4.8-4.267-3.976,4.537-5.73,4.584S937.2,301.53,936.057,301.58Z" transform="translate(-900.969 -251.98)" fill="#fff"/>
          <path id="Path_18636" data-name="Path 18636" d="M963.34,270.329h13.482a.369.369,0,0,0,.365-.311l1.16-7.317a.369.369,0,0,0-.364-.428H964.5a.369.369,0,0,0-.364.311l-1.161,7.318A.37.37,0,0,0,963.34,270.329Z" transform="translate(-902.467 -249.99)" fill="url(#linear-gradient-13)"/>
          <g id="Group_10499" data-name="Group 10499" transform="translate(61.164 21.93)" opacity="0.4">
            <path id="Path_18637" data-name="Path 18637" d="M964.723,273.466h9.4a.609.609,0,0,0,.579-.5h0a.416.416,0,0,0-.421-.5h-9.4a.607.607,0,0,0-.578.5h0A.415.415,0,0,0,964.723,273.466Z" transform="translate(-963.702 -272.467)" fill="url(#linear-gradient-55)"/>
            <path id="Path_18638" data-name="Path 18638" d="M964.409,275.448h9.4a.609.609,0,0,0,.579-.5h0a.416.416,0,0,0-.421-.5h-9.4a.608.608,0,0,0-.579.5h0A.416.416,0,0,0,964.409,275.448Z" transform="translate(-963.685 -272.573)" fill="url(#linear-gradient-56)"/>
            <path id="Path_18639" data-name="Path 18639" d="M964.1,277.429h9.4a.608.608,0,0,0,.579-.5h0a.417.417,0,0,0-.421-.5h-9.4a.608.608,0,0,0-.579.5h0A.416.416,0,0,0,964.1,277.429Z" transform="translate(-963.668 -272.679)" fill="url(#linear-gradient-57)"/>
            <path id="Path_18640" data-name="Path 18640" d="M969.277,279.411h4.2a.609.609,0,0,0,.579-.5h0a.416.416,0,0,0-.421-.5h-4.2a.608.608,0,0,0-.579.5h0A.417.417,0,0,0,969.277,279.411Z" transform="translate(-963.946 -272.786)" fill="url(#linear-gradient-58)"/>
          </g>
          <g id="Group_10500" data-name="Group 10500" transform="translate(13.169 49.181)" opacity="0.4">
            <path id="Path_18641" data-name="Path 18641" d="M914.435,302.667h13.2a.856.856,0,0,0,.814-.7h0a.585.585,0,0,0-.591-.7h-13.2a.855.855,0,0,0-.814.7h0A.585.585,0,0,0,914.435,302.667Z" transform="translate(-913.001 -301.262)" fill="url(#linear-gradient-59)"/>
            <path id="Path_18642" data-name="Path 18642" d="M913.994,305.45h13.2a.856.856,0,0,0,.814-.7h0a.585.585,0,0,0-.591-.7h-13.2a.855.855,0,0,0-.814.7h0A.585.585,0,0,0,913.994,305.45Z" transform="translate(-912.977 -301.411)" fill="url(#linear-gradient-60)"/>
            <path id="Path_18643" data-name="Path 18643" d="M913.553,308.233h13.2a.855.855,0,0,0,.814-.7h0a.585.585,0,0,0-.591-.7h-13.2a.853.853,0,0,0-.813.7h0A.584.584,0,0,0,913.553,308.233Z" transform="translate(-912.954 -301.561)" fill="url(#linear-gradient-61)"/>
            <path id="Path_18644" data-name="Path 18644" d="M920.831,311.016h5.9a.855.855,0,0,0,.814-.7h0a.585.585,0,0,0-.591-.7h-5.9a.855.855,0,0,0-.814.7h0A.585.585,0,0,0,920.831,311.016Z" transform="translate(-913.344 -301.71)" fill="url(#linear-gradient-62)"/>
          </g>
          <g id="Group_10501" data-name="Group 10501" transform="translate(17.044 12.272)" opacity="0.5">
            <path id="Path_18645" data-name="Path 18645" d="M917.76,263.222h9.027a.585.585,0,0,0,.556-.481h0a.4.4,0,0,0-.4-.48h-9.028a.583.583,0,0,0-.555.48h0A.4.4,0,0,0,917.76,263.222Z" transform="translate(-917.064 -262.261)" opacity="0.4" fill="url(#linear-gradient-63)"/>
            <path id="Path_18646" data-name="Path 18646" d="M917.458,265.124h9.027a.583.583,0,0,0,.556-.48h0a.4.4,0,0,0-.4-.48H917.61a.585.585,0,0,0-.556.48h0A.4.4,0,0,0,917.458,265.124Z" transform="translate(-917.048 -262.363)" opacity="0.4" fill="url(#linear-gradient-64)"/>
            <path id="Path_18647" data-name="Path 18647" d="M922.434,267.027h4.033a.584.584,0,0,0,.557-.48h0a.4.4,0,0,0-.4-.481h-4.033a.584.584,0,0,0-.556.481h0A.4.4,0,0,0,922.434,267.027Z" transform="translate(-917.315 -262.465)" opacity="0.4" fill="url(#linear-gradient-65)"/>
          </g>
        </g>
      </g>
      <g id="Group_10506" data-name="Group 10506" transform="translate(127.777 75.267)">
        <g id="Group_10504" data-name="Group 10504" transform="translate(57.57 209.973)">
          <path id="Path_18648" data-name="Path 18648" d="M908.534,423.717l.637,9.685s5.774,2.012,9.484,0l1-9.946" transform="translate(-908.075 -423.457)" fill="url(#linear-gradient-66)"/>
          <path id="Path_18649" data-name="Path 18649" d="M932.079,440.974h-23.9a25.053,25.053,0,0,1,.076-4.7,13.688,13.688,0,0,1,.943-3.414,27.394,27.394,0,0,0,9.485,0s7.728,2.33,10.8,4.086C931.808,438.275,932.177,440.151,932.079,440.974Z" transform="translate(-908.1 -422.906)" fill="url(#linear-gradient-67)"/>
        </g>
        <g id="Group_10505" data-name="Group 10505" transform="translate(0 206.344)">
          <path id="Path_18650" data-name="Path 18650" d="M860.428,420.029l-2.612,8.666s3.66,3.728,8.239,2.994l4.421-10.622" transform="translate(-853.477 -420.029)" fill="url(#linear-gradient-66)"/>
          <path id="Path_18651" data-name="Path 18651" d="M875.022,441.449a1.534,1.534,0,0,1-.22.021h-9.419c-.163-.011-.314-.011-.455-.021-2.428-2.2-11.372-9.777-11.209-10.234a21.047,21.047,0,0,1,2.189-3.836,9.476,9.476,0,0,1,3.361-2.981,15.491,15.491,0,0,0,8.574,3.317s2.331,6.222,3.653,7.371C873.036,435.3,876.735,437.351,875.022,441.449Z" transform="translate(-853.717 -419.773)" fill="url(#linear-gradient-67)"/>
        </g>
        <path id="Path_18652" data-name="Path 18652" d="M922.538,435.764c-7.717,2.081-11.542-.428-11.542-.428s-2.234-35.425-2.381-41.851c-.16-6.97.361-12.962.361-12.962-3.252-5.962-7.53-23.212-7.53-23.212s-1.506,6.113-3.122,12.108v.011c-1.051,3.945-2.156,7.847-2.926,9.918-2.19,5.951-25.2,53.2-25.2,53.2-9.441-.888-10.937-3.88-10.937-3.88s6.178-20.9,11.013-34.612a204.959,204.959,0,0,1,7.946-20.043l3.682-36.467s-1.908-5.017-1.694-8.943c.248-4.537,3.333-11.921,3.333-11.921l32.315-1.629,3.565,6.388s6.829,49.56,7.316,57.093S922.538,435.764,922.538,435.764Z" transform="translate(-853.392 -219.836)" fill="url(#linear-gradient-70)"/>
        <path id="Path_18653" data-name="Path 18653" d="M923.7,237.241c-.148,1.958-1.107,4.44-1.609,7.384a28.3,28.3,0,0,1-2.286,7.284c-1.147,2.324-2.426,4.064-3.8,4.374-2.8.631-12.619-2.261-15.357-12.941-3.233-12.608,5.868-16.028,10.339-15.39S924.205,230.534,923.7,237.241Z" transform="translate(-851.007 -224.945)" fill="url(#linear-gradient-71)"/>
        <path id="Path_18654" data-name="Path 18654" d="M912.2,249.428a47.034,47.034,0,0,0-1.762,9.679s-8.547,1.424-13.166-1.085c0,0,4.8-9.759,5.292-18.275" transform="translate(-851.165 -224.25)" fill="#e9cdb2"/>
        <path id="Path_18655" data-name="Path 18655" d="M881.937,278.441s-3.433,11.954-2.981,16.47c.163,1.636,10.207,6.007,10.207,6.007l1.9-17.074Z" transform="translate(-852.24 -221.982)" fill="url(#linear-gradient-66)"/>
        <path id="Path_18656" data-name="Path 18656" d="M890.561,287.444c-.222-.011-.445-.021-.656-.042a24.09,24.09,0,0,1-6.225-1.207,16.014,16.014,0,0,1-3.949-1.884,127.734,127.734,0,0,1,5.23-17.435Z" transform="translate(-852.193 -222.66)" fill="url(#linear-gradient-73)"/>
        <path id="Path_18657" data-name="Path 18657" d="M889.687,286.811a24.091,24.091,0,0,1-6.225-1.207c.551-3.642,1.09-8.649,1.09-8.649l1.133,1.546Z" transform="translate(-851.974 -222.069)" fill="url(#linear-gradient-74)" style="mix-blend-mode: multiply;isolation: isolate"/>
        <path id="Path_18658" data-name="Path 18658" d="M918.822,322.544a3.277,3.277,0,0,1-.455,2.3c-13.19-3.737-25.925,15.7-41.031,3.377-.614-.508,4.372-9.231,6.976-24.147a119.822,119.822,0,0,0,1.133-16.7c.18-8.067-2.022-15.382-.36-19.785,2.17-5.748,9.39-9.655,12.576-10.226a27.917,27.917,0,0,1,12.714.826c6.108,1.757,10.9,9.686,10.9,9.686.222,3.79-1.323,10.417-2.7,17.753a107.935,107.935,0,0,0-1.937,14.524c-.01.254-.021.519-.032.783C916.419,308.391,918.25,317.908,918.822,322.544Z" transform="translate(-852.336 -223.24)" fill="url(#linear-gradient-75)"/>
        <path id="Path_18659" data-name="Path 18659" d="M916.757,284.38A107.944,107.944,0,0,0,914.82,298.9c-.01.254-.021.519-.032.783l-.053.148-6.383-21.691,3.2.318Z" transform="translate(-850.515 -222)" fill="url(#linear-gradient-76)" style="mix-blend-mode: multiply;isolation: isolate"/>
        <path id="Path_18660" data-name="Path 18660" d="M949.066,276.343s.585-1.816.827-2.854.376-2.168.737-2.1.813.7.994,1.489a11.177,11.177,0,0,1,0,2.53Z" transform="translate(-848.129 -222.396)" fill="url(#linear-gradient-77)"/>
        <path id="Path_18661" data-name="Path 18661" d="M960.174,272.406a5.8,5.8,0,0,0-1.5.6c-.905.4-1.875.778-1.875.778l-2.082,1.351a14.965,14.965,0,0,1,1.308-1.242c.722-.593,1.386-1.1,1.551-1.265,1.114-1.088.349-1.78-.3-1.415s-2.152,1.1-2.638,1.479c-.819.633-2.727,2.571-2.885,2.738-.271.285-2.423,4.844-2.891,5.465a11.243,11.243,0,0,1-2.392,1.789c-5.676,2.384-17.159,7.011-17.159,7.011l-4.487-9.256-12.748,2.818S921,299.272,923.7,301.093c5.9,3.99,22.148-12.733,27.287-15.486a17.257,17.257,0,0,0,3.655-2.165,4.824,4.824,0,0,0,1.139-1.869v0l.5-1.068s.119,1.507.237,2.173.8.977,1.067.723a8.42,8.42,0,0,0,.269-1.908,11.656,11.656,0,0,0,.172-2.564c-.2-.271-.772-1.018-.772-1.018s.094-.472-.126-.642a4.016,4.016,0,0,0-.972-.61l1.74-1.4s.691-.388,1.708-1.044S960.514,272.467,960.174,272.406Z" transform="translate(-850.297 -222.412)" fill="url(#linear-gradient-66)"/>
        <path id="Path_18662" data-name="Path 18662" d="M907.048,271.164c-.65,6.477,6.253,18.066,6.253,18.066a29.084,29.084,0,0,0,13.151-6.814s-4.59-11.71-6.918-15.035C917.033,263.808,907.7,264.72,907.048,271.164Z" transform="translate(-850.594 -222.752)" fill="url(#linear-gradient-79)"/>
        <path id="Path_18663" data-name="Path 18663" d="M927.11,236.218c.847-2.27.35-4.753-3.76-4.843-4.787-8.04-14.047-6.324-16.892-5.6-7.678,1.851-11.7,10.524-10.839,16.908,1,7.421,2.988,8.689,3.746,9.716s6.97,2.561,10.095,1.054c1.028-.5,4.105-9.641,4.456-10.633a1.494,1.494,0,0,1,.34-.653,1.549,1.549,0,0,1,1.115-.182c.089,0,.163,0,.251,0-.055.94.086,2.125,1.214,1.846a3.725,3.725,0,0,0,2.12-1.951C924.366,240.893,926.576,237.648,927.11,236.218Z" transform="translate(-851.268 -225.108)" fill="#192139"/>
        <path id="Path_18664" data-name="Path 18664" d="M915.942,242.855s.017-3.7-2.675-3.207c-2.4.443-2.89,7.317-.677,7.814S916.123,245.673,915.942,242.855Z" transform="translate(-850.35 -224.258)" fill="url(#linear-gradient-80)"/>
        <path id="Path_18665" data-name="Path 18665" d="M897.265,233.848s-10.555,14.493-6.988,24.5c1.523,4.27,20.6,9.194,25.564,1.512-4.259-1.306-3.091-13.271-3.091-13.271Z" transform="translate(-851.618 -224.596)" fill="#192139"/>
        <path id="Path_18666" data-name="Path 18666" d="M899.284,355.568s-1.506,6.113-3.122,12.108V344.815Z" transform="translate(-851.23 -218.092)" opacity="0.5" fill="url(#linear-gradient-81)" style="mix-blend-mode: multiply;isolation: isolate"/>
      </g>
      <g id="Group_10512" data-name="Group 10512" transform="translate(22.626 68.013)">
        <g id="Group_10507" data-name="Group 10507" transform="translate(39.993 217.773)">
          <path id="Path_18667" data-name="Path 18667" d="M792.57,423.972l-.4,10.019s4.344,1.836,7.736,0l2.529-9.533" transform="translate(-792.167 -423.972)" fill="url(#linear-gradient-82)"/>
        </g>
        <g id="Group_10508" data-name="Group 10508" transform="translate(7.44 214.493)">
          <path id="Path_18668" data-name="Path 18668" d="M763.919,420.874l-2.5,11.92s4.819,2.37,8.585.744l3.1-9.9" transform="translate(-761.416 -420.874)" fill="url(#linear-gradient-83)"/>
          <path id="Path_18669" data-name="Path 18669" d="M790.884,441.072h21.15a.406.406,0,0,0,.406-.483c-.195-.873-1.442-2.255-3.838-3.5-2.486-1.288-8.611-3.66-8.611-3.66a23.332,23.332,0,0,1-7.743,0,6.035,6.035,0,0,0-1.479,3.06A21.148,21.148,0,0,0,790.884,441.072Z" transform="translate(-759.702 -420.138)" fill="url(#linear-gradient-84)"/>
        </g>
        <path id="Path_18670" data-name="Path 18670" d="M827.472,269.087l15.375,22.477s1.6,6.514-5.848,5.693-18.719-19.123-18.719-19.123" transform="translate(-750.643 -215.276)" fill="url(#linear-gradient-85)"/>
        <path id="Path_18671" data-name="Path 18671" d="M833.274,277.347a35.448,35.448,0,0,1-11.015,10.627L811.725,277.8l-.3-23.22s5.991,2.442,12.078,9.621A140.2,140.2,0,0,1,833.274,277.347Z" transform="translate(-751.045 -216.126)" fill="url(#linear-gradient-86)"/>
        <path id="Path_18672" data-name="Path 18672" d="M821.465,269.608l3.239,7.255-6.424-1.235Z" transform="translate(-750.643 -215.246)" fill="url(#linear-gradient-87)" style="mix-blend-mode: multiply;isolation: isolate"/>
        <path id="Path_18673" data-name="Path 18673" d="M784.216,310.722S776.7,333.9,774.179,354.389s-1.572,15.731-2.4,21c-.751,4.745-1.912,11.573-4.1,21.425s-5.493,37.136-5.493,37.136a19.982,19.982,0,0,0,9.594,1.272s12.163-31.27,13.872-40.072a157.485,157.485,0,0,0,2.244-18.545s9.231-18.533,12.844-31.895l1.938-.545-.373,36.512s-5.9,13.359-6.862,24.264-1.516,30.612-1.516,30.612,6.941,2.108,9.305.476c0,0,11.772-44.953,14.617-56.229s7.375-37.1,7.675-42.257c1.059-18.172-1.543-25.936-1.543-25.936Z" transform="translate(-753.931 -212.836)" fill="url(#linear-gradient-88)"/>
        <path id="Path_18674" data-name="Path 18674" d="M770.539,432.494a23.688,23.688,0,0,1-8.649-.643l-.536,1.674s-3.955,1.349-5.465,2.983c-2.294,2.485-1.279,4.657-1.279,4.657h17.125A14.872,14.872,0,0,0,770.539,432.494Z" transform="translate(-754.388 -205.738)" fill="url(#linear-gradient-67)"/>
        <path id="Path_18675" data-name="Path 18675" d="M823.576,313.8c-.243,2.117-1.376,2.594-1.376,2.594s-8.3,4.33-39.37-.423c0,0-1.112-.212-.688-2.265a67.1,67.1,0,0,0,1.482-16.408,16.018,16.018,0,0,0-.73-4.171c-1.154-3.26-2.848-7.834-4.266-12.576-1.726-5.727-3.038-11.7-2.519-15.89,1.069-8.617,16.122-12.248,16.122-12.248l12.894-.116s11.359,1.154,16.662,9.157c4.118,6.214,2.149,27.545,1.175,41.91C822.676,307.607,823.851,311.365,823.576,313.8Z" transform="translate(-753.122 -216.26)" fill="url(#linear-gradient-90)"/>
        <path id="Path_18676" data-name="Path 18676" d="M787.364,277.545l-2.318,18.272h-1.567a16.016,16.016,0,0,0-.73-4.171c-1.154-3.26-2.848-7.834-4.266-12.576Z" transform="translate(-752.976 -214.781)" fill="url(#linear-gradient-87)" style="mix-blend-mode: multiply;isolation: isolate"/>
        <g id="Group_10509" data-name="Group 10509" transform="translate(33.181 0)">
          <path id="Path_18677" data-name="Path 18677" d="M808.923,225.015s2.117,8.031-.986,9.544c-2.523,1.231-2.745-2.365-2.745-2.365l-.6-3.914" transform="translate(-784.627 -217.859)" fill="#192139"/>
          <path id="Path_18678" data-name="Path 18678" d="M791.328,253.2s2.109,5.449,10.107,4.674c6.959-.674,2.8-4.784,2.8-4.784s-.364-1.1-.806-2.554c-.431-1.423-.937-3.178-1.255-4.555l-2.784-2.28-5.9-4.834S794.247,249.368,791.328,253.2Z" transform="translate(-785.404 -217.048)" fill="url(#linear-gradient-92)"/>
          <path id="Path_18679" data-name="Path 18679" d="M795.53,243.482s2.41,5.139,7.649,6.782c-.431-1.423-.937-3.178-1.255-4.555l-2.784-2.28Z" transform="translate(-785.158 -216.78)" fill="url(#linear-gradient-93)" style="mix-blend-mode: multiply;isolation: isolate"/>
          <path id="Path_18680" data-name="Path 18680" d="M808.651,229.823s3.342,16.112-1.33,18.642c0,0-5.3,1.983-10.836-2.512a15.74,15.74,0,0,1-3.847-4.74c-1.594-2.93-4.19-8.424-3.645-12.272C789.771,223.461,805.381,217.794,808.651,229.823Z" transform="translate(-785.545 -217.995)" fill="url(#linear-gradient-94)"/>
          <path id="Path_18681" data-name="Path 18681" d="M796.309,236.464s-.955-2.961-3.024-2.093c-2.728,1.144.279,8.125,2.967,6.186" transform="translate(-785.353 -217.32)" fill="url(#linear-gradient-95)"/>
          <path id="Path_18682" data-name="Path 18682" d="M788.146,224.724c3.483-6.922,9.924-3.619,17.138-4.312,2.448-2.354,5.015-2.476,6.325-1.8,1.8.928,1.7,4.5,1.547,6.022-.976,9.486-11.433,8.763-14.483,8.338a4.242,4.242,0,0,1-.687,1.985,3.572,3.572,0,0,1-1.922,1.229,2.1,2.1,0,0,0-1.631-1.04,1.826,1.826,0,0,0-.768.155,1.7,1.7,0,0,0-1,1.34,6.046,6.046,0,0,0,1.311,4.17c.043,2.072-.133,3.9-.141,5.141a41.241,41.241,0,0,0-2.723-4,19.131,19.131,0,0,1-3.216-5.784c-.011,0-.011,0-.012-.008C787.256,235.112,783.22,228.01,788.146,224.724Z" transform="translate(-785.732 -218.255)" fill="#192139"/>
        </g>
        <path id="Path_18683" data-name="Path 18683" d="M822.336,307.268l-22.845-.639a1.638,1.638,0,0,1-1.506-2.163L808.6,273.1a2.851,2.851,0,0,1,2.78-1.935l22.845.639a1.639,1.639,0,0,1,1.506,2.163l-10.614,31.366A2.849,2.849,0,0,1,822.336,307.268Z" transform="translate(-751.838 -215.155)" fill="url(#linear-gradient-96)"/>
        <path id="Path_18684" data-name="Path 18684" d="M814.749,289.944c-.191-.5-1.211-.3-1.516-.192s-.651.271-1.2.5l-.415.177c.834-.489,1.414-.836,1.219-1.351s-1.211-.3-1.515-.192-.652.271-1.2.5c-.773.328-1.928.834-2.613,1.136-1.222.192-2.712.6-2.7.538.059-.441.35-1,.439-1.489.21-.464.946-2.241.478-2.826-.53-.662-.9-.394-1.311.452a14.4,14.4,0,0,1-2.048,2.549c-.433.484-.489.977-1.055,1.655a4.507,4.507,0,0,1-2.327,1.348c-1.107.238-11,.613-17.871.817a137.631,137.631,0,0,0,3.3-16.823l-12.932-4.894s-4.827,29.012-3.274,31.66c1.118,1.907,4.065,2.817,7.07,2.491,3.993-.434,12.523-3.617,25.142-7.19,1.985-.265,3.289-.5,5.847-.826a9.893,9.893,0,0,0,2.262-.566l0,0,.057-.025c.058-.022.109-.047.163-.071a20.055,20.055,0,0,0,2.344-1.209c1.155-.718,2.535-1.619,2.293-2.257-.114-.3-.527-.349-.905-.315,1.044-.645,1.938-1.206,1.716-1.793-.092-.242-.378-.32-.682-.324C814.379,290.9,814.95,290.476,814.749,289.944Z" transform="translate(-753.596 -215.114)" fill="url(#linear-gradient-97)"/>
        <path id="Path_18685" data-name="Path 18685" d="M774.843,262.69c1.569-2.94,7.751-6.3,7.751-6.3l6.218,14.643c.07,5.2-3.155,18.758-3.155,18.758a47.236,47.236,0,0,1-8.991-.494,61.917,61.917,0,0,1-7.735-1.855S771.042,269.813,774.843,262.69Z" transform="translate(-753.535 -216.02)" fill="url(#linear-gradient-98)"/>
        <g id="Group_10511" data-name="Group 10511" transform="translate(77.338 17.699)">
          <rect id="Rectangle_1015" data-name="Rectangle 1015" width="48.575" height="15.901" rx="4.741" transform="matrix(0.992, -0.125, 0.125, 0.992, 0, 6.051)" fill="#ccdfe1"/>
          <path id="Rectangle_1016" data-name="Rectangle 1016" d="M2.5,0h3.46a2.5,2.5,0,0,1,2.5,2.5v3.46a2.5,2.5,0,0,1-2.5,2.5H2.5A2.5,2.5,0,0,1,0,5.956V2.5A2.5,2.5,0,0,1,2.5,0Z" transform="matrix(0.992, -0.125, 0.125, 0.992, 3.848, 9.322)" fill="url(#linear-gradient-99)"/>
          <g id="Group_10510" data-name="Group 10510" transform="translate(14.719 6.119)">
            <path id="Path_18686" data-name="Path 18686" d="M870.194,241.606l-28.374,3.562a.418.418,0,0,1-.466-.361l0-.023a.417.417,0,0,1,.361-.465l28.375-3.562a.417.417,0,0,1,.465.361l0,.023A.417.417,0,0,1,870.194,241.606Z" transform="translate(-841.349 -240.754)" fill="url(#linear-gradient-100)"/>
            <path id="Path_18687" data-name="Path 18687" d="M853.822,245.487l-11.762,1.477a.417.417,0,0,1-.466-.362l0-.022a.416.416,0,0,1,.361-.465l11.762-1.477a.417.417,0,0,1,.466.361l0,.022A.417.417,0,0,1,853.822,245.487Z" transform="translate(-841.335 -240.526)" fill="url(#linear-gradient-101)"/>
            <path id="Path_18688" data-name="Path 18688" d="M869.689,243.517l-14.926,1.874a.417.417,0,0,1-.465-.361l0-.023a.417.417,0,0,1,.362-.465l14.926-1.874a.416.416,0,0,1,.465.361l0,.022A.417.417,0,0,1,869.689,243.517Z" transform="translate(-840.59 -240.642)" fill="url(#linear-gradient-102)"/>
            <path id="Path_18689" data-name="Path 18689" d="M857.638,246.974,842.3,248.9a.417.417,0,0,1-.466-.362l0-.022a.416.416,0,0,1,.361-.466l15.338-1.926a.417.417,0,0,1,.466.362l0,.022A.417.417,0,0,1,857.638,246.974Z" transform="translate(-841.321 -240.439)" fill="url(#linear-gradient-103)"/>
          </g>
        </g>
        <path id="Path_18690" data-name="Path 18690" d="M844.512,254.045,844.4,254s.307-.86.576-1.835a6.45,6.45,0,0,0,.9-2.11c0-1.827-1.4-.571-2.179.257-2.007,1.705-3.44,3.241-3.44,4.929,0,3.209-.109,5.722-.109,5.723-2.672,7.649-8.087,23.214-8.087,23.214l9.639,12.193s1.965-3.285,2.659-18.778a113.175,113.175,0,0,1,1.94-15.042,22.809,22.809,0,0,0,3.158-4.789c.482-.7.92-1.332,1.143-1.628a10.117,10.117,0,0,0,1.1-2.989Z" transform="translate(-749.835 -216.447)" fill="url(#linear-gradient-104)"/>
      </g>
      <g id="Group_10513" data-name="Group 10513" transform="translate(126.189 21.136)">
        <path id="Rectangle_1017" data-name="Rectangle 1017" d="M6.353,0H36.185a6.353,6.353,0,0,1,6.353,6.353V21.7a6.352,6.352,0,0,1-6.352,6.352H6.353A6.353,6.353,0,0,1,0,21.7V6.353A6.353,6.353,0,0,1,6.353,0Z" fill="url(#linear-gradient-105)"/>
        <path id="Path_18691" data-name="Path 18691" d="M859.206,178.013l7.093,4.095a1.75,1.75,0,0,1,0,3.03l-7.093,4.1a1.75,1.75,0,0,1-2.624-1.515v-8.191A1.749,1.749,0,0,1,859.206,178.013Z" transform="translate(-840.609 -169.207)" fill="#fff"/>
      </g>
      <g id="Group_10517" data-name="Group 10517" transform="translate(28.019 -72.945)">
        <rect id="Rectangle_1018" data-name="Rectangle 1018" width="60.261" height="58.945" rx="6.501" fill="#00aeef"/>
        <path id="Path_18692" data-name="Path 18692" d="M748.25,209.312H722a5.747,5.747,0,0,1-5.746-5.746h0A5.747,5.747,0,0,1,722,197.818H748.25A5.747,5.747,0,0,1,754,203.565h0A5.747,5.747,0,0,1,748.25,209.312Z" transform="translate(-709.058 -186.85)" fill="none" stroke="#fff" stroke-width="0.5"/>
        <path id="Path_18693" data-name="Path 18693" d="M756.839,228.865H730.587a5.746,5.746,0,0,1-5.746-5.746h0a5.747,5.747,0,0,1,5.746-5.747h26.251a5.747,5.747,0,0,1,5.746,5.747h0A5.746,5.746,0,0,1,756.839,228.865Z" transform="translate(-709.518 -187.899)" fill="none" stroke="#fff" stroke-width="0.5"/>
        <g id="Group_10514" data-name="Group 10514" transform="translate(12.615 13.121)">
          <path id="Path_18694" data-name="Path 18694" d="M749.517,201.481H722.675a.7.7,0,0,1-.695-.695h0a.694.694,0,0,1,.695-.694h26.842a.693.693,0,0,1,.694.694h0A.694.694,0,0,1,749.517,201.481Z" transform="translate(-721.98 -200.093)" fill="#fff"/>
          <path id="Path_18695" data-name="Path 18695" d="M749.517,204.545H722.675a.694.694,0,0,1-.695-.694h0a.7.7,0,0,1,.695-.695h26.842a.694.694,0,0,1,.694.695h0A.693.693,0,0,1,749.517,204.545Z" transform="translate(-721.98 -200.257)" fill="#fff"/>
          <path id="Path_18696" data-name="Path 18696" d="M735.4,207.61H722.675a.7.7,0,0,1-.695-.695h0a.694.694,0,0,1,.695-.694H735.4a.693.693,0,0,1,.694.694h0A.694.694,0,0,1,735.4,207.61Z" transform="translate(-721.98 -200.422)" fill="#fff"/>
        </g>
        <g id="Group_10515" data-name="Group 10515" transform="translate(19.673 31.625)">
          <path id="Path_18697" data-name="Path 18697" d="M730.132,221.034h26.842a.7.7,0,0,0,.695-.695h0a.694.694,0,0,0-.695-.694H730.132a.693.693,0,0,0-.694.694h0A.694.694,0,0,0,730.132,221.034Z" transform="translate(-729.438 -219.646)" fill="#fff"/>
          <path id="Path_18698" data-name="Path 18698" d="M740.828,224.1h16.72a.694.694,0,0,0,.695-.694h0a.7.7,0,0,0-.695-.695h-16.72a.694.694,0,0,0-.695.695h0A.694.694,0,0,0,740.828,224.1Z" transform="translate(-730.012 -219.81)" fill="#fff"/>
          <path id="Path_18699" data-name="Path 18699" d="M730.132,224.1h7.16a.693.693,0,0,0,.694-.694h0a.694.694,0,0,0-.694-.695h-7.16a.694.694,0,0,0-.694.695h0A.693.693,0,0,0,730.132,224.1Z" transform="translate(-729.438 -219.81)" fill="#fff"/>
          <path id="Path_18700" data-name="Path 18700" d="M745.047,227.163h12.727a.7.7,0,0,0,.695-.695h0a.694.694,0,0,0-.695-.694H745.047a.693.693,0,0,0-.694.694h0A.694.694,0,0,0,745.047,227.163Z" transform="translate(-730.238 -219.975)" fill="#fff"/>
        </g>
        <g id="Group_10516" data-name="Group 10516" transform="translate(7.194 47.29)">
          <path id="Path_18701" data-name="Path 18701" d="M718.936,237.54a1.342,1.342,0,1,1-1.342-1.342A1.342,1.342,0,0,1,718.936,237.54Z" transform="translate(-716.252 -236.198)" fill="#fff"/>
          <path id="Path_18702" data-name="Path 18702" d="M724.665,237.54a1.342,1.342,0,1,1-1.343-1.342A1.342,1.342,0,0,1,724.665,237.54Z" transform="translate(-716.559 -236.198)" fill="#fff"/>
          <path id="Path_18703" data-name="Path 18703" d="M730.393,237.54a1.342,1.342,0,1,1-1.342-1.342A1.342,1.342,0,0,1,730.393,237.54Z" transform="translate(-716.866 -236.198)" fill="#fff"/>
        </g>
      </g>
      <g id="Group_10518" data-name="Group 10518" transform="translate(22.626 31.228)">
        <rect id="Rectangle_1019" data-name="Rectangle 1019" width="33.057" height="30.853" rx="5.354" fill="#ccdfe1"/>
        <path id="Rectangle_1020" data-name="Rectangle 1020" d="M3.508,0H24.931a3.508,3.508,0,0,1,3.508,3.508V23.035a3.507,3.507,0,0,1-3.507,3.507H3.508A3.508,3.508,0,0,1,0,23.035V3.508A3.508,3.508,0,0,1,3.508,0Z" transform="translate(2.309 2.155)" fill="#eef6fd"/>
        <path id="Path_18704" data-name="Path 18704" d="M730.044,378.628H712.215a2.381,2.381,0,0,1-2.224-1.532l7.8-11.623a2.057,2.057,0,0,1,3.405,0l2.487,3.7Z" transform="translate(-707.512 -349.927)" fill="url(#linear-gradient-106)"/>
        <path id="Path_18705" data-name="Path 18705" d="M741.662,362.588v10.6a2.406,2.406,0,0,1-2.4,2.4H720.734l6.352-9.458,6.956-10.348a1.833,1.833,0,0,1,3.048,0Z" transform="translate(-710.912 -346.888)" fill="url(#linear-gradient-107)"/>
        <path id="Path_18706" data-name="Path 18706" d="M725.944,353.7a4.344,4.344,0,1,1-4.344-4.344A4.344,4.344,0,0,1,725.944,353.7Z" transform="translate(-709.811 -345.113)" fill="url(#linear-gradient-108)"/>
      </g>
      <g id="Group_10519" data-name="Group 10519" transform="translate(384.152 62.082)">
        <path id="Path_18707" data-name="Path 18707" d="M1178.885,240.717l-32.238-12.838-32.238,12.838s-1.578,45.416,32.238,57.17C1180.461,286.133,1178.885,240.717,1178.885,240.717Z" transform="translate(-1114.397 -227.879)" fill="url(#linear-gradient-109)"/>
        <path id="Path_18708" data-name="Path 18708" d="M1146.783,233.631l26.966,10.732c-.45,9.6-3.75,38.737-26.966,48.109-23.178-9.358-26.512-38.5-26.974-48.11l26.974-10.731m0-3.056-29.877,11.886c.133,7.76,2.262,42.823,29.877,53.054,27.606-10.23,29.745-45.293,29.868-53.054l-29.868-11.886Z" transform="translate(-1114.531 -228.024)" fill="#fff"/>
        <path id="Path_18709" data-name="Path 18709" d="M1127.884,257.859s14.332,9.542,19.44,22.875c0,0,13.755-35.068,32.3-46.93,0,0-17.981,3.55-33.912,33.045C1145.707,266.849,1138.689,258.569,1127.884,257.859Z" transform="translate(-1115.12 -228.197)" fill="url(#linear-gradient-110)"/>
      </g>
      <g id="Group_10520" data-name="Group 10520" transform="translate(16.271)">
        <line id="Line_96" data-name="Line 96" x2="491.641" transform="translate(0 303.918)" fill="none" stroke="#232230" stroke-linecap="round" stroke-linejoin="round" stroke-width="1"/>
        <path id="Path_18710" data-name="Path 18710" d="M804.683,204.4V173.9A27.516,27.516,0,0,1,832.2,146.389h226.871a27.515,27.515,0,0,1,27.516,27.515v73.028" transform="translate(-727.907 -146.389)" fill="none" stroke="#0b262a" stroke-linecap="round" stroke-linejoin="round" stroke-width="2" stroke-dasharray="5 6" opacity="0.2"/>
        <line id="Line_97" data-name="Line 97" y2="67.114" transform="translate(176.359)" fill="none" stroke="#0b262a" stroke-linecap="round" stroke-linejoin="round" stroke-width="2" stroke-dasharray="5 6" opacity="0.2"/>
        <line id="Line_98" data-name="Line 98" y2="58.089" transform="translate(291.028)" fill="none" stroke="#0b262a" stroke-linecap="round" stroke-linejoin="round" stroke-width="2" stroke-dasharray="5 6" opacity="0.2"/>
      </g>
      <g id="Group_10523" data-name="Group 10523" transform="translate(-655.506 -229.131)">
        <path id="Path_18711" data-name="Path 18711" d="M956.115,162.1a12.278,12.278,0,0,1,19.688,2.586,14.9,14.9,0,0,1,6.114-1.293,15.217,15.217,0,1,1-2.962,30.137,11.056,11.056,0,0,1-14.464,4.552,12.589,12.589,0,0,1-23.406-.568,11.861,11.861,0,0,1-2.4.242,11.846,11.846,0,0,1-5.845-22.059,13.341,13.341,0,0,1-1.131-5.413,13.589,13.589,0,0,1,24.4-8.185" transform="translate(-11.832 -0.555)" fill="#449fd9"/>
        <path id="Path_18712" data-name="Path 18712" d="M937.7,183.138l.3-.781c.054-.134.134-.08.189-.054l.242.161a3.34,3.34,0,0,0,1.859.539c.62,0,1.022-.324,1.022-.781V182.2c0-.485-.592-.672-1.293-.89l-.161-.054c-.943-.27-1.967-.672-1.967-1.859v-.027a2.016,2.016,0,0,1,2.235-1.94h.134a3.806,3.806,0,0,1,2.047.566.129.129,0,0,1,.081.161l-.3.781c-.054.134-.189.054-.189.054a4.086,4.086,0,0,0-1.831-.458c-.566,0-.916.3-.916.7v.027c0,.458.62.672,1.32.89l.134.026c.943.3,1.94.7,1.94,1.859v.026c0,1.24-.89,1.993-2.317,1.993a4.358,4.358,0,0,1-2.1-.485,3.146,3.146,0,0,1-.4-.242c-.027-.054-.08-.08-.027-.189Zm21.01,0,.3-.781a.112.112,0,0,1,.189-.054l.242.161a3.34,3.34,0,0,0,1.859.539c.62,0,1.022-.324,1.022-.781V182.2c0-.485-.592-.672-1.293-.89l-.161-.054c-.943-.27-1.967-.672-1.967-1.859v-.027a2.016,2.016,0,0,1,2.235-1.94h.134a3.806,3.806,0,0,1,2.047.566.129.129,0,0,1,.081.161l-.3.781c-.054.134-.189.054-.189.054a4.086,4.086,0,0,0-1.831-.458c-.566,0-.916.3-.916.7v.027c0,.458.62.672,1.32.89l.134.026c.943.3,1.94.7,1.94,1.859v.026c0,1.24-.89,1.993-2.317,1.993a4.358,4.358,0,0,1-2.1-.485,3.138,3.138,0,0,1-.4-.242c0-.054-.054-.08-.027-.189Zm15.568-3.691a4.985,4.985,0,0,1,.189,1.293,4.035,4.035,0,0,1-.189,1.293,2.661,2.661,0,0,1-.539,1.041,2.6,2.6,0,0,1-.916.7,3.57,3.57,0,0,1-2.586,0,2.4,2.4,0,0,1-.916-.7,2.8,2.8,0,0,1-.539-1.041,4.887,4.887,0,0,1-.189-1.293,4.037,4.037,0,0,1,.189-1.293,2.662,2.662,0,0,1,.539-1.041,2.608,2.608,0,0,1,.916-.7,3.265,3.265,0,0,1,1.293-.27,2.839,2.839,0,0,1,1.293.27,2.393,2.393,0,0,1,.916.7A2.8,2.8,0,0,1,974.276,179.447Zm-1.211,1.266a2.986,2.986,0,0,0-.377-1.616,1.3,1.3,0,0,0-1.158-.566,1.266,1.266,0,0,0-1.158.566,2.986,2.986,0,0,0-.377,1.616,3.153,3.153,0,0,0,.377,1.643,1.468,1.468,0,0,0,2.317,0A2.854,2.854,0,0,0,973.065,180.714Zm11.07,2.02.3.808c.026.108-.054.134-.054.134a4.642,4.642,0,0,1-1.7.3,3.038,3.038,0,0,1-2.37-.89,3.446,3.446,0,0,1-.808-2.4,4.037,4.037,0,0,1,.189-1.293,2.818,2.818,0,0,1,1.562-1.741,3.426,3.426,0,0,1,1.347-.27,8.2,8.2,0,0,1,.889.054,4.272,4.272,0,0,1,.808.216.107.107,0,0,1,.08.134l-.3.808c-.054.134-.134.08-.134.08a3.792,3.792,0,0,0-1.266-.189,1.5,1.5,0,0,0-1.32.592,2.484,2.484,0,0,0-.458,1.59,2.355,2.355,0,0,0,.511,1.643,1.765,1.765,0,0,0,1.372.511,4.4,4.4,0,0,0,.646-.054,2.284,2.284,0,0,0,.566-.161c-.027.054.08.027.134.134Zm6.114-3.528a3.69,3.69,0,0,1,.108,1.751.106.106,0,0,1-.108.108h-4.067a1.824,1.824,0,0,0,.485,1.347,1.906,1.906,0,0,0,1.4.485,4.01,4.01,0,0,0,1.67-.3.144.144,0,0,1,.161.08l.27.754c.054.134,0,.161-.026.189a4.2,4.2,0,0,1-2.047.4,4.057,4.057,0,0,1-1.481-.242,2.709,2.709,0,0,1-1.022-.672A3.016,3.016,0,0,1,985,182.09a4.509,4.509,0,0,1,0-2.585,2.662,2.662,0,0,1,.539-1.041,2.579,2.579,0,0,1,.943-.7,3,3,0,0,1,1.347-.27,2.617,2.617,0,0,1,1.158.242,2.4,2.4,0,0,1,.781.592,2.207,2.207,0,0,1,.485.89Zm-4.041.861h2.882a2.15,2.15,0,0,0-.27-.97,1.239,1.239,0,0,0-1.131-.592,1.285,1.285,0,0,0-1.158.592,2.753,2.753,0,0,0-.324.97Zm-28.469-.861a4.4,4.4,0,0,1,.134,1.751.106.106,0,0,1-.108.108H953.7a1.824,1.824,0,0,0,.484,1.347,1.906,1.906,0,0,0,1.4.485,4.01,4.01,0,0,0,1.67-.3.144.144,0,0,1,.161.08l.27.754c.054.134,0,.161-.026.189a4.2,4.2,0,0,1-2.047.4,4.057,4.057,0,0,1-1.481-.242,2.709,2.709,0,0,1-1.022-.672,3.015,3.015,0,0,1-.592-1.022,4.509,4.509,0,0,1,0-2.585,2.661,2.661,0,0,1,.539-1.041,2.578,2.578,0,0,1,.943-.7,3,3,0,0,1,1.347-.27,2.618,2.618,0,0,1,1.158.242,2.4,2.4,0,0,1,.781.592,2.226,2.226,0,0,1,.458.89Zm-4.041.861h2.909a2.15,2.15,0,0,0-.27-.97,1.239,1.239,0,0,0-1.131-.592,1.285,1.285,0,0,0-1.158.592A2.268,2.268,0,0,0,953.7,180.066Zm-7.138-.216.672.08v-.161c0-.539-.108-.808-.324-.97a1.69,1.69,0,0,0-1-.27,4.451,4.451,0,0,0-1.777.4.083.083,0,0,1-.054.027s-.108.026-.134-.054l-.3-.781a.119.119,0,0,1,.026-.161,3.72,3.72,0,0,1,1.24-.458,7.286,7.286,0,0,1,1.077-.108,2.742,2.742,0,0,1,1.859.566,2.265,2.265,0,0,1,.646,1.8v3.716s0,.108-.081.134a2.817,2.817,0,0,1-.3.08l-1.022.189a6.27,6.27,0,0,1-1.24.108,4.388,4.388,0,0,1-1.077-.108,2.632,2.632,0,0,1-.835-.35,1.82,1.82,0,0,1-.539-.646,1.923,1.923,0,0,1-.189-.916,2.108,2.108,0,0,1,.216-.943,2,2,0,0,1,.592-.672,3.045,3.045,0,0,1,.835-.4,4.064,4.064,0,0,1,1-.134l.7.027Zm-1.616,2.855a1.8,1.8,0,0,0,1.185.242,7.678,7.678,0,0,0,1.1-.134v-1.859a7.967,7.967,0,0,0-1.1-.08,1.911,1.911,0,0,0-1.185.3.871.871,0,0,0-.35.781,1.059,1.059,0,0,0,.134.538C944.754,182.544,944.781,182.6,944.943,182.706Zm34.34-4.929c-.027.108-.242.672-.3.861a.147.147,0,0,1-.161.108,2.475,2.475,0,0,0-.458-.054,2.2,2.2,0,0,0-.539.08,1.389,1.389,0,0,0-.511.3,1.3,1.3,0,0,0-.35.592,3.77,3.77,0,0,0-.134,1.077v3.016a.127.127,0,0,1-.134.134h-1.077a.127.127,0,0,1-.134-.134V177.7a.123.123,0,0,1,.108-.134h1.041c.081,0,.108.054.108.134v.485a1.782,1.782,0,0,1,.672-.511,2.106,2.106,0,0,1,1.041-.161,4.12,4.12,0,0,1,.672.108c.108.027.161.054.134.161Zm-9.994-2.8a.107.107,0,0,1,.08.134l-.324.861c-.026.054-.054.108-.189.054-.026,0-.08-.026-.216-.054a1.228,1.228,0,0,0-.324-.027,2.059,2.059,0,0,0-.431.054.7.7,0,0,0-.35.216,1.34,1.34,0,0,0-.3.431,4.087,4.087,0,0,0-.216.916h1.293c.108,0,.134.054.134.134l-.161.835c-.027.134-.134.108-.134.108H966.81l-.861,5.2a10.054,10.054,0,0,1-.35,1.372,2.58,2.58,0,0,1-.539.916,1.578,1.578,0,0,1-.754.511,2.76,2.76,0,0,1-1,.161,2.3,2.3,0,0,1-.592-.054,1.533,1.533,0,0,1-.377-.108.119.119,0,0,1-.054-.161l.3-.835c.054-.108.134-.054.134-.054l.216.08a1.336,1.336,0,0,0,.324.027,1.3,1.3,0,0,0,.484-.08.8.8,0,0,0,.377-.3,2.713,2.713,0,0,0,.3-.566,8.932,8.932,0,0,0,.242-1l.916-5.092h-.89c-.108,0-.134-.054-.134-.134l.161-.835c.027-.134.134-.108.134-.108h.916l.054-.27a3.306,3.306,0,0,1,.808-1.831,2.365,2.365,0,0,1,1.722-.62,3.312,3.312,0,0,1,.566.054.647.647,0,0,1,.377.054Zm-18.153,8.754a.123.123,0,0,1-.108.134h-1.077c-.08,0-.108-.054-.108-.134v-8.646c0-.054.054-.134.108-.134h1.077c.081,0,.108.054.108.134Z" transform="translate(-12.404 -1.527)" fill="#fff"/>
      </g>
    </g>
  </g>
</svg>
