<svg xmlns="http://www.w3.org/2000/svg" xmlns:xlink="http://www.w3.org/1999/xlink" width="507.913" height="397" viewBox="0 0 507.913 397">
  <defs>
    <linearGradient id="linear-gradient" y1="0.5" x2="1" y2="0.5" gradientUnits="objectBoundingBox">
      <stop offset="0" stop-color="#57b2fd"/>
      <stop offset="1" stop-color="#497bfd"/>
    </linearGradient>
    <linearGradient id="linear-gradient-4" x1="-12.348" y1="-0.049" x2="-11.284" y2="-0.049" gradientUnits="objectBoundingBox">
      <stop offset="0" stop-color="#f6a285"/>
      <stop offset="1" stop-color="#fc6b58"/>
    </linearGradient>
    <linearGradient id="linear-gradient-5" x1="-13.483" y1="-5.293" x2="-15.232" y2="-5.304" gradientUnits="objectBoundingBox">
      <stop offset="0" stop-color="#fde0bb"/>
      <stop offset="1" stop-color="#fc6b58"/>
    </linearGradient>
    <linearGradient id="linear-gradient-6" x1="-13.096" y1="0.5" x2="-12.096" y2="0.5" xlink:href="#linear-gradient-4"/>
    <linearGradient id="linear-gradient-7" x1="35.208" y1="0.5" x2="36.208" y2="0.5" xlink:href="#linear-gradient-4"/>
    <linearGradient id="linear-gradient-8" x1="15.45" y1="0.5" x2="16.45" y2="0.5" xlink:href="#linear-gradient-4"/>
  </defs>
  <g id="Sales_Analysis" data-name="Sales Analysis" transform="translate(-350 -487.967)">
    <g id="Group_9729" data-name="Group 9729" transform="translate(350 487.967)">
      <path id="Path_17242" data-name="Path 17242" d="M1357.894,942.487c15.6-11.85,33.586-19.083,51.3-24.981,41.468-13.839,83.623-21.617,124.444-22.979,29.045-.967,58.531,1.675,79.667,16.645,22.125,15.678,32.656,44.078,30.16,74.221s-17.316,61.621-38.894,87.937-49.612,47.619-79.274,63.188a284.915,284.915,0,0,1-47.949,19.887,256.893,256.893,0,0,1-42.423,9.344c-9.129,1.2-25.7,2.22-12.737-10.706,17.489-17.449,29.929-39.215,24.683-60.409-4.708-18.947-21.5-30.484-39.4-37.676s-37.786-11.2-54.181-20.677-29.259-26.234-26.378-47.251C1329.3,971.595,1342.311,954.337,1357.894,942.487Z" transform="translate(-1211.161 -846.348)" fill="#f8f7fc"/>
      <path id="Path_17243" data-name="Path 17243" d="M2680.894,3637.578c0,1.964-33.069,3.549-73.855,3.549s-73.855-1.584-73.855-3.549,33.069-3.539,73.855-3.539S2680.894,3635.623,2680.894,3637.578Z" transform="translate(-2275.308 -3262.427)" fill="#f8f7fc"/>
      <g id="Group_9652" data-name="Group 9652" transform="translate(168.057 27.733)">
        <g id="Group_9629" data-name="Group 9629">
          <g id="Group_9626" data-name="Group 9626" transform="translate(0.694 0.694)">
            <path id="Path_17244" data-name="Path 17244" d="M2023.807,791.225l-13.289,8.326v99.886a8.484,8.484,0,0,1-8.484,8.484h-214.9a8.484,8.484,0,0,1-8.484-8.484V737.129a8.527,8.527,0,0,1,8.5-8.5h214.887a8.484,8.484,0,0,1,8.484,8.484v42.261l13.289,8.326A2.081,2.081,0,0,1,2023.807,791.225Z" transform="translate(-1778.645 -728.627)" fill="#fff"/>
          </g>
          <g id="Group_9628" data-name="Group 9628">
            <g id="Group_9627" data-name="Group 9627">
              <path id="Path_17245" data-name="Path 17245" d="M1996.854,903.433h-214.9a9.189,9.189,0,0,1-9.178-9.179V731.946a9.206,9.206,0,0,1,9.2-9.2h214.886a9.188,9.188,0,0,1,9.178,9.178v41.877L2019,781.928a2.775,2.775,0,0,1,0,4.7l-12.964,8.122v99.5A9.189,9.189,0,0,1,1996.854,903.433ZM1781.968,724.14a7.817,7.817,0,0,0-7.808,7.806V894.254a7.8,7.8,0,0,0,7.791,7.79h214.9a7.8,7.8,0,0,0,7.791-7.79V794.369a.691.691,0,0,1,.325-.588l13.29-8.327h0a1.385,1.385,0,0,0,0-2.349l-13.29-8.325a.691.691,0,0,1-.325-.588V731.929a7.8,7.8,0,0,0-7.791-7.789Z" transform="translate(-1772.772 -722.751)" fill="url(#linear-gradient)"/>
            </g>
          </g>
        </g>
        <g id="Group_9632" data-name="Group 9632" transform="translate(100.302 17.409)">
          <g id="Group_9630" data-name="Group 9630">
            <rect id="Rectangle_796" data-name="Rectangle 796" width="50.391" height="48.863" rx="24.431" fill="#f8f7fc"/>
            <rect id="Rectangle_797" data-name="Rectangle 797" width="50.391" height="48.863" rx="24.431" transform="translate(65.472)" fill="#f8f7fc"/>
          </g>
          <g id="Group_9631" data-name="Group 9631" transform="translate(0 62.849)">
            <rect id="Rectangle_798" data-name="Rectangle 798" width="50.391" height="48.863" rx="24.431" fill="#f8f7fc"/>
            <rect id="Rectangle_799" data-name="Rectangle 799" width="50.391" height="48.863" rx="24.431" transform="translate(65.472)" fill="#f8f7fc"/>
          </g>
        </g>
        <path id="Rectangle_800" data-name="Rectangle 800" d="M10.9,0H41.326a10.9,10.9,0,0,1,10.9,10.9v0a10.9,10.9,0,0,1-10.9,10.9H10.9A10.9,10.9,0,0,1,0,10.9v0A10.9,10.9,0,0,1,10.9,0Z" transform="translate(132.12 144.901)" fill="#f35170"/>
        <rect id="Rectangle_801" data-name="Rectangle 801" width="36.854" height="13.765" rx="6.882" transform="translate(13.411 21.684)" fill="url(#linear-gradient)"/>
        <rect id="Rectangle_802" data-name="Rectangle 802" width="71.823" height="4.148" rx="2.074" transform="translate(13.411 43.499)" fill="#f8f7fc"/>
        <rect id="Rectangle_803" data-name="Rectangle 803" width="71.823" height="4.148" rx="2.074" transform="translate(13.411 152.282)" fill="#f8f7fc"/>
        <g id="Group_9633" data-name="Group 9633" transform="translate(42.938 61.945)">
          <rect id="Rectangle_804" data-name="Rectangle 804" width="42.296" height="3.533" rx="1.766" fill="#f8f7fc"/>
          <rect id="Rectangle_805" data-name="Rectangle 805" width="32.37" height="3.533" rx="1.766" transform="translate(0 8.017)" fill="#f8f7fc"/>
        </g>
        <rect id="Rectangle_806" data-name="Rectangle 806" width="21.028" height="20.566" rx="10.283" transform="translate(13.411 57.436)" fill="#ffd375"/>
        <g id="Group_9634" data-name="Group 9634" transform="translate(42.938 92.484)">
          <rect id="Rectangle_807" data-name="Rectangle 807" width="42.296" height="3.533" rx="1.766" fill="#f8f7fc"/>
          <rect id="Rectangle_808" data-name="Rectangle 808" width="32.37" height="3.533" rx="1.766" transform="translate(0 8.017)" fill="#f8f7fc"/>
        </g>
        <rect id="Rectangle_809" data-name="Rectangle 809" width="21.028" height="20.566" rx="10.283" transform="translate(13.411 87.976)" fill="#9ebbfb"/>
        <g id="Group_9635" data-name="Group 9635" transform="translate(42.938 123.024)">
          <rect id="Rectangle_810" data-name="Rectangle 810" width="42.296" height="3.533" rx="1.766" fill="#f8f7fc"/>
          <rect id="Rectangle_811" data-name="Rectangle 811" width="32.37" height="3.533" rx="1.766" transform="translate(0 8.017)" fill="#f8f7fc"/>
        </g>
        <rect id="Rectangle_812" data-name="Rectangle 812" width="21.028" height="20.566" rx="10.283" transform="translate(13.411 118.516)" fill="#c5adff"/>
        <g id="Group_9636" data-name="Group 9636" transform="translate(145.077 149.309)">
          <path id="Path_17246" data-name="Path 17246" d="M3007.527,1991.823a2.46,2.46,0,0,0,1.176-2.212c0-1.556-1.074-2.811-3.438-2.811h-3.436a.829.829,0,0,0-.831.846v8.836a.8.8,0,0,0,.24.589v0a.813.813,0,0,0,.59.239h3.523c2.884,0,3.918-1.314,3.918-3.028A2.6,2.6,0,0,0,3007.527,1991.823Zm.109,2.4c0,1.261-1.163,1.5-2.414,1.5h-2.546v-2.983h2.56C3006.85,1992.741,3007.635,1993.227,3007.635,1994.226Zm-4.96-3.03v-2.808h2.487c.962,0,1.92.364,1.92,1.325,0,1.216-.952,1.483-2.167,1.483Z" transform="translate(-3000.998 -1986.8)" fill="#fff"/>
          <path id="Path_17247" data-name="Path 17247" d="M3088.017,2010.243v4.3a2.861,2.861,0,0,1-2.211,1.285c-.972,0-1.424-.508-1.424-1.6v-3.989a.839.839,0,0,0-1.678,0v4.134A3.035,3.035,0,0,0,3084,2017h0a2.7,2.7,0,0,0,1.485.406,3.417,3.417,0,0,0,2.531-1.083v.164a.839.839,0,0,0,1.679,0v-6.244A.84.84,0,0,0,3088.017,2010.243Z" transform="translate(-3073.053 -2006.748)" fill="#fff"/>
          <path id="Path_17248" data-name="Path 17248" d="M3157.609,2009.9l-2.121,5.133-2.081-5.163a.838.838,0,1,0-1.534.674l2.709,6.6-.921,2.367a.81.81,0,1,0,1.522.551l3.977-9.556A.833.833,0,1,0,3157.609,2009.9Z" transform="translate(-3133.983 -2006.69)" fill="#fff"/>
        </g>
        <g id="Group_9638" data-name="Group 9638" transform="translate(19.733 64.94)">
          <g id="Group_9637" data-name="Group 9637">
            <path id="Path_17249" data-name="Path 17249" d="M1942.737,1278.277a1.477,1.477,0,0,1-.267-.024,1.493,1.493,0,0,1-.959-.62l-1.413-2.052a1.489,1.489,0,0,1,2.453-1.687l.566.823,2.767-1.915a1.488,1.488,0,0,1,1.693,2.447l-3.993,2.765A1.488,1.488,0,0,1,1942.737,1278.277Z" transform="translate(-1939.836 -1272.535)" fill="#fff"/>
          </g>
        </g>
        <g id="Group_9640" data-name="Group 9640" transform="translate(19.733 95.388)">
          <g id="Group_9639" data-name="Group 9639">
            <path id="Path_17250" data-name="Path 17250" d="M1942.737,1536.051a1.467,1.467,0,0,1-.267-.024,1.493,1.493,0,0,1-.959-.62l-1.413-2.052a1.489,1.489,0,0,1,2.453-1.688l.566.823,2.767-1.915a1.488,1.488,0,0,1,1.693,2.447l-3.993,2.765A1.488,1.488,0,0,1,1942.737,1536.051Z" transform="translate(-1939.836 -1530.31)" fill="#fff"/>
          </g>
        </g>
        <g id="Group_9642" data-name="Group 9642" transform="translate(19.733 125.835)">
          <g id="Group_9641" data-name="Group 9641">
            <path id="Path_17251" data-name="Path 17251" d="M1942.736,1793.814a1.488,1.488,0,0,1-1.227-.644l-1.412-2.051a1.489,1.489,0,0,1,2.453-1.687l.566.822,2.767-1.916a1.488,1.488,0,0,1,1.694,2.447l-3.993,2.765A1.487,1.487,0,0,1,1942.736,1793.814Z" transform="translate(-1939.835 -1788.072)" fill="#fff"/>
          </g>
        </g>
        <g id="Group_9644" data-name="Group 9644" transform="translate(107.793 26.771)">
          <path id="Path_17252" data-name="Path 17252" d="M2720.4,958.885l-2.436,2.785a1.49,1.49,0,0,1-2.118.15l-2.852-2.469v17.963a2.228,2.228,0,0,1-2.218,2.218h-15.461a2.232,2.232,0,0,1-2.235-2.218v-17.93l-2.8,2.435a1.488,1.488,0,0,1-2.118-.15l-2.435-2.785a1.509,1.509,0,0,1,.15-2.135l7.205-6.255a11.775,11.775,0,0,1,3.669-.834c.267-.033.551-.067.834-.083.284-.034.584-.067.884-.083l1.018-.05a3.646,3.646,0,0,0,7.155-.05c.35.017.684.05,1.017.067l.6.05c.284.017.567.05.834.067a9.991,9.991,0,0,1,3.9.917v.033l.033-.033,7.222,6.255A1.539,1.539,0,0,1,2720.4,958.885Z" transform="translate(-2685.352 -949.395)" fill="#f35170"/>
          <g id="Group_9643" data-name="Group 9643" transform="translate(11.398 0.117)">
            <path id="Path_17253" data-name="Path 17253" d="M2793.352,950.383a5.385,5.385,0,0,1-10.674.067c-.284.017-.567.05-.834.083a6.222,6.222,0,0,0,12.342-.083C2793.919,950.433,2793.636,950.4,2793.352,950.383Z" transform="translate(-2781.844 -950.383)" fill="#fff"/>
          </g>
        </g>
        <g id="Group_9649" data-name="Group 9649" transform="translate(108.161 87.976)">
          <g id="Group_9645" data-name="Group 9645" transform="translate(14.92)">
            <path id="Path_17254" data-name="Path 17254" d="M2817.2,1474.214a.483.483,0,0,1-.483-.484v-1.818a.483.483,0,0,1,.483-.484,1.452,1.452,0,1,0-1.456-1.449.483.483,0,1,1-.967,0,2.419,2.419,0,1,1,2.906,2.367v1.383A.484.484,0,0,1,2817.2,1474.214Z" transform="translate(-2814.776 -1467.558)" fill="#4c5c75"/>
          </g>
          <g id="Group_9646" data-name="Group 9646" transform="translate(11.166 5.689)">
            <path id="Path_17255" data-name="Path 17255" d="M2783.476,1518.424a.483.483,0,0,1-.141-.945l5.688-1.739a.478.478,0,0,1,.282,0l5.527,1.68a.484.484,0,0,1-.282.925l-5.386-1.637-5.547,1.7A.475.475,0,0,1,2783.476,1518.424Z" transform="translate(-2782.993 -1515.718)" fill="#4c5c75"/>
          </g>
          <g id="Group_9647" data-name="Group 9647" transform="translate(0 7.12)">
            <path id="Path_17256" data-name="Path 17256" d="M2722.766,1537.177l-3.23,3.063a1.186,1.186,0,0,1-1.659-.022l-2.072-2.082v15.448a1.183,1.183,0,0,1-1.191,1.181h-17.631a1.183,1.183,0,0,1-1.192-1.181v-15.448l-2.072,2.082a1.186,1.186,0,0,1-1.659.022l-3.23-3.074a1.188,1.188,0,0,1,.011-1.727l6.983-6.5a2.145,2.145,0,0,1,1.114-.546l3.174-.524c.212,2.406,2.629,4.288,5.6,4.288s5.424-1.9,5.614-4.321l3.33.557a2.146,2.146,0,0,1,1.114.546l6.984,6.5A1.192,1.192,0,0,1,2722.766,1537.177Z" transform="translate(-2688.463 -1527.833)" fill="#9ebbfb"/>
          </g>
          <g id="Group_9648" data-name="Group 9648" transform="translate(11.649 6.997)">
            <path id="Path_17257" data-name="Path 17257" d="M2798.3,1526.916c-.19,2.417-2.629,4.321-5.614,4.321s-5.391-1.882-5.6-4.288l.735-.122a5.086,5.086,0,0,0,9.757-.034Z" transform="translate(-2787.083 -1526.793)" fill="url(#linear-gradient)"/>
          </g>
        </g>
        <path id="Path_17258" data-name="Path 17258" d="M3283.3,983.07a2.693,2.693,0,0,1-2.733,2.517h-13.323a2.368,2.368,0,0,1-1.672-.683l-8.72-8.523v7.785a1.42,1.42,0,0,1-1.4,1.421h-3.974a1.42,1.42,0,0,1-1.4-1.421V965.341l-1.564-6.419a1.3,1.3,0,0,1,1.276-1.618h2.283a1.29,1.29,0,0,1,1.259.971l1.51,5.628a.382.382,0,0,0,.738,0l1.528-5.628a1.29,1.29,0,0,1,1.259-.971h8.2a1.3,1.3,0,0,1,1.313,1.313v6.9a4.226,4.226,0,0,0,.234,1.331l.162.431,1.313,3.614a3.628,3.628,0,0,0,1.762,2l2.481,1.223,5.826,2.877a6.576,6.576,0,0,1,3.65,6.077Z" transform="translate(-3074.163 -929.599)" fill="#be7d5a"/>
        <path id="Path_17259" data-name="Path 17259" d="M3262,1170.6v1.671a1.41,1.41,0,0,0,1.41,1.41h3.969a1.421,1.421,0,0,0,1.41-1.41V1170.6Z" transform="translate(-3086.094 -1117.699)" fill="#894852"/>
        <path id="Path_17260" data-name="Path 17260" d="M3372.482,1170.6l2.461,2.4a2.349,2.349,0,0,0,1.671.679h13.318a2.728,2.728,0,0,0,2.742-2.663c0-.141-.019-.279-.027-.418Z" transform="translate(-3183.525 -1117.699)" fill="#894852"/>
        <g id="Group_9651" data-name="Group 9651" transform="translate(183.035 88.01)">
          <g id="Group_9650" data-name="Group 9650">
            <rect id="Rectangle_813" data-name="Rectangle 813" width="17.43" height="26.436" rx="8.715" transform="translate(0 7.547)" fill="#6eb854"/>
            <path id="Path_17261" data-name="Path 17261" d="M3342.539,1583.05v17.457H3355.2V1583.05C3349.063,1580.132,3346.892,1589.031,3342.539,1583.05Z" transform="translate(-3340.154 -1568.908)" fill="#fff"/>
            <path id="Path_17262" data-name="Path 17262" d="M3375.844,1468.727v6.666h-6.276v-6.666a.881.881,0,0,1,.881-.881h4.514A.881.881,0,0,1,3375.844,1468.727Z" transform="translate(-3363.99 -1467.846)" fill="#6eb854"/>
          </g>
          <path id="Path_17263" data-name="Path 17263" d="M3412.024,1489.474a1.43,1.43,0,0,1-1.43-1.43,1.412,1.412,0,0,1,1.43-1.409Z" transform="translate(-3400.17 -1484.416)" fill="#fff"/>
        </g>
        <path id="Path_17264" data-name="Path 17264" d="M3374.332,967.283a7.631,7.631,0,0,1-5.592-7.354,7.1,7.1,0,0,1,.485-2.625h3.4a1.3,1.3,0,0,1,1.313,1.313v6.9a4.233,4.233,0,0,0,.234,1.331Z" transform="translate(-3180.225 -929.599)" fill="#894852"/>
        <path id="Path_17265" data-name="Path 17265" d="M3471.776,1105.475a5.924,5.924,0,0,1-2.751.665,6.062,6.062,0,0,1-6.059-6.06,3.745,3.745,0,0,1,.017-.449l5.826,2.877A6.413,6.413,0,0,1,3471.776,1105.475Z" transform="translate(-3263.322 -1055.115)" fill="#894852"/>
      </g>
      <g id="Group_9678" data-name="Group 9678" transform="translate(407.869 0)">
        <g id="Group_9670" data-name="Group 9670" transform="translate(11.942 12.002)">
          <g id="Group_9654" data-name="Group 9654">
            <g id="Group_9653" data-name="Group 9653">
              <path id="Path_17266" data-name="Path 17266" d="M3947.155,611.067a21.347,21.347,0,0,1-9.466,17.783,12.569,12.569,0,0,0-4.425,5.221h-15.207c-.088-.205-.188-.406-.293-.608a12.4,12.4,0,0,0-4.073-4.534,21.5,21.5,0,1,1,33.464-17.863Z" transform="translate(-3904.129 -589.579)" fill="#ffd375"/>
            </g>
          </g>
          <g id="Group_9659" data-name="Group 9659" transform="translate(10.66 19.104)">
            <g id="Group_9657" data-name="Group 9657">
              <g id="Group_9655" data-name="Group 9655">
                <path id="Path_17267" data-name="Path 17267" d="M4003.194,761.142h-3.9a4.914,4.914,0,1,1,4.913-4.913v3.9A1.008,1.008,0,0,1,4003.194,761.142Zm-3.9-7.811a2.9,2.9,0,1,0,0,5.794h2.9v-2.9A2.9,2.9,0,0,0,3999.29,753.331Z" transform="translate(-3994.375 -751.315)" fill="#4c5c75"/>
              </g>
              <g id="Group_9656" data-name="Group 9656" transform="translate(11.877)">
                <path id="Path_17268" data-name="Path 17268" d="M4099.837,761.142h-3.907a1.007,1.007,0,0,1-1.008-1.008v-3.9a4.914,4.914,0,1,1,4.915,4.913Zm-2.9-2.016h2.9a2.9,2.9,0,1,0-2.9-2.9Z" transform="translate(-4094.923 -751.315)" fill="#4c5c75"/>
              </g>
            </g>
            <g id="Group_9658" data-name="Group 9658" transform="translate(7.811 7.811)">
              <path id="Path_17269" data-name="Path 17269" d="M4065.575,836.834h-4.066a1.007,1.007,0,0,1-1.008-1.008V818.448a1.007,1.007,0,0,1,1.008-1.008h4.066a1.008,1.008,0,0,1,1.008,1.008v17.378A1.008,1.008,0,0,1,4065.575,836.834Zm-3.058-2.016h2.049V819.456h-2.049Z" transform="translate(-4060.501 -817.44)" fill="#4c5c75"/>
            </g>
          </g>
          <g id="Group_9669" data-name="Group 9669" transform="translate(10.032 44.493)">
            <g id="Group_9661" data-name="Group 9661" transform="translate(2.229)">
              <g id="Group_9660" data-name="Group 9660">
                <path id="Path_17270" data-name="Path 17270" d="M4026.437,967.018v8.66a3.6,3.6,0,0,1-3.6,3.6h-11.307a3.6,3.6,0,0,1-3.6-3.6v-8.66a.761.761,0,0,1,.762-.762h16.983A.761.761,0,0,1,4026.437,967.018Z" transform="translate(-4007.929 -966.256)" fill="#4c5c75"/>
              </g>
            </g>
            <g id="Group_9663" data-name="Group 9663" transform="translate(7.685 13.023)">
              <g id="Group_9662" data-name="Group 9662">
                <path id="Path_17271" data-name="Path 17271" d="M4054.12,1076.508a3.954,3.954,0,0,0,7.6,0Z" transform="translate(-4054.12 -1076.508)" fill="#111d33"/>
              </g>
            </g>
            <g id="Group_9668" data-name="Group 9668" transform="translate(0 2.333)">
              <g id="Group_9665" data-name="Group 9665">
                <g id="Group_9664" data-name="Group 9664">
                  <path id="Path_17272" data-name="Path 17272" d="M4012.024,987.155h0a1.147,1.147,0,0,1-1.147,1.147h-20.671a1.147,1.147,0,0,1-1.147-1.147h0a1.147,1.147,0,0,1,1.147-1.147h20.671A1.147,1.147,0,0,1,4012.024,987.155Z" transform="translate(-3989.058 -986.008)" fill="#111d33"/>
                </g>
              </g>
              <g id="Group_9667" data-name="Group 9667" transform="translate(0 4.321)">
                <g id="Group_9666" data-name="Group 9666">
                  <path id="Path_17273" data-name="Path 17273" d="M4012.024,1023.74h0a1.147,1.147,0,0,1-1.147,1.148h-20.671a1.147,1.147,0,0,1-1.147-1.148h0a1.147,1.147,0,0,1,1.147-1.147h20.671A1.147,1.147,0,0,1,4012.024,1023.74Z" transform="translate(-3989.058 -1022.593)" fill="#111d33"/>
                </g>
              </g>
            </g>
          </g>
        </g>
        <g id="Group_9671" data-name="Group 9671" transform="translate(31.281)">
          <path id="Path_17274" data-name="Path 17274" d="M4071.663,489.874v3.206a1.907,1.907,0,0,1-1.907,1.907h0a1.906,1.906,0,0,1-1.906-1.907v-3.206a1.906,1.906,0,0,1,1.906-1.907h0A1.907,1.907,0,0,1,4071.663,489.874Z" transform="translate(-4067.85 -487.967)" fill="#ffd375"/>
        </g>
        <g id="Group_9672" data-name="Group 9672" transform="translate(15.542 4.36)">
          <path id="Path_17275" data-name="Path 17275" d="M3938.165,525.833l1.6,2.777a1.906,1.906,0,0,1-.7,2.6h0a1.906,1.906,0,0,1-2.6-.7l-1.6-2.777a1.906,1.906,0,0,1,.7-2.6h0A1.907,1.907,0,0,1,3938.165,525.833Z" transform="translate(-3934.606 -524.879)" fill="#ffd375"/>
        </g>
        <g id="Group_9673" data-name="Group 9673" transform="translate(4.093 16.005)">
          <path id="Path_17276" data-name="Path 17276" d="M3840.534,623.725l2.777,1.6a1.907,1.907,0,0,1,.7,2.6h0a1.906,1.906,0,0,1-2.6.7l-2.777-1.6a1.907,1.907,0,0,1-.7-2.6h0A1.906,1.906,0,0,1,3840.534,623.725Z" transform="translate(-3837.674 -623.469)" fill="#ffd375"/>
        </g>
        <g id="Group_9674" data-name="Group 9674" transform="translate(0 31.816)">
          <path id="Path_17277" data-name="Path 17277" d="M3804.932,757.32h3.206a1.906,1.906,0,0,1,1.907,1.906h0a1.907,1.907,0,0,1-1.907,1.907h-3.206a1.907,1.907,0,0,1-1.907-1.907h0A1.906,1.906,0,0,1,3804.932,757.32Z" transform="translate(-3803.025 -757.32)" fill="#ffd375"/>
        </g>
        <g id="Group_9675" data-name="Group 9675" transform="translate(59.89 31.281)">
          <path id="Path_17278" data-name="Path 17278" d="M4315.167,756.606h-3.207a1.907,1.907,0,0,1-1.906-1.907h0a1.906,1.906,0,0,1,1.906-1.907h3.207a1.906,1.906,0,0,1,1.906,1.907h0A1.907,1.907,0,0,1,4315.167,756.606Z" transform="translate(-4310.055 -752.793)" fill="#ffd375"/>
        </g>
        <g id="Group_9676" data-name="Group 9676" transform="translate(55.959 15.543)">
          <path id="Path_17279" data-name="Path 17279" d="M4282.411,623.108l-2.776,1.6a1.908,1.908,0,0,1-2.6-.7h0a1.907,1.907,0,0,1,.7-2.6l2.777-1.6a1.907,1.907,0,0,1,2.6.7h0A1.907,1.907,0,0,1,4282.411,623.108Z" transform="translate(-4276.774 -619.55)" fill="#ffd375"/>
        </g>
        <g id="Group_9677" data-name="Group 9677" transform="translate(45.487 4.093)">
          <path id="Path_17280" data-name="Path 17280" d="M4193.284,525.477l-1.6,2.777a1.907,1.907,0,0,1-2.6.7h0a1.907,1.907,0,0,1-.7-2.6l1.6-2.777a1.907,1.907,0,0,1,2.6-.7h0A1.906,1.906,0,0,1,4193.284,525.477Z" transform="translate(-4188.123 -522.617)" fill="#ffd375"/>
        </g>
      </g>
      <g id="Group_9687" data-name="Group 9687" transform="translate(381.138 80.044)">
        <g id="Group_9686" data-name="Group 9686">
          <g id="Group_9683" data-name="Group 9683" transform="translate(27.832 145.773)">
            <g id="Group_9682" data-name="Group 9682">
              <g id="Group_9681" data-name="Group 9681">
                <g id="Group_9679" data-name="Group 9679" transform="translate(59.773 155.427)">
                  <path id="Path_17281" data-name="Path 17281" d="M4319.084,3723.009c2.185-4.224,6.758-3.04,12.367-3.04,2.967,0,3.8-2.056,3.93-4l10.69-.384c1.833,2.979,2.755,8.863,2.729,12.542a3.245,3.245,0,0,1-3.253,3.214h-23.278a3.269,3.269,0,0,1-2.9-1.772A7.011,7.011,0,0,1,4319.084,3723.009Z" transform="translate(-4318.386 -3715.59)" fill="#bf7d5a"/>
                  <path id="Path_17282" data-name="Path 17282" d="M4319.253,3811.82c.367,2.26,1.48,4.389,3.779,4.389h23.277a3.243,3.243,0,0,0,3.254-3.213c0-.367-.011-.769-.027-1.175Z" transform="translate(-4319.151 -3800.453)" fill="#8a4852"/>
                </g>
                <g id="Group_9680" data-name="Group 9680" transform="translate(0 155.427)">
                  <path id="Path_17283" data-name="Path 17283" d="M3813.048,3723.009c2.186-4.224,6.758-3.04,12.367-3.04,2.966,0,3.8-2.056,3.929-4l10.69-.384c1.833,2.979,2.755,8.863,2.728,12.542a3.244,3.244,0,0,1-3.253,3.214h-23.279a3.267,3.267,0,0,1-2.9-1.772A7.01,7.01,0,0,1,3813.048,3723.009Z" transform="translate(-3812.35 -3715.59)" fill="#bf7d5a"/>
                  <path id="Path_17284" data-name="Path 17284" d="M3813.217,3811.82a8.8,8.8,0,0,0,.883,2.617,3.266,3.266,0,0,0,2.9,1.771h23.278a3.243,3.243,0,0,0,3.253-3.213c0-.367-.011-.769-.027-1.175Z" transform="translate(-3813.114 -3800.453)" fill="#8a4852"/>
                </g>
                <path id="Path_17285" data-name="Path 17285" d="M3939.1,2554.854c4.561-26.256,15.169-51.923,21.328-82.3,5,24.995,17.8,80.3,18.18,82.014,1.029,4.726,20.045,4.766,19.3,0-3.958-25.973-4.143-91.38-4.143-91.38-.015-.243,4.542-47.51-4.585-63.452h-32.489v.442l-19.2-.418-.6-.024s-.037.2-.135.553v.013c-.2.86-.615,2.68-1.143,5.273-.233,1.131-.491,2.409-.774,3.823-2.273,11.6-5.7,32.107-6.269,52.856-.86,31.542-1.917,59.4-8.715,92.094C3918.815,2559.267,3938.249,2559.8,3939.1,2554.854Z" transform="translate(-3907.115 -2399.739)" fill="#8a4852"/>
                <path id="Path_17286" data-name="Path 17286" d="M4053.556,2405.578c11.973,7.043,29.944-5.605,56.1.577h.024a29.081,29.081,0,0,0-2.557-6.416h-32.488v.442l-19.2-.418-.6-.024s-.037.2-.135.553v.013C4054.5,2401.164,4054.085,2402.984,4053.556,2405.578Z" transform="translate(-4025.065 -2399.739)" fill="#51383c"/>
                <path id="Path_17287" data-name="Path 17287" d="M4194.981,2690.214c3.651-10.387,6.785-20.245,8.039-28.272,0,0-4.979-27.78-4.991-46.686Z" transform="translate(-4149.785 -2589.8)" fill="#51383c"/>
              </g>
              <path id="Path_17288" data-name="Path 17288" d="M4410.188,2550.736c.32,1.327.6,2.618.873,3.835,1.029,4.726,20.045,4.766,19.3,0-3.958-25.973-4.143-91.38-4.143-91.38s4.462-47.546-4.585-63.452h-1.365c-.7,3.529-.5,1.094-1.328,60.711-.171,12.181-.344,24.387.8,36.507,3.7,39.669,7.681,39.721,7.006,46.588-.319,3.27-2.311,6.613-5.495,7.412-2.5.639-5.089-.393-7.658-.664A7.676,7.676,0,0,0,4410.188,2550.736Z" transform="translate(-4339.572 -2399.739)" fill="#51383c"/>
            </g>
          </g>
          <g id="Group_9685" data-name="Group 9685">
            <path id="Path_17289" data-name="Path 17289" d="M4155.892,1358.1c-.3,2.267.578,4.243,1.958,4.425s2.741-1.5,3.039-3.766-.577-4.251-1.957-4.433S4156.191,1355.829,4155.892,1358.1Z" transform="translate(-4087.429 -1332.022)" fill="#497bfd"/>
            <path id="Path_17290" data-name="Path 17290" d="M3606.1,1548.835s-4.356,1.063-.894,3.955c0,0-3.753.887-.671,3.685,0,0-2.459,1.734.312,3.905,1.232.979,2.054,1.773,3.017,2.529h.012a16.534,16.534,0,0,0,3.69,2.111,3.107,3.107,0,0,1,1.838,2.268c1.335,7.231,7.023,35.9,14.066,39.814,8.071,4.491,23.373-9.133,23.373-9.133l-8.433-11.541-1.841-2.531-5.8,5.171c.337-3.138-4.072-9.224-7.052-12.189s-4.519-16.156-4.519-16.156-3.028-8.686-8.667-12.186C3612.027,1547.605,3609.084,1548.156,3606.1,1548.835Z" transform="translate(-3600.182 -1502.872)" fill="#f6a285"/>
            <path id="Path_17291" data-name="Path 17291" d="M3584.967,1505.016c-1.791-.584-9.285-6.713-8.126-8.608.9-1.474,11.563,4.235,14.5,6.624C3593.215,1504.557,3587.209,1505.746,3584.967,1505.016Z" transform="translate(-3576.72 -1457.125)" fill="#f6a285"/>
            <path id="Path_17292" data-name="Path 17292" d="M3641.9,1673.5a16.521,16.521,0,0,0,3.69,2.11,3.107,3.107,0,0,1,1.837,2.268c1.335,7.231,7.023,35.9,14.066,39.814,8.071,4.49,23.374-9.133,23.374-9.133l-8.433-11.541a10.235,10.235,0,0,0-2.342,1.068c-2.323,1.445-3.973,4.273-3.318,6.918.528,2.071,2.346,3.974,1.749,6.027s-3.176,2.662-5.3,2.923c-2.047.242-4.553.283-5.646-1.46-1.227-1.942.329-4.389.621-6.68.369-2.772-1.224-5.42-3-7.582s-3.852-4.214-4.782-6.857c-1.468-4.152.213-8.992-1.539-13.029a8.379,8.379,0,0,0-5.086-4.579C3645.82,1673.143,3643.863,1673.656,3641.9,1673.5Z" transform="translate(-3634.2 -1613.465)" fill="url(#linear-gradient-4)"/>
            <path id="Path_17293" data-name="Path 17293" d="M3962.8,1644.184h-7.259v2.268l-7.681.183s1.3,6.766,2.542,15.305c2.249,15.361,4.315,36.517-1.719,34.524-26.186-8.686-57.455,4.827-55.846-.969a34.692,34.692,0,0,0,.713-7.186c.4-16-2.414-49.08-2.286-49.9a9.377,9.377,0,0,1-3.292,3.511,2.525,2.525,0,0,1-1.243.476c-4.937.073-15.616-8.192-15.635-13.386v-.018a3.341,3.341,0,0,1,.128-.969c.219-.695.457-1.372.731-2.066a43.941,43.941,0,0,1,15.689-20.225c6.737-4.576,19.165-7.5,27.192-7.936,1.948-.1,17.158-1.113,19.529.073,6.887,1.379,18.9,8.261,23.443,14.921,1.062,1.419,1.917,5.738,2.249,7.479C3961.539,1628.165,3962.472,1639.576,3962.8,1644.184Z" transform="translate(-3836.325 -1546.305)" fill="#6eb854"/>
            <path id="Path_17294" data-name="Path 17294" d="M3873.427,1628.487a41.877,41.877,0,0,1,15.229-19.17c5.553-3.777,14.561-6.2,21.222-7.257,5.37-.865,21.482-1.758,25.5-.611,7.185,1.568,18.929,8.314,23.442,14.925,2.664,3.917,4.272,22.86,4.726,27.882h1.309c-.336-4.614-1.271-16.023-2.743-23.916-.363-1.934-1.154-5.862-2.245-7.494-4.472-6.549-16.152-13.313-23.38-14.913-.025,0-.037-.012-.062-.012-3.85-1.1-15.755-.258-19.526-.062-7.827.4-20.462,3.351-27.2,7.93a41.4,41.4,0,0,0-16.14,21.714A3.5,3.5,0,0,0,3873.427,1628.487Z" transform="translate(-3838.38 -1546.368)" fill="#438829"/>
            <path id="Path_17295" data-name="Path 17295" d="M4051.626,1715.543c-2.07,7.153-7.1,20.659-10.711,27.171A58.433,58.433,0,0,0,4051.626,1715.543Z" transform="translate(-3986.085 -1650.587)" fill="#438829"/>
            <path id="Path_17296" data-name="Path 17296" d="M4110.567,2179.115c-26.186-8.686-57.455,4.827-55.845-.969a34.7,34.7,0,0,0,.713-7.187,3.851,3.851,0,0,1,.457-.073c7.191-.913,14.39,3.432,21.5,1.847,5.76-1.281,10.807-6.382,16.622-5.34,3.987.7,7.26,4.242,11.3,4.078,5.013-.216,9.155-5.9,6.583-13.824-1.472-4.62-4.521-7.285-3.419-9.746a6.52,6.52,0,0,1,3.8-3.31C4114.536,2159.951,4116.6,2181.108,4110.567,2179.115Z" transform="translate(-3998.208 -2028.956)" fill="#438829"/>
            <path id="Path_17297" data-name="Path 17297" d="M3871.073,1843v.012c.025,5.187,10.7,13.454,15.649,13.38a2.576,2.576,0,0,0,1.234-.462,10.752,10.752,0,0,0-3.554-3.554,52.614,52.614,0,0,0-5.387-2.819,16.4,16.4,0,0,1-4.962-3.441,7.793,7.793,0,0,1-1.97-3.779c-.112-.6.05-1.646-.15-2.381-.274.7-.511,1.384-.723,2.057A3.179,3.179,0,0,0,3871.073,1843Z" transform="translate(-3836.304 -1760.309)" fill="#438829"/>
            <g id="Group_9684" data-name="Group 9684" transform="translate(45.505 96.144)">
              <path id="Path_17298" data-name="Path 17298" d="M3961.972,1981.795l2.564,33.971a2.062,2.062,0,0,0,1.953,1.9l24.747.883a2.062,2.062,0,0,0,2.16-2.215l-2.564-33.971a2.063,2.063,0,0,0-1.953-1.9l-24.746-.883A2.063,2.063,0,0,0,3961.972,1981.795Z" transform="translate(-3961.966 -1979.577)" fill="#4c5c75"/>
              <path id="Path_17299" data-name="Path 17299" d="M4059.208,2109.5a4.306,4.306,0,0,1-3.2-4.005c1.585.856,3.366.1,3.364-1.8a4.453,4.453,0,0,1,2.375,3.331A2.071,2.071,0,0,1,4059.208,2109.5Z" transform="translate(-4044.888 -2089.032)" fill="#111d33"/>
              <path id="Path_17300" data-name="Path 17300" d="M4175.419,1986.319l1.7.085a2.064,2.064,0,0,1,1.957,1.91l2.563,33.969a2.063,2.063,0,0,1-2.159,2.219l-1.529-.081a2.062,2.062,0,0,0,1.845-2.206l-2.571-33.969a2.056,2.056,0,0,0-1.8-1.889Z" transform="translate(-4150.205 -1985.523)" fill="#111d33"/>
            </g>
            <path id="Path_17301" data-name="Path 17301" d="M4192.636,1598.375l4.219,18.095a.62.62,0,0,0,1.03.308l19.941-19C4214.813,1596.571,4197.221,1597.632,4192.636,1598.375Z" transform="translate(-4119.884 -1546.25)" fill="#438829"/>
            <path id="Path_17302" data-name="Path 17302" d="M4152.016,1269.946s-1.932,2.9.755,7.58l5.892-7.133Z" transform="translate(-4083.469 -1257.623)" fill="#894852"/>
            <path id="Path_17303" data-name="Path 17303" d="M4219.838,1433.5v20.054l2.523,13.451a.427.427,0,0,0,.716.228c14.92-14.451,13.993-13.369,13.993-13.957V1433.5Z" transform="translate(-4143.874 -1401.859)" fill="#f6a285"/>
            <path id="Path_17304" data-name="Path 17304" d="M4148.551,1307.5c4.241,2.459,16.493-.288,19.807-1.724,1.525-.665,2.411-1.13,2.411-1.13l1.045-4.385c.131-.2,8.692-6.168,2.851-10.125l1.155-9.81c-11.2-3.184-21.918-6.206-27.147-1.844C4148.673,1278.486,4141.165,1303.221,4148.551,1307.5Z" transform="translate(-4078.14 -1263.235)" fill="url(#linear-gradient-5)"/>
            <path id="Path_17305" data-name="Path 17305" d="M4151.63,1172.788c-.125,3.5.142,5.532.9,7.172,2.483,5.438,17.622,4.161,17.238,6.064-.7,3.456,1.167,4.5,2.787,5.7s-2.1,6.408-.541,7.4c.831.533,2.82-2.723,2.82-2.723s2.733-5.339,5.624-3.634c2.531,1.511.385,6.25-1.806,8.857,5.491-5.117,14.443-16.109,7.829-19.758l0-.01a.085.085,0,0,0,.021-.045l.009,0c2.025-3.89,1.427-7.126-1.11-9.542-5.14-4.9-16.974-9.159-29.22-4.9-.309.094-.613.209-.917.324A5.271,5.271,0,0,0,4151.63,1172.788Z" transform="translate(-4083.696 -1165.622)" fill="#894852"/>
            <path id="Path_17306" data-name="Path 17306" d="M4178.573,1428.254c.074-.024.127.071.082.154a2.552,2.552,0,0,1-1.046,1.077,1.153,1.153,0,0,1-1.4-.148c-.4-.465-.562-1.28-.228-1.389.243-.079.444.652.7.74A2.061,2.061,0,0,0,4178.573,1428.254Z" transform="translate(-4105.04 -1396.957)" fill="#e17659"/>
            <path id="Path_17307" data-name="Path 17307" d="M4357.824,1417.423c1-1.984,3.038-2.865,4.627-1.419a.153.153,0,0,1-.206.228c-1.436-1.3-3.2-.484-4.118,1.283a1.376,1.376,0,0,1,1.41.129c.482.288.542.639.411.878a.154.154,0,0,1-.269-.148c.19-.349-1.028-1.1-1.728-.392-.007.008-.02,0-.028.005-.574,1.381-.445,1.758-.719,1.684l-.026-.01a.152.152,0,0,1-.081-.179" transform="translate(-4264.915 -1385.798)" fill="#e17659"/>
            <path id="Path_17308" data-name="Path 17308" d="M4229.16,1403.2a.953.953,0,1,1-.71-1.145A.951.951,0,0,1,4229.16,1403.2Z" transform="translate(-4150.437 -1374.102)" fill="#111d33"/>
            <path id="Path_17309" data-name="Path 17309" d="M4219.768,1400.714a.072.072,0,0,0,.033.028c.631-.037,1.24-.069,1.864-.118.362.343.687.717,1.07,1.055a4.492,4.492,0,0,0,1.409.76.035.035,0,0,0,.046-.028c0-.01,0-.019,0-.021a4.26,4.26,0,0,0-.994-1.254c-.413-.335-.864-.6-1.281-.917l-.026-.016a.237.237,0,0,0-.159-.038c-.647.151-1.293.333-1.937.505A.042.042,0,0,0,4219.768,1400.714Z" transform="translate(-4143.81 -1372.458)" fill="#111d33"/>
            <path id="Path_17310" data-name="Path 17310" d="M4158.457,1385.223a.952.952,0,1,1-.71-1.145A.951.951,0,0,1,4158.457,1385.223Z" transform="translate(-4088.085 -1358.252)" fill="#111d33"/>
            <path id="Path_17311" data-name="Path 17311" d="M4158.935,1389.325a.248.248,0,1,1-.186-.3A.248.248,0,0,1,4158.935,1389.325Z" transform="translate(-4089.732 -1362.632)" fill="#fbfbfb"/>
            <path id="Path_17312" data-name="Path 17312" d="M4230.556,1406.4a.249.249,0,1,1-.185-.3A.247.247,0,0,1,4230.556,1406.4Z" transform="translate(-4152.892 -1377.689)" fill="#fbfbfb"/>
            <path id="Path_17313" data-name="Path 17313" d="M4149.076,1382.752c0,.021.012.033.033.028.619-.03,1.248-.058,1.871-.107.362.343.688.717,1.054,1.041a4.4,4.4,0,0,0,1.416.771.04.04,0,0,0,.046-.029.037.037,0,0,0,0-.03,4.569,4.569,0,0,0-.995-1.253c-.416-.326-.875-.594-1.293-.91l-.017-.014a.194.194,0,0,0-.159-.038c-.647.152-1.293.333-1.937.506A.024.024,0,0,0,4149.076,1382.752Z" transform="translate(-4081.467 -1356.625)" fill="#111d33"/>
            <path id="Path_17314" data-name="Path 17314" d="M4216.849,1360.583c-1.736.375-1.354,2.331.2,2.2.616-.053,2.932-1.048,5,.932a2.538,2.538,0,0,0,.66.536.652.652,0,0,0,.785-.171C4224.33,1363.029,4220.189,1359.86,4216.849,1360.583Z" transform="translate(-4140.229 -1337.461)" fill="#111d33"/>
            <path id="Path_17315" data-name="Path 17315" d="M4150.381,1348.055a1.118,1.118,0,0,1,.5.945.9.9,0,0,1-.606.748c-.625.185-1.15-.4-1.559-.724-1.785-1.4-3.513-.433-3.963-.456a.533.533,0,0,1-.51-.415C4144.012,1347.051,4148.239,1346.318,4150.381,1348.055Z" transform="translate(-4077.196 -1325.591)" fill="#111d33"/>
            <path id="Path_17316" data-name="Path 17316" d="M4158.588,1465.676a.2.2,0,0,0-.322.12,2.486,2.486,0,0,0,4.834,1.137.2.2,0,0,0-.227-.255A5.639,5.639,0,0,1,4158.588,1465.676Z" transform="translate(-4089.556 -1430.196)" fill="#e17659"/>
            <path id="Path_17317" data-name="Path 17317" d="M4151.63,1185.824c-.125,3.5.142,5.531.9,7.172,2.483,5.438,17.622,4.161,17.238,6.064-.7,3.456,1.167,4.5,2.787,5.7s-2.1,6.408-.541,7.4c.831.533,2.82-2.723,2.82-2.723s2.733-5.339,5.624-3.634c2.531,1.511.385,6.25-1.806,8.857a51.316,51.316,0,0,0,7-8.1,7.216,7.216,0,0,0-6.5-3.631,15.539,15.539,0,0,1-2.26.123,2.145,2.145,0,0,1-1.817-1.154c-.337-.86.169-1.786.477-2.66,1.151-3.3-.949-7.076-4.006-8.781s-6.751-1.778-10.224-1.372c-2.023.248-4.457.477-5.736-1.111a4.546,4.546,0,0,1-.415-4.057c.3-1.093,1.13-2.336,1.005-3.511-.309.094-.613.209-.917.324A5.271,5.271,0,0,0,4151.63,1185.824Z" transform="translate(-4083.696 -1178.658)" fill="#51383c"/>
            <path id="Path_17318" data-name="Path 17318" d="M4394.3,1301.562a8.218,8.218,0,0,1,6.211-1.836.084.084,0,0,0,.021-.044l.009,0c.036-.071.073-.141.109-.211A6.15,6.15,0,0,0,4394.3,1301.562Z" transform="translate(-4297.729 -1283.493)" fill="#51383c"/>
            <path id="Path_17319" data-name="Path 17319" d="M4115.455,2011c.212-.025,1.559-.15,1.908-.187-11.784,2.12-4.14,3.205,1.209,2.631-10.649,1.546-4.439,2.968.873,2.693-1.783.262-3.965.711-4.015,1.509-.038.623,1.871,1.2,4.4,1.671.636.112,1.31.224,2.008.337,2.918.436,3.953.448,5.137,1.408,1.583.749,8.953,2,11.771,2.207,13.38,1,26.31-.175,31.5-7.556,3.554-5.075,3.4-15.935,2.232-25.811H4153c-.018,2.756.094,5.459.137,5.985a68.034,68.034,0,0,0,1.272,12.07c-11.872,2.02-19.851,1.6-20.463,1.322-1.259-.561-7.884-5.328-9.8-7.778-.427-.547-1.35-.19-1.35-.19l.509,6.36c-.536.124-12.952,1.634-12.59,2.831C4111.042,2011.589,4114.657,2011.065,4115.455,2011Z" transform="translate(-4047.635 -1892.541)" fill="#f6a285"/>
            <path id="Path_17320" data-name="Path 17320" d="M4187.943,2019.32c.636.112,1.309.224,2.007.337,2.918.436,3.953.448,5.137,1.408,1.584.749,8.953,2,11.771,2.207,13.379,1,26.31-.175,31.5-7.556,3.554-5.075,3.4-15.935,2.232-25.811h-19.477c-.019,2.756.094,5.459.137,5.985.013.012.025.025.038.025a9.057,9.057,0,0,0,5.536.885c2.832-.5,6.331-2.68,9.177-1,2.307,1.36,2.594,4.527,2.631,7.207.037,3.018-.137,6.5-2.519,8.355-1.833,1.421-4.364,1.384-6.659,1.671-5.237.661-9.976,3.267-14.838,5.3s-10.349,3.516-15.337,1.845c-1.559-.523-3.005-1.334-4.551-1.9a7.292,7.292,0,0,0-4.813-.362A4.048,4.048,0,0,0,4187.943,2019.32Z" transform="translate(-4115.746 -1892.541)" fill="url(#linear-gradient-6)"/>
            <path id="Path_17321" data-name="Path 17321" d="M4442.735,1760.087l18.835-1.254c2.436,9.185,4.26,17.226,3.835,27.453-.157,3.769-19.387,4.207-22.087,1.573C4437.9,1782.578,4442.735,1760.087,4442.735,1760.087Z" transform="translate(-4338.692 -1688.763)" fill="#6eb854"/>
            <path id="Path_17322" data-name="Path 17322" d="M4463.774,1787.977c4.212,2.619,21.786,1.757,21.935-1.735.424-10.224-1.4-18.267-3.841-27.457l-2.291.159c2.369,8.99,5.334,16.824,4.922,26.862C4484.362,1788.973,4468.25,1789.124,4463.774,1787.977Z" transform="translate(-4358.996 -1688.721)" fill="#438829"/>
            <path id="Path_17323" data-name="Path 17323" d="M3619.091,1558.995a23.066,23.066,0,0,0,5.381,1.659.783.783,0,0,0,.413,0,.644.644,0,0,0,.342-.564,2.089,2.089,0,0,0-.5-1.474,6.211,6.211,0,0,0-1.186-1.061l-1.975-1.482a6.117,6.117,0,0,0-1.6-.989" transform="translate(-3614.086 -1509.079)" fill="#f6a285"/>
            <path id="Path_17324" data-name="Path 17324" d="M3613.587,1591.051a22,22,0,0,0,5.169,1.87.781.781,0,0,0,.413,0,.645.645,0,0,0,.342-.564,2.086,2.086,0,0,0-.5-1.474,6.2,6.2,0,0,0-1.185-1.061l-1.976-1.482a7.5,7.5,0,0,0-1.778-1.092" transform="translate(-3609.232 -1537.445)" fill="#f6a285"/>
            <path id="Path_17325" data-name="Path 17325" d="M3671.391,1575.7c-4.718-2.832-2.912-9.107-2.912-9.107-3.073-1.115-4.48-1.243-3.921-3.443.68-2.678,6.451-.234,9.457,2.206,1.814,1.472,2.84,4.109,3.23,8.771" transform="translate(-3654.076 -1515.167)" fill="#f6a285"/>
            <path id="Path_17326" data-name="Path 17326" d="M3670.993,1575.161a6.728,6.728,0,0,1-1.893-1.716,6.839,6.839,0,0,1-1.091-2.313,10.671,10.671,0,0,1,.039-5.1l.025.049a29.352,29.352,0,0,1-3.094-1.159,1.654,1.654,0,0,1-.985-1.3,2.613,2.613,0,0,1,.387-1.621,1.938,1.938,0,0,1,1.526-.639,6.045,6.045,0,0,1,1.652.209,14.826,14.826,0,0,1,3.083,1.207c1.9,1.019,3.972,2.242,4.842,4.363a19.213,19.213,0,0,1,1.378,6.435.01.01,0,0,1-.009.011.01.01,0,0,1-.011-.009,19.129,19.129,0,0,0-1.486-6.375c-.9-2.044-2.907-3.221-4.8-4.265a14.647,14.647,0,0,0-3.04-1.209c-1-.235-2.3-.47-3.03.357a2.5,2.5,0,0,0-.372,1.524,1.534,1.534,0,0,0,.915,1.214,30.605,30.605,0,0,0,3.068,1.181.042.042,0,0,1,.025.049,10.611,10.611,0,0,0-.067,5.063,6.788,6.788,0,0,0,1.071,2.3,6.708,6.708,0,0,0,1.875,1.72.01.01,0,0,1,0,.013A.011.011,0,0,1,3670.993,1575.161Z" transform="translate(-3653.684 -1514.618)" fill="#e17659"/>
            <path id="Path_17327" data-name="Path 17327" d="M3604.96,1622.232c1.114,1.115,2.772,1.368,4.323,1.645a.657.657,0,0,0,.345,0,.539.539,0,0,0,.286-.472,1.749,1.749,0,0,0-.417-1.235,5.2,5.2,0,0,0-.993-.888l-1.655-1.242a5.944,5.944,0,0,0-1.413-.943C3604.468,1619.9,3603.8,1621.071,3604.96,1622.232Z" transform="translate(-3601.083 -1565.531)" fill="#f6a285"/>
          </g>
        </g>
      </g>
      <g id="Group_9696" data-name="Group 9696" transform="translate(264.82 268.805)">
        <g id="Group_9691" data-name="Group 9691" transform="translate(47.715)">
          <g id="Group_9688" data-name="Group 9688" transform="translate(29.163)">
            <path id="Path_17328" data-name="Path 17328" d="M3272.838,2801.447a.991.991,0,0,1-.992-.992V2779.18a13.518,13.518,0,0,0-27.036,0v21.275a.992.992,0,0,1-1.984,0V2779.18a15.5,15.5,0,0,1,31,0v21.275A.991.991,0,0,1,3272.838,2801.447Z" transform="translate(-3242.826 -2763.678)" fill="#111d33"/>
          </g>
          <rect id="Rectangle_814" data-name="Rectangle 814" width="8.699" height="83.264" transform="translate(64.512 23.086)" fill="#ffd475"/>
          <g id="Group_9689" data-name="Group 9689" transform="translate(0 23.081)">
            <path id="Path_17329" data-name="Path 17329" d="M3060.442,2959.127v83.264h-59.447a5.066,5.066,0,0,1-5.065-5.066v-73.133a5.065,5.065,0,0,1,5.065-5.066Z" transform="translate(-2995.93 -2959.121)" fill="#fd9"/>
            <path id="Path_17330" data-name="Path 17330" d="M3624.67,2964.166v73.125a4.878,4.878,0,0,1-1.107,3.113,5,5,0,0,1-3.978,1.937h-3.909v-83.26h3.909A5.092,5.092,0,0,1,3624.67,2964.166Z" transform="translate(-3542.473 -2959.081)" fill="#ffb961"/>
          </g>
          <path id="Path_17331" data-name="Path 17331" d="M3558.741,3547.869a5,5,0,0,1-3.978,1.938h-12.591l8.682-14.978.173-.312Z" transform="translate(-3477.65 -3443.466)" fill="#ef9645"/>
          <g id="Group_9690" data-name="Group 9690" transform="translate(18.205)">
            <path id="Path_17332" data-name="Path 17332" d="M3180.062,2801.447a.991.991,0,0,1-.992-.992V2779.18a13.518,13.518,0,0,0-27.036,0v21.275a.992.992,0,0,1-1.984,0V2779.18a15.5,15.5,0,0,1,31,0v21.275A.991.991,0,0,1,3180.062,2801.447Z" transform="translate(-3150.05 -2763.678)" fill="#111d33"/>
          </g>
          <path id="Path_17333" data-name="Path 17333" d="M3141.923,3267.667c0,8.276-9.268,14.992-20.69,14.992s-20.691-6.717-20.691-14.992,9.268-14.994,20.691-14.994S3141.923,3259.39,3141.923,3267.667Z" transform="translate(-3088.185 -3194.913)" fill="#ffb961"/>
        </g>
        <g id="Group_9695" data-name="Group 9695" transform="translate(0 37.974)">
          <g id="Group_9692" data-name="Group 9692" transform="translate(20.502)">
            <path id="Path_17334" data-name="Path 17334" d="M2787.219,3112.655a.991.991,0,0,1-.992-.992V3096.5a9.351,9.351,0,0,0-18.7,0v15.164a.992.992,0,1,1-1.984,0V3096.5a11.335,11.335,0,0,1,22.669,0v15.164A.992.992,0,0,1,2787.219,3112.655Z" transform="translate(-2765.542 -3085.164)" fill="#111d33"/>
          </g>
          <rect id="Rectangle_815" data-name="Rectangle 815" width="6.2" height="51.636" transform="translate(45.983 16.74)" fill="#df3260"/>
          <g id="Group_9693" data-name="Group 9693" transform="translate(0 16.736)">
            <path id="Path_17335" data-name="Path 17335" d="M2637.957,3226.886v51.636h-42.372a3.61,3.61,0,0,1-3.61-3.61V3230.5a3.61,3.61,0,0,1,3.61-3.611Z" transform="translate(-2591.975 -3226.883)" fill="#f45170"/>
            <path id="Path_17336" data-name="Path 17336" d="M3040.122,3230.477v44.409a3.48,3.48,0,0,1-.789,2.219,3.564,3.564,0,0,1-2.835,1.381h-2.786v-51.633h2.786A3.63,3.63,0,0,1,3040.122,3230.477Z" transform="translate(-2981.534 -3226.853)" fill="#f45170"/>
          </g>
          <path id="Path_17337" data-name="Path 17337" d="M2993.131,3581.241a3.564,3.564,0,0,1-2.835,1.381h-8.975l6.188-10.675.124-.222Z" transform="translate(-2935.332 -3514.252)" fill="#d12057"/>
          <g id="Group_9694" data-name="Group 9694" transform="translate(12.69)">
            <path id="Path_17338" data-name="Path 17338" d="M2721.082,3112.655a.991.991,0,0,1-.992-.992V3096.5a9.35,9.35,0,0,0-18.7,0v15.164a.992.992,0,1,1-1.984,0V3096.5a11.334,11.334,0,0,1,22.669,0v15.164A.992.992,0,0,1,2721.082,3112.655Z" transform="translate(-2699.405 -3085.164)" fill="#111d33"/>
          </g>
          <path id="Path_17339" data-name="Path 17339" d="M2696.033,3381.518c0,5.9-6.606,10.686-14.747,10.686s-14.748-4.787-14.748-10.686,6.606-10.687,14.748-10.687S2696.033,3375.619,2696.033,3381.518Z" transform="translate(-2657.731 -3337.088)" fill="#d12057"/>
        </g>
      </g>
      <g id="Group_9727" data-name="Group 9727" transform="translate(0 160.045)">
        <g id="Group_9704" data-name="Group 9704" transform="translate(87.368 13.053)">
          <path id="Path_17340" data-name="Path 17340" d="M1504.107,2529.969l2.514,24.509H1471.56l-2.514-24.509Z" transform="translate(-1424.233 -2461.867)" fill="#8eb6ff"/>
          <path id="Path_17341" data-name="Path 17341" d="M1504.107,2529.969l2.514,24.509H1471.56l-2.514-24.509Z" transform="translate(-1424.233 -2461.867)" fill="#8eb6ff"/>
          <path id="Path_17342" data-name="Path 17342" d="M1509.881,2587.443l-.584-5.692h-35.061l.584,5.692Z" transform="translate(-1428.81 -2507.533)" fill="#497bfd"/>
          <path id="Path_17343" data-name="Path 17343" d="M1450.757,2722.912h0a1.972,1.972,0,0,1-1.972,1.972h-41.114a1.972,1.972,0,0,1-1.972-1.972h0a1.972,1.972,0,0,1,1.972-1.972h41.114A1.972,1.972,0,0,1,1450.757,2722.912Z" transform="translate(-1368.369 -2630.281)" fill="#497bfd"/>
          <path id="Path_17344" data-name="Path 17344" d="M1233.821,1959.223l-4.274,64.571a6.251,6.251,0,0,1-6.165,5.807H1121.531a5.416,5.416,0,0,1-5.475-5.807l4.274-64.571a6.251,6.251,0,0,1,6.165-5.807h101.851A5.416,5.416,0,0,1,1233.821,1959.223Z" transform="translate(-1112.928 -1953.417)" fill="#497bfd"/>
          <path id="Path_17345" data-name="Path 17345" d="M1207.434,1959.223l-4.274,64.571a6.251,6.251,0,0,1-6.165,5.807H1095.144a5.416,5.416,0,0,1-5.475-5.807l4.275-64.571a6.25,6.25,0,0,1,6.165-5.807h101.851A5.416,5.416,0,0,1,1207.434,1959.223Z" transform="translate(-1089.658 -1953.417)" fill="#8eb6ff"/>
          <path id="Path_17346" data-name="Path 17346" d="M1110.5,2039.981l4.1-61.616a5.294,5.294,0,0,1,5.222-4.918h98.889a4.588,4.588,0,0,1,4.637,4.918l-4.1,61.616a5.294,5.294,0,0,1-5.222,4.918h-98.889A4.587,4.587,0,0,1,1110.5,2039.981Z" transform="translate(-1108.03 -1971.081)" fill="#fff"/>
          <path id="Path_17347" data-name="Path 17347" d="M1186.678,2023.854l-.354,5.92a1.021,1.021,0,0,1-1.015.938h-5.951a.993.993,0,0,1-1-1.061l.354-5.92a1.023,1.023,0,0,1,1.015-.953h5.951A1,1,0,0,1,1186.678,2023.854Z" transform="translate(-1167.879 -2014.585)" fill="#8eb6ff"/>
          <path id="Path_17348" data-name="Path 17348" d="M1184.1,2125.3l-.354,5.92a1.021,1.021,0,0,1-1.015.938h-5.951a.994.994,0,0,1-1-1.061l.354-5.92a1.023,1.023,0,0,1,1.015-.953h5.951A1,1,0,0,1,1184.1,2125.3Z" transform="translate(-1165.604 -2104.046)" fill="#f35170"/>
          <path id="Path_17349" data-name="Path 17349" d="M1184.1,2233.415l-.354,5.92a1.021,1.021,0,0,1-1.015.938h-5.951a.994.994,0,0,1-1-1.061l.354-5.92a1.023,1.023,0,0,1,1.015-.954h5.951A1,1,0,0,1,1184.1,2233.415Z" transform="translate(-1165.604 -2199.393)" fill="#6eb954"/>
          <g id="Group_9700" data-name="Group 9700" transform="translate(24.797 9.914)">
            <g id="Group_9697" data-name="Group 9697">
              <rect id="Rectangle_816" data-name="Rectangle 816" width="45.773" height="1.573" fill="#f8f7fc"/>
              <rect id="Rectangle_817" data-name="Rectangle 817" width="31.165" height="1.573" transform="translate(0 4.002)" fill="#f8f7fc"/>
            </g>
            <g id="Group_9698" data-name="Group 9698" transform="translate(0 11.569)">
              <rect id="Rectangle_818" data-name="Rectangle 818" width="45.773" height="1.573" fill="#f8f7fc"/>
              <rect id="Rectangle_819" data-name="Rectangle 819" width="31.165" height="1.573" transform="translate(0 4.002)" fill="#f8f7fc"/>
            </g>
            <g id="Group_9699" data-name="Group 9699" transform="translate(0 24.34)">
              <rect id="Rectangle_820" data-name="Rectangle 820" width="30.58" height="1.573" fill="#f8f7fc"/>
              <rect id="Rectangle_821" data-name="Rectangle 821" width="20.82" height="1.573" transform="translate(0 4.002)" fill="#f8f7fc"/>
            </g>
          </g>
          <g id="Group_9701" data-name="Group 9701" transform="translate(12.807 10.793)">
            <path id="Path_17350" data-name="Path 17350" d="M1198.8,2047.045l-.595-.864a.694.694,0,0,1,1.143-.787l.2.291,1.11-.768a.694.694,0,1,1,.79,1.141l-1.682,1.165A.693.693,0,0,1,1198.8,2047.045Z" transform="translate(-1198.084 -2044.793)" fill="#fff"/>
          </g>
          <g id="Group_9702" data-name="Group 9702" transform="translate(12.807 22.385)">
            <path id="Path_17351" data-name="Path 17351" d="M1198.8,2145.178l-.595-.864a.694.694,0,1,1,1.143-.787l.2.291,1.11-.768a.694.694,0,1,1,.79,1.141l-1.682,1.164A.693.693,0,0,1,1198.8,2145.178Z" transform="translate(-1198.084 -2142.926)" fill="#fff"/>
          </g>
          <g id="Group_9703" data-name="Group 9703" transform="translate(12.807 35.302)">
            <path id="Path_17352" data-name="Path 17352" d="M1198.8,2254.539l-.595-.864a.694.694,0,1,1,1.143-.786l.2.291,1.11-.769a.694.694,0,1,1,.79,1.142l-1.682,1.164A.693.693,0,0,1,1198.8,2254.539Z" transform="translate(-1198.084 -2252.286)" fill="#fff"/>
          </g>
        </g>
        <g id="Group_9709" data-name="Group 9709" transform="translate(1.284 107.656)">
          <rect id="Rectangle_822" data-name="Rectangle 822" width="238.099" height="15.256" fill="#be7d5a"/>
          <rect id="Rectangle_823" data-name="Rectangle 823" width="72.407" height="15.256" transform="translate(165.693)" fill="#a96256"/>
          <g id="Group_9705" data-name="Group 9705" transform="translate(10.875 15.256)">
            <rect id="Rectangle_824" data-name="Rectangle 824" width="15.903" height="104.038" fill="#be7d5a"/>
            <rect id="Rectangle_825" data-name="Rectangle 825" width="6.703" height="104.038" fill="#a96256"/>
          </g>
          <g id="Group_9706" data-name="Group 9706" transform="translate(213.039 15.256)">
            <rect id="Rectangle_826" data-name="Rectangle 826" width="15.903" height="104.038" fill="#be7d5a"/>
            <rect id="Rectangle_827" data-name="Rectangle 827" width="6.703" height="104.038" fill="#a96256"/>
          </g>
          <g id="Group_9707" data-name="Group 9707" transform="translate(173.912 15.256)">
            <rect id="Rectangle_828" data-name="Rectangle 828" width="15.903" height="104.038" fill="#be7d5a"/>
            <rect id="Rectangle_829" data-name="Rectangle 829" width="6.703" height="104.038" fill="#a96256"/>
          </g>
          <g id="Group_9708" data-name="Group 9708" transform="translate(57.273 15.256)">
            <rect id="Rectangle_830" data-name="Rectangle 830" width="15.903" height="104.038" fill="#be7d5a"/>
            <rect id="Rectangle_831" data-name="Rectangle 831" width="6.703" height="104.038" fill="#a96256"/>
          </g>
        </g>
        <g id="Group_9726" data-name="Group 9726">
          <g id="Group_9718" data-name="Group 9718" transform="translate(54.036 120.269)">
            <g id="Group_9713" data-name="Group 9713" transform="translate(24.375 87.435)">
              <path id="Path_17353" data-name="Path 17353" d="M1034.422,3602.41l-11.037-1.073-.171,12.3,10.781.15A24.563,24.563,0,0,1,1034.422,3602.41Z" transform="translate(-1022.105 -3601.337)" fill="#f6a285"/>
              <path id="Path_17354" data-name="Path 17354" d="M1046.439,3646.541a.8.8,0,0,1-.813.741l-31.01-.431a.8.8,0,0,1-.791-.813l.129-9.295a2.406,2.406,0,0,1,3.522-2.024,6.52,6.52,0,0,0,3.229,1.048,4.081,4.081,0,0,0,3.538-1.923c.427-.613.728-1.829,2.349-1.807,1.454.02,5.888,4.646,9.233,5.763a4.079,4.079,0,0,0,1.016.248c2.321.233,6.361.641,8.395,3.511A7.778,7.778,0,0,1,1046.439,3646.541Z" transform="translate(-1013.825 -3628.411)" fill="#ffd375"/>
              <path id="Path_17355" data-name="Path 17355" d="M1046.338,3730.78a9.751,9.751,0,0,1,.151,2.443.8.8,0,0,1-.809.739l-31.008-.43a.793.793,0,0,1-.781-.8l.033-2.4Z" transform="translate(-1013.883 -3715.094)" fill="#df8236"/>
              <path id="Path_17356" data-name="Path 17356" d="M1047.812,3680.918a2.256,2.256,0,1,0,2.287-2.224A2.257,2.257,0,0,0,1047.812,3680.918Z" transform="translate(-1043.798 -3669.556)" fill="#df8236"/>
              <g id="Group_9710" data-name="Group 9710" transform="translate(13.432 4.266)">
                <path id="Path_17357" data-name="Path 17357" d="M1128.12,3640.37a.573.573,0,0,1-.358-.129.584.584,0,0,1-.09-.823l1.405-1.747a.585.585,0,0,1,.912.734l-1.4,1.747A.586.586,0,0,1,1128.12,3640.37Z" transform="translate(-1127.543 -3637.453)" fill="#df8236"/>
              </g>
              <g id="Group_9711" data-name="Group 9711" transform="translate(15.557 5.703)">
                <path id="Path_17358" data-name="Path 17358" d="M1146.108,3652.536a.578.578,0,0,1-.358-.129.585.585,0,0,1-.09-.823l1.4-1.748a.586.586,0,0,1,.912.735l-1.4,1.747A.586.586,0,0,1,1146.108,3652.536Z" transform="translate(-1145.531 -3649.619)" fill="#df8236"/>
              </g>
              <g id="Group_9712" data-name="Group 9712" transform="translate(17.601 7.241)">
                <path id="Path_17359" data-name="Path 17359" d="M1163.414,3665.553a.575.575,0,0,1-.359-.129.585.585,0,0,1-.09-.823l1.405-1.748a.586.586,0,0,1,.912.735l-1.4,1.747A.583.583,0,0,1,1163.414,3665.553Z" transform="translate(-1162.836 -3662.637)" fill="#df8236"/>
              </g>
              <path id="Path_17360" data-name="Path 17360" d="M1209.5,3684.588a6.518,6.518,0,0,1-3.221.792,6.584,6.584,0,0,1-6.19-4.55,4.079,4.079,0,0,0,1.016.247C1203.424,3681.309,1207.465,3681.717,1209.5,3684.588Z" transform="translate(-1178.086 -3671.439)" fill="#df8236"/>
            </g>
            <path id="Path_17361" data-name="Path 17361" d="M845,2989.34c-.053,1.087-4.229,1.365-8.02,1.06-3.168-.239-6.072-.888-6.018-1.8l-3.221-51.223-20.269-1.061V2904.9c7.941.636,34.8,6.389,41.109,14.847C861.01,2936.42,845,2989.34,845,2989.34Z" transform="translate(-807.467 -2899.724)" fill="#894852"/>
            <g id="Group_9717" data-name="Group 9717" transform="translate(61.308 87.858)">
              <path id="Path_17362" data-name="Path 17362" d="M1337.583,3604.921l-11.079.49,1.561,12.2,10.7-1.368A24.558,24.558,0,0,1,1337.583,3604.921Z" transform="translate(-1326.504 -3604.921)" fill="#f6a285"/>
              <path id="Path_17363" data-name="Path 17363" d="M1360.23,3637.308a.8.8,0,0,1-.7.848l-30.762,3.935a.8.8,0,0,1-.9-.694l-1.18-9.22a2.406,2.406,0,0,1,3.2-2.5,6.52,6.52,0,0,0,3.344.583,4.08,4.08,0,0,0,3.232-2.4c.336-.667.463-1.914,2.072-2.119,1.443-.185,6.483,3.772,9.952,4.407a4.1,4.1,0,0,0,1.041.1c2.331-.1,6.388-.26,8.806,2.3A7.778,7.778,0,0,1,1360.23,3637.308Z" transform="translate(-1326.658 -3623.275)" fill="#ffd375"/>
              <path id="Path_17364" data-name="Path 17364" d="M1366.418,3703.43a9.739,9.739,0,0,1,.493,2.4.8.8,0,0,1-.7.846l-30.761,3.936a.793.793,0,0,1-.887-.687l-.3-2.379Z" transform="translate(-1333.346 -3691.794)" fill="#df8236"/>
              <path id="Path_17365" data-name="Path 17365" d="M1362.818,3682.065a2.256,2.256,0,1,0,1.951-2.523A2.257,2.257,0,0,0,1362.818,3682.065Z" transform="translate(-1358.512 -3670.711)" fill="#df8236"/>
              <g id="Group_9714" data-name="Group 9714" transform="translate(12.954 2.718)">
                <path id="Path_17366" data-name="Path 17366" d="M1436.828,3631.027a.574.574,0,0,1-.372-.077.585.585,0,0,1-.205-.8l1.145-1.928a.586.586,0,0,1,1.006.6l-1.145,1.927A.584.584,0,0,1,1436.828,3631.027Z" transform="translate(-1436.169 -3627.934)" fill="#df8236"/>
              </g>
              <g id="Group_9715" data-name="Group 9715" transform="translate(15.259 3.842)">
                <path id="Path_17367" data-name="Path 17367" d="M1456.349,3640.543a.576.576,0,0,1-.373-.077.585.585,0,0,1-.2-.8l1.145-1.927a.585.585,0,0,1,1.007.6l-1.145,1.928A.584.584,0,0,1,1456.349,3640.543Z" transform="translate(-1455.69 -3637.451)" fill="#df8236"/>
              </g>
              <g id="Group_9716" data-name="Group 9716" transform="translate(17.499 5.077)">
                <path id="Path_17368" data-name="Path 17368" d="M1475.313,3651a.573.573,0,0,1-.373-.078.585.585,0,0,1-.2-.8l1.145-1.927a.586.586,0,0,1,1.006.6l-1.145,1.928A.585.585,0,0,1,1475.313,3651Z" transform="translate(-1474.654 -3647.904)" fill="#df8236"/>
              </g>
              <path id="Path_17369" data-name="Path 17369" d="M1521.213,3665.493a6.513,6.513,0,0,1-3.078,1.237,6.582,6.582,0,0,1-6.769-3.634,4.084,4.084,0,0,0,1.041.1C1514.739,3663.1,1518.8,3662.937,1521.213,3665.493Z" transform="translate(-1489.531 -3656.224)" fill="#df8236"/>
            </g>
            <path id="Path_17370" data-name="Path 17370" d="M936.577,2949.612c0,1.087-4.136,1.578-7.914,1.485-3.208-.079-6.151-.57-6.151-1.485l-5.912-50.985H870.719v-37.516l21.9,6.1s34.547,4.4,42.368,13.813C948.283,2897.01,936.577,2949.612,936.577,2949.612Z" transform="translate(-863.242 -2861.109)" fill="#894852"/>
            <path id="Path_17371" data-name="Path 17371" d="M928.711,2951.109c-3.208-.079-6.151-.57-6.151-1.485l-5.912-50.985H870.766v-37.516l14.463,4.03c-1.286,5.171-3.155,10.526-1.047,15.007,2.121,4.52,7.291,6.84,12.236,7.41s9.969-.2,14.953,0,10.287,1.617,13.389,5.528c3.049,3.844,3.248,9.147,3.314,14.052q.159,10.6.3,21.171Q928.558,2939.715,928.711,2951.109Z" transform="translate(-863.289 -2861.122)" fill="#51383c"/>
            <path id="Path_17372" data-name="Path 17372" d="M836.976,3155.843c-3.168-.239-6.072-.888-6.018-1.8l-3.221-51.223-20.269-1.061v-9.028c4.043.133,8.113-.358,12.17-.2,4.971.2,10.287,1.617,13.389,5.528,3.049,3.844,3.248,9.147,3.314,14.052q.159,10.6.3,21.171Q836.824,3144.555,836.976,3155.843Z" transform="translate(-807.467 -3065.166)" fill="#51383c"/>
          </g>
          <g id="Group_9720" data-name="Group 9720" transform="translate(32.873 159.861)">
            <path id="Path_17373" data-name="Path 17373" d="M837.919,3196.292v9.23a3.567,3.567,0,0,1-3.567,3.567H824.279a3.567,3.567,0,0,1-3.567-3.567v-9.23Z" transform="translate(-797.985 -3196.292)" fill="#111d33"/>
            <g id="Group_9719" data-name="Group 9719" transform="translate(0 12.797)">
              <rect id="Rectangle_832" data-name="Rectangle 832" width="8.86" height="32.613" transform="translate(26.901)" fill="#4c5c75"/>
              <path id="Path_17374" data-name="Path 17374" d="M806.2,3587.934v-3.075a4.128,4.128,0,0,0-4.128-4.128H783.311a4.128,4.128,0,0,0-4.128,4.128v3.075Z" transform="translate(-761.362 -3548.119)" fill="#4c5c75"/>
              <path id="Path_17375" data-name="Path 17375" d="M690.967,3653.285v2.522H628.306v-2.522a11.579,11.579,0,0,1,11.579-11.579h39.5A11.579,11.579,0,0,1,690.967,3653.285Z" transform="translate(-628.306 -3601.892)" fill="#111d33"/>
            </g>
          </g>
          <g id="Group_9725" data-name="Group 9725" transform="translate(26.952)">
            <g id="Group_9724" data-name="Group 9724">
              <g id="Group_9723" data-name="Group 9723">
                <path id="Path_17376" data-name="Path 17376" d="M789.919,1964.559c-.235.587-1.937.27-1.937.27.044.446,1.328,5.223-.482,7.973-1.609,2.4-8.6.6-8.6.6l-.4,3.323-14.573.787s1.562-1.832.4-14.972c-.5-5.742,2.513-9.9,6.423-12.635,5.05-3.546,11.6-4.732,14.044-3.957,2.936.916,3.394,6.329,3.382,9.758v.129c-.012,1.585-.129,2.713-.129,2.713S790.554,1962.974,789.919,1964.559Z" transform="translate(-741.991 -1933.576)" fill="#f6a285"/>
                <path id="Path_17377" data-name="Path 17377" d="M788.158,2002.507a5.414,5.414,0,0,1-.658,1.479c-1.609,2.4-8.6.6-8.6.6l-.4,3.323-14.573.787s1.562-1.832.4-14.972c-.5-5.742,2.513-9.9,6.423-12.635a9.843,9.843,0,0,1,1.761.094c1.468.188.286,1.155,1.425,2.106,1.691,1.433,1.363,3.417,2.466,5.085a9.568,9.568,0,0,1,1.48,6.506c-.211,1.526-.8,3.065-.517,4.58.329,1.738,4.564,2.673,6.314,2.814,1.468.117,3.065-.552,4.357.153A.722.722,0,0,1,788.158,2002.507Z" transform="translate(-741.991 -1964.76)" fill="url(#linear-gradient-7)"/>
                <path id="Path_17378" data-name="Path 17378" d="M643.328,2298.688c-18.991-1.649-40.425,6.26-51.817-.26-6.273-3.583-.3-17.591-.3-26.045,0-15.545-21.917-30.706-8.925-45.668.731-.831,1.475-1.612,2.244-2.331.5-.459.992-.9,1.5-1.326,12.806-10.7,29.566-7.859,29.566-7.859s22.933,8.144,19.5,29.379c-1.971,12.235,6.236,26.479,9.607,40.834.025.087.037.174.062.26C646.489,2293.073,646.3,2298.936,643.328,2298.688Z" transform="translate(-578.173 -2170.923)" fill="#f35170"/>
                <path id="Path_17379" data-name="Path 17379" d="M643.328,2359.914c-18.991-1.649-40.425,6.26-51.817-.26-6.273-3.583-.3-17.591-.3-26.045,0-15.545-21.917-30.706-8.925-45.668.731-.831,1.475-1.612,2.244-2.331.5-.459.992-.9,1.5-1.326a9,9,0,0,1,3.112,5.132c.583,3.359-.322,6.768-.558,10.177a25.69,25.69,0,0,0,6.285,18.471c3.942,4.463,9.681,7.971,10.921,13.8.855,4.054-.768,8.33.149,12.372.893,3.929,4.116,7,7.748,8.739s7.686,2.343,11.665,2.938c17.218,2.525,14.765-5.827,19.351-9.272.025.087.037.174.062.26C646.489,2354.3,646.3,2360.162,643.328,2359.914Z" transform="translate(-578.173 -2232.148)" fill="#de3260"/>
                <g id="Group_9722" data-name="Group 9722" transform="translate(43.7 51.45)">
                  <g id="Group_9721" data-name="Group 9721" transform="translate(54.212 10.73)">
                    <path id="Path_17380" data-name="Path 17380" d="M1407.1,2369.331a6.2,6.2,0,0,1,.631.064C1407.408,2369.374,1407.172,2369.343,1407.1,2369.331Z" transform="translate(-1407.098 -2369.331)" fill="#f6a285"/>
                  </g>
                  <path id="Path_17381" data-name="Path 17381" d="M1006.416,2285.709c-.023.8-1.413.836-2.4.836-.6,0-1.095.035-1.272.035.177.024.695.047,1.272.094,1.013.094,2.2.471,1.907,1.7-.176.73-1.954.99-2.932.907.86.129,2.449.271,2.214,1.424-.13.625-1.048,1.189-2.2,1.684a37.321,37.321,0,0,1-4.957,1.519,15.553,15.553,0,0,0-2.472,1,12.874,12.874,0,0,0-2.484,1.53c-6.864,5.322-23.629,19.791-28.244,17.86-7.841-3.32-16.706-12.715-16.706-12.715l12.432-11.315,8.394,6.193,23.841-10.031s5.3-7.627,6.653-7.851c.247-.047,3.14-.948.316,4.248,0,0,11.025-4.48,11.642-2.909.668,1.7-6.932,4.533-8.169,4.569C1004,2284.485,1006.452,2284.119,1006.416,2285.709Z" transform="translate(-948.139 -2278.488)" fill="#f6a285"/>
                  <path id="Path_17382" data-name="Path 17382" d="M1003.344,2379.565c-.106.247-.212.494-.341.741a37.247,37.247,0,0,1-4.957,1.519,15.582,15.582,0,0,0-2.472,1,12.85,12.85,0,0,0-2.484,1.53c-6.864,5.322-23.629,19.791-28.244,17.86-7.841-3.32-16.706-12.715-16.706-12.715l12.432-11.314,2.225,1.637a9.712,9.712,0,0,0,.495,2.26,4.416,4.416,0,0,1-.236,3.826c-1.517,2.7-4.707,3.619-6.04,5.357a2.819,2.819,0,0,0-.589,2.519c.353,1.143,1.589,1.755,2.731,2.131a21.228,21.228,0,0,0,19.555-3.509c2.672-2.131,4.9-4.956,8.076-6.18,1.86-.707,3.956-.824,5.616-1.9,1.707-1.1,2.708-3.038,4.344-4.239A6.476,6.476,0,0,1,1003.344,2379.565Z" transform="translate(-948.139 -2366.411)" fill="url(#linear-gradient-8)"/>
                </g>
                <path id="Path_17383" data-name="Path 17383" d="M734.763,2173.838c-9.652,2.6-16.921,3.558-21.125,2.689a7.71,7.71,0,0,1-.083-4.626c.564-1.6,1.985-3.123,5.167-3.652,7.193-1.216,13.972,1.292,16.158,3.476C735.468,2172.277,734.763,2173.838,734.763,2173.838Z" transform="translate(-697.274 -2129.54)" fill="#f35170"/>
                <path id="Path_17384" data-name="Path 17384" d="M858.278,2237.53a48.7,48.7,0,0,1,18.091,18.124c1.474,2.657-9.761,13.688-13.187,15.005-4.18,1.608-15.338-9.253-15.338-9.253Z" transform="translate(-815.991 -2190.917)" fill="#f35170"/>
                <path id="Path_17385" data-name="Path 17385" d="M732.123,1854.337c-.682,1.289-2.318,2.541-5.219,3.694,0,0,.484,3.161-3.855,2.641s1.6,8.095-.794,9.285c-2.442,1.23-3.027-6.212-5.64-5.95-2.616.2,1.215,11.863-.769,13.8s-12.793,3.285-15.322.88a9.628,9.628,0,0,1-1.054-1.3c-3.781-5.393-12.371-23.083,1.413-23.789,0,0-4.425-8.454,6.694-10.438C716.743,1841.538,735.421,1848.2,732.123,1854.337Z" transform="translate(-679.736 -1842.91)" fill="#894852"/>
                <path id="Path_17386" data-name="Path 17386" d="M957.307,2028.2c0,1.6-1.094,1.583-1.094,0S957.307,2026.6,957.307,2028.2Z" transform="translate(-911.559 -2005.264)" fill="#111d33"/>
                <path id="Path_17387" data-name="Path 17387" d="M961.054,2037.98c-.256,0-.258-.853,0-.853C961.163,2037.127,961.31,2037.98,961.054,2037.98Z" transform="translate(-915.658 -2014.186)" fill="#fff"/>
                <path id="Path_17388" data-name="Path 17388" d="M734.763,2200.587c-9.652,2.595-16.921,3.558-21.125,2.689a7.712,7.712,0,0,1-.083-4.627c3.212,1.74,6.113,1.137,12.718.575,2.795-.235,5.6-.47,8.361-.963a2.349,2.349,0,0,1,.247.211C735.468,2199.025,734.763,2200.587,734.763,2200.587Z" transform="translate(-697.274 -2156.288)" fill="#de3260"/>
                <path id="Path_17389" data-name="Path 17389" d="M944.537,2010.911a.55.55,0,0,1-.254.531c-.344.2-.739-.076-1.029-.21-1.6-.737-2.467.788-2.781.116-.128-.274.23-.5.377-.613C941.814,2009.967,944.406,2009.983,944.537,2010.911Z" transform="translate(-897.655 -1990.427)" fill="#111d33"/>
                <path id="Path_17390" data-name="Path 17390" d="M949.059,2026.5v.129c-.294-.106-.587-.2-.881-.293a3.5,3.5,0,0,1-1.8.822.025.025,0,0,1-.024-.024v-.011a3.642,3.642,0,0,1,1.738-1.1l.012-.011a.16.16,0,0,1,.106,0C948.5,2026.165,948.777,2026.341,949.059,2026.5Z" transform="translate(-902.868 -2004.376)" fill="#111d33"/>
                <path id="Path_17391" data-name="Path 17391" d="M948.478,2127.446a9.345,9.345,0,0,1-3.112-1.855,7.578,7.578,0,0,0,3.042.375Q948.477,2126.672,948.478,2127.446Z" transform="translate(-901.993 -2092.201)" fill="#e17659"/>
                <path id="Path_17392" data-name="Path 17392" d="M772.674,1932.622s.481,3.159-3.851,2.642,1.6,8.091-.8,9.289-3.018-6.153-5.637-5.954,1.221,11.86-.763,13.8-12.8,3.288-15.324.881a9.547,9.547,0,0,1-1.057-1.3c3.692-.471,7.336,1.587,10.768.34a3.649,3.649,0,0,0,2.619-3.323c-.07-1.279-1.068-2.278-1.644-3.428a5.458,5.458,0,0,1,4.228-7.856c.892-.106,1.937-.059,2.489-.763a1.822,1.822,0,0,0-.657-2.454c-1.561-1.072-4.009-.321-5.355-1.715-1.292-1.338-.387-3.781,1.256-4.65,2.084-1.116,3.864-.678,14.984.763a12.185,12.185,0,0,0,3.969.047C777.218,1930.215,775.575,1931.471,772.674,1932.622Z" transform="translate(-725.509 -1917.504)" fill="#51383c"/>
                <path id="Path_17393" data-name="Path 17393" d="M883.522,2021.127c.735,1.9.31,3.833-.939,4.315s-2.872-.657-3.607-2.559-.313-3.841.946-4.327S882.787,2019.224,883.522,2021.127Z" transform="translate(-843.127 -1997.712)" fill="#f6a285"/>
                <path id="Path_17394" data-name="Path 17394" d="M732.687,1932.735s3.131-.816,7.059,2.805c0,0-7.432-3.31-10.338-2.191A11.044,11.044,0,0,1,732.687,1932.735Z" transform="translate(-711.543 -1922.056)" fill="#51383c"/>
              </g>
            </g>
          </g>
          <path id="Path_17395" data-name="Path 17395" d="M350.146,2418.931l20.217,82.535a5.007,5.007,0,0,0,4.863,3.816H459.1v-3.073a8.559,8.559,0,0,0-7.928-8.536l-24.14-1.7L405.2,2428.463a23.309,23.309,0,0,0-22.042-15.73H355.009A5.007,5.007,0,0,0,350.146,2418.931Z" transform="translate(-350 -2345.426)" fill="#4c5c75"/>
        </g>
      </g>
      <path id="Path_17396" data-name="Path 17396" d="M1014.482,1293.025l-2.413,8.686a1.535,1.535,0,0,0,1.89,1.89l8.962-2.484a26.371,26.371,0,1,0-8.439-8.092Z" transform="translate(-932.158 -1161.869)" fill="#6eb954"/>
      <g id="Group_9728" data-name="Group 9728" transform="translate(96.199 103.383)">
        <path id="Path_17397" data-name="Path 17397" d="M1205.665,1543.156a2.677,2.677,0,1,0,3.785,0A2.66,2.66,0,0,0,1205.665,1543.156Z" transform="translate(-1200.096 -1521.21)" fill="#fff"/>
        <path id="Path_17398" data-name="Path 17398" d="M1172.153,1363.211a11.494,11.494,0,0,0-6.566,1.793,2,2,0,1,0,2,3.448,8.422,8.422,0,0,1,4.276-1.1c4.074,0,4.546,1.9,4.546,3.333,0,1.9-2.352,2.806-4.539,5.093a7.444,7.444,0,0,0-2.062,5.219c0,2.571,4.252,2.565,4.252,0a3.212,3.212,0,0,1,.652-2.067c1.127-1.443,2.778-2.4,4.148-3.806a6.439,6.439,0,0,0,1.873-4.618C1180.736,1365.757,1176.962,1363.211,1172.153,1363.211Z" transform="translate(-1164.422 -1363.211)" fill="#fff"/>
      </g>
      <g id="shopify-icon" transform="translate(150.425 192.897)">
        <path id="Path_16150" data-name="Path 16150" d="M1658.878,2130a.454.454,0,0,0-.405-.378c-.162-.027-3.714-.27-3.714-.27l-2.708-2.708c-.242-.27-.784-.191-.988-.135-.027,0-.54.162-1.381.437-.817-2.364-2.263-4.53-4.81-4.53h-.218a3.147,3.147,0,0,0-2.378-1.383c-5.93.027-8.756,7.422-9.65,11.2l-4.145,1.272c-1.271.406-1.318.437-1.489,1.647l-3.495,26.95,26.2,4.9,14.2-3.061c0-.026-4.985-33.685-5.011-33.944Zm-10.648-2.6c-.659.217-1.41.437-2.22.679v-.491a10.792,10.792,0,0,0-.54-3.592c1.328.2,2.22,1.693,2.76,3.4Zm-4.359-3.088a11.3,11.3,0,0,1,.593,3.97v.243l-4.579,1.41c.9-3.349,2.55-5,3.986-5.624Zm-1.76-1.647a1.4,1.4,0,0,1,.758.242c-1.911.889-3.932,3.136-4.8,7.634l-3.624,1.11c1.022-3.413,3.407-8.994,7.661-8.994Z" transform="translate(-1623.499 -2121.035)" fill="#95bf47"/>
        <path id="Path_16151" data-name="Path 16151" d="M1854.061,2170.309c-.163-.027-3.714-.269-3.714-.269l-2.708-2.709a.541.541,0,0,0-.379-.161l-1.977,40.523,14.2-3.058-5.013-33.919a.488.488,0,0,0-.405-.406Z" transform="translate(-1819.087 -2161.72)" fill="#5e8e3e"/>
        <path id="Path_16152" data-name="Path 16152" d="M1690.9,2254.908l-1.763,5.2a8.16,8.16,0,0,0-3.413-.814c-2.764,0-2.9,1.733-2.9,2.168,0,2.369,6.2,3.278,6.2,8.859,0,4.389-2.79,7.2-6.537,7.2a9.1,9.1,0,0,1-6.8-2.79l1.2-3.986s2.356,2.033,4.362,2.033a1.774,1.774,0,0,0,1.84-1.705c0-.028,0-.056,0-.083,0-3.118-5.093-3.252-5.093-8.346,0-4.282,3.087-8.454,9.291-8.454a7.964,7.964,0,0,1,3.6.711Z" transform="translate(-1669.526 -2238.466)" fill="#fff"/>
      </g>
    </g>
  </g>
</svg>
