<svg xmlns="http://www.w3.org/2000/svg" xmlns:xlink="http://www.w3.org/1999/xlink" width="525" height="397" viewBox="0 0 525 397">
  <defs>
    <clipPath id="clip-path">
      <rect id="Rectangle_887" data-name="Rectangle 887" width="525" height="397" transform="translate(335 1978)" fill="#fff"/>
    </clipPath>
    <linearGradient id="linear-gradient" x1="0.049" y1="0.508" x2="0.572" y2="0.807" gradientUnits="objectBoundingBox">
      <stop offset="0.004" stop-color="#fff"/>
      <stop offset="1" stop-color="#f4f7fa"/>
    </linearGradient>
    <linearGradient id="linear-gradient-2" x1="2.756" y1="0.04" x2="3.339" y2="4.877" gradientUnits="objectBoundingBox">
      <stop offset="0" stop-color="#ff9085"/>
      <stop offset="1" stop-color="#fb6fbb"/>
    </linearGradient>
    <linearGradient id="linear-gradient-3" x1="2.575" y1="-1.48" x2="3.158" y2="3.357" xlink:href="#linear-gradient-2"/>
    <linearGradient id="linear-gradient-4" x1="2.44" y1="-2.615" x2="3.022" y2="2.222" xlink:href="#linear-gradient-2"/>
    <linearGradient id="linear-gradient-5" x1="2.345" y1="-3.413" x2="2.928" y2="1.424" xlink:href="#linear-gradient-2"/>
    <linearGradient id="linear-gradient-6" x1="1.569" y1="0.173" x2="0.639" y2="0.725" gradientUnits="objectBoundingBox">
      <stop offset="0" stop-color="#ffc444"/>
      <stop offset="0.996" stop-color="#f36f56"/>
    </linearGradient>
    <linearGradient id="linear-gradient-7" x1="1.779" y1="0.253" x2="1.008" y2="0.768" xlink:href="#linear-gradient"/>
    <linearGradient id="linear-gradient-8" x1="8.29" y1="10.106" x2="9.23" y2="6.894" gradientUnits="objectBoundingBox">
      <stop offset="0.004" stop-color="#e38ddd"/>
      <stop offset="1" stop-color="#9571f6"/>
    </linearGradient>
    <linearGradient id="linear-gradient-9" x1="8.227" y1="9.301" x2="9.167" y2="6.089" xlink:href="#linear-gradient-8"/>
    <linearGradient id="linear-gradient-10" x1="8.164" y1="8.496" x2="9.104" y2="5.284" xlink:href="#linear-gradient-8"/>
    <linearGradient id="linear-gradient-11" x1="8.101" y1="7.691" x2="9.041" y2="4.479" xlink:href="#linear-gradient-8"/>
    <linearGradient id="linear-gradient-12" x1="1.373" y1="0.255" x2="0.955" y2="0.773" xlink:href="#linear-gradient-8"/>
    <linearGradient id="linear-gradient-13" x1="1.843" y1="0.566" x2="2.083" y2="0.893" xlink:href="#linear-gradient"/>
    <linearGradient id="linear-gradient-14" x1="19.657" y1="-18.268" x2="20.116" y2="-14.196" xlink:href="#linear-gradient-6"/>
    <linearGradient id="linear-gradient-15" x1="18.903" y1="-19.106" x2="19.362" y2="-15.034" xlink:href="#linear-gradient-6"/>
    <linearGradient id="linear-gradient-16" x1="18.161" y1="-19.84" x2="18.62" y2="-15.768" xlink:href="#linear-gradient-6"/>
    <linearGradient id="linear-gradient-17" x1="17.407" y1="-20.676" x2="17.867" y2="-16.604" xlink:href="#linear-gradient-6"/>
    <linearGradient id="linear-gradient-18" x1="1.482" y1="0.17" x2="1.202" y2="0.734" xlink:href="#linear-gradient-2"/>
    <linearGradient id="linear-gradient-19" x1="7.898" y1="1.891" x2="8.898" y2="1.891" xlink:href="#linear-gradient-8"/>
    <linearGradient id="linear-gradient-20" x1="0.469" y1="-0.001" x2="0.534" y2="0.617" gradientUnits="objectBoundingBox">
      <stop offset="0" stop-color="#aa80f9"/>
      <stop offset="0.996" stop-color="#6165d7"/>
    </linearGradient>
    <linearGradient id="linear-gradient-21" x1="0.492" y1="-0.141" x2="0.524" y2="0.555" xlink:href="#linear-gradient-20"/>
    <linearGradient id="linear-gradient-22" x1="-0.113" y1="0.429" x2="2.673" y2="1.892" xlink:href="#linear-gradient-20"/>
    <linearGradient id="linear-gradient-23" x1="0" y1="0.5" x2="1" y2="0.5" xlink:href="#linear-gradient-20"/>
    <linearGradient id="linear-gradient-26" x1="0" y1="0.5" x2="1" y2="0.5" xlink:href="#linear-gradient-6"/>
    <linearGradient id="linear-gradient-27" x1="0" y1="0.5" x2="1" y2="0.5" xlink:href="#linear-gradient-2"/>
    <linearGradient id="linear-gradient-28" x1="0.471" y1="1.045" x2="-2.218" y2="0.024" gradientUnits="objectBoundingBox">
      <stop offset="0.1" stop-color="#311944"/>
      <stop offset="0.267" stop-color="#361b47"/>
      <stop offset="0.48" stop-color="#462050"/>
      <stop offset="0.719" stop-color="#602a5f"/>
      <stop offset="0.974" stop-color="#843773"/>
      <stop offset="1" stop-color="#893976"/>
    </linearGradient>
    <linearGradient id="linear-gradient-29" x1="-0.225" y1="1.084" x2="-6.468" y2="-0.014" xlink:href="#linear-gradient-28"/>
    <linearGradient id="linear-gradient-30" x1="-2.267" y1="-0.052" x2="-0.316" y2="1.076" xlink:href="#linear-gradient-2"/>
    <linearGradient id="linear-gradient-31" x1="1.702" y1="1.703" x2="-2.817" y2="-0.075" xlink:href="#linear-gradient-28"/>
    <linearGradient id="linear-gradient-32" x1="2.287" y1="1.735" x2="-5.983" y2="-0.138" xlink:href="#linear-gradient-28"/>
    <linearGradient id="linear-gradient-33" x1="-2.75" y1="-0.388" x2="0.528" y2="1.557" xlink:href="#linear-gradient-2"/>
    <linearGradient id="linear-gradient-34" x1="12.58" y1="-20.326" x2="13.815" y2="-20.326" gradientUnits="objectBoundingBox">
      <stop offset="0" stop-color="#311944"/>
      <stop offset="1" stop-color="#6b3976"/>
    </linearGradient>
    <linearGradient id="linear-gradient-35" x1="-14.449" y1="3.833" x2="-6.287" y2="7.188" gradientUnits="objectBoundingBox">
      <stop offset="0" stop-color="#ab316d"/>
      <stop offset="1" stop-color="#792d3d"/>
    </linearGradient>
    <linearGradient id="linear-gradient-36" x1="-0.139" y1="0.686" x2="0.505" y2="0.525" gradientUnits="objectBoundingBox">
      <stop offset="0" stop-color="#40447e"/>
      <stop offset="0.996" stop-color="#3c3b6b"/>
    </linearGradient>
    <linearGradient id="linear-gradient-38" x1="-0.248" y1="0.177" x2="0.664" y2="0.641" xlink:href="#linear-gradient-6"/>
    <linearGradient id="linear-gradient-39" x1="-9.619" y1="3.384" x2="-9.724" y2="6.315" xlink:href="#linear-gradient-35"/>
    <linearGradient id="linear-gradient-40" x1="-1.453" y1="0.741" x2="-1.15" y2="1.08" xlink:href="#linear-gradient-36"/>
    <linearGradient id="linear-gradient-41" x1="0.16" y1="0.256" x2="0.564" y2="0.625" xlink:href="#linear-gradient-36"/>
    <linearGradient id="linear-gradient-42" x1="0.655" y1="0.319" x2="1.85" y2="0.853" xlink:href="#linear-gradient-6"/>
    <linearGradient id="linear-gradient-43" x1="-30.49" y1="6.201" x2="-30.419" y2="4.705" gradientUnits="objectBoundingBox">
      <stop offset="0" stop-color="#311944"/>
      <stop offset="1" stop-color="#893976"/>
    </linearGradient>
    <linearGradient id="linear-gradient-44" x1="-68.958" y1="-17.388" x2="-69.023" y2="-19.244" gradientUnits="objectBoundingBox">
      <stop offset="0" stop-color="#311944"/>
      <stop offset="1" stop-color="#a03976"/>
    </linearGradient>
    <linearGradient id="linear-gradient-45" x1="0.57" y1="0.267" x2="1.987" y2="0.853" xlink:href="#linear-gradient-6"/>
    <linearGradient id="linear-gradient-46" x1="0.268" y1="0.431" x2="1.215" y2="0.917" xlink:href="#linear-gradient-6"/>
    <linearGradient id="linear-gradient-47" x1="0" y1="0.5" x2="1.668" y2="0.5" xlink:href="#linear-gradient-44"/>
    <linearGradient id="linear-gradient-48" x1="-0.04" y1="0.155" x2="0.237" y2="0.332" xlink:href="#linear-gradient-20"/>
    <linearGradient id="linear-gradient-50" x1="0" y1="0.5" x2="1" y2="0.5" xlink:href="#linear-gradient-36"/>
    <linearGradient id="linear-gradient-61" x1="0.923" y1="-0.711" x2="0.479" y2="0.453" xlink:href="#linear-gradient-44"/>
    <linearGradient id="linear-gradient-62" x1="0.67" y1="-0.396" x2="0.165" y2="2.919" xlink:href="#linear-gradient-6"/>
    <linearGradient id="linear-gradient-63" x1="0.679" y1="-0.349" x2="0.074" y2="2.821" xlink:href="#linear-gradient-20"/>
    <linearGradient id="linear-gradient-64" x1="-0.019" y1="0.486" x2="0.978" y2="0.486" xlink:href="#linear-gradient-44"/>
    <linearGradient id="linear-gradient-65" x1="-0.185" y1="0.135" x2="0.537" y2="0.618" xlink:href="#linear-gradient-2"/>
    <linearGradient id="linear-gradient-66" x1="-0.466" y1="0.106" x2="0.522" y2="0.59" xlink:href="#linear-gradient-2"/>
    <linearGradient id="linear-gradient-67" x1="0.217" y1="0.318" x2="0.938" y2="0.911" xlink:href="#linear-gradient-2"/>
    <linearGradient id="linear-gradient-68" x1="-0.037" y1="0.474" x2="0.976" y2="0.474" xlink:href="#linear-gradient-44"/>
    <linearGradient id="linear-gradient-69" x1="0.144" y1="0.298" x2="0.943" y2="0.901" xlink:href="#linear-gradient-2"/>
    <linearGradient id="linear-gradient-70" x1="-0.132" y1="0.373" x2="0.865" y2="0.373" xlink:href="#linear-gradient-44"/>
    <linearGradient id="linear-gradient-71" x1="-0.148" y1="0.085" x2="0.848" y2="0.085" xlink:href="#linear-gradient-44"/>
    <linearGradient id="linear-gradient-72" x1="0.01" y1="0.474" x2="1.023" y2="0.474" xlink:href="#linear-gradient-2"/>
  </defs>
  <g id="Mask_Group_27" data-name="Mask Group 27" transform="translate(-335 -1978)" clip-path="url(#clip-path)">
    <g id="Group_10127" data-name="Group 10127" transform="translate(-54.67 1509.164)">
      <g id="Group_10133" data-name="Group 10133" transform="translate(449.67 468.836)">
        <g id="Group_10128" data-name="Group 10128" transform="translate(130.937 0)">
          <rect id="Rectangle_872" data-name="Rectangle 872" width="72.609" height="197.103" transform="translate(72.609 197.263) rotate(-179.873)" fill="url(#linear-gradient)"/>
          <rect id="Rectangle_873" data-name="Rectangle 873" width="54.767" height="33.161" transform="translate(65.211 41.909) rotate(-179.873)" fill="url(#linear-gradient-2)"/>
          <rect id="Rectangle_874" data-name="Rectangle 874" width="54.767" height="33.161" transform="matrix(-1, -0.002, 0.002, -1, 65.125, 80.719)" fill="url(#linear-gradient-3)"/>
          <rect id="Rectangle_875" data-name="Rectangle 875" width="54.767" height="33.161" transform="translate(65.039 119.529) rotate(-179.873)" fill="url(#linear-gradient-4)"/>
          <rect id="Rectangle_876" data-name="Rectangle 876" width="54.767" height="33.161" transform="translate(64.953 158.339) rotate(-179.873)" fill="url(#linear-gradient-5)"/>
          <g id="Group_10127-2" data-name="Group 10127" transform="translate(0)" opacity="0.3" style="mix-blend-mode: multiply;isolation: isolate">
            <path id="Path_17876" data-name="Path 17876" d="M1366.671,468.836l38.6.085a53.924,53.924,0,0,0-9.018,23.663c-2.016,17.422,6.517,26.989,11.328,49.233,5.02,23.215.59,35.289-.538,57.909-.824,16.5.1,38.764,7.112,66.317l-47.918-.106Z" transform="translate(-1366.235 -468.836)" fill="url(#linear-gradient-6)"/>
          </g>
        </g>
        <g id="Group_10130" data-name="Group 10130" transform="translate(54.607 5.894)">
          <rect id="Rectangle_877" data-name="Rectangle 877" width="72.609" height="197.103" transform="translate(158.387 172.857) rotate(151.281)" fill="url(#linear-gradient-7)"/>
          <rect id="Rectangle_878" data-name="Rectangle 878" width="54.767" height="33.161" transform="translate(76.956 40.348) rotate(151.281)" fill="url(#linear-gradient-8)"/>
          <rect id="Rectangle_879" data-name="Rectangle 879" width="54.767" height="33.161" transform="translate(95.605 74.384) rotate(151.281)" fill="url(#linear-gradient-9)"/>
          <rect id="Rectangle_880" data-name="Rectangle 880" width="54.767" height="33.161" transform="translate(114.254 108.42) rotate(151.281)" fill="url(#linear-gradient-10)"/>
          <rect id="Rectangle_881" data-name="Rectangle 881" width="54.767" height="33.161" transform="translate(132.902 142.457) rotate(151.281)" fill="url(#linear-gradient-11)"/>
          <g id="Group_10129" data-name="Group 10129" transform="translate(0 11.911)" opacity="0.3" style="mix-blend-mode: multiply;isolation: isolate">
            <path id="Path_17877" data-name="Path 17877" d="M831.92,616.449l41.939-22.979c-1.846,12.755.367,21.67,3.151,27.835,7.821,17.322,22.458,18.1,35.679,37.991,12.4,18.655,9.976,33.7,13.807,50.65,3.645,16.131,13.489,36.378,39.414,57.838l-39.28,21.522Z" transform="translate(-831.92 -593.47)" fill="url(#linear-gradient-12)"/>
          </g>
        </g>
        <g id="Group_10132" data-name="Group 10132" transform="translate(0 52.393)">
          <rect id="Rectangle_882" data-name="Rectangle 882" width="72.609" height="197.103" transform="matrix(-0.536, 0.844, -0.844, -0.536, 205.298, 105.717)" fill="url(#linear-gradient-13)"/>
          <rect id="Rectangle_883" data-name="Rectangle 883" width="54.767" height="33.161" transform="matrix(-0.536, 0.844, -0.844, -0.536, 70.041, 28.936)" fill="url(#linear-gradient-14)"/>
          <rect id="Rectangle_884" data-name="Rectangle 884" width="54.767" height="33.161" transform="matrix(-0.536, 0.844, -0.844, -0.536, 102.797, 49.752)" fill="url(#linear-gradient-15)"/>
          <rect id="Rectangle_885" data-name="Rectangle 885" width="54.767" height="33.161" transform="translate(135.553 70.568) rotate(122.436)" fill="url(#linear-gradient-16)"/>
          <rect id="Rectangle_886" data-name="Rectangle 886" width="54.767" height="33.161" transform="translate(168.308 91.384) rotate(122.436)" fill="url(#linear-gradient-17)"/>
          <g id="Group_10131" data-name="Group 10131" transform="translate(0 21.952)" opacity="0.3" style="mix-blend-mode: multiply;isolation: isolate">
            <path id="Path_17878" data-name="Path 17878" d="M449.671,1028.585l24.994-39.33c4.305,17.264,11.905,26.1,18.354,31.054,15.076,11.573,28.342,5.341,49.394,16.63,19.74,10.585,24.71,24.986,36.1,38.12,10.095,11.644,26.625,23.893,55.523,30.9L616.024,1134.3Z" transform="translate(-449.671 -989.255)" fill="url(#linear-gradient-18)"/>
          </g>
        </g>
        <circle id="Ellipse_225" data-name="Ellipse 225" cx="7.721" cy="7.721" r="7.721" transform="translate(163.294 185.485) rotate(-71.246)" fill="url(#linear-gradient-19)"/>
      </g>
      <g id="Group_10137" data-name="Group 10137" transform="translate(484.618 549.14)">
        <g id="Group_10134" data-name="Group 10134" transform="translate(135.542 208.802)">
          <path id="Path_17879" data-name="Path 17879" d="M1732.833,2552.629a15.2,15.2,0,0,1-10.08-11.447l-7.493-37.082-64.093,2.276-7.888,38.632c-1.1,5.41,3.317,10.838,8.41,12.831l26.815,10.492a34.859,34.859,0,0,0,15.677,2.273l56.67-4.848a3.515,3.515,0,0,0,3.178-3.115c.193-1.671,1.354-3.547-.226-4.071Z" transform="translate(-1643.109 -2502.455)" fill="#97a6b7"/>
          <path id="Path_17880" data-name="Path 17880" d="M1746.432,2540.5a15.07,15.07,0,0,1-10.07-11.3l-7.485-36.616-62.531,2.25-7.88,38.146a11.161,11.161,0,0,0,6.9,12.667l26.788,10.36a35.2,35.2,0,0,0,15.661,2.244l56.613-4.787a3.493,3.493,0,0,0,.794-6.8Z" transform="translate(-1656.074 -2492.583)" fill="#d8dee8"/>
        </g>
        <g id="Group_10136" data-name="Group 10136" transform="translate(0 0)">
          <g id="Group_10135" data-name="Group 10135">
            <path id="Path_17881" data-name="Path 17881" d="M706.945,1266.057c-6.951.414-12.637-4.095-12.637-10.054V1041.236c0-5.958,5.686-10.56,12.637-10.259l321.428,13.927a9.716,9.716,0,0,1,9.235,9.591v182.658a9.913,9.913,0,0,1-9.235,9.742Z" transform="translate(-694.308 -1030.963)" fill="#bfc8d6"/>
            <path id="Path_17882" data-name="Path 17882" d="M727.165,1266.057c-6.95.414-12.636-4.095-12.636-10.054V1041.236c0-5.958,5.686-10.56,12.636-10.259l321.429,13.927a9.716,9.716,0,0,1,9.235,9.591v182.658a9.913,9.913,0,0,1-9.235,9.742Z" transform="translate(-711.64 -1030.963)" fill="#fff"/>
            <path id="Path_17883" data-name="Path 17883" d="M1083.993,1079.264l-321.428-13.223c-3.716-.153-6.737,2.3-6.737,5.484V1285.74c0,3.182,3.021,5.588,6.737,5.375l321.428-18.458a5.291,5.291,0,0,0,4.947-5.207V1084.39A5.186,5.186,0,0,0,1083.993,1079.264Z" transform="translate(-747.039 -1061.024)" fill="#d8dee8" opacity="0.3" style="mix-blend-mode: multiply;isolation: isolate"/>
            <path id="Path_17884" data-name="Path 17884" d="M787.237,1293.91a2.321,2.321,0,0,1-2.625-2.115V1092.723a2.348,2.348,0,0,1,2.625-2.141l321.429,12.73a2.027,2.027,0,0,1,1.934,2V1276a2.051,2.051,0,0,1-1.934,2.02Z" transform="translate(-771.711 -1082.063)" fill="#d8dee8"/>
          </g>
          <path id="Path_17885" data-name="Path 17885" d="M1015.038,1233.6c-27.042-16.727-8.154-64.287-38.522-88.184-30.617-24.092-73.7,5.457-95.146-19.493-15.969-18.578,2.716-41.009-12.531-58.48-23.912-27.4-85.124,10.284-113.247-16.708-3.993-3.832-8.022-9.646-10.315-18.974l-18.111-.785c-6.95-.3-12.636,4.3-12.636,10.259V1256c0,5.959,5.686,10.468,12.636,10.054l321.429-19.162a9.913,9.913,0,0,0,9.235-9.742v-3.248C1036.486,1241.149,1023.438,1238.8,1015.038,1233.6Z" transform="translate(-711.64 -1030.963)" fill="#fff" opacity="0.6" style="mix-blend-mode: soft-light;isolation: isolate"/>
        </g>
      </g>
      <g id="Group_10153" data-name="Group 10153" transform="translate(520.769 569.562)">
        <g id="Group_10148" data-name="Group 10148" transform="translate(12.358 26.759)">
          <g id="Group_10138" data-name="Group 10138">
            <path id="Path_17886" data-name="Path 17886" d="M1176.14,1398.131l-18.558,20.73-9.565-8.154v71.839l-84.171,2.189v-74.273l-9.89,8.44-20.087-21.914,26.93-26.945,26.1-8.813a1.817,1.817,0,0,0,.088.287c1.061,2.934,9.664,5.381,20.043,5.59,10.568.212,19.144-1.975,19.791-4.94a.266.266,0,0,0,.015-.048l24.764,9.613Z" transform="translate(-1033.869 -1361.232)" fill="url(#linear-gradient-20)"/>
            <path id="Path_17887" data-name="Path 17887" d="M1445.572,1363.89c-.332,8.275-9.015,14.766-19.761,14.591s-19.568-6.93-20.065-15.241c1.061,2.933,9.659,5.381,20.038,5.589C1436.351,1369.042,1444.925,1366.855,1445.572,1363.89Z" transform="translate(-1352.62 -1362.953)" opacity="0.5" fill="url(#linear-gradient-21)" style="mix-blend-mode: multiply;isolation: isolate"/>
            <path id="Path_17888" data-name="Path 17888" d="M1327.878,1610.2v11.233l-84.172,2.189v-73.28s6.573-15.6,3.769-27.077c3.361,8.189,5.074,17.229,6.835,25.769,1.5,7.268,3.1,14.933,10.6,18.661s18.937,2.27,24.385,9.2c4.014,5.107,2.848,12.387,7.2,17.278,4.308,4.836,11.253,6.023,17.054,8.323C1318.494,1604.452,1323.894,1606.782,1327.878,1610.2Z" transform="translate(-1213.73 -1500.113)" opacity="0.3" fill="url(#linear-gradient-22)" style="mix-blend-mode: multiply;isolation: isolate"/>
          </g>
          <g id="Group_10147" data-name="Group 10147" transform="translate(42.915 30.387)">
            <g id="Group_10139" data-name="Group 10139" transform="translate(57.525 52.486)">
              <path id="Path_17889" data-name="Path 17889" d="M1739.328,1944.17l-2.027.023c-.184,0-.349-.325-.349-.5s.216-.507.4-.51l1.853-.019v-1.493c0-.177.066-.322.249-.324s.249.141.249.319v1.929C1739.7,1943.769,1739.512,1944.168,1739.328,1944.17Z" transform="translate(-1736.953 -1941.344)" fill="#fff"/>
            </g>
            <g id="Group_10140" data-name="Group 10140" transform="translate(4.816 54.366)">
              <path id="Path_17890" data-name="Path 17890" d="M1417.017,1955.524l-4.349.051c-.185,0-.335-.326-.335-.5s.15-.51.335-.512l4.349-.049c.184,0,.334.325.334.5S1417.2,1955.522,1417.017,1955.524Zm-8.712.1-4.379.051c-.187,0-.337-.327-.337-.506s.151-.511.337-.514l4.379-.05c.186,0,.336.327.336.505S1408.49,1955.624,1408.3,1955.626Zm-8.773.1-4.409.052c-.188,0-.34-.328-.34-.508s.152-.513.34-.516l4.409-.05c.187,0,.339.328.339.507S1399.719,1955.726,1399.532,1955.729Zm-8.834.1-4.44.052c-.189,0-.342-.329-.342-.51s.153-.515.342-.517l4.44-.05c.188,0,.341.329.341.509S1390.886,1955.83,1390.7,1955.832Zm-8.9.1-4.472.052c-.19,0-.345-.33-.345-.511s.154-.517.345-.519l4.472-.05c.19,0,.343.33.343.51S1381.991,1955.934,1381.8,1955.936Zm-8.96.1-4.5.053c-.192,0-.347-.332-.347-.513s.156-.519.347-.521l4.5-.051c.191,0,.346.331.346.512S1373.033,1956.038,1372.842,1956.041Z" transform="translate(-1367.991 -1954.51)" fill="#fff"/>
            </g>
            <g id="Group_10141" data-name="Group 10141" transform="translate(0 53.116)">
              <path id="Path_17891" data-name="Path 17891" d="M1336.313,1948.629l-1.9.024c-.192,0-.126-.4-.126-.587v-1.975c0-.182.057-.33.249-.332s.249.145.249.326v1.529l1.692-.021c.192,0,.266.332.266.514S1336.5,1948.627,1336.313,1948.629Z" transform="translate(-1334.277 -1945.759)" fill="#fff"/>
            </g>
            <g id="Group_10142" data-name="Group 10142" transform="translate(0.011 5.714)">
              <path id="Path_17892" data-name="Path 17892" d="M1334.6,1658.05c-.192,0-.249-.145-.249-.327v-3.951c0-.182.057-.33.249-.331s.249.145.249.327v3.95C1334.852,1657.9,1334.8,1658.048,1334.6,1658.05Zm0-7.9c-.192,0-.249-.146-.249-.328v-3.951c0-.182.057-.33.249-.331s.249.146.249.328v3.95C1334.852,1650,1334.8,1650.148,1334.6,1650.149Zm0-7.9c-.192,0-.249-.146-.249-.328v-3.951c0-.182.057-.329.249-.33s.249.147.249.329v3.95C1334.852,1642.1,1334.8,1642.248,1334.6,1642.249Zm0-7.9c-.192,0-.249-.147-.249-.329v-3.951c0-.182.057-.329.249-.329s.249.148.249.329v3.95C1334.852,1634.2,1334.8,1634.348,1334.6,1634.348Zm0-7.9c-.192,0-.249-.148-.249-.33v-3.951c0-.182.057-.329.249-.328s.249.149.249.331v3.95C1334.852,1626.3,1334.8,1626.448,1334.6,1626.448Zm0-7.9c-.192,0-.249-.149-.249-.331v-3.951c0-.182.057-.329.249-.327s.249.149.249.331v3.95C1334.852,1618.4,1334.8,1618.549,1334.6,1618.547Z" transform="translate(-1334.354 -1613.939)" fill="#fff"/>
            </g>
            <g id="Group_10143" data-name="Group 10143">
              <path id="Path_17893" data-name="Path 17893" d="M1334.537,1576.366c-.192,0-.249-.15-.249-.332v-1.975c0-.182-.066-.06.126-.058l1.994.021c.192,0,.3-.178.3,0s-.015,0-.207,0l-1.716-.019v2.037C1334.786,1576.221,1334.729,1576.367,1334.537,1576.366Z" transform="translate(-1334.277 -1573.944)" fill="#fff"/>
            </g>
            <g id="Group_10144" data-name="Group 10144" transform="translate(6.204 0.04)">
              <path id="Path_17894" data-name="Path 17894" d="M1426.678,1574.807l-4.344-.044c-.185,0-.335.175-.335,0s.15,0,.335,0l4.344.044c.184,0,.333-.174.333,0S1426.862,1574.809,1426.678,1574.807Zm-8.7-.089-4.374-.045c-.186,0-.337.175-.337,0s.151,0,.337,0l4.374.045c.186,0,.336-.175.336,0S1418.161,1574.72,1417.975,1574.718Zm-8.763-.09-4.4-.045c-.187,0-.339.176-.339,0s.152,0,.339,0l4.4.045c.187,0,.338-.175.338,0S1409.4,1574.63,1409.212,1574.628Zm-8.825-.09-4.436-.045c-.189,0-.342.177-.342,0s.153,0,.342,0l4.436.045c.188,0,.34-.176.34,0S1400.575,1574.54,1400.387,1574.538Zm-8.887-.091-4.467-.046c-.19,0-.344.177-.344,0s.154,0,.344,0l4.467.046c.189,0,.343-.177.343,0S1391.69,1574.449,1391.5,1574.447Zm-8.95-.091-4.5-.046c-.192,0-.347.178-.347,0s.155,0,.347,0l4.5.046c.191,0,.346-.178.346,0S1382.741,1574.357,1382.55,1574.355Z" transform="translate(-1377.705 -1574.225)" fill="#fff"/>
            </g>
            <g id="Group_10145" data-name="Group 10145" transform="translate(57.547 0.568)">
              <path id="Path_17895" data-name="Path 17895" d="M1739.585,1580.331c-.184,0-.249-.146-.249-.324v-1.989l-1.861-.019c-.184,0-.37.174-.37,0s.13,0,.314,0l2.049.021c.183,0,.366-.113.366.064v1.928C1739.834,1580.19,1739.769,1580.333,1739.585,1580.331Z" transform="translate(-1737.105 -1577.917)" fill="#fff"/>
            </g>
            <g id="Group_10146" data-name="Group 10146" transform="translate(59.778 6.196)">
              <path id="Path_17896" data-name="Path 17896" d="M1752.971,1660.394c-.184,0-.249-.142-.249-.319v-3.858c0-.178.065-.322.249-.323s.249.142.249.319v3.857C1753.22,1660.247,1753.155,1660.392,1752.971,1660.394Zm0-7.715c-.184,0-.249-.142-.249-.32V1648.5c0-.177.065-.322.249-.323s.249.143.249.32v3.857C1753.22,1652.533,1753.155,1652.677,1752.971,1652.679Zm0-7.715c-.184,0-.249-.143-.249-.321v-3.858c0-.177.065-.322.249-.322s.249.144.249.321v3.857C1753.22,1644.819,1753.155,1644.963,1752.971,1644.964Zm0-7.715c-.184,0-.249-.144-.249-.322v-3.858c0-.177.065-.321.249-.321s.249.144.249.322v3.857C1753.22,1637.1,1753.155,1637.249,1752.971,1637.249Zm0-7.715c-.184,0-.249-.145-.249-.322v-3.858c0-.177.065-.321.249-.32s.249.145.249.323v3.857C1753.22,1629.391,1753.155,1629.535,1752.971,1629.534Zm0-7.715c-.184,0-.249-.146-.249-.323v-3.858c0-.177.065-.321.249-.32s.249.146.249.324v3.857C1753.22,1621.677,1753.155,1621.82,1752.971,1621.819Z" transform="translate(-1752.722 -1617.319)" fill="#fff"/>
            </g>
          </g>
        </g>
        <g id="Group_10151" data-name="Group 10151" transform="translate(0 0)" opacity="0.4" style="mix-blend-mode: multiply;isolation: isolate">
          <g id="Group_10149" data-name="Group 10149">
            <path id="Path_17897" data-name="Path 17897" d="M1226.771,1341.634,947.362,1351.77V1173.921l279.409,8.938Zm-277.915,7.958,276.421-9.8V1184.233l-276.421-8.671Z" transform="translate(-947.362 -1173.921)" fill="url(#linear-gradient-23)"/>
          </g>
          <g id="Group_10150" data-name="Group 10150" transform="translate(160.374 6.129)">
            <path id="Path_17898" data-name="Path 17898" d="M2188.025,1377.493l-118.039,4.235V1216.822l118.039,3.725Z" transform="translate(-2069.986 -1216.822)" fill="url(#linear-gradient-23)"/>
          </g>
        </g>
        <g id="Group_10152" data-name="Group 10152" transform="translate(171.331 21.392)" opacity="0.8">
          <path id="Path_17899" data-name="Path 17899" d="M2233.348,1329.373a3.291,3.291,0,0,1-3.305,3.5l-79.8-1.793a3.671,3.671,0,0,1-3.555-3.791v0a3.534,3.534,0,0,1,3.646-3.612l79.759,2.037a3.453,3.453,0,0,1,3.257,3.663Z" transform="translate(-2146.687 -1323.667)" fill="#fff"/>
          <path id="Path_17900" data-name="Path 17900" d="M2201.473,1432.379a3.747,3.747,0,0,1-3.817,3.667l-47.152-.761a3.88,3.88,0,0,1-3.817-3.874v-.288a3.663,3.663,0,0,1,3.752-3.738l47.265.914a3.866,3.866,0,0,1,3.77,3.8Z" transform="translate(-2146.687 -1412.567)" fill="#fff"/>
        </g>
        <path id="Path_17901" data-name="Path 17901" d="M2203.465,1630.026a1.809,1.809,0,0,0-1.785-1.847l-18.133-.138a1.958,1.958,0,0,0-2,1.834v14.558a2,2,0,0,0,2.021,1.85l18.029,0a1.859,1.859,0,0,0,1.864-1.832Z" transform="translate(-2005.239 -1563.167)" fill="url(#linear-gradient-23)"/>
        <path id="Path_17902" data-name="Path 17902" d="M2397.708,1631.472a1.714,1.714,0,0,0-1.663-1.826l-17.514-.134a1.742,1.742,0,0,0-1.741,1.815v14.394a1.811,1.811,0,0,0,1.8,1.828l17.458,0a1.691,1.691,0,0,0,1.655-1.812Z" transform="translate(-2172.586 -1564.428)" fill="url(#linear-gradient-26)"/>
        <path id="Path_17903" data-name="Path 17903" d="M2588.962,1632.882a1.868,1.868,0,0,0-1.843-1.806l-17-.131a1.618,1.618,0,0,0-1.576,1.795v14.232a1.6,1.6,0,0,0,1.531,1.808l17.171,0a1.744,1.744,0,0,0,1.718-1.791Z" transform="translate(-2336.946 -1565.656)" fill="url(#linear-gradient-27)"/>
        <path id="Path_17904" data-name="Path 17904" d="M2201.473,2013.874a3.974,3.974,0,0,1-3.887,3.866l-47.01.866a3.792,3.792,0,0,1-3.89-3.811v-.144a3.9,3.9,0,0,1,3.824-3.945l47.123-.712a3.778,3.778,0,0,1,3.839,3.74Z" transform="translate(-1975.355 -1890.555)" fill="#fff" opacity="0.8"/>
        <path id="Path_17905" data-name="Path 17905" d="M2201.473,2115.533a4,4,0,0,1-3.887,3.889l-47.01,1.153a3.764,3.764,0,0,1-3.89-3.787v-.144a3.925,3.925,0,0,1,3.824-3.969l47.123-1a3.75,3.75,0,0,1,3.839,3.717Z" transform="translate(-1975.355 -1977.71)" fill="#fff" opacity="0.8"/>
      </g>
      <g id="Group_10156" data-name="Group 10156" transform="translate(699.131 479.144)">
        <g id="Group_10154" data-name="Group 10154" transform="translate(0 0)">
          <path id="Path_17906" data-name="Path 17906" d="M2299.758,617.781c4.869.454,9.213-3.452,9.7-8.724s-3.056-9.913-7.925-10.367c-.252-.024-.5-.028-.751-.029a55.241,55.241,0,0,0-1.2-8c.232-.093.464-.189.692-.3a10.03,10.03,0,0,0,4.442-12.738,8.494,8.494,0,0,0-11.716-4.616c-.233.117-.455.249-.675.385a50.7,50.7,0,0,0-4.749-6.212c.164-.209.324-.421.474-.648a10.031,10.031,0,0,0-2.011-13.339,8.495,8.495,0,0,0-12.367,2.371c-.146.222-.276.451-.4.682a44.956,44.956,0,0,0-7.028-2.759c.046-.265.088-.533.113-.806.491-5.272,1.506-11.219-3.369-11.6-11.277-.873-13.77,4.682-14.261,9.953-.025.273-.033.543-.038.813a44.965,44.965,0,0,0-7.416,1.413c-.082-.25-.168-.5-.271-.744-2.009-4.792-1.61-7.973-6.288-6.226-10.2,3.81-11.879,9.556-9.87,14.348.1.25.224.489.346.724a50.675,50.675,0,0,0-5.815,5.227c-.191-.174-.385-.345-.592-.5a8.494,8.494,0,0,0-12.367,2.372,10.03,10.03,0,0,0,2.011,13.339c.2.155.413.293.624.426a55.269,55.269,0,0,0-2.655,7.64c-.245-.045-.491-.087-.743-.11-4.869-.454-9.214,3.452-9.7,8.723s3.057,9.913,7.925,10.367c.252.023.5.028.751.029a55.305,55.305,0,0,0,1.2,8c-.232.093-.464.189-.692.3a10.031,10.031,0,0,0-4.442,12.738,8.494,8.494,0,0,0,11.716,4.616c.233-.117.455-.249.675-.385a50.747,50.747,0,0,0,4.749,6.212c-.163.209-.324.421-.473.648a10.03,10.03,0,0,0,2.011,13.339c3.97,3.029,12.635,1.736,15.5-2.6.146-.222-2.851-.221-2.725-.451a44.938,44.938,0,0,0,7.027,2.759c-.046.265-.088.532-.113.805-.491,5.272,3.057,9.913,7.926,10.367s9.214-3.452,9.705-8.724c.025-.273.033-.543.038-.813a44.934,44.934,0,0,0,7.416-1.413c.082.25.168.5.271.745a8.494,8.494,0,0,0,11.716,4.616,10.031,10.031,0,0,0,4.442-12.738c-.1-.25-.223-.489-.345-.724a50.722,50.722,0,0,0,5.815-5.227c.19.174.385.345.592.5A8.5,8.5,0,0,0,2299,639.077a10.031,10.031,0,0,0-2.012-13.34c-.2-.155-.413-.292-.624-.426a55.257,55.257,0,0,0,2.655-7.64C2299.259,617.716,2299.506,617.758,2299.758,617.781Zm-50.282,20.642c-17.677-1.648-30.56-18.5-28.776-37.639s17.56-33.32,35.236-31.673,30.56,18.5,28.776,37.639S2267.153,640.071,2249.476,638.424Z" transform="translate(-2195.905 -540.992)" fill="url(#linear-gradient-28)"/>
          <path id="Path_17907" data-name="Path 17907" d="M2688.273,615.682a10.031,10.031,0,0,0,4.442-12.738A8.495,8.495,0,0,0,2681,598.327c-.233.117-.456.25-.675.385a50.662,50.662,0,0,0-4.748-6.212c.163-.209.324-.421.473-.648,2.86-4.338,5.1-12.974.844-15.58-8.086-4.945-12.363.273-15.223,4.612-.146.222-.277.451-.4.682a44.955,44.955,0,0,0-7.028-2.759c.046-.265.088-.532.113-.805a9.9,9.9,0,0,0-2.355-7.467q-1.74,12.359-3.272,24.745c15.148,3.957,25.6,19.434,23.979,36.795-1.371,14.712-11.012,26.484-23.425,30.4.014,1.61.042,3.223.012,4.834-.08,4.373-.4,8.752-.729,13.128q1.8-.348,3.567-.839c.082.25.167.5.27.745,2.009,4.792,6.566,7.735,14.772,3.973,4.54-2.081,3.395-7.3,1.386-12.1-.1-.25-.224-.489-.346-.724a50.714,50.714,0,0,0,5.815-5.227c.191.174.385.344.592.5,3.971,3.029,12.953,1.428,15.813-2.91s-1.486-9.772-5.457-12.8c-.2-.155-.413-.292-.624-.426a55.265,55.265,0,0,0,2.655-7.64c.245.045.491.087.743.11,4.868.454,9.213-3.452,9.7-8.723s-3.057-9.913-7.925-10.367c-.252-.023-.5-.028-.751-.029a55.269,55.269,0,0,0-1.2-8C2687.813,615.893,2688.045,615.8,2688.273,615.682Z" transform="translate(-2583.897 -566.314)" fill="url(#linear-gradient-29)"/>
          <path id="Path_17908" data-name="Path 17908" d="M2331.652,616.884c4.868.454,9.214-3.452,9.705-8.723s-3.057-9.913-7.926-10.367c-.252-.024-.5-.028-.751-.029a55.271,55.271,0,0,0-1.2-8c.232-.093.464-.189.692-.3a10.031,10.031,0,0,0,4.442-12.738,8.495,8.495,0,0,0-11.716-4.616c-.233.117-.456.249-.675.385a50.677,50.677,0,0,0-4.749-6.212c.163-.209.324-.421.474-.648a10.031,10.031,0,0,0-2.011-13.339,8.494,8.494,0,0,0-12.367,2.371c-.146.222-.277.451-.4.682a44.947,44.947,0,0,0-7.027-2.759c.045-.265.087-.533.113-.806.491-5.272-3.057-9.913-7.925-10.367s-9.214,3.452-9.7,8.723c-.026.273-.033.543-.038.813a44.933,44.933,0,0,0-7.417,1.413c-.082-.25-.168-.5-.271-.744A8.495,8.495,0,0,0,2261.183,547a10.031,10.031,0,0,0-4.442,12.738c.1.25.224.489.346.724a50.719,50.719,0,0,0-5.815,5.227c-.19-.174-.385-.344-.592-.5a8.495,8.495,0,0,0-12.367,2.372,10.031,10.031,0,0,0,2.011,13.339c.2.155.413.292.624.426a55.3,55.3,0,0,0-2.655,7.64c-.245-.045-.491-.087-.743-.11-4.869-.454-9.214,3.452-9.7,8.723s3.057,9.913,7.926,10.367c.252.024.5.028.751.029a55.3,55.3,0,0,0,1.2,8c-.232.093-.464.189-.692.3a10.031,10.031,0,0,0-4.442,12.738,8.495,8.495,0,0,0,11.716,4.616c.233-.117.455-.249.675-.385a50.737,50.737,0,0,0,4.749,6.212c-.163.209-.324.421-.474.648a10.031,10.031,0,0,0,2.011,13.339,8.495,8.495,0,0,0,12.368-2.371c.146-.222.276-.451.4-.682a44.948,44.948,0,0,0,7.027,2.759c-.046.265-.088.533-.113.806-.491,5.272,3.057,9.913,7.926,10.367s9.213-3.452,9.7-8.723c.026-.273.034-.543.038-.813a44.927,44.927,0,0,0,7.416-1.413c.082.25.167.5.271.744a8.495,8.495,0,0,0,11.716,4.616A10.03,10.03,0,0,0,2312.46,646c-.1-.251-.224-.489-.346-.724a50.715,50.715,0,0,0,5.815-5.227c.191.174.385.344.593.5a8.494,8.494,0,0,0,12.367-2.371,10.031,10.031,0,0,0-2.011-13.34c-.2-.155-.414-.292-.625-.426a55.2,55.2,0,0,0,2.655-7.64C2331.153,616.818,2331.4,616.86,2331.652,616.884Zm-50.281,20.642c-17.677-1.648-30.56-18.5-28.776-37.639s17.56-33.32,35.236-31.673,30.56,18.5,28.775,37.639S2299.047,639.173,2281.371,637.526Z" transform="translate(-2223.243 -541.324)" fill="url(#linear-gradient-30)"/>
        </g>
        <g id="Group_10155" data-name="Group 10155" transform="translate(84.701 100.65)">
          <path id="Path_17909" data-name="Path 17909" d="M2847.6,1296.351a5.708,5.708,0,0,0,3.868-10.7c-.142-.051-.284-.091-.427-.129a32.77,32.77,0,0,0,.5-4.774c.147-.019.294-.039.443-.071a5.954,5.954,0,0,0,4.451-6.656,5.042,5.042,0,0,0-6.043-4.4c-.152.032-.3.075-.446.12a30.089,30.089,0,0,0-1.8-4.277c.125-.1.249-.194.369-.3a5.955,5.955,0,0,0,.833-7.964,5.043,5.043,0,0,0-7.459-.481c-.118.106-.226.218-.333.331a26.728,26.728,0,0,0-3.626-2.633c.065-.145.129-.293.185-.446,1.068-2.956,2.538-6.221-.207-7.165-6.349-2.183-8.609.637-9.677,3.592-.055.153-.1.307-.143.461a26.705,26.705,0,0,0-4.471-.294c-.01-.156-.022-.312-.045-.468-.44-3.052.264-4.821-2.685-4.515-6.429.668-8.249,3.719-7.809,6.772.023.16.055.314.091.468a30.121,30.121,0,0,0-4.12,2.136c-.083-.128-.17-.255-.265-.377a5.042,5.042,0,0,0-7.459-.481,5.954,5.954,0,0,0-.833,7.964c.094.119.194.23.295.338a32.823,32.823,0,0,0-2.665,3.994c-.134-.062-.269-.123-.41-.174a5.708,5.708,0,0,0-3.868,10.7c.141.051.284.091.427.129a32.8,32.8,0,0,0-.5,4.774c-.147.019-.295.039-.443.071a5.954,5.954,0,0,0-4.451,6.656,5.043,5.043,0,0,0,6.043,4.4c.151-.032.3-.075.445-.12a30.149,30.149,0,0,0,1.8,4.277c-.125.1-.249.194-.368.3a5.954,5.954,0,0,0-.833,7.964c1.83,2.332,7,2.881,9.291.815.117-.106-1.605-.552-1.5-.665a26.652,26.652,0,0,0,3.626,2.633c-.066.146-.13.293-.185.446a5.272,5.272,0,1,0,9.884,3.572c.055-.153.1-.307.143-.461a26.7,26.7,0,0,0,4.472.294c.01.156.022.311.044.468a5.042,5.042,0,0,0,6.043,4.4,5.954,5.954,0,0,0,4.451-6.656c-.023-.16-.056-.314-.091-.468a30.092,30.092,0,0,0,4.12-2.136c.084.128.17.255.266.377a5.042,5.042,0,0,0,7.458.481,5.954,5.954,0,0,0,.833-7.964c-.094-.119-.194-.23-.3-.338a32.826,32.826,0,0,0,2.665-3.994C2847.326,1296.24,2847.462,1296.3,2847.6,1296.351Zm-31.966,4.364c-9.91-3.582-14.8-15.184-10.921-25.915s15.056-16.526,24.966-12.944,14.8,15.184,10.922,25.915S2825.547,1304.3,2815.637,1300.715Z" transform="translate(-2788.816 -1245.547)" fill="url(#linear-gradient-31)"/>
          <path id="Path_17910" data-name="Path 17910" d="M3036.235,1303.358a5.954,5.954,0,0,0,4.451-6.656,5.042,5.042,0,0,0-6.043-4.4c-.151.032-.3.075-.445.12a30.145,30.145,0,0,0-1.8-4.277c.125-.1.249-.193.369-.3,2.29-2.066,4.867-6.693,2.808-8.825-3.909-4.047-7.144-1.686-9.433.38-.118.106-.227.218-.334.331a26.718,26.718,0,0,0-3.626-2.633c.066-.146.13-.293.185-.446a5.878,5.878,0,0,0-.24-4.642q-2.841,6.842-5.568,13.729c8.113,4.531,11.809,14.981,8.291,24.714-2.981,8.248-10.275,13.574-17.99,13.974-.232.927-.457,1.858-.714,2.779-.7,2.5-1.536,4.969-2.376,7.434q1.089.069,2.175.05c.01.156.021.312.044.468.44,3.053,2.619,5.423,7.9,4.485,2.918-.519,3.039-3.69,2.6-6.743-.023-.16-.056-.314-.091-.468a30.066,30.066,0,0,0,4.121-2.136c.083.128.17.255.265.377,1.83,2.332,7.229,2.751,9.519.685s.6-5.836-1.227-8.168c-.093-.12-.194-.23-.3-.338a32.785,32.785,0,0,0,2.664-3.994c.134.063.27.123.411.174a5.708,5.708,0,0,0,3.868-10.7c-.142-.051-.284-.091-.427-.129a32.706,32.706,0,0,0,.5-4.774C3035.939,1303.411,3036.086,1303.39,3036.235,1303.358Z" transform="translate(-2973.059 -1268.231)" fill="url(#linear-gradient-32)"/>
          <path id="Path_17911" data-name="Path 17911" d="M2867.211,1296.37a5.708,5.708,0,0,0,3.869-10.7c-.142-.051-.285-.091-.428-.129a32.842,32.842,0,0,0,.5-4.774c.147-.019.294-.039.443-.071a5.954,5.954,0,0,0,4.451-6.656,5.042,5.042,0,0,0-6.043-4.4c-.151.032-.3.075-.445.12a30.146,30.146,0,0,0-1.8-4.277c.125-.1.25-.194.369-.3a5.954,5.954,0,0,0,.833-7.964,5.042,5.042,0,0,0-7.459-.481c-.117.106-.226.218-.333.332a26.7,26.7,0,0,0-3.626-2.633c.066-.145.13-.293.185-.446a5.272,5.272,0,1,0-9.884-3.572c-.055.153-.1.307-.143.461a26.711,26.711,0,0,0-4.471-.294c-.01-.156-.022-.312-.045-.468a5.042,5.042,0,0,0-6.043-4.4,5.954,5.954,0,0,0-4.451,6.656c.023.159.056.314.091.468a30.062,30.062,0,0,0-4.12,2.136c-.084-.128-.17-.255-.265-.377a5.043,5.043,0,0,0-7.459-.481,5.954,5.954,0,0,0-.833,7.964c.093.119.193.23.294.338a32.843,32.843,0,0,0-2.664,3.994c-.134-.063-.27-.123-.411-.174a5.708,5.708,0,0,0-3.869,10.7c.142.051.285.091.428.129a32.773,32.773,0,0,0-.5,4.774c-.147.019-.295.039-.443.071a5.954,5.954,0,0,0-4.451,6.656,5.042,5.042,0,0,0,6.043,4.4c.151-.032.3-.075.445-.12a30.075,30.075,0,0,0,1.8,4.277c-.125.1-.249.194-.369.3a5.954,5.954,0,0,0-.833,7.964,5.042,5.042,0,0,0,7.459.481c.117-.106.226-.218.333-.332a26.678,26.678,0,0,0,3.626,2.633c-.066.146-.13.293-.186.446a5.272,5.272,0,1,0,9.885,3.572c.055-.153.1-.307.142-.461a26.694,26.694,0,0,0,4.472.294c.01.156.022.312.045.468a5.042,5.042,0,0,0,6.043,4.4,5.954,5.954,0,0,0,4.451-6.656c-.023-.159-.056-.314-.091-.468a30.088,30.088,0,0,0,4.12-2.136c.083.128.169.255.266.377a5.042,5.042,0,0,0,7.459.481,5.955,5.955,0,0,0,.833-7.964c-.094-.119-.194-.229-.3-.338a32.79,32.79,0,0,0,2.665-3.994C2866.934,1296.258,2867.07,1296.319,2867.211,1296.37Zm-31.966,4.364c-9.91-3.582-14.8-15.184-10.921-25.915s15.056-16.526,24.966-12.944,14.8,15.184,10.921,25.915S2845.155,1304.316,2835.245,1300.734Z" transform="translate(-2805.623 -1245.593)" fill="url(#linear-gradient-33)"/>
        </g>
      </g>
      <g id="Group_10187" data-name="Group 10187" transform="translate(660.995 676.04)">
        <path id="Path_17912" data-name="Path 17912" d="M2925.945,1932.639a8.7,8.7,0,0,0,3.953.072c1.8-.4,4.383-1.6,4.388-3.015,0-.68-.591-.915-1.411-1.9-1.708-2.058-1.29-3.634-2.183-5.2-1.963-3.43-8.733-4.134-9.794-2.456-.442.7.1,1.811,1.113,3.862,1.034,2.1,1.767,2.581,2.64,4.342A13.874,13.874,0,0,1,2925.945,1932.639Z" transform="translate(-2779.058 -1919.268)" fill="url(#linear-gradient-34)"/>
        <path id="Path_17913" data-name="Path 17913" d="M3209.806,2820.329l.362-.628a.636.636,0,0,1,.957.416c.308.805,2.052,5.013,2.145,6.921-.458,1.142-1.752.174-2.02-.6s-1.193-3.655-1.193-3.655Z" transform="translate(-3026.828 -2690.987)" fill="url(#linear-gradient-35)"/>
        <path id="Path_17914" data-name="Path 17914" d="M2947.94,2439.9c.541-.008,1.079,0,1.623-.029q1.489-.067,2.991-.216l-.5-3.124q-.766-.293-1.5-.587c-.249-.1-.488-.2-.731-.3s-.464-.189-.688-.284c-.33-.14-.649-.281-.969-.422-.127-.056-.259-.111-.384-.167-.375-.167-.739-.336-1.1-.5l-.185-.085c-.39-.183-.769-.367-1.14-.552l-.083-.04q-.587-.291-1.146-.585l-.016-.008q-1.138-.6-2.161-1.2h0c-8.466-4.948-11.265-9.971-12.128-13.92-2.427-11.114,9.456-18.25,6.386-30.3-2.313-9.082-12.075-16.858-18.087-15.044-6.789,2.048-7.853,15.207-8.508,23.305-.737,9.118-1.558,19.276,4.273,28.375,5.522,8.616,15.5,13.918,26.977,15.329v0c.273.033.552.049.827.078.666.071,1.33.144,2.005.188.308.021.623.022.933.037.658.031,1.314.068,1.979.074C2947.05,2439.924,2947.5,2439.9,2947.94,2439.9Z" transform="translate(-2769.079 -2307.552)" fill="url(#linear-gradient-36)"/>
        <path id="Path_17915" data-name="Path 17915" d="M2947.94,2439.9c.541-.008,1.079,0,1.623-.029q1.489-.067,2.991-.216l-.5-3.124q-.766-.293-1.5-.587c-.249-.1-.488-.2-.731-.3s-.464-.189-.688-.284c-.33-.14-.649-.281-.969-.422-.127-.056-.259-.111-.384-.167-.375-.167-.739-.336-1.1-.5l-.185-.085c-.39-.183-.769-.367-1.14-.552l-.083-.04q-.587-.291-1.146-.585l-.016-.008q-1.138-.6-2.161-1.2h0c-8.466-4.948-11.265-9.971-12.128-13.92-2.427-11.114,9.456-18.25,6.386-30.3-2.313-9.082-12.075-16.858-18.087-15.044-6.789,2.048-7.853,15.207-8.508,23.305-.737,9.118-1.558,19.276,4.273,28.375,5.522,8.616,15.5,13.918,26.977,15.329v0c.273.033.552.049.827.078.666.071,1.33.144,2.005.188.308.021.623.022.933.037.658.031,1.314.068,1.979.074C2947.05,2439.924,2947.5,2439.9,2947.94,2439.9Z" transform="translate(-2769.079 -2307.552)" opacity="0.25" fill="url(#linear-gradient-36)" style="mix-blend-mode: multiply;isolation: isolate"/>
        <path id="Path_17916" data-name="Path 17916" d="M2792.907,2113.571c-1.3-2.059,4.754-5.1,6.721-13.547,1.662-7.135-1.728-8.942.121-18.494,1.03-5.32,2.788-8.409,4.837-10.651,1.688-1.849,3.882-4.25,5.859-3.936,6.2.985,13.544,29.186,1.155,41.482C2805.235,2114.743,2794.473,2116.054,2792.907,2113.571Z" transform="translate(-2669.33 -2045.822)" fill="url(#linear-gradient-38)"/>
        <g id="Group_10157" data-name="Group 10157" transform="translate(142.476 53.672)">
          <path id="Path_17917" data-name="Path 17917" d="M2978.735,3017.67c-.282-.65-1.833.984-3.279,2.71q.279,3.726.559,7.452a6.179,6.179,0,0,0-1.891-.851c-.877-.2-2.394.114-2.51.533-.719,2.588,5.736,3.154,6.444,2.341a2.306,2.306,0,0,0,.546-1.765,23.028,23.028,0,0,1-.258-8C2978.563,3018.863,2978.891,3018.029,2978.735,3017.67Z" transform="translate(-2965.091 -2914.303)" fill="url(#linear-gradient-39)"/>
          <path id="Path_17918" data-name="Path 17918" d="M2956.47,2315.027c-3.684-5.432-7.275-10.926-10.875-16.413a9.035,9.035,0,0,1-1.315-3.643,25.234,25.234,0,0,0-4.06,4.082c-1.014,5.083-2.579,12.723-4.645,21.983-5.248,23.531-7.458,29.424-8.571,36.826-1.713,11.388-1.106,28.168,10.205,50.638l2.588.257c1.818-19.221,3.9-36.568,4.956-45.483.357-3.025,1.411-12.1,6.269-19.408.078-.118,7.267-9.948,9.748-13.875.825-1.308,1.859-3,3.033-5.272A73.851,73.851,0,0,1,2956.47,2315.027Z" transform="translate(-2926.287 -2294.972)" fill="url(#linear-gradient-40)"/>
          <path id="Path_17919" data-name="Path 17919" d="M3008.627,2315.026c-3.684-5.431-7.275-10.926-10.875-16.413a9.039,9.039,0,0,1-1.314-3.642,25.227,25.227,0,0,0-4.061,4.082c-1.606,6.214-2.751,11.53-3.553,15.594-2.225,11.273-2.1,14.391-.5,17.19,2.19,3.848,4.712,2.807,6.313,6.156,2.806,5.872-4.708,9.884-4.639,21.206.038,6.278,2.283,7.854,1.261,13.617a33.393,33.393,0,0,0-.681,9.245c.145,1.972.3,1.543.425,3.324.344,5.075-.867,9.742-.342,12.911a7.5,7.5,0,0,0,.727,2.223,7.21,7.21,0,0,0,1.21,1.677c1.647-16.546,3.387-31.035,4.318-38.923.357-3.025,1.411-12.1,6.269-19.408.078-.118,7.267-9.948,9.748-13.876.826-1.307,1.859-3,3.033-5.272A73.856,73.856,0,0,1,3008.627,2315.026Z" transform="translate(-2978.444 -2294.971)" opacity="0.25" fill="url(#linear-gradient-41)" style="mix-blend-mode: multiply;isolation: isolate"/>
        </g>
        <path id="Path_17920" data-name="Path 17920" d="M2858.964,2040.815a17.013,17.013,0,0,0-1.8,10.327,21.584,21.584,0,0,0,5.107,10.681c3.662,4.7,6.517,14.008,1.972,34.4a32.136,32.136,0,0,1,11.636.217c12.438,2.593,17.4,11.828,23.369,10.145,2.2-.621,5.2-2.916,7.281-11.482,1.823-4.455,7.505-19.911,1.681-38.087a55.38,55.38,0,0,0-16.15-24.523c-3.413-1.149-14.069-4.256-24.208.654C2865.328,2034.375,2861.4,2036.343,2858.964,2040.815Z" transform="translate(-2724.425 -2014.582)" fill="url(#linear-gradient-42)"/>
        <path id="Path_17921" data-name="Path 17921" d="M2914.138,1985.123c0,.9.032,5.7,2.167,6.491.467.172.841.062,2.911.116,1.18.031,2.14.094,2.759.141a15.182,15.182,0,0,1-.75,3.151c-2.656,7.475-11.255,12.668-14.168,10.8-1.517-.974-1.634-3.9-1.682-5.109a10.2,10.2,0,0,1,.686-4.09q1.6-1.162,3.274-2.328,1.094-.761,2.175-1.493-.073-1.379-.146-2.758Z" transform="translate(-2765.879 -1975.715)" fill="url(#linear-gradient-43)"/>
        <path id="Path_17922" data-name="Path 17922" d="M2927.8,1962.267s-2.568,3.007-5.8,1.926c-2.9-.968-1.385-8.417.865-9.324a4.023,4.023,0,0,1,3.094.34c.666.391,3.07,2.43,2.135,4.892a1.656,1.656,0,0,1,1.862-.11,1.034,1.034,0,0,1,.292.486C2930.46,1961.339,2929.518,1962.121,2927.8,1962.267Z" transform="translate(-2778.769 -1949.636)" fill="url(#linear-gradient-44)"/>
        <path id="Path_17923" data-name="Path 17923" d="M2951.66,2086.859a54.974,54.974,0,0,0-13.058-21.58c-4.8,3.175-9.692,7.479-9.284,12.092.464,5.25,7.478,7.42,6.823,10.74-.949,4.812-16.228,2.99-18.011,8.285-2.1,6.241,16.015,17.979,15.046,19.308-.693.95-9.026-5.766-18.483-4.2a13.039,13.039,0,0,0-4.943,1.962,100.9,100.9,0,0,1-2.058,12.6,32.132,32.132,0,0,1,11.637.217c12.437,2.593,17.4,11.828,23.369,10.145,2.2-.621,5.195-2.916,7.281-11.482C2951.8,2120.491,2957.484,2105.035,2951.66,2086.859Z" transform="translate(-2767.872 -2044.42)" opacity="0.3" fill="url(#linear-gradient-45)" style="mix-blend-mode: multiply;isolation: isolate"/>
        <path id="Path_17924" data-name="Path 17924" d="M2990.8,2041.148c2.887-.719,2.9-1.658,6.764-.358,11.088,3.733,22.827,20.467,16.761,32.284-3.375,6.573-11.46,12.5-20.374,11.132-7.257-1.113-11.519-6.516-12.6-7.981l-1.26-5.041c4.729,2.681,8.06,2.68,10.292,2.1,3.8-.987,4.643-3.709,10.922-6.091,2.446-.928,3.916-1.121,3.991-1.89.155-1.591-5.995-2.122-9.872-5.461C2992.6,2057.408,2989.777,2052.447,2990.8,2041.148Z" transform="translate(-2829.928 -2022.874)" fill="url(#linear-gradient-46)"/>
        <path id="Path_17925" data-name="Path 17925" d="M2931.213,2247.078l-1.321-.381a21.751,21.751,0,0,0-2.776-1.661,2.81,2.81,0,0,0-1.25-.267v0s-3.914-1.622-3.07-.682a7.264,7.264,0,0,0,1.821,1.449.233.233,0,0,1-.037.082c-.016.022-.024.039-.041.063a1.144,1.144,0,0,0-.176.436c-.237.742-.192,2.012,2.4,2.7v0a7.187,7.187,0,0,0,2.085.14,14.67,14.67,0,0,1,3.036.813Z" transform="translate(-2780.716 -2197.431)" fill="url(#linear-gradient-47)"/>
        <g id="Group_10186" data-name="Group 10186" transform="translate(0 67.271)">
          <g id="Group_10159" data-name="Group 10159" transform="translate(12.515 96.794)">
            <g id="Group_10158" data-name="Group 10158" transform="translate(0 0.971)">
              <path id="Path_17926" data-name="Path 17926" d="M2024.328,3079.642c0,2.825-1.741,5.115-3.889,5.115s-3.889-2.29-3.889-5.115,1.741-5.116,3.889-5.116S2024.328,3076.816,2024.328,3079.642Z" transform="translate(-2016.551 -3074.526)" fill="url(#linear-gradient-48)"/>
              <path id="Path_17927" data-name="Path 17927" d="M2031.911,3083.684c0,2.825-1.741,5.115-3.889,5.115s-3.889-2.29-3.889-5.115,1.741-5.115,3.889-5.115S2031.911,3080.859,2031.911,3083.684Z" transform="translate(-2023.051 -3077.991)" fill="url(#linear-gradient-23)"/>
              <path id="Path_17928" data-name="Path 17928" d="M2043.2,3102.238a1.691,1.691,0,1,1-1.629-2.143A1.941,1.941,0,0,1,2043.2,3102.238Z" transform="translate(-2036.604 -3096.442)" fill="url(#linear-gradient-50)"/>
            </g>
            <path id="Path_17929" data-name="Path 17929" d="M2043.772,3068.15v5.617a1.493,1.493,0,0,0,1.493,1.493h0a1.492,1.492,0,0,0,1.206-.612l5.052-6.918Z" transform="translate(-2039.883 -3067.73)" fill="#c2c2c2"/>
          </g>
          <g id="Group_10161" data-name="Group 10161" transform="translate(54.148 92.309)">
            <g id="Group_10160" data-name="Group 10160" transform="translate(0 0.971)">
              <path id="Path_17930" data-name="Path 17930" d="M2315.766,3048.241c0,2.825-1.741,5.116-3.889,5.116s-3.889-2.291-3.889-5.116,1.741-5.116,3.889-5.116S2315.766,3045.416,2315.766,3048.241Z" transform="translate(-2307.989 -3043.125)" fill="url(#linear-gradient-48)"/>
              <path id="Path_17931" data-name="Path 17931" d="M2323.35,3052.284c0,2.825-1.741,5.115-3.889,5.115s-3.889-2.29-3.889-5.115,1.741-5.115,3.889-5.115S2323.35,3049.459,2323.35,3052.284Z" transform="translate(-2314.489 -3046.591)" fill="url(#linear-gradient-23)"/>
              <path id="Path_17932" data-name="Path 17932" d="M2334.643,3070.838a1.691,1.691,0,1,1-1.629-2.144A1.94,1.94,0,0,1,2334.643,3070.838Z" transform="translate(-2328.042 -3065.041)" fill="url(#linear-gradient-50)"/>
            </g>
            <path id="Path_17933" data-name="Path 17933" d="M2335.21,3036.75v5.617a1.493,1.493,0,0,0,1.493,1.493h0a1.493,1.493,0,0,0,1.206-.613l5.052-6.917Z" transform="translate(-2331.322 -3036.33)" fill="#c2c2c2"/>
          </g>
          <g id="Group_10162" data-name="Group 10162" transform="translate(15.34 0.723)">
            <path id="Path_17934" data-name="Path 17934" d="M2036.813,2492.059a.484.484,0,0,1-.053-.964l49.3-5.556a7.706,7.706,0,0,0,6.1-5.581l20.654-76.894a9.4,9.4,0,0,1,8.428-6.936l14.993-.894a.484.484,0,0,1,.058.966l-14.988.894a8.429,8.429,0,0,0-7.556,6.222l-20.654,76.894a8.685,8.685,0,0,1-6.9,6.288l-49.332,5.56A.46.46,0,0,1,2036.813,2492.059Z" transform="translate(-2036.33 -2395.231)" fill="#c2c2c2"/>
          </g>
          <g id="Group_10163" data-name="Group 10163" transform="translate(38.031 25.687)">
            <path id="Path_17935" data-name="Path 17935" d="M2207.262,2611.57a.485.485,0,0,1-.465-.351l-11.61-40.626a.484.484,0,0,1,.93-.266l11.61,40.626a.484.484,0,0,1-.466.617Z" transform="translate(-2195.168 -2569.975)" fill="#c2c2c2"/>
          </g>
          <g id="Group_10164" data-name="Group 10164" transform="translate(54.358 24.372)">
            <path id="Path_17936" data-name="Path 17936" d="M2317.1,2601.981a.484.484,0,0,1-.476-.4l-7.161-40.244a.484.484,0,0,1,.953-.17l7.161,40.244a.484.484,0,0,1-.477.569Z" transform="translate(-2309.458 -2560.77)" fill="#c2c2c2"/>
          </g>
          <g id="Group_10165" data-name="Group 10165" transform="translate(68.898 23.477)">
            <path id="Path_17937" data-name="Path 17937" d="M2411.722,2595.3h-.02a.484.484,0,0,1-.464-.5l1.652-39.818a.472.472,0,0,1,.5-.464.484.484,0,0,1,.463.5l-1.652,39.818A.484.484,0,0,1,2411.722,2595.3Z" transform="translate(-2411.238 -2554.51)" fill="#c2c2c2"/>
          </g>
          <g id="Group_10166" data-name="Group 10166" transform="translate(19.808 27.156)">
            <path id="Path_17938" data-name="Path 17938" d="M2081.722,2621.87a.485.485,0,0,1-.459-.331l-13.632-40.645a.484.484,0,0,1,.918-.307l13.632,40.645a.485.485,0,0,1-.458.638Z" transform="translate(-2067.605 -2580.258)" fill="#c2c2c2"/>
          </g>
          <g id="Group_10167" data-name="Group 10167" transform="translate(114.976)">
            <path id="Path_17939" data-name="Path 17939" d="M2769.086,2394.861c-.027,0-.054,0-.082,0l-34.312-2.758a.968.968,0,1,1,.162-1.929l34.312,2.759a.967.967,0,0,1-.08,1.932Z" transform="translate(-2733.783 -2390.167)" fill="url(#linear-gradient-50)"/>
          </g>
          <g id="Group_10169" data-name="Group 10169" transform="translate(49.042 110.746)">
            <g id="Group_10168" data-name="Group 10168" transform="translate(0 0.971)">
              <path id="Path_17940" data-name="Path 17940" d="M2280.022,3177.3c0,2.825-1.741,5.115-3.889,5.115s-3.889-2.29-3.889-5.115,1.741-5.116,3.889-5.116S2280.022,3174.477,2280.022,3177.3Z" transform="translate(-2272.245 -3172.187)" fill="url(#linear-gradient-48)"/>
              <path id="Path_17941" data-name="Path 17941" d="M2287.6,3181.345c0,2.825-1.741,5.116-3.889,5.116s-3.889-2.291-3.889-5.116,1.741-5.115,3.889-5.115S2287.6,3178.52,2287.6,3181.345Z" transform="translate(-2278.744 -3175.652)" fill="url(#linear-gradient-23)"/>
              <path id="Path_17942" data-name="Path 17942" d="M2298.9,3199.9a1.691,1.691,0,1,1-1.629-2.144A1.94,1.94,0,0,1,2298.9,3199.9Z" transform="translate(-2292.297 -3194.102)" fill="url(#linear-gradient-50)"/>
            </g>
            <path id="Path_17943" data-name="Path 17943" d="M2299.466,3165.812v5.617a1.493,1.493,0,0,0,1.493,1.493h0a1.494,1.494,0,0,0,1.206-.613l5.052-6.917Z" transform="translate(-2295.578 -3165.392)" fill="#999"/>
          </g>
          <g id="Group_10171" data-name="Group 10171" transform="translate(85.088 107.137)">
            <g id="Group_10170" data-name="Group 10170" transform="translate(0 0.971)">
              <path id="Path_17944" data-name="Path 17944" d="M2532.345,3152.042c0,2.825-1.741,5.115-3.889,5.115s-3.889-2.29-3.889-5.115,1.741-5.115,3.889-5.115S2532.345,3149.217,2532.345,3152.042Z" transform="translate(-2524.567 -3146.927)" fill="url(#linear-gradient-48)"/>
              <path id="Path_17945" data-name="Path 17945" d="M2539.927,3156.085c0,2.825-1.741,5.116-3.889,5.116s-3.889-2.291-3.889-5.116,1.741-5.115,3.889-5.115S2539.927,3153.26,2539.927,3156.085Z" transform="translate(-2531.067 -3150.392)" fill="url(#linear-gradient-23)"/>
              <path id="Path_17946" data-name="Path 17946" d="M2551.222,3174.638a1.691,1.691,0,1,1-1.629-2.144A1.94,1.94,0,0,1,2551.222,3174.638Z" transform="translate(-2544.621 -3168.842)" fill="url(#linear-gradient-50)"/>
            </g>
            <path id="Path_17947" data-name="Path 17947" d="M2551.789,3140.552v5.617a1.494,1.494,0,0,0,1.493,1.494h0a1.493,1.493,0,0,0,1.206-.613l5.052-6.917Z" transform="translate(-2547.9 -3140.132)" fill="#999"/>
          </g>
          <g id="Group_10172" data-name="Group 10172" transform="translate(0 21.767)">
            <path id="Path_17948" data-name="Path 17948" d="M1929.434,2549.822a.484.484,0,0,1-.034-.967l87.811-6.32a.543.543,0,0,1,.116.005l36.353,6.192a.484.484,0,0,1-.163.954l-36.3-6.182-87.753,6.316Z" transform="translate(-1928.95 -2542.533)" fill="#c2c2c2"/>
          </g>
          <g id="Group_10173" data-name="Group 10173" transform="translate(0 27.958)">
            <path id="Path_17949" data-name="Path 17949" d="M1959.27,2596.03a.49.49,0,0,1-.14-.021l-29.837-9.059a.484.484,0,1,1,.281-.926l29.745,9.031,94.232-9.178a.484.484,0,0,1,.094.963l-94.327,9.187Z" transform="translate(-1928.949 -2585.875)" fill="#999"/>
          </g>
          <g id="Group_10174" data-name="Group 10174" transform="translate(22.358 63.689)">
            <path id="Path_17950" data-name="Path 17950" d="M2176.386,2842.467a.508.508,0,0,1-.074-.006l-35.839-5.5-54.489,5.245a.484.484,0,0,1-.093-.964l54.549-5.251a.481.481,0,0,1,.12,0l35.9,5.508a.484.484,0,0,1-.073.962Z" transform="translate(-2085.454 -2835.991)" fill="#c2c2c2"/>
          </g>
          <g id="Group_10175" data-name="Group 10175" transform="translate(29.837 37.146)">
            <path id="Path_17951" data-name="Path 17951" d="M2156.4,2689.375a.485.485,0,0,1-.437-.277l-18.108-38.218a.484.484,0,1,1,.875-.415l17.963,37.912,64.522-6.135a.484.484,0,1,1,.092.963l-64.86,6.167Z" transform="translate(-2137.807 -2650.188)" fill="#999"/>
          </g>
          <g id="Group_10176" data-name="Group 10176" transform="translate(0 28.087)">
            <path id="Path_17952" data-name="Path 17952" d="M1977.378,2635.021a.472.472,0,0,1-.118-.015l-25.587-6.424a.483.483,0,0,1-.307-.237l-22.358-40.853a.484.484,0,0,1,.849-.465l22.256,40.667,25.382,6.373a.484.484,0,0,1-.117.953Z" transform="translate(-1928.949 -2586.776)" fill="#999"/>
          </g>
          <g id="Group_10177" data-name="Group 10177" transform="translate(8.322 42.81)">
            <path id="Path_17953" data-name="Path 17953" d="M2015.791,2699.043a.494.494,0,0,1-.136-.02l-28.1-8.237a.484.484,0,0,1,.272-.929l28.013,8.211,83.077-7.246a.484.484,0,0,1,.084.964l-83.168,7.254Z" transform="translate(-1987.206 -2689.838)" fill="#999"/>
          </g>
          <g id="Group_10178" data-name="Group 10178" transform="translate(16.368 57.994)">
            <path id="Path_17954" data-name="Path 17954" d="M2070.927,2804.636a.475.475,0,0,1-.131-.018l-26.92-7.542a.484.484,0,1,1,.261-.932l26.836,7.518,72.151-6.312a.484.484,0,0,1,.084.964l-72.238,6.32Z" transform="translate(-2043.523 -2796.126)" fill="#999"/>
          </g>
          <g id="Group_10179" data-name="Group 10179" transform="translate(49.641 35.361)">
            <path id="Path_17955" data-name="Path 17955" d="M2288.471,2677.409a.484.484,0,0,1-.463-.346l-11.548-38.743a.484.484,0,1,1,.928-.277l11.548,38.743a.484.484,0,0,1-.326.6A.489.489,0,0,1,2288.471,2677.409Z" transform="translate(-2276.439 -2637.697)" fill="#999"/>
          </g>
          <g id="Group_10180" data-name="Group 10180" transform="translate(67.038 33.638)">
            <path id="Path_17956" data-name="Path 17956" d="M2405.625,2665.855a.484.484,0,0,1-.476-.4l-6.926-39.252a.484.484,0,0,1,.953-.168l6.926,39.252a.484.484,0,0,1-.393.561A.5.5,0,0,1,2405.625,2665.855Z" transform="translate(-2398.215 -2625.635)" fill="#999"/>
          </g>
          <g id="Group_10181" data-name="Group 10181" transform="translate(86.188 32.276)">
            <path id="Path_17957" data-name="Path 17957" d="M2534.935,2656.04a.483.483,0,0,1-.482-.457l-2.183-38.975a.484.484,0,0,1,.967-.054l2.183,38.975a.484.484,0,0,1-.456.51Z" transform="translate(-2532.269 -2616.097)" fill="#999"/>
          </g>
          <g id="Group_10182" data-name="Group 10182" transform="translate(102.02 30.125)">
            <path id="Path_17958" data-name="Path 17958" d="M2643.58,2641.61h-.025a.484.484,0,0,1-.458-.508l2.077-39.6a.484.484,0,1,1,.967.051l-2.077,39.6A.483.483,0,0,1,2643.58,2641.61Z" transform="translate(-2643.095 -2601.045)" fill="#999"/>
          </g>
          <g id="Group_10183" data-name="Group 10183" transform="translate(21.542 34.627)">
            <path id="Path_17959" data-name="Path 17959" d="M2098.891,2672.321a.484.484,0,0,1-.437-.274l-18.665-38.794a.484.484,0,1,1,.872-.419l18.665,38.794a.483.483,0,0,1-.436.694Z" transform="translate(-2079.742 -2632.559)" fill="#999"/>
          </g>
          <g id="Group_10184" data-name="Group 10184" transform="translate(10.025 31.13)">
            <path id="Path_17960" data-name="Path 17960" d="M2019.419,2648.732a.483.483,0,0,1-.433-.268l-19.812-39.687a.484.484,0,1,1,.866-.432l19.812,39.687a.484.484,0,0,1-.433.7Z" transform="translate(-1999.123 -2608.077)" fill="#999"/>
          </g>
          <g id="Group_10185" data-name="Group 10185" transform="translate(15.34 3.243)">
            <path id="Path_17961" data-name="Path 17961" d="M2073.724,2521.825a.483.483,0,0,1-.178-.034l-36.911-14.649a.484.484,0,1,1,.357-.9l36.8,14.6,44.662-5.456a8.354,8.354,0,0,0,7.065-6.095l24.408-88.611a9.414,9.414,0,0,1,8.379-6.876l12.95-.939a.484.484,0,1,1,.07.965l-12.951.939a8.445,8.445,0,0,0-7.516,6.168l-24.408,88.612a9.321,9.321,0,0,1-7.881,6.8l-44.785,5.471A.578.578,0,0,1,2073.724,2521.825Z" transform="translate(-2036.329 -2412.868)" fill="#999"/>
          </g>
        </g>
        <path id="Path_17962" data-name="Path 17962" d="M2763.851,2381.1s-3.423-3.013-6.783-1.911a2.93,2.93,0,0,0-1.772,1.337,2.715,2.715,0,0,0,.3,2.864c.869,1.075,2.537,1.077,4.159-.355-.143-.037-1.088.414-1.323-.38a1.417,1.417,0,0,1,.01-.751C2758.87,2380.573,2763.529,2381.087,2763.851,2381.1Z" transform="translate(-2637.009 -2313.277)" fill="url(#linear-gradient-61)"/>
      </g>
      <g id="Group_10190" data-name="Group 10190" transform="translate(550.739 738.463)">
        <g id="Group_10189" data-name="Group 10189" transform="translate(0)">
          <path id="Path_17963" data-name="Path 17963" d="M1195.321,2461.268c17.471-2.245,39.622-8.142,48.519-24.773,2.117-3.957,4.24-11.642-1.1-14.536-4.883-2.646-11.2.149-14.827,3.591-2.668,2.531-4.751,8.181-7.749,9.968-4.388,2.615-6.751-4.52-6.659-7.464.206-6.583,8.3-9.278,13.686-10.708,8.933-2.373,19.334-4.406,18.774-14.474s-10.375-16.105-17.926-11.7c-6.221,3.629-5.345,11.375-9.6,16.022-3.777,4.128-5.091-2.573-4.839-5.858.548-7.136,6.823-12.3,11.439-17.08,5.22-5.407,10.987-16.285,5.423-23.434-3.2-4.114-11.336-5.077-16.143-4.383-23.532,3.4-7.928,33.851-12.206,37.248s-8.327-2.55-8.316-11.594-1.374-15.713-10.811-12.819-11.235,26.517-.458,35.595-.677,18.982-3.57,12.477c-2.089-4.7-3.925-17-9.961-18.349-10.058-2.244-9.909,18.294-7.014,23.074,4.058,6.7,13.233,8.156,18.357,13.937,1.489,1.679,4.849,5.839,3.544,8.294-1.821,3.424-6.9-.239-8.767-1.826-4.2-3.567-10-15.69-15.915-7.639C1151.906,2444.776,1164.113,2459.513,1195.321,2461.268Z" transform="translate(-1157.153 -2356.232)" fill="url(#linear-gradient-62)"/>
          <g id="Group_10188" data-name="Group 10188" transform="translate(39.926 23.322)" opacity="0.8" style="mix-blend-mode: soft-light;isolation: isolate">
            <path id="Path_17964" data-name="Path 17964" d="M1437.4,2599.768c-.41,0-.747-.493-.755-.905-.007-.357-.493-36.252,15.147-78.845a.778.778,0,0,1,.969-.49.733.733,0,0,1,.448.948c-15.543,42.33-15.061,78.014-15.055,78.368.008.417-.324.923-.74.923Z" transform="translate(-1436.64 -2519.486)" fill="#fff"/>
          </g>
        </g>
        <path id="Path_17965" data-name="Path 17965" d="M1205.02,2660.848c-2.832-2.41-8.849,1.359-11.346,2.792-1.448.831-3.431,2.107-5.173,1.367-1.831-.778-1.7-2.7-.595-4.061,1.982-2.438,5.785-3.107,8.548-4.3,2.969-1.276,5.694-3.014,7.158-6.01,1.167-2.389,1.434-5.92.12-8.273-3.636-6.511-8.93-1.43-11.89,2.454-1.436,1.885-4.653,5.131-7.091,2.909-2.594-2.364-.368-6.579,1.645-8.437,2.63-2.429,5.814-4.117,8.678-6.229,2.583-1.9,5.235-4.631,3.516-8.006-1.328-2.607-4.671-4.051-7.526-3.829-6.6.511-7.628,10.147-11.975,13.846-1.537,1.308-5.03,2.348-6.863,1.065-1.865-1.309-.653-4.3.018-5.937,1.99-4.842,16.267-21.076,4.434-23.115a13.075,13.075,0,0,0-9.422,2.318c-4.415,3.572-6.757,10.647-7.92,16.015a59.949,59.949,0,0,0,.316,26.224c4.513,18.562,15.119,24.524,15.119,24.524,4.587,1.51,10.322,2.254,15.078,1.248,5.59-1.183,12.275-5.321,15.039-10.483C1205.781,2665.264,1206.775,2662.341,1205.02,2660.848Z" transform="translate(-1157.911 -2571.134)" fill="url(#linear-gradient-63)"/>
      </g>
      <g id="Group_10196" data-name="Group 10196" transform="translate(466.872 728.842)">
        <g id="Group_10192" data-name="Group 10192" transform="translate(0 0)">
          <path id="Path_17966" data-name="Path 17966" d="M794.229,2328.384a.99.99,0,0,1-1.033-.956c-.5-10.024-3.318-19.464-7.926-26.576-4.077-6.292-9.095-9.944-13.424-9.779h-.014c-15.719.628-20.615,37.331-20.662,37.7a1.176,1.176,0,0,1-1.2,1.027.989.989,0,0,1-.921-1.145c.2-1.593,5.208-39.055,22.876-39.766h.019c5.115-.2,10.642,3.686,15.164,10.661,4.8,7.406,7.735,17.21,8.254,27.6a1.2,1.2,0,0,1-1.029,1.226C794.3,2328.38,794.263,2328.383,794.229,2328.384Z" transform="translate(-723.475 -2288.884)" fill="url(#linear-gradient-64)"/>
          <path id="Path_17967" data-name="Path 17967" d="M572.106,2620.49l20.044,10.178,14.217-39.25L588.1,2539.761l-5.876,1.643-12.09,75.033A3.8,3.8,0,0,0,572.106,2620.49Z" transform="translate(-570.085 -2503.922)" fill="url(#linear-gradient-65)"/>
          <path id="Path_17968" data-name="Path 17968" d="M664.712,2591.418l-18.263-51.657-3.467.97a116.158,116.158,0,0,0-.688,16.865c.59,17.715,4.938,22.534,2.178,34.981-2.292,10.342-6.364,11.832-6.319,18.747.049,7.531,4.931,13.741,10.858,18.591l1.483.753Z" transform="translate(-628.429 -2503.922)" opacity="0.52" fill="url(#linear-gradient-66)" style="mix-blend-mode: multiply;isolation: isolate"/>
          <path id="Path_17969" data-name="Path 17969" d="M696.223,2524.426l77.532-2.556,22.271,83.831-95.758,9.633Z" transform="translate(-678.203 -2488.586)" fill="url(#linear-gradient-67)"/>
          <path id="Path_17970" data-name="Path 17970" d="M847.255,2334.86a.979.979,0,0,1-1.007-.808c-.177-.942-4.25-23.191,3.384-34.458a13.89,13.89,0,0,1,8.781-6.054c18.745-4.031,28.442,36.079,28.846,37.791a1.19,1.19,0,0,1-.812,1.376,1,1,0,0,1-1.306-.716c-.095-.4-9.632-39.931-26.449-36.314a11.429,11.429,0,0,0-7.318,5.051c-7.1,10.476-3.054,32.538-3.012,32.76a1.186,1.186,0,0,1-.858,1.335A1.075,1.075,0,0,1,847.255,2334.86Z" transform="translate(-805.732 -2292.631)" fill="url(#linear-gradient-68)"/>
          <g id="Group_10191" data-name="Group 10191" transform="translate(26.686 33.283)" opacity="0.3" style="mix-blend-mode: multiply;isolation: isolate">
            <path id="Path_17971" data-name="Path 17971" d="M825.752,2521.869l-38.693,1.276a11.616,11.616,0,0,0-3.669,6.841c-1.13,11.882,25.713,14.98,27.6,31.231,1.364,11.729-10.844,25.587-21.429,31.86-11.115,6.586-18.293,3.532-25.894,10.72a26.415,26.415,0,0,0-6.784,11.072l91.138-9.168Z" transform="translate(-756.886 -2521.869)" fill="url(#linear-gradient-69)"/>
          </g>
          <path id="Path_17972" data-name="Path 17972" d="M845.746,2567.258a3.317,3.317,0,0,1-3.136,3.141,2.76,2.76,0,0,1-2.864-2.95,3.316,3.316,0,0,1,3.134-3.141A2.759,2.759,0,0,1,845.746,2567.258Z" transform="translate(-801.221 -2524.961)" fill="url(#linear-gradient-70)"/>
          <path id="Path_17973" data-name="Path 17973" d="M1121.167,2556.383a3.348,3.348,0,0,1-3.174,3.161,2.784,2.784,0,0,1-2.9-2.967,3.348,3.348,0,0,1,3.171-3.161A2.783,2.783,0,0,1,1121.167,2556.383Z" transform="translate(-1037.234 -2515.624)" fill="url(#linear-gradient-71)"/>
        </g>
        <g id="Group_10195" data-name="Group 10195" transform="translate(36.384 56.433)">
          <g id="Group_10193" data-name="Group 10193" transform="translate(0 0.47)" opacity="0.15" style="mix-blend-mode: multiply;isolation: isolate">
            <path id="Path_17974" data-name="Path 17974" d="M849.73,2701.133c-.559,9.419-6.59,14.458-13.049,14.6-7.023.15-12.4-5.164-11.871-14.125.5-8.523,6.061-14.75,13.909-14.386C846.351,2687.571,850.186,2693.445,849.73,2701.133Zm-16.709.278c-.29,4.9,1.132,8.421,4.22,8.4,2.974-.021,4.6-3.135,4.9-8.285.276-4.656-.739-8.294-3.982-8.4C835.007,2693.025,833.3,2696.726,833.021,2701.411Zm5.184,30.04,24.32-41.78a2.478,2.478,0,0,1,2.223-1.249h0a2.169,2.169,0,0,1,1.684,3.355l-24.1,41.78a2.461,2.461,0,0,1-1.944,1.237l-.248.017A2.168,2.168,0,0,1,838.2,2731.451Zm39.084-12.535c-.522,8.759-5.769,13.663-11.356,14.035-6,.4-10.605-4.306-10.176-12.6.469-7.892,5.281-13.877,12.052-13.873C874.412,2706.481,877.715,2711.766,877.288,2718.916Zm-14.4.927c-.332,4.547.881,7.748,3.547,7.607,2.571-.135,3.986-3.083,4.271-7.865.258-4.324-.547-7.652-3.349-7.615C864.58,2712.006,863.151,2715.5,862.893,2719.843Z" transform="translate(-824.774 -2687.202)" fill="url(#linear-gradient-72)"/>
          </g>
          <g id="Group_10194" data-name="Group 10194" transform="translate(1.097)">
            <path id="Path_17975" data-name="Path 17975" d="M857.418,2697.846c-.559,9.421-6.592,14.461-13.053,14.6-7.025.151-12.405-5.164-11.875-14.127.5-8.524,6.064-14.752,13.914-14.39C854.038,2684.281,857.875,2690.156,857.418,2697.846Zm-16.715.28c-.29,4.9,1.133,8.422,4.221,8.4,2.975-.022,4.6-3.137,4.9-8.287.276-4.656-.739-8.295-3.983-8.4C842.691,2689.738,840.981,2693.439,840.7,2698.126Zm5.185,30.045,24.328-41.789a2.48,2.48,0,0,1,2.224-1.249h0a2.169,2.169,0,0,1,1.685,3.355l-24.109,41.789a2.462,2.462,0,0,1-1.945,1.237l-.249.017A2.168,2.168,0,0,1,845.889,2728.17Zm39.1-12.54c-.522,8.761-5.771,13.666-11.359,14.038-6,.4-10.609-4.305-10.179-12.6.469-7.893,5.282-13.88,12.056-13.876C882.109,2703.193,885.412,2708.479,884.986,2715.63Zm-14.4.927c-.332,4.548.882,7.749,3.549,7.608,2.572-.136,3.988-3.084,4.273-7.867.258-4.325-.547-7.654-3.351-7.615C872.273,2708.72,870.844,2712.213,870.586,2716.558Z" transform="translate(-832.453 -2683.913)" fill="#fff"/>
          </g>
        </g>
      </g>
    </g>
  </g>
</svg>
