<svg xmlns="http://www.w3.org/2000/svg" width="27" height="26.867" viewBox="0 0 27 26.867">
  <path id="call-icon" d="M7.436,11.045a22.411,22.411,0,0,0,3.312,4.641A18.971,18.971,0,0,0,16,19.561a.545.545,0,0,0,.455.024,1.955,1.955,0,0,0,.631-.462,7.024,7.024,0,0,0,.576-.705c.844-1.11,1.888-2.488,3.362-1.8.033.015.057.033.09.046L26.03,19.5c.015.009.033.024.046.033A2.217,2.217,0,0,1,27,21.442a5.185,5.185,0,0,1-.721,2.439,5,5,0,0,1-2.365,2.09A10.777,10.777,0,0,1,21,26.765a9.894,9.894,0,0,1-4.455-.371,19.765,19.765,0,0,1-4.481-2.162l-.116-.075c-.727-.455-1.514-.941-2.286-1.514a28.667,28.667,0,0,1-7.573-8.6A13.968,13.968,0,0,1,.127,5.2,6.341,6.341,0,0,1,2.274,1.178,5.757,5.757,0,0,1,6.553.035a.617.617,0,0,1,.494.316L10.2,5.683a1.667,1.667,0,0,1,.266,1.784A3.467,3.467,0,0,1,9.26,8.819c-.169.145-.371.292-.585.446-.705.512-1.508,1.1-1.233,1.8l-.007-.018Z" transform="translate(0.001 -0.003)" fill="#00a7ad"/>
</svg>
