<svg id="Layer_2" data-name="Layer 2" xmlns="http://www.w3.org/2000/svg" width="225.258" height="60" viewBox="0 0 225.258 60">
  <g id="Layer_1" data-name="Layer 1">
    <path id="Path_16439" data-name="Path 16439" d="M85.533,30.132l-.521,3.914-2.083-.109a4.445,4.445,0,0,0-.672.059,4.125,4.125,0,0,0-.6.151,2.89,2.89,0,0,0-.538.26c-.168.118-.336.235-.5.37a4.367,4.367,0,0,0-.428.445,3.511,3.511,0,0,0-.378.546,5.04,5.04,0,0,0-.328.638c-.084.227-.185.462-.269.714v16.9H74.772V30.3h4.057l.328,3.578a9.634,9.634,0,0,1,.42-.89c.143-.286.3-.546.454-.79a7.249,7.249,0,0,1,.521-.68,4.2,4.2,0,0,1,.58-.58,3.973,3.973,0,0,1,.63-.454,4.561,4.561,0,0,1,.672-.336,4.981,4.981,0,0,1,.714-.2,4.561,4.561,0,0,1,.773-.067h.9l.21.05h.193l.168.042.143.05M105.247,54H100.8c-.05-.151-.084-.286-.126-.42a3.656,3.656,0,0,1-.092-.386c-.025-.126-.059-.269-.092-.395s-.059-.26-.092-.395a3.364,3.364,0,0,1-.067-.4,1.2,1.2,0,0,0-.059-.386c-.059-.126,0-.269,0-.395a3.114,3.114,0,0,1,0-.395c-.16.26-.336.521-.521.764a8.116,8.116,0,0,1-.6.7,6.443,6.443,0,0,1-.647.622c-.227.185-.462.37-.714.546a5.039,5.039,0,0,1-.756.454,6.022,6.022,0,0,1-.84.3,7.29,7.29,0,0,1-.84.193,7.375,7.375,0,0,1-.89.067,8.551,8.551,0,0,1-1.411-.134,6.359,6.359,0,0,1-1.26-.353,5.544,5.544,0,0,1-1.1-.6,4.612,4.612,0,0,1-.941-.84,6.04,6.04,0,0,1-.756-1.033,6.485,6.485,0,0,1-.521-1.176,8.4,8.4,0,0,1-.319-1.369,10.726,10.726,0,0,1-.109-1.5,8.232,8.232,0,0,1,.143-1.613,6.443,6.443,0,0,1,.428-1.411,5.93,5.93,0,0,1,.722-1.243,6.72,6.72,0,0,1,1.008-1.067,6.645,6.645,0,0,1,1.268-.84,9.122,9.122,0,0,1,1.52-.613,10.66,10.66,0,0,1,1.73-.378,16.094,16.094,0,0,1,1.974-.118h3.31V37.776a8.008,8.008,0,0,0-.109-1.008,5.972,5.972,0,0,0-.193-.907,4.619,4.619,0,0,0-.286-.79,4.444,4.444,0,0,0-.42-.664,3.208,3.208,0,0,0-.529-.538,3.158,3.158,0,0,0-.63-.386,3.6,3.6,0,0,0-.756-.227,3.755,3.755,0,0,0-.84-.076,3.62,3.62,0,0,0-.756.067,2.73,2.73,0,0,0-.63.16,2.571,2.571,0,0,0-.613.344,3.537,3.537,0,0,0-.538.47,4.2,4.2,0,0,0-.42.571,3.36,3.36,0,0,0-.311.655,4.344,4.344,0,0,0-.185.722,4.1,4.1,0,0,0-.059.84H88.632l-.067-.134a6.905,6.905,0,0,1,.1-1.327,6.25,6.25,0,0,1,.395-1.26,6.879,6.879,0,0,1,.706-1.184,7.98,7.98,0,0,1,.991-1.092,8.879,8.879,0,0,1,1.235-.941,8.341,8.341,0,0,1,1.4-.68,9.24,9.24,0,0,1,1.562-.4,11.633,11.633,0,0,1,1.747-.126,10.71,10.71,0,0,1,1.68.126,7.677,7.677,0,0,1,1.512.4,7.064,7.064,0,0,1,1.344.638,7.148,7.148,0,0,1,1.176.916,6.527,6.527,0,0,1,.949,1.151,6.183,6.183,0,0,1,.68,1.352,7.787,7.787,0,0,1,.4,1.6,11.373,11.373,0,0,1,.134,1.814V50.182a2.537,2.537,0,0,0,.059.664,3.469,3.469,0,0,1,.067.655c.017.218.076.437.109.638s.076.412.118.63.092.42.143.622S105.188,53.8,105.247,54Zm-9.9-2.957a5.308,5.308,0,0,0,.756-.059,4.317,4.317,0,0,0,.722-.176,3.637,3.637,0,0,0,.689-.3,4.931,4.931,0,0,0,.664-.395,5.106,5.106,0,0,0,.6-.487c.176-.168.353-.353.512-.538a4.369,4.369,0,0,0,.428-.6,6.141,6.141,0,0,0,.336-.664V42.967H96.7a5.721,5.721,0,0,0-.958.084,3.461,3.461,0,0,0-.84.244,3.057,3.057,0,0,0-.739.42,3.612,3.612,0,0,0-.622.571,4.8,4.8,0,0,0-.5.7,4.863,4.863,0,0,0-.353.764,4.032,4.032,0,0,0-.2.84,5.2,5.2,0,0,0-.067.9,7.327,7.327,0,0,0,0,.756,4.444,4.444,0,0,0,.143.68,3.411,3.411,0,0,0,.244.6,2.688,2.688,0,0,0,.336.529,3.436,3.436,0,0,0,.428.428,2.469,2.469,0,0,0,.487.3,3.217,3.217,0,0,0,.588.193,3.36,3.36,0,0,0,.7.076ZM114.319,30.3V54.021h-4.452V30.3Zm5.351,0h4.057l.235,3.511a8.975,8.975,0,0,1,.538-.84,7.9,7.9,0,0,1,.588-.781,5.637,5.637,0,0,1,.664-.68,6.535,6.535,0,0,1,.714-.58,4.9,4.9,0,0,1,.781-.462,5.04,5.04,0,0,1,.84-.328,5.166,5.166,0,0,1,.882-.2,6.569,6.569,0,0,1,.924-.059,7.031,7.031,0,0,1,1.487.143,4.939,4.939,0,0,1,1.3.428,4.645,4.645,0,0,1,1.126.714,6.845,6.845,0,0,1,.958,1.008,6.553,6.553,0,0,1,.764,1.3,9.6,9.6,0,0,1,.538,1.68,14.524,14.524,0,0,1,.319,1.949c.067.706.109,1.462.109,2.26V54h-4.452V39.33a14.744,14.744,0,0,0-.05-1.529c-.05-.47-.1-.9-.176-1.294a6.912,6.912,0,0,0-.294-1.05,3.461,3.461,0,0,0-.42-.79,4.057,4.057,0,0,0-.538-.6,2.881,2.881,0,0,0-.647-.428,3.545,3.545,0,0,0-.764-.252,4.426,4.426,0,0,0-.907-.092,3.309,3.309,0,0,0-.647.067,2.881,2.881,0,0,0-.63.16,5.04,5.04,0,0,0-.588.26,4.258,4.258,0,0,0-.546.378,4.334,4.334,0,0,0-.5.47,4.451,4.451,0,0,0-.454.529c-.143.193-.269.395-.395.6s-.244.445-.361.689V54.021h-4.452ZM70.547,40.909v3.209a17.27,17.27,0,0,1-.134,2.234,14.412,14.412,0,0,1-.378,1.991,11.759,11.759,0,0,1-.638,1.781,9.8,9.8,0,0,1-.89,1.537A7.493,7.493,0,0,1,67.389,52.9a6.72,6.72,0,0,1-1.336.89,7.123,7.123,0,0,1-1.546.521,8.913,8.913,0,0,1-1.747.185,7.8,7.8,0,0,1-.882-.084,8.5,8.5,0,0,1-.84-.143,4.6,4.6,0,0,1-.79-.269,6.436,6.436,0,0,1-.722-.361,3.982,3.982,0,0,1-.672-.462,7.761,7.761,0,0,1-.613-.554,5.452,5.452,0,0,1-.563-.664c-.176-.235-.344-.5-.5-.756l-.328,2.789H53V43.068h4.486v4.914c.109.235.218.462.336.68a4.377,4.377,0,0,0,.386.6,5.193,5.193,0,0,0,.437.512,3.948,3.948,0,0,0,.487.437,3.016,3.016,0,0,0,.563.336,3.914,3.914,0,0,0,.613.252,5.259,5.259,0,0,0,.672.151,5.132,5.132,0,0,0,.722.059,4.872,4.872,0,0,0,1.092-.126,4.108,4.108,0,0,0,.932-.344,3.251,3.251,0,0,0,.764-.588,3.435,3.435,0,0,0,.6-.84,7.164,7.164,0,0,0,.47-1.025,10.985,10.985,0,0,0,.328-1.184,12.3,12.3,0,0,0,.193-1.344c0-.487.067-.991.067-1.512V40.867a12.616,12.616,0,0,0-.067-1.621,11.121,11.121,0,0,0-.21-1.462,10.585,10.585,0,0,0-.277-1.218,9.391,9.391,0,0,0-.479-1.134,3.578,3.578,0,0,0-.613-.907,3.133,3.133,0,0,0-.773-.647,3.36,3.36,0,0,0-.941-.395,4.049,4.049,0,0,0-1.092-.134,3.805,3.805,0,0,0-.706.059,2.957,2.957,0,0,0-.664.168,5.1,5.1,0,0,0-.613.286,6.09,6.09,0,0,0-.563.386,3.813,3.813,0,0,0-.487.487,4.888,4.888,0,0,0-.437.554,5.879,5.879,0,0,0-.386.622c-.118.218-.227.462-.336.706v3.3H53V19.8h4.452V32.778a8.015,8.015,0,0,1,.5-.664,5.04,5.04,0,0,1,.521-.588c.176-.168.378-.336.58-.5l.63-.42a5.88,5.88,0,0,1,1.42-.588c.26-.059.521-.109.79-.143a7,7,0,0,1,.84,0,8.509,8.509,0,0,1,1.772.176,6.048,6.048,0,0,1,1.554.58A6.4,6.4,0,0,1,68.506,32.9a9.962,9.962,0,0,1,.9,1.68,12.147,12.147,0,0,1,.63,1.865,17.4,17.4,0,0,1,.386,2.142,21.723,21.723,0,0,1,.126,2.318Z" transform="translate(-8.481 -3.168)" fill="#00a7ad"/>
    <rect id="Rectangle_634" data-name="Rectangle 634" width="4.452" height="5.493" transform="translate(101.411 16.632)" fill="#414042"/>
    <path id="Path_16440" data-name="Path 16440" d="M165.622,52.135v-.05a6.276,6.276,0,0,0,.84-.05,4.041,4.041,0,0,0,.731-.176,6.176,6.176,0,0,0,.638-.286,3.571,3.571,0,0,0,.529-.386,3.739,3.739,0,0,0,.428-.47,2.318,2.318,0,0,0,.3-.546,2.7,2.7,0,0,0,.185-.613,2.939,2.939,0,0,0,.067-.672,3.362,3.362,0,0,0-.05-.664,3.167,3.167,0,0,0-.47-1.176,3.721,3.721,0,0,0-.395-.5,4.946,4.946,0,0,0-.571-.5,7.366,7.366,0,0,0-.756-.512c-.286-.176-.6-.353-.958-.538s-.731-.37-1.159-.554c-.613-.244-1.184-.479-1.68-.731s-1.016-.5-1.478-.748a12.533,12.533,0,0,1-1.243-.764,10.544,10.544,0,0,1-1.008-.79,5.09,5.09,0,0,1-.781-.84,4.663,4.663,0,0,1-.554-1,5.309,5.309,0,0,1-.361-1.092,6.962,6.962,0,0,1-.109-1.21,6.216,6.216,0,0,1,.134-1.319,5.88,5.88,0,0,1,.4-1.218,6.9,6.9,0,0,1,.68-1.109,7.559,7.559,0,0,1,.949-1.025,6.719,6.719,0,0,1,1.176-.84,9,9,0,0,1,1.327-.6,10.081,10.081,0,0,1,1.5-.353,10.743,10.743,0,0,1,1.68-.126,11.407,11.407,0,0,1,1.739.134,8.257,8.257,0,0,1,1.554.395,7.392,7.392,0,0,1,1.352.638,6.963,6.963,0,0,1,1.184.916,7.164,7.164,0,0,1,.941,1.109,5.746,5.746,0,0,1,.655,1.226,6.191,6.191,0,0,1,.395,1.361,7.729,7.729,0,0,1,.092,1.478v.134h-4.318a4.2,4.2,0,0,0-.067-.84,3.981,3.981,0,0,0-.185-.756,3.721,3.721,0,0,0-.3-.7,4.107,4.107,0,0,0-.412-.638,3.561,3.561,0,0,0-.529-.538,3.032,3.032,0,0,0-.6-.328,3.763,3.763,0,0,0-.7-.227,4,4,0,0,0-.79-.076,5.88,5.88,0,0,0-.79.059,3.1,3.1,0,0,0-.706.176,3.427,3.427,0,0,0-.613.294,2.637,2.637,0,0,0-.5.412c-.143.168-.277.328-.395.5a3.017,3.017,0,0,0-.294.538,2.8,2.8,0,0,0-.176.588,3.631,3.631,0,0,0-.059.622,3.9,3.9,0,0,0,.059.63,4.647,4.647,0,0,0,.151.588,2.522,2.522,0,0,0,.252.5,1.8,1.8,0,0,0,.336.428,3.611,3.611,0,0,0,.512.428c.21.16.454.311.739.487s.613.344.983.529.773.395,1.226.613c.613.227,1.193.462,1.73.7s1.042.487,1.5.739.84.529,1.26.8a12.007,12.007,0,0,1,1.033.84,6.233,6.233,0,0,1,.84.916,5.88,5.88,0,0,1,.571,1.025,5.954,5.954,0,0,1,.344,1.159,7.654,7.654,0,0,1,.1,1.26,6.383,6.383,0,0,1-.143,1.394,6.048,6.048,0,0,1-.412,1.268,5.535,5.535,0,0,1-.706,1.134,7.628,7.628,0,0,1-.974.974,7.872,7.872,0,0,1-1.21.84,7.434,7.434,0,0,1-1.369.571,8.929,8.929,0,0,1-1.554.344,14.276,14.276,0,0,1-1.747.118,12.758,12.758,0,0,1-1.848-.151,10.256,10.256,0,0,1-1.68-.412,7.678,7.678,0,0,1-1.445-.706,8.139,8.139,0,0,1-1.243-.974,8.4,8.4,0,0,1-.983-1.176,6.526,6.526,0,0,1-.689-1.252,6.183,6.183,0,0,1-.395-1.344,7.5,7.5,0,0,1-.1-1.453l.042-.126h4.15a8.5,8.5,0,0,0,.1,1.075,4.686,4.686,0,0,0,.26.916,3.15,3.15,0,0,0,.395.748,3.494,3.494,0,0,0,.512.6,3.234,3.234,0,0,0,.638.445,4.257,4.257,0,0,0,.689.319,5.359,5.359,0,0,0,.764.2,5.51,5.51,0,0,0,.84.067m25.2-7.131V42.122a13.631,13.631,0,0,0-.067-1.68c-.067-.538-.134-1.025-.227-1.5a10.226,10.226,0,0,0-.361-1.352,8.959,8.959,0,0,0-.5-1.184,5.452,5.452,0,0,0-.647-.958,3.435,3.435,0,0,0-1.68-1.109,3.7,3.7,0,0,0-1.075-.143,4.442,4.442,0,0,0-.672.05,6.478,6.478,0,0,0-.638.151,3.268,3.268,0,0,0-.58.252c-.176.109-.361.218-.538.353a4.093,4.093,0,0,0-.5.445,3.83,3.83,0,0,0-.428.521c-.126.185-.252.386-.378.6a5.117,5.117,0,0,0-.336.68v3.6h-4.452v-9.71h3.965L182,33.865c.16-.252.328-.487.5-.714a7.94,7.94,0,0,1,.546-.63,5.157,5.157,0,0,1,.6-.546,7.668,7.668,0,0,1,.655-.454,5.04,5.04,0,0,1,.706-.361,4.569,4.569,0,0,1,.764-.269c.26-.059.529-.109.84-.151a7.2,7.2,0,0,1,.84-.05,7.375,7.375,0,0,1,1.747.193,6.451,6.451,0,0,1,1.562.588,5.88,5.88,0,0,1,1.336.958,7.846,7.846,0,0,1,1.142,1.378,10.393,10.393,0,0,1,.907,1.68,11.834,11.834,0,0,1,.638,1.932,16.878,16.878,0,0,1,.378,2.184,20.424,20.424,0,0,1,.134,2.444v2.94a18.9,18.9,0,0,1-.134,2.234,15.767,15.767,0,0,1-.386,1.991,10.921,10.921,0,0,1-.63,1.764,8.98,8.98,0,0,1-.916,1.529,8.4,8.4,0,0,1-1.134,1.235,6.443,6.443,0,0,1-1.327.89,6.317,6.317,0,0,1-1.529.521,7.56,7.56,0,0,1-1.73.185h-.84a4.161,4.161,0,0,1-.8-.126,4.914,4.914,0,0,1-.731-.21,7,7,0,0,1-.68-.3,7.267,7.267,0,0,1-.638-.395,4.914,4.914,0,0,1-.58-.454,6.493,6.493,0,0,1-.538-.538,6.063,6.063,0,0,1-.5-.613v11.34H177.76V43.97h4.477v5.2a4.947,4.947,0,0,0,.328.63,4.889,4.889,0,0,0,.37.554,4.707,4.707,0,0,0,.412.479,4.343,4.343,0,0,0,.479.4l.554.311a3.041,3.041,0,0,0,.6.235,5.038,5.038,0,0,0,.622.134h.714a4.443,4.443,0,0,0,1.075-.118,3.637,3.637,0,0,0,.941-.361,3.7,3.7,0,0,0,.764-.588,4.309,4.309,0,0,0,.647-.84,6.493,6.493,0,0,0,.487-1.033,8.133,8.133,0,0,0,.353-1.184,13.061,13.061,0,0,0,.21-1.336c.042-.42.067-.924.067-1.453Zm25.3,9.87h-4.452c-.05-.151-.084-.286-.126-.42a3.662,3.662,0,0,1-.092-.386c-.025-.126-.059-.269-.092-.395s-.059-.26-.092-.395a3.364,3.364,0,0,1-.067-.4c-.017-.134-.042-.26-.059-.386a10214.715,10214.715,0,0,1,0-.79c-.16.26-.336.521-.521.764a8.112,8.112,0,0,1-.6.7,6.445,6.445,0,0,1-.647.622c-.227.185-.462.37-.714.546a5.04,5.04,0,0,1-.756.454,6.023,6.023,0,0,1-.84.3,7.291,7.291,0,0,1-.84.193,7.375,7.375,0,0,1-.89.067,8.552,8.552,0,0,1-1.411-.134,6.359,6.359,0,0,1-1.26-.353,5.787,5.787,0,0,1-1.1-.6,4.612,4.612,0,0,1-.941-.84,6.039,6.039,0,0,1-.756-1.033,6.483,6.483,0,0,1-.521-1.176,9.341,9.341,0,0,1-.319-1.369,10.726,10.726,0,0,1-.109-1.5,8.232,8.232,0,0,1,.143-1.613,6.931,6.931,0,0,1,.428-1.411,5.93,5.93,0,0,1,.722-1.243,6.72,6.72,0,0,1,1.008-1.067,6.644,6.644,0,0,1,1.268-.84,9.122,9.122,0,0,1,1.52-.613,10.659,10.659,0,0,1,1.73-.378,16.1,16.1,0,0,1,1.974-.118h3.31V38.645a8,8,0,0,0-.067-1.031,5.972,5.972,0,0,0-.193-.909,4.006,4.006,0,0,0-.286-.79,4.443,4.443,0,0,0-.42-.664,3.21,3.21,0,0,0-.529-.538,3.158,3.158,0,0,0-.63-.386,3.671,3.671,0,0,0-.748-.227,3.881,3.881,0,0,0-.84-.076,3.62,3.62,0,0,0-.756.067,2.73,2.73,0,0,0-.689.21,2.57,2.57,0,0,0-.613.344,3.536,3.536,0,0,0-.538.47,4.2,4.2,0,0,0-.42.571,3.361,3.361,0,0,0-.311.655,4.344,4.344,0,0,0-.185.722,4.1,4.1,0,0,0-.059.84h-4.242l-.067-.134a6.9,6.9,0,0,1,.1-1.327,6.249,6.249,0,0,1,.395-1.26A6.878,6.878,0,0,1,200.641,34a7.559,7.559,0,0,1,1-1.092,7.669,7.669,0,0,1,2.629-1.621,9.24,9.24,0,0,1,1.562-.4,11.633,11.633,0,0,1,1.747-.126,10.71,10.71,0,0,1,1.68.126,7.56,7.56,0,0,1,1.512.4,7.065,7.065,0,0,1,1.344.638,7.148,7.148,0,0,1,1.176.916,6.527,6.527,0,0,1,.949,1.151,6.183,6.183,0,0,1,.68,1.352,7.786,7.786,0,0,1,.4,1.6,11.376,11.376,0,0,1,.134,1.814v12.3a2.537,2.537,0,0,0,.059.664,4.35,4.35,0,0,1,.076.655c.025.218.067.437.1.638s.076.412.118.63.092.42.143.622.143.412.2.613Zm-9.87-3.032a5.309,5.309,0,0,0,.756-.059,4.317,4.317,0,0,0,.722-.176,3.637,3.637,0,0,0,.689-.3,4.929,4.929,0,0,0,.664-.395,5.107,5.107,0,0,0,.6-.487c.176-.168.353-.353.512-.538a4.367,4.367,0,0,0,.428-.6,6.142,6.142,0,0,0,.336-.664V43.836h-3.36a5.721,5.721,0,0,0-.958.084,3.46,3.46,0,0,0-.84.244,3.226,3.226,0,0,0-.739.42,3.612,3.612,0,0,0-.622.571,4.8,4.8,0,0,0-.5.7,4.864,4.864,0,0,0-.353.764,4.034,4.034,0,0,0-.2.84,6.189,6.189,0,0,0-.067.9,7.314,7.314,0,0,0,0,.756,4.442,4.442,0,0,0,.143.68,3.411,3.411,0,0,0,.244.6,3.133,3.133,0,0,0,.336.529,3.436,3.436,0,0,0,.428.428,2.469,2.469,0,0,0,.487.3,3.217,3.217,0,0,0,.588.193,3.359,3.359,0,0,0,.7.076Zm15.506-26.644,4.385-.042v5.88h3.7v3.167h-3.7V49.27a4.96,4.96,0,0,0,.092.731,3.713,3.713,0,0,0,.185.588,2.519,2.519,0,0,0,.235.454,1.512,1.512,0,0,0,.3.344,1.729,1.729,0,0,0,.731.395,1.622,1.622,0,0,0,.412.059h1.05l.227-.05.26-.042h.286a2.192,2.192,0,0,0,.3-.067l.454,3.074a3.6,3.6,0,0,0-.386.143l-.412.143-.437.118-.445.092-.462.092a4.379,4.379,0,0,0-.479.067H227.1a7.685,7.685,0,0,1-1.184-.134,4.737,4.737,0,0,1-1.05-.3,4.393,4.393,0,0,1-.907-.521,4.755,4.755,0,0,1-.773-.714,4.04,4.04,0,0,1-.63-.983,5.772,5.772,0,0,1-.428-1.184,8.763,8.763,0,0,1-.26-1.436,14.855,14.855,0,0,1-.092-1.68v-14.1h-3.091V31.169h3.091Zm28.072,27.19v-.05ZM237.584,40.7h8.349v-.84a11.216,11.216,0,0,0-.059-1.21,10.554,10.554,0,0,0-.185-1.092,6.836,6.836,0,0,0-.311-.991,5.878,5.878,0,0,0-.445-.84,4.331,4.331,0,0,0-.58-.7,2.612,2.612,0,0,0-.672-.5,3.243,3.243,0,0,0-.8-.294,3.973,3.973,0,0,0-.916-.1,3.259,3.259,0,0,0-.932.143,3.108,3.108,0,0,0-.84.344,3.36,3.36,0,0,0-.731.6,5.41,5.41,0,0,0-.622.84,7.837,7.837,0,0,0-.512.991,9.477,9.477,0,0,0-.395,1.134,10.651,10.651,0,0,0-.269,1.235,11.543,11.543,0,0,0-.084,1.31Zm4.889,14.607a11.08,11.08,0,0,1-2.008-.185,9.609,9.609,0,0,1-1.806-.554,7.325,7.325,0,0,1-1.588-.924,9.341,9.341,0,0,1-2.478-2.839,10.627,10.627,0,0,1-.79-1.789,11.756,11.756,0,0,1-.487-1.966,15.174,15.174,0,0,1-.16-2.184V41.433a15.885,15.885,0,0,1,.151-2.226,12.507,12.507,0,0,1,.479-2.024,11.583,11.583,0,0,1,.781-1.814,10.819,10.819,0,0,1,1.084-1.613A9.51,9.51,0,0,1,237,32.429a8.679,8.679,0,0,1,1.52-.941,7.14,7.14,0,0,1,1.68-.571,9.24,9.24,0,0,1,1.84-.185,9.87,9.87,0,0,1,1.907.176,7.559,7.559,0,0,1,1.68.512,7.014,7.014,0,0,1,1.42.84,6.6,6.6,0,0,1,1.2,1.218,8.256,8.256,0,0,1,.958,1.5,9.98,9.98,0,0,1,.68,1.739,12.918,12.918,0,0,1,.412,1.966,20.464,20.464,0,0,1,.126,2.209v3.066h-12.81V44.9a12.037,12.037,0,0,0,.336,2.8,6.77,6.77,0,0,0,.437,1.193,6.988,6.988,0,0,0,.588,1.075,4.2,4.2,0,0,0,.739.84,4.477,4.477,0,0,0,.89.622,3.906,3.906,0,0,0,1.016.386,5.216,5.216,0,0,0,1.159.134h.89a8.122,8.122,0,0,0,.84-.109c.269-.059.521-.118.756-.193a3.544,3.544,0,0,0,.689-.26c.227-.1.437-.21.655-.328a5.994,5.994,0,0,0,.638-.395c.21-.143.42-.3.622-.462a5.786,5.786,0,0,0,.588-.521l1.386,2.713a6.041,6.041,0,0,1-.613.613c-.218.193-.462.378-.706.554s-.521.336-.8.5a7.956,7.956,0,0,1-.89.437,9.846,9.846,0,0,1-.958.353,10.25,10.25,0,0,1-1.058.252c-.37.067-.739.109-1.134.151a11.4,11.4,0,0,1-1.21.076Z" transform="translate(-25.16 -4.037)" fill="#414042"/>
    <path id="Path_16441" data-name="Path 16441" d="M16.232,32.23h2.848a5.04,5.04,0,0,1,5.04,5.04h0a5.04,5.04,0,0,1-1.478,3.553h0a5.04,5.04,0,0,1-3.553,1.47h0a5.04,5.04,0,0,1-5.04-5.04V20H11.36V37.253a7.728,7.728,0,0,0,7.711,7.711h0A7.694,7.694,0,0,0,24.5,42.68h0a7.7,7.7,0,0,0,2.26-5.443h0a7.728,7.728,0,0,0-7.711-7.711H16.232Z" transform="translate(-1.818 -3.2)" fill="#00a7ad"/>
    <path id="Path_16442" data-name="Path 16442" d="M15.325,28.352h2.848a9.777,9.777,0,0,1,6.921,2.881h0a9.786,9.786,0,0,1,2.873,6.921h0a9.836,9.836,0,0,1-9.794,9.8h0a9.786,9.786,0,0,1-6.921-2.873h0A9.777,9.777,0,0,1,8.37,38.163V34.635H5.69v3.528A12.449,12.449,0,0,0,9.352,46.94h0a12.457,12.457,0,0,0,8.811,3.671h0a12.516,12.516,0,0,0,12.5-12.457h0A12.457,12.457,0,0,0,26.992,29.3h0a12.457,12.457,0,0,0-8.82-3.671H15.325Z" transform="translate(-0.91 -4.101)" fill="#414042"/>
    <path id="Path_16443" data-name="Path 16443" d="M14.414,22.68h2.848A14.624,14.624,0,0,1,31.844,37.253h0A14.624,14.624,0,0,1,17.262,51.835h0A14.624,14.624,0,0,1,2.688,37.253V23.478H0V37.253a17.32,17.32,0,0,0,17.262,17.27h0a17.32,17.32,0,0,0,17.27-17.27h0A17.32,17.32,0,0,0,17.262,20H14.414Z" transform="translate(0 -3.2)" fill="#414042"/>
    <rect id="Rectangle_635" data-name="Rectangle 635" width="2.688" height="13.356" transform="translate(0 4.746)" fill="#414042"/>
    <rect id="Rectangle_636" data-name="Rectangle 636" width="2.688" height="3.738" transform="translate(9.551 10.869)" fill="#414042"/>
    <rect id="Rectangle_637" data-name="Rectangle 637" width="2.688" height="4.696" transform="translate(4.78 8.072)" fill="#414042"/>
    <rect id="Rectangle_638" data-name="Rectangle 638" width="2.688" height="13.398" transform="translate(4.78 14.952)" fill="#414042"/>
    <rect id="Rectangle_639" data-name="Rectangle 639" width="2.688" height="2.57" transform="translate(4.78 3.326)" fill="#414042"/>
    <rect id="Rectangle_640" data-name="Rectangle 640" width="2.688" height="2.57" fill="#414042"/>
    <rect id="Rectangle_641" data-name="Rectangle 641" width="2.688" height="2.57" transform="translate(9.551 6.191)" fill="#414042"/>
  </g>
</svg>
