<svg xmlns="http://www.w3.org/2000/svg" width="50" height="35.01" viewBox="0 0 50 35.01">
  <path id="salesforce_logo_icon_170764_1_" data-name="salesforce_logo_icon_170764 (1)" d="M20.79,13.418a8.767,8.767,0,0,1,14.059,1.845,10.649,10.649,0,0,1,4.374-.923A10.866,10.866,0,1,1,37.09,35.862,7.886,7.886,0,0,1,30.2,39.9a8.048,8.048,0,0,1-3.443-.781,8.984,8.984,0,0,1-16.705-.4A8.363,8.363,0,0,1,0,30.439a8.45,8.45,0,0,1,4.174-7.308,9.524,9.524,0,0,1-.808-3.866,9.7,9.7,0,0,1,17.423-5.848" transform="translate(0 -9.59)" fill="#00a1e0"/>
</svg>
