<svg xmlns="http://www.w3.org/2000/svg" width="498" height="527" viewBox="0 0 498 527">
  <g id="Group_9625" data-name="Group 9625" transform="translate(-371 -423.572)">
    <g id="Online_Store" data-name="Online Store" transform="translate(371 423.572)">
      <g id="Group_9446" data-name="Group 9446" transform="translate(3.476 51.546)">
        <g id="Group_9379" data-name="Group 9379" transform="translate(128.559 239.434)">
          <g id="Group_9378" data-name="Group 9378">
            <path id="Path_17112" data-name="Path 17112" d="M1365.7,2836.1c0-.6.935-1.143,2.827-1.392h4.807c1.889.249,2.825.792,2.825,1.407s-.936,1.143-2.825,1.407h-4.807C1366.63,2837.257,1365.7,2836.729,1365.7,2836.1Z" transform="translate(-1365.695 -2834.707)" fill="#bbcaea"/>
          </g>
        </g>
        <g id="Group_9381" data-name="Group 9381" transform="translate(109.735 239.434)">
          <g id="Group_9380" data-name="Group 9380">
            <path id="Path_17113" data-name="Path 17113" d="M1220.887,2836.1c0-.6.935-1.143,2.827-1.392h4.807c1.889.249,2.825.792,2.825,1.407s-.935,1.143-2.825,1.407h-4.807C1221.823,2837.257,1220.887,2836.729,1220.887,2836.1Z" transform="translate(-1220.887 -2834.707)" fill="#bbcaea"/>
          </g>
        </g>
        <g id="Group_9383" data-name="Group 9383" transform="translate(90.91 239.434)">
          <g id="Group_9382" data-name="Group 9382">
            <path id="Path_17114" data-name="Path 17114" d="M1076.079,2836.1c0-.6.935-1.143,2.827-1.392h4.807c1.889.249,2.825.792,2.825,1.407s-.935,1.143-2.825,1.407h-4.807C1077.014,2837.257,1076.079,2836.729,1076.079,2836.1Z" transform="translate(-1076.079 -2834.707)" fill="#bbcaea"/>
          </g>
        </g>
        <g id="Group_9385" data-name="Group 9385" transform="translate(72.086 239.434)">
          <g id="Group_9384" data-name="Group 9384">
            <path id="Path_17115" data-name="Path 17115" d="M931.27,2836.1c0-.6.935-1.143,2.827-1.392H938.9c1.889.249,2.825.792,2.825,1.407s-.935,1.143-2.825,1.407H934.1C932.205,2837.257,931.27,2836.729,931.27,2836.1Z" transform="translate(-931.27 -2834.707)" fill="#bbcaea"/>
          </g>
        </g>
        <g id="Group_9387" data-name="Group 9387" transform="translate(53.262 239.434)">
          <g id="Group_9386" data-name="Group 9386" transform="translate(0)">
            <path id="Path_17116" data-name="Path 17116" d="M786.462,2836.1c0-.6.935-1.143,2.827-1.392H794.1c1.89.249,2.825.792,2.825,1.407s-.935,1.143-2.825,1.407h-4.807C787.4,2837.257,786.462,2836.729,786.462,2836.1Z" transform="translate(-786.462 -2834.707)" fill="#bbcaea"/>
          </g>
        </g>
        <g id="Group_9389" data-name="Group 9389" transform="translate(34.437 239.434)">
          <g id="Group_9388" data-name="Group 9388">
            <path id="Path_17117" data-name="Path 17117" d="M641.653,2836.1c0-.6.935-1.143,2.827-1.392h4.806c1.89.249,2.825.792,2.825,1.407s-.935,1.143-2.825,1.407H644.48C642.588,2837.257,641.653,2836.729,641.653,2836.1Z" transform="translate(-641.653 -2834.707)" fill="#bbcaea"/>
          </g>
        </g>
        <g id="Group_9391" data-name="Group 9391" transform="translate(15.613 239.434)">
          <g id="Group_9390" data-name="Group 9390">
            <path id="Path_17118" data-name="Path 17118" d="M496.845,2836.1c0-.6.935-1.143,2.827-1.392h4.807c1.889.249,2.825.792,2.825,1.407s-.935,1.143-2.825,1.407h-4.807C497.78,2837.257,496.845,2836.729,496.845,2836.1Z" transform="translate(-496.845 -2834.707)" fill="#bbcaea"/>
          </g>
        </g>
        <g id="Group_9393" data-name="Group 9393" transform="translate(0 239.434)">
          <g id="Group_9392" data-name="Group 9392">
            <path id="Path_17119" data-name="Path 17119" d="M378.135,2840.733c-.6,0-1.143-.936-1.392-2.827v-3.2h4.421c1.89.249,2.825.792,2.825,1.407s-.935,1.143-2.825,1.407h-1.608v.385C379.293,2839.8,378.765,2840.733,378.135,2840.733Z" transform="translate(-376.743 -2834.707)" fill="#bbcaea"/>
          </g>
        </g>
        <g id="Group_9395" data-name="Group 9395" transform="translate(0 253.826)">
          <g id="Group_9394" data-name="Group 9394">
            <path id="Path_17120" data-name="Path 17120" d="M378.135,2955.875c-.6,0-1.143-.935-1.392-2.827v-4.807c.249-1.889.792-2.825,1.407-2.825s1.143.935,1.407,2.825v4.807C379.293,2954.94,378.765,2955.875,378.135,2955.875Z" transform="translate(-376.743 -2945.417)" fill="#bbcaea"/>
          </g>
        </g>
        <g id="Group_9397" data-name="Group 9397" transform="translate(0 272.65)">
          <g id="Group_9396" data-name="Group 9396">
            <path id="Path_17121" data-name="Path 17121" d="M378.135,3100.684c-.6,0-1.143-.935-1.392-2.827v-4.806c.249-1.889.792-2.825,1.407-2.825s1.143.936,1.407,2.825v4.806C379.293,3099.748,378.765,3100.684,378.135,3100.684Z" transform="translate(-376.743 -3090.225)" fill="#bbcaea"/>
          </g>
        </g>
        <g id="Group_9399" data-name="Group 9399" transform="translate(0 291.475)">
          <g id="Group_9398" data-name="Group 9398">
            <path id="Path_17122" data-name="Path 17122" d="M378.135,3245.491c-.6,0-1.143-.935-1.392-2.827v-4.806c.249-1.89.792-2.825,1.407-2.825s1.143.936,1.407,2.825v4.806C379.293,3244.556,378.765,3245.491,378.135,3245.491Z" transform="translate(-376.743 -3235.033)" fill="#bbcaea"/>
          </g>
        </g>
        <g id="Group_9401" data-name="Group 9401" transform="translate(0.993 309.046)">
          <g id="Group_9400" data-name="Group 9400">
            <path id="Path_17123" data-name="Path 17123" d="M395.1,3371.624c0,.6-.935,1.143-2.827,1.392h-4.807a4.212,4.212,0,0,1-2.671-.993l-.414-.414a.631.631,0,0,1,.825,0l-.412-.412a4.3,4.3,0,0,1,2.671-.995h4.807C394.166,3370.467,395.1,3370.994,395.1,3371.624Z" transform="translate(-384.383 -3370.202)" fill="#bbcaea"/>
          </g>
        </g>
        <g id="Group_9403" data-name="Group 9403" transform="translate(20.077 309.046)">
          <g id="Group_9402" data-name="Group 9402">
            <path id="Path_17124" data-name="Path 17124" d="M541.649,3371.624c0,.6-.935,1.143-2.827,1.392h-4.806c-1.89-.249-2.825-.791-2.825-1.406s.935-1.143,2.825-1.407h4.806C540.714,3370.467,541.649,3370.994,541.649,3371.624Z" transform="translate(-531.191 -3370.202)" fill="#bbcaea"/>
          </g>
        </g>
        <g id="Group_9405" data-name="Group 9405" transform="translate(38.902 309.046)">
          <g id="Group_9404" data-name="Group 9404">
            <path id="Path_17125" data-name="Path 17125" d="M686.458,3371.624c0,.6-.935,1.143-2.826,1.392h-4.807c-1.889-.249-2.825-.791-2.825-1.406s.935-1.143,2.825-1.407h4.807C685.523,3370.467,686.458,3370.994,686.458,3371.624Z" transform="translate(-676 -3370.202)" fill="#bbcaea"/>
          </g>
        </g>
        <g id="Group_9407" data-name="Group 9407" transform="translate(57.726 309.046)">
          <g id="Group_9406" data-name="Group 9406">
            <path id="Path_17126" data-name="Path 17126" d="M831.266,3371.624c0,.6-.935,1.143-2.827,1.392h-4.807c-1.89-.249-2.825-.791-2.825-1.406s.935-1.143,2.825-1.407h4.807C830.331,3370.467,831.266,3370.994,831.266,3371.624Z" transform="translate(-820.808 -3370.202)" fill="#bbcaea"/>
          </g>
        </g>
        <g id="Group_9409" data-name="Group 9409" transform="translate(68.805 293.656)">
          <g id="Group_9408" data-name="Group 9408">
            <path id="Path_17127" data-name="Path 17127" d="M907.455,3251.813c.6,0,1.143.936,1.392,2.827v4.806c-.249,1.89-.791,2.825-1.407,2.825s-1.143-.935-1.407-2.825v-4.806C906.3,3252.749,906.825,3251.813,907.455,3251.813Z" transform="translate(-906.033 -3251.813)" fill="#bbcaea"/>
          </g>
        </g>
        <g id="Group_9411" data-name="Group 9411" transform="translate(68.805 274.832)">
          <g id="Group_9410" data-name="Group 9410">
            <path id="Path_17128" data-name="Path 17128" d="M907.455,3107.005c.6,0,1.143.935,1.392,2.827v4.807c-.249,1.889-.791,2.824-1.407,2.824s-1.143-.935-1.407-2.824v-4.807C906.3,3107.94,906.825,3107.005,907.455,3107.005Z" transform="translate(-906.033 -3107.005)" fill="#bbcaea"/>
          </g>
        </g>
        <g id="Group_9413" data-name="Group 9413" transform="translate(68.805 256.007)">
          <g id="Group_9412" data-name="Group 9412">
            <path id="Path_17129" data-name="Path 17129" d="M907.455,2962.2c.6,0,1.143.935,1.392,2.826v4.807c-.249,1.89-.791,2.825-1.407,2.825s-1.143-.935-1.407-2.825v-4.807C906.3,2963.132,906.825,2962.2,907.455,2962.2Z" transform="translate(-906.033 -2962.196)" fill="#bbcaea"/>
          </g>
        </g>
        <g id="Group_9415" data-name="Group 9415" transform="translate(68.805 237.183)">
          <g id="Group_9414" data-name="Group 9414">
            <path id="Path_17130" data-name="Path 17130" d="M907.455,2817.388c.6,0,1.143.935,1.392,2.827v4.807c-.249,1.89-.791,2.825-1.407,2.825s-1.143-.935-1.407-2.825v-4.807C906.3,2818.324,906.825,2817.388,907.455,2817.388Z" transform="translate(-906.033 -2817.388)" fill="#bbcaea"/>
          </g>
        </g>
        <g id="Group_9417" data-name="Group 9417" transform="translate(68.805 218.358)">
          <g id="Group_9416" data-name="Group 9416">
            <path id="Path_17131" data-name="Path 17131" d="M907.455,2672.579c.6,0,1.143.936,1.392,2.827v4.807c-.249,1.89-.791,2.825-1.407,2.825s-1.143-.935-1.407-2.825v-4.807C906.3,2673.515,906.825,2672.579,907.455,2672.579Z" transform="translate(-906.033 -2672.579)" fill="#bbcaea"/>
          </g>
        </g>
        <g id="Group_9419" data-name="Group 9419" transform="translate(68.805 199.534)">
          <g id="Group_9418" data-name="Group 9418">
            <path id="Path_17132" data-name="Path 17132" d="M907.455,2527.771c.6,0,1.143.936,1.392,2.827v4.807c-.249,1.889-.791,2.824-1.407,2.824s-1.143-.935-1.407-2.824V2530.6C906.3,2528.707,906.825,2527.771,907.455,2527.771Z" transform="translate(-906.033 -2527.771)" fill="#bbcaea"/>
          </g>
        </g>
        <g id="Group_9421" data-name="Group 9421" transform="translate(68.805 180.709)">
          <g id="Group_9420" data-name="Group 9420">
            <path id="Path_17133" data-name="Path 17133" d="M907.455,2382.962c.6,0,1.143.936,1.392,2.827v4.807c-.249,1.89-.791,2.825-1.407,2.825s-1.143-.935-1.407-2.825v-4.807C906.3,2383.9,906.825,2382.962,907.455,2382.962Z" transform="translate(-906.033 -2382.962)" fill="#bbcaea"/>
          </g>
        </g>
        <g id="Group_9423" data-name="Group 9423" transform="translate(68.805 161.885)">
          <g id="Group_9422" data-name="Group 9422">
            <path id="Path_17134" data-name="Path 17134" d="M907.455,2238.154c.6,0,1.143.935,1.392,2.827v4.806c-.249,1.889-.791,2.825-1.407,2.825s-1.143-.936-1.407-2.825v-4.806C906.3,2239.09,906.825,2238.154,907.455,2238.154Z" transform="translate(-906.033 -2238.154)" fill="#bbcaea"/>
          </g>
        </g>
        <g id="Group_9425" data-name="Group 9425" transform="translate(68.805 143.061)">
          <g id="Group_9424" data-name="Group 9424">
            <path id="Path_17135" data-name="Path 17135" d="M907.455,2093.345c.6,0,1.143.936,1.392,2.827v4.807c-.249,1.89-.791,2.825-1.407,2.825s-1.143-.935-1.407-2.825v-4.807C906.3,2094.281,906.825,2093.345,907.455,2093.345Z" transform="translate(-906.033 -2093.345)" fill="#bbcaea"/>
          </g>
        </g>
        <g id="Group_9427" data-name="Group 9427" transform="translate(68.805 124.236)">
          <g id="Group_9426" data-name="Group 9426">
            <path id="Path_17136" data-name="Path 17136" d="M907.455,1948.537c.6,0,1.143.935,1.392,2.827v4.807c-.249,1.889-.791,2.824-1.407,2.824s-1.143-.935-1.407-2.824v-4.807C906.3,1949.473,906.825,1948.537,907.455,1948.537Z" transform="translate(-906.033 -1948.537)" fill="#bbcaea"/>
          </g>
        </g>
        <g id="Group_9429" data-name="Group 9429" transform="translate(68.805 105.412)">
          <g id="Group_9428" data-name="Group 9428">
            <path id="Path_17137" data-name="Path 17137" d="M907.455,1803.729c.6,0,1.143.935,1.392,2.827v4.807c-.249,1.889-.791,2.825-1.407,2.825s-1.143-.935-1.407-2.825v-4.807C906.3,1804.665,906.825,1803.729,907.455,1803.729Z" transform="translate(-906.033 -1803.729)" fill="#bbcaea"/>
          </g>
        </g>
        <g id="Group_9431" data-name="Group 9431" transform="translate(68.805 86.587)">
          <g id="Group_9430" data-name="Group 9430">
            <path id="Path_17138" data-name="Path 17138" d="M907.455,1658.92c.6,0,1.143.935,1.392,2.827v4.807c-.249,1.89-.791,2.825-1.407,2.825s-1.143-.935-1.407-2.825v-4.807C906.3,1659.856,906.825,1658.92,907.455,1658.92Z" transform="translate(-906.033 -1658.92)" fill="#bbcaea"/>
          </g>
        </g>
        <g id="Group_9433" data-name="Group 9433" transform="translate(68.805 67.763)">
          <g id="Group_9432" data-name="Group 9432">
            <path id="Path_17139" data-name="Path 17139" d="M907.455,1514.112c.6,0,1.143.935,1.392,2.827v4.807c-.249,1.889-.791,2.825-1.407,2.825s-1.143-.935-1.407-2.825v-4.807C906.3,1515.048,906.825,1514.112,907.455,1514.112Z" transform="translate(-906.033 -1514.112)" fill="#bbcaea"/>
          </g>
        </g>
        <g id="Group_9435" data-name="Group 9435" transform="translate(68.805 48.939)">
          <g id="Group_9434" data-name="Group 9434">
            <path id="Path_17140" data-name="Path 17140" d="M907.455,1369.3c.6,0,1.143.935,1.392,2.827v4.806c-.249,1.89-.791,2.825-1.407,2.825s-1.143-.935-1.407-2.825v-4.806C906.3,1370.239,906.825,1369.3,907.455,1369.3Z" transform="translate(-906.033 -1369.303)" fill="#bbcaea"/>
          </g>
        </g>
        <g id="Group_9437" data-name="Group 9437" transform="translate(56.539 42.381)">
          <g id="Group_9436" data-name="Group 9436">
            <path id="Path_17141" data-name="Path 17141" d="M811.673,1320.247c0-.6.935-1.143,2.827-1.392h4.807c1.889.249,2.825.791,2.825,1.407s-.935,1.143-2.825,1.407H814.5C812.609,1321.4,811.673,1320.877,811.673,1320.247Z" transform="translate(-811.673 -1318.855)" fill="#bbcaea"/>
          </g>
        </g>
        <g id="Group_9439" data-name="Group 9439" transform="translate(37.714 42.381)">
          <g id="Group_9438" data-name="Group 9438">
            <path id="Path_17142" data-name="Path 17142" d="M666.865,1320.247c0-.6.935-1.143,2.827-1.392H674.5c1.889.249,2.825.791,2.825,1.407s-.935,1.143-2.825,1.407h-4.807C667.8,1321.4,666.865,1320.877,666.865,1320.247Z" transform="translate(-666.865 -1318.855)" fill="#bbcaea"/>
          </g>
        </g>
        <g id="Group_9441" data-name="Group 9441" transform="translate(29.389 31.882)">
          <g id="Group_9440" data-name="Group 9440">
            <path id="Path_17143" data-name="Path 17143" d="M604.24,1238.093c.6,0,1.143.936,1.392,2.827v4.806c-.249,1.89-.791,2.825-1.407,2.825s-1.143-.935-1.407-2.825v-4.806C603.082,1239.029,603.61,1238.093,604.24,1238.093Z" transform="translate(-602.818 -1238.093)" fill="#bbcaea"/>
          </g>
        </g>
        <g id="Group_9443" data-name="Group 9443" transform="translate(29.389 13.058)">
          <g id="Group_9442" data-name="Group 9442">
            <path id="Path_17144" data-name="Path 17144" d="M604.24,1093.285c.6,0,1.143.935,1.392,2.827v4.807c-.249,1.889-.791,2.825-1.407,2.825s-1.143-.935-1.407-2.825v-4.807C603.082,1094.22,603.61,1093.285,604.24,1093.285Z" transform="translate(-602.818 -1093.285)" fill="#bbcaea"/>
          </g>
        </g>
        <g id="Group_9445" data-name="Group 9445" transform="translate(29.389)">
          <g id="Group_9444" data-name="Group 9444">
            <path id="Path_17145" data-name="Path 17145" d="M604.24,992.838a1.513,1.513,0,0,1,1.392,1.268v2.156a1.515,1.515,0,0,1-1.407,1.267c-.615,0-1.143-.42-1.407-1.267v-2.156C603.082,993.258,603.61,992.838,604.24,992.838Z" transform="translate(-602.818 -992.838)" fill="#bbcaea"/>
          </g>
        </g>
      </g>
      <g id="Group_9538" data-name="Group 9538" transform="translate(99.206 20.188)">
        <g id="Group_9537" data-name="Group 9537">
          <g id="Group_9469" data-name="Group 9469">
            <g id="Group_9456" data-name="Group 9456">
              <g id="Group_9451" data-name="Group 9451">
                <g id="Group_9448" data-name="Group 9448">
                  <g id="Group_9447" data-name="Group 9447">
                    <path id="Path_17146" data-name="Path 17146" d="M1279.928,866.738a35.208,35.208,0,0,1-35.168-35.171V432.9a35.192,35.192,0,0,1,35.168-35.139h175.1A35.2,35.2,0,0,1,1490.2,432.9V831.567a35.211,35.211,0,0,1-35.17,35.171Z" transform="translate(-1244.76 -397.76)" fill="#3a4146"/>
                  </g>
                </g>
                <g id="Group_9450" data-name="Group 9450" transform="translate(9.627 9.611)">
                  <g id="Group_9449" data-name="Group 9449">
                    <path id="Path_17147" data-name="Path 17147" d="M1545.017,895.886a25.629,25.629,0,0,1-25.569,25.546H1344.356a25.519,25.519,0,0,1-25.543-25.52V497.239a25.629,25.629,0,0,1,25.569-25.546h23.34a3.934,3.934,0,0,1,3.92,3.916v1.357a11.049,11.049,0,0,0,11.068,11.057h98.384a11.093,11.093,0,0,0,11.093-11.084v-1.331a3.935,3.935,0,0,1,3.92-3.916h23.34a25.629,25.629,0,0,1,25.569,25.546Z" transform="translate(-1318.813 -471.693)" fill="#fff"/>
                  </g>
                </g>
              </g>
              <g id="Group_9455" data-name="Group 9455" transform="translate(77.032 7.94)">
                <g id="Group_9452" data-name="Group 9452" transform="translate(21.365 1.671)">
                  <path id="Path_17148" data-name="Path 17148" d="M2070.042,475.715a4.035,4.035,0,0,1-4.022,4.048h-60.312a4.035,4.035,0,0,1,0-8.07h60.312A4.013,4.013,0,0,1,2070.042,475.715Z" transform="translate(-2001.684 -471.693)" fill="#2e363a"/>
                </g>
                <g id="Group_9453" data-name="Group 9453" transform="translate(10.029 0)">
                  <circle id="Ellipse_188" data-name="Ellipse 188" cx="4.035" cy="4.035" r="4.035" transform="translate(0 5.706) rotate(-45)" fill="#2e363a"/>
                </g>
                <g id="Group_9454" data-name="Group 9454" transform="translate(0 0)">
                  <circle id="Ellipse_189" data-name="Ellipse 189" cx="4.035" cy="4.035" r="4.035" transform="translate(0 5.706) rotate(-45)" fill="#2e363a"/>
                </g>
              </g>
            </g>
            <g id="Group_9458" data-name="Group 9458" transform="translate(45.731 398.528)">
              <g id="Group_9457" data-name="Group 9457">
                <path id="Path_17149" data-name="Path 17149" d="M1750.542,3485.4a18.778,18.778,0,0,1-18.78,18.781H1615.328a18.781,18.781,0,1,1,0-37.561h116.435A18.777,18.777,0,0,1,1750.542,3485.4Z" transform="translate(-1596.547 -3466.619)" fill="#fe4c40"/>
              </g>
            </g>
            <g id="Group_9468" data-name="Group 9468" transform="translate(74.203 410.531)">
              <g id="Group_9459" data-name="Group 9459" transform="translate(0 0.556)">
                <path id="Path_17150" data-name="Path 17150" d="M1815.792,3575.282a.766.766,0,0,1-.217-.555.948.948,0,0,1,.086-.347l4.426-10.448a1.344,1.344,0,0,1,.39-.512.966.966,0,0,1,.617-.2h.174a.959.959,0,0,1,.615.2,1.368,1.368,0,0,1,.392.512l4.424,10.448a.958.958,0,0,1,.088.347.768.768,0,0,1-.219.555.743.743,0,0,1-.564.226.794.794,0,0,1-.441-.13.815.815,0,0,1-.3-.356l-1.128-2.708h-5.9l-1.128,2.708a.828.828,0,0,1-.3.356.8.8,0,0,1-.443.13A.748.748,0,0,1,1815.792,3575.282Zm3.045-4.408h4.686l-2.343-5.64Z" transform="translate(-1815.575 -3563.221)" fill="#fff"/>
              </g>
              <g id="Group_9460" data-name="Group 9460" transform="translate(12.703)">
                <path id="Path_17151" data-name="Path 17151" d="M1915.453,3571.331a4.134,4.134,0,0,1-1.563-1.6,5.336,5.336,0,0,1,0-4.911,4.134,4.134,0,0,1,1.563-1.6,4.062,4.062,0,0,1,2.039-.547,3.99,3.99,0,0,1,2.968,1.318v-4.252a.756.756,0,0,1,.235-.573.781.781,0,0,1,.564-.226.745.745,0,0,1,.556.234.791.791,0,0,1,.224.564v11.263a.768.768,0,0,1-.78.781.78.78,0,0,1-.564-.226.735.735,0,0,1-.235-.555v-.452a3.987,3.987,0,0,1-2.968,1.32A4.069,4.069,0,0,1,1915.453,3571.331Zm3.764-1.285a4.279,4.279,0,0,0,1.242-.946v-3.645a4.312,4.312,0,0,0-1.242-.946,3.274,3.274,0,0,0-1.5-.355,2.726,2.726,0,0,0-2.065.815,3.8,3.8,0,0,0,0,4.616,2.73,2.73,0,0,0,2.065.816A3.276,3.276,0,0,0,1919.218,3570.046Z" transform="translate(-1913.292 -3558.948)" fill="#fff"/>
              </g>
              <g id="Group_9461" data-name="Group 9461" transform="translate(23.653)">
                <path id="Path_17152" data-name="Path 17152" d="M1999.69,3571.331a4.135,4.135,0,0,1-1.562-1.6,5.34,5.34,0,0,1,0-4.911,4.136,4.136,0,0,1,1.563-1.6,4.063,4.063,0,0,1,2.039-.547A3.989,3.989,0,0,1,2004.7,3564v-4.252a.757.757,0,0,1,.235-.573.782.782,0,0,1,.564-.226.746.746,0,0,1,.556.234.791.791,0,0,1,.224.564v11.263a.768.768,0,0,1-.78.781.78.78,0,0,1-.564-.226.736.736,0,0,1-.235-.555v-.452a3.986,3.986,0,0,1-2.968,1.32A4.07,4.07,0,0,1,1999.69,3571.331Zm3.765-1.285a4.272,4.272,0,0,0,1.242-.946v-3.645a4.306,4.306,0,0,0-1.242-.946,3.274,3.274,0,0,0-1.5-.355,2.727,2.727,0,0,0-2.065.815,3.8,3.8,0,0,0,0,4.616,2.73,2.73,0,0,0,2.065.816A3.275,3.275,0,0,0,2003.455,3570.046Z" transform="translate(-1997.529 -3558.948)" fill="#fff"/>
              </g>
              <g id="Group_9462" data-name="Group 9462" transform="translate(38.507 0.642)">
                <path id="Path_17153" data-name="Path 17153" d="M2116.287,3575.864a.75.75,0,0,1-.225-.556v-9.944h-3.542a.712.712,0,0,1-.729-.729.737.737,0,0,1,.208-.529.7.7,0,0,1,.521-.217h8.644a.74.74,0,0,1,.745.746.691.691,0,0,1-.216.521.737.737,0,0,1-.529.208h-3.524v9.944a.737.737,0,0,1-.235.556.783.783,0,0,1-.564.226A.757.757,0,0,1,2116.287,3575.864Z" transform="translate(-2111.791 -3563.889)" fill="#fff"/>
              </g>
              <g id="Group_9463" data-name="Group 9463" transform="translate(48.573 3.732)">
                <path id="Path_17154" data-name="Path 17154" d="M2191.324,3596.28a3.892,3.892,0,0,1-1.554-1.623,5.569,5.569,0,0,1,0-4.807,3.9,3.9,0,0,1,1.554-1.623,5.052,5.052,0,0,1,4.669,0,3.957,3.957,0,0,1,1.561,1.623,5.476,5.476,0,0,1,0,4.807,3.946,3.946,0,0,1-1.561,1.623,5.041,5.041,0,0,1-4.669,0Zm3.705-1.2a2.655,2.655,0,0,0,1.077-1.042,4.014,4.014,0,0,0,0-3.593,2.6,2.6,0,0,0-1.077-1.032,3.047,3.047,0,0,0-1.363-.321,3.09,3.09,0,0,0-1.381.321,2.543,2.543,0,0,0-1.066,1.032,4.084,4.084,0,0,0,0,3.593,2.593,2.593,0,0,0,1.066,1.042,3.021,3.021,0,0,0,1.381.329A2.98,2.98,0,0,0,2195.029,3595.083Z" transform="translate(-2189.224 -3587.656)" fill="#fff"/>
              </g>
              <g id="Group_9464" data-name="Group 9464" transform="translate(63.757 0.469)">
                <path id="Path_17155" data-name="Path 17155" d="M2308.992,3574.26a5.449,5.449,0,0,1-2.169-2.169,7.312,7.312,0,0,1,0-6.613,5.448,5.448,0,0,1,2.169-2.169,6.381,6.381,0,0,1,3.115-.755,7.376,7.376,0,0,1,2.108.278,8.989,8.989,0,0,1,1.849.8.7.7,0,0,1,.382.659.648.648,0,0,1-.19.46.667.667,0,0,1-.5.2.7.7,0,0,1-.312-.07,7.932,7.932,0,0,0-1.491-.608,6.151,6.151,0,0,0-1.683-.208,4.933,4.933,0,0,0-2.543.616,3.948,3.948,0,0,0-1.579,1.684,5.8,5.8,0,0,0,0,4.842,3.94,3.94,0,0,0,1.579,1.683,4.929,4.929,0,0,0,2.543.617,6.141,6.141,0,0,0,1.683-.208,7.916,7.916,0,0,0,1.491-.608.7.7,0,0,1,.312-.069.685.685,0,0,1,.5.191.642.642,0,0,1,.19.469.7.7,0,0,1-.382.659,8.941,8.941,0,0,1-1.849.8,7.368,7.368,0,0,1-2.108.278A6.383,6.383,0,0,1,2308.992,3574.26Z" transform="translate(-2306.032 -3562.553)" fill="#fff"/>
              </g>
              <g id="Group_9465" data-name="Group 9465" transform="translate(75.663 3.732)">
                <path id="Path_17156" data-name="Path 17156" d="M2399.035,3596.54a2.455,2.455,0,0,1-1.031-.911,2.5,2.5,0,0,1-.382-1.379,2.434,2.434,0,0,1,1.015-2.048,4.9,4.9,0,0,1,2.976-.764h2.1v-.138a2.112,2.112,0,0,0-.564-1.649,2.593,2.593,0,0,0-1.761-.5,5.894,5.894,0,0,0-1.172.1,9.745,9.745,0,0,0-1.136.312.993.993,0,0,1-.227.035.614.614,0,0,1-.451-.191.64.64,0,0,1-.19-.469.669.669,0,0,1,.451-.66,7.626,7.626,0,0,1,3-.624,3.924,3.924,0,0,1,2.02.485,3.063,3.063,0,0,1,1.216,1.259,3.65,3.65,0,0,1,.39,1.675v4.911a.74.74,0,0,1-.233.555.786.786,0,0,1-.564.226.773.773,0,0,1-.782-.781v-.451a4.353,4.353,0,0,1-3.262,1.32A3.224,3.224,0,0,1,2399.035,3596.54Zm3.481-1.449a4.063,4.063,0,0,0,1.2-.928v-1.457h-1.892q-2.619,0-2.62,1.371a1.286,1.286,0,0,0,.425,1.007,2.1,2.1,0,0,0,1.415.381A3.127,3.127,0,0,0,2402.515,3595.091Z" transform="translate(-2397.621 -3587.656)" fill="#fff"/>
              </g>
              <g id="Group_9466" data-name="Group 9466" transform="translate(85.988 3.732)">
                <path id="Path_17157" data-name="Path 17157" d="M2477.276,3596.54a.751.751,0,0,1-.227-.555v-7.445a.782.782,0,0,1,.227-.563.739.739,0,0,1,.556-.235.8.8,0,0,1,.8.8v.747a3.424,3.424,0,0,1,2.725-1.631h.088a.732.732,0,0,1,.547.225.779.779,0,0,1,.216.556.7.7,0,0,1-.227.538.808.808,0,0,1-.572.208h-.088a2.962,2.962,0,0,0-1.526.407,3.531,3.531,0,0,0-1.165,1.12v5.276a.74.74,0,0,1-.233.555.787.787,0,0,1-.564.226A.751.751,0,0,1,2477.276,3596.54Z" transform="translate(-2477.049 -3587.656)" fill="#fff"/>
              </g>
              <g id="Group_9467" data-name="Group 9467" transform="translate(91.593 2.169)">
                <path id="Path_17158" data-name="Path 17158" d="M2521.728,3584.1v-5.38H2520.5a.314.314,0,0,1-.235-.1.318.318,0,0,1-.1-.234.365.365,0,0,1,.157-.295l2.359-2.309a.44.44,0,0,1,.3-.156.31.31,0,0,1,.235.1.348.348,0,0,1,.094.243v1.388h1.96a.681.681,0,0,1,.486,1.155.642.642,0,0,1-.486.2h-1.96v5.241q0,.677.323.859a1.613,1.613,0,0,0,.807.182,2.433,2.433,0,0,0,.693-.1c.047-.012.1-.024.149-.035a.866.866,0,0,1,.2-.018.614.614,0,0,1,.435.182.589.589,0,0,1,.19.442.656.656,0,0,1-.4.607,3.4,3.4,0,0,1-1.44.313Q2521.729,3586.4,2521.728,3584.1Z" transform="translate(-2520.165 -3575.635)" fill="#fff"/>
              </g>
            </g>
          </g>
          <g id="Group_9536" data-name="Group 9536" transform="translate(19.139 114.051)">
            <g id="Group_9470" data-name="Group 9470" transform="translate(0 86.605)">
              <rect id="Rectangle_790" data-name="Rectangle 790" width="207.431" height="10.269" fill="#d1dcf8"/>
            </g>
            <g id="Group_9471" data-name="Group 9471" transform="translate(10.878)">
              <path id="Path_17159" data-name="Path 17159" d="M1562.189,1284.934v69.875a8.324,8.324,0,0,1-8.33,8.314h-69.875a8.311,8.311,0,0,1-8.314-8.314v-69.875a8.314,8.314,0,0,1,8.314-8.33h69.875A8.328,8.328,0,0,1,1562.189,1284.934Z" transform="translate(-1475.669 -1276.604)" fill="#e4ecf9"/>
            </g>
            <g id="Group_9477" data-name="Group 9477" transform="translate(28.772 16.942)">
              <g id="Group_9474" data-name="Group 9474" transform="translate(0 0.003)">
                <g id="Group_9472" data-name="Group 9472">
                  <path id="Path_17160" data-name="Path 17160" d="M1663.46,1427.33c-2.126,1.914-8.448,2.345-9.064,2.4-.334.026-.514-.649-.617-1.356a14.053,14.053,0,0,1-.122-1.548l.019,1.535.026,2.576.039,3.045.251,22.183a1.238,1.238,0,0,1-.784,1.105c-.1.039-.186.077-.282.115-.463.173-.925.341-1.394.488-.244.077-.488.154-.726.218-.61.186-1.221.347-1.837.488-.212.051-.431.1-.643.135-1.053.231-2.107.4-3.161.54l-.52.058c-.739.083-1.471.148-2.2.193-.373.013-.745.038-1.118.051l-.694.019c-.36.006-.726.013-1.086.013h-.032c-.4,0-.8-.006-1.188-.019-.584-.006-1.156-.032-1.728-.064-.334-.019-.668-.039-.989-.064l-.244-.019c-.418-.032-.835-.071-1.24-.109a.55.55,0,0,1-.109-.013c-.424-.039-.842-.083-1.247-.135l-.764-.1c-.424-.058-.835-.115-1.233-.18l-.4-.058c-.122-.026-.244-.045-.366-.064q-.289-.048-.559-.1c-.3-.052-.591-.116-.874-.161-1.028-.2-1.94-.4-2.7-.585-.276-.064-.533-.135-.771-.193s-.456-.128-.649-.18a9.746,9.746,0,0,1-1.15-.366,47.588,47.588,0,0,1-.3-6.938c-.077-6.443-.039-15.675-.013-20.018.006-.867.013-1.535.013-1.953.006-.315.006-.488.006-.488l-.045.495-.032.353a1.237,1.237,0,0,1-1.163,1.144c-4.047.129-8.281-2.57-8.442-2.73a6.011,6.011,0,0,1,.27-1.388,75.665,75.665,0,0,1,2.974-9.6c.912-1.709,2.4-5.126,7.349-6.379a24.549,24.549,0,0,0,5.229-1.946c.109-.058.212-.109.315-.167.289-.154.54-.3.764-.437a1.063,1.063,0,0,1,.174-.084,1.261,1.261,0,0,1,.462-.09h.109a1.311,1.311,0,0,1,.841.328c2.339,1.979,12.335,1.786,13.889-.328h.611a5.238,5.238,0,0,0,.861.565,5.893,5.893,0,0,0,.533.276q.318.154.675.308c3.25,1.445,8.769,3.116,10.683,5.274,2.133,2.39,3.912,9.129,4.593,12,.07.3.128.54.173.745A1.246,1.246,0,0,1,1663.46,1427.33Z" transform="translate(-1613.318 -1406.952)" fill="#fe4c40"/>
                </g>
                <g id="Group_9473" data-name="Group 9473" transform="translate(9.683 27.03)">
                  <path id="Path_17161" data-name="Path 17161" d="M1718.8,1637.849c-13.214,5.64-30.194.514-30.7.231a47.52,47.52,0,0,1-.3-6.938c.3.064.591.109.887.148a22.644,22.644,0,0,0,7.863-.777c5.146-1.2,10.279-2.9,14.564-6a20.422,20.422,0,0,0,7.427-9.63Z" transform="translate(-1687.808 -1614.882)" fill="#ea241f"/>
                </g>
              </g>
              <g id="Group_9475" data-name="Group 9475" transform="translate(15.831)">
                <path id="Path_17162" data-name="Path 17162" d="M1753.661,1407.771a5.9,5.9,0,0,1-.533-.276,4.9,4.9,0,0,1-.861-.566h-.61c-1.554,2.114-11.551,2.306-13.889.328a1.313,1.313,0,0,0-.841-.328h-.109a1.261,1.261,0,0,0-.463.09,1.067,1.067,0,0,0-.173.083c-.225.135-.475.283-.765.437-.1.058-.205.109-.315.167.43,3.354,4.51,5.9,9.649,5.9,4.947,0,8.911-2.364,9.585-5.531Q1753.979,1407.925,1753.661,1407.771Z" transform="translate(-1735.101 -1406.929)" fill="#fff"/>
              </g>
              <g id="Group_9476" data-name="Group 9476" transform="translate(17.077 0.003)">
                <path id="Path_17163" data-name="Path 17163" d="M1761.464,1407.518a3.474,3.474,0,0,1-.379,1.214,4.852,4.852,0,0,1-1.086,1.362,10.532,10.532,0,0,1-6.912,2.255,10.36,10.36,0,0,1-7.054-2.383,4.529,4.529,0,0,1-1.021-1.394,3.389,3.389,0,0,1-.328-1.433.474.474,0,0,1,.007-.1,1.261,1.261,0,0,1,.462-.09h.109a1.311,1.311,0,0,1,.841.328,3.323,3.323,0,0,0,.688.424,9.213,9.213,0,0,0,2.531.7,24.048,24.048,0,0,0,7.086-.019,10.33,10.33,0,0,0,2.544-.687,2.653,2.653,0,0,0,1.041-.745h.61A5.242,5.242,0,0,0,1761.464,1407.518Z" transform="translate(-1744.684 -1406.952)" fill="#ea241f"/>
              </g>
            </g>
            <g id="Group_9478" data-name="Group 9478" transform="translate(110.765)">
              <path id="Path_17164" data-name="Path 17164" d="M2330.572,1284.934v69.875a8.324,8.324,0,0,1-8.33,8.314h-69.875a8.311,8.311,0,0,1-8.314-8.314v-69.875a8.314,8.314,0,0,1,8.314-8.33h69.875A8.328,8.328,0,0,1,2330.572,1284.934Z" transform="translate(-2244.052 -1276.604)" fill="#e4ecf9"/>
            </g>
            <g id="Group_9479" data-name="Group 9479" transform="translate(0 219.232)">
              <rect id="Rectangle_791" data-name="Rectangle 791" width="207.431" height="10.269" transform="translate(0 0)" fill="#d1dcf8"/>
            </g>
            <g id="Group_9480" data-name="Group 9480" transform="translate(10.878 132.627)">
              <path id="Path_17165" data-name="Path 17165" d="M1562.189,2305.176v69.875a8.325,8.325,0,0,1-8.33,8.314h-69.875a8.311,8.311,0,0,1-8.314-8.314v-69.875a8.314,8.314,0,0,1,8.314-8.33h69.875A8.328,8.328,0,0,1,1562.189,2305.176Z" transform="translate(-1475.669 -2296.846)" fill="#e4ecf9"/>
            </g>
            <g id="Group_9481" data-name="Group 9481" transform="translate(110.765 132.627)">
              <path id="Path_17166" data-name="Path 17166" d="M2330.572,2305.176v69.875a8.325,8.325,0,0,1-8.33,8.314h-69.875a8.311,8.311,0,0,1-8.314-8.314v-69.875a8.314,8.314,0,0,1,8.314-8.33h69.875A8.328,8.328,0,0,1,2330.572,2305.176Z" transform="translate(-2244.052 -2296.846)" fill="#e4ecf9"/>
            </g>
            <g id="Group_9507" data-name="Group 9507" transform="translate(118.536 29.117)">
              <g id="Group_9489" data-name="Group 9489" transform="translate(0 21.486)">
                <g id="Group_9482" data-name="Group 9482">
                  <path id="Path_17167" data-name="Path 17167" d="M2303.836,1671.246a5.372,5.372,0,0,0,5.378,5.371h34.391a5.371,5.371,0,0,0,0-10.743h-34.391A5.373,5.373,0,0,0,2303.836,1671.246Z" transform="translate(-2303.836 -1665.874)" fill="#ffcf3d"/>
                </g>
                <g id="Group_9483" data-name="Group 9483" transform="translate(2.025 9.566)">
                  <path id="Path_17168" data-name="Path 17168" d="M2360.506,1739.46a5.347,5.347,0,0,1-3.351,1.177h-34.391a5.362,5.362,0,0,1-3.354-1.177Z" transform="translate(-2319.41 -1739.46)" fill="#fcc230"/>
                </g>
                <g id="Group_9484" data-name="Group 9484" transform="translate(2.489)">
                  <path id="Path_17169" data-name="Path 17169" d="M2322.985,1671.246a5.373,5.373,0,0,0,5.378,5.371h2.012a5.371,5.371,0,1,1,0-10.743h-2.012A5.373,5.373,0,0,0,2322.985,1671.246Z" transform="translate(-2322.985 -1665.874)" fill="#f6f6fe"/>
                </g>
                <g id="Group_9485" data-name="Group 9485" transform="translate(6.71)">
                  <path id="Path_17170" data-name="Path 17170" d="M2355.453,1671.246a5.372,5.372,0,0,0,5.378,5.371h2.012a5.371,5.371,0,1,1,0-10.743h-2.012A5.373,5.373,0,0,0,2355.453,1671.246Z" transform="translate(-2355.453 -1665.874)" fill="#f6f6fe"/>
                </g>
                <g id="Group_9486" data-name="Group 9486" transform="translate(10.931)">
                  <path id="Path_17171" data-name="Path 17171" d="M2387.922,1671.246a5.373,5.373,0,0,0,5.378,5.371h2.011a5.371,5.371,0,1,1,0-10.743H2393.3A5.373,5.373,0,0,0,2387.922,1671.246Z" transform="translate(-2387.922 -1665.874)" fill="#f6f6fe"/>
                </g>
                <g id="Group_9487" data-name="Group 9487" transform="translate(32.729)">
                  <path id="Path_17172" data-name="Path 17172" d="M2555.608,1671.246a5.373,5.373,0,0,0,5.378,5.371h26a5.371,5.371,0,0,0,0-10.743h-26A5.373,5.373,0,0,0,2555.608,1671.246Z" transform="translate(-2555.608 -1665.874)" fill="#fcc230"/>
                </g>
                <g id="Group_9488" data-name="Group 9488" transform="translate(36.151 3.421)">
                  <path id="Path_17173" data-name="Path 17173" d="M2609.88,1696.093a1.95,1.95,0,0,0,0-3.9h-25.995a1.95,1.95,0,1,0,0,3.9Z" transform="translate(-2581.928 -1692.192)" fill="#ffcf3d"/>
                </g>
              </g>
              <g id="Group_9506" data-name="Group 9506">
                <g id="Group_9497" data-name="Group 9497" transform="translate(0 10.743)">
                  <g id="Group_9490" data-name="Group 9490">
                    <path id="Path_17174" data-name="Path 17174" d="M2303.836,1588.6a5.372,5.372,0,0,0,5.378,5.372h34.391a5.371,5.371,0,0,0,0-10.743h-34.391A5.373,5.373,0,0,0,2303.836,1588.6Z" transform="translate(-2303.836 -1583.233)" fill="#ffcf3d"/>
                  </g>
                  <g id="Group_9491" data-name="Group 9491" transform="translate(2.025 9.566)">
                    <path id="Path_17175" data-name="Path 17175" d="M2360.506,1656.819a5.348,5.348,0,0,1-3.351,1.177h-34.391a5.362,5.362,0,0,1-3.354-1.177Z" transform="translate(-2319.41 -1656.819)" fill="#fcc230"/>
                  </g>
                  <g id="Group_9492" data-name="Group 9492" transform="translate(2.489)">
                    <path id="Path_17176" data-name="Path 17176" d="M2322.985,1588.6a5.373,5.373,0,0,0,5.378,5.372h2.012a5.371,5.371,0,1,1,0-10.743h-2.012A5.373,5.373,0,0,0,2322.985,1588.6Z" transform="translate(-2322.985 -1583.233)" fill="#f6f6fe"/>
                  </g>
                  <g id="Group_9493" data-name="Group 9493" transform="translate(6.71)">
                    <path id="Path_17177" data-name="Path 17177" d="M2355.453,1588.6a5.373,5.373,0,0,0,5.378,5.372h2.012a5.371,5.371,0,1,1,0-10.743h-2.012A5.373,5.373,0,0,0,2355.453,1588.6Z" transform="translate(-2355.453 -1583.233)" fill="#f6f6fe"/>
                  </g>
                  <g id="Group_9494" data-name="Group 9494" transform="translate(10.931)">
                    <path id="Path_17178" data-name="Path 17178" d="M2387.922,1588.6a5.373,5.373,0,0,0,5.378,5.372h2.011a5.371,5.371,0,1,1,0-10.743H2393.3A5.373,5.373,0,0,0,2387.922,1588.6Z" transform="translate(-2387.922 -1583.233)" fill="#f6f6fe"/>
                  </g>
                  <g id="Group_9495" data-name="Group 9495" transform="translate(32.729)">
                    <path id="Path_17179" data-name="Path 17179" d="M2555.608,1588.6a5.374,5.374,0,0,0,5.378,5.372h26a5.371,5.371,0,0,0,0-10.743h-26A5.373,5.373,0,0,0,2555.608,1588.6Z" transform="translate(-2555.608 -1583.233)" fill="#fcc230"/>
                  </g>
                  <g id="Group_9496" data-name="Group 9496" transform="translate(36.151 3.421)">
                    <path id="Path_17180" data-name="Path 17180" d="M2609.88,1613.451a1.95,1.95,0,0,0,0-3.9h-25.995a1.95,1.95,0,1,0,0,3.9Z" transform="translate(-2581.928 -1609.551)" fill="#ffcf3d"/>
                  </g>
                </g>
                <g id="Group_9505" data-name="Group 9505">
                  <g id="Group_9498" data-name="Group 9498">
                    <path id="Path_17181" data-name="Path 17181" d="M2303.836,1505.964a5.373,5.373,0,0,0,5.378,5.372h34.391a5.372,5.372,0,0,0,0-10.743h-34.391A5.373,5.373,0,0,0,2303.836,1505.964Z" transform="translate(-2303.836 -1500.592)" fill="#ffcf3d"/>
                  </g>
                  <g id="Group_9499" data-name="Group 9499" transform="translate(2.025 9.566)">
                    <path id="Path_17182" data-name="Path 17182" d="M2360.506,1574.178a5.348,5.348,0,0,1-3.351,1.177h-34.391a5.362,5.362,0,0,1-3.354-1.177Z" transform="translate(-2319.41 -1574.178)" fill="#fcc230"/>
                  </g>
                  <g id="Group_9500" data-name="Group 9500" transform="translate(2.489)">
                    <path id="Path_17183" data-name="Path 17183" d="M2322.985,1505.964a5.373,5.373,0,0,0,5.378,5.372h2.012a5.372,5.372,0,1,1,0-10.743h-2.012A5.373,5.373,0,0,0,2322.985,1505.964Z" transform="translate(-2322.985 -1500.592)" fill="#f6f6fe"/>
                  </g>
                  <g id="Group_9501" data-name="Group 9501" transform="translate(6.71)">
                    <path id="Path_17184" data-name="Path 17184" d="M2355.453,1505.964a5.373,5.373,0,0,0,5.378,5.372h2.012a5.372,5.372,0,1,1,0-10.743h-2.012A5.373,5.373,0,0,0,2355.453,1505.964Z" transform="translate(-2355.453 -1500.592)" fill="#f6f6fe"/>
                  </g>
                  <g id="Group_9502" data-name="Group 9502" transform="translate(10.931)">
                    <path id="Path_17185" data-name="Path 17185" d="M2387.922,1505.964a5.373,5.373,0,0,0,5.378,5.372h2.011a5.372,5.372,0,1,1,0-10.743H2393.3A5.373,5.373,0,0,0,2387.922,1505.964Z" transform="translate(-2387.922 -1500.592)" fill="#f6f6fe"/>
                  </g>
                  <g id="Group_9503" data-name="Group 9503" transform="translate(32.729)">
                    <path id="Path_17186" data-name="Path 17186" d="M2555.608,1505.964a5.374,5.374,0,0,0,5.378,5.372h26a5.372,5.372,0,0,0,0-10.743h-26A5.373,5.373,0,0,0,2555.608,1505.964Z" transform="translate(-2555.608 -1500.592)" fill="#fcc230"/>
                  </g>
                  <g id="Group_9504" data-name="Group 9504" transform="translate(36.151 3.421)">
                    <path id="Path_17187" data-name="Path 17187" d="M2609.88,1530.811a1.95,1.95,0,0,0,0-3.9h-25.995a1.95,1.95,0,1,0,0,3.9Z" transform="translate(-2581.928 -1526.91)" fill="#ffcf3d"/>
                  </g>
                </g>
              </g>
            </g>
            <g id="Group_9514" data-name="Group 9514" transform="translate(33.68 143.148)">
              <g id="Group_9508" data-name="Group 9508">
                <path id="Path_17188" data-name="Path 17188" d="M1651.073,2441.9l36.922.031-5.3-41.338c2.282-3.041.263-6.591.263-6.591l-4.811-6.243.514-9.968h-1.946l-.762,9.29s-6.97,8.85-6.385,6.833l-6.371-6.84-.746-9.292-1.951,0,.5,9.968-4.82,6.237s-2.029,3.544.247,6.587h0Z" transform="translate(-1651.073 -2377.782)" fill="#71c687"/>
              </g>
              <g id="Group_9509" data-name="Group 9509" transform="translate(2.477 40.414)" opacity="0.38">
                <path id="Path_17189" data-name="Path 17189" d="M1675.341,2688.672l-1.391,23.711-3.823,0Z" transform="translate(-1670.127 -2688.672)" fill="#61ba76"/>
              </g>
              <g id="Group_9510" data-name="Group 9510" transform="translate(8.288 36.133)" opacity="0.38">
                <path id="Path_17190" data-name="Path 17190" d="M1714.828,2683.733l4.3-27.994.173,28Z" transform="translate(-1714.828 -2655.739)" fill="#61ba76"/>
              </g>
              <g id="Group_9511" data-name="Group 9511" transform="translate(28.971 40.432)" opacity="0.38">
                <path id="Path_17191" data-name="Path 17191" d="M1879.121,2712.526l-3.831,0-1.351-23.713Z" transform="translate(-1873.938 -2688.81)" fill="#61ba76"/>
              </g>
              <g id="Group_9512" data-name="Group 9512" transform="translate(23.861 36.143)" opacity="0.38">
                <path id="Path_17192" data-name="Path 17192" d="M1839.1,2683.815l-4.474,0,.221-28Z" transform="translate(-1834.622 -2655.814)" fill="#61ba76"/>
              </g>
              <g id="Group_9513" data-name="Group 9513" transform="translate(15.29 33.892)" opacity="0.38">
                <path id="Path_17193" data-name="Path 17193" d="M1774.3,2668.747l-5.605,0,2.982-30.24Z" transform="translate(-1768.693 -2638.502)" fill="#61ba76"/>
              </g>
            </g>
            <g id="Group_9535" data-name="Group 9535" transform="translate(122.089 149.171)">
              <g id="Group_9528" data-name="Group 9528" transform="translate(20.584)">
                <g id="Group_9526" data-name="Group 9526">
                  <g id="Group_9524" data-name="Group 9524">
                    <g id="Group_9516" data-name="Group 9516" transform="translate(0 14.467)">
                      <g id="Group_9515" data-name="Group 9515">
                        <path id="Path_17194" data-name="Path 17194" d="M2514.758,2535.41v44.823h-22.5a2.75,2.75,0,0,1-2.745-2.737V2535.41Z" transform="translate(-2489.512 -2535.41)" fill="#d1dcf8"/>
                      </g>
                    </g>
                    <g id="Group_9517" data-name="Group 9517" transform="translate(0 17.43)">
                      <path id="Path_17195" data-name="Path 17195" d="M2514.758,2558.2v15.518l-24.006,25.892a2.719,2.719,0,0,1-1.24-2.286v-11.894Z" transform="translate(-2489.512 -2558.197)" fill="#63dafc"/>
                    </g>
                    <g id="Group_9519" data-name="Group 9519" transform="translate(25.246 14.467)">
                      <g id="Group_9518" data-name="Group 9518">
                        <rect id="Rectangle_792" data-name="Rectangle 792" width="9.112" height="44.823" fill="#bbcaea"/>
                      </g>
                    </g>
                    <g id="Group_9521" data-name="Group 9521" transform="translate(25.243 5.001)">
                      <g id="Group_9520" data-name="Group 9520">
                        <path id="Path_17196" data-name="Path 17196" d="M2692.812,2472.057l-5.128-9.466-3.985,9.466Z" transform="translate(-2683.699 -2462.591)" fill="#adbedb"/>
                      </g>
                    </g>
                    <g id="Group_9522" data-name="Group 9522" transform="translate(0.001 5.001)">
                      <path id="Path_17197" data-name="Path 17197" d="M2518.748,2462.591h-22.985l-6.242,9.466h25.242Z" transform="translate(-2489.521 -2462.591)" fill="#bbcaea"/>
                    </g>
                    <g id="Group_9523" data-name="Group 9523" transform="translate(6.243)">
                      <rect id="Rectangle_793" data-name="Rectangle 793" width="22.985" height="5.001" fill="#d1dcf8"/>
                    </g>
                  </g>
                  <g id="Group_9525" data-name="Group 9525" transform="translate(25.243 54.242)">
                    <path id="Path_17198" data-name="Path 17198" d="M2692.812,2846.432H2683.7l4.557-5.052Z" transform="translate(-2683.699 -2841.38)" fill="#adbedb"/>
                  </g>
                </g>
                <g id="Group_9527" data-name="Group 9527" transform="translate(9.746 34.699)">
                  <circle id="Ellipse_190" data-name="Ellipse 190" cx="3.435" cy="3.435" r="3.435" fill="#fff"/>
                </g>
              </g>
              <g id="Group_9534" data-name="Group 9534" transform="translate(0 32.231)">
                <g id="Group_9529" data-name="Group 9529" transform="translate(5.314 1.437)">
                  <path id="Path_17199" data-name="Path 17199" d="M2380.867,2686.295l0,.008a6.458,6.458,0,0,1-8.822-2.3l0-.008A6.458,6.458,0,0,1,2380.867,2686.295Z" transform="translate(-2372.043 -2683.112)" fill="#61ba76"/>
                </g>
                <g id="Group_9530" data-name="Group 9530" transform="translate(13.071)">
                  <path id="Path_17200" data-name="Path 17200" d="M2434.9,2672.7c.044.515-.5.855-.863,1.225a4.237,4.237,0,0,0-.885,2.372c-.3,1.958-.616,3.924-.921,5.882l-.406-1.573a14.838,14.838,0,0,1,.878-7.152,3.282,3.282,0,0,1,.508-.943,1.241,1.241,0,0,1,.936-.457A.779.779,0,0,1,2434.9,2672.7Z" transform="translate(-2431.714 -2672.058)" fill="#393e46"/>
                </g>
                <g id="Group_9533" data-name="Group 9533" transform="translate(0 6.334)">
                  <g id="Group_9531" data-name="Group 9531">
                    <path id="Path_17201" data-name="Path 17201" d="M2358.29,2729.695a17.736,17.736,0,0,1-3.469,10.8,6.687,6.687,0,0,1-2.857,2.428,6.523,6.523,0,0,1-2.681.278,19.92,19.92,0,0,1-2.289-.3,12.416,12.416,0,0,0-4.528,0,19.918,19.918,0,0,1-2.29.3,6.517,6.517,0,0,1-2.68-.278,6.684,6.684,0,0,1-2.857-2.428c-.215-.29-.416-.58-.605-.883a17.688,17.688,0,0,1-2.864-9.921,11.943,11.943,0,0,1,.826-4.409,7.31,7.31,0,0,1,2.807-3.444,8.247,8.247,0,0,1,4.976-1.028,11.642,11.642,0,0,0,9.9,0,8.257,8.257,0,0,1,4.982,1.028,5.145,5.145,0,0,1,.732.542,7.534,7.534,0,0,1,2.075,2.9A11.943,11.943,0,0,1,2358.29,2729.695Z" transform="translate(-2331.166 -2720.781)" fill="#ea241f"/>
                  </g>
                  <g id="Group_9532" data-name="Group 9532" transform="translate(2.866 1.603)">
                    <path id="Path_17202" data-name="Path 17202" d="M2377.472,2740.425a17.739,17.739,0,0,1-3.469,10.8,6.688,6.688,0,0,1-2.857,2.428,6.514,6.514,0,0,1-2.681.278,19.853,19.853,0,0,1-2.29-.3,12.417,12.417,0,0,0-4.529,0,19.858,19.858,0,0,1-2.289.3,6.511,6.511,0,0,1-2.68-.278,6.686,6.686,0,0,1-2.857-2.428c-.214-.291-.416-.581-.605-.884a14.862,14.862,0,0,0,8.931-.87,19.991,19.991,0,0,0,12.425-16.361,7.531,7.531,0,0,1,2.075,2.9A11.955,11.955,0,0,1,2377.472,2740.425Z" transform="translate(-2353.215 -2733.115)" fill="#db1616"/>
                  </g>
                </g>
              </g>
            </g>
          </g>
        </g>
      </g>
      <g id="Group_9621" data-name="Group 9621" transform="translate(270.433 80.675)">
        <g id="Group_9605" data-name="Group 9605">
          <g id="Group_9597" data-name="Group 9597">
            <g id="Group_9578" data-name="Group 9578" transform="translate(0 61.156)">
              <g id="Group_9570" data-name="Group 9570" transform="translate(48.606)">
                <g id="Group_9542" data-name="Group 9542" transform="translate(27.781 350.838)">
                  <g id="Group_9539" data-name="Group 9539" transform="translate(31.868)">
                    <rect id="Rectangle_794" data-name="Rectangle 794" width="15.412" height="25.098" fill="#fec9ac"/>
                  </g>
                  <g id="Group_9540" data-name="Group 9540" transform="translate(31.868 3.568)">
                    <path id="Path_17203" data-name="Path 17203" d="M3747.593,3824.478v8.875a60.053,60.053,0,0,1-15.412-1.076v-7.8Z" transform="translate(-3732.18 -3824.478)" fill="#ffab90"/>
                  </g>
                  <g id="Group_9541" data-name="Group 9541" transform="translate(0 12.547)">
                    <path id="Path_17204" data-name="Path 17204" d="M3540.238,3915.335H3491.3a4.143,4.143,0,0,1-3.007-1.3,4.557,4.557,0,0,1-1.256-3.149,4.484,4.484,0,0,1,2.766-4.185c5.15-2.02,14.156-4.265,16.059-6.258,2.55-2.657,7-7.108,10.187-6.882s5.087,5.553,9.97,8.663c3.463,2.205,7.205-3.243,9.07-6.59a1.589,1.589,0,0,1,2.816,0C3541.861,3903.112,3540.238,3915.335,3540.238,3915.335Z" transform="translate(-3487.037 -3893.551)" fill="#2e363a"/>
                  </g>
                </g>
                <g id="Group_9546" data-name="Group 9546" transform="translate(109.892 349.227)">
                  <g id="Group_9543" data-name="Group 9543" transform="translate(6.251 1.61)">
                    <rect id="Rectangle_795" data-name="Rectangle 795" width="15.412" height="25.098" fill="#fec9ac"/>
                  </g>
                  <g id="Group_9544" data-name="Group 9544" transform="translate(6.251)">
                    <path id="Path_17205" data-name="Path 17205" d="M4166.767,3784.64v14.055a60.088,60.088,0,0,0,15.413-1.076V3784.64Z" transform="translate(-4166.767 -3784.64)" fill="#ffab90"/>
                  </g>
                  <g id="Group_9545" data-name="Group 9545" transform="translate(0 14.158)">
                    <path id="Path_17206" data-name="Path 17206" d="M4119.011,3915.335h48.939a4.142,4.142,0,0,0,3.006-1.3,4.557,4.557,0,0,0,1.256-3.149,4.484,4.484,0,0,0-2.766-4.185c-5.15-2.02-14.156-4.265-16.059-6.258-2.55-2.657-7-7.108-10.186-6.882s-5.087,5.553-9.972,8.663c-3.463,2.205-7.2-3.243-9.069-6.59a1.589,1.589,0,0,0-2.816,0C4117.387,3903.112,4119.011,3915.335,4119.011,3915.335Z" transform="translate(-4118.681 -3893.551)" fill="#2e363a"/>
                  </g>
                </g>
                <g id="Group_9569" data-name="Group 9569">
                  <g id="Group_9547" data-name="Group 9547" transform="translate(44.689 141.836)">
                    <path id="Path_17207" data-name="Path 17207" d="M3621.615,2403.279a215.877,215.877,0,0,0,22.567.51c1.445-.061,2.853-.159,4.188-.28,3.775-.376,6.944-1.007,8.643-2.075,6.592-4.115,6.069-140.17,6.069-140.17s15.927,139.964,18.6,141.372c.971.51,4.831.3,9.566-.352,8.315-1.165,19.338-3.751,22.105-6.3,2.925-2.695-.6-95.583-3.205-155.914-.959-22.4-1.808-40.314-2.148-47.452-.1-2.173-.158-3.35-.158-3.35l-5.644.231-83.8,3.5c-.765,2.27-1.154,10.585-1.263,22.7C3616.626,2270.574,3621.615,2403.279,3621.615,2403.279Z" transform="translate(-3617.099 -2189.267)" fill="#3a4146"/>
                  </g>
                  <g id="Group_9548" data-name="Group 9548" transform="translate(44.725 142.067)">
                    <path id="Path_17208" data-name="Path 17208" d="M3617.38,2217.237a424.466,424.466,0,0,1,58.365,10.33c10.415,2.61,20.843,5.657,30.1,11.083q2.331,1.366,4.54,2.962c-.958-22.4-1.809-40.314-2.148-47.452-.983-.571-1.966-1.129-2.962-1.651-.935-.5-1.882-.983-2.84-1.469l-83.8,3.5C3617.878,2196.807,3617.49,2205.123,3617.38,2217.237Z" transform="translate(-3617.38 -2191.041)" fill="#2e363a"/>
                  </g>
                  <g id="Group_9567" data-name="Group 9567">
                    <g id="Group_9565" data-name="Group 9565">
                      <g id="Group_9558" data-name="Group 9558">
                        <g id="Group_9557" data-name="Group 9557">
                          <g id="Group_9556" data-name="Group 9556">
                            <g id="Group_9555" data-name="Group 9555">
                              <g id="Group_9552" data-name="Group 9552" transform="translate(0 17.416)">
                                <g id="Group_9549" data-name="Group 9549">
                                  <path id="Path_17209" data-name="Path 17209" d="M3314.494,1324.234l-7.783,42.953c56.408,7.417,108.55-6.24,108.55-6.24l-2.647-27.336-1.473-15.2c11.226-3.535,23.923-38.058,23.923-38.058s-7.922-11.607-22.635-25.65a80.666,80.666,0,0,0-42.961-21.621c-15.117-2.39-30.079-.3-43.37,7.98a60.862,60.862,0,0,0-5.766,4.129c-21.332,17.042-47.007,55.28-47.007,55.28C3291.438,1325.593,3314.494,1324.234,3314.494,1324.234Z" transform="translate(-3273.326 -1232.153)" fill="#71c687"/>
                                </g>
                                <g id="Group_9550" data-name="Group 9550" transform="translate(41.698 59.292)">
                                  <path id="Path_17210" data-name="Path 17210" d="M3594.087,1719.136s33.218,11.246,62,10.953c13.837-.14,26.655-2.945,34.257-10.953l-3.458-30.873s-30.692,9.194-69.927,3.431a168.712,168.712,0,0,1-17.154-3.431Z" transform="translate(-3594.087 -1688.263)" fill="#fff"/>
                                </g>
                                <g id="Group_9551" data-name="Group 9551" transform="translate(0 13.036)">
                                  <path id="Path_17211" data-name="Path 17211" d="M3314.494,1411.479l-7.783,42.953c42.163,10.549,108.261-2.659,108.55-6.24l-2.647-27.336c-2.746.629-5.521,1.137-8.318,1.5-12.24,1.6-25.1.283-36.082-5.36-11.352-5.827-20.068-15.919-26.331-27.043s-10.289-23.332-14.282-35.458q-3.631-11.03-7.268-22.066c-21.332,17.042-47.007,55.28-47.007,55.28C3291.438,1412.837,3314.494,1411.479,3314.494,1411.479Z" transform="translate(-3273.326 -1332.433)" fill="#61ba76"/>
                                </g>
                              </g>
                              <g id="Group_9553" data-name="Group 9553" transform="translate(70.217)">
                                <path id="Path_17212" data-name="Path 17212" d="M3813.476,1117.232c1.519,4.5,7.155,7.588,11.426,8.761a23.884,23.884,0,0,0,12.405.133c9.154-2.418,9.38-8.088,9.38-8.088-1.545-.5-2.3-4.444-2.652-8.687-.446-5.35-.273-11.172-.273-11.172h-24.31s-.712,7.388-1.485,13.078a7.781,7.781,0,0,1-1.186,3.2,7.231,7.231,0,0,1-2.159,2.179A6.168,6.168,0,0,1,3813.476,1117.232Z" transform="translate(-3813.476 -1098.178)" fill="#fec9ac"/>
                              </g>
                              <g id="Group_9554" data-name="Group 9554" transform="translate(73.522)" opacity="0.5">
                                <path id="Path_17213" data-name="Path 17213" d="M3838.9,1114.454c8.308,3,18.115,2.025,25.15-3.3a23.608,23.608,0,0,0,2.105-1.8c-.446-5.35-.273-11.172-.273-11.172h-24.31s-.713,7.388-1.485,13.078A7.778,7.778,0,0,1,3838.9,1114.454Z" transform="translate(-3838.896 -1098.178)" fill="#ffab90"/>
                              </g>
                            </g>
                          </g>
                        </g>
                      </g>
                      <g id="Group_9560" data-name="Group 9560" transform="translate(68.691 26.079)">
                        <g id="Group_9559" data-name="Group 9559">
                          <path id="Path_17214" data-name="Path 17214" d="M3801.8,1298.837c.232-.213,1.053.329,2.6,1.393a38.487,38.487,0,0,0,7.256,4.035,26.819,26.819,0,0,0,18.2,1.346,18.313,18.313,0,0,0,7.334-3.19c1.354-1.1,1.8-1.964,2.129-1.841.246.054.364,1.239-.9,2.986-1.239,1.746-3.97,3.58-7.8,4.755a29.638,29.638,0,0,1-20.114-1.49,23.281,23.281,0,0,1-7.215-5.349C3801.974,1299.976,3801.576,1299.037,3801.8,1298.837Z" transform="translate(-3801.74 -1298.791)" fill="#fff"/>
                        </g>
                      </g>
                      <g id="Group_9562" data-name="Group 9562" transform="translate(6.56 81.909)">
                        <g id="Group_9561" data-name="Group 9561">
                          <path id="Path_17215" data-name="Path 17215" d="M3349.408,1745.989c-.116.516-3.145.563-8.611-1.731a47.634,47.634,0,0,1-12.271-8.49c-4.07-4.3-5.095-7.152-4.64-7.451.553-.4,2.419,1.747,6.581,5.414a44.8,44.8,0,0,0,11.553,7.993C3346.924,1744.328,3349.588,1745.317,3349.408,1745.989Z" transform="translate(-3323.786 -1728.27)" fill="#fff"/>
                        </g>
                      </g>
                      <g id="Group_9564" data-name="Group 9564" transform="translate(140.993 68.83)">
                        <g id="Group_9563" data-name="Group 9563">
                          <path id="Path_17216" data-name="Path 17216" d="M4357.993,1647.942c-.406-.5,1.065-2.164,3.729-5.533a38.391,38.391,0,0,0,5.948-9.109c2.012-3.79,2.942-5.8,3.58-5.63.549.135.65,2.51-1.032,6.823a41.22,41.22,0,0,1-6.379,9.77C4360.563,1647.54,4358.347,1648.4,4357.993,1647.942Z" transform="translate(-4357.926 -1627.659)" fill="#fff"/>
                        </g>
                      </g>
                    </g>
                    <g id="Group_9566" data-name="Group 9566" transform="translate(41.698 76.708)">
                      <path id="Path_17217" data-name="Path 17217" d="M3594.087,1719.136s33.218,11.246,62,10.953a50.917,50.917,0,0,1-8.808-3.518c-11.352-5.823-20.066-15.916-26.329-27.042-1.439-2.558-2.765-5.177-3.991-7.835a168.712,168.712,0,0,1-17.154-3.431Z" transform="translate(-3594.087 -1688.263)" fill="#e4ecf9"/>
                    </g>
                  </g>
                  <g id="Group_9568" data-name="Group 9568" transform="translate(75.959 195.831)">
                    <path id="Path_17218" data-name="Path 17218" d="M3857.649,2764.873c3.775-.376,6.943-1.007,8.643-2.076,6.592-4.115,6.069-140.17,6.069-140.17s15.927,139.963,18.6,141.372c.971.51,4.831.3,9.566-.352-7.369-48.459-26.026-158.9-31.148-159.022Z" transform="translate(-3857.649 -2604.625)" fill="#2e363a"/>
                  </g>
                </g>
              </g>
              <g id="Group_9574" data-name="Group 9574" transform="translate(0 57.56)">
                <g id="Group_9571" data-name="Group 9571">
                  <path id="Path_17219" data-name="Path 17219" d="M2901.031,1540.988c-3,.642-1.807,18.855,3.589,30.319a46.179,46.179,0,0,0,7.021,9.84c10.791,12.185,30.3,27.2,44.282,27.1a27.024,27.024,0,0,0,5.8-.65c13.6-3.072,17.76-15.99,17.76-15.99-3.764-1.385-13.214-7.287-30.12-20.9a56.45,56.45,0,0,1-4.056,9.582.2.2,0,0,1-.117.1c-2.441,1.8-27.412-13.847-27.412-13.847a7.9,7.9,0,0,1-1.733-5.717c.27-3.586.843-10.35-2.24-10.514s-3.589,15.083-4.269,9.34c-.574-4.761-3.977-14.873-6.845-17.842C2902.113,1541.192,2901.542,1540.878,2901.031,1540.988Z" transform="translate(-2899.42 -1540.966)" fill="#fec9ac"/>
                </g>
                <g id="Group_9572" data-name="Group 9572">
                  <path id="Path_17220" data-name="Path 17220" d="M2901.031,1540.988c-3,.642-1.807,18.855,3.589,30.319a46.179,46.179,0,0,0,7.021,9.84,93.812,93.812,0,0,1-9.243-25.981c-.851-4.412-1.3-9.3.3-13.363C2902.113,1541.192,2901.542,1540.878,2901.031,1540.988Z" transform="translate(-2899.42 -1540.966)" fill="#ffab90"/>
                </g>
                <g id="Group_9573" data-name="Group 9573" transform="translate(45.774 29.735)" opacity="0.5">
                  <path id="Path_17221" data-name="Path 17221" d="M3255.71,1769.706a56.445,56.445,0,0,1-4.055,9.582.2.2,0,0,1-.118.1,45.276,45.276,0,0,1,16.533,27.21c13.6-3.071,17.76-15.989,17.76-15.989C3282.066,1789.224,3272.617,1783.322,3255.71,1769.706Z" transform="translate(-3251.537 -1769.706)" fill="#ffab90"/>
                </g>
              </g>
              <g id="Group_9577" data-name="Group 9577" transform="translate(0 57.56)">
                <g id="Group_9575" data-name="Group 9575">
                  <path id="Path_17222" data-name="Path 17222" d="M2901.031,1540.988c.511-.11,1.082.2,1.663.816,2.868,2.969,6.271,13.081,6.845,17.841.68,5.743,1.179-9.492,4.269-9.34s2.509,6.928,2.24,10.514a7.9,7.9,0,0,0,1.733,5.718s11.938,7.48,20.112,11.5v24.49a107.3,107.3,0,0,1-26.252-21.382,46.151,46.151,0,0,1-7.021-9.84C2899.224,1559.843,2898.027,1541.63,2901.031,1540.988Z" transform="translate(-2899.42 -1540.966)" fill="#fec9ac"/>
                </g>
                <g id="Group_9576" data-name="Group 9576" transform="translate(0)">
                  <path id="Path_17223" data-name="Path 17223" d="M2901.031,1540.988c-3,.642-1.807,18.855,3.589,30.319a46.179,46.179,0,0,0,7.021,9.84,93.812,93.812,0,0,1-9.243-25.981c-.851-4.412-1.3-9.3.3-13.363C2902.113,1541.192,2901.542,1540.878,2901.031,1540.988Z" transform="translate(-2899.42 -1540.966)" fill="#ffab90"/>
                </g>
              </g>
            </g>
            <g id="Group_9596" data-name="Group 9596" transform="translate(106.565)">
              <g id="Group_9584" data-name="Group 9584">
                <g id="Group_9582" data-name="Group 9582">
                  <g id="Group_9579" data-name="Group 9579" transform="translate(8.879 11.249)">
                    <path id="Path_17224" data-name="Path 17224" d="M3788.686,755.959c.654,4.656,1.6,9.566,4.779,13.028,2.822,3.07,7.071,4.532,11.239,4.728a17.67,17.67,0,0,0,6.692-.873c4.336-1.513,7.689-4.961,10.7-8.416,1.118-1.276,2.219-2.578,3.258-3.925a17.419,17.419,0,0,1,3.858-3.553l.02-.014a15.7,15.7,0,0,0,2.975-2.961,6.346,6.346,0,0,0,1.615-2.851,3.859,3.859,0,0,0-.706-2.815,5.643,5.643,0,0,0-1.251-1.244,26.164,26.164,0,0,0-15.808-29.1l-23.546-3.7c-.1,3.521-1.608,6.816-2.677,10.162C3786.591,734.522,3787.216,745.448,3788.686,755.959Z" transform="translate(-3787.487 -714.263)" fill="#fec9ac"/>
                  </g>
                  <g id="Group_9580" data-name="Group 9580">
                    <path id="Path_17225" data-name="Path 17225" d="M3719.734,650.227a17.173,17.173,0,0,0,3.883,5.949,8.317,8.317,0,0,0,6.519,2.36c1.968-.258,3.7-1.389,5.521-2.191a6.341,6.341,0,0,1,4.319.1,12.257,12.257,0,0,0,4.969.65l1.479-.124c-.223-1.069-1.737-1.113-2.583-1.808a14.3,14.3,0,0,1,14.365,8.665c.811,2.049,2.732,14.118,2.732,14.118s3.039-6.406,4.117-6.824a7.76,7.76,0,0,1,4.586-.57,6.686,6.686,0,0,1,3.312,1.746,23.936,23.936,0,0,1,2.121-5.825,18.987,18.987,0,0,0,1.746-10.134,31.939,31.939,0,0,0-.668-4.1c-.454-2.039-1.059-4.052-1.666-6.056a33.393,33.393,0,0,0-3.624-8.771,20.757,20.757,0,0,0-10.49-7.819,37.931,37.931,0,0,0-13.109-1.861,29.625,29.625,0,0,0-8.442,1.1,14.009,14.009,0,0,0-7.018,4.631,17.2,17.2,0,0,0-1.425,2.28c-.633,1.184-1.2,2.422-1.906,3.571a16.686,16.686,0,0,1-7.347,6.466,3.941,3.941,0,0,0-1.487.917C3718.835,647.644,3719.236,649.087,3719.734,650.227Z" transform="translate(-3719.181 -627.729)" fill="#2e363a"/>
                  </g>
                  <g id="Group_9581" data-name="Group 9581" transform="translate(46.911 45.08)" opacity="0.5">
                    <path id="Path_17226" data-name="Path 17226" d="M4080.049,981.613a1.072,1.072,0,0,0,.9,1.131,1.444,1.444,0,0,0,.748-.125,5.079,5.079,0,0,0,2.03-1.736,7.745,7.745,0,0,0,1.933-4.426,2.081,2.081,0,0,0-.427-1.452,2.06,2.06,0,0,0-2.066-.383,4.378,4.378,0,0,0-3.019,2.992Z" transform="translate(-4080.045 -974.514)" fill="#ffab90"/>
                  </g>
                </g>
                <g id="Group_9583" data-name="Group 9583" transform="translate(10.636)">
                  <path id="Path_17227" data-name="Path 17227" d="M3803.467,646.166c1.772,1.1,4.07.721,6.091.2,3.153-.819,6.35-1.915,9.582-1.505a10.705,10.705,0,0,1,7.8,5.139,20,20,0,0,0,1.211,2.075,6.959,6.959,0,0,0,5.1,2.467,20.568,20.568,0,0,0,5.788-.677q2.805-.588,5.593-1.193a16.323,16.323,0,0,1,2.7-.427c-.454-2.039-1.059-4.052-1.665-6.056a33.411,33.411,0,0,0-3.624-8.771,20.754,20.754,0,0,0-10.491-7.819,37.927,37.927,0,0,0-13.109-1.861,29.625,29.625,0,0,0-8.442,1.1,14.007,14.007,0,0,0-7.017,4.631,17.153,17.153,0,0,0-1.425,2.28c-.161,1.318-.428,2.645-.525,3.972C3800.849,642.132,3801.41,644.893,3803.467,646.166Z" transform="translate(-3801.002 -627.729)" fill="#3a4146"/>
                </g>
              </g>
              <g id="Group_9595" data-name="Group 9595" transform="translate(12.783 34.696)">
                <g id="Group_9586" data-name="Group 9586" transform="translate(15.551 2.566)">
                  <g id="Group_9585" data-name="Group 9585">
                    <path id="Path_17228" data-name="Path 17228" d="M3943.708,916.994c.094-.056.109-.265-.04-.611a3.259,3.259,0,0,0-1.1-1.271,4.776,4.776,0,0,0-3.737-.588,3.248,3.248,0,0,0-1.435.872c-.249.284-.3.488-.223.572.169.2.735-.192,1.919-.409a3.7,3.7,0,0,1,2.91.457C3943.063,916.587,3943.482,917.135,3943.708,916.994Z" transform="translate(-3937.142 -914.373)" fill="#4f2d2a"/>
                  </g>
                </g>
                <g id="Group_9588" data-name="Group 9588">
                  <g id="Group_9587" data-name="Group 9587">
                    <path id="Path_17229" data-name="Path 17229" d="M3824.37,896.756c.143-.138-.174-.853-1.453-1.534a7.14,7.14,0,0,0-3.541-.554c-1.425.258-1.946.841-1.849,1.022.1.234.741.072,1.952.041a6.071,6.071,0,0,1,3.015.472C3823.638,896.6,3824.194,896.952,3824.37,896.756Z" transform="translate(-3817.516 -894.633)" fill="#4f2d2a"/>
                  </g>
                </g>
                <g id="Group_9590" data-name="Group 9590" transform="translate(7.166 10.075)">
                  <g id="Group_9589" data-name="Group 9589">
                    <path id="Path_17230" data-name="Path 17230" d="M3877.307,982.367c-.091-.082-.391.158-.954.551a3.141,3.141,0,0,1-1.074.5,1.435,1.435,0,0,1-1.29-.321c-.542-.489-.153-1.964-.018-3.111q.286-1.8.752-3.571c.654-2.794,1.071-4.178.833-4.271-.2-.081-1,1.17-1.866,4q-.476,1.817-.773,3.674c-.1.622-.181,1.231-.25,1.87a4,4,0,0,0,.018,1.065,2.019,2.019,0,0,0,.554,1.1,2.278,2.278,0,0,0,2.286.413,3.084,3.084,0,0,0,1.251-.872C3877.277,982.8,3877.389,982.439,3877.307,982.367Z" transform="translate(-3872.64 -972.137)" fill="#4f2d2a"/>
                  </g>
                </g>
                <g id="Group_9592" data-name="Group 9592" transform="translate(9.794 21.244)">
                  <g id="Group_9591" data-name="Group 9591">
                    <path id="Path_17231" data-name="Path 17231" d="M3892.856,1063.177c-.027.1.2.29.724.458a6.1,6.1,0,0,0,2.478.2,8.491,8.491,0,0,0,4.99-2.567,3.694,3.694,0,0,0,.958-2.4c-.029-.6-.236-.843-.336-.819-.265.031-.049,1.117-1.418,2.5a7.445,7.445,0,0,1-4.35,2.222C3893.955,1063.138,3892.916,1062.9,3892.856,1063.177Z" transform="translate(-3892.854 -1058.054)" fill="#4f2d2a"/>
                  </g>
                </g>
                <g id="Group_9593" data-name="Group 9593" transform="translate(1.857 7.16)">
                  <ellipse id="Ellipse_191" data-name="Ellipse 191" cx="1.224" cy="2.199" rx="1.224" ry="2.199" fill="#4f2d2a"/>
                </g>
                <g id="Group_9594" data-name="Group 9594" transform="translate(16.203 8.369)">
                  <ellipse id="Ellipse_192" data-name="Ellipse 192" cx="1.224" cy="2.199" rx="1.224" ry="2.199" fill="#4f2d2a"/>
                </g>
              </g>
            </g>
          </g>
          <g id="Group_9604" data-name="Group 9604" transform="translate(113.374 34.022)">
            <g id="Group_9599" data-name="Group 9599" transform="translate(18.304 1.623)">
              <g id="Group_9598" data-name="Group 9598">
                <path id="Path_17232" data-name="Path 17232" d="M3919.245,918.131a8.149,8.149,0,1,1,9.32-6.777A8.158,8.158,0,0,1,3919.245,918.131Zm2.393-15.138a7.178,7.178,0,1,0,5.968,8.21A7.186,7.186,0,0,0,3921.638,902.992Z" transform="translate(-3912.367 -901.933)" fill="#fff"/>
              </g>
            </g>
            <g id="Group_9601" data-name="Group 9601">
              <g id="Group_9600" data-name="Group 9600">
                <path id="Path_17233" data-name="Path 17233" d="M3778.44,905.646a8.149,8.149,0,1,1,9.321-6.776A8.158,8.158,0,0,1,3778.44,905.646Zm2.393-15.138a7.178,7.178,0,1,0,5.969,8.21A7.187,7.187,0,0,0,3780.833,890.507Z" transform="translate(-3771.563 -889.448)" fill="#fff"/>
              </g>
            </g>
            <g id="Group_9603" data-name="Group 9603" transform="translate(15.193 5.875)">
              <g id="Group_9602" data-name="Group 9602">
                <path id="Path_17234" data-name="Path 17234" d="M3888.844,935.972a.485.485,0,0,1-.122-.923c.117-.053,2.9-1.254,4.459.759a.485.485,0,0,1-.767.6c-1.1-1.421-3.277-.477-3.3-.467A.484.484,0,0,1,3888.844,935.972Z" transform="translate(-3888.434 -934.645)" fill="#fff"/>
              </g>
            </g>
          </g>
        </g>
        <g id="Group_9619" data-name="Group 9619" transform="translate(44.895 191.815)">
          <g id="Group_9607" data-name="Group 9607" transform="translate(78.609)">
            <g id="Group_9606" data-name="Group 9606">
              <path id="Path_17235" data-name="Path 17235" d="M3876.015,2138.8l-1.833-1.078,7.254-12.346a13.257,13.257,0,0,0-22.86-13.431l-7.254,12.347-1.833-1.077,7.254-12.347a15.383,15.383,0,1,1,26.527,15.585Z" transform="translate(-3849.488 -2103.281)" fill="#13b1e2"/>
            </g>
          </g>
          <g id="Group_9613" data-name="Group 9613" transform="translate(0 2.078)">
            <g id="Group_9611" data-name="Group 9611">
              <g id="Group_9608" data-name="Group 9608">
                <path id="Path_17236" data-name="Path 17236" d="M3307.041,2120.5l-61.714,86.009a2.939,2.939,0,0,0,.9,4.242l8.312,4.883,56.379-95.959A2.939,2.939,0,0,0,3307.041,2120.5Z" transform="translate(-3244.779 -2119.266)" fill="#42c1f4"/>
              </g>
              <g id="Group_9609" data-name="Group 9609" transform="translate(23.007 1.373)">
                <path id="Path_17237" data-name="Path 17237" d="M3482.772,2264.735l45.09-95.775a2.938,2.938,0,0,0-1.167-3.792l-60.151-35.34L3421.761,2232.6l56.865,33.41A2.939,2.939,0,0,0,3482.772,2264.735Z" transform="translate(-3421.761 -2129.828)" fill="#64d3ff"/>
              </g>
              <g id="Group_9610" data-name="Group 9610" transform="translate(9.762 0.405)">
                <path id="Path_17238" data-name="Path 17238" d="M3376.256,2122.382l-56.38,95.96,13.245,7.781L3377.9,2123.35Z" transform="translate(-3319.877 -2122.382)" fill="#64d3ff"/>
              </g>
            </g>
            <g id="Group_9612" data-name="Group 9612" transform="translate(54.209 46.905)">
              <circle id="Ellipse_193" data-name="Ellipse 193" cx="19.069" cy="19.069" r="19.069" fill="#13b1e2"/>
            </g>
          </g>
          <g id="Group_9616" data-name="Group 9616" transform="translate(80.201 18.092)">
            <g id="Group_9614" data-name="Group 9614" transform="translate(0 0)">
              <circle id="Ellipse_194" data-name="Ellipse 194" cx="2.424" cy="2.424" r="2.424" transform="matrix(0.968, -0.251, 0.251, 0.968, 0, 1.219)" fill="#13b1e2"/>
            </g>
            <g id="Group_9615" data-name="Group 9615" transform="translate(24.259 14.253)">
              <circle id="Ellipse_195" data-name="Ellipse 195" cx="2.424" cy="2.424" r="2.424" transform="translate(0 1.219) rotate(-14.564)" fill="#13b1e2"/>
            </g>
          </g>
          <g id="Group_9618" data-name="Group 9618" transform="translate(82.631 0.608)">
            <g id="Group_9617" data-name="Group 9617">
              <path id="Path_17239" data-name="Path 17239" d="M3905.641,2142.9h0a1.063,1.063,0,0,1-.377-1.456l6.572-11.187a13.442,13.442,0,0,0-4.229-18.18,13.271,13.271,0,0,0-18.489,4.506l-6.715,11.43a1.063,1.063,0,0,1-1.456.378h0a1.062,1.062,0,0,1-.378-1.455l6.569-11.181a15.571,15.571,0,0,1,20.88-5.9,15.4,15.4,0,0,1,5.793,21.24l-6.715,11.43A1.063,1.063,0,0,1,3905.641,2142.9Z" transform="translate(-3880.423 -2107.955)" fill="#42c1f4"/>
            </g>
          </g>
        </g>
        <g id="Group_9620" data-name="Group 9620" transform="translate(161.93 132.403)">
          <path id="Path_17240" data-name="Path 17240" d="M4191.6,1646.248c-6.2,12.679-11.125,25.037-19.092,31.121a85.113,85.113,0,0,1,5.8,9.424.255.255,0,0,1,.024.158c.291,3.022-25.978,16.388-25.978,16.388s-6.979,1.849-7.268,1.872l6.809,11.964a55.319,55.319,0,0,0,9.831-1.067c16-2.986,38.917-11.993,46.02-24.035a26.6,26.6,0,0,0,2.427-5.317C4214.527,1673.512,4191.6,1646.248,4191.6,1646.248Z" transform="translate(-4145.083 -1646.248)" fill="#fec9ac"/>
        </g>
      </g>
      <g id="Group_9622" data-name="Group 9622" transform="translate(0 0)">
        <circle id="Ellipse_196" data-name="Ellipse 196" cx="34.254" cy="34.254" r="34.254" fill="#e4ecf9"/>
      </g>
    </g>
    <g id="shopify-icon" transform="translate(388.45 438.681)">
      <path id="Path_16150" data-name="Path 16150" d="M513.7,720.014a.383.383,0,0,0-.338-.316c-.135-.022-3.094-.225-3.094-.225l-2.258-2.255c-.2-.225-.653-.159-.823-.113-.022,0-.45.135-1.148.362-.682-1.969-1.887-3.776-4.007-3.776h-.182a2.622,2.622,0,0,0-1.981-1.148c-4.939.022-7.293,6.183-8.033,9.33l-3.452,1.059c-1.059.338-1.1.362-1.243,1.372l-2.914,22.447,21.821,4.083,11.824-2.549c0-.022-4.152-28.058-4.173-28.272Zm-8.872-2.168c-.549.182-1.174.363-1.849.565V718a8.986,8.986,0,0,0-.449-2.991c1.106.17,1.849,1.41,2.3,2.832Zm-3.634-2.571a9.412,9.412,0,0,1,.494,3.307v.2l-3.811,1.174c.747-2.787,2.124-4.166,3.32-4.686Zm-1.462-1.371a1.161,1.161,0,0,1,.631.2c-1.591.741-3.273,2.613-4,6.358l-3.018.925c.851-2.842,2.837-7.492,6.381-7.492Z" transform="translate(-484.232 -712.545)" fill="#95bf47"/>
      <path id="Path_16151" data-name="Path 16151" d="M659.4,750.075c-.135-.022-3.094-.225-3.094-.225l-2.257-2.256a.451.451,0,0,0-.316-.135l-1.646,33.752,11.824-2.549-4.176-28.25A.406.406,0,0,0,659.4,750.075Z" transform="translate(-630.271 -742.92)" fill="#5e8e3e"/>
      <path id="Path_16152" data-name="Path 16152" d="M536.391,813.877l-1.468,4.333a6.8,6.8,0,0,0-2.843-.678c-2.3,0-2.415,1.443-2.415,1.805,0,1.973,5.164,2.73,5.164,7.379,0,3.656-2.325,6-5.444,6a7.583,7.583,0,0,1-5.664-2.325l1-3.32s1.962,1.694,3.634,1.694a1.477,1.477,0,0,0,1.529-1.424c0-.022,0-.044,0-.066,0-2.6-4.242-2.708-4.242-6.951,0-3.567,2.571-7.042,7.738-7.042a6.64,6.64,0,0,1,3,.592Z" transform="translate(-518.588 -800.183)" fill="#fff"/>
    </g>
    <g id="Group_9624" data-name="Group 9624" transform="translate(792.864 679.258)">
      <g id="Group_9623" data-name="Group 9623" transform="translate(0 0)">
        <path id="Path_17241" data-name="Path 17241" d="M3731.919,2565.269l-1.1,5.219a2.7,2.7,0,0,0,1.335,2.866l8.006,4.662a2.215,2.215,0,0,0,.218.112,2.182,2.182,0,0,0,.493.15l.12,1.731a.036.036,0,0,1-.018.038.042.042,0,0,1-.044,0l-11.134-4.922a.639.639,0,0,0-.85.3.605.605,0,0,0,.011.508,1.857,1.857,0,0,0-.548.706,2.059,2.059,0,0,0,3.76,1.662,1.855,1.855,0,0,0,.157-.7l5.464,2.415a1.837,1.837,0,0,0-.414.589,2.059,2.059,0,0,0,3.76,1.662,1.852,1.852,0,0,0,.142-.992,1.3,1.3,0,0,0,.449-.185,1.218,1.218,0,0,0,.56-1.119l-.13-1.88a1.911,1.911,0,0,0,.594-.464l5.421-6.319a.042.042,0,0,1,.027-.015l2.208-.327a.6.6,0,0,0,.514-.714.678.678,0,0,0-.761-.525l-2.208.327a1.3,1.3,0,0,0-.779.415l-.033-.014-14.36-5.622a.665.665,0,0,0-.541.021A.594.594,0,0,0,3731.919,2565.269Zm-.481,12.8a1.336,1.336,0,1,1-.709-1.7A1.3,1.3,0,0,1,3731.438,2578.065Zm8.948,3.875a1.214,1.214,0,1,1-.645-1.541A1.184,1.184,0,0,1,3740.386,2581.94Zm1.8-9,1.9-2.881,3.1,1.21-2.39,2.828Zm-2.538,4.032,2.367-3.566,2.516,1.112-2.5,2.933a.975.975,0,0,1-1.239.192Zm-.95-5.032,2.655,1.174-2.333,3.443-1.884-1.086Zm1.369-3.456,3.258,1.271-1.886,2.854-2.673-1.182Zm-4.884,1.9,2.9,1.28-1.564,3.539-2.461-1.438Zm1.064-3.406,3.146,1.228-1.293,2.926-2.827-1.25Zm-4.406,1.928,2.576,1.139-1.066,3.192-.884-.516a2.013,2.013,0,0,1-.983-2.152Zm.752-3.383,2.953,1.152-.972,2.9-2.61-1.154Z" transform="translate(-3728.25 -2564.791)" fill="#fff"/>
      </g>
    </g>
  </g>
</svg>
