<svg xmlns="http://www.w3.org/2000/svg" xmlns:xlink="http://www.w3.org/1999/xlink" width="625" height="431" viewBox="0 0 625 431">
  <defs>
    <clipPath id="clip-path">
      <rect id="Rectangle_769" data-name="Rectangle 769" width="625" height="431" transform="translate(960 180)" fill="#f1f1f1"/>
    </clipPath>
    <linearGradient id="linear-gradient" y1="0.5" x2="1" y2="0.5" gradientUnits="objectBoundingBox">
      <stop offset="0" stop-color="#57b2fd"/>
      <stop offset="1" stop-color="#497bfd"/>
    </linearGradient>
    <linearGradient id="linear-gradient-2" y1="0.5" x2="1" y2="0.5" gradientUnits="objectBoundingBox">
      <stop offset="0" stop-color="#57b3fe"/>
      <stop offset="1" stop-color="#497bfe"/>
    </linearGradient>
    <linearGradient id="linear-gradient-3" x1="-9.263" y1="0.5" x2="-8.263" y2="0.5" gradientUnits="objectBoundingBox">
      <stop offset="0" stop-color="#f7a386"/>
      <stop offset="1" stop-color="#fd6b58"/>
    </linearGradient>
    <linearGradient id="linear-gradient-4" x1="-9.506" y1="5.859" x2="-8.436" y2="5.859" xlink:href="#linear-gradient-3"/>
    <linearGradient id="linear-gradient-5" x1="-27.044" y1="0.504" x2="-28.821" y2="0.494" gradientUnits="objectBoundingBox">
      <stop offset="0" stop-color="#fde0bb"/>
      <stop offset="1" stop-color="#fc6b58"/>
    </linearGradient>
    <linearGradient id="linear-gradient-6" x1="-6.957" y1="0.5" x2="-5.957" y2="0.5" xlink:href="#linear-gradient"/>
  </defs>
  <g id="Mask_Group_26" data-name="Mask Group 26" transform="translate(-960 -180)" clip-path="url(#clip-path)">
    <g id="Sales_Marketing" data-name="Sales Marketing" transform="translate(552.783 -184.714)">
      <g id="Group_9377" data-name="Group 9377" transform="translate(481.59 376.275)">
        <g id="Group_9373" data-name="Group 9373" transform="translate(0 0)">
          <g id="Group_9368" data-name="Group 9368" transform="translate(0 16.403)">
            <path id="Path_17025" data-name="Path 17025" d="M858.756,784.718c-27,26.032-66.462,36.3-101.2,28.735-21.619-4.727-41.155-15.636-60.1-26.822s-37.9-22.858-58.993-29.317c-21.125-6.446-45.028-7.236-65.6,3.022a59.746,59.746,0,0,0-17.082,12.753c-22.589,24.051-65.112,14.187-71.832-15.539a94.24,94.24,0,0,1-.077-41.571c5.293-23.052,18.548-43.706,32.56-62.932,23.656-32.436,50.676-62.987,83.39-85.484,32.714-22.442,71.631-36.428,109.653-33.489,29.859,2.3,57.82,14.846,81.877,32.159,24.026,17.313,44.457,39.312,63.638,62.155,13.533,16.093,26.8,33.2,33.007,53.8C898.491,717.059,885.76,758.686,858.756,784.718Z" transform="translate(-481.59 -531.87)" fill="#f8f7fc"/>
            <g id="Group_9331" data-name="Group 9331" transform="translate(132.945)">
              <path id="Path_17026" data-name="Path 17026" d="M1660.84,680.035a11.759,11.759,0,0,1-11.759-11.759V533.743A11.746,11.746,0,0,1,1660.84,522h163.795a11.746,11.746,0,0,1,11.759,11.74V668.276a11.76,11.76,0,0,1-11.76,11.76Z" transform="translate(-1648.6 -521.523)" fill="#fff"/>
              <g id="Group_9330" data-name="Group 9330">
                <path id="Path_17027" data-name="Path 17027" d="M1820.911,676.8h-163.8a12.253,12.253,0,0,1-12.239-12.239V530.024a12.243,12.243,0,0,1,12.239-12.22h163.8a12.243,12.243,0,0,1,12.24,12.22V664.556A12.254,12.254,0,0,1,1820.911,676.8Zm-163.8-158.032a11.282,11.282,0,0,0-11.28,11.26V664.557a11.292,11.292,0,0,0,11.28,11.279h163.8a11.292,11.292,0,0,0,11.28-11.28V530.024a11.282,11.282,0,0,0-11.28-11.26Z" transform="translate(-1644.876 -517.804)" fill="url(#linear-gradient)"/>
              </g>
              <path id="Path_17028" data-name="Path 17028" d="M1836.369,549.477V533.683a11.756,11.756,0,0,0-11.756-11.756h-163.8a11.756,11.756,0,0,0-11.756,11.756v15.795Z" transform="translate(-1648.577 -521.456)" fill="url(#linear-gradient-2)"/>
              <path id="Path_17029" data-name="Path 17029" d="M1736.654,603.575a5.017,5.017,0,1,1-5.017-5.017A5.025,5.025,0,0,1,1736.654,603.575Z" transform="translate(-1717.279 -589.329)" fill="#fff"/>
              <path id="Path_17030" data-name="Path 17030" d="M1872.58,603.575a5.017,5.017,0,1,1-5.017-5.017A5.025,5.025,0,0,1,1872.58,603.575Z" transform="translate(-1837.671 -589.329)" fill="#fff"/>
              <path id="Path_17031" data-name="Path 17031" d="M2008.508,603.575a5.017,5.017,0,1,1-5.017-5.017A5.025,5.025,0,0,1,2008.508,603.575Z" transform="translate(-1958.064 -589.329)" fill="#fff"/>
              <rect id="Rectangle_770" data-name="Rectangle 770" width="75.212" height="8.619" rx="4.309" transform="translate(102.085 9.937)" fill="#fff"/>
            </g>
            <g id="Group_9334" data-name="Group 9334" transform="translate(179.567 43.202)">
              <rect id="Rectangle_771" data-name="Rectangle 771" width="86.863" height="70.747" rx="35.374" fill="#f8f7fc"/>
              <g id="Group_9333" data-name="Group 9333" transform="translate(9.706 10.245)">
                <path id="Path_17032" data-name="Path 17032" d="M2204.517,1003.552l-4.639,5.306a2.838,2.838,0,0,1-4.035.286l-5.433-4.7v27a4.245,4.245,0,0,1-4.226,4.226h-29.453a4.251,4.251,0,0,1-4.257-4.226v-26.934l-5.338,4.639a2.834,2.834,0,0,1-4.035-.286l-4.639-5.306a2.874,2.874,0,0,1,.286-4.067l13.726-11.915c1.176-.667,3.749-1.207,6.99-1.589,2.62-.328,4.8-.392,5.211-.413a6.945,6.945,0,0,0,13.63-.1c1.3.062,4.159.318,4.67.349,3.495.349,6.227.921,7.435,1.747v.064l.064-.064,13.757,11.915A2.933,2.933,0,0,1,2204.517,1003.552Z" transform="translate(-2137.753 -985.474)" fill="#f35170"/>
                <g id="Group_9332" data-name="Group 9332" transform="translate(21.711 0.222)">
                  <path id="Path_17033" data-name="Path 17033" d="M2349.654,987.42a10.258,10.258,0,0,1-20.334.127c-.54.032-1.081.1-1.589.159a11.853,11.853,0,0,0,23.512-.159C2350.734,987.515,2350.194,987.452,2349.654,987.42Z" transform="translate(-2327.731 -987.42)" fill="#fff"/>
                </g>
              </g>
            </g>
            <g id="Group_9366" data-name="Group 9366" transform="translate(224.822 107.605)">
              <g id="Group_9365" data-name="Group 9365" transform="translate(0)">
                <g id="Group_9356" data-name="Group 9356" transform="translate(51.788)">
                  <g id="Group_9337" data-name="Group 9337" transform="translate(41.364 86.039)">
                    <g id="Group_9336" data-name="Group 9336" transform="translate(16.98 115.822)">
                      <path id="Path_17034" data-name="Path 17034" d="M3661.329,3225.671v11.551a4.464,4.464,0,0,0,4.464,4.464H3678.4a4.464,4.464,0,0,0,4.464-4.464v-11.551Z" transform="translate(-3632.888 -3225.671)" fill="#111d33"/>
                      <g id="Group_9335" data-name="Group 9335" transform="translate(0 16.015)">
                        <rect id="Rectangle_772" data-name="Rectangle 772" width="11.087" height="42.762" transform="translate(33.664)" fill="#4c5c75"/>
                        <path id="Path_17035" data-name="Path 17035" d="M3607.616,3748.989v-3.847a5.166,5.166,0,0,1,5.166-5.166h23.479a5.166,5.166,0,0,1,5.166,5.166v3.847Z" transform="translate(-3585.314 -3697.214)" fill="#4c5c75"/>
                        <path id="Path_17036" data-name="Path 17036" d="M3412.471,3833.331v3.157h78.415v-3.157a14.49,14.49,0,0,0-14.49-14.49H3426.96A14.49,14.49,0,0,0,3412.471,3833.331Z" transform="translate(-3412.471 -3767.065)" fill="#111d33"/>
                      </g>
                    </g>
                    <path id="Path_17037" data-name="Path 17037" d="M3400.246,2219.968l-25.3,103.286a6.266,6.266,0,0,1-6.086,4.775H3263.9v-3.846a10.711,10.711,0,0,1,9.921-10.682l30.209-2.129,27.326-79.476a29.169,29.169,0,0,1,27.584-19.685h35.223A6.266,6.266,0,0,1,3400.246,2219.968Z" transform="translate(-3263.897 -2212.212)" fill="#4c5c75"/>
                  </g>
                  <g id="Group_9341" data-name="Group 9341" transform="translate(10.649 264.214)">
                    <path id="Path_17038" data-name="Path 17038" d="M3230.058,3771.262l13.864.613-1.953,15.271-13.385-1.712A30.735,30.735,0,0,0,3230.058,3771.262Z" transform="translate(-3201.906 -3771.262)" fill="#f6a285"/>
                    <path id="Path_17039" data-name="Path 17039" d="M2995.146,3812.665a1.007,1.007,0,0,0,.877,1.061l38.5,4.925a1,1,0,0,0,1.123-.868l1.477-11.539a3.012,3.012,0,0,0-4.008-3.128c-.192-.006-5.642,2.806-8.23-2.276-.421-.834-.58-2.395-2.593-2.652-1.805-.231-8.113,4.72-12.454,5.515a5.093,5.093,0,0,1-1.3.128c-2.917-.119-7.994-.326-11.019,2.873A9.733,9.733,0,0,0,2995.146,3812.665Z" transform="translate(-2995.142 -3795.104)" fill="#ffd375"/>
                    <path id="Path_17040" data-name="Path 17040" d="M2995.844,3898.674a12.205,12.205,0,0,0-.617,3,1,1,0,0,0,.872,1.059l38.494,4.925a.992.992,0,0,0,1.11-.859l.381-2.977Z" transform="translate(-2995.215 -3884.113)" fill="#df8236"/>
                    <path id="Path_17041" data-name="Path 17041" d="M3272.063,3870.934a2.823,2.823,0,1,1-2.442-3.158A2.824,2.824,0,0,1,3272.063,3870.934Z" transform="translate(-3235.434 -3856.725)" fill="#df8236"/>
                    <g id="Group_9338" data-name="Group 9338" transform="translate(22.908 3.402)">
                      <path id="Path_17042" data-name="Path 17042" d="M3198.133,3804.8a.732.732,0,0,0,.256-1l-1.433-2.412a.733.733,0,0,0-1.259.75l1.433,2.412A.733.733,0,0,0,3198.133,3804.8Z" transform="translate(-3195.594 -3801.027)" fill="#df8236"/>
                    </g>
                    <g id="Group_9339" data-name="Group 9339" transform="translate(20.024 4.808)">
                      <path id="Path_17043" data-name="Path 17043" d="M3172.891,3817.109a.732.732,0,0,0,.256-1l-1.432-2.412a.733.733,0,0,0-1.26.749l1.432,2.412A.733.733,0,0,0,3172.891,3817.109Z" transform="translate(-3170.353 -3813.336)" fill="#df8236"/>
                    </g>
                    <g id="Group_9340" data-name="Group 9340" transform="translate(17.22 6.353)">
                      <path id="Path_17044" data-name="Path 17044" d="M3148.355,3830.628a.732.732,0,0,0,.256-1l-1.433-2.412a.733.733,0,0,0-1.26.75l1.433,2.412A.734.734,0,0,0,3148.355,3830.628Z" transform="translate(-3145.816 -3826.856)" fill="#df8236"/>
                    </g>
                    <path id="Path_17045" data-name="Path 17045" d="M3015.871,3849.505a8.263,8.263,0,0,0,12.323-3,5.1,5.1,0,0,1-1.3.128C3023.974,3846.513,3018.9,3846.307,3015.871,3849.505Z" transform="translate(-3013.502 -3837.905)" fill="#df8236"/>
                  </g>
                  <g id="Group_9345" data-name="Group 9345" transform="translate(58.051 263.684)">
                    <path id="Path_17046" data-name="Path 17046" d="M3632.338,3767.97l13.813-1.343.213,15.395-13.492.188A30.74,30.74,0,0,0,3632.338,3767.97Z" transform="translate(-3606.918 -3766.626)" fill="#f6a285"/>
                    <path id="Path_17047" data-name="Path 17047" d="M3409.933,3824.484a1.007,1.007,0,0,0,1.017.928l38.806-.539a1,1,0,0,0,.99-1.018l-.161-11.631a3.012,3.012,0,0,0-4.408-2.533c-.192.021-5.191,3.571-8.469-1.1-.534-.767-.911-2.289-2.94-2.261-1.82.025-7.368,5.814-11.554,7.211a5.1,5.1,0,0,1-1.272.31c-2.9.292-7.961.8-10.506,4.394A9.735,9.735,0,0,0,3409.933,3824.484Z" transform="translate(-3409.913 -3801.795)" fill="#ffd375"/>
                    <path id="Path_17048" data-name="Path 17048" d="M3410.187,3934.029a12.205,12.205,0,0,0-.189,3.058,1,1,0,0,0,1.013.925l38.8-.539a.993.993,0,0,0,.978-1.006l-.042-3Z" transform="translate(-3409.968 -3914.399)" fill="#df8236"/>
                    <path id="Path_17049" data-name="Path 17049" d="M3679.5,3869.463a2.823,2.823,0,1,1-2.862-2.784A2.824,2.824,0,0,1,3679.5,3869.463Z" transform="translate(-3643.686 -3855.245)" fill="#df8236"/>
                    <g id="Group_9342" data-name="Group 9342" transform="translate(20.802 5.338)">
                      <path id="Path_17050" data-name="Path 17050" d="M3594.879,3816.828a.732.732,0,0,0,.113-1.029l-1.758-2.187a.733.733,0,0,0-1.141.919l1.758,2.187A.733.733,0,0,0,3594.879,3816.828Z" transform="translate(-3591.931 -3813.339)" fill="#df8236"/>
                    </g>
                    <g id="Group_9343" data-name="Group 9343" transform="translate(18.144 7.137)">
                      <path id="Path_17051" data-name="Path 17051" d="M3571.621,3832.563a.732.732,0,0,0,.112-1.029l-1.757-2.187a.733.733,0,0,0-1.142.919l1.757,2.187A.734.734,0,0,0,3571.621,3832.563Z" transform="translate(-3568.673 -3829.074)" fill="#df8236"/>
                    </g>
                    <g id="Group_9344" data-name="Group 9344" transform="translate(15.585 9.061)">
                      <path id="Path_17052" data-name="Path 17052" d="M3549.23,3849.4a.732.732,0,0,0,.112-1.029l-1.758-2.187a.733.733,0,0,0-1.142.919l1.758,2.187A.734.734,0,0,0,3549.23,3849.4Z" transform="translate(-3546.281 -3845.912)" fill="#df8236"/>
                    </g>
                    <path id="Path_17053" data-name="Path 17053" d="M3423.246,3874.145a8.148,8.148,0,0,0,4.031.99,8.238,8.238,0,0,0,7.747-5.694,5.1,5.1,0,0,1-1.272.31C3430.847,3870.043,3425.791,3870.552,3423.246,3874.145Z" transform="translate(-3421.722 -3857.691)" fill="#df8236"/>
                  </g>
                  <g id="Group_9346" data-name="Group 9346" transform="translate(33.041 154.053)">
                    <path id="Path_17054" data-name="Path 17054" d="M3278.067,2850.229h-57.416l-7.4,68.083c0,1.161-3.882,1.792-8,1.858-4.645.1-9.605-.531-9.605-1.858,0,0-12.608-72.877,4.031-92.9,9.8-11.778,70.157-18.066,70.157-18.066l1.493,7.8Z" transform="translate(-3191.074 -2807.346)" fill="#8eb6ff"/>
                    <path id="Path_17055" data-name="Path 17055" d="M3387.859,2910.657h-57.416l-7.4,68.083c0,1.161-3.882,1.792-8,1.858a50.605,50.605,0,0,1,.265-5.923q2.613-30.782,5.243-61.58c.381-4.512.813-9.174,3.019-13.122,2.671-4.761,7.615-7.88,12.774-9.672,5.143-1.808,10.6-2.488,15.942-3.616a96.271,96.271,0,0,0,23.258-8.112c1.892-.946,3.75-1.941,5.575-3Z" transform="translate(-3300.866 -2867.774)" fill="#497bfd"/>
                    <path id="Path_17056" data-name="Path 17056" d="M3604.574,2881.866c-5.906,7.515-38.321,5.043-38.321,5.043l-4.031,68.382c.066,1.128-3.434,1.924-7.316,2.24-4.794.415-10.2.066-10.269-1.311,0,0-19.691-74.453-4.131-95.323,6.968-9.357,44.161-11.181,59.606-12.027,2.041-.116,3.7-.2,4.861-.3C3604.972,2848.571,3611.459,2873.106,3604.574,2881.866Z" transform="translate(-3495.269 -2843.859)" fill="#8eb6ff"/>
                    <path id="Path_17057" data-name="Path 17057" d="M3762.471,2881.866c-5.905,7.515-38.321,5.043-38.321,5.043l-4.031,68.382c.066,1.128-3.434,1.924-7.316,2.24-.149-3.732,1.062-7.714,2.024-11.43a80.431,80.431,0,0,0,1.36-33.809c-1.576-8.928-5.651-21.082.846-29.994,9.138-12.424,30.415-6.841,39.316-19.426,2.854-4.015,2.24-7.548,1.626-12.027a6.023,6.023,0,0,1,.033-1.974c2.041-.116,3.7-.2,4.861-.3C3762.87,2848.571,3769.356,2873.106,3762.471,2881.866Z" transform="translate(-3653.166 -2843.859)" fill="#497bfd"/>
                  </g>
                  <g id="Group_9353" data-name="Group 9353" transform="translate(0 41.067)">
                    <g id="Group_9350" data-name="Group 9350">
                      <g id="Group_9349" data-name="Group 9349">
                        <path id="Path_17058" data-name="Path 17058" d="M3086.44,1972.66s15.808,29.917,25.628,32.295c4.108,1,17.855-4.053,17.855-4.053l-5.56-17.592-8.575,1.95-.36.082-21.466-22.419Z" transform="translate(-3065.338 -1946.441)" fill="#f7a386"/>
                        <path id="Path_17059" data-name="Path 17059" d="M3086.611,2037.187s15.809,29.917,25.628,32.295c4.108,1,17.856-4.052,17.856-4.052l-5.56-17.592-8.575,1.95c.869,3.087,1.212,3.9.138,8.837a14.576,14.576,0,0,1-1.231,3.9,4.857,4.857,0,0,1-3.056,2.545,5.062,5.062,0,0,1-4.883-2.2,19.406,19.406,0,0,1-2.337-5.131,45.8,45.8,0,0,0-16.887-21.964Z" transform="translate(-3065.508 -2010.968)" fill="url(#linear-gradient-3)"/>
                        <g id="Group_9348" data-name="Group 9348">
                          <path id="Path_17060" data-name="Path 17060" d="M2923.061,1844.922a11.333,11.333,0,0,0-4.023-4.184,17.151,17.151,0,0,1-4-1.865h-.013c-1.061-.7-1.98-1.449-3.339-2.355-3.054-2.006-.66-4.012-.66-4.012-3.429-2.627.375-3.869.375-3.869-3.831-2.692.583-4.167.583-4.167-8.18-2.433-10.988-3.9-9.745-5.267,1.527-1.657,12.294,1.087,18.442,4.232s9.906,11.815,9.906,11.815Z" transform="translate(-2901.958 -1818.703)" fill="#f7a386"/>
                          <g id="Group_9347" data-name="Group 9347" transform="translate(12.894 3.486)">
                            <path id="Path_17061" data-name="Path 17061" d="M3023.487,1862.034c-4.711-3.229-1.578-6.391-1.578-6.391-3.114-1.347-7.135-2.508-6.419-4.752.873-2.732,9.269,1.1,12.232,3.816,1.788,1.639,2.872,3.994,3.349,8.212" transform="translate(-3015.335 -1849.867)" fill="#f7a386"/>
                            <path id="Path_17062" data-name="Path 17062" d="M3022.935,1861.375a6.008,6.008,0,0,1-2.448-2.848,3.666,3.666,0,0,1,.843-3.569l.012.06c-2.585-1.1-6.26-2.207-6.541-4.045a1.45,1.45,0,0,1,.979-1.618,4.185,4.185,0,0,1,1.989-.052c2.928.523,7.964,2.934,10.253,5.594,1.678,2.082,2.2,4.788,2.5,7.364-.323-2.573-.874-5.271-2.557-7.315-2.278-2.6-7.265-4.94-10.223-5.456a4.022,4.022,0,0,0-1.9.027,1.284,1.284,0,0,0-.884,1.434c.3,2.211,6.568,3.754,6.439,4.048l-.008.011a3.611,3.611,0,0,0-.861,3.505A6,6,0,0,0,3022.935,1861.375Z" transform="translate(-3014.783 -1849.208)" fill="#e27659"/>
                          </g>
                        </g>
                      </g>
                      <path id="Path_17063" data-name="Path 17063" d="M3361.491,2020.974l28.077-7.234,5.311-33.512-.028.014-3.278,1.507-34.272,15.7C3355.144,1999.329,3359.721,2021.293,3361.491,2020.974Z" transform="translate(-3304.761 -1961.769)" fill="#6eb854"/>
                      <path id="Path_17064" data-name="Path 17064" d="M3492.756,2018.3l17.289-4.454,5.283-33.5-3.278,1.507a80.423,80.423,0,0,0-7.468,4.578C3497.832,1992.537,3494.416,2004.418,3492.756,2018.3Z" transform="translate(-3425.237 -1961.879)" fill="#438829"/>
                    </g>
                    <path id="Path_17065" data-name="Path 17065" d="M3599.877,1957.078a36.935,36.935,0,0,1-2.239,12.123c-4.48,12.692-7.736,17.765-8.833,33.14-.014.213-.1,2.048-.1,2.659-.15,5.889,10.411,31.022,2.479,29.144-33.815-7.977-56.093,10.561-70.2-3.515-2.8-2.8,5.081-14.154,5.123-18.357.2-41.537-7.361-60.165,3.065-73.73,4.071-5.273,10.425-8.458,20.535-11.823.421-.15.856-.285,1.292-.436.18-.075.375-.12.571-.2a34.792,34.792,0,0,1,8.638-1.923,31.126,31.126,0,0,1,10.951,2.1c.12.045.255.105.406.15.541.2,1.1.406,1.652.631a57.643,57.643,0,0,1,9.72,5.033C3592.065,1937.97,3599.877,1946.728,3599.877,1957.078Z" transform="translate(-3449.702 -1912.101)" fill="#6eb854"/>
                    <path id="Path_17066" data-name="Path 17066" d="M3667.806,1981.661h-1.273c3.055-8.214,6.175-14.507,6.175-22.589,0-10.347-7.814-19.116-16.941-25.006a56.359,56.359,0,0,0-11.374-5.663c-.144-.048-.263-.108-.406-.155a31.365,31.365,0,0,0-10.956-2.1,34.979,34.979,0,0,0-8.626,1.923c-.191.072-.394.131-.585.2-8.673,2.82-14.707,5.448-18.937,9.2,4.253-4.874,10.8-7.909,20.944-11.219.2-.059.394-.119.585-.191a35.007,35.007,0,0,1,8.626-1.924,31.114,31.114,0,0,1,10.956,2.1c.144.047.263.1.407.155a57.352,57.352,0,0,1,11.385,5.651c9.127,5.9,16.941,14.671,16.941,25.006a36.785,36.785,0,0,1-2.246,12.139C3670.44,1975.03,3669.416,1977.017,3667.806,1981.661Z" transform="translate(-3524.55 -1912.079)" fill="#438829"/>
                    <g id="Group_9352" data-name="Group 9352" transform="translate(68.266 32.931)">
                      <g id="Group_9351" data-name="Group 9351" transform="translate(0 24.336)">
                        <path id="Path_17067" data-name="Path 17067" d="M3504.743,2354.117c-.152.469-3.01,1.146-2.8,2.124s2.983,1.258,4.781.523c-.151.469-3.376.847-3.08,1.833.463,1.538,6.213,1.533,7.683,1.66,1.6.172,4.154-.146,7.861-2.142,0,0,47,3.615,58.7-5.243,8.9-6.762,3.751-25.8,3.751-25.8l-26.322-7.271,1.526,11.628.772,5.85-40.336,9.136c-2.68-1.761-10.242-6.84-11.646-4.465-1.023,1.732,4.976,4.809,1.522,5.182,0,0-8.767,1.865-7.778,4.126.449,1.028,4.268.612,5.041.275-.144.48-4.395.831-3.848,2.164C3501.153,2355.126,3503.97,2354.454,3504.743,2354.117Z" transform="translate(-3499.295 -2319.798)" fill="#f7a386"/>
                        <path id="Path_17068" data-name="Path 17068" d="M3604.546,2360.257c1.6.172,4.154-.146,7.861-2.142,0,0,47,3.615,58.7-5.243,8.9-6.762,3.751-25.8,3.751-25.8l-26.322-7.271,1.526,11.628a16.306,16.306,0,0,0,10.16,3.647c2.854-.021,5.988-.714,8.343.9,3.024,2.065,2.7,6.953.264,9.677s-6.173,3.807-9.737,4.606a251.518,251.518,0,0,1-26.585,3.978q-10.789,1.212-21.562,2.447a11.475,11.475,0,0,0-4.238,1.036A4.324,4.324,0,0,0,3604.546,2360.257Z" transform="translate(-3592.517 -2319.798)" fill="url(#linear-gradient-4)"/>
                      </g>
                      <path id="Path_17069" data-name="Path 17069" d="M3963.455,2111.232l20.361-4.342c2.346,3.766,7.819,13.063,6.247,35.983-.519,7.558-22.553,1.971-28.623-3.058C3956.841,2136.006,3956.084,2120.339,3963.455,2111.232Z" transform="translate(-3905.53 -2106.887)" fill="#6eb854"/>
                      <path id="Path_17070" data-name="Path 17070" d="M4167.175,2142.847c-.157,2.3-2.3,3.4-5.411,3.634a3.459,3.459,0,0,0,2.4-3.006c1.568-22.923-3.895-32.228-6.247-35.992l3.006-.628C4163.28,2110.619,4168.743,2119.924,4167.175,2142.847Z" transform="translate(-4082.652 -2106.855)" fill="#438829"/>
                    </g>
                  </g>
                  <g id="Group_9355" data-name="Group 9355" transform="translate(86.678)">
                    <g id="Group_9354" data-name="Group 9354">
                      <path id="Path_17071" data-name="Path 17071" d="M3800.474,1927.048v.09l-17.441,18.252-6.069-18.673c.42-.15.856-.285,1.292-.436.18-.075.375-.12.571-.2a34.8,34.8,0,0,1,8.638-1.923,31.127,31.127,0,0,1,10.952,2.1c.12.045.255.105.406.15C3799.362,1926.613,3799.918,1926.823,3800.474,1927.048Z" transform="translate(-3763.643 -1871.034)" fill="#438829"/>
                      <path id="Path_17072" data-name="Path 17072" d="M3819.3,1733.88v23.533l-13.137,13.736-4.556-14.04V1733.88Z" transform="translate(-3785.471 -1702.507)" fill="#f6a285"/>
                      <path id="Path_17073" data-name="Path 17073" d="M3728.193,1613.109a14.672,14.672,0,0,0,2.137-1.7v-4.626a16.749,16.749,0,0,0,3.024-5.161c.689-2.179.463-4.472-2.588-5.625l-1.181-10.069c-11.937-.513-23.127-.438-27.31,5.162C3702.275,1591.088,3692.957,1636.939,3728.193,1613.109Z" transform="translate(-3696.502 -1571.284)" fill="url(#linear-gradient-5)"/>
                      <path id="Path_17074" data-name="Path 17074" d="M3665.753,1481.7c3.789.332,4.9-5.661,14.556-4.452,1.38.171,2.3.835,2.365,2.825.128,3.618,2.237,4.217,4.141,5.03s-.577,6.893,1.231,7.514c.942.331,2.151-3.382,2.151-3.382s1.466-5.983,4.751-4.966c2.88.9,1.9,6.09.343,9.215.225-.332,1.316-2.012,2.558-4.324.236-.438.472-.909.718-1.391a32.606,32.606,0,0,0,3.114-8.755c.032-.2.064-.4.085-.6v-.011c.011-.011.011-.011.011-.021a14.37,14.37,0,0,0,.107-1.627c0-3.607-1.755-6.5-7.042-6.978.1-.214,3.521-11.976-14.931-10.232-10.531,1-16.931,3.617-18.847,7.781a6.5,6.5,0,0,0-.578,2.108C3659.857,1475.643,3662.939,1481.455,3665.753,1481.7Z" transform="translate(-3660.405 -1459.369)" fill="#894852"/>
                      <path id="Path_17075" data-name="Path 17075" d="M3660.418,1471.591c.011-.353.043-.718.075-1.081a6.513,6.513,0,0,1,.578-2.109c1.916-4.163,8.316-6.785,18.847-7.781,12.672-1.2,15.027,3.981,15.22,7.406.2-3.254-1.113-9.826-15.22-8.487-10.531,1-16.931,3.617-18.847,7.781a6.516,6.516,0,0,0-.578,2.109A16.457,16.457,0,0,0,3660.418,1471.591Z" transform="translate(-3660.41 -1459.362)" fill="#fff" opacity="0.3"/>
                      <path id="Path_17076" data-name="Path 17076" d="M3772.131,1684.089a13.467,13.467,0,0,1,3.633,1.683c.209.12.489.235.672.078a.541.541,0,0,0,.121-.479,3.877,3.877,0,0,0-1.565-2.476c-3.352-2.7-8.35-1.712-7.934.445C3767.369,1684.971,3769.248,1683.44,3772.131,1684.089Z" transform="translate(-3754.847 -1655.9)" fill="#894852"/>
                      <path id="Path_17077" data-name="Path 17077" d="M3695.286,1678.525a7.08,7.08,0,0,0-5.026-.772,1.214,1.214,0,0,0-.967,1.249h0a1.212,1.212,0,0,0,1.312,1.142c.143-.011.287-.017.431-.018,2.94-.018,4.442,1.875,5.1.355A1.633,1.633,0,0,0,3695.286,1678.525Z" transform="translate(-3685.99 -1652.659)" fill="#894852"/>
                      <path id="Path_17078" data-name="Path 17078" d="M3740.335,1766.018a1.493,1.493,0,0,0,1.813-.055,3.338,3.338,0,0,0,1.139-1.557c.036-.119-.046-.228-.137-.182a2.672,2.672,0,0,1-2.322.893c-.346-.073-.729-.966-1.029-.82C3739.4,1764.5,3739.751,1765.5,3740.335,1766.018Z" transform="translate(-3730.573 -1729.373)" fill="#e17659"/>
                      <path id="Path_17079" data-name="Path 17079" d="M3936.632,1702.009c.552-2.325,2.433-3.539,4.282-2.518a.157.157,0,0,1-.151.276c-1.738-.951-3.311.275-3.807,2.261a1.346,1.346,0,0,1,.631-.292,1.826,1.826,0,0,1,.808.086,1.126,1.126,0,0,1,.445.232.571.571,0,0,1,.173.546.158.158,0,0,1-.186.111l-.008,0a.158.158,0,0,1-.11-.193.256.256,0,0,0-.086-.234.823.823,0,0,0-.322-.16,1.5,1.5,0,0,0-.668-.076,1.057,1.057,0,0,0-.741.489c-.006.01-.02,0-.027.012a13.45,13.45,0,0,0-.154,1.7.156.156,0,0,1-.163.152l-.028,0a.156.156,0,0,1-.124-.159" transform="translate(-3904.855 -1671.725)" fill="#e17659"/>
                      <path id="Path_17080" data-name="Path 17080" d="M3789.939,1724.235a.978.978,0,1,1-.981-.973A.976.976,0,0,1,3789.939,1724.235Z" transform="translate(-3773.404 -1693.102)" fill="#111d33"/>
                      <path id="Path_17081" data-name="Path 17081" d="M3779.186,1722.237c.655-.193,1.313-.378,1.958-.594l-.193-.007c.468.266.909.586,1.384.839a4.474,4.474,0,0,0,1.589.428.038.038,0,0,0,.041-.035.039.039,0,0,0-.009-.028,4.49,4.49,0,0,0-1.294-1.016c-.228-.107-1.416-.576-1.526-.617-.163-.071-.319.068-1.976.966a.035.035,0,0,0-.014.048A.035.035,0,0,0,3779.186,1722.237Z" transform="translate(-3765.571 -1691.268)" fill="#111d33"/>
                      <path id="Path_17082" data-name="Path 17082" d="M3713.024,1723.077a.978.978,0,1,1-.981-.974A.976.976,0,0,1,3713.024,1723.077Z" transform="translate(-3705.279 -1692.076)" fill="#111d33"/>
                      <path id="Path_17083" data-name="Path 17083" d="M3715.67,1730.395a.255.255,0,1,1-.256-.254A.255.255,0,0,1,3715.67,1730.395Z" transform="translate(-3708.902 -1699.195)" fill="#fbfbfb"/>
                      <path id="Path_17084" data-name="Path 17084" d="M3791.54,1730.411a.255.255,0,0,1-.511,0A.255.255,0,0,1,3791.54,1730.411Z" transform="translate(-3776.101 -1699.212)" fill="#fbfbfb"/>
                      <path id="Path_17085" data-name="Path 17085" d="M3702.271,1721.082c.655-.193,1.313-.377,1.959-.594l-.194-.007a6.228,6.228,0,0,0,2.973,1.267.038.038,0,0,0,.031-.063,6.188,6.188,0,0,0-2.794-1.622l-.026-.011a.2.2,0,0,0-.168,0c-.61.3-1.207.636-1.807.961a.036.036,0,0,0-.014.048A.035.035,0,0,0,3702.271,1721.082Z" transform="translate(-3697.446 -1690.245)" fill="#111d33"/>
                      <path id="Path_17086" data-name="Path 17086" d="M3665.753,1543.37c3.789.332,4.9-5.661,14.556-4.452,1.38.171,2.3.835,2.365,2.825.128,3.617,2.237,4.217,4.141,5.03s-.577,6.893,1.231,7.514c.942.331,2.151-3.382,2.151-3.382s1.466-5.983,4.751-4.966c2.88.9,1.9,6.09.343,9.215.225-.332,1.316-2.012,2.558-4.324.043-1.584,1.285-3.05,1.028-4.634-.268-1.605-2.033-2.569-3.671-2.643a25.748,25.748,0,0,0-4.827.717c-1.605.246-3.457.1-4.57-1.1-1.285-1.381-1.092-3.575-1.895-5.287-1.07-2.269-3.778-3.382-6.293-3.339s-4.9.974-7.267,1.8c-1.852.643-3.906,1.21-5.737.5a6,6,0,0,1-3.382-4.292,27.415,27.415,0,0,1-.171-3.553,6.5,6.5,0,0,0-.578,2.109C3659.857,1537.313,3662.939,1543.124,3665.753,1543.37Z" transform="translate(-3660.405 -1521.039)" fill="#51383c"/>
                      <path id="Path_17087" data-name="Path 17087" d="M3927,1552.238a7.929,7.929,0,0,1,7-.578c3.478,1.573,3.874,7.063,3.9,7.4.011-.011.011-.011.011-.021a14.372,14.372,0,0,0,.107-1.627c0-3.606-1.755-6.5-7.042-6.978A5.834,5.834,0,0,0,3927,1552.238Z" transform="translate(-3896.535 -1540.02)" fill="#51383c"/>
                      <path id="Path_17088" data-name="Path 17088" d="M3734,1809.269a6.263,6.263,0,0,1-4.847-.013.308.308,0,0,0-.407.389,3,3,0,0,0,2.459,2.277c1.431.1,2.565-1.279,3.155-2.2A.307.307,0,0,0,3734,1809.269Z" transform="translate(-3720.917 -1769.245)" fill="#e17659"/>
                    </g>
                  </g>
                </g>
                <g id="Group_9359" data-name="Group 9359" transform="translate(0 138.834)">
                  <rect id="Rectangle_773" data-name="Rectangle 773" width="251.561" height="18.741" rx="9.37" fill="#be7d5a"/>
                  <path id="Path_17089" data-name="Path 17089" d="M4062.255,2677.009v13.07a2.836,2.836,0,0,1-2.836,2.836h-70.75a2.251,2.251,0,0,1-2.25-2.251v-14.24a2.251,2.251,0,0,1,2.25-2.25h70.75A2.836,2.836,0,0,1,4062.255,2677.009Z" transform="translate(-3810.694 -2674.173)" fill="#a96256"/>
                  <g id="Group_9357" data-name="Group 9357" transform="translate(226.331 18.741)">
                    <rect id="Rectangle_774" data-name="Rectangle 774" width="11.513" height="130.195" fill="#be7d5a"/>
                    <rect id="Rectangle_775" data-name="Rectangle 775" width="4.852" height="130.195" fill="#a96256"/>
                  </g>
                  <g id="Group_9358" data-name="Group 9358" transform="translate(191.545 18.741)">
                    <rect id="Rectangle_776" data-name="Rectangle 776" width="11.513" height="130.195" fill="#be7d5a"/>
                    <rect id="Rectangle_777" data-name="Rectangle 777" width="4.852" height="130.195" fill="#a96256"/>
                  </g>
                </g>
                <g id="Group_9362" data-name="Group 9362" transform="translate(10.931 81.161)">
                  <g id="Group_9360" data-name="Group 9360">
                    <path id="Path_17090" data-name="Path 17090" d="M2566.645,2221.7l-21.8-46.39a4.025,4.025,0,0,1,3.626-5.743h78.6a6.606,6.606,0,0,1,5.977,3.8l25.307,53.864h-83.016A9.612,9.612,0,0,1,2566.645,2221.7Z" transform="translate(-2544.461 -2169.566)" fill="#fff"/>
                    <path id="Path_17091" data-name="Path 17091" d="M2709.01,2562.806l3.377,7.191a9.612,9.612,0,0,0,8.7,5.536H2804.1l-5.858-12.474c-12.142,4.859-27.545,7.753-44.3,7.753C2736.888,2570.812,2721.243,2567.814,2709.01,2562.806Z" transform="translate(-2690.204 -2517.861)" fill="#cfcdf1"/>
                    <path id="Path_17092" data-name="Path 17092" d="M3267.371,2169.533a6.609,6.609,0,0,1,5.98,3.806l25.3,53.865h41.726v-1.327a6.821,6.821,0,0,0-6.8-6.83H3299.51l-21.47-45.708a6.608,6.608,0,0,0-5.979-3.806Z" transform="translate(-3184.754 -2169.533)" fill="url(#linear-gradient-6)"/>
                  </g>
                  <g id="Group_9361" data-name="Group 9361" transform="translate(46.354 22.256)">
                    <path id="Path_17093" data-name="Path 17093" d="M2950.369,2370.65a9.781,9.781,0,0,0,8.758,6.37c3.71,0,5.8-2.855,4.668-6.37a9.782,9.782,0,0,0-8.76-6.376C2951.325,2364.274,2949.239,2367.129,2950.369,2370.65Z" transform="translate(-2950.062 -2364.274)" fill="#f2f0fb"/>
                    <path id="Path_17094" data-name="Path 17094" d="M2977.352,2392.458a5.463,5.463,0,0,0,4.891,3.557,2.568,2.568,0,0,0,2.607-3.557,5.463,5.463,0,0,0-4.892-3.561A2.568,2.568,0,0,0,2977.352,2392.458Z" transform="translate(-2974.081 -2386.083)" fill="#cfcdf1"/>
                  </g>
                </g>
                <g id="Group_9363" data-name="Group 9363" transform="translate(49.962 157.574)">
                  <rect id="Rectangle_778" data-name="Rectangle 778" width="11.513" height="130.195" fill="#be7d5a"/>
                  <rect id="Rectangle_779" data-name="Rectangle 779" width="4.852" height="130.195" fill="#a96256"/>
                </g>
                <g id="Group_9364" data-name="Group 9364" transform="translate(16.904 157.574)">
                  <rect id="Rectangle_780" data-name="Rectangle 780" width="11.513" height="130.195" fill="#be7d5a"/>
                  <rect id="Rectangle_781" data-name="Rectangle 781" width="4.852" height="130.195" fill="#a96256"/>
                </g>
              </g>
            </g>
            <rect id="Rectangle_782" data-name="Rectangle 782" width="60.223" height="4.733" rx="2.366" transform="translate(193.727 122.927)" fill="#f8f7fc"/>
            <g id="Group_9367" data-name="Group 9367" transform="translate(190.288 134.746)">
              <path id="Path_17095" data-name="Path 17095" d="M2154.168,1697.58l1.248,2.529,2.791.405a1.321,1.321,0,0,1,.732,2.253l-2.019,1.968.477,2.779a1.321,1.321,0,0,1-1.916,1.392l-2.5-1.312-2.5,1.312a1.321,1.321,0,0,1-1.916-1.392l.477-2.779-2.019-1.968a1.321,1.321,0,0,1,.732-2.253l2.791-.405,1.248-2.529A1.32,1.32,0,0,1,2154.168,1697.58Z" transform="translate(-2146.63 -1696.844)" fill="#ffd475"/>
              <path id="Path_17096" data-name="Path 17096" d="M2312.816,1697.58l1.248,2.529,2.79.405a1.321,1.321,0,0,1,.732,2.253l-2.019,1.968.477,2.779a1.321,1.321,0,0,1-1.916,1.392l-2.5-1.312-2.5,1.312a1.321,1.321,0,0,1-1.916-1.392l.477-2.779-2.02-1.968a1.321,1.321,0,0,1,.732-2.253l2.79-.405,1.248-2.529A1.32,1.32,0,0,1,2312.816,1697.58Z" transform="translate(-2287.146 -1696.844)" fill="#ffd475"/>
              <path id="Path_17097" data-name="Path 17097" d="M2471.465,1697.58l1.248,2.529,2.79.405a1.321,1.321,0,0,1,.732,2.253l-2.019,1.968.477,2.779a1.321,1.321,0,0,1-1.916,1.392l-2.5-1.312-2.5,1.312a1.321,1.321,0,0,1-1.916-1.392l.477-2.779-2.019-1.968a1.321,1.321,0,0,1,.732-2.253l2.79-.405,1.248-2.529A1.32,1.32,0,0,1,2471.465,1697.58Z" transform="translate(-2427.664 -1696.844)" fill="#ffd475"/>
              <path id="Path_17098" data-name="Path 17098" d="M2630.113,1697.58l1.248,2.529,2.791.405a1.321,1.321,0,0,1,.732,2.253l-2.019,1.968.476,2.779a1.32,1.32,0,0,1-1.916,1.392l-2.5-1.312-2.5,1.312a1.321,1.321,0,0,1-1.916-1.392l.477-2.779-2.019-1.968a1.321,1.321,0,0,1,.732-2.253l2.791-.405,1.248-2.529A1.32,1.32,0,0,1,2630.113,1697.58Z" transform="translate(-2568.181 -1696.844)" fill="#ffd475"/>
            </g>
            <path id="Path_17099" data-name="Path 17099" d="M2722.93,843.816a9.274,9.274,0,1,1-9.267-9.282A9.273,9.273,0,0,1,2722.93,843.816Z" transform="translate(-2450.352 -798.337)" fill="#6eb854"/>
            <rect id="Rectangle_783" data-name="Rectangle 783" width="2.162" height="10.491" rx="1.081" transform="translate(262.223 40.234)" fill="#fff"/>
            <path id="Path_17100" data-name="Path 17100" d="M2749.045,908.454h-8.328a1.081,1.081,0,0,1-1.081-1.081h0a1.081,1.081,0,0,1,1.081-1.081h8.328a1.081,1.081,0,0,1,1.082,1.081h0A1.081,1.081,0,0,1,2749.045,908.454Z" transform="translate(-2481.577 -861.894)" fill="#fff"/>
          </g>
          <g id="Group_9370" data-name="Group 9370" transform="translate(382.543 62.963)">
            <path id="Path_17101" data-name="Path 17101" d="M3888.939,927.908v27.645a2.7,2.7,0,0,1-2.7,2.7h-34.2l-12.542,8.711a1.367,1.367,0,0,1-2.147-1.123V958.25h-5.776a2.7,2.7,0,0,1-2.7-2.7V927.908a2.7,2.7,0,0,1,2.7-2.7h54.663A2.7,2.7,0,0,1,3888.939,927.908Z" transform="translate(-3828.883 -925.211)" fill="#be7d5a"/>
            <g id="Group_9369" data-name="Group 9369" transform="translate(10.556 11.241)">
              <path id="Path_17102" data-name="Path 17102" d="M3930.578,1028.225a4.666,4.666,0,1,1-4.676-4.655A4.683,4.683,0,0,1,3930.578,1028.225Z" transform="translate(-3921.247 -1023.57)" fill="#fff"/>
              <path id="Path_17103" data-name="Path 17103" d="M4060.143,1028.225a4.666,4.666,0,1,1-4.676-4.655A4.683,4.683,0,0,1,4060.143,1028.225Z" transform="translate(-4036.004 -1023.57)" fill="#fff"/>
              <path id="Path_17104" data-name="Path 17104" d="M4189.708,1028.225a4.665,4.665,0,1,1-4.675-4.655A4.683,4.683,0,0,1,4189.708,1028.225Z" transform="translate(-4150.763 -1023.57)" fill="#fff"/>
            </g>
          </g>
          <g id="Group_9372" data-name="Group 9372" transform="translate(52.826)">
            <path id="Path_17105" data-name="Path 17105" d="M992.089,376.442v22.216a2.167,2.167,0,0,1-2.167,2.167H962.44l-10.078,7a1.1,1.1,0,0,1-1.726-.9v-6.1h-4.641a2.167,2.167,0,0,1-2.167-2.167V376.442a2.167,2.167,0,0,1,2.167-2.167h43.927A2.167,2.167,0,0,1,992.089,376.442Z" transform="translate(-943.827 -374.275)" fill="#f45170"/>
            <g id="Group_9371" data-name="Group 9371" transform="translate(8.483 9.033)">
              <path id="Path_17106" data-name="Path 17106" d="M1025.549,457.057a3.749,3.749,0,1,1-3.758-3.741A3.763,3.763,0,0,1,1025.549,457.057Z" transform="translate(-1018.051 -453.316)" fill="#fff"/>
              <path id="Path_17107" data-name="Path 17107" d="M1129.668,457.057a3.749,3.749,0,1,1-3.757-3.741A3.763,3.763,0,0,1,1129.668,457.057Z" transform="translate(-1110.271 -453.316)" fill="#fff"/>
              <path id="Path_17108" data-name="Path 17108" d="M1233.786,457.057a3.749,3.749,0,1,1-3.757-3.741A3.763,3.763,0,0,1,1233.786,457.057Z" transform="translate(-1202.49 -453.316)" fill="#fff"/>
            </g>
          </g>
          <g id="shopify-icon" transform="translate(31.464 128.745)">
            <path id="Path_16150" data-name="Path 16150" d="M76.775,18.475a.936.936,0,0,0-.835-.78c-.333-.055-7.651-.556-7.651-.556L62.71,11.56c-.5-.556-1.616-.394-2.036-.278-.055,0-1.113.333-2.844.9-1.683-4.869-4.662-9.332-9.909-9.332h-.448A6.486,6.486,0,0,0,42.573,0C30.355.055,24.533,15.292,22.692,23.078L14.153,25.7c-2.619.835-2.716.9-3.068,3.393l-7.2,55.523,53.969,10.1L87.1,88.41c0-.055-10.271-69.4-10.324-69.933ZM54.837,13.112c-1.357.448-2.905.9-4.573,1.4V13.5a22.243,22.243,0,0,0-1.113-7.4c2.735.42,4.573,3.488,5.687,7Zm-8.98-6.361a23.269,23.269,0,0,1,1.222,8.179v.5l-9.434,2.905c1.847-6.9,5.254-10.3,8.213-11.588ZM42.231,3.358a2.871,2.871,0,0,1,1.561.5c-3.937,1.832-8.1,6.461-9.883,15.727l-7.466,2.288c2.106-7.031,7.019-18.53,15.783-18.53Z" transform="translate(0)" fill="#95bf47"/>
            <path id="Path_16151" data-name="Path 16151" d="M58.437,14.055C58.1,14,50.786,13.5,50.786,13.5L45.207,7.919a1.114,1.114,0,0,0-.78-.333L40.354,91.073l29.247-6.3L59.272,14.891a1.006,1.006,0,0,0-.835-.835Z" transform="translate(17.503 3.641)" fill="#5e8e3e"/>
            <path id="Path_16152" data-name="Path 16152" d="M43.8,23.367,40.169,34.084a16.813,16.813,0,0,0-7.033-1.677c-5.695,0-5.973,3.57-5.973,4.466,0,4.881,12.78,6.754,12.78,18.252,0,9.042-5.749,14.843-13.467,14.843a18.757,18.757,0,0,1-14.01-5.749l2.464-8.213s4.854,4.188,8.987,4.188a3.655,3.655,0,0,0,3.794-3.685c0-6.423-10.493-6.7-10.493-17.194,0-8.823,6.361-17.418,19.141-17.418,5.023.074,7.426,1.465,7.426,1.465Z" transform="translate(4.12 10.508)" fill="#fff"/>
          </g>
        </g>
        <g id="Group_9374" data-name="Group 9374" transform="translate(133.16 335.684)">
          <path id="Path_17109" data-name="Path 17109" d="M1776.057,3466.188v49.018a6.872,6.872,0,0,1-6.872,6.871h-75.606a6.871,6.871,0,0,1-6.871-6.871v-49.018Z" transform="translate(-1682.142 -3448.514)" fill="#ffd375"/>
          <rect id="Rectangle_784" data-name="Rectangle 784" width="98.481" height="17.673" rx="8.837" fill="#ffb961"/>
          <rect id="Rectangle_785" data-name="Rectangle 785" width="22.267" height="8.92" rx="4.46" transform="translate(13.187 55.884)" fill="#ffb961"/>
        </g>
        <g id="Group_9375" data-name="Group 9375" transform="translate(98.367 358.638)">
          <path id="Path_17110" data-name="Path 17110" d="M1431.266,3618.786v33.722a4.727,4.727,0,0,1-4.727,4.728h-52.014a4.727,4.727,0,0,1-4.727-4.728v-33.722Z" transform="translate(-1366.656 -3606.627)" fill="#f45170"/>
          <rect id="Rectangle_786" data-name="Rectangle 786" width="67.751" height="12.159" rx="6.079" fill="#d12057"/>
          <rect id="Rectangle_787" data-name="Rectangle 787" width="15.319" height="6.136" rx="3.068" transform="translate(9.072 38.446)" fill="#d12057"/>
        </g>
        <g id="Group_9376" data-name="Group 9376" transform="translate(146.726 280.8)">
          <path id="Path_17111" data-name="Path 17111" d="M1861.927,2946.684v36.571a5.127,5.127,0,0,1-5.127,5.127h-56.409a5.127,5.127,0,0,1-5.127-5.127v-36.571Z" transform="translate(-1791.859 -2933.498)" fill="#ffd375"/>
          <rect id="Rectangle_788" data-name="Rectangle 788" width="73.475" height="13.186" rx="6.593" fill="#ffb961"/>
          <rect id="Rectangle_789" data-name="Rectangle 789" width="16.613" height="6.655" rx="3.327" transform="translate(9.839 41.694)" fill="#ffb961"/>
        </g>
      </g>
    </g>
  </g>
</svg>
