<svg id="Component_16_13" data-name="Component 16 – 13" xmlns="http://www.w3.org/2000/svg" xmlns:xlink="http://www.w3.org/1999/xlink" width="50" height="50" viewBox="0 0 50 50">
  <defs>
    <linearGradient id="linear-gradient" x1="0.055" y1="0.165" x2="0.866" y2="0.898" gradientUnits="objectBoundingBox">
      <stop offset="0" stop-color="#010101" stop-opacity="0.102"/>
      <stop offset="1" stop-color="#010101" stop-opacity="0"/>
    </linearGradient>
    <linearGradient id="linear-gradient-2" x1="-0.015" y1="0.26" x2="1.015" y2="0.74" gradientUnits="objectBoundingBox">
      <stop offset="0" stop-color="#fff" stop-opacity="0.2"/>
      <stop offset="1" stop-color="#fff" stop-opacity="0"/>
    </linearGradient>
  </defs>
  <circle id="Ellipse_50" data-name="Ellipse 50" cx="25" cy="25" r="25" fill="#40c9f3" opacity="0.1"/>
  <g id="Skype" transform="translate(13 12)">
    <path id="Path_15338" data-name="Path 15338" d="M22.918,13.262A10.423,10.423,0,0,0,23,12,11.012,11.012,0,0,0,12,1a10.542,10.542,0,0,0-1.262.082,7,7,0,0,0-9.656,9.656A10.412,10.412,0,0,0,1,12,11.012,11.012,0,0,0,12,23a10.542,10.542,0,0,0,1.262-.082,7,7,0,0,0,9.656-9.656Z" fill="#19bef0"/>
    <path id="Path_15339" data-name="Path 15339" d="M17,23.75a6.963,6.963,0,0,1-3.738-1.082A10.55,10.55,0,0,1,12,22.75a11.01,11.01,0,0,1-10.995-10.9C1,11.9,1,11.951,1,12A11.012,11.012,0,0,0,12,23a10.542,10.542,0,0,0,1.262-.082A7,7,0,0,0,24,17c0-.035-.007-.07-.007-.1A7,7,0,0,1,17,23.75Z" fill="#010101" opacity="0.1"/>
    <path id="Path_15340" data-name="Path 15340" d="M7,.25a6.963,6.963,0,0,1,3.738,1.082A10.544,10.544,0,0,1,12,1.25a11.01,11.01,0,0,1,10.995,10.9c0-.05.005-.1.005-.151A11.012,11.012,0,0,0,12,1a10.542,10.542,0,0,0-1.262.082A7,7,0,0,0,0,7c0,.035.007.07.007.1A7,7,0,0,1,7,.25Z" fill="#fff" opacity="0.2"/>
    <path id="Path_15341" data-name="Path 15341" d="M12.254,10.113C9.578,9.394,9,9.019,9,8c0-.306.944-1,2.5-1a4.21,4.21,0,0,1,2.507.639A1.5,1.5,0,0,0,17,7.5c0-2-2.364-3.5-5.5-3.5C8.416,4,6,5.757,6,8c0,3.539,3.164,4.389,5.476,5.01,2.9.778,3.524,1.22,3.524,2.49,0,.612-1.169,1.5-3,1.5-2.021,0-2.957-.695-3.007-.985A1.563,1.563,0,0,0,7.5,14.6,1.5,1.5,0,0,0,6,16.1C6,18.323,8.579,20,12,20c3.364,0,6-1.977,6-4.5C18,11.656,14.542,10.727,12.254,10.113Z" fill="#fff"/>
    <path id="Path_15342" data-name="Path 15342" d="M22.918,13.262c.036-.3.056-.573.068-.837L16.133,5.571A2.709,2.709,0,0,1,17,7.5a1.5,1.5,0,0,1-2.993.139A4.21,4.21,0,0,0,11.5,7C9.944,7,9,7.694,9,8c0,1.019.578,1.394,3.254,2.113C14.542,10.727,18,11.656,18,15.5c0,2.523-2.636,4.5-6,4.5a7.579,7.579,0,0,1-4.646-1.377l4.363,4.363c.1,0,.188.014.283.014a10.542,10.542,0,0,0,1.262-.082,7,7,0,0,0,9.656-9.656Z" fill="url(#linear-gradient)"/>
    <path id="Path_15343" data-name="Path 15343" d="M22.918,13.262A10.423,10.423,0,0,0,23,12,11.012,11.012,0,0,0,12,1a10.542,10.542,0,0,0-1.262.082,7,7,0,0,0-9.656,9.656A10.412,10.412,0,0,0,1,12,11.012,11.012,0,0,0,12,23a10.542,10.542,0,0,0,1.262-.082,7,7,0,0,0,9.656-9.656Z" fill="url(#linear-gradient-2)"/>
  </g>
</svg>
