<svg xmlns="http://www.w3.org/2000/svg" xmlns:xlink="http://www.w3.org/1999/xlink" width="30" height="30" viewBox="0 0 30 30">
  <defs>
    <clipPath id="clip-path">
      <rect id="Rectangle_566" data-name="Rectangle 566" width="30" height="30" transform="translate(1039 592)" fill="#616061"/>
    </clipPath>
  </defs>
  <g id="Mask_Group_18" data-name="Mask Group 18" transform="translate(-1039 -592)" clip-path="url(#clip-path)">
    <g id="Skype" transform="translate(1040.737 593.737)">
      <path id="Path_16022" data-name="Path 16022" d="M25.331,14.658a11.52,11.52,0,0,0,.091-1.395A12.172,12.172,0,0,0,13.263,1.105a11.652,11.652,0,0,0-1.395.091A7.737,7.737,0,0,0,1.2,11.869a11.508,11.508,0,0,0-.091,1.395A12.172,12.172,0,0,0,13.263,25.422a11.651,11.651,0,0,0,1.395-.091A7.737,7.737,0,0,0,25.331,14.658Z" fill="#00a7ad"/>
      <path id="Path_16023" data-name="Path 16023" d="M12.912,10.756c-2.957-.795-3.6-1.209-3.6-2.335,0-.338,1.044-1.105,2.763-1.105a4.653,4.653,0,0,1,2.771.706,1.658,1.658,0,0,0,3.308-.154C18.158,5.663,15.545,4,12.079,4,8.67,4,6,5.942,6,8.421c0,3.911,3.5,4.851,6.052,5.538,3.2.86,3.9,1.349,3.9,2.752,0,.676-1.292,1.658-3.316,1.658-2.234,0-3.268-.768-3.323-1.089a1.727,1.727,0,0,0-1.65-1.564A1.66,1.66,0,0,0,6,17.374c0,2.457,2.851,4.311,6.632,4.311,3.718,0,6.632-2.185,6.632-4.974C19.263,12.462,15.441,11.436,12.912,10.756Z" transform="translate(0.632 0.421)" fill="#fff"/>
    </g>
  </g>
</svg>
