<svg xmlns="http://www.w3.org/2000/svg" width="47.987" height="45.401" viewBox="0 0 47.987 45.401">
  <g id="Group_9021" data-name="Group 9021" transform="translate(706.924 129.641)">
    <path id="Path_16903" data-name="Path 16903" d="M-706.908-78.8c1.447-.35,2.906-.657,4.338-1.058a10.424,10.424,0,0,0,7.8-8.259c.3-1.3.531-2.612.905-3.941.244,1.136.513,2.267.728,3.409a10.593,10.593,0,0,0,6.787,8.428,38.65,38.65,0,0,0,4.635,1.206,2.285,2.285,0,0,1,.831.348c-1.227.3-2.451.61-3.681.9-4.786,1.111-7.59,4.121-8.562,8.9a34.2,34.2,0,0,1-.846,3.453c-.27-1.341-.5-2.691-.819-4.02-1.112-4.652-4.086-7.391-8.717-8.412-1.143-.252-2.277-.544-3.415-.818Z" transform="translate(0 -32.099)" fill="#fff"/>
    <path id="Path_16904" data-name="Path 16904" d="M-494.446,30.13c-.6-2.268-.865-4.622-2.659-6.425-1.764-1.773-4.107-2.045-6.517-2.686,2.426-.63,4.778-.912,6.544-2.7s2.027-4.155,2.573-6.642c.582,2.466.8,4.84,2.586,6.642s4.147,2.077,6.6,2.7c-1.135.28-2.091.5-3.039.752a7.169,7.169,0,0,0-5.516,5.744C-494.069,28.383-494.255,29.257-494.446,30.13Z" transform="translate(-173.62 -120.682)" fill="#fff"/>
    <path id="Path_16905" data-name="Path 16905" d="M-517.066-114.467c-.341-4.651-2.824-7.037-7.338-7.468,1.844-.618,3.774-.817,5.207-2.262,1.452-1.464,1.684-3.371,2.128-5.444.5,2.037.688,3.965,2.139,5.428s3.373,1.659,5.239,2.278C-514.232-121.524-516.7-119.1-517.066-114.467Z" transform="translate(-155.872 0)" fill="#fff"/>
    <path id="Path_16906" data-name="Path 16906" d="M-585.408,117.134c-.3-3.279-2-5.025-5.218-5.385,1.295-.472,2.668-.644,3.672-1.676s1.221-2.383,1.525-3.912c.418,1.484.549,2.882,1.592,3.923,1.02,1.017,2.37,1.2,3.721,1.664C-583.382,112.063-585.092,113.873-585.408,117.134Z" transform="translate(-99.318 -201.374)" fill="#fff"/>
  </g>
</svg>
