<svg id="Component_15_13" data-name="Component 15 – 13" xmlns="http://www.w3.org/2000/svg" xmlns:xlink="http://www.w3.org/1999/xlink" width="50" height="50" viewBox="0 0 50 50">
  <defs>
    <clipPath id="clip-path">
      <circle id="Ellipse_49" data-name="Ellipse 49" cx="25" cy="25" r="25" transform="translate(838 5353)" fill="#1da1f2"/>
    </clipPath>
  </defs>
  <g id="Mask_Group_3" data-name="Mask Group 3" transform="translate(-838 -5353)" clip-path="url(#clip-path)">
    <g id="Twitter" transform="translate(838 5353)">
      <path id="Dark_Blue" d="M43.75,50H6.25A6.252,6.252,0,0,1,0,43.75V6.25A6.252,6.252,0,0,1,6.25,0h37.5A6.252,6.252,0,0,1,50,6.25v37.5A6.252,6.252,0,0,1,43.75,50Z" fill="#1da1f2" opacity="0.1"/>
      <path id="Logo__x2014__FIXED" d="M19.2,37.7c11.788,0,18.237-9.775,18.237-18.238,0-.275,0-.55-.013-.825a13.058,13.058,0,0,0,3.2-3.325,12.991,12.991,0,0,1-3.687,1.013,6.449,6.449,0,0,0,2.825-3.55,12.75,12.75,0,0,1-4.075,1.55A6.411,6.411,0,0,0,24.6,18.712a7.085,7.085,0,0,0,.163,1.462,18.2,18.2,0,0,1-13.212-6.7,6.436,6.436,0,0,0,1.988,8.563,6.483,6.483,0,0,1-2.9-.8v.087a6.423,6.423,0,0,0,5.137,6.288,6.447,6.447,0,0,1-2.887.112,6.41,6.41,0,0,0,5.988,4.45,12.856,12.856,0,0,1-7.963,2.75,12.335,12.335,0,0,1-1.525-.088A18.233,18.233,0,0,0,19.2,37.7" fill="#1da1f2"/>
    </g>
  </g>
</svg>
