<svg xmlns="http://www.w3.org/2000/svg" xmlns:xlink="http://www.w3.org/1999/xlink" width="39.765" height="44" viewBox="0 0 39.765 44">
  <defs>
    <clipPath id="clip-path">
      <path id="Path_6932" data-name="Path 6932" d="M162,139.21h39.765v44H162Z" transform="translate(-162 -139.21)" fill="#0b262a"/>
    </clipPath>
  </defs>
  <g id="Upload_File" data-name="Upload File" clip-path="url(#clip-path)">
    <path id="Path_6931" data-name="Path 6931" d="M200.286,143.8v32.813a4.4,4.4,0,0,1-4.4,4.4H167.473a3.3,3.3,0,0,0,3.113,2.2h28.6a3.3,3.3,0,0,0,3.3-3.3v-33a3.3,3.3,0,0,0-2.2-3.113Zm-27.5-4.587v6.6a3.3,3.3,0,0,1-3.3,3.3h-6.6v26.4a3.3,3.3,0,0,0,3.3,3.3h28.6a3.3,3.3,0,0,0,3.3-3.3v-33a3.3,3.3,0,0,0-3.3-3.3Zm7.7,7.7h0a13.2,13.2,0,1,0,9.334,3.866,13.2,13.2,0,0,0-9.334-3.866Zm0,2.2h0a11,11,0,1,1-7.778,3.222,11,11,0,0,1,7.778-3.222Zm0,20.9h0a3.3,3.3,0,0,1-3.3-3.3v-2.2a2.74,2.74,0,0,1-2.2-2.7,2.784,2.784,0,0,1,.55-1.65c.539-.715,1.617-2.145,2.31-3.08a3.261,3.261,0,0,1,5.28-.055l2.31,3.08a2.782,2.782,0,0,1,.55,1.65,2.75,2.75,0,0,1-2.2,2.75v2.2a3.3,3.3,0,0,1-3.3,3.3Zm0-2.2h0a1.1,1.1,0,0,1-1.1-1.1v-3.3a1.1,1.1,0,0,0-1.1-1.1h-.55a.561.561,0,0,1-.55-.55.592.592,0,0,1,.11-.33l2.31-3.08a1.1,1.1,0,0,1,1.76,0l2.31,3.08a.517.517,0,0,1,.11.33.55.55,0,0,1-.55.55h-.55a1.1,1.1,0,0,0-1.1,1.1v3.3a1.1,1.1,0,0,1-1.1,1.1Zm-5.5-9.9v-2.2a1.1,1.1,0,0,1,1.1-1.1h8.8a1.1,1.1,0,0,1,1.1,1.1v2.2a1.1,1.1,0,0,0,2.2,0v-2.2a3.3,3.3,0,0,0-3.3-3.3h-8.8a3.3,3.3,0,0,0-3.3,3.3v2.2a1.1,1.1,0,0,0,2.2,0Zm-4.4-18.568a3.3,3.3,0,0,0-1.419.836l-5.313,5.313a3.3,3.3,0,0,0-.836,1.419h6.468a1.1,1.1,0,0,0,1.1-1.1Z" transform="translate(-162.804 -139.209)" fill="#0b262a" fill-rule="evenodd"/>
  </g>
</svg>
