<svg xmlns="http://www.w3.org/2000/svg" xmlns:xlink="http://www.w3.org/1999/xlink" width="571" height="431" viewBox="0 0 571 431">
  <defs>
    <clipPath id="clip-path">
      <rect id="Rectangle_567" data-name="Rectangle 567" width="571" height="431" transform="translate(973 214)" fill="#fff"/>
    </clipPath>
  </defs>
  <g id="Mask_Group_19" data-name="Mask Group 19" transform="translate(-973 -214)" clip-path="url(#clip-path)">
    <g id="Group_10025" data-name="Group 10025" transform="translate(527.041 1681.389)">
      <g id="Group_10111" data-name="Group 10111" transform="translate(477.316 -1441.389)">
        <path id="Path_17701" data-name="Path 17701" d="M1010.992-1150.156H587.88a7.138,7.138,0,0,1-7.23-8.242l33.735-274.749a9.59,9.59,0,0,1,9.255-8.242h423.113a7.138,7.138,0,0,1,7.23,8.242L1020.247-1158.4A9.589,9.589,0,0,1,1010.992-1150.156Z" transform="translate(-572.344 1441.389)" fill="#806eff"/>
        <path id="Path_17702" data-name="Path 17702" d="M981.348-1150.156H558.236a7.138,7.138,0,0,1-7.23-8.242l33.735-274.749a9.59,9.59,0,0,1,9.254-8.242h423.113a7.138,7.138,0,0,1,7.23,8.242L990.6-1158.4A9.59,9.59,0,0,1,981.348-1150.156Z" transform="translate(-550.942 1441.389)" fill="#f0f2f7"/>
        <path id="Path_17703" data-name="Path 17703" d="M1837.4-1150.156h-93.414a7.138,7.138,0,0,1-7.23-8.242l33.735-274.749a9.589,9.589,0,0,1,9.254-8.242h93.415a7.138,7.138,0,0,1,7.23,8.242L1846.653-1158.4A9.59,9.59,0,0,1,1837.4-1150.156Z" transform="translate(-1406.992 1441.389)" fill="#e4e8ef"/>
        <path id="Path_17704" data-name="Path 17704" d="M651.65-1150.156H558.236a7.138,7.138,0,0,1-7.23-8.242l33.735-274.749a9.59,9.59,0,0,1,9.254-8.242h93.414a7.138,7.138,0,0,1,7.23,8.242L660.9-1158.4A9.59,9.59,0,0,1,651.65-1150.156Z" transform="translate(-550.942 1441.389)" fill="#f0f2f7"/>
        <path id="Path_17705" data-name="Path 17705" d="M1106.85-1419.409H666.428l1.687-13.737a9.59,9.59,0,0,1,9.254-8.242h423.937a7.138,7.138,0,0,1,7.23,8.242Z" transform="translate(-634.317 1441.389)" fill="#806eff"/>
        <g id="Group_10025-2" data-name="Group 10025" transform="translate(42.748 6.135)">
          <path id="Path_17706" data-name="Path 17706" d="M711.578-1410.782a4,4,0,0,1-3.856,3.434,2.974,2.974,0,0,1-3.013-3.434,4,4,0,0,1,3.856-3.434A2.974,2.974,0,0,1,711.578-1410.782Z" transform="translate(-704.683 1415.636)" fill="#fff"/>
          <ellipse id="Ellipse_205" data-name="Ellipse 205" cx="3.652" cy="3.23" rx="3.652" ry="3.23" transform="matrix(0.728, -0.685, 0.685, 0.728, 12.325, 5.003)" fill="#fff"/>
          <ellipse id="Ellipse_206" data-name="Ellipse 206" cx="3.652" cy="3.23" rx="3.652" ry="3.23" transform="translate(26.062 5.003) rotate(-43.242)" fill="#fff"/>
        </g>
        <g id="Group_10026" data-name="Group 10026" transform="translate(82.566 42)">
          <path id="Path_17707" data-name="Path 17707" d="M851.041-1297.835H812.576a1.19,1.19,0,0,1-1.205-1.374h0a1.6,1.6,0,0,1,1.542-1.374h38.465a1.19,1.19,0,0,1,1.205,1.374h0A1.6,1.6,0,0,1,851.041-1297.835Z" transform="translate(-810.517 1300.582)" fill="#d7d7ff"/>
          <path id="Path_17708" data-name="Path 17708" d="M834.27-1273.131H809.543a1.19,1.19,0,0,1-1.205-1.374h0a1.6,1.6,0,0,1,1.542-1.374h24.727a1.19,1.19,0,0,1,1.205,1.374h0A1.6,1.6,0,0,1,834.27-1273.131Z" transform="translate(-808.327 1282.748)" fill="#d7d7ff"/>
        </g>
        <g id="Group_10027" data-name="Group 10027" transform="translate(346.039 213.299)">
          <path id="Path_17709" data-name="Path 17709" d="M1832.515-671.518h-24.727a1.19,1.19,0,0,1-1.205-1.374h0a1.6,1.6,0,0,1,1.542-1.374h24.727a1.19,1.19,0,0,1,1.205,1.374h0A1.6,1.6,0,0,1,1832.515-671.518Z" transform="translate(-1803.482 674.266)" fill="#d7d7ff"/>
          <path id="Path_17710" data-name="Path 17710" d="M2028.5-671.518h-32.97a1.19,1.19,0,0,1-1.205-1.374h0a1.6,1.6,0,0,1,1.543-1.374h32.97a1.19,1.19,0,0,1,1.2,1.374h0A1.6,1.6,0,0,1,2028.5-671.518Z" transform="translate(-1939.023 674.266)" fill="#d7d7ff"/>
          <path id="Path_17711" data-name="Path 17711" d="M2025.468-646.816H1992.5a1.19,1.19,0,0,1-1.205-1.374h0a1.6,1.6,0,0,1,1.542-1.374h32.97a1.19,1.19,0,0,1,1.205,1.374h0A1.6,1.6,0,0,1,2025.468-646.816Z" transform="translate(-1936.833 656.432)" fill="#d7d7ff"/>
          <path id="Path_17712" data-name="Path 17712" d="M1831.944-622.113h-30.222a1.19,1.19,0,0,1-1.205-1.374h0a1.6,1.6,0,0,1,1.542-1.374h30.222a1.19,1.19,0,0,1,1.205,1.374h0A1.6,1.6,0,0,1,1831.944-622.113Z" transform="translate(-1799.103 638.597)" fill="#d7d7ff"/>
          <path id="Path_17713" data-name="Path 17713" d="M2022.435-622.113h-32.97a1.19,1.19,0,0,1-1.2-1.374h0a1.6,1.6,0,0,1,1.542-1.374h32.97a1.19,1.19,0,0,1,1.205,1.374h0A1.6,1.6,0,0,1,2022.435-622.113Z" transform="translate(-1934.644 638.597)" fill="#d7d7ff"/>
          <path id="Path_17714" data-name="Path 17714" d="M1823.987-646.816h-19.232a1.189,1.189,0,0,1-1.2-1.374h0a1.6,1.6,0,0,1,1.542-1.374h19.233a1.19,1.19,0,0,1,1.205,1.374h0A1.6,1.6,0,0,1,1823.987-646.816Z" transform="translate(-1801.293 656.432)" fill="#d7d7ff"/>
          <path id="Path_17715" data-name="Path 17715" d="M2016.622-582.262h-31.6a1.785,1.785,0,0,1-1.808-2.061h0a2.4,2.4,0,0,1,2.314-2.06h31.6a1.784,1.784,0,0,1,1.808,2.06h0A2.4,2.4,0,0,1,2016.622-582.262Z" transform="translate(-1931.001 610.819)" fill="#fff"/>
          <path id="Path_17716" data-name="Path 17716" d="M1815.141-582.262h-17.859a1.784,1.784,0,0,1-1.807-2.061h0a2.4,2.4,0,0,1,2.313-2.06h17.859a1.784,1.784,0,0,1,1.808,2.06h0A2.4,2.4,0,0,1,1815.141-582.262Z" transform="translate(-1795.459 610.819)" fill="#fff"/>
        </g>
        <g id="Group_10028" data-name="Group 10028" transform="translate(48.965 66.221)">
          <ellipse id="Ellipse_209" data-name="Ellipse 209" cx="4.382" cy="3.876" rx="4.382" ry="3.876" transform="translate(0 6.004) rotate(-43.243)" fill="#d7d7ff"/>
          <path id="Path_17717" data-name="Path 17717" d="M837.121-1184.468H798.656a1.19,1.19,0,0,1-1.205-1.374h0a1.6,1.6,0,0,1,1.543-1.374h38.465a1.19,1.19,0,0,1,1.205,1.374h0A1.6,1.6,0,0,1,837.121-1184.468Z" transform="translate(-777.866 1191.667)" fill="#d7d7ff"/>
        </g>
        <g id="Group_10029" data-name="Group 10029" transform="translate(46.941 82.706)">
          <ellipse id="Ellipse_210" data-name="Ellipse 210" cx="4.382" cy="3.876" rx="4.382" ry="3.876" transform="matrix(0.728, -0.685, 0.685, 0.728, 0, 6.004)" fill="#d7d7ff"/>
          <path id="Path_17718" data-name="Path 17718" d="M816.1-1125.181H791.377a1.19,1.19,0,0,1-1.205-1.374h0a1.6,1.6,0,0,1,1.542-1.374h24.727a1.19,1.19,0,0,1,1.205,1.374h0A1.6,1.6,0,0,1,816.1-1125.181Z" transform="translate(-770.587 1132.38)" fill="#d7d7ff"/>
        </g>
        <g id="Group_10030" data-name="Group 10030" transform="translate(44.916 99.191)">
          <ellipse id="Ellipse_211" data-name="Ellipse 211" cx="4.382" cy="3.876" rx="4.382" ry="3.876" transform="matrix(0.728, -0.685, 0.685, 0.728, 0, 6.004)" fill="#d7d7ff"/>
          <path id="Path_17719" data-name="Path 17719" d="M817.067-1065.893H784.1a1.19,1.19,0,0,1-1.205-1.374h0a1.6,1.6,0,0,1,1.543-1.374H817.4a1.189,1.189,0,0,1,1.2,1.374h0A1.6,1.6,0,0,1,817.067-1065.893Z" transform="translate(-763.307 1073.092)" fill="#d7d7ff"/>
        </g>
        <g id="Group_10031" data-name="Group 10031" transform="translate(42.892 115.676)">
          <ellipse id="Ellipse_212" data-name="Ellipse 212" cx="4.382" cy="3.876" rx="4.382" ry="3.876" transform="translate(0 6.004) rotate(-43.243)" fill="#d7d7ff"/>
          <path id="Path_17720" data-name="Path 17720" d="M820.777-1006.606h-43.96a1.19,1.19,0,0,1-1.205-1.374h0a1.6,1.6,0,0,1,1.542-1.374h43.96a1.19,1.19,0,0,1,1.205,1.374h0A1.6,1.6,0,0,1,820.777-1006.606Z" transform="translate(-756.028 1013.805)" fill="#d7d7ff"/>
        </g>
        <g id="Group_10032" data-name="Group 10032" transform="translate(40.868 132.161)">
          <ellipse id="Ellipse_213" data-name="Ellipse 213" cx="4.382" cy="3.876" rx="4.382" ry="3.876" transform="translate(0 6.004) rotate(-43.243)" fill="#d7d7ff"/>
          <path id="Path_17721" data-name="Path 17721" d="M797.013-947.319H769.538a1.19,1.19,0,0,1-1.205-1.374h0a1.6,1.6,0,0,1,1.542-1.374H797.35a1.19,1.19,0,0,1,1.205,1.374h0A1.6,1.6,0,0,1,797.013-947.319Z" transform="translate(-748.748 954.518)" fill="#d7d7ff"/>
        </g>
        <g id="Group_10033" data-name="Group 10033" transform="translate(38.844 148.646)">
          <ellipse id="Ellipse_214" data-name="Ellipse 214" cx="4.382" cy="3.876" rx="4.382" ry="3.876" transform="matrix(0.728, -0.685, 0.685, 0.728, 0, 6.004)" fill="#d7d7ff"/>
          <path id="Path_17722" data-name="Path 17722" d="M800.724-888.031H762.258a1.19,1.19,0,0,1-1.2-1.374h0a1.6,1.6,0,0,1,1.542-1.374h38.465a1.19,1.19,0,0,1,1.205,1.374h0A1.6,1.6,0,0,1,800.724-888.031Z" transform="translate(-741.469 895.23)" fill="#d7d7ff"/>
        </g>
        <g id="Group_10034" data-name="Group 10034" transform="translate(24.919 262.054)">
          <ellipse id="Ellipse_215" data-name="Ellipse 215" cx="4.382" cy="3.876" rx="4.382" ry="3.876" transform="matrix(0.728, -0.685, 0.685, 0.728, 0, 6.004)" fill="#d7d7ff"/>
          <path id="Path_17723" data-name="Path 17723" d="M743.364-480.162h-32.97l.337-2.748H743.7Z" transform="translate(-690.978 487.362)" fill="#d7d7ff"/>
        </g>
        <path id="Path_17724" data-name="Path 17724" d="M1086.933-1102.075h-46.707a4.759,4.759,0,0,1-4.82-5.495l8.771-71.435a6.393,6.393,0,0,1,6.17-5.5h46.707a4.759,4.759,0,0,1,4.82,5.5l-8.771,71.435A6.393,6.393,0,0,1,1086.933-1102.075Z" transform="translate(-900.67 1255.928)" fill="#d7d7ff"/>
        <path id="Path_17725" data-name="Path 17725" d="M1067.171-1121.837h-46.707a4.759,4.759,0,0,1-4.82-5.495l8.771-71.435a6.393,6.393,0,0,1,6.169-5.495h46.708a4.759,4.759,0,0,1,4.82,5.495l-8.771,71.435A6.393,6.393,0,0,1,1067.171-1121.837Z" transform="translate(-886.403 1270.195)" fill="#806eff"/>
        <path id="Path_17726" data-name="Path 17726" d="M1067.171-972.029h-46.707a4.759,4.759,0,0,1-4.82-5.5l1.687-13.737a6.393,6.393,0,0,1,6.17-5.495h46.707a4.759,4.759,0,0,1,4.82,5.495l-1.687,13.737A6.393,6.393,0,0,1,1067.171-972.029Z" transform="translate(-886.403 1120.386)" fill="#fff"/>
        <path id="Path_17727" data-name="Path 17727" d="M1163.372-700.746H972.422L986.254-813.4a6.393,6.393,0,0,1,6.17-5.495h179.96a4.759,4.759,0,0,1,4.82,5.495Z" transform="translate(-855.229 991.979)" fill="#fff"/>
        <path id="Path_17728" data-name="Path 17728" d="M1326.553-1102.075h-46.707a4.759,4.759,0,0,1-4.82-5.495L1283.8-1179a6.393,6.393,0,0,1,6.17-5.5h46.707a4.759,4.759,0,0,1,4.82,5.5l-8.771,71.435A6.393,6.393,0,0,1,1326.553-1102.075Z" transform="translate(-1073.663 1255.928)" fill="#fff"/>
        <path id="Path_17729" data-name="Path 17729" d="M1566.173-1102.075h-46.707a4.759,4.759,0,0,1-4.82-5.495l8.771-71.435a6.393,6.393,0,0,1,6.17-5.5h46.707a4.759,4.759,0,0,1,4.82,5.5l-8.771,71.435A6.394,6.394,0,0,1,1566.173-1102.075Z" transform="translate(-1246.656 1255.928)" fill="#fff"/>
        <path id="Path_17730" data-name="Path 17730" d="M1263.148-1296.448H1088.683a7.138,7.138,0,0,1-7.23-8.243h0a9.59,9.59,0,0,1,9.255-8.242h174.465a7.138,7.138,0,0,1,7.23,8.242h0A9.59,9.59,0,0,1,1263.148-1296.448Z" transform="translate(-933.898 1348.65)" fill="#e4e8ef"/>
        <path id="Path_17731" data-name="Path 17731" d="M1113.371-1221.255h-38.465a1.19,1.19,0,0,1-1.205-1.374h0a1.6,1.6,0,0,1,1.542-1.374h38.465a1.19,1.19,0,0,1,1.205,1.374h0A1.6,1.6,0,0,1,1113.371-1221.255Z" transform="translate(-928.34 1284.447)" fill="#d7d7ff"/>
        <path id="Path_17732" data-name="Path 17732" d="M1099.516-786.5h-38.465a1.19,1.19,0,0,1-1.205-1.374h0a1.6,1.6,0,0,1,1.543-1.374h38.465a1.19,1.19,0,0,1,1.205,1.374h0A1.6,1.6,0,0,1,1099.516-786.5Z" transform="translate(-918.337 970.578)" fill="#d7d7ff"/>
        <g id="Group_10035" data-name="Group 10035" transform="translate(258.137 181.328)">
          <path id="Path_17733" data-name="Path 17733" d="M1519-786.5h-38.465a1.19,1.19,0,0,1-1.205-1.374h0a1.6,1.6,0,0,1,1.542-1.374h38.465a1.189,1.189,0,0,1,1.205,1.374h0A1.6,1.6,0,0,1,1519-786.5Z" transform="translate(-1479.323 789.25)" fill="#f0f2f7"/>
          <path id="Path_17734" data-name="Path 17734" d="M1648.769-786.9l-.925-1.939a.308.308,0,0,1,.286-.416h2.327a.25.25,0,0,1,.184.416l-1.4,1.939A.274.274,0,0,1,1648.769-786.9Z" transform="translate(-1600.969 789.25)" fill="#f0f2f7"/>
        </g>
        <path id="Path_17735" data-name="Path 17735" d="M1924.671-1310.186h-38.465a1.19,1.19,0,0,1-1.205-1.374h0a1.6,1.6,0,0,1,1.543-1.373h38.465a1.19,1.19,0,0,1,1.205,1.373h0A1.6,1.6,0,0,1,1924.671-1310.186Z" transform="translate(-1514.057 1348.65)" fill="#d7d7ff"/>
        <g id="Group_10036" data-name="Group 10036" transform="translate(322.095 39.839)">
          <path id="Path_17736" data-name="Path 17736" d="M1716.952-1291.007l-1.7-1.932a3.29,3.29,0,0,0,.091-4.195,3.323,3.323,0,0,0-4.71,0,3.388,3.388,0,0,0-.578,4.714,3.221,3.221,0,0,0,4.138.424l1.7,1.933a.668.668,0,0,0,.943,0A.68.68,0,0,0,1716.952-1291.007Zm-2.335-2.662a2.693,2.693,0,0,1-.466.54,2.636,2.636,0,0,1-.594.4,2.227,2.227,0,0,1-2.707-.4,2.369,2.369,0,0,1,.4-3.3,2.332,2.332,0,0,1,3.3,0A2.264,2.264,0,0,1,1714.617-1293.669Z" transform="translate(-1709.346 1298.111)" fill="#fff"/>
        </g>
        <g id="Group_10040" data-name="Group 10040" transform="translate(358.252 86.997)">
          <path id="Path_17737" data-name="Path 17737" d="M1921.175-1069.893h-76.929a4.759,4.759,0,0,1-4.82-5.495l5.847-47.623a6.393,6.393,0,0,1,6.17-5.495h76.929a4.759,4.759,0,0,1,4.82,5.495l-5.848,47.623A6.393,6.393,0,0,1,1921.175-1069.893Z" transform="translate(-1839.384 1128.506)" fill="#d7d7ff"/>
          <path id="Path_17738" data-name="Path 17738" d="M1943.361-1092.387h-87.92l1.2-9.769h87.92Z" transform="translate(-1850.976 1109.483)" fill="#b3b3ff"/>
          <g id="Group_10038" data-name="Group 10038" transform="translate(7.355 23.446)">
            <path id="Path_17739" data-name="Path 17739" d="M1886.348-1042.229l-.96,7.815a2.27,2.27,0,0,1-2.193,1.954h-15.63a1.693,1.693,0,0,1-1.714-1.954l.96-7.815a2.273,2.273,0,0,1,2.193-1.954h15.63A1.691,1.691,0,0,1,1886.348-1042.229Z" transform="translate(-1865.836 1044.183)" fill="#b3b3ff"/>
            <g id="Group_10037" data-name="Group 10037" transform="translate(0.063)">
              <path id="Path_17740" data-name="Path 17740" d="M1882.706-1044.183l-1.439,11.723h-.781l1.439-11.723Z" transform="translate(-1876.475 1044.183)" fill="#d7d7ff"/>
              <path id="Path_17741" data-name="Path 17741" d="M1888.456-1035.751l-.1.781h-19.538l.1-.781Z" transform="translate(-1868.055 1038.096)" fill="#d7d7ff"/>
              <path id="Path_17742" data-name="Path 17742" d="M1887.076-1024.509l-.1.782h-19.538l.1-.782Z" transform="translate(-1867.059 1029.979)" fill="#d7d7ff"/>
              <path id="Path_17743" data-name="Path 17743" d="M1885.7-1013.266l-.1.782h-19.538l.1-.782Z" transform="translate(-1866.062 1021.862)" fill="#d7d7ff"/>
              <path id="Path_17744" data-name="Path 17744" d="M1900.975-1044.183l-1.439,11.723h-.781l1.439-11.723Z" transform="translate(-1889.664 1044.183)" fill="#d7d7ff"/>
              <path id="Path_17745" data-name="Path 17745" d="M1919.245-1044.183l-1.439,11.723h-.781l1.439-11.723Z" transform="translate(-1902.854 1044.183)" fill="#d7d7ff"/>
            </g>
          </g>
          <path id="Path_17746" data-name="Path 17746" d="M1875.672-941.615h-17.55a.861.861,0,0,1-.872-.994l.056-.455a1.156,1.156,0,0,1,1.116-.994h17.55a.861.861,0,0,1,.872.994l-.056.455A1.156,1.156,0,0,1,1875.672-941.615Z" transform="translate(-1852.277 995.343)" fill="#b3b3ff"/>
          <path id="Path_17747" data-name="Path 17747" d="M1906.162-967.965h-44.805a.861.861,0,0,1-.872-.994l.056-.455a1.157,1.157,0,0,1,1.116-.994h44.805a.861.861,0,0,1,.872.994l-.056.455A1.156,1.156,0,0,1,1906.162-967.965Z" transform="translate(-1854.612 1014.367)" fill="#fff"/>
          <path id="Path_17748" data-name="Path 17748" d="M1963.505-941.615h-17.55a.86.86,0,0,1-.872-.994l.056-.455a1.156,1.156,0,0,1,1.115-.994h17.55a.861.861,0,0,1,.872.994l-.056.455A1.156,1.156,0,0,1,1963.505-941.615Z" transform="translate(-1915.688 995.343)" fill="#b3b3ff"/>
          <path id="Path_17749" data-name="Path 17749" d="M2051.338-941.615h-17.55a.861.861,0,0,1-.872-.994l.056-.455a1.156,1.156,0,0,1,1.116-.994h17.55a.86.86,0,0,1,.872.994l-.055.455A1.157,1.157,0,0,1,2051.338-941.615Z" transform="translate(-1979.099 995.343)" fill="#b3b3ff"/>
          <g id="Group_10039" data-name="Group 10039" transform="translate(63.555 21.981)">
            <path id="Path_17750" data-name="Path 17750" d="M2117.63-1042.126a8.527,8.527,0,0,1-8.226,7.327,6.626,6.626,0,0,1-3.733-1.1,8.531,8.531,0,0,0,4.222-6.223,6.4,6.4,0,0,0-2.694-6.223,8.017,8.017,0,0,1,4-1.1A6.344,6.344,0,0,1,2117.63-1042.126Z" transform="translate(-2095.184 1049.453)" fill="#eef"/>
            <ellipse id="Ellipse_216" data-name="Ellipse 216" cx="6.29" cy="3.421" rx="6.29" ry="3.421" transform="translate(6.791 12.928) rotate(-80.019)" fill="#d7d7ff"/>
            <path id="Path_17751" data-name="Path 17751" d="M2078.443-1035.9a8.019,8.019,0,0,1-4,1.1,6.347,6.347,0,0,1-6.427-7.327,8.523,8.523,0,0,1,8.226-7.327,6.627,6.627,0,0,1,3.733,1.1,8.516,8.516,0,0,0-4.222,6.223A6.412,6.412,0,0,0,2078.443-1035.9Z" transform="translate(-2067.956 1049.453)" fill="#b3b3ff"/>
          </g>
        </g>
        <g id="Group_10041" data-name="Group 10041" transform="translate(137.894 131.186)">
          <path id="Path_17752" data-name="Path 17752" d="M1089.588-966.836h-38.465a1.19,1.19,0,0,1-1.205-1.374h0a1.6,1.6,0,0,1,1.542-1.374h38.465a1.19,1.19,0,0,1,1.205,1.374h0A1.6,1.6,0,0,1,1089.588-966.836Z" transform="translate(-1049.064 969.583)" fill="#36ccc4"/>
          <path id="Path_17753" data-name="Path 17753" d="M1072.817-942.133H1048.09a1.19,1.19,0,0,1-1.205-1.374h0a1.6,1.6,0,0,1,1.542-1.374h24.727a1.19,1.19,0,0,1,1.205,1.374h0A1.6,1.6,0,0,1,1072.817-942.133Z" transform="translate(-1046.874 951.749)" fill="#36ccc4"/>
        </g>
        <g id="Group_10043" data-name="Group 10043" transform="translate(367.36 43.96)">
          <path id="Path_17754" data-name="Path 17754" d="M1953.931-1248.681H1877a4.759,4.759,0,0,1-4.82-5.5l1.687-13.737a6.394,6.394,0,0,1,6.17-5.495h76.93a4.759,4.759,0,0,1,4.82,5.495l-1.687,13.737A6.393,6.393,0,0,1,1953.931-1248.681Z" transform="translate(-1872.139 1273.408)" fill="#f0f2f7"/>
        </g>
        <path id="Path_17757" data-name="Path 17757" d="M1326.553-952.267h-46.707a4.759,4.759,0,0,1-4.82-5.495l1.687-13.737a6.394,6.394,0,0,1,6.17-5.5h46.707a4.759,4.759,0,0,1,4.82,5.5l-1.687,13.737A6.393,6.393,0,0,1,1326.553-952.267Z" transform="translate(-1073.663 1106.119)" fill="#e4e8ef"/>
        <g id="Group_10044" data-name="Group 10044" transform="translate(210.016 136.681)">
          <path id="Path_17758" data-name="Path 17758" d="M1348.971-947.073h-38.465a1.19,1.19,0,0,1-1.2-1.374h0a1.6,1.6,0,0,1,1.542-1.374h38.465a1.19,1.19,0,0,1,1.205,1.374h0A1.6,1.6,0,0,1,1348.971-947.073Z" transform="translate(-1308.447 949.821)" fill="#fff"/>
          <path id="Path_17759" data-name="Path 17759" d="M1332.2-922.369h-24.727a1.19,1.19,0,0,1-1.205-1.374h0a1.6,1.6,0,0,1,1.543-1.374h24.727a1.19,1.19,0,0,1,1.205,1.374h0A1.6,1.6,0,0,1,1332.2-922.369Z" transform="translate(-1306.256 931.986)" fill="#f0f2f7"/>
        </g>
        <path id="Path_17760" data-name="Path 17760" d="M1566.173-952.267h-46.707a4.759,4.759,0,0,1-4.82-5.495l1.687-13.737a6.393,6.393,0,0,1,6.17-5.5h46.707a4.759,4.759,0,0,1,4.82,5.5l-1.687,13.737A6.393,6.393,0,0,1,1566.173-952.267Z" transform="translate(-1246.656 1106.119)" fill="#e4e8ef"/>
        <g id="Group_10045" data-name="Group 10045" transform="translate(276.642 136.681)">
          <path id="Path_17761" data-name="Path 17761" d="M1588.59-947.073h-38.465a1.19,1.19,0,0,1-1.205-1.374h0a1.6,1.6,0,0,1,1.543-1.374h38.465a1.19,1.19,0,0,1,1.205,1.374h0A1.6,1.6,0,0,1,1588.59-947.073Z" transform="translate(-1548.066 949.821)" fill="#fff"/>
          <path id="Path_17762" data-name="Path 17762" d="M1571.819-922.369h-24.727a1.19,1.19,0,0,1-1.2-1.374h0a1.6,1.6,0,0,1,1.542-1.374h24.728a1.19,1.19,0,0,1,1.205,1.374h0A1.6,1.6,0,0,1,1571.819-922.369Z" transform="translate(-1545.876 931.986)" fill="#f0f2f7"/>
        </g>
        <g id="Group_10060" data-name="Group 10060" transform="translate(148.694 78.571)">
          <g id="Group_10046" data-name="Group 10046" transform="translate(19.732 29.451)">
            <path id="Path_17763" data-name="Path 17763" d="M1158.719-1052.892a2.1,2.1,0,0,0-2.024,1.8,1.562,1.562,0,0,0,1.581,1.8,2.1,2.1,0,0,0,2.024-1.8A1.561,1.561,0,0,0,1158.719-1052.892Zm-.332,2.7a.781.781,0,0,1-.791-.9,1.05,1.05,0,0,1,1.012-.9.783.783,0,0,1,.793.9A1.052,1.052,0,0,1,1158.387-1050.188Z" transform="translate(-1156.682 1052.892)" fill="#d7d7ff"/>
          </g>
          <g id="Group_10047" data-name="Group 10047" transform="translate(2.451 29.451)">
            <path id="Path_17764" data-name="Path 17764" d="M1096.566-1052.892a2.1,2.1,0,0,0-2.024,1.8,1.562,1.562,0,0,0,1.581,1.8,2.1,2.1,0,0,0,2.024-1.8A1.562,1.562,0,0,0,1096.566-1052.892Zm-.332,2.7a.783.783,0,0,1-.793-.9,1.052,1.052,0,0,1,1.015-.9.781.781,0,0,1,.79.9A1.049,1.049,0,0,1,1096.234-1050.188Z" transform="translate(-1094.529 1052.892)" fill="#d7d7ff"/>
          </g>
          <g id="Group_10048" data-name="Group 10048" transform="translate(0 0.192)">
            <path id="Path_17765" data-name="Path 17765" d="M1108.351-1135.914H1087.1a.236.236,0,0,1-.242-.221l-1.139-14.981a.3.3,0,0,1,.08-.222.314.314,0,0,1,.215-.106l29.431-1.619.742-1.705a5.546,5.546,0,0,1,4.975-3.355h2.057a.238.238,0,0,1,.241.275.319.319,0,0,1-.308.275h-2.057a4.908,4.908,0,0,0-4.4,2.969l-.819,1.882,0,.011-7.228,16.605A.32.32,0,0,1,1108.351-1135.914Zm-20.961-.55h20.826l6.982-16.04-28.906,1.59Z" transform="translate(-1085.715 1158.124)" fill="#d7d7ff"/>
          </g>
          <g id="Group_10049" data-name="Group 10049" transform="translate(3.874 21.851)">
            <path id="Path_17766" data-name="Path 17766" d="M1118.148-1077.555H1099.89a.238.238,0,0,1-.241-.275.32.32,0,0,1,.308-.275h17.984l.227-1.846a.32.32,0,0,1,.309-.275.238.238,0,0,1,.241.275l-.261,2.121A.319.319,0,0,1,1118.148-1077.555Z" transform="translate(-1099.646 1080.225)" fill="#d7d7ff"/>
          </g>
          <g id="Group_10050" data-name="Group 10050" transform="translate(0.855 23.972)">
            <path id="Path_17767" data-name="Path 17767" d="M1112.77-1067.084h-23.736a.238.238,0,0,1-.241-.275.319.319,0,0,1,.308-.275h23.461l.2-1.621a2.422,2.422,0,0,0-2.451-2.794.238.238,0,0,1-.241-.275.319.319,0,0,1,.308-.275,2.9,2.9,0,0,1,2.933,3.343l-.233,1.9A.319.319,0,0,1,1112.77-1067.084Z" transform="translate(-1088.792 1072.597)" fill="#d7d7ff"/>
          </g>
          <g id="Group_10051" data-name="Group 10051" transform="translate(33.618)">
            <path id="Path_17768" data-name="Path 17768" d="M1207.059-1157.519h4.48a.579.579,0,0,0,.559-.5l.037-.3a.431.431,0,0,0-.436-.5h-4.48a.579.579,0,0,0-.559.5l-.037.3A.431.431,0,0,0,1207.059-1157.519Z" transform="translate(-1206.619 1158.813)" fill="#d7d7ff"/>
          </g>
          <g id="Group_10052" data-name="Group 10052" transform="translate(19.755 5.581)">
            <path id="Path_17769" data-name="Path 17769" d="M1157.008-1121.921l-.028,0a.239.239,0,0,1-.208-.3l3.669-16.27a.317.317,0,0,1,.331-.245.239.239,0,0,1,.208.3l-3.669,16.27A.32.32,0,0,1,1157.008-1121.921Z" transform="translate(-1156.765 1138.741)" fill="#d7d7ff"/>
          </g>
          <g id="Group_10053" data-name="Group 10053" transform="translate(15.838 5.845)">
            <path id="Path_17770" data-name="Path 17770" d="M1142.921-1121.235h-.015a.238.238,0,0,1-.225-.289l2.789-16.006a.323.323,0,0,1,.32-.26.238.238,0,0,1,.225.289l-2.789,16.007A.32.32,0,0,1,1142.921-1121.235Z" transform="translate(-1142.678 1137.792)" fill="#d7d7ff"/>
          </g>
          <g id="Group_10054" data-name="Group 10054" transform="translate(11.923 6.108)">
            <path id="Path_17771" data-name="Path 17771" d="M1128.841-1120.551a.238.238,0,0,1-.241-.275l1.933-15.743a.32.32,0,0,1,.308-.275.238.238,0,0,1,.241.275l-1.933,15.743A.32.32,0,0,1,1128.841-1120.551Z" transform="translate(-1128.597 1136.844)" fill="#d7d7ff"/>
          </g>
          <g id="Group_10055" data-name="Group 10055" transform="translate(8.008 6.368)">
            <path id="Path_17772" data-name="Path 17772" d="M1114.76-1119.876a.238.238,0,0,1-.242-.261l1.1-15.483a.32.32,0,0,1,.3-.288.238.238,0,0,1,.256.26l-1.1,15.483a.32.32,0,0,1-.3.288Z" transform="translate(-1114.517 1135.909)" fill="#d7d7ff"/>
          </g>
          <g id="Group_10056" data-name="Group 10056" transform="translate(4.092 6.628)">
            <path id="Path_17773" data-name="Path 17773" d="M1100.674-1119.2a.237.237,0,0,1-.243-.247l.3-15.223a.32.32,0,0,1,.282-.3.238.238,0,0,1,.271.245l-.3,15.224a.319.319,0,0,1-.282.3Z" transform="translate(-1100.431 1134.976)" fill="#d7d7ff"/>
          </g>
          <g id="Group_10057" data-name="Group 10057" transform="translate(0.216 9.713)">
            <path id="Path_17774" data-name="Path 17774" d="M1114.2-1123.331h-27.461a.238.238,0,0,1-.241-.275.32.32,0,0,1,.309-.275h27.461a.238.238,0,0,1,.241.275A.32.32,0,0,1,1114.2-1123.331Z" transform="translate(-1086.491 1123.881)" fill="#d7d7ff"/>
          </g>
          <g id="Group_10058" data-name="Group 10058" transform="translate(0.531 13.864)">
            <path id="Path_17775" data-name="Path 17775" d="M1113.207-1108.4h-25.339a.238.238,0,0,1-.241-.275.319.319,0,0,1,.308-.275h25.338a.238.238,0,0,1,.241.275A.32.32,0,0,1,1113.207-1108.4Z" transform="translate(-1087.625 1108.95)" fill="#d7d7ff"/>
          </g>
          <g id="Group_10059" data-name="Group 10059" transform="translate(0.848 18.016)">
            <path id="Path_17776" data-name="Path 17776" d="M1112.221-1093.47h-23.214a.238.238,0,0,1-.241-.275.32.32,0,0,1,.309-.275h23.214a.238.238,0,0,1,.241.275A.32.32,0,0,1,1112.221-1093.47Z" transform="translate(-1088.764 1094.019)" fill="#d7d7ff"/>
          </g>
        </g>
        <g id="Group_10075" data-name="Group 10075" transform="translate(220.815 84.066)">
          <g id="Group_10061" data-name="Group 10061" transform="translate(19.733 29.451)">
            <path id="Path_17777" data-name="Path 17777" d="M1418.1-1033.13a2.1,2.1,0,0,0-2.024,1.8,1.562,1.562,0,0,0,1.581,1.8,2.1,2.1,0,0,0,2.024-1.8A1.562,1.562,0,0,0,1418.1-1033.13Zm-.332,2.7a.781.781,0,0,1-.79-.9,1.05,1.05,0,0,1,1.012-.9.783.783,0,0,1,.793.9A1.052,1.052,0,0,1,1417.77-1030.427Z" transform="translate(-1416.064 1033.13)" fill="#d7d7ff"/>
          </g>
          <g id="Group_10062" data-name="Group 10062" transform="translate(2.451 29.451)">
            <path id="Path_17778" data-name="Path 17778" d="M1355.949-1033.13a2.1,2.1,0,0,0-2.024,1.8,1.562,1.562,0,0,0,1.581,1.8,2.1,2.1,0,0,0,2.024-1.8A1.562,1.562,0,0,0,1355.949-1033.13Zm-.332,2.7a.783.783,0,0,1-.793-.9,1.053,1.053,0,0,1,1.015-.9.781.781,0,0,1,.79.9A1.049,1.049,0,0,1,1355.617-1030.427Z" transform="translate(-1353.912 1033.13)" fill="#d7d7ff"/>
          </g>
          <g id="Group_10063" data-name="Group 10063" transform="translate(0 0.192)">
            <path id="Path_17779" data-name="Path 17779" d="M1367.733-1116.152h-21.254a.236.236,0,0,1-.242-.221l-1.139-14.981a.3.3,0,0,1,.08-.222.315.315,0,0,1,.215-.106l29.431-1.619.742-1.705a5.546,5.546,0,0,1,4.975-3.355h2.057a.238.238,0,0,1,.241.275.32.32,0,0,1-.309.275h-2.057a4.908,4.908,0,0,0-4.4,2.969l-.819,1.881-.005.011-7.228,16.605A.32.32,0,0,1,1367.733-1116.152Zm-20.96-.549H1367.6l6.982-16.04-28.906,1.59Z" transform="translate(-1345.097 1138.361)" fill="#d7d7ff"/>
          </g>
          <g id="Group_10064" data-name="Group 10064" transform="translate(3.874 21.851)">
            <path id="Path_17780" data-name="Path 17780" d="M1377.53-1057.792h-18.258a.238.238,0,0,1-.241-.275.32.32,0,0,1,.308-.275h17.984l.227-1.846a.319.319,0,0,1,.308-.275.238.238,0,0,1,.241.275l-.261,2.121A.319.319,0,0,1,1377.53-1057.792Z" transform="translate(-1359.029 1060.462)" fill="#d7d7ff"/>
          </g>
          <g id="Group_10065" data-name="Group 10065" transform="translate(0.855 23.972)">
            <path id="Path_17781" data-name="Path 17781" d="M1372.152-1047.322h-23.736a.238.238,0,0,1-.241-.275.32.32,0,0,1,.309-.275h23.461l.2-1.621a2.422,2.422,0,0,0-2.451-2.794.238.238,0,0,1-.241-.275.32.32,0,0,1,.309-.275,2.9,2.9,0,0,1,2.932,3.343l-.233,1.9A.32.32,0,0,1,1372.152-1047.322Z" transform="translate(-1348.173 1052.835)" fill="#d7d7ff"/>
          </g>
          <g id="Group_10066" data-name="Group 10066" transform="translate(33.618)">
            <path id="Path_17782" data-name="Path 17782" d="M1466.442-1137.756h4.48a.579.579,0,0,0,.559-.5l.036-.3a.431.431,0,0,0-.436-.5h-4.48a.579.579,0,0,0-.559.5l-.037.3A.431.431,0,0,0,1466.442-1137.756Z" transform="translate(-1466.001 1139.05)" fill="#d7d7ff"/>
          </g>
          <g id="Group_10067" data-name="Group 10067" transform="translate(19.755 5.581)">
            <path id="Path_17783" data-name="Path 17783" d="M1416.39-1102.158h-.028a.239.239,0,0,1-.208-.3l3.669-16.27a.318.318,0,0,1,.332-.245.239.239,0,0,1,.208.3l-3.669,16.27A.32.32,0,0,1,1416.39-1102.158Z" transform="translate(-1416.147 1118.978)" fill="#d7d7ff"/>
          </g>
          <g id="Group_10068" data-name="Group 10068" transform="translate(15.838 5.845)">
            <path id="Path_17784" data-name="Path 17784" d="M1402.3-1101.473h-.014a.239.239,0,0,1-.225-.289l2.789-16.007a.322.322,0,0,1,.32-.26.238.238,0,0,1,.225.289l-2.789,16.007A.32.32,0,0,1,1402.3-1101.473Z" transform="translate(-1402.06 1118.029)" fill="#d7d7ff"/>
          </g>
          <g id="Group_10069" data-name="Group 10069" transform="translate(11.923 6.108)">
            <path id="Path_17785" data-name="Path 17785" d="M1388.223-1100.789a.238.238,0,0,1-.241-.275l1.933-15.743a.32.32,0,0,1,.309-.275.238.238,0,0,1,.241.275l-1.933,15.743A.319.319,0,0,1,1388.223-1100.789Z" transform="translate(-1387.979 1117.082)" fill="#d7d7ff"/>
          </g>
          <g id="Group_10070" data-name="Group 10070" transform="translate(8.009 6.368)">
            <path id="Path_17786" data-name="Path 17786" d="M1374.143-1100.115a.237.237,0,0,1-.242-.26l1.1-15.484a.319.319,0,0,1,.3-.288.238.238,0,0,1,.257.26l-1.1,15.483a.32.32,0,0,1-.3.289Z" transform="translate(-1373.9 1116.147)" fill="#d7d7ff"/>
          </g>
          <g id="Group_10071" data-name="Group 10071" transform="translate(4.092 6.628)">
            <path id="Path_17787" data-name="Path 17787" d="M1360.056-1099.44a.237.237,0,0,1-.243-.247l.3-15.223a.319.319,0,0,1,.282-.3.237.237,0,0,1,.271.245l-.3,15.224a.319.319,0,0,1-.282.3Z" transform="translate(-1359.813 1115.213)" fill="#d7d7ff"/>
          </g>
          <g id="Group_10072" data-name="Group 10072" transform="translate(0.216 9.713)">
            <path id="Path_17788" data-name="Path 17788" d="M1373.578-1103.569h-27.461a.238.238,0,0,1-.241-.275.32.32,0,0,1,.308-.275h27.461a.238.238,0,0,1,.241.275A.319.319,0,0,1,1373.578-1103.569Z" transform="translate(-1345.874 1104.118)" fill="#d7d7ff"/>
          </g>
          <g id="Group_10073" data-name="Group 10073" transform="translate(0.531 13.864)">
            <path id="Path_17789" data-name="Path 17789" d="M1372.589-1088.638h-25.338a.238.238,0,0,1-.241-.275.32.32,0,0,1,.308-.275h25.339a.238.238,0,0,1,.241.275A.32.32,0,0,1,1372.589-1088.638Z" transform="translate(-1347.007 1089.188)" fill="#d7d7ff"/>
          </g>
          <g id="Group_10074" data-name="Group 10074" transform="translate(0.848 18.016)">
            <path id="Path_17790" data-name="Path 17790" d="M1371.6-1073.708H1348.39a.238.238,0,0,1-.241-.275.32.32,0,0,1,.308-.275h23.214a.238.238,0,0,1,.241.275A.319.319,0,0,1,1371.6-1073.708Z" transform="translate(-1348.147 1074.257)" fill="#d7d7ff"/>
          </g>
        </g>
        <g id="Group_10090" data-name="Group 10090" transform="translate(287.442 84.066)">
          <g id="Group_10076" data-name="Group 10076" transform="translate(19.733 29.451)">
            <path id="Path_17791" data-name="Path 17791" d="M1657.722-1033.13a2.1,2.1,0,0,0-2.024,1.8,1.562,1.562,0,0,0,1.581,1.8,2.1,2.1,0,0,0,2.024-1.8A1.562,1.562,0,0,0,1657.722-1033.13Zm-.332,2.7a.781.781,0,0,1-.79-.9,1.049,1.049,0,0,1,1.012-.9.783.783,0,0,1,.793.9A1.052,1.052,0,0,1,1657.39-1030.427Z" transform="translate(-1655.685 1033.13)" fill="#d7d7ff"/>
          </g>
          <g id="Group_10077" data-name="Group 10077" transform="translate(2.451 29.451)">
            <path id="Path_17792" data-name="Path 17792" d="M1595.569-1033.13a2.1,2.1,0,0,0-2.024,1.8,1.562,1.562,0,0,0,1.581,1.8,2.1,2.1,0,0,0,2.024-1.8A1.562,1.562,0,0,0,1595.569-1033.13Zm-.332,2.7a.783.783,0,0,1-.793-.9,1.052,1.052,0,0,1,1.015-.9.781.781,0,0,1,.79.9A1.049,1.049,0,0,1,1595.237-1030.427Z" transform="translate(-1593.531 1033.13)" fill="#d7d7ff"/>
          </g>
          <g id="Group_10078" data-name="Group 10078" transform="translate(0 0.192)">
            <path id="Path_17793" data-name="Path 17793" d="M1607.353-1116.152H1586.1a.236.236,0,0,1-.242-.221l-1.139-14.981a.3.3,0,0,1,.08-.222.315.315,0,0,1,.215-.106l29.431-1.619.742-1.705a5.546,5.546,0,0,1,4.975-3.355h2.057a.238.238,0,0,1,.241.275.32.32,0,0,1-.309.275h-2.057a4.909,4.909,0,0,0-4.4,2.969l-.819,1.881,0,.011-7.228,16.605A.321.321,0,0,1,1607.353-1116.152Zm-20.961-.549h20.826l6.982-16.04-28.906,1.59Z" transform="translate(-1584.717 1138.361)" fill="#d7d7ff"/>
          </g>
          <g id="Group_10079" data-name="Group 10079" transform="translate(3.874 21.851)">
            <path id="Path_17794" data-name="Path 17794" d="M1617.15-1057.792h-18.258a.238.238,0,0,1-.241-.275.32.32,0,0,1,.309-.275h17.983l.227-1.846a.32.32,0,0,1,.308-.275.238.238,0,0,1,.241.275l-.26,2.121A.32.32,0,0,1,1617.15-1057.792Z" transform="translate(-1598.648 1060.462)" fill="#d7d7ff"/>
          </g>
          <g id="Group_10080" data-name="Group 10080" transform="translate(0.855 23.972)">
            <path id="Path_17795" data-name="Path 17795" d="M1611.772-1047.322h-23.736a.238.238,0,0,1-.241-.275.32.32,0,0,1,.309-.275h23.461l.2-1.621a2.422,2.422,0,0,0-2.451-2.794.238.238,0,0,1-.241-.275.32.32,0,0,1,.308-.275,2.9,2.9,0,0,1,2.933,3.343l-.233,1.9A.32.32,0,0,1,1611.772-1047.322Z" transform="translate(-1587.793 1052.835)" fill="#d7d7ff"/>
          </g>
          <g id="Group_10081" data-name="Group 10081" transform="translate(33.618)">
            <path id="Path_17796" data-name="Path 17796" d="M1706.062-1137.756h4.48a.579.579,0,0,0,.558-.5l.037-.3a.431.431,0,0,0-.436-.5h-4.48a.579.579,0,0,0-.559.5l-.037.3A.431.431,0,0,0,1706.062-1137.756Z" transform="translate(-1705.621 1139.05)" fill="#d7d7ff"/>
          </g>
          <g id="Group_10082" data-name="Group 10082" transform="translate(19.755 5.581)">
            <path id="Path_17797" data-name="Path 17797" d="M1656.01-1102.158h-.028a.239.239,0,0,1-.208-.3l3.669-16.27a.317.317,0,0,1,.331-.245.239.239,0,0,1,.208.3l-3.669,16.27A.321.321,0,0,1,1656.01-1102.158Z" transform="translate(-1655.766 1118.978)" fill="#d7d7ff"/>
          </g>
          <g id="Group_10083" data-name="Group 10083" transform="translate(15.838 5.845)">
            <path id="Path_17798" data-name="Path 17798" d="M1641.923-1101.473h-.015a.238.238,0,0,1-.224-.289l2.789-16.007a.322.322,0,0,1,.32-.26.238.238,0,0,1,.225.289l-2.788,16.007A.321.321,0,0,1,1641.923-1101.473Z" transform="translate(-1641.68 1118.029)" fill="#d7d7ff"/>
          </g>
          <g id="Group_10084" data-name="Group 10084" transform="translate(11.923 6.108)">
            <path id="Path_17799" data-name="Path 17799" d="M1627.843-1100.789a.238.238,0,0,1-.241-.275l1.933-15.743a.32.32,0,0,1,.309-.275.238.238,0,0,1,.241.275l-1.933,15.743A.319.319,0,0,1,1627.843-1100.789Z" transform="translate(-1627.599 1117.082)" fill="#d7d7ff"/>
          </g>
          <g id="Group_10085" data-name="Group 10085" transform="translate(8.008 6.368)">
            <path id="Path_17800" data-name="Path 17800" d="M1613.762-1100.115a.237.237,0,0,1-.242-.26l1.105-15.484a.32.32,0,0,1,.3-.288.238.238,0,0,1,.257.26l-1.105,15.483a.32.32,0,0,1-.3.289Z" transform="translate(-1613.52 1116.147)" fill="#d7d7ff"/>
          </g>
          <g id="Group_10086" data-name="Group 10086" transform="translate(4.092 6.628)">
            <path id="Path_17801" data-name="Path 17801" d="M1599.676-1099.44a.237.237,0,0,1-.243-.247l.3-15.223a.319.319,0,0,1,.282-.3.238.238,0,0,1,.272.245l-.3,15.224a.32.32,0,0,1-.282.3Z" transform="translate(-1599.433 1115.213)" fill="#d7d7ff"/>
          </g>
          <g id="Group_10087" data-name="Group 10087" transform="translate(0.216 9.713)">
            <path id="Path_17802" data-name="Path 17802" d="M1613.2-1103.569h-27.461a.238.238,0,0,1-.241-.275.32.32,0,0,1,.309-.275h27.461a.238.238,0,0,1,.241.275A.319.319,0,0,1,1613.2-1103.569Z" transform="translate(-1585.494 1104.118)" fill="#d7d7ff"/>
          </g>
          <g id="Group_10088" data-name="Group 10088" transform="translate(0.531 13.864)">
            <path id="Path_17803" data-name="Path 17803" d="M1612.209-1088.638H1586.87a.238.238,0,0,1-.241-.275.319.319,0,0,1,.308-.275h25.339a.238.238,0,0,1,.241.275A.319.319,0,0,1,1612.209-1088.638Z" transform="translate(-1586.628 1089.188)" fill="#d7d7ff"/>
          </g>
          <g id="Group_10089" data-name="Group 10089" transform="translate(0.848 18.016)">
            <path id="Path_17804" data-name="Path 17804" d="M1611.225-1073.708H1588.01a.238.238,0,0,1-.241-.275.32.32,0,0,1,.308-.275h23.214a.238.238,0,0,1,.241.275A.32.32,0,0,1,1611.225-1073.708Z" transform="translate(-1587.768 1074.257)" fill="#d7d7ff"/>
          </g>
        </g>
        <g id="Group_10091" data-name="Group 10091" transform="translate(354.823 157.053)">
          <path id="Path_17805" data-name="Path 17805" d="M1908.842-860.067h-76.93a4.759,4.759,0,0,1-4.82-5.495l.675-5.5a6.393,6.393,0,0,1,6.17-5.495h76.929a4.759,4.759,0,0,1,4.82,5.495l-.675,5.5A6.394,6.394,0,0,1,1908.842-860.067Z" transform="translate(-1827.051 876.552)" fill="#f0f2f7"/>
          <path id="Path_17806" data-name="Path 17806" d="M1927.345-849.1H1888.88a1.19,1.19,0,0,1-1.205-1.374h0a1.6,1.6,0,0,1,1.542-1.374h38.465a1.189,1.189,0,0,1,1.205,1.374h0A1.6,1.6,0,0,1,1927.345-849.1Z" transform="translate(-1870.811 858.718)" fill="#d7d7ff"/>
          <path id="Path_17807" data-name="Path 17807" d="M2094.438-852.391h-8.752c-.618,0-1.044-.615-.95-1.374l.253-2.063h0c.1-.773.183-1.487.253-2.061a1.47,1.47,0,0,1,1.287-1.371h8.752c.618,0,1.043.615.95,1.374l-.253,2.058h0c-.095.775-.183,1.49-.253,2.065A1.471,1.471,0,0,1,2094.438-852.391Z" transform="translate(-2013.077 864.068)" fill="none" stroke="#d7d7ff" stroke-width="1.976"/>
          <path id="Path_17808" data-name="Path 17808" d="M1854.978-855.826a4,4,0,0,1-3.856,3.434,2.974,2.974,0,0,1-3.013-3.434,4,4,0,0,1,3.856-3.434A2.974,2.974,0,0,1,1854.978-855.826Z" transform="translate(-1842.235 864.068)" fill="#fff"/>
          <ellipse id="Ellipse_217" data-name="Ellipse 217" cx="1.461" cy="1.292" rx="1.461" ry="1.292" transform="matrix(0.728, -0.685, 0.685, 0.728, 7.359, 8.302)" fill="#d7d7ff"/>
        </g>
        <g id="Group_10092" data-name="Group 10092" transform="translate(352.293 177.66)">
          <path id="Path_17809" data-name="Path 17809" d="M1899.743-785.958h-76.929a4.759,4.759,0,0,1-4.82-5.495l.674-5.5a6.393,6.393,0,0,1,6.17-5.495h76.93a4.759,4.759,0,0,1,4.82,5.495l-.675,5.5A6.393,6.393,0,0,1,1899.743-785.958Z" transform="translate(-1817.952 802.443)" fill="#f0f2f7"/>
          <path id="Path_17810" data-name="Path 17810" d="M1918.245-774.993H1879.78a1.19,1.19,0,0,1-1.205-1.374h0a1.6,1.6,0,0,1,1.543-1.374h38.465a1.19,1.19,0,0,1,1.205,1.374h0A1.6,1.6,0,0,1,1918.245-774.993Z" transform="translate(-1861.711 784.609)" fill="#d7d7ff"/>
          <path id="Path_17811" data-name="Path 17811" d="M2085.339-778.282h-8.752c-.618,0-1.043-.615-.95-1.374l.253-2.063h0l.253-2.061a1.471,1.471,0,0,1,1.288-1.371h8.752c.618,0,1.043.615.95,1.374l-.253,2.058h0c-.1.775-.183,1.49-.253,2.065A1.471,1.471,0,0,1,2085.339-778.282Z" transform="translate(-2003.978 789.959)" fill="none" stroke="#d7d7ff" stroke-width="1.976"/>
          <ellipse id="Ellipse_218" data-name="Ellipse 218" cx="3.652" cy="3.23" rx="3.652" ry="3.23" transform="translate(4.436 8.391) rotate(-43.243)" fill="#fff"/>
        </g>
        <g id="Group_10097" data-name="Group 10097" transform="translate(342.141 254.967)">
          <g id="Group_10093" data-name="Group 10093">
            <path id="Path_17812" data-name="Path 17812" d="M1792.465-500.893a9.954,9.954,0,0,1-7.591-3.3,10.036,10.036,0,0,1-2.357-8,13.1,13.1,0,0,1,12.647-11.231h65.869a9.955,9.955,0,0,1,7.592,3.295,10.037,10.037,0,0,1,2.357,8,13.1,13.1,0,0,1-12.647,11.231Z" transform="translate(-1782.156 523.698)" fill="#36ccc4"/>
            <path id="Path_17813" data-name="Path 17813" d="M1868.117-521.023a10.226,10.226,0,0,0-7.8-3.388h-65.87a13.387,13.387,0,0,0-12.92,11.472,10.308,10.308,0,0,0,2.424,8.219,10.225,10.225,0,0,0,7.8,3.388h65.869a13.387,13.387,0,0,0,12.92-11.473A10.308,10.308,0,0,0,1868.117-521.023Zm1.878,8.152h0a12.807,12.807,0,0,1-12.374,10.99h-65.869a9.532,9.532,0,0,1-9.676-10.99h0a12.806,12.806,0,0,1,12.374-10.99h65.87A9.532,9.532,0,0,1,1869.995-512.872Z" transform="translate(-1781.442 524.411)" fill="#fff"/>
          </g>
          <g id="Group_10094" data-name="Group 10094" transform="translate(24.868 9.369)">
            <path id="Path_17814" data-name="Path 17814" d="M1871.377-490.529h1.869a1.331,1.331,0,0,1,.991.335,1.077,1.077,0,0,1,.255.935,1.367,1.367,0,0,1-.484.935,1.646,1.646,0,0,1-1.074.335h-.969l-.188,1.529h-.9Zm1.526,1.858q.675,0,.747-.583a.5.5,0,0,0-.113-.444.692.692,0,0,0-.49-.144h-.854l-.144,1.171Z" transform="translate(-1870.877 490.581)" fill="#fff"/>
            <path id="Path_17815" data-name="Path 17815" d="M1885.073-486.461l-.276-.9H1882.9l-.5.9h-.906l2.369-4.068h.721l1.37,4.068Zm-1.791-1.581h1.3l-.465-1.523Z" transform="translate(-1878.548 490.581)" fill="#fff"/>
            <path id="Path_17816" data-name="Path 17816" d="M1900.552-490.529l-1.958,2.227-.226,1.84h-.9l.226-1.84-1.406-2.227h1.021l.917,1.506,1.3-1.506Z" transform="translate(-1889.223 490.581)" fill="#fff"/>
            <path id="Path_17817" data-name="Path 17817" d="M1919.177-490.529h.842l-.5,4.068h-.669l-1.707-2.591-.318,2.591h-.837l.5-4.068h.663l1.708,2.579Z" transform="translate(-1903.446 490.581)" fill="#fff"/>
            <path id="Path_17818" data-name="Path 17818" d="M1932.725-486.8a1.453,1.453,0,0,1-.6-.727,2.248,2.248,0,0,1-.106-1.1,2.621,2.621,0,0,1,.378-1.1,2.056,2.056,0,0,1,.778-.724,2.276,2.276,0,0,1,1.084-.254,1.926,1.926,0,0,1,1.022.254,1.439,1.439,0,0,1,.6.724,2.252,2.252,0,0,1,.107,1.1,2.621,2.621,0,0,1-.378,1.1,2.079,2.079,0,0,1-.779.727,2.26,2.26,0,0,1-1.084.257A1.909,1.909,0,0,1,1932.725-486.8Zm1.95-.8a1.79,1.79,0,0,0,.418-1.033,1.479,1.479,0,0,0-.162-1.03.858.858,0,0,0-.758-.355,1.1,1.1,0,0,0-.843.355,1.8,1.8,0,0,0-.412,1.03,1.493,1.493,0,0,0,.162,1.033.849.849,0,0,0,.752.358A1.106,1.106,0,0,0,1934.675-487.6Z" transform="translate(-1915.001 490.716)" fill="#fff"/>
            <path id="Path_17819" data-name="Path 17819" d="M1953.6-490.529h.854l-1.948,4.068h-.721l-.609-2.694-1.283,2.694h-.721l-.943-4.068h.911l.584,2.81,1.332-2.81h.629l.6,2.839Z" transform="translate(-1926.72 490.581)" fill="#fff"/>
          </g>
          <g id="Group_10096" data-name="Group 10096" transform="translate(57.092 8.191)">
            <path id="Path_17820" data-name="Path 17820" d="M1993.493-491.6a3.9,3.9,0,0,1-3.76,3.349,2.9,2.9,0,0,1-2.937-3.349,3.9,3.9,0,0,1,3.76-3.348A2.9,2.9,0,0,1,1993.493-491.6Z" transform="translate(-1986.77 494.952)" fill="#fff"/>
            <g id="Group_10095" data-name="Group 10095" transform="translate(1.425 1.896)">
              <path id="Path_17821" data-name="Path 17821" d="M1993.163-485.229h-.025a.412.412,0,0,1-.284-.14l-.857-.977a.413.413,0,0,1,.038-.582.413.413,0,0,1,.582.038l.583.664,2.027-1.805a.413.413,0,0,1,.582.034.412.412,0,0,1-.034.582l-2.337,2.081A.412.412,0,0,1,1993.163-485.229Z" transform="translate(-1991.895 488.135)" fill="#36ccc4"/>
            </g>
          </g>
        </g>
        <g id="Group_10100" data-name="Group 10100" transform="translate(135.863 188.909)">
          <ellipse id="Ellipse_219" data-name="Ellipse 219" cx="8.764" cy="7.752" rx="8.764" ry="7.752" transform="translate(0 12.008) rotate(-43.243)" fill="#d7d7ff"/>
          <g id="Group_10098" data-name="Group 10098" transform="translate(25 6.843)">
            <path id="Path_17822" data-name="Path 17822" d="M1172.2-734.627h-38.465a1.19,1.19,0,0,1-1.2-1.374h0a1.6,1.6,0,0,1,1.542-1.374h38.465a1.19,1.19,0,0,1,1.205,1.374h0A1.6,1.6,0,0,1,1172.2-734.627Z" transform="translate(-1131.673 737.374)" fill="#d7d7ff"/>
            <path id="Path_17823" data-name="Path 17823" d="M1155.426-709.924H1130.7a1.19,1.19,0,0,1-1.205-1.374h0a1.6,1.6,0,0,1,1.543-1.374h24.727a1.19,1.19,0,0,1,1.205,1.374h0A1.6,1.6,0,0,1,1155.426-709.924Z" transform="translate(-1129.482 719.54)" fill="#f0f2f7"/>
          </g>
          <g id="Group_10099" data-name="Group 10099" transform="translate(128.874 6.843)">
            <path id="Path_17824" data-name="Path 17824" d="M1504.278-734.627h38.465a1.6,1.6,0,0,0,1.542-1.374h0a1.19,1.19,0,0,0-1.2-1.374h-38.465a1.6,1.6,0,0,0-1.542,1.374h0A1.19,1.19,0,0,0,1504.278-734.627Z" transform="translate(-1503.062 737.374)" fill="#d7d7ff"/>
            <path id="Path_17825" data-name="Path 17825" d="M1550.651-709.924h24.727a1.6,1.6,0,0,0,1.542-1.374h0a1.19,1.19,0,0,0-1.205-1.374h-24.727a1.6,1.6,0,0,0-1.542,1.374h0A1.189,1.189,0,0,0,1550.651-709.924Z" transform="translate(-1536.541 719.54)" fill="#f0f2f7"/>
          </g>
        </g>
        <g id="Group_10103" data-name="Group 10103" transform="translate(132.827 213.636)">
          <ellipse id="Ellipse_220" data-name="Ellipse 220" cx="8.764" cy="7.752" rx="8.764" ry="7.752" transform="matrix(0.728, -0.685, 0.685, 0.728, 0, 12.008)" fill="#d7d7ff"/>
          <g id="Group_10101" data-name="Group 10101" transform="translate(25 6.843)">
            <path id="Path_17826" data-name="Path 17826" d="M1161.277-645.7h-38.465a1.19,1.19,0,0,1-1.205-1.374h0a1.6,1.6,0,0,1,1.542-1.374h38.465a1.19,1.19,0,0,1,1.205,1.374h0A1.6,1.6,0,0,1,1161.277-645.7Z" transform="translate(-1120.753 648.443)" fill="#d7d7ff"/>
            <path id="Path_17827" data-name="Path 17827" d="M1144.506-620.992h-24.727a1.19,1.19,0,0,1-1.205-1.374h0a1.6,1.6,0,0,1,1.542-1.374h24.728a1.19,1.19,0,0,1,1.205,1.374h0A1.6,1.6,0,0,1,1144.506-620.992Z" transform="translate(-1118.563 630.609)" fill="#f0f2f7"/>
          </g>
          <g id="Group_10102" data-name="Group 10102" transform="translate(128.874 6.843)">
            <path id="Path_17828" data-name="Path 17828" d="M1493.358-645.7h38.465a1.6,1.6,0,0,0,1.542-1.374h0a1.19,1.19,0,0,0-1.2-1.374H1493.7a1.6,1.6,0,0,0-1.543,1.374h0A1.19,1.19,0,0,0,1493.358-645.7Z" transform="translate(-1492.142 648.443)" fill="#d7d7ff"/>
            <path id="Path_17829" data-name="Path 17829" d="M1539.731-620.992h24.727a1.6,1.6,0,0,0,1.543-1.374h0a1.19,1.19,0,0,0-1.2-1.374h-24.727a1.6,1.6,0,0,0-1.543,1.374h0A1.19,1.19,0,0,0,1539.731-620.992Z" transform="translate(-1525.621 630.609)" fill="#f0f2f7"/>
          </g>
        </g>
        <g id="Group_10106" data-name="Group 10106" transform="translate(129.791 238.364)">
          <ellipse id="Ellipse_221" data-name="Ellipse 221" cx="8.764" cy="7.752" rx="8.764" ry="7.752" transform="matrix(0.728, -0.685, 0.685, 0.728, 0, 12.008)" fill="#d7d7ff"/>
          <g id="Group_10104" data-name="Group 10104" transform="translate(25 6.843)">
            <path id="Path_17830" data-name="Path 17830" d="M1150.357-556.765h-38.465a1.19,1.19,0,0,1-1.205-1.374h0a1.6,1.6,0,0,1,1.542-1.374h38.465a1.19,1.19,0,0,1,1.205,1.374h0A1.6,1.6,0,0,1,1150.357-556.765Z" transform="translate(-1109.834 559.512)" fill="#d7d7ff"/>
            <path id="Path_17831" data-name="Path 17831" d="M1133.587-532.061H1108.86a1.19,1.19,0,0,1-1.205-1.374h0a1.6,1.6,0,0,1,1.542-1.374h24.728a1.19,1.19,0,0,1,1.2,1.374h0A1.6,1.6,0,0,1,1133.587-532.061Z" transform="translate(-1107.644 541.678)" fill="#f0f2f7"/>
          </g>
          <g id="Group_10105" data-name="Group 10105" transform="translate(128.874 6.843)">
            <path id="Path_17832" data-name="Path 17832" d="M1482.439-556.765H1520.9a1.6,1.6,0,0,0,1.543-1.374h0a1.19,1.19,0,0,0-1.205-1.374h-38.465a1.6,1.6,0,0,0-1.542,1.374h0A1.19,1.19,0,0,0,1482.439-556.765Z" transform="translate(-1481.223 559.512)" fill="#d7d7ff"/>
            <path id="Path_17833" data-name="Path 17833" d="M1528.812-532.061h24.727a1.6,1.6,0,0,0,1.542-1.374h0a1.19,1.19,0,0,0-1.205-1.374h-24.727a1.6,1.6,0,0,0-1.542,1.374h0A1.19,1.19,0,0,0,1528.812-532.061Z" transform="translate(-1514.702 541.678)" fill="#f0f2f7"/>
          </g>
        </g>
        <g id="Group_10109" data-name="Group 10109" transform="translate(126.755 263.091)">
          <ellipse id="Ellipse_222" data-name="Ellipse 222" cx="8.764" cy="7.752" rx="8.764" ry="7.752" transform="translate(0 12.008) rotate(-43.243)" fill="#d7d7ff"/>
          <g id="Group_10107" data-name="Group 10107" transform="translate(25 6.843)">
            <path id="Path_17834" data-name="Path 17834" d="M1139.438-467.833h-38.465a1.19,1.19,0,0,1-1.205-1.374h0a1.6,1.6,0,0,1,1.543-1.374h38.465a1.189,1.189,0,0,1,1.205,1.374h0A1.6,1.6,0,0,1,1139.438-467.833Z" transform="translate(-1098.914 470.581)" fill="#d7d7ff"/>
            <path id="Path_17835" data-name="Path 17835" d="M1122.667-443.13H1097.94a1.19,1.19,0,0,1-1.205-1.374h0a1.6,1.6,0,0,1,1.543-1.374h24.728a1.19,1.19,0,0,1,1.2,1.374h0A1.6,1.6,0,0,1,1122.667-443.13Z" transform="translate(-1096.724 452.747)" fill="#f0f2f7"/>
          </g>
          <g id="Group_10108" data-name="Group 10108" transform="translate(128.874 6.843)">
            <path id="Path_17836" data-name="Path 17836" d="M1471.52-467.833h38.465a1.6,1.6,0,0,0,1.542-1.374h0a1.19,1.19,0,0,0-1.2-1.374h-38.465a1.6,1.6,0,0,0-1.542,1.374h0A1.19,1.19,0,0,0,1471.52-467.833Z" transform="translate(-1470.304 470.581)" fill="#d7d7ff"/>
            <path id="Path_17837" data-name="Path 17837" d="M1517.893-443.13h24.727a1.6,1.6,0,0,0,1.542-1.374h0a1.19,1.19,0,0,0-1.205-1.374H1518.23a1.6,1.6,0,0,0-1.542,1.374h0A1.19,1.19,0,0,0,1517.893-443.13Z" transform="translate(-1503.783 452.747)" fill="#f0f2f7"/>
          </g>
        </g>
        <g id="Group_10110" data-name="Group 10110" transform="translate(29.41 192.332)">
          <path id="Path_17838" data-name="Path 17838" d="M715-695.349H657.929a1.19,1.19,0,0,1-1.205-1.374l6.333-51.578a1.6,1.6,0,0,1,1.542-1.374h57.073a1.19,1.19,0,0,1,1.205,1.374l-6.333,51.578A1.6,1.6,0,0,1,715-695.349Z" transform="translate(-656.713 749.674)" fill="#d7d7ff"/>
          <path id="Path_17839" data-name="Path 17839" d="M725.2-646.156H675.714a.576.576,0,0,1-.583-.665l1.467-11.945,14.932-10.6,11.6,7.364,11.852-11.652,12.529,14.119-1.561,12.709A.773.773,0,0,1,725.2-646.156Z" transform="translate(-670.006 694.788)" fill="#fff"/>
          <ellipse id="Ellipse_223" data-name="Ellipse 223" cx="3.126" cy="2.765" rx="3.126" ry="2.765" transform="matrix(0.728, -0.685, 0.685, 0.728, 30.325, 15.807)" fill="#fff"/>
        </g>
        <path id="Path_17840" data-name="Path 17840" d="M1017.108-1441.389H594a9.59,9.59,0,0,0-9.254,8.242L551.006-1158.4a7.138,7.138,0,0,0,7.23,8.242H981.349a9.59,9.59,0,0,0,9.255-8.242l33.735-274.749A7.138,7.138,0,0,0,1017.108-1441.389Zm6.412,8.142L989.786-1158.5a8.755,8.755,0,0,1-8.437,7.519H558.236a6.416,6.416,0,0,1-4.9-2.114,6.522,6.522,0,0,1-1.517-5.2l33.735-274.748a8.755,8.755,0,0,1,8.436-7.519h423.113a6.416,6.416,0,0,1,4.9,2.114A6.522,6.522,0,0,1,1023.52-1433.247Z" transform="translate(-550.943 1441.389)" fill="#806eff"/>
        <g id="woocommerce" transform="translate(-2626.478 589.294)">
          <path id="Path_16153" data-name="Path 16153" d="M3015.37-539.159l50.123-.771c3.169-.05,5.437,2.214,5.067,5.055v0l-2.247,17.159c-.371,2.842-3.24,5.187-6.41,5.237h-.005l-17.976.276,1.76,5.38-10.141-5.251-23.742.365c-3.169.05-5.438-2.214-5.067-5.055v0l2.247-17.159c.357-2.832,3.207-5.175,6.366-5.235Z" transform="translate(0 0)" fill="#9b5c8f"/>
          <path id="Path_16154" data-name="Path 16154" d="M3011.377-535.207a2.452,2.452,0,0,1,1.669-.719,1.557,1.557,0,0,1,1.969,1.268,1.514,1.514,0,0,1-.009.315,107.414,107.414,0,0,0,.967,11.883l6.708-9.447a2.83,2.83,0,0,1,2.056-1.376c1.11-.083,1.7.534,1.8,1.854a34.9,34.9,0,0,0,1.372,7.636q2.1-8.57,4.922-12.4a2.309,2.309,0,0,1,1.782-1.012,2.092,2.092,0,0,1,1.517.425,1.449,1.449,0,0,1,.608,1.268,1.994,1.994,0,0,1-.391,1.082,28.668,28.668,0,0,0-3.49,8.141,39.94,39.94,0,0,0-1.822,8.564,2.7,2.7,0,0,1-.493,1.486,1.944,1.944,0,0,1-1.434.829,2.27,2.27,0,0,1-1.868-.8,18.068,18.068,0,0,1-4.28-9.478q-3.01,4.348-4.451,6.521c-1.809,2.559-3.231,3.881-4.291,3.963-.685.057-1.19-.451-1.548-1.521q-1.337-4.382-1.9-16.977a1.984,1.984,0,0,1,.6-1.51Zm53.332,2.7a4.762,4.762,0,0,0-3.664-2.543,6.892,6.892,0,0,0-1.34-.114,8.126,8.126,0,0,0-6.312,3.459,12.616,12.616,0,0,0-2.785,6.361,7.332,7.332,0,0,0,.62,4.427,4.762,4.762,0,0,0,3.663,2.542,7.105,7.105,0,0,0,1.34.114,8.062,8.062,0,0,0,6.325-3.458,12.733,12.733,0,0,0,2.779-6.384,6.984,6.984,0,0,0-.619-4.4Zm-3.97,6.267a6.955,6.955,0,0,1-2.336,3.352,2.915,2.915,0,0,1-2.122.749c-.584-.1-1.024-.567-1.286-1.439a4.849,4.849,0,0,1-.183-2.035,7.569,7.569,0,0,1,.389-1.641,8.288,8.288,0,0,1,1.677-2.693c.969-1.109,1.905-1.575,2.785-1.432.586.1,1.025.567,1.286,1.439a4.858,4.858,0,0,1,.183,2.036,7.6,7.6,0,0,1-.393,1.664Zm-11.7-6.027a4.807,4.807,0,0,0-3.664-2.542,7.1,7.1,0,0,0-1.34-.114,8.128,8.128,0,0,0-6.312,3.46,12.6,12.6,0,0,0-2.783,6.363,7.335,7.335,0,0,0,.619,4.426,4.767,4.767,0,0,0,3.671,2.539,6.893,6.893,0,0,0,1.34.114,8.053,8.053,0,0,0,6.323-3.457,12.754,12.754,0,0,0,2.785-6.383,7.159,7.159,0,0,0-.632-4.405ZM3045.043-526a6.962,6.962,0,0,1-2.336,3.351,2.909,2.909,0,0,1-2.122.75c-.585-.1-1.024-.567-1.286-1.439a4.851,4.851,0,0,1-.182-2.035,7.554,7.554,0,0,1,.389-1.641,8.292,8.292,0,0,1,1.677-2.693c.969-1.109,1.9-1.575,2.785-1.433.585.1,1.025.567,1.286,1.439a4.85,4.85,0,0,1,.184,2.036,6.355,6.355,0,0,1-.393,1.664Z" transform="translate(1.162 0.773)" fill="#fff"/>
        </g>
        <g id="WordPress_blue_logo" transform="translate(49.005 33.226)">
          <path id="Path_18065" data-name="Path 18065" d="M.614,4.667A11.57,11.57,0,0,0,.877,7.931a10.922,10.922,0,0,0,1.114,2.905,10.583,10.583,0,0,0,1.844,2.41,10.355,10.355,0,0,0,2.453,1.776L1.852.009Q1.589.543,1.377,1.1t-.37,1.145A12.05,12.05,0,0,0,.614,4.667Z" transform="translate(2.026 8.764)" fill="#21759b"/>
          <path id="Path_18066" data-name="Path 18066" d="M17.361,10.921a5.642,5.642,0,0,0-.03-.99,5.366,5.366,0,0,0-.172-.846,6.232,6.232,0,0,0-.259-.722c-.095-.222-.2-.428-.292-.619-.129-.237-.257-.464-.375-.688s-.226-.442-.316-.66a3.723,3.723,0,0,1-.209-.66,2.624,2.624,0,0,1-.054-.687,2.248,2.248,0,0,1,.182-.765,2.276,2.276,0,0,1,.426-.652,2.031,2.031,0,0,1,.622-.455A1.829,1.829,0,0,1,17.654,3h.037l.036,0,.036,0,.036,0A10.343,10.343,0,0,0,12.513.231,10.8,10.8,0,0,0,10.4.033,11.191,11.191,0,0,0,7.552.414,11.631,11.631,0,0,0,4.941,1.468,12.2,12.2,0,0,0,2.654,3.1,12.5,12.5,0,0,0,.787,5.218l.192.005.184,0,.175,0H1.5c.291,0,.622-.011.955-.025s.669-.033.968-.052.562-.038.75-.052l.3-.023a.418.418,0,0,1,.342.121.458.458,0,0,1,.119.308.523.523,0,0,1-.107.329.491.491,0,0,1-.337.184l-.106.012-.283.03c-.118.012-.257.024-.409.037s-.316.024-.484.033l3.345,12.44L9.438,11.02l-1.463-4.9c-.15-.009-.3-.02-.435-.031s-.264-.024-.372-.035l-.26-.029-.1-.012a.394.394,0,0,1-.318-.167.478.478,0,0,1-.069-.331A.545.545,0,0,1,6.579,5.2a.459.459,0,0,1,.357-.128l.3.022c.189.013.453.031.751.048s.631.035.957.048.648.021.923.021c.293,0,.626-.011.961-.025s.673-.033.974-.052.566-.038.755-.052l.3-.024a.423.423,0,0,1,.345.121.459.459,0,0,1,.121.309.522.522,0,0,1-.107.33A.494.494,0,0,1,12.882,6l-.106.012-.285.03c-.119.012-.259.024-.411.037s-.318.024-.487.033L14.96,18.5,16.3,14.65c.144-.4.279-.77.4-1.117s.232-.671.326-.976.171-.59.228-.862a5.113,5.113,0,0,0,.108-.775Z" transform="translate(4.053 1.928)" fill="#21759b"/>
          <path id="Path_18067" data-name="Path 18067" d="M3.964,0,.027,10.043q.37.116.752.205t.775.151q.393.061.8.094t.817.034q.491,0,.973-.039t.955-.122q.473-.081.934-.2t.909-.277l-.02-.038L6.9,9.81,6.885,9.77q-.008-.021-.015-.042Z" transform="translate(9.972 14.436)" fill="#21759b"/>
          <path id="Path_18068" data-name="Path 18068" d="M5.08,0Q5.09.14,5.1.283T5.1.574q0,.148,0,.3t-.012.312c-.016.292-.046.594-.093.907s-.112.639-.2.979-.192.7-.323,1.069-.286.764-.47,1.175L0,15.52a12.268,12.268,0,0,0,2.392-1.8,12.507,12.507,0,0,0,1.9-2.34,12.34,12.34,0,0,0,1.3-2.765,12.1,12.1,0,0,0,.573-3.078A11.825,11.825,0,0,0,6.15,4.053,11.392,11.392,0,0,0,5.958,2.63,11.09,11.09,0,0,0,5.6,1.276,10.878,10.878,0,0,0,5.08,0Z" transform="translate(18.886 7.897)" fill="#21759b"/>
          <path id="Path_18069" data-name="Path 18069" d="M14.556.067A13.143,13.143,0,0,0,9.44,1.139,14.168,14.168,0,0,0,5.154,4.01,14.583,14.583,0,0,0,2.128,8.248,14.144,14.144,0,0,0,.8,13.431a13.275,13.275,0,0,0,.708,5.2A12.5,12.5,0,0,0,4.04,22.894a12.1,12.1,0,0,0,3.97,2.9,12.27,12.27,0,0,0,5.022,1.086,13.122,13.122,0,0,0,5.162-1.037,14.158,14.158,0,0,0,4.344-2.881A14.582,14.582,0,0,0,25.6,18.675a14.136,14.136,0,0,0,1.321-5.244A13.252,13.252,0,0,0,26.167,8.2a12.487,12.487,0,0,0-2.589-4.257,12.1,12.1,0,0,0-4.007-2.852A12.287,12.287,0,0,0,14.556.067ZM13.067,26.261a11.707,11.707,0,0,1-4.791-1.035A11.544,11.544,0,0,1,4.487,22.46a11.932,11.932,0,0,1-2.416-4.071,12.666,12.666,0,0,1-.677-4.958A13.5,13.5,0,0,1,2.66,8.484,13.914,13.914,0,0,1,5.548,4.44,13.517,13.517,0,0,1,9.639,1.7,12.54,12.54,0,0,1,14.521.678a11.722,11.722,0,0,1,4.786.979,11.541,11.541,0,0,1,3.822,2.722A11.914,11.914,0,0,1,25.6,8.441a12.646,12.646,0,0,1,.72,4.99,13.49,13.49,0,0,1-1.261,5,13.914,13.914,0,0,1-2.921,4.088,13.508,13.508,0,0,1-4.144,2.749,12.519,12.519,0,0,1-4.924.991Z" fill="#21759b"/>
        </g>
      </g>
      <g id="Group_10113" data-name="Group 10113" transform="translate(533.636 -1351.99)">
        <path id="Path_17841" data-name="Path 17841" d="M928.5-417.116l-.395,9.947h7.231l.322-2.208a64.172,64.172,0,0,0,8.717.348,53.8,53.8,0,0,0,8.667-.965,1.083,1.083,0,0,0,.968-1.174h0a1.079,1.079,0,0,0-.645-.9c-1.611-.7-6.177-2.539-9.339-2.364-3.9.216-5.51.207-6.2-2.686Z" transform="translate(-906.674 693.127)" fill="#481aa0"/>
        <path id="Path_17842" data-name="Path 17842" d="M903.63-769.354s7.658,40.63,11.961,54.553c0,0,.76,24.555,0,34.175s-2.025,49.616-2.025,49.616h9.4s11.107-61.767,10.348-84.8-5.6-53.54-5.6-53.54Z" transform="translate(-891.811 907.021)" fill="#efb600"/>
        <path id="Path_17843" data-name="Path 17843" d="M961.455-763.07V-703.9c0,9.114-19,79.277-19,79.277l-9.885.1,10.72-79.63s-7.848-36.652-7.848-53.386Z" transform="translate(-909.386 903.205)" fill="#ffd13e"/>
        <path id="Path_17844" data-name="Path 17844" d="M902.412-912.871s-.536,11.058-.547,13.9c-.019,4.533,11.97,37.389,11.97,37.389v-13.083l1.64-33.289-1.64-6.329Z" transform="translate(-890.739 995.025)" fill="#feccc6"/>
        <path id="Path_17845" data-name="Path 17845" d="M1025.689-1075.706s7.816-1.424,11.36-3.133,32.023-25.5,32.023-25.5.38-5.063.506-6.708a6.6,6.6,0,0,1,1.835-3.828c.665-.633,1.487.253.917,1.455s-1.012,2.721-.158,2.531,4.4-6.439,6.012-8.29,1.282.427,0,2.468a17.151,17.151,0,0,0-1.8,3.8s1.867.791,1.551,2.531c0,0,1.894.443,1.342,1.93,0,0,2.05.237.1,2.611s-2.646,1.693-5.367,4.161-17.087,17.784-20.5,21.771-9.05,9.81-13.417,11.581-10.7,4.114-10.7,4.114Z" transform="translate(-965.93 1119.867)" fill="#feccc6"/>
        <g id="Group_10112" data-name="Group 10112" transform="translate(8.482 41.028)">
          <path id="Path_17846" data-name="Path 17846" d="M914.592-910.364c-13.728,0-15.015-6.658-15.124-7.536,9.371-18.145,6.475-52.546,6.444-52.892a.388.388,0,0,0-.138-.264.39.39,0,0,0-.249-.09l-.036,0c-2.051.189-3.81.285-5.227.285-3.645,0-4.081-.623-4.131-.748s.1-.308.147-.35a.4.4,0,0,0,.115-.213c.043-.241,4.428-24.142,9.256-30.827,3.629-5.025,9.547-5.075,15.813-5.128,2.009-.017,4.087-.035,6.121-.219,7.508-.683,19.244-4.913,21.541-5.762l4.634,16.285c-5.583,5.6-16.2,7.391-16.3,7.409a.388.388,0,0,0-.281.2.388.388,0,0,0-.007.347c4.7,9.93,3.091,18.669,1.675,26.38a64.38,64.38,0,0,0-1.237,9.039c-.359,9.506,1.161,36.061,1.317,38.742-1.105.738-7.841,4.8-22.776,5.312-.527.018-1.049.027-1.552.027Z" transform="translate(-895.734 1014.616)" fill="#fff"/>
          <path id="Path_17847" data-name="Path 17847" d="M936.917-990.818s10.981-1.8,16.677-7.681l-4.811-16.906s-13.48,5.126-21.834,5.886-17.277-1.329-22.213,5.506-9.324,30.985-9.324,30.985-1.907,1.768,4.251,1.768c1.339,0,3.058-.083,5.263-.287,0,0,3.038,34.554-6.455,52.781,0,0,.357,8,15.521,8,.506,0,1.027-.009,1.566-.027,16.708-.57,23.163-5.506,23.163-5.506s-1.708-28.858-1.329-38.921S943.562-976.769,936.917-990.818Zm1,74.123c-1.5.949-8.221,4.644-22.389,5.127-.522.018-1.04.027-1.54.027-7.471,0-11.089-2-12.808-3.683a6.263,6.263,0,0,1-1.916-3.394c3.923-7.657,6.2-18.874,6.766-33.343a174.313,174.313,0,0,0-.335-19.654.775.775,0,0,0-.276-.528.775.775,0,0,0-.5-.18.67.67,0,0,0-.071,0c-2.039.188-3.786.284-5.191.284-2.542,0-3.408-.311-3.68-.462a.69.69,0,0,0,.193-.391c.044-.24,4.412-24.055,9.189-30.669,3.514-4.866,9.337-4.914,15.5-4.967,2.017-.017,4.1-.034,6.153-.221,7.295-.663,18.208-4.523,21.247-5.638l4.456,15.66c-5.533,5.382-15.826,7.123-15.931,7.14a.776.776,0,0,0-.562.405.778.778,0,0,0-.015.693c4.643,9.817,3.05,18.49,1.644,26.143a64.748,64.748,0,0,0-1.244,9.094C936.265-945.947,937.707-920.38,937.92-916.695Z" transform="translate(-895.133 1015.405)" fill="#481aa0"/>
        </g>
        <path id="Path_17848" data-name="Path 17848" d="M936.553-1110.957s2.531,7.594,5.949,9.619,5.443,2.975,5.38,3.671-1.646,1.139-2.469,1.582-.253,4.24.823,5.38,2.152,6.012,0,6.519-5.316-.7-5.759.19.708,9.176,1.9,13.227a55.722,55.722,0,0,0,1.829,5.506l-11.582,3.924-5.126-20.948S913.137-1105.768,936.553-1110.957Z" transform="translate(-903.659 1114.456)" fill="#feccc6"/>
        <path id="Path_17849" data-name="Path 17849" d="M908.9-1098.775c-.756,5,5.506,17.467,6.17,24.682s-4.462,34.4-22.562,34.016-22.294-12.394-16.6-22.393,9.447-13.651,6.473-25.578c-2.634-10.562-1.811-30.414,15.5-30.414C906.866-1118.462,911.249-1114.31,908.9-1098.775Z" transform="translate(-873.537 1119.014)" fill="#481aa0"/>
        <path id="Path_17850" data-name="Path 17850" d="M932.417-410.463l-.1,9.954,7.2-.029.019-1.451a71.874,71.874,0,0,0,8.975,1.415,79.7,79.7,0,0,0,8.9-.036,1.084,1.084,0,0,0,1.09-1.062h0a1.08,1.08,0,0,0-.544-.962c-1.525-.871-5.865-3.2-9.028-3.364-3.9-.209-5.854-1.693-6.63-4.565Z" transform="translate(-909.231 689.148)" fill="#481aa0"/>
      </g>
      <g id="Group_10124" data-name="Group 10124" transform="translate(845.827 -1353.096)">
        <path id="Path_17851" data-name="Path 17851" d="M2253.439-1087.178a80.96,80.96,0,0,1,6.513-6.215c2.486-1.942,7.147-12.041,2.68-16.185,0,0-5.244-12.818-12.753-12.106,0,0-8.287-4.4-12.754-.647s-4.095,10.4-.817,12.029c0,0,7.326,3.961,12.844,2.8a29.322,29.322,0,0,1,1.892,9.516Z" transform="translate(-2144.299 1123.848)" fill="#481aa0"/>
        <path id="Path_17852" data-name="Path 17852" d="M2205.769-638.151h12.818V-788.085s-32.628,4.661-49.33,0l9.516,149.934h12.818l4.466-113.033Z" transform="translate(-2104.657 917.654)" fill="#36ccc4"/>
        <g id="Group_10114" data-name="Group 10114" transform="translate(64.219 44.137)">
          <path id="Path_17853" data-name="Path 17853" d="M2218.587-923.413s-.776-14.76,2.33-27.967,13.752-36.091,4.818-45.414-29.678-16.347-39-7.8-17.479,50.341-17.479,81.182C2169.257-923.413,2192.692-914.091,2218.587-923.413Z" transform="translate(-2168.876 1008.844)" fill="#fff"/>
          <path id="Path_17854" data-name="Path 17854" d="M2193.762-919.543a75.844,75.844,0,0,1-25.252-4.141.382.382,0,0,1-.24-.354c0-29.589,7.852-72.525,17.6-81.463,4.346-3.984,11.448-5.009,20-2.888,7.507,1.863,14.993,5.966,19.537,10.707,7.06,7.367,2.168,23-1.762,35.563-1.161,3.71-2.257,7.214-2.96,10.2-3.059,13-2.329,27.712-2.321,27.86a.381.381,0,0,1-.252.379A71.772,71.772,0,0,1,2193.762-919.543Zm-24.73-4.76c2.534.932,24.59,8.513,48.556,0-.086-2.122-.5-15.685,2.353-27.79.709-3.014,1.809-6.531,2.975-10.255,3.87-12.371,8.687-27.766,1.939-34.808-4.449-4.643-11.8-8.665-19.17-10.494-8.292-2.058-15.144-1.095-19.3,2.711-4.276,3.92-8.694,15.593-12.12,32.027A254.916,254.916,0,0,0,2169.032-924.3Z" transform="translate(-2168.269 1009.47)" fill="#481aa0"/>
        </g>
        <path id="Path_17855" data-name="Path 17855" d="M2096.694-998.459s-19.886,25.248-31.57,42.339c-10.552,15.434-42.49,19.162-42.49,19.162v7.833s38.843-1.619,49.2-14.566,35.781-45.252,35.781-45.252Z" transform="translate(-2014.614 1046.846)" fill="#fff"/>
        <path id="Path_17856" data-name="Path 17856" d="M2258.055-1029.013s-.373,2.589,3.946,3.783c4.477,1.237,7.082-.7,7.082-.7v-17.424h-11.065Z" transform="translate(-2159.165 1074.414)" fill="#feccc6"/>
        <path id="Path_17857" data-name="Path 17857" d="M2256.24-399.548v10.293H2230.6s-.453-3.107,1.943-3.3,9.386-3.107,10.876-6.992Z" transform="translate(-2142.309 679.051)" fill="#481aa0"/>
        <path id="Path_17858" data-name="Path 17858" d="M2186.283-399.548v10.293h-25.637s-.453-3.107,1.943-3.3,9.387-3.107,10.876-6.992Z" transform="translate(-2099.347 679.051)" fill="#481aa0"/>
        <path id="Path_17859" data-name="Path 17859" d="M2248.156-1067.258s-5.567,2.656-9.192,2.656-5.957-8.223-5.957-17.157,4.661-11.653,4.661-11.653,2.2,4.143,12.559,2.2c0,0,4.111,6.668,1.975,11.815l2.039.971s1.489-4.952,3.561-3.981,2.2,3.172.388,5.309-3.237,2.006-4.466,3.884S2251.169-1068.5,2248.156-1067.258Z" transform="translate(-2143.806 1105.157)" fill="#feccc6"/>
        <g id="Group_10115" data-name="Group 10115" transform="translate(7.638 48.005)">
          <path id="Path_17860" data-name="Path 17860" d="M2022.026-929.35a.38.38,0,0,1-.264-.107.381.381,0,0,1-.117-.275v-7.833a.381.381,0,0,1,.337-.379c.318-.037,31.888-3.886,42.22-19,11.558-16.906,31.386-42.107,31.585-42.359a.381.381,0,0,1,.536-.064.381.381,0,0,1,.064.535c-.2.253-20.012,25.433-31.555,42.318-9.944,14.544-38.961,18.821-42.424,19.283v7.1c4.124-.221,38.948-2.435,48.522-14.4,6.595-8.243,19.169-24.17,28.556-36.081a.381.381,0,0,1,.535-.063.381.381,0,0,1,.063.535c-9.388,11.911-21.963,27.84-28.559,36.084-10.348,12.934-47.89,14.643-49.483,14.709Z" transform="translate(-2021.644 999.447)" fill="#481aa0"/>
        </g>
        <g id="Group_10116" data-name="Group 10116" transform="translate(98.435 45.019)">
          <path id="Path_17861" data-name="Path 17861" d="M2264.555-1002.128a11.623,11.623,0,0,1-3.328-.528c-2.156-.644-3.521-1.541-4.057-2.665a2.107,2.107,0,0,1-.132-1.629.381.381,0,0,1,.5-.207.381.381,0,0,1,.207.5,1.384,1.384,0,0,0,.129,1.036c.31.625,1.182,1.522,3.575,2.237,4.6,1.373,6.621-.522,6.7-.6a.382.382,0,0,1,.539.006.38.38,0,0,1,0,.537A5.964,5.964,0,0,1,2264.555-1002.128Z" transform="translate(-2256.935 1007.186)" fill="#481aa0"/>
        </g>
        <g id="Group_10117" data-name="Group 10117" transform="translate(64.41 129.377)">
          <path id="Path_17862" data-name="Path 17862" d="M2191.742-784.621a68.311,68.311,0,0,1-22.854-3.588.191.191,0,0,1-.115-.244.191.191,0,0,1,.244-.115c22.326,7.99,48.945.078,49.211,0a.19.19,0,0,1,.238.127.19.19,0,0,1-.127.238A103,103,0,0,1,2191.742-784.621Z" transform="translate(-2168.762 788.581)" fill="#481aa0"/>
        </g>
        <g id="Group_10118" data-name="Group 10118" transform="translate(89.075 150.091)">
          <path id="Path_17863" data-name="Path 17863" d="M2235.008-718.334a.191.191,0,0,1-.189-.166l-2.136-16.188a.19.19,0,0,1,.164-.214.19.19,0,0,1,.214.164l2.136,16.188a.191.191,0,0,1-.164.214Z" transform="translate(-2232.68 734.903)" fill="#481aa0"/>
        </g>
        <g id="Group_10121" data-name="Group 10121" transform="translate(2.646 73.635)">
          <rect id="Rectangle_866" data-name="Rectangle 866" width="23.888" height="75.355" transform="translate(0)" fill="#efb600"/>
          <rect id="Rectangle_867" data-name="Rectangle 867" width="53.085" height="75.355" transform="translate(23.888)" fill="#ffc800"/>
          <rect id="Rectangle_868" data-name="Rectangle 868" width="6.121" height="75.355" transform="translate(53.492 75.355) rotate(180)" fill="#ffde8a"/>
          <rect id="Rectangle_869" data-name="Rectangle 869" width="6.121" height="53.085" transform="translate(76.974 34.617) rotate(90)" fill="#ffde8a"/>
          <rect id="Rectangle_870" data-name="Rectangle 870" width="6.121" height="23.888" transform="translate(23.888 34.617) rotate(90)" fill="#ffcd2c"/>
          <g id="Group_10120" data-name="Group 10120" transform="translate(37.861 25.108)">
            <circle id="Ellipse_224" data-name="Ellipse 224" cx="10.222" cy="10.222" r="10.222" transform="matrix(0.266, -0.964, 0.964, 0.266, 0, 19.71)" fill="#fff"/>
            <g id="Group_10119" data-name="Group 10119" transform="translate(8.421 9.442)">
              <path id="Path_17864" data-name="Path 17864" d="M2131.638-837.244a.95.95,0,0,1-.674-.279l-2.041-2.041a.953.953,0,0,1,0-1.348.953.953,0,0,1,1.348,0l1.367,1.367,3.676-3.676a.953.953,0,0,1,1.348,0,.953.953,0,0,1,0,1.348l-4.351,4.35A.95.95,0,0,1,2131.638-837.244Z" transform="translate(-2128.644 843.501)" fill="#36ccc4"/>
            </g>
          </g>
        </g>
        <g id="Group_10123" data-name="Group 10123" transform="translate(53.86 75.894)">
          <path id="Path_17865" data-name="Path 17865" d="M2225.362-918.182s-23.84,34.937-50.836,55.944l-4.437-4.657s33.932-43.851,43.272-59.294Z" transform="translate(-2159.027 926.57)" fill="#fff"/>
          <path id="Path_17866" data-name="Path 17866" d="M2156.922-767.879a13.813,13.813,0,0,0-2.329,5.464c-.335,2.74-4.576,9.133-10.186,5.394-5.391-3.594-2.387-7.557.521-10.744s5.633-2.425,7.559-4.771Z" transform="translate(-2141.423 832.211)" fill="#feccc6"/>
          <g id="Group_10122" data-name="Group 10122" transform="translate(10.681)">
            <path id="Path_17867" data-name="Path 17867" d="M2173.919-862.463a.379.379,0,0,1-.276-.119l-4.437-4.657a.382.382,0,0,1-.025-.5c.339-.438,34.024-44.01,43.248-59.257a.382.382,0,0,1,.523-.129.381.381,0,0,1,.129.524c-8.873,14.669-40.277,55.418-43.1,59.071l3.973,4.17c26.528-20.754,50.246-55.3,50.483-55.646a.382.382,0,0,1,.53-.1.38.38,0,0,1,.1.53c-.239.35-24.183,35.227-50.917,56.031A.382.382,0,0,1,2173.919-862.463Z" transform="translate(-2169.101 927.177)" fill="#481aa0"/>
          </g>
        </g>
        <path id="Path_17868" data-name="Path 17868" d="M2012.59-836.8c-1.821,2.292-5.781,1.938-9.095-.458-2.048-1.481-1.9-3.971-1.081-7.368.683-2.846,4.474-3.475,7.675-.93S2014.411-839.09,2012.59-836.8Z" transform="translate(-2001.852 953.928)" fill="#feccc6"/>
      </g>
      <g id="Group_10125" data-name="Group 10125" transform="translate(448.959 -1348.085)">
        <rect id="Rectangle_871" data-name="Rectangle 871" width="29.486" height="1.464" rx="0.732" transform="translate(0 4.393)" fill="#f0f2f7"/>
        <path id="Path_17869" data-name="Path 17869" d="M469.8-1104.361H449.691a.732.732,0,0,1-.732-.732h0a.732.732,0,0,1,.732-.732H469.8a.732.732,0,0,1,.732.732h0A.732.732,0,0,1,469.8-1104.361Z" transform="translate(-448.959 1105.825)" fill="#f0f2f7"/>
        <path id="Path_17870" data-name="Path 17870" d="M477.712-1072.763H449.691a.732.732,0,0,1-.732-.732h0a.732.732,0,0,1,.732-.732h28.021a.732.732,0,0,1,.732.732h0A.732.732,0,0,1,477.712-1072.763Z" transform="translate(-448.959 1083.013)" fill="#f0f2f7"/>
        <path id="Path_17871" data-name="Path 17871" d="M474.994-1056.963h-25.3a.732.732,0,0,1-.732-.732h0a.732.732,0,0,1,.732-.732h25.3a.732.732,0,0,1,.732.732h0A.732.732,0,0,1,474.994-1056.963Z" transform="translate(-448.959 1071.606)" fill="#f0f2f7"/>
      </g>
      <g id="Group_10126" data-name="Group 10126" transform="translate(984.582 -1396.826)">
        <path id="Path_17872" data-name="Path 17872" d="M2404.06-1263.855h-28.021a.732.732,0,0,1-.732-.732h0a.732.732,0,0,1,.732-.732h28.021a.733.733,0,0,1,.732.732h0A.733.733,0,0,1,2404.06-1263.855Z" transform="translate(-2375.307 1269.712)" fill="#f0f2f7"/>
        <path id="Path_17873" data-name="Path 17873" d="M2396.147-1279.655h-20.108a.732.732,0,0,1-.732-.732h0a.732.732,0,0,1,.732-.732h20.108a.732.732,0,0,1,.732.732h0A.732.732,0,0,1,2396.147-1279.655Z" transform="translate(-2375.307 1281.119)" fill="#f0f2f7"/>
        <path id="Path_17874" data-name="Path 17874" d="M2404.06-1248.056h-28.021a.732.732,0,0,1-.732-.732h0a.732.732,0,0,1,.732-.732h28.021a.733.733,0,0,1,.732.732h0A.732.732,0,0,1,2404.06-1248.056Z" transform="translate(-2375.307 1258.306)" fill="#f0f2f7"/>
        <path id="Path_17875" data-name="Path 17875" d="M2401.341-1232.256h-25.3a.732.732,0,0,1-.732-.732h0a.732.732,0,0,1,.732-.732h25.3a.732.732,0,0,1,.732.732h0A.732.732,0,0,1,2401.341-1232.256Z" transform="translate(-2375.307 1246.9)" fill="#f0f2f7"/>
      </g>
    </g>
  </g>
</svg>
