<svg xmlns="http://www.w3.org/2000/svg" xmlns:xlink="http://www.w3.org/1999/xlink" width="489.956" height="541" viewBox="0 0 489.956 541">
  <defs>
    <linearGradient id="linear-gradient" x1="-0.222" y1="0.5" x2="0.045" y2="0.5" gradientUnits="objectBoundingBox">
      <stop offset="0" stop-color="#c2c2c2"/>
      <stop offset="1" stop-color="#dedede"/>
    </linearGradient>
    <linearGradient id="linear-gradient-2" y1="0.5" x2="1" y2="0.5" gradientUnits="objectBoundingBox">
      <stop offset="0" stop-color="#d7e3f5"/>
      <stop offset="1" stop-color="#f2fffe"/>
    </linearGradient>
  </defs>
  <g id="Group_10281" data-name="Group 10281" transform="translate(-125.513 -90.761)">
    <g id="Group_10197" data-name="Group 10197" transform="translate(243.057 126.483)">
      <rect id="Rectangle_888" data-name="Rectangle 888" width="313.766" height="397.594" rx="10.049" transform="translate(313.766 397.594) rotate(180)" fill="url(#linear-gradient)"/>
    </g>
    <rect id="Rectangle_889" data-name="Rectangle 889" width="277.665" height="383.392" transform="translate(261.107 101.823)" fill="#fff"/>
    <rect id="Rectangle_890" data-name="Rectangle 890" width="68.101" height="58.804" transform="translate(284.483 161.5)" fill="#78c2ff"/>
    <rect id="Rectangle_891" data-name="Rectangle 891" width="80.25" height="9.641" transform="translate(373.633 160.554)" fill="#bfe2ff"/>
    <rect id="Rectangle_892" data-name="Rectangle 892" width="134.576" height="9.641" transform="translate(373.633 181.261)" fill="#bfe2ff"/>
    <rect id="Rectangle_893" data-name="Rectangle 893" width="68.101" height="58.804" transform="translate(284.483 249.707)" fill="#78c2ff"/>
    <rect id="Rectangle_894" data-name="Rectangle 894" width="101.609" height="9.641" transform="translate(373.633 248.76)" fill="#bfe2ff"/>
    <rect id="Rectangle_895" data-name="Rectangle 895" width="58.428" height="9.641" transform="translate(373.633 269.468)" fill="#bfe2ff"/>
    <path id="Path_17976" data-name="Path 17976" d="M200.909,90.761V128.1s7.445,10.521,16.333,0h16.333s7.445,10.521,16.333,0h16.333s7.445,10.521,16.333,0h16.333s7.445,10.521,16.333,0h16.333s7.445,10.521,16.333,0h16.335s7.444,10.521,16.331,0h16.333s7.445,10.521,16.333,0h16.333s7.444,10.521,16.333,0h16.333s7.444,10.521,16.333,0V90.761Z" transform="translate(60.198)" fill="#49aef0"/>
    <g id="Group_10198" data-name="Group 10198" transform="translate(277.44 90.761)">
      <path id="Path_17977" data-name="Path 17977" d="M209.991,128.1s7.445,10.521,16.333,0V90.761H209.991Z" transform="translate(-209.991 -90.761)" fill="#4659c3"/>
      <path id="Path_17978" data-name="Path 17978" d="M228.155,128.1s7.445,10.521,16.333,0V90.761H228.155Z" transform="translate(-195.488 -90.761)" fill="#4659c3"/>
      <path id="Path_17979" data-name="Path 17979" d="M246.319,128.1s7.445,10.521,16.333,0V90.761H246.319Z" transform="translate(-180.986 -90.761)" fill="#4659c3"/>
      <path id="Path_17980" data-name="Path 17980" d="M264.483,128.1s7.445,10.521,16.333,0V90.761H264.483Z" transform="translate(-166.483 -90.761)" fill="#4659c3"/>
      <path id="Path_17981" data-name="Path 17981" d="M282.647,128.1s7.445,10.521,16.335,0V90.761H282.647Z" transform="translate(-151.981 -90.761)" fill="#4659c3"/>
      <path id="Path_17982" data-name="Path 17982" d="M300.811,128.1s7.445,10.521,16.333,0V90.761H300.811Z" transform="translate(-137.478 -90.761)" fill="#4659c3"/>
      <path id="Path_17983" data-name="Path 17983" d="M318.975,128.1s7.444,10.521,16.333,0V90.761H318.975Z" transform="translate(-122.976 -90.761)" fill="#4659c3"/>
      <path id="Path_17984" data-name="Path 17984" d="M337.139,90.761V128.1s7.444,10.521,16.333,0V90.761Z" transform="translate(-108.473 -90.761)" fill="#4659c3"/>
    </g>
    <path id="Path_17985" data-name="Path 17985" d="M292.765,324.8a10.152,10.152,0,1,1-10.152-10.152A10.153,10.153,0,0,1,292.765,324.8Z" transform="translate(117.327 178.755)" fill="#a1a1a1"/>
    <g id="Group_10200" data-name="Group 10200" transform="translate(327.545 412.696)">
      <path id="Rectangle_896" data-name="Rectangle 896" d="M6.05,0H144.556A6.049,6.049,0,0,1,150.6,6.049V155.362a6.05,6.05,0,0,1-6.05,6.05H6.05A6.05,6.05,0,0,1,0,155.362V6.05A6.05,6.05,0,0,1,6.05,0Z" opacity="0.73" fill="url(#linear-gradient-2)"/>
      <path id="Path_17986" data-name="Path 17986" d="M321.939,281.558l-2.628,11.576H251.95v2.626l9.692,45v1.315h5.491l1.4,5.825h2.007a4.923,4.923,0,1,0,3.394,0H301.61a4.922,4.922,0,1,0,3.4,0h2.187v-2.075H270.164l-.9-3.75h41.79V340.76l7.933-36.833,4.608-20.292h28.246v-2.077Zm-46.862,70.959a2.846,2.846,0,1,1-2.847-2.845A2.85,2.85,0,0,1,275.078,352.517Zm31.075,0a2.846,2.846,0,1,1-2.845-2.845A2.849,2.849,0,0,1,306.153,352.517ZM277.542,311.2h17.616l-.919,12.812H278.461Zm-1.394,12.812H260.394L257.637,311.2h17.59Zm19.2-15.438H277.353l-.919-12.812h19.833Zm3.234-12.812h19.81l-2.759,12.812h-17.97Zm-4.53,30.875-.921,12.812h-13.56l-.919-12.812Zm2.313,0h15.377l-2.761,12.812H295.443ZM312.3,324.01H296.551l.921-12.812h17.592l-2.7,12.557Zm-38.182-28.25.919,12.812H257.07l-2.759-12.812ZM260.96,326.635h15.377l.919,12.812H263.719Z" transform="translate(-226.595 -260.359)" fill="#78c2ff"/>
      <path id="Rectangle_897" data-name="Rectangle 897" d="M.8,0H103.127a.8.8,0,0,1,.8.8v3.35a.8.8,0,0,1-.8.8H.8a.8.8,0,0,1-.8-.8V.8A.8.8,0,0,1,.8,0Z" transform="translate(20.84 112.365)" fill="#78c2ff"/>
      <path id="Rectangle_898" data-name="Rectangle 898" d="M.8,0H66.447a.8.8,0,0,1,.8.8V4.152a.8.8,0,0,1-.8.8H.8a.8.8,0,0,1-.8-.8V.8A.8.8,0,0,1,.8,0Z" transform="translate(20.84 125.173)" fill="#78c2ff"/>
      <path id="Rectangle_899" data-name="Rectangle 899" d="M2.589,0H25.14a2.589,2.589,0,0,1,2.589,2.589V25.137a2.591,2.591,0,0,1-2.591,2.591H2.59A2.59,2.59,0,0,1,0,25.138V2.589A2.589,2.589,0,0,1,2.589,0Z" transform="translate(97.038 125.173)" fill="#78c2ff"/>
      <g id="Group_10199" data-name="Group 10199" transform="translate(101.897 133.429)">
        <path id="Path_17987" data-name="Path 17987" d="M302.448,356.106l-7.937-7.937,1.853-1.853,6.085,6.085,8.438-8.439,1.852,1.853Z" transform="translate(-294.51 -343.963)" fill="#fff"/>
      </g>
    </g>
    <path id="Path_17988" data-name="Path 17988" d="M272.505,201.4l2.33,7.17h7.539l-6.1,4.431,2.329,7.169-6.1-4.431-6.1,4.431,2.33-7.169-6.1-4.431h7.538Z" transform="translate(109.484 88.338)" fill="#49aef0"/>
    <path id="Path_17989" data-name="Path 17989" d="M287.217,201.4l2.331,7.17h7.538l-6.1,4.431,2.33,7.169-6.1-4.431-6.1,4.431,2.33-7.169-6.1-4.431h7.539Z" transform="translate(121.229 88.338)" fill="#49aef0"/>
    <path id="Path_17990" data-name="Path 17990" d="M301.929,201.4l2.33,7.17H311.8L305.7,213l2.33,7.169-6.1-4.431-6.1,4.431L298.16,213l-6.1-4.431H299.6Z" transform="translate(132.975 88.338)" fill="#49aef0"/>
    <path id="Path_17991" data-name="Path 17991" d="M316.641,201.4l2.329,7.17h7.539L320.41,213l2.33,7.169-6.1-4.431-6.1,4.431,2.33-7.169-6.1-4.431h7.538Z" transform="translate(144.722 88.338)" fill="#49aef0"/>
    <path id="Path_17992" data-name="Path 17992" d="M272.505,152.355l2.33,7.17h7.539l-6.1,4.431,2.329,7.169-6.1-4.431-6.1,4.431,2.33-7.169-6.1-4.431h7.538Z" transform="translate(109.484 49.179)" fill="#49aef0"/>
    <path id="Path_17993" data-name="Path 17993" d="M287.217,152.355l2.331,7.17h7.538l-6.1,4.431,2.33,7.169-6.1-4.431-6.1,4.431,2.33-7.169-6.1-4.431h7.539Z" transform="translate(121.229 49.179)" fill="#49aef0"/>
    <path id="Path_17994" data-name="Path 17994" d="M301.929,152.355l2.33,7.17H311.8l-6.1,4.431,2.33,7.169-6.1-4.431-6.1,4.431,2.33-7.169-6.1-4.431H299.6Z" transform="translate(132.975 49.179)" fill="#49aef0"/>
    <rect id="Rectangle_900" data-name="Rectangle 900" width="154.441" height="6.113" transform="translate(284.483 331.945)" fill="#bfe2ff"/>
    <rect id="Rectangle_901" data-name="Rectangle 901" width="135.883" height="6.113" transform="translate(284.483 348.3)" fill="#bfe2ff"/>
    <g id="Group_10202" data-name="Group 10202" transform="translate(458.869 331.945)">
      <rect id="Rectangle_902" data-name="Rectangle 902" width="49.341" height="22.467" fill="#eb4747"/>
      <g id="Group_10201" data-name="Group 10201" transform="translate(10.271 5.333)">
        <path id="Path_17995" data-name="Path 17995" d="M325.083,235.667a2.394,2.394,0,0,1-1,2.021,3.408,3.408,0,0,1-1.084.52,4.719,4.719,0,0,1-1.315.18h-5.1V227.835h5.647a2.084,2.084,0,0,1,.995.237,2.518,2.518,0,0,1,.759.619,2.826,2.826,0,0,1,.482.861,2.878,2.878,0,0,1-.214,2.422,2.351,2.351,0,0,1-1.131,1,2.711,2.711,0,0,1,1.435.96A2.774,2.774,0,0,1,325.083,235.667Zm-6.449-6.077v2.66h2.734a1.213,1.213,0,0,0,.885-.358,1.308,1.308,0,0,0,.363-.98,1.354,1.354,0,0,0-.334-.966,1.078,1.078,0,0,0-.824-.356Zm4.385,5.692a1.565,1.565,0,0,0-.358-1,1.2,1.2,0,0,0-.387-.306,1.081,1.081,0,0,0-.489-.111h-3.151v2.78h3.047a1.356,1.356,0,0,0,.527-.1,1.317,1.317,0,0,0,.424-.29,1.415,1.415,0,0,0,.387-.973Z" transform="translate(-316.584 -227.835)" fill="#fff"/>
        <path id="Path_17996" data-name="Path 17996" d="M326.728,236.649a2.332,2.332,0,0,0,1.225-.3,2.394,2.394,0,0,0,.8-.772,3.242,3.242,0,0,0,.43-1.093,6.282,6.282,0,0,0,.128-1.27v-5.381h2.034v5.381a7.651,7.651,0,0,1-.259,2.036,4.632,4.632,0,0,1-.818,1.664,3.913,3.913,0,0,1-1.433,1.131,4.854,4.854,0,0,1-2.1.415,4.787,4.787,0,0,1-2.147-.439,4.007,4.007,0,0,1-1.435-1.16,4.623,4.623,0,0,1-.795-1.671,7.883,7.883,0,0,1-.245-1.976v-5.381h2.05v5.381a6.345,6.345,0,0,0,.128,1.284,3.156,3.156,0,0,0,.43,1.093,2.359,2.359,0,0,0,.795.764A2.322,2.322,0,0,0,326.728,236.649Z" transform="translate(-312.164 -227.835)" fill="#fff"/>
        <path id="Path_17997" data-name="Path 17997" d="M330.05,227.835l2.6,5.084,2.646-5.084h2.214l-3.834,6.866v3.687h-2.036v-3.716l-3.82-6.838Z" transform="translate(-307.611 -227.835)" fill="#fff"/>
      </g>
    </g>
    <g id="Group_10277" data-name="Group 10277" transform="translate(125.513 285.016)">
      <g id="Group_10203" data-name="Group 10203" transform="translate(58.341 29.942)">
        <path id="Path_17998" data-name="Path 17998" d="M172.372,222.992s-2.111-3.94-2.453-4.53-2.052-1.43-4.1-2.221a12.527,12.527,0,0,0-5.48-.727,1.911,1.911,0,0,0-1.052,1.212,3.677,3.677,0,0,0-.106,1.869,2.242,2.242,0,0,0-.572,2.09,1.955,1.955,0,0,0-.21,2.165,1.638,1.638,0,0,0-.263,1.788,14.94,14.94,0,0,1,2.257,1.336c.545.495,4.228,2.007,7.985,2.91C168.38,228.883,172.218,228.538,172.372,222.992Z" transform="translate(-157.954 -215.424)" fill="#eea886"/>
      </g>
      <g id="Group_10204" data-name="Group 10204" transform="translate(62.892 35.902)">
        <path id="Path_17999" data-name="Path 17999" d="M164.212,218.738a11,11,0,0,0,.576,2.836c.376.6-4.3,2.527-4.3,2.527S161.5,219.056,164.212,218.738Z" transform="translate(-160.484 -218.738)" fill="#cf8c6c"/>
      </g>
      <g id="Group_10206" data-name="Group 10206" transform="translate(39.096 26.529)">
        <g id="Group_10205" data-name="Group 10205">
          <path id="Path_18000" data-name="Path 18000" d="M170.533,230.147v0l1.209.032c.126-.36.261-.775.394-1.237-.1-.034-.191-.068-.282-.106s-.185-.068-.277-.1c-.18-.068-.354-.137-.52-.205C170.876,229.163,170.691,229.714,170.533,230.147Zm1.534-4.8c.09-.18.187-.358.291-.531.034-.056.068-.111.1-.165l.018-.031c.032-.047.063-.094.1-.142.045-.067.09-.129.137-.192.032-.045.065-.086.1-.129s.068-.085.1-.128l.022-.023v0c.007-.241.005-.482,0-.723l-.005,0c-.043-.009-.085-.018-.122-.029s-.05-.014-.076-.023-.059-.018-.088-.029l-.005,0c-.031-.007-.058-.02-.085-.029a2.163,2.163,0,0,1-.317-.149.354.354,0,0,1-.056-.034,1.246,1.246,0,0,1-.261-.207l-.036-.038-.009-.011a.28.28,0,0,1-.029-.036l-.013-.016a.215.215,0,0,1-.025-.04.345.345,0,0,1-.027-.043.625.625,0,0,1-.049-.106,14.92,14.92,0,0,1-.254,4.26c.023-.068.05-.14.076-.21s.05-.131.076-.2c.1-.264.218-.538.351-.811C172.007,225.464,172.036,225.4,172.067,225.345Zm-24.815,6.16,11.916.268,11.81.266.183-.392.081-.185c.1-.227.273-.644.473-1.207.007-.023.016-.047.025-.074.126-.36.261-.775.394-1.237.119-.4.232-.842.338-1.307.1-.417.18-.858.252-1.311a16.907,16.907,0,0,0,.21-2.322v0c.007-.241.005-.482,0-.723a12.274,12.274,0,0,0-.243-2.1,9.754,9.754,0,0,0-.577-1.851,8.41,8.41,0,0,0-.62-1.176,7.985,7.985,0,0,0-.9-1.174,8.3,8.3,0,0,0-.915-.856,10.543,10.543,0,0,0-3.288-1.752,16.091,16.091,0,0,0-3.34-.761A11.234,11.234,0,0,0,156.012,215c-3.252,1.876-5.278,5.226-6.408,7.7a25.242,25.242,0,0,0-1.683,4.958l-.315,1.811-.054.311Zm.959-.545a9.022,9.022,0,0,1,.128-1.038v0c.022-.137.047-.277.077-.423.669-3.349,2.854-8.649,6-11.8l0,0a10.626,10.626,0,0,1,2.162-1.7,10.254,10.254,0,0,1,6.814-1.182,15.514,15.514,0,0,1,2.633.649A9.425,9.425,0,0,1,168.946,217c.031.025.058.047.088.074h0a7.137,7.137,0,0,1,2.025,2.7,8.853,8.853,0,0,1,.638,2.412v.007q.019.14.032.286v0a14.92,14.92,0,0,1-.254,4.26v0c-.052.27-.106.534-.167.788-.056.237-.112.468-.171.689-.027.1-.058.205-.085.3-.18.635-.365,1.185-.523,1.619v0c-.013.036-.027.072-.04.106-.076.2-.144.376-.2.514l-16.175.138-4.5.04Zm23.268-4.214c.023-.068.05-.14.076-.21s.05-.131.076-.2c.1-.264.218-.538.351-.811.027-.061.058-.12.086-.18.09-.18.187-.358.291-.531.034-.054.068-.111.1-.165l.018-.031c.032-.045.063-.1.1-.142.045-.067.09-.129.137-.192.032-.045.067-.086.1-.129s.068-.085.1-.128l.022-.023v0c.007-.241.005-.482,0-.723l-.005,0c-.043-.009-.085-.02-.122-.029s-.05-.014-.076-.023-.059-.018-.088-.029l-.005,0c-.031-.007-.058-.02-.085-.029a2.163,2.163,0,0,1-.317-.149.354.354,0,0,1-.056-.034,1.246,1.246,0,0,1-.261-.207l-.036-.038-.009-.011a.28.28,0,0,1-.029-.036l-.013-.016a.215.215,0,0,1-.025-.04.345.345,0,0,1-.027-.043.625.625,0,0,1-.049-.106A14.92,14.92,0,0,1,171.479,226.746Zm-.946,3.4,1.209.034c.126-.36.261-.775.394-1.237-.1-.034-.191-.068-.282-.106s-.185-.068-.277-.1c-.18-.068-.354-.137-.52-.205C170.876,229.163,170.691,229.714,170.533,230.147Z" transform="translate(-147.252 -213.526)" fill="#23344a"/>
        </g>
      </g>
      <g id="Group_10208" data-name="Group 10208" transform="translate(13.156 39.485)">
        <g id="Group_10207" data-name="Group 10207">
          <path id="Path_18001" data-name="Path 18001" d="M132.829,274.634l55.885,7.269,9.475-51.178-58.428-9.995Z" transform="translate(-132.829 -220.731)" fill="#eb4747"/>
        </g>
      </g>
      <g id="Group_10210" data-name="Group 10210" transform="translate(41.446 26.598)">
        <g id="Group_10209" data-name="Group 10209">
          <path id="Path_18002" data-name="Path 18002" d="M148.559,231.474l7.9-.016h0l13.738-.027,3.174-.007.122-.441c.014-.054.086-.318.176-.745h0c.031-.133.061-.279.092-.441a24.113,24.113,0,0,0,.43-3.773c.007-.176.009-.356.011-.54h0c.005-.534-.013-1.09-.056-1.653h0c-.011-.146-.023-.29-.04-.433s-.029-.279-.047-.419a14.253,14.253,0,0,0-.541-2.489,10.631,10.631,0,0,0-1.164-2.511q-.229-.356-.486-.683a9.653,9.653,0,0,0-6.334-3.5,17.352,17.352,0,0,0-3.529-.219,11.891,11.891,0,0,0-7.183,2.669,12.636,12.636,0,0,0-1.45,1.408l0,0a19.464,19.464,0,0,0-3.894,7.73,28.348,28.348,0,0,0-.786,4.115c-.027.232-.049.437-.063.613-.04.437-.049.7-.049.728l0,.07Zm20.891-1.25-19.617.04c.018-.2.043-.444.074-.725.331-2.73,1.52-8.935,5.685-12.357a10.8,10.8,0,0,1,6.762-2.406,16.371,16.371,0,0,1,2.993.216,9.916,9.916,0,0,1,3.291,1.1,7.577,7.577,0,0,1,2.651,2.457c.018.029.036.052.052.081a9.351,9.351,0,0,1,1.025,2.216c.038.124.076.246.111.37.007.032.016.065.025.094a13.173,13.173,0,0,1,.356,1.847c.011.07.018.138.025.207.056.5.086,1,.1,1.486.016.7-.007,1.385-.054,2.018a23.81,23.81,0,0,1-.329,2.568v0c-.056.309-.111.566-.155.764v0l-.005.018-1.766,0Z" transform="translate(-148.559 -213.564)" fill="#23344a"/>
        </g>
      </g>
      <g id="Group_10212" data-name="Group 10212" transform="translate(21.153 41.937)">
        <g id="Group_10211" data-name="Group 10211">
          <path id="Path_18003" data-name="Path 18003" d="M137.9,281.744l65.232-5.021-5.243-52.846-60.612-1.783Z" transform="translate(-137.275 -222.094)" fill="#6ea2e8"/>
        </g>
      </g>
      <g id="Group_10213" data-name="Group 10213" transform="translate(203.373 59.287)">
        <path id="Path_18004" data-name="Path 18004" d="M239.2,244.8s-.536-4.435-.6-5.117.858-2.349,2.079-4.172a12.524,12.524,0,0,1,4.068-3.744,1.92,1.92,0,0,1,1.557.388,3.682,3.682,0,0,1,1.16,1.467,2.246,2.246,0,0,1,1.669,1.385,1.952,1.952,0,0,1,1.417,1.651s1.182.3,1.241,1.309a14.874,14.874,0,0,0-1.077,2.392c-.162.719-2.309,4.073-4.865,6.969C245.85,247.326,242.51,249.251,239.2,244.8Z" transform="translate(-238.597 -231.741)" fill="#eea886"/>
      </g>
      <g id="Group_10215" data-name="Group 10215" transform="translate(196.586 62.834)">
        <g id="Group_10214" data-name="Group 10214">
          <path id="Path_18005" data-name="Path 18005" d="M235.9,239.966a20.044,20.044,0,0,0-1.041,7.854c.034.626.086,1.025.094,1.093l.058.433,2.957.421,20.5,2.908.061-.593c0-.036.036-.354.058-.89a27.078,27.078,0,0,0-.185-4.392c-.338-2.726-1.282-6.562-3.847-9.35a11.074,11.074,0,0,0-2.318-1.919h0a12.85,12.85,0,0,0-6.282-1.8h0c-.392-.02-.793-.023-1.2-.014a12.021,12.021,0,0,0-1.6.138h0a8.6,8.6,0,0,0-5.4,2.91A10.711,10.711,0,0,0,235.9,239.966Zm1.538-.644a8.817,8.817,0,0,1,1.189-1.807,7.167,7.167,0,0,1,2.552-1.9,9.219,9.219,0,0,1,3.6-.745l.183,0v0a11.46,11.46,0,0,1,8.048,2.669l0,0c.243.216.477.448.7.689,3.654,3.973,3.811,10.409,3.728,12.8,0,.122-.009.234-.014.333L240.2,248.92l-4.147-.59c-.007-.1-.016-.214-.023-.345A18.215,18.215,0,0,1,237.438,239.322Z" transform="translate(-234.823 -233.713)" fill="#23344a"/>
        </g>
      </g>
      <g id="Group_10217" data-name="Group 10217" transform="translate(231.427 83.67)">
        <g id="Group_10216" data-name="Group 10216">
          <path id="Path_18006" data-name="Path 18006" d="M268.027,300.369l-4.278-55.07L254.2,299.6l6.606-1.152Z" transform="translate(-254.196 -245.299)" fill="#3f74a0"/>
        </g>
      </g>
      <g id="Group_10219" data-name="Group 10219" transform="translate(174.684 75.141)">
        <g id="Group_10218" data-name="Group 10218">
          <path id="Path_18007" data-name="Path 18007" d="M279.388,303.387l-56.743-9.977,9.285-52.853,57.159,8.124Z" transform="translate(-222.645 -240.557)" fill="#5b83c2"/>
        </g>
      </g>
      <g id="Group_10221" data-name="Group 10221" transform="translate(169.368 84.496)">
        <g id="Group_10220" data-name="Group 10220">
          <path id="Path_18008" data-name="Path 18008" d="M221.144,260.3c.05.117.1.225.149.326.133.291.245.513.317.647.041.081.068.13.079.149l.176.315,5.054-.495,4.726-.462h0l2.662-.257,7.21-.707-.2-.793-.088-.347-.067-.268-.441-1.739a16.719,16.719,0,0,0-.57-1.608,22.272,22.272,0,0,0-1.133-2.4c-.023-.045-.047-.085-.074-.128l-.005-.013a14.836,14.836,0,0,0-4.751-5.32,9.836,9.836,0,0,0-.966-.536,9.08,9.08,0,0,0-3.8-.9,10.482,10.482,0,0,0-2.131.187,13.377,13.377,0,0,0-2.721.842,8.681,8.681,0,0,0-2.618,1.656,6.845,6.845,0,0,0-1.818,2.811,7.56,7.56,0,0,0-.243.865C219.211,255.234,220.392,258.593,221.144,260.3Zm-.495-6.568a7.47,7.47,0,0,1,.385-2.165,6.556,6.556,0,0,1,3.908-3.9,12.872,12.872,0,0,1,2.144-.7,9.352,9.352,0,0,1,3.011-.209l.011,0,.083.005a8.18,8.18,0,0,1,2.624.757c.1.052.209.1.311.16a8.959,8.959,0,0,1,1.43.982l0,0c.061.05.121.1.18.153a20.312,20.312,0,0,1,4.773,6.892,17.8,17.8,0,0,1,1.011,2.858c.022.085.04.165.058.245s.038.178.054.263c.023.12.041.237.058.349l-1.173.077-3.73.246h0l-.459.031-9.618.637-3.354.223-.047-.1c-.045-.092-.1-.2-.151-.318A15.36,15.36,0,0,1,220.649,253.729Z" transform="translate(-219.689 -245.758)" fill="#23344a"/>
        </g>
      </g>
      <g id="Group_10223" data-name="Group 10223" transform="translate(158.111 95.194)">
        <g id="Group_10222" data-name="Group 10222">
          <path id="Path_18009" data-name="Path 18009" d="M267.842,296.6l-46.5,6.05-7.912-42.621,48.616-8.318Z" transform="translate(-213.43 -251.707)" fill="#eb4747"/>
        </g>
      </g>
      <g id="Group_10225" data-name="Group 10225" transform="translate(206.756 95.231)">
        <g id="Group_10224" data-name="Group 10224">
          <path id="Path_18010" data-name="Path 18010" d="M255.718,295.236l-15.24-43.508,5.768,44.578,4.936-1.837Z" transform="translate(-240.478 -251.728)" fill="#ad3434"/>
        </g>
      </g>
      <g id="Group_10227" data-name="Group 10227" transform="translate(167.644 84.233)">
        <g id="Group_10226" data-name="Group 10226">
          <path id="Path_18011" data-name="Path 18011" d="M219.25,259.823c.038.158.063.252.072.282l.1.367,2.64.005,4.8.009,6.633.014,1.586,0,4.989.009-.016-.464,0-.059c0-.014,0-.111-.016-.273-.005-.092-.014-.2-.025-.331-.032-.365-.088-.878-.187-1.494l0-.013c-.05-.309-.11-.649-.183-1.005-.09-.448-.2-.924-.335-1.424a18.569,18.569,0,0,0-1.629-4.12l0-.005a13.459,13.459,0,0,0-1.12-1.714l-.014-.018c-.144-.187-.295-.37-.455-.549a10.17,10.17,0,0,0-1.227-1.2l-.128-.1a9.359,9.359,0,0,0-2.056-1.248l-.023-.014c-.205-.09-.417-.174-.631-.252l0,0c-.263-.094-.531-.176-.8-.25h-.005a10.838,10.838,0,0,0-2.331-.352,14.266,14.266,0,0,0-2.933.185,7.894,7.894,0,0,0-5.645,3.431l-.029.043C217.84,253.068,218.935,258.51,219.25,259.823Zm19.509-2.185c.142.793.216,1.446.252,1.869h-.059l-2.363-.005-10.832-.022-3.068-.005-1.018,0-1.469,0c-.291-1.293-1.1-5.732.55-9.008a7.173,7.173,0,0,1,.363-.637,6.286,6.286,0,0,1,2.25-2.111,8.276,8.276,0,0,1,2.739-.914,13.044,13.044,0,0,1,2.489-.178,9.3,9.3,0,0,1,4.171,1.032l.054.029a8.546,8.546,0,0,1,1.4.939C237.139,251.022,238.3,255.066,238.759,257.638Z" transform="translate(-218.73 -245.612)" fill="#23344a"/>
        </g>
      </g>
      <g id="Group_10229" data-name="Group 10229" transform="translate(205.351 98.245)">
        <g id="Group_10228" data-name="Group 10228">
          <path id="Path_18012" data-name="Path 18012" d="M251.805,300.414,241.464,253.4,239.7,301.789l5.642-2.158Z" transform="translate(-239.697 -253.403)" fill="#b06e2a"/>
        </g>
      </g>
      <g id="Group_10230" data-name="Group 10230" transform="translate(202.644 70.131)">
        <path id="Path_18013" data-name="Path 18013" d="M246.173,242.512s-3.482,3.092-5.273,3.147-2.708-4.872-2.708-4.872l1.548-3.016Z" transform="translate(-238.192 -237.771)" fill="#eea886"/>
      </g>
      <g id="Group_10231" data-name="Group 10231" transform="translate(68.383 37.06)">
        <path id="Path_18014" data-name="Path 18014" d="M170.279,222.632a15.474,15.474,0,0,1-2.509-3.07c-.766-1.424-4.233,6.084-4.233,6.084s4.323.182,6.223,1.52S170.279,222.632,170.279,222.632Z" transform="translate(-163.537 -219.382)" fill="#eea886"/>
      </g>
      <g id="Group_10232" data-name="Group 10232" transform="translate(58.347 30.032)">
        <path id="Path_18015" data-name="Path 18015" d="M160.883,215.661s5.142,2.135,4.9,3.005a1.423,1.423,0,0,1-.858,1.045l1.719,1.838s.45,1.86-1.708,1.807c0,0,.6,1.692-1.475,1.394,0,0-.1,1.295-1.088,1.325s-4.239-1.478-4.239-1.478-.543-.629.263-1.788a1.925,1.925,0,0,1,.21-2.165,2.111,2.111,0,0,1,.572-2.09s-.7-2.322,1.158-3.081C160.339,215.474,160.668,215.569,160.883,215.661Z" transform="translate(-157.956 -215.474)" fill="#db9c7c"/>
      </g>
      <g id="Group_10233" data-name="Group 10233" transform="translate(63.541 32.893)">
        <path id="Path_18016" data-name="Path 18016" d="M167.458,217.065a18.917,18.917,0,0,0-5.814,1.388c-.455.245-.851.563-.793,1.079s.87,1.083,2.525,1.034a13.964,13.964,0,0,1,3.822.647S168.884,220.665,167.458,217.065Z" transform="translate(-160.845 -217.065)" fill="#eea886"/>
      </g>
      <g id="Group_10234" data-name="Group 10234" transform="translate(208.074 67.216)">
        <path id="Path_18017" data-name="Path 18017" d="M241.211,236.436a11,11,0,0,1,1.158,2.649c.038.707,4.974-.4,4.974-.4S243.612,235.137,241.211,236.436Z" transform="translate(-241.211 -236.15)" fill="#cf8c6c"/>
      </g>
      <g id="Group_10235" data-name="Group 10235" transform="translate(206.794 59.253)">
        <path id="Path_18018" data-name="Path 18018" d="M242.891,232.247s-2.984,4.7-2.286,5.275a1.418,1.418,0,0,0,1.3.363l-.351,2.489a1.447,1.447,0,0,0,2.435.5s.482,1.73,2.009.291c0,0,.827,1,1.653.46s2.619-3.647,2.619-3.647.085-.826-1.241-1.309a1.921,1.921,0,0,0-1.417-1.651,2.113,2.113,0,0,0-1.669-1.385s-.759-2.3-2.717-1.856C243.229,231.779,243.015,232.047,242.891,232.247Z" transform="translate(-240.499 -231.722)" fill="#db9c7c"/>
      </g>
      <g id="Group_10236" data-name="Group 10236" transform="translate(203.455 64.842)">
        <path id="Path_18019" data-name="Path 18019" d="M238.643,237.059a18.9,18.9,0,0,1,5.555-2.207c.511-.059,1.018-.025,1.268.426s-.09,1.388-1.473,2.3a14.029,14.029,0,0,0-2.755,2.726S239.542,240.823,238.643,237.059Z" transform="translate(-238.643 -234.83)" fill="#eea886"/>
      </g>
      <g id="Group_10238" data-name="Group 10238" transform="translate(138.42 259.944)">
        <g id="Group_10237" data-name="Group 10237">
          <path id="Path_18020" data-name="Path 18020" d="M206.441,355.988c2.662.8,3.46,5.325,5.723,6.656s13.31,2.262,13.709-1.2-4.635-6.562-6.9-8.294-7.345-7.413-8.382-9.676c0,0-.915,1.44-3.62,1s-3.156-1.162-3.156-1.162a15.582,15.582,0,0,1-1.1,5.62A5.552,5.552,0,0,0,206.441,355.988Z" transform="translate(-202.481 -343.315)" fill="#3f74a0"/>
        </g>
      </g>
      <g id="Group_10240" data-name="Group 10240" transform="translate(120.508 259.795)">
        <g id="Group_10239" data-name="Group 10239">
          <path id="Path_18021" data-name="Path 18021" d="M196.344,356.675c2.052,1.872,2.442,4.856,4.707,6.188a11.963,11.963,0,0,0,3.458,1.041c2.762.495,6.269.6,7.985-.4a1.885,1.885,0,0,0,1.032-1.432c.4-3.458-4.73-7.338-6.992-9.068-1.392-1.065-2.836-3.539-3.983-5.814-.716-1.421-1.315-2.762-1.716-3.636l0,0a1.513,1.513,0,0,1-.464.489,3.8,3.8,0,0,1-2.9.414,6.665,6.665,0,0,1-3.248-1.14l-.034-.031-.032-.032-.011-.013-.005-.007h0c-.448,2.164-1.149,4.372-1.419,5.411C191.784,352.238,194.4,354.906,196.344,356.675Z" transform="translate(-192.521 -343.232)" fill="#3f74a0"/>
        </g>
      </g>
      <g id="Group_10242" data-name="Group 10242" transform="translate(117.841)">
        <g id="Group_10241" data-name="Group 10241">
          <path id="Path_18022" data-name="Path 18022" d="M217.061,198.8s-8.645-.906-11.76,7.442-6.048,11.082-6.415,15.468c-1.486,17.74-9.769,13.726-7.438,23.953s3.944,11.773,3.944,11.773l19.8-3.885,20.063.065s-7.848-3.921-6.1-12.269,6.1-22.033,3.642-31.35S222.227,199.516,217.061,198.8Z" transform="translate(-191.038 -198.775)" fill="#223247"/>
        </g>
      </g>
      <g id="Group_10244" data-name="Group 10244" transform="translate(154.257 98.019)">
        <g id="Group_10243" data-name="Group 10243">
          <path id="Path_18023" data-name="Path 18023" d="M262.38,301.889l-50.175-1.756-.919-46.856H264.1Z" transform="translate(-211.287 -253.277)" fill="#faa146"/>
        </g>
      </g>
      <g id="Group_10246" data-name="Group 10246" transform="translate(0 39.485)">
        <g id="Group_10245" data-name="Group 10245">
          <path id="Path_18024" data-name="Path 18024" d="M125.513,270.886,145.6,220.731l-6.932,53.9-5.851-3.428Z" transform="translate(-125.513 -220.731)" fill="#ad3434"/>
        </g>
      </g>
      <g id="Group_10248" data-name="Group 10248" transform="translate(7.224 41.937)">
        <g id="Group_10247" data-name="Group 10247">
          <path id="Path_18025" data-name="Path 18025" d="M129.53,280.093l13.929-58,.624,59.65L137.3,279.15Z" transform="translate(-129.53 -222.094)" fill="#4a7fc4"/>
        </g>
      </g>
      <g id="Group_10250" data-name="Group 10250" transform="translate(114.076 93.723)">
        <g id="Group_10249" data-name="Group 10249">
          <path id="Path_18026" data-name="Path 18026" d="M233.007,276.231s7.285,25.388,8.557,31.866,4.827,37.862,5.208,43.2-11.893,30.357-12.564,32.161c-2.593,6.985-13.182,32.318-13.182,32.318s-6.843,4.066-6.077-1.886c2.327-18.085,3.419-22.559,5.048-31.947,3.566-20.556,10.934-23.255,9.807-26.253-11.4-30.312-13.7-50.885-15.222-52.663s-1.734.906-2.622,4.845.358,31.05-1.243,41.515c-.872,5.7-2.836,18.47-3.471,25.84s-3.962,41.472-3.962,41.472-.439,1.271-5.523-1.541c-.843-.469-4.874-30.143-5-38.911s3.75-10.017.64-26.991c-6.665-36.375-5.742-42.644,2.029-68.792C214.447,216.489,233.007,276.231,233.007,276.231Z" transform="translate(-188.944 -250.889)" fill="#eea886"/>
        </g>
      </g>
      <g id="Group_10252" data-name="Group 10252" transform="translate(69.269 38.825)">
        <g id="Group_10251" data-name="Group 10251">
          <path id="Path_18027" data-name="Path 18027" d="M164.03,226.262c.306-.317,18.788,13.839,20.808,15.006,3.964,2.293,8.282,2.176,12.765,2.451,5.028.308,10.738-.227,15.673.763,2.559.516,2.859,1.183,4.194,3.9,3.624,7.406,4.8,16.612,5.282,24.755.5,8.492-2.757,14.389-6.176,21.881-1.164,2.545-2.8,5.172-.549,7.5,2.029,2.092,6.01,2.516,8.674,2.863,6.548.854,16.578,1.379,22.88-1.219,7.712-3.181,6.33-12.888,7.154-19.666.552-4.534,2.743-11.33,4-15.731a26.447,26.447,0,0,0,1.142-10.776c2.4,6.829,4.433,18.5,10.906,22.835,5.01,3.356,9.487-1.146,13.087-4.277q10.248-8.916,20.5-17.833-2.185-2.018-4.368-4.036a14.341,14.341,0,0,0-1.047-.995c-1.275-1.023-1.131-1.4-2.451-.5-.881.6-3.244,2.795-3.994,3.493-2.476,2.3-4.647,3.7-7.122,6-2.151,2-5.84,6.643-9.14,5.023-2.543-1.248-3.235-6.417-4.108-8.722-2.426-6.408-4.868-12.855-7.758-19.071-3.1-6.651-9.943-10.181-16.581-12.828-5.75-2.293-13.445-1.834-19.277-.351-4.091,1.041-5.555,1.1-9.629,2.235-3.89,1.083-7.534,2.467-11.478,3.286a73.547,73.547,0,0,1-13.992,1.338c-3.689.045-5.217-.577-8.319-2.73-4.176-2.9-10.285-7.9-14.871-10.219C167.289,219.154,166.28,223.952,164.03,226.262Z" transform="translate(-164.03 -220.363)" fill="#eb4747"/>
        </g>
      </g>
      <g id="Group_10254" data-name="Group 10254" transform="translate(136.48 33.955)">
        <g id="Group_10253" data-name="Group 10253">
          <path id="Path_18028" data-name="Path 18028" d="M202.814,218.408s.7,8.631-.968,11.217,1.423,6.093,7.776,4.893,5.983-4.8,5.983-4.8-1.779-5.325-1.259-9.587S202.814,218.408,202.814,218.408Z" transform="translate(-201.402 -217.655)" fill="#eea886"/>
        </g>
      </g>
      <g id="Group_10256" data-name="Group 10256" transform="translate(133.761 43.084)">
        <g id="Group_10255" data-name="Group 10255">
          <path id="Path_18029" data-name="Path 18029" d="M199.89,224.844s5.73,13.386,13.155,16.182c0,0,7.318-6.5,5.349-16.126C218.394,224.9,208.947,220.06,199.89,224.844Z" transform="translate(-199.89 -222.732)" fill="#eea886"/>
        </g>
      </g>
      <g id="Group_10258" data-name="Group 10258" transform="translate(132.784 4.818)">
        <g id="Group_10257" data-name="Group 10257">
          <path id="Path_18030" data-name="Path 18030" d="M209.287,201.548s-11.449,1.653-9.773,18.554,11.78,15.56,12.456,15.546,10.136.351,10.956-20.272C222.926,215.376,223.308,200.123,209.287,201.548Z" transform="translate(-199.347 -201.454)" fill="#eea886"/>
        </g>
      </g>
      <g id="Group_10260" data-name="Group 10260" transform="translate(130.566 2.145)">
        <g id="Group_10259" data-name="Group 10259">
          <path id="Path_18031" data-name="Path 18031" d="M211.581,208.86s-5.35,5.625-7.834,8.472-2.77,8.348-2.77,8.348-4.187-5.113-2.437-11.068,5.892-17.538,16.376-13.979,10.871,19.222,9.643,26.989C224.56,227.623,219.854,210.478,211.581,208.86Z" transform="translate(-198.113 -199.968)" fill="#223247"/>
        </g>
      </g>
      <g id="Group_10261" data-name="Group 10261" transform="translate(138.577 36.879)">
        <path id="Path_18032" data-name="Path 18032" d="M212.425,220.7a9.594,9.594,0,0,1-9.857-1.419s1.9,3.169,5.23,3.341A5.053,5.053,0,0,0,212.425,220.7Z" transform="translate(-202.568 -219.281)" fill="#a77860"/>
      </g>
      <g id="Group_10262" data-name="Group 10262" transform="translate(180.121 84.598)">
        <path id="Path_18033" data-name="Path 18033" d="M225.668,245.815a3.905,3.905,0,0,0,1.367,1.572c5.232,2.824,6.143,9.49,6.325,11.848l1.111-.011C233.552,246.939,225.668,245.815,225.668,245.815Z" transform="translate(-225.668 -245.815)" fill="#23344a"/>
      </g>
      <g id="Group_10263" data-name="Group 10263" transform="translate(180.196 84.665)">
        <path id="Path_18034" data-name="Path 18034" d="M225.71,245.852s8.453.4,10.834,13.217l-.867.137s-1.656-9.447-8.4-11.981A3.883,3.883,0,0,1,225.71,245.852Z" transform="translate(-225.71 -245.852)" fill="#23344a"/>
      </g>
      <g id="Group_10264" data-name="Group 10264" transform="translate(113.901 113.691)">
        <path id="Path_18035" data-name="Path 18035" d="M195.323,265.19s-11.56,23.942-3.789,72.523c0,0,23.581-2.21,58.947-4.735,0,0-16.09-65.346-16.54-69.5S195.323,265.19,195.323,265.19Z" transform="translate(-188.847 -261.992)" fill="#eb4747"/>
      </g>
      <g id="Group_10266" data-name="Group 10266" transform="translate(139.757 257.396)">
        <g id="Group_10265" data-name="Group 10265">
          <path id="Path_18036" data-name="Path 18036" d="M209.824,342.63a5.131,5.131,0,0,1-6.356-.732l-.245,2.548s5.217,4.694,6.6-.351Z" transform="translate(-203.224 -341.898)" fill="#eea886"/>
        </g>
      </g>
      <g id="Group_10268" data-name="Group 10268" transform="translate(122.122 256.819)">
        <g id="Group_10267" data-name="Group 10267">
          <path id="Path_18037" data-name="Path 18037" d="M198.752,342.46s-1.971,1.782-4.951-.883l-.383,2.976s5.075,5.194,6.46.149Z" transform="translate(-193.418 -341.577)" fill="#eea886"/>
        </g>
      </g>
      <g id="Group_10270" data-name="Group 10270" transform="translate(139.757 259.594)">
        <g id="Group_10269" data-name="Group 10269">
          <path id="Path_18038" data-name="Path 18038" d="M209.824,343.12s2.717,3.243,2.451,3.775-6.19,1.732-7.088.466a25.414,25.414,0,0,1-1.964-3.89S208.405,345.771,209.824,343.12Z" transform="translate(-203.224 -343.12)" fill="#3f74a0"/>
        </g>
      </g>
      <g id="Group_10272" data-name="Group 10272" transform="translate(122.122 259.529)">
        <g id="Group_10271" data-name="Group 10271">
          <path id="Path_18039" data-name="Path 18039" d="M199.712,343.084s2.532,3.568,2.264,4.1-5.519,1.383-6.417.119a33.461,33.461,0,0,1-2.142-3.953S198.292,345.733,199.712,343.084Z" transform="translate(-193.418 -343.084)" fill="#3f74a0"/>
        </g>
      </g>
      <g id="Group_10273" data-name="Group 10273" transform="translate(123.695 105.533)">
        <path id="Path_18040" data-name="Path 18040" d="M229.938,263.648s-13.887,5.147-33.945-6.192c0,0-.8,1.635-1.7,3.883,0,0,18.286,11.289,35.3,5.76A12.343,12.343,0,0,0,229.938,263.648Z" transform="translate(-194.293 -257.456)" fill="#ff4d4d"/>
      </g>
      <g id="Group_10274" data-name="Group 10274" transform="translate(163.343 64.794)">
        <path id="Path_18041" data-name="Path 18041" d="M216.339,234.8c1.6,4.145,1.775,11.657,1.775,11.657s.52,1.964,1.352,4.3C219.7,239.6,216.339,234.8,216.339,234.8Z" transform="translate(-216.339 -234.803)" fill="#ad3434"/>
      </g>
      <g id="Group_10276" data-name="Group 10276" transform="translate(137.37 42.743)">
        <g id="Group_10275" data-name="Group 10275">
          <path id="Path_18042" data-name="Path 18042" d="M209.513,225.995a10.344,10.344,0,0,0,1.953-.182,6.042,6.042,0,0,0,3.316-1.583l-.284-1.083a7.3,7.3,0,0,1-3.316,1.534,12.592,12.592,0,0,1-8.834-2.14l-.451,1.025A14.315,14.315,0,0,0,209.513,225.995Z" transform="translate(-201.897 -222.542)" fill="#c43b3b"/>
        </g>
      </g>
    </g>
    <g id="Group_10280" data-name="Group 10280" transform="translate(495.326 279.109)">
      <path id="Path_18043" data-name="Path 18043" d="M359.952,405.895h-2.561s.852-9.676-1.518-9.772-8.247,7.873-11.758,9.108-21.527,2.275-21.622-1.046,6.921-4.644,9.1-5.593,12.8-11.288,14.7-12.517,5.131-9.806,5.131-9.806l10.059-.445s.569,8.013,1.178,12.251a37.337,37.337,0,0,1,.416,3.974C363.175,395.652,359.952,405.895,359.952,405.895Z" transform="translate(-313.47 -53.763)" fill="#eea886"/>
      <path id="Path_18044" data-name="Path 18044" d="M380.072,404.567h-2.134v-9.007c-1.776.151-7.756,5.807-9.6,7.444s-4.384,1.563-12.173,2.056-8.523-4.164-7.292-5.755,5.217-2.281,7.292-3.271,10.253-10.218,12.435-12.4S372.1,375.2,372.1,375.2l9.106.792a55.524,55.524,0,0,0,.98,10.515v0l.008.039c.089.408.186.81.289,1.2C383.84,392.734,380.072,404.567,380.072,404.567Z" transform="translate(-289.085 -54.347)" fill="#eea886"/>
      <path id="Path_18045" data-name="Path 18045" d="M357.383,288.377s-3.44,8.139-3.745,10.193-11.09,28.913-11.841,36.77c-.759,7.947-3.036,29.15-3.846,32.186s1.821,16.6,2.227,19.636.2,52.628-3.442,77.124c0,0,8.5,3.644,14.979,0,0,0,10.729-38.261,10.123-60.322s-3.405-31.379.017-40.284,23.463-35.626,25.488-38.459,14.707-18.495,2.7-35.461S357.383,288.377,357.383,288.377Z" transform="translate(-300.06 -142.246)" fill="#1d3b54"/>
      <path id="Path_18046" data-name="Path 18046" d="M387.281,362.368c-1.1,7.3.058,16.9,2.351,43.608s-4.015,59.045-4.015,59.045c-7.929,2.714-17.058,0-17.058,0,.21-1.877,0-65.1,0-70.731s-1.617-12.026-2.035-18.493c-.283-4.407-2.334-12.53-4.64-20.826-.693-2.485-1.406-4.98-2.1-7.4v0c-.39-1.355-.773-2.691-1.145-3.978-3.248-11.267-7.617-54.774-7.617-54.774s24.214-19.5,36-1.142,5.739,31.714,5.322,34.007S388.38,355.066,387.281,362.368Z" transform="translate(-286.608 -144.168)" fill="#1d3b54"/>
      <path id="Path_18047" data-name="Path 18047" d="M372.993,302.118c-.188.415-12.253,27.2-15.357,31.841-.693-2.485-1.406-4.98-2.1-7.4v0S372.589,302.708,372.993,302.118Z" transform="translate(-282.359 -123.156)" fill="#122536"/>
      <path id="Path_18048" data-name="Path 18048" d="M380.072,399.918h-2.134v-9.007c-1.776.151-7.756,5.807-9.6,7.444s-4.384,1.563-12.173,2.056-8.523-4.164-7.292-5.755,5.217-2.281,7.292-3.271c8.331.445,18.5-11.27,23.382-11.245,2.59.012,2.569,1.448,2.648,1.72v0l.008.039c.089.408.186.81.289,1.2C383.84,388.085,380.072,399.918,380.072,399.918Z" transform="translate(-289.085 -49.698)" fill="#eddad3"/>
      <path id="Path_18049" data-name="Path 18049" d="M359.952,400.1h-2.561s.852-9.676-1.518-9.772-8.247,7.873-11.758,9.108-21.527,2.275-21.622-1.046,6.921-4.644,9.1-5.593c7.432-.017,19.518-8.2,23.267-9.855a13.53,13.53,0,0,1,7.8-.662,37.336,37.336,0,0,1,.416,3.974C363.175,389.855,359.952,400.1,359.952,400.1Z" transform="translate(-313.47 -47.966)" fill="#eddad3"/>
      <g id="Group_10278" data-name="Group 10278" transform="translate(20.138 175.596)">
        <path id="Path_18050" data-name="Path 18050" d="M348.228,317.263h-16.9a3.117,3.117,0,0,1-3.112-3.112V303.494a3.114,3.114,0,0,1,3.112-3.11h16.9a3.112,3.112,0,0,1,3.11,3.11v10.657A3.115,3.115,0,0,1,348.228,317.263Zm-16.9-14.792a1.025,1.025,0,0,0-1.025,1.023v10.657a1.023,1.023,0,0,0,1.025,1.021h16.9a1.022,1.022,0,0,0,1.023-1.021V303.494a1.023,1.023,0,0,0-1.023-1.023Z" transform="translate(-328.217 -300.384)" fill="#877c78"/>
      </g>
      <g id="Group_10279" data-name="Group 10279" transform="translate(0 187.902)">
        <rect id="Rectangle_903" data-name="Rectangle 903" width="63.398" height="45.422" fill="#cfbeb8"/>
      </g>
      <path id="Path_18051" data-name="Path 18051" d="M379.771,345.132l-10.265-2.473s1.788-36.213,7.958-51.553c.052-.134.28.049.414.076-.058-.347-.122-.693-.184-1.041-.132-.718-.266-1.441-.4-2.151-1.569-8.16-3.378-15.289-3.378-15.289s-12.95-32.588,2.8-30.043a22.2,22.2,0,0,1,9.919,14.992c1.769,10.42,3.57,25.77,3.248,31.895s-2.062,13.431-3.605,20.768C386.273,310.313,380.186,342.934,379.771,345.132Z" transform="translate(-269.773 -179.271)" fill="#275070"/>
      <path id="Path_18052" data-name="Path 18052" d="M358.381,236.039s3.864,10.224.858,18.124c0,0,14.167-.92,14.707-2.574s-.571-16.971,1.376-21.5S358.381,236.039,358.381,236.039Z" transform="translate(-279.68 -192.038)" fill="#eea886"/>
      <path id="Path_18053" data-name="Path 18053" d="M368.949,240.747s-8.37,2.976-12.154,3.805-11.7,4.576-11.055,18.691,3.005,26.354,3.864,32.417.322,21.5-1.072,29a106.079,106.079,0,0,0,43.68,0s-4.186-12.789-4.077-16.1,13.953-30.546,14.6-34.846,3.433-23.267-2.9-27.459-11.484-3.636-14.167-5.512S372.867,239.4,368.949,240.747Z" transform="translate(-291.616 -182.08)" fill="#285173"/>
      <path id="Path_18054" data-name="Path 18054" d="M404.177,340.484c-34.289,9.1-61.579.037-61.579.037a85.066,85.066,0,0,0,5.646-15.159l0-.006a90.918,90.918,0,0,0,2.11-10.171h0a92.107,92.107,0,0,0-.848-32.988c3.959-32.573,53.248-42.3,57.195-31.967s-7.65,54.7-8.236,58.505S404.177,340.484,404.177,340.484Z" transform="translate(-294.54 -175.722)" fill="#285173"/>
      <path id="Path_18055" data-name="Path 18055" d="M377.36,212.015c-5.7-1.953-21.092-4.034-25.036,19.6s4.648,24.034,13.472,23.364,22.626-16.623,23.684-21.471S393.612,217.589,377.36,212.015Z" transform="translate(-286.309 -209.026)" fill="#eea886"/>
      <path id="Path_18056" data-name="Path 18056" d="M353.481,222s4.706,10.061,10.87,13.567c0,0,3.866,10.69,12.233,15.012,0,0,22.207-14.711,9.321-32.19S354.935,214.832,353.481,222Z" transform="translate(-284.293 -209.941)" fill="#e8734d"/>
      <path id="Path_18057" data-name="Path 18057" d="M359.42,222.178c.5-1.229,3.825-3.229,5.318.146s-3.867,9.313-5.337,8.993S357.521,226.844,359.42,222.178Z" transform="translate(-279.903 -200.037)" fill="#eea886"/>
      <path id="Path_18058" data-name="Path 18058" d="M374.019,216.795c.485-.757,15.19-7.564,18.248,6.659s-11.843,30.767-14.452,37.879,1.18,23.781,1.18,23.781-8.968-8.477-11.68-17.347C364.338,258.024,363.336,233.457,374.019,216.795Z" transform="translate(-273.157 -205.642)" fill="#e8734d"/>
      <path id="Path_18059" data-name="Path 18059" d="M372.739,215.459a14.848,14.848,0,0,0-5.085,9.179s-.843-4.382.971-7.059S372.739,215.459,372.739,215.459Z" transform="translate(-271.134 -204.791)" fill="#285173"/>
      <path id="Path_18060" data-name="Path 18060" d="M330.909,300.643s-.732,3.011-1.184,4.541-.73,3.388.34,4.2,3.374,3.568,4.928,4.83,10.371-2.559,11.354-4.062-.944-9.929-3.631-11.61-6.735-4.044-6.735-4.044Z" transform="translate(-307.038 -130.334)" fill="#eea886"/>
      <path id="Path_18061" data-name="Path 18061" d="M366.876,242.517s-11.742,4.652-12.437,20.972-1.334,24.84-1.971,27.358-1.856,12.645-4.811,18.735c-2.866,5.912-15.175,34.6-15.175,34.6l10.709,6.205s18.118-33.949,19.712-38.762,8.15-38.3,8.673-43.946C372,263.128,378,242.855,366.876,242.517Z" transform="translate(-304.064 -179.27)" fill="#285173"/>
      <path id="Path_18062" data-name="Path 18062" d="M366.4,272.1s-6.158,1.2-13.4-2.928c0,0-3.267,10.946-5.337,15.316-1.856,3.918-15.175,34.6-15.175,34.6l10.709,6.205s18.151-32.788,19.712-38.762S366.4,272.1,366.4,272.1Z" transform="translate(-304.064 -154.175)" fill="#285173"/>
      <path id="Path_18063" data-name="Path 18063" d="M345.507,310.2a90.914,90.914,0,0,0,2.11-10.171h0s2.26-4.807,3.023-7.106,6.438-30.536,6.438-30.536S363.085,288.908,345.507,310.2Z" transform="translate(-291.801 -160.564)" fill="#1d3b54"/>
      <path id="Path_18064" data-name="Path 18064" d="M378.2,261.838s-6.789,31.283-6.822,32.254,1.914,13.746,2.5,16.621Z" transform="translate(-267.447 -161.079)" fill="#1d3b54"/>
    </g>
  </g>
</svg>
