<svg xmlns="http://www.w3.org/2000/svg" width="502.035" height="674.77" viewBox="0 0 502.035 674.77">
  <g id="_626a496533f24d01311540c7_wp" data-name="626a496533f24d01311540c7_wp" transform="translate(-11.676 -0.008)">
    <path id="Path_18070" data-name="Path 18070" d="M-1014.151-139.49l9.263-1.047a2.069,2.069,0,0,1,1.944.93c.54.831,1.113,1.662,1.728,2.492a34.064,34.064,0,0,0,3.672,4.1,2.044,2.044,0,0,1,.5,2.243l-3.547,9.031a2.011,2.011,0,0,0,.989,2.542l7.984,3.954a1.994,1.994,0,0,0,2.542-.706l4.827-7.56a1.977,1.977,0,0,1,2.218-.831,35.931,35.931,0,0,0,11.307,1.122,2.052,2.052,0,0,1,2.052,1.429l1.662,5.209a2.077,2.077,0,0,0,2.359,1.4l8.632-1.761a1.6,1.6,0,0,0,.5-.166,1.978,1.978,0,0,0,1.113-2.027l-.773-6.929-.191-1.662a34.015,34.015,0,0,0,4.2-2.775,36.017,36.017,0,0,0,4.935-4.569,1.977,1.977,0,0,1,2.218-.532l7.3,2.866a2.052,2.052,0,0,0,2.6-1.005l3.024-6.1.831-1.753a2.094,2.094,0,0,0-.739-2.692l-6.322-4.038a1.994,1.994,0,0,1-.889-2.16,35.529,35.529,0,0,0,.964-7.593,5.482,5.482,0,0,0,0-.64,1.875,1.875,0,0,1,0-.216,2.044,2.044,0,0,1,1.437-1.745l8.449-2.675a1.105,1.105,0,0,0,.274-.108,2.06,2.06,0,0,0,1.113-2.235l-1.736-8.648a2.044,2.044,0,0,0-2.243-1.662l-9.662,1.088a1.969,1.969,0,0,1-1.994-1.047,37.405,37.405,0,0,0-3.024-4.627c-.615-.831-1.246-1.545-1.9-2.276a2.094,2.094,0,0,1-.4-2.168l3.414-8.723a1.994,1.994,0,0,0-.972-2.492l-7.909-3.9a2.094,2.094,0,0,0-2.692.748l-3.822,5.982a2.052,2.052,0,0,1-2.393.831,35.8,35.8,0,0,0-10.9-1.952,2.035,2.035,0,0,1-1.919-1.437l-2.409-7.618a2.118,2.118,0,0,0-2.417-1.429l-8.549,1.686a2.01,2.01,0,0,0-1.612,2.21v.4l.9,8.042a2.06,2.06,0,0,1-1.113,2.077h0a35.85,35.85,0,0,0-5.342,3.39c-.914.706-1.77,1.437-2.609,2.21a2.027,2.027,0,0,1-2.127.415l-7.419-2.916a2.094,2.094,0,0,0-2.642,1.014l-3.888,7.876a2.109,2.109,0,0,0-.2.69,2.077,2.077,0,0,0,.93,1.952l5.051,3.207a2.094,2.094,0,0,1,.947,1.819,2.244,2.244,0,0,1-.1.565,35.788,35.788,0,0,0-1.828,14.04,2,2,0,0,1-1.08,1.936l-.316.133-6.846,2.16a2.044,2.044,0,0,0-1.4,2.351v.2l1.662,8.424A2.085,2.085,0,0,0-1014.151-139.49ZM-954.9-165.8a23.587,23.587,0,0,1,1.263,4.278,18.874,18.874,0,0,1-1.337,10.169c-.141.291-.291.565-.432.831-9.072,16.823-32.832,13.483-36.745-5.508a19.53,19.53,0,0,1,.7-8.856,11.384,11.384,0,0,1,.706-1.745,22.145,22.145,0,0,1,4.42-6.09,19.315,19.315,0,0,1,17.57-4.968A19.316,19.316,0,0,1-954.9-165.8Z" transform="translate(1230.35 239.583)" fill="#ddf1f6"/>
    <path id="Path_18078" data-name="Path 18078" d="M-788.44-118.6V343.12c0,8.083-2.958,14.63-6.646,14.63h-337.768c-3.647,0-6.646-6.547-6.646-14.63V-118.6c0-8.083,2.958-14.63,6.646-14.63h337.81C-791.4-133.23-788.44-126.684-788.44-118.6Z" transform="translate(1250.872 227.425)" fill="#28a9e1"/>
    <path id="Path_18079" data-name="Path 18079" d="M-813.793-141.835v18.983h-377v-18.983a7.1,7.1,0,0,1,7.095-7.095h362.807a7.1,7.1,0,0,1,7.095,7.095Z" transform="translate(1259.552 230.081)" fill="#f89520"/>
    <path id="Path_18080" data-name="Path 18080" d="M-1176.94-133.907a3.323,3.323,0,0,1,3.323-3.323,3.323,3.323,0,0,1,3.323,3.323,3.323,3.323,0,0,1-3.323,3.323A3.323,3.323,0,0,1-1176.94-133.907Z" transform="translate(1257.208 228.101)" fill="#fff"/>
    <path id="Path_18081" data-name="Path 18081" d="M-1161.28-133.907a3.323,3.323,0,0,1,3.323-3.323,3.323,3.323,0,0,1,3.323,3.323,3.323,3.323,0,0,1-3.323,3.323A3.323,3.323,0,0,1-1161.28-133.907Z" transform="translate(1254.558 228.101)" fill="#fff"/>
    <path id="Path_18082" data-name="Path 18082" d="M-1145.22-133.907a3.323,3.323,0,0,1,3.323-3.323,3.323,3.323,0,0,1,3.323,3.323,3.323,3.323,0,0,1-3.323,3.323A3.323,3.323,0,0,1-1145.22-133.907Z" transform="translate(1251.84 228.101)" fill="#fff"/>
    <path id="Path_18083" data-name="Path 18083" d="M-897.215-180.061l4.511-.507a1.014,1.014,0,0,1,.947.457,13.769,13.769,0,0,0,.831,1.188,16.51,16.51,0,0,0,1.786,1.994.989.989,0,0,1,.241,1.1l-1.728,4.42a.972.972,0,0,0,.482,1.238l3.888,1.919a.972.972,0,0,0,1.238-.341l2.351-3.68a.964.964,0,0,1,1.08-.424,17.537,17.537,0,0,0,5.508.548,1,1,0,0,1,1,.7l.831,2.534a1,1,0,0,0,1.146.681l4.22-.831a.881.881,0,0,0,.249-.083.964.964,0,0,0,.54-.989l-.382-3.365-.091-.831a17.149,17.149,0,0,0,2.052-1.354,18.068,18.068,0,0,0,2.393-2.251.964.964,0,0,1,1.08-.258l3.556,1.4a1.013,1.013,0,0,0,1.271-.49l1.471-2.974.415-.831a1.022,1.022,0,0,0-.357-1.313l-3.082-1.969a.972.972,0,0,1-.432-1.055,17.32,17.32,0,0,0,.473-3.689c0-.108,0-.208,0-.316a.507.507,0,0,1,0-.108.989.989,0,0,1,.7-.831l4.154-1.3a.63.63,0,0,0,.133-.05,1.014,1.014,0,0,0,.548-1.088l-.831-4.212a1,1,0,0,0-1.1-.831l-4.7.532a.972.972,0,0,1-.972-.507,17.275,17.275,0,0,0-1.479-2.26c-.291-.382-.6-.756-.922-1.1a1.022,1.022,0,0,1-.191-1.055l1.661-4.254a.98.98,0,0,0-.474-1.23l-3.846-1.894a1.014,1.014,0,0,0-1.313.366l-1.861,2.908a1,1,0,0,1-1.171.415,17.721,17.721,0,0,0-5.309-.955.98.98,0,0,1-.93-.7l-1.171-3.705a1.03,1.03,0,0,0-1.18-.7l-4.2.831a.989.989,0,0,0-.789,1.08v.191l.432,3.921a1,1,0,0,1-.54,1.005h0a17.847,17.847,0,0,0-2.609,1.662c-.44.341-.831.7-1.263,1.072a.98.98,0,0,1-1.039.2l-3.614-1.412a1.014,1.014,0,0,0-1.288.49l-1.894,3.83a1.422,1.422,0,0,0-.1.341,1.013,1.013,0,0,0,.457.947l2.492,1.57a1.022,1.022,0,0,1,.465.881,1.584,1.584,0,0,1-.05.274,17.531,17.531,0,0,0-.889,6.837.988.988,0,0,1-.523.947l-.158.058-3.323,1.055a.989.989,0,0,0-.673,1.146v.091l.831,4.154a1.014,1.014,0,0,0,1.038.773Zm28.869-12.835a11.28,11.28,0,0,1,.606,2.085,9.2,9.2,0,0,1-.648,4.985c-.067.141-.141.274-.216.407-4.411,8.2-15.984,6.571-17.895-2.675a9.6,9.6,0,0,1,.341-4.32,5.916,5.916,0,0,1,.349-.831,10.858,10.858,0,0,1,2.152-2.966,9.413,9.413,0,0,1,8.543-2.441,9.413,9.413,0,0,1,6.768,5.756Z" transform="translate(1030.501 810.64)" fill="#ddf1f6"/>
    <g id="Group_10300" data-name="Group 10300" transform="translate(10.75 -11.191)">
      <path id="Path_18084" data-name="Path 18084" d="M-1164.22,300.526s.541-5.946-6.09-5.946a7.793,7.793,0,0,1,3.045,1.64s-4.234-2.487-8.838,1.333-1.748,13.4-3.144,15.217-6.865,2.189-6.2,8.109,17.325,13.253,16.217,18.118c0,0,6.523-9.6,1.865-13.974a8.678,8.678,0,0,1,2.5,4.694s.613-4.973-2.55-6.568c-2.8-1.405-5.09-6.55-4.847-7.469S-1164.22,300.526-1164.22,300.526Z" transform="translate(1263.14 155.028)" fill="#4f1a0f"/>
      <path id="Path_18085" data-name="Path 18085" d="M-1169.9,332.85s4.955,20.515,9.82,24.614c2.928,2.469,11.631,8.109,11.631,8.109l-3.6,1.315s-12.064-4.072-14.767-7.208-10.1-19.1-10.1-19.1Z" transform="translate(1262.29 151.237)" fill="#fabcb6"/>
      <path id="Path_18086" data-name="Path 18086" d="M-1221.222,370.723l.135.243c1.09,1.883,3.6,6.5,6.307,11.568,1.3,2.4,2.649,4.892,3.937,7.208,2.225,4.063,4.243,7.676,5.406,9.586s2.081,3.3,2.432,3.847h0a.955.955,0,0,1,.117.568,29.819,29.819,0,0,0,.072,5.081,39.039,39.039,0,0,0,12.757,25.281l3.3.487s-4.667-17.3-6.045-27.074a18.721,18.721,0,0,1-.252-3.883,40.471,40.471,0,0,0-1.063-10.586,238.061,238.061,0,0,0-6.748-24.5c-.153-.477-4.793-17.262-4.793-17.262-3.9,3.406-18.1,4.811-18.1,4.811S-1226.132,361.993-1221.222,370.723Z" transform="translate(1266.986 149.411)" fill="#25565f"/>
      <path id="Path_18087" data-name="Path 18087" d="M-1176.413,447.587h-13.776a7.542,7.542,0,0,1,.387-3.694c.694-1.532,1.676-1.577.126-3.973.9.9,3.694,1.27,5.685,1.009.243.4,1.568,3.045,2.388,3.6S-1176.692,444.974-1176.413,447.587Z" transform="translate(1263.611 140.633)" fill="#8cbfcb"/>
      <path id="Path_18088" data-name="Path 18088" d="M-1220.88,371.97l.135.243c1.09,1.883,6.955,12.721,9.7,17.785a73.224,73.224,0,0,1-.973-26.128Z" transform="translate(1266.643 148.165)" fill="#1d3a3e"/>
      <path id="Path_18089" data-name="Path 18089" d="M-1165.182,300.239c.09-.36-7.874,3.6-8.271,4.045-3.73,4.135-2.7,9.541-.531,9.586,1.369,0,1.1,2.315,1.1,2.315l15.253-6.451S-1159.434,299.023-1165.182,300.239Z" transform="translate(1262.192 154.477)" fill="#4f1a0f"/>
      <path id="Path_18090" data-name="Path 18090" d="M-1170.532,329.43s2.315,4.631,2.027,8.4c0,0-2.8,4.415-10.055,5.532C-1178.56,343.359-1172.325,329.421-1170.532,329.43Z" transform="translate(1262.452 151.577)" fill="#f89520"/>
      <path id="Path_18091" data-name="Path 18091" d="M-1212.805,356.843v-2.568c-5.126.64-17.695-6.135-17.695-6.135s-5.406,3.6-6.1,13.767c-.36,4.982-2.631,26.029-2.883,32.317-.09,2.27-.117,3.9-.135,4.5h0a.9.9,0,0,1-.216.532,28.314,28.314,0,0,0-2.775,4.261c-7.838,14.568-3.739,34.362-3.739,34.362l1.8-.459s6.622-20.524,10.947-29.4a19.169,19.169,0,0,1,1.964-3.361,40.449,40.449,0,0,0,5.027-9.37C-1223.31,387.719-1212.805,356.843-1212.805,356.843Z" transform="translate(1269.272 149.723)" fill="#25565f"/>
      <path id="Path_18092" data-name="Path 18092" d="M-1235.523,447.576H-1249.3a7.538,7.538,0,0,1,.387-3.694c.694-1.532,1.8-2.225,1.514-4.072a4.947,4.947,0,0,0,4.289,1.64,15.191,15.191,0,0,0,2.387,3.1C-1239.8,445.2-1235.784,444.963-1235.523,447.576Z" transform="translate(1269.467 140.643)" fill="#8cbfcb"/>
      <path id="Path_18093" data-name="Path 18093" d="M-1184.509,345.464c-1.847.315.306,1.8-2.234,2.063-3.6.387-7.361.667-9.325,1.442a2.135,2.135,0,0,0-1.342,1.09c-.847,2.55-6.226,6.937-6.226,6.937-23.974-1.09-25.524-11.775-25.524-11.775,15.568-15.118,28.83-23.362,39.75-24.38a19.505,19.505,0,0,1,7.937.838c3.829,1.7,5.928,6.892,5.928,6.892S-1177.472,344.266-1184.509,345.464Z" transform="translate(1267.464 152.435)" fill="#f89520"/>
      <path id="Path_18094" data-name="Path 18094" d="M-1183.112,348.325c-3.6.387-7.361.667-9.325,1.442a38.175,38.175,0,0,1,4.847-20.956S-1183.941,343.793-1183.112,348.325Z" transform="translate(1263.833 151.638)" fill="#bb6928"/>
      <path id="Path_18095" data-name="Path 18095" d="M-1176.465,322.268c.685,2.144,2.964,8.262,6.135,5.91-.108-.459.55-1.8,1.333-3.135,1.009-1.721,2.2-3.478,2.2-3.478l-5.154-4.5-.306-.27a13.161,13.161,0,0,1-3.838,4.352A1.027,1.027,0,0,0-1176.465,322.268Z" transform="translate(1262.248 152.828)" fill="#fabcb6"/>
      <path id="Path_18096" data-name="Path 18096" d="M-1166.307,321.594s-1.189,1.8-2.2,3.478c-3.2-1.973-3.207-5.937-2.955-7.991Z" transform="translate(1261.758 152.8)" fill="#f7a4a0"/>
      <path id="Path_18097" data-name="Path 18097" d="M-1166.186,322.842s-7.784-4.325-5.009-9.127,3.6-8.6,8.712-6.036,4.982,4.946,4.451,6.775S-1164.1,323.851-1166.186,322.842Z" transform="translate(1261.781 153.812)" fill="#fabcb6"/>
      <path id="Path_18098" data-name="Path 18098" d="M-1156.807,311.58c-.36-2.135-1.442-2.333-2.2-2.2a6.225,6.225,0,0,0-7.568-2.892,10.6,10.6,0,0,1-6.126,3.685s.9,1.676,4.622,2.7a6.306,6.306,0,0,0,3.667-.288,20.625,20.625,0,0,1-5.279,1.991c4.9.45,9.568-4.036,10.046-4.5a6.891,6.891,0,0,1,.388,3.207c-.324,1.451-1.6,4.063-.82,4.406C-1160.078,317.725-1156.276,314.779-1156.807,311.58Z" transform="translate(1261.871 153.885)" fill="#4f1a0f"/>
      <rect id="Rectangle_912" data-name="Rectangle 912" width="64.571" height="16.938" transform="translate(124.521 527.123) rotate(25.99)" fill="#25565f"/>
      <path id="Path_18099" data-name="Path 18099" d="M-1163,397.023a19.191,19.191,0,0,1-10.388-13.208,4.361,4.361,0,0,1,3.324-5.189,4.361,4.361,0,0,1,3.288.585,4.36,4.36,0,0,1,1.91,2.74,10.505,10.505,0,0,0,5.685,7.208,10.586,10.586,0,0,0,14.127-4.865,10.586,10.586,0,0,0-4.865-14.127,10.577,10.577,0,0,0-7.622-.631,4.37,4.37,0,0,1-5.406-2.946,4.37,4.37,0,0,1,2.946-5.406,19.217,19.217,0,0,1,13.911,1.162,19.307,19.307,0,0,1,8.883,25.785A19.308,19.308,0,0,1-1163,397.023Z" transform="translate(1261.95 148.51)" fill="#25565f"/>
      <path id="Path_18100" data-name="Path 18100" d="M-1071.911,441.456a19.307,19.307,0,0,1-8.883-25.785,19.307,19.307,0,0,1,25.749-8.883,19.253,19.253,0,0,1,9.487,10.244,4.36,4.36,0,0,1-2.459,5.658,4.37,4.37,0,0,1-5.658-2.451,10.506,10.506,0,0,0-5.189-5.613,10.586,10.586,0,0,0-14.127,4.865,10.577,10.577,0,0,0,4.874,14.127,10.5,10.5,0,0,0,9.2,0,4.36,4.36,0,0,1,5.82,2.045,4.351,4.351,0,0,1,.183,3.33,4.351,4.351,0,0,1-2.228,2.481,19.2,19.2,0,0,1-16.767-.018Z" transform="translate(1252.961 144.106)" fill="#25565f"/>
      <rect id="Rectangle_913" data-name="Rectangle 913" width="5.325" height="37.561" rx="1.97" transform="translate(129.508 541.469) rotate(-64.01)" fill="#1d3a3e"/>
      <path id="Path_18101" data-name="Path 18101" d="M-1170.907,383.843a5.163,5.163,0,0,0,.784,2.2c.613.748,2.4,2.559,2.424,3.6,0,0-.09.478-.469.387s-1.712-1.4-2.388-1.306a13.087,13.087,0,0,0,.721,2.7c.36.6,1.018,2.856.8,3.37s-3.82-2.487-4.91-3.955,0-7.424,0-7.424Z" transform="translate(1262.043 146.229)" fill="#fabcb6"/>
      <path id="Path_18102" data-name="Path 18102" d="M-1179.836,326.569s-9.1-.5-10.721,5.216,3.036,28.533,4.036,30.894c1.8,4.289,10.721,16.523,10.721,16.523l3.261-.991s-5.919-18.695-7.208-20.551C-1181.863,354.759-1177.106,329.055-1179.836,326.569Z" transform="translate(1263.674 151.861)" fill="#fabcb6"/>
      <path id="Path_18103" data-name="Path 18103" d="M-1192.51,339.249c0,.126,8.613,1.577,13.992-1.153,0,0,4.5-14.064-1.928-13.388s-10.217,2.7-10.379,5.766a59.281,59.281,0,0,1-1.685,8.775Z" transform="translate(1263.833 152.047)" fill="#bb6928"/>
      <path id="Path_18104" data-name="Path 18104" d="M-1150.511,359a3.6,3.6,0,0,0-1.514.378c-.5.387-1.054,1.045.063,1.6,1.667.829,5,.46,4.874,0C-1147.5,359.4-1148.105,358.918-1150.511,359Z" transform="translate(1259.881 148.649)" fill="#fabcb6"/>
    </g>
    <path id="Path_18105" data-name="Path 18105" d="M-1083.646-111.876a1.437,1.437,0,0,0-.258,1.529h0a9.669,9.669,0,0,0,3.016,3.323c.183.141.341.274.482.4l.108.1.091.075c1.321,1.221.831,1.5,3.207,3.988,2.717,2.825,4.586,2.874,5.118,2.617s-.465-1.72-1.479-3.406l-.15-.241-.4-.681c-1.188-2.027-.881-2.974-.607-6,.233-2.492,3.822-13.7,3.822-13.7l-5.209-.9s-1.57,8.956-3.323,10.335c-.922.739-1.952.748-2.841,1.3a1.369,1.369,0,0,0-.183.116,6.768,6.768,0,0,0-1.4,1.146Z" transform="translate(1241.483 225.993)" fill="#fabcb6"/>
    <path id="Path_18106" data-name="Path 18106" d="M-1083.646-109.5a1.437,1.437,0,0,0-.258,1.529h0a10.962,10.962,0,0,0,3.024,3.323l.474.415.108.1.091.075c1.321,1.221.831,1.5,3.207,3.988,2.717,2.825,4.586,2.874,5.118,2.617s-.465-1.72-1.479-3.406a11.54,11.54,0,0,1-4.843-3.564c-1.661-2.085-2.725-4.769-3.838-6.322a1.37,1.37,0,0,0-.183.116,6.777,6.777,0,0,0-1.421,1.13Z" transform="translate(1241.483 223.62)" fill="#1d3a3e"/>
    <path id="Path_18107" data-name="Path 18107" d="M-1033.846-115.446c.324,1.612,2.617,1.338,5.176.714s1.944.116,5.591-.282,4.744-1.761,4.852-2.3-1.662-.656-3.63-.831l-.731-.091c-2.177-.274-3.772-1.662-5.749-2.833s-4.677-5.55-4.677-5.55l-4.985.39s2.617,3.979,3.63,5.716a6.007,6.007,0,0,1,.49,3.406,6.493,6.493,0,0,0,.033,1.662Z" transform="translate(1233.696 226.306)" fill="#fabcb6"/>
    <path id="Path_18108" data-name="Path 18108" d="M-1027.88-113.006c2.559-.623,1.944.116,5.591-.282s4.744-1.761,4.852-2.3-1.662-.656-3.63-.831h0a10.3,10.3,0,0,1-5.217,1.662c-2.492.058-5.084-.648-6.8-.615a6.492,6.492,0,0,0,0,1.662C-1032.732-112.108-1030.439-112.382-1027.88-113.006Z" transform="translate(1232.872 224.58)" fill="#1d3a3e"/>
    <path id="Path_18109" data-name="Path 18109" d="M-1059.571-153.241l-4.669,12.561-6.1,16.408a9.9,9.9,0,0,1-3.24-.3,13.939,13.939,0,0,1-3.132-1.52s1.662-17.621,4.852-27.731a18.189,18.189,0,0,1,2.717-5.874C-1064.248-165.478-1059.571-153.241-1059.571-153.241Z" transform="translate(1240.247 232.166)" fill="#1d3a3e"/>
    <path id="Path_18110" data-name="Path 18110" d="M-1070.99-176.141c-3.066-.989-11.789.282-20.554,1.994l-1.836-3.024-18.925-1.479s-6.247,13.849-2.833,22.68a3.2,3.2,0,0,0,3.207,2.152h15.2c9.412,0,19.939-6.472,21.284-6.746,2.227-.449,3.115,4,5.342,8.682s20.919,20.695,20.919,20.695a16.617,16.617,0,0,0,4.054-.415,3.994,3.994,0,0,0,1.745-1.1S-1064.1-173.915-1070.99-176.141Z" transform="translate(1246.922 235.111)" fill="#25565f"/>
    <path id="Path_18111" data-name="Path 18111" d="M-1101.21-246.3c-2.65-.681-6.281,0-6.887.058-7.2.706-9.62,8.74-8.532,14.954,1.005,5.749-1.911,7.344-5.292,11.888-6.779,9.139-2.351,16.79,3,18.776,3.215,1.188,7.668-1.811,7.668-1.811s14.007-9.139,19.714-14.289C-1082.028-220.414-1094.448-244.565-1101.21-246.3Z" transform="translate(1248.48 246.61)" fill="#4f1a0f"/>
    <path id="Path_18112" data-name="Path 18112" d="M-1096.977-216.324c.191.665-2.958,1.894-5.367,1.437-2.26-.415-4.794-3.066-4.27-3.323.831-.415,1.446-1.437.972-6.97l.432.05,7.236.831s0,2.251.191,4.362A14.377,14.377,0,0,0-1096.977-216.324Z" transform="translate(1245.319 242.985)" fill="#fabcb6"/>
    <path id="Path_18113" data-name="Path 18113" d="M-1097.684-224.279s0,2.251.191,4.362c-4,.216-6.4-3.248-7.427-5.192Z" transform="translate(1245.02 242.973)" fill="#f7a4a0"/>
    <path id="Path_18114" data-name="Path 18114" d="M-1096.538-225.034s-9.421.93-9.9-4.943-2.035-9.712,3.954-10.551,7.352,1.3,7.992,3.223S-1094.1-225.425-1096.538-225.034Z" transform="translate(1245.369 245.614)" fill="#fabcb6"/>
    <path id="Path_18115" data-name="Path 18115" d="M-1098.113-241.8s-1.188,7.178-6.555,8.881c-3.913,1.238-5.682.424-5.682.424a15.911,15.911,0,0,0,2.55-5.973,2.883,2.883,0,0,1,1.919-2.193C-1103.1-241.575-1099.733-244.076-1098.113-241.8Z" transform="translate(1245.939 245.955)" fill="#4f1a0f"/>
    <path id="Path_18116" data-name="Path 18116" d="M-1097.76-240.105a6.239,6.239,0,0,1,3.323,2.692,12.048,12.048,0,0,1,1.662,5.815s1.662-6.646-.756-9.139C-1096.032-243.346-1097.76-240.105-1097.76-240.105Z" transform="translate(1243.809 245.789)" fill="#4f1a0f"/>
    <path id="Path_18117" data-name="Path 18117" d="M-1115.6-195.711c.166.714.307,1.371.424,1.977.2.972.324,1.819.424,2.559.282,2.318.2,3.689.391,5.192a12.933,12.933,0,0,0,.706,2.825c.391,1.08,10.626,2.035,16.449,1.662,1.844-.116,3.257-.374,3.755-.831,2.077-1.8,1.869,2.16,2.16-16.823.133-9.263-7.859-17.513-7.859-17.513s-.64,3.954-8.573-.748c-.283-.166-3.406,4.453-6.405,10.152C-1117.441-200.962-1116.535-199.624-1115.6-195.711Z" transform="translate(1246.974 241.671)" fill="#f89520"/>
    <path id="Path_18118" data-name="Path 18118" d="M-1064.24-139.167l-6.1,16.408a9.9,9.9,0,0,1-3.24-.3,13.94,13.94,0,0,1-3.132-1.52s1.662-17.621,4.852-27.731Z" transform="translate(1240.247 230.653)" fill="#1d3a3e"/>
    <path id="Path_18119" data-name="Path 18119" d="M-1095.62-216.5s8.158,1.379,9.139,4.893,7.577,23.162,7.577,23.162-5.126,1.753-7.045-.166-6.646-17.779-6.646-17.779Z" transform="translate(1243.447 241.516)" fill="#f89520"/>
    <path id="Path_18120" data-name="Path 18120" d="M-1097-226.039a1.612,1.612,0,0,0,1.437.964c1.038,0,1.321-.15,1.52-.374a3.184,3.184,0,0,0,.391-.648,8.84,8.84,0,0,0-3.348.058Z" transform="translate(1243.68 243.162)" fill="#fff"/>
    <path id="Path_18121" data-name="Path 18121" d="M-1114.4-185.938c.282,2.318.2,3.689.391,5.192,7.411,0,17.313-5.724,17.313-5.724Z" transform="translate(1246.625 236.434)" fill="#bb6928"/>
    <path id="Path_18122" data-name="Path 18122" d="M-1096.76-194.252s-11.539-.341-13.484-6.9c-2.135-7.2-4.536,2.966-4.536,2.966l1.28,6.488h12.661Z" transform="translate(1246.689 239.356)" fill="#bb6928"/>
    <path id="Path_18123" data-name="Path 18123" d="M-1072.168-214.622l-.623-1.537a4.37,4.37,0,0,0-4.062-2.742h-11.506v38.465h47.6V-211.6H-1067.7a4.827,4.827,0,0,1-4.47-3.024Z" transform="translate(1242.218 241.922)" fill="#28a9e1"/>
    <path id="Path_18124" data-name="Path 18124" d="M-1079.72-192.173v-2.775l9.728-4.262v2.833l-6.787,2.791,6.787,2.8v2.866Z" transform="translate(1240.756 238.59)" fill="#fff"/>
    <path id="Path_18125" data-name="Path 18125" d="M-1057.654-203.2h2.592l-8.906,18.609h-2.592Z" transform="translate(1238.529 239.265)" fill="#fff"/>
    <path id="Path_18126" data-name="Path 18126" d="M-1041.69-194.943v2.775l-9.72,4.254v-2.808l6.787-2.791-6.787-2.791v-2.874Z" transform="translate(1235.965 238.585)" fill="#fff"/>
    <path id="Path_18127" data-name="Path 18127" d="M-1093.09-191.3l.831-1.3a6.761,6.761,0,0,0,1.587-.872c1.1-.773.955-1.927,1.5-1.811v2.55h-.058c2.368.631,5.134-.05,5.184.532.158,1.62-1.1,2.351-2.152,2.858a3.8,3.8,0,0,1-3.165.523c-1.063-.332-2.733-.665-2.733-.665Z" transform="translate(1243.019 237.928)" fill="#fabcb6"/>
    <path id="Path_18128" data-name="Path 18128" d="M-1108.548-217.4s-7.477.49-9.363,3.414-4.154,17.754-3.223,22.846,24.923-.972,24.923-.972l-.764-4.42s-13.849.083-14.63-1.72C-1112.618-200.652-1108.548-217.4-1108.548-217.4Z" transform="translate(1247.801 241.668)" fill="#f89520"/>
    <path id="Path_18129" data-name="Path 18129" d="M-1062.4-210.421c-.066.191,1.122,2.152,2.825,1.811,1.063-.216,2.443-2.492,1.229-3a3.431,3.431,0,0,0-4.054,1.188Z" transform="translate(1237.826 240.729)" fill="#fabcb6"/>
    <rect id="Rectangle_914" data-name="Rectangle 914" width="59.093" height="0.282" transform="translate(237.673 159.473) rotate(-61.91)" fill="#25565f"/>
    <rect id="Rectangle_915" data-name="Rectangle 915" width="0.282" height="46.017" transform="matrix(0.733, -0.68, 0.68, 0.733, 336.097, 107.508)" fill="#25565f"/>
    <path id="Path_18130" data-name="Path 18130" d="M-841.456-67.072a12.5,12.5,0,0,1-2.326,9.139,11.938,11.938,0,0,1-7.984,4.777L-991.618-33.94c-7.136.98-13.741-3.747-14.663-10.509a12.021,12.021,0,0,1,2.617-9.2,13.425,13.425,0,0,1,8.673-4.868l139.844-19.216a12.3,12.3,0,0,1,13.691,10.667Z" transform="translate(1228.346 218.05)" fill="#fff"/>
    <path id="Path_18131" data-name="Path 18131" d="M-815.8-67.067a12.5,12.5,0,0,1-2.326,9.139,11.938,11.938,0,0,1-7.984,4.777l-25.306,3.481L-854.8-74.228l25.305-3.481A12.3,12.3,0,0,1-815.8-67.067Z" transform="translate(1202.694 218.045)" fill="#41b8ea"/>
    <path id="Path_18132" data-name="Path 18132" d="M-827.865-59.414a7.073,7.073,0,0,1-.947.058,6.272,6.272,0,0,1-4.445-1.9,6.33,6.33,0,0,1,.1-8.939h0a6.33,6.33,0,0,1,8.947.1,6.331,6.331,0,0,1-.108,8.939A6.281,6.281,0,0,1-827.865-59.414Zm-4.561-10.044a5.284,5.284,0,0,0-1.592,3.721,5.284,5.284,0,0,0,1.508,3.756,5.218,5.218,0,0,0,3.714,1.612A5.3,5.3,0,0,0-825.04-61.9a5.284,5.284,0,0,0,1.6-3.72,5.284,5.284,0,0,0-1.5-3.757,5.284,5.284,0,0,0-3.72-1.6,5.284,5.284,0,0,0-3.757,1.5Z" transform="translate(1199.352 217.063)" fill="#fff"/>
    <rect id="Rectangle_916" data-name="Rectangle 916" width="1.038" height="8.632" transform="translate(366.083 155.085) rotate(45.66)" fill="#fff"/>
    <path id="Path_18133" data-name="Path 18133" d="M-842.506-50.777h0a.922.922,0,0,1-.274-.656.922.922,0,0,1,.274-.656l3.639-3.556a.93.93,0,0,1,1.313,0h0a.922.922,0,0,1,.274.656.922.922,0,0,1-.274.656l-3.63,3.556a.93.93,0,0,1-.66.275A.931.931,0,0,1-842.506-50.777Z" transform="translate(1200.66 214.341)" fill="#fff"/>
    <rect id="Rectangle_917" data-name="Rectangle 917" width="53.568" height="4.544" rx="1.6" transform="translate(146.157 369.787)" fill="#f89520"/>
    <path id="Path_18134" data-name="Path 18134" d="M-1071.5,222.159h-24.583a1.554,1.554,0,0,1-1.545-1.554h0a1.545,1.545,0,0,1,1.545-1.545h24.583a1.545,1.545,0,0,1,1.545,1.545h0A1.554,1.554,0,0,1-1071.5,222.159Z" transform="translate(1243.787 167.808)" fill="#41b8ea"/>
    <rect id="Rectangle_918" data-name="Rectangle 918" width="46.39" height="3.099" rx="1.09" transform="translate(146.157 380.355)" fill="#41b8ea"/>
    <rect id="Rectangle_919" data-name="Rectangle 919" width="43.325" height="3.099" rx="1.09" transform="translate(196.776 380.355)" fill="#41b8ea"/>
    <path id="Path_18135" data-name="Path 18135" d="M-1034.6,222.159h-24.583a1.554,1.554,0,0,1-1.545-1.554h0a1.545,1.545,0,0,1,1.545-1.545h24.583a1.554,1.554,0,0,1,1.553,1.545h0a1.554,1.554,0,0,1-1.553,1.554Z" transform="translate(1237.542 167.808)" fill="#41b8ea"/>
    <rect id="Rectangle_920" data-name="Rectangle 920" width="53.568" height="4.544" rx="1.6" transform="translate(206.812 369.787)" fill="#f89520"/>
    <rect id="Rectangle_921" data-name="Rectangle 921" width="53.568" height="4.544" rx="1.6" transform="translate(146.157 404.007)" fill="#f89520"/>
    <path id="Path_18136" data-name="Path 18136" d="M-1071.5,263.369h-24.583a1.554,1.554,0,0,1-1.545-1.554h0a1.545,1.545,0,0,1,1.545-1.545h24.583a1.545,1.545,0,0,1,1.545,1.545h0A1.554,1.554,0,0,1-1071.5,263.369Z" transform="translate(1243.787 160.834)" fill="#41b8ea"/>
    <path id="Path_18137" data-name="Path 18137" d="M174.456,499h44.579a.906.906,0,0,1,.906.906v1.279a.906.906,0,0,1-.906.906H174.456a.906.906,0,0,1-.906-.906V499.9a.914.914,0,0,1,.914-.914Z" transform="translate(-27.393 -84.44)" fill="#41b8ea"/>
    <path id="Path_18138" data-name="Path 18138" d="M235.4,499h41.539a.906.906,0,0,1,.906.906v1.279a.906.906,0,0,1-.906.906H235.4a.906.906,0,0,1-.906-.906v-1.279A.914.914,0,0,1,235.4,499Z" transform="translate(-37.706 -84.442)" fill="#41b8ea"/>
    <path id="Path_18139" data-name="Path 18139" d="M-1034.6,263.369h-24.583a1.554,1.554,0,0,1-1.545-1.554h0a1.545,1.545,0,0,1,1.545-1.545h24.583a1.554,1.554,0,0,1,1.553,1.545h0A1.554,1.554,0,0,1-1034.6,263.369Z" transform="translate(1237.542 160.834)" fill="#41b8ea"/>
    <rect id="Rectangle_922" data-name="Rectangle 922" width="53.568" height="4.544" rx="1.6" transform="translate(206.812 404.007)" fill="#f89520"/>
    <path id="Path_18140" data-name="Path 18140" d="M457.157,430.379l-16.69,3.88-8.25,15.02-6.3-34.22Z" transform="translate(-70.101 -70.237)" fill="#1d3a3e"/>
    <rect id="Rectangle_923" data-name="Rectangle 923" width="3.049" height="17.646" transform="translate(366.986 362.535) rotate(-37.15)" fill="#1d3a3e"/>
    <rect id="Rectangle_924" data-name="Rectangle 924" width="92.008" height="92.008" rx="9.18" transform="translate(353.261 175.602)" fill="#ddf1f6"/>
    <path id="Path_18141" data-name="Path 18141" d="M-834.34,45.166l17.878-32.234a5.873,5.873,0,0,1,4.772-3.023,5.873,5.873,0,0,1,5.114,2.4l10.31,14.065a5.882,5.882,0,0,0,4.424,2.392,5.882,5.882,0,0,0,4.656-1.9h0a5.874,5.874,0,0,1,4.826-1.893,5.873,5.873,0,0,1,4.446,2.666l11.133,17.18a5.882,5.882,0,0,1,.232,6.007,5.882,5.882,0,0,1-5.167,3.073H-829.2a5.882,5.882,0,0,1-5.065-2.9,5.882,5.882,0,0,1-.077-5.835Z" transform="translate(1199.356 203.204)" fill="#41b8ea"/>
    <path id="Path_18142" data-name="Path 18142" d="M-791.72-6a7.037,7.037,0,0,1,7.028-7,7.037,7.037,0,0,1,7.037,7.037,7.037,7.037,0,0,1-7.037,7.028,7.028,7.028,0,0,1-4.985-2.073,7.028,7.028,0,0,1-2.044-5Z" transform="translate(1192.019 207.079)" fill="#41b8ea"/>
    <rect id="Rectangle_925" data-name="Rectangle 925" width="47.047" height="47.047" rx="3.62" transform="translate(286.912 371.251) rotate(-7.77)" fill="#ddf1f6"/>
    <path id="Path_18143" data-name="Path 18143" d="M-915.045,239.65l6.829-17.563A3.007,3.007,0,0,1-906,220.216a3.008,3.008,0,0,1,2.767.874l6.2,6.414a3.007,3.007,0,0,0,2.408.906,3.007,3.007,0,0,0,2.227-1.288h0a3.007,3.007,0,0,1,2.315-1.291,3.007,3.007,0,0,1,2.437,1.042l6.821,7.934a3.008,3.008,0,0,1,.571,3.057,3.007,3.007,0,0,1-2.44,1.928l-29.127,3.971a3.007,3.007,0,0,1-2.806-1.12,3.007,3.007,0,0,1-.417-2.992Z" transform="translate(1212.927 167.622)" fill="#25565f"/>
    <path id="Path_18144" data-name="Path 18144" d="M-897.416,211.023a3.606,3.606,0,0,1,3.082-4.029,3.6,3.6,0,0,1,4.046,3.082,3.6,3.6,0,0,1-3.074,4.046,3.605,3.605,0,0,1-2.669-.709,3.605,3.605,0,0,1-1.385-2.39Z" transform="translate(1209.91 169.856)" fill="#25565f"/>
    <path id="Path_18145" data-name="Path 18145" d="M-758.078,509.705l-500.807-.174a.7.7,0,0,1-.615-.764v-.391a.7.7,0,0,1,.615-.756l500.807.174a.7.7,0,0,1,.606.756v.391A.706.706,0,0,1-758.078,509.705Z" transform="translate(1271.18 165.072)" fill="#1d3a3e"/>
    <path id="Path_18146" data-name="Path 18146" d="M-930.753,102.917h-4.328a.706.706,0,0,1-.5-.2.706.706,0,0,1-.21-.5.705.705,0,0,1,.207-.508.706.706,0,0,1,.508-.207h4.3a.723.723,0,0,1,.731.714.7.7,0,0,1-.2.5.7.7,0,0,1-.5.207Zm-8.632,0h-4.3a.706.706,0,0,1-.706-.706.706.706,0,0,1,.2-.5.706.706,0,0,1,.5-.21h4.3a.715.715,0,0,1,.714.714A.714.714,0,0,1-939.385,102.917Zm-8.6,0h-4.3a.706.706,0,0,1-.706-.706.707.707,0,0,1,.2-.5.706.706,0,0,1,.5-.21h4.3a.714.714,0,0,1,.714.714A.714.714,0,0,1-947.984,102.917Zm-8.6,0h-4.3a.714.714,0,0,1-.714-.706.715.715,0,0,1,.714-.715h4.3a.706.706,0,0,1,.5.21.706.706,0,0,1,.2.5.706.706,0,0,1-.706.706Zm-8.607,0h-4.3a.706.706,0,0,1-.5-.2.706.706,0,0,1-.21-.5.706.706,0,0,1,.207-.508.706.706,0,0,1,.508-.207h4.3a.706.706,0,0,1,.508.207.706.706,0,0,1,.207.508.706.706,0,0,1-.21.5.706.706,0,0,1-.5.2Zm-8.6,0h-4.3a.706.706,0,0,1-.5-.2.706.706,0,0,1-.21-.5.706.706,0,0,1,.207-.508.706.706,0,0,1,.508-.207h4.3a.714.714,0,0,1,.714.714A.714.714,0,0,1-973.787,102.917Zm-8.6,0h-4.3a.706.706,0,0,1-.706-.706.706.706,0,0,1,.2-.5.706.706,0,0,1,.5-.21h4.3a.714.714,0,0,1,.714.714.714.714,0,0,1-.715.706Zm-8.6,0h-4.3a.714.714,0,0,1-.714-.706.714.714,0,0,1,.714-.714h4.3a.706.706,0,0,1,.5.21.706.706,0,0,1,.2.5.706.706,0,0,1-.706.706Zm-8.607,0h-4.3a.714.714,0,0,1-.714-.706.714.714,0,0,1,.714-.714h4.3a.706.706,0,0,1,.508.207.706.706,0,0,1,.207.508.706.706,0,0,1-.21.5.706.706,0,0,1-.5.2Zm-8.6,0h-4.3a.706.706,0,0,1-.5-.2.706.706,0,0,1-.21-.5.706.706,0,0,1,.207-.508.706.706,0,0,1,.508-.207h4.3a.706.706,0,0,1,.508.207.706.706,0,0,1,.207.508.706.706,0,0,1-.21.5.706.706,0,0,1-.5.2Zm-8.6,0h-4.3a.706.706,0,0,1-.706-.706.706.706,0,0,1,.2-.5.706.706,0,0,1,.5-.21h4.3a.714.714,0,0,1,.714.714.714.714,0,0,1-.714.706Zm-8.6,0h-4.3a.714.714,0,0,1-.714-.706.714.714,0,0,1,.714-.714h4.3a.706.706,0,0,1,.5.21.706.706,0,0,1,.2.5.706.706,0,0,1-.706.706Zm-8.6,0h-4.3a.715.715,0,0,1-.714-.706.715.715,0,0,1,.714-.714h4.3a.706.706,0,0,1,.5.21.706.706,0,0,1,.2.5.706.706,0,0,1-.706.706Zm-8.607,0h-4.3a.706.706,0,0,1-.5-.2.706.706,0,0,1-.21-.5.707.707,0,0,1,.207-.508.706.706,0,0,1,.508-.207h4.3a.706.706,0,0,1,.508.207.706.706,0,0,1,.207.508.706.706,0,0,1-.21.5.706.706,0,0,1-.5.2Zm-8.6,0h-4.3a.706.706,0,0,1-.5-.2.706.706,0,0,1-.21-.5.707.707,0,0,1,.207-.508.706.706,0,0,1,.508-.207h4.3a.715.715,0,0,1,.714.714.715.715,0,0,1-.715.706Zm-8.6,0h-4.3a.706.706,0,0,1-.706-.706.706.706,0,0,1,.2-.5.706.706,0,0,1,.5-.21h4.3a.714.714,0,0,1,.715.714.714.714,0,0,1-.715.706Zm-8.6,0h-4.3a.715.715,0,0,1-.714-.706.714.714,0,0,1,.714-.714h4.3a.706.706,0,0,1,.5.21.707.707,0,0,1,.2.5.706.706,0,0,1-.706.706Zm-8.607,0h-4.345a.706.706,0,0,1-.491-.239.706.706,0,0,1-.174-.517.714.714,0,0,1,.756-.665h4.254a.706.706,0,0,1,.508.207.706.706,0,0,1,.207.508.706.706,0,0,1-.21.5.706.706,0,0,1-.5.2Zm150.287-1.246a.714.714,0,0,1-.59-.316.714.714,0,0,1,.191-.989,6.538,6.538,0,0,0,2.4-2.974.706.706,0,0,1,.38-.387.706.706,0,0,1,.542,0,.714.714,0,0,1,.4.922,8,8,0,0,1-2.924,3.622.706.706,0,0,1-.4.125Zm-158.545-.258a.722.722,0,0,1-.44-.15,7.909,7.909,0,0,1-2.692-3.788.714.714,0,0,1,.449-.906.723.723,0,0,1,.9.457,6.547,6.547,0,0,0,2.218,3.107.714.714,0,0,1,.133,1,.723.723,0,0,1-.565.282Zm161.727-7.278a.706.706,0,0,1-.706-.706V89.1a.715.715,0,0,1,.706-.714.714.714,0,0,1,.714.714v4.3a.706.706,0,0,1-.2.519.706.706,0,0,1-.514.212Zm-164.56-.432a.723.723,0,0,1-.714-.714v-4.3a.714.714,0,0,1,.714-.706.715.715,0,0,1,.715.706v4.3a.723.723,0,0,1-.715.714Zm164.56-8.167a.706.706,0,0,1-.5-.21.706.706,0,0,1-.2-.5v-4.3a.715.715,0,0,1,.706-.714.714.714,0,0,1,.714.714v4.3a.706.706,0,0,1-.207.508.706.706,0,0,1-.508.207Zm-164.56-.44a.714.714,0,0,1-.714-.706v-4.3a.714.714,0,0,1,.714-.706.715.715,0,0,1,.715.706v4.3a.714.714,0,0,1-.715.706Zm164.56-8.158a.706.706,0,0,1-.5-.21.706.706,0,0,1-.2-.5v-4.3a.706.706,0,0,1,.2-.5.706.706,0,0,1,.5-.21.706.706,0,0,1,.508.207.706.706,0,0,1,.207.508v4.3a.706.706,0,0,1-.207.508.706.706,0,0,1-.508.207Zm-164.56-.44a.714.714,0,0,1-.714-.706v-4.3a.723.723,0,0,1,.714-.714.723.723,0,0,1,.715.714v4.32a.715.715,0,0,1-.715.69Zm164.56-8.167a.714.714,0,0,1-.706-.714v-4.27a.706.706,0,0,1,.706-.706.706.706,0,0,1,.5.2.706.706,0,0,1,.21.5v4.3a.715.715,0,0,1-.714.681Zm-164.56-.44a.714.714,0,0,1-.714-.714V62.89a.714.714,0,0,1,.714-.714.714.714,0,0,1,.714.714v4.3a.714.714,0,0,1-.714.714Zm164.56-8.167a.706.706,0,0,1-.706-.706v-4.3a.706.706,0,0,1,.706-.706.706.706,0,0,1,.5.2.706.706,0,0,1,.21.5v4.3a.706.706,0,0,1-.21.5.706.706,0,0,1-.5.2Zm-164.56-.432a.723.723,0,0,1-.715-.714V54.292a.714.714,0,0,1,.714-.714.714.714,0,0,1,.714.714v4.3a.723.723,0,0,1-.714.714Zm164.56-8.167a.706.706,0,0,1-.706-.706v-4.3a.714.714,0,0,1,.706-.714.714.714,0,0,1,.714.714v4.3a.706.706,0,0,1-.21.5.706.706,0,0,1-.5.2Zm-164.56-.432a.723.723,0,0,1-.715-.714v-4.3a.714.714,0,0,1,.714-.706.715.715,0,0,1,.714.706v4.3a.723.723,0,0,1-.714.714Zm164.56-8.117a.706.706,0,0,1-.5-.21.706.706,0,0,1-.2-.5V37.527a.706.706,0,0,1,.2-.5.706.706,0,0,1,.5-.21.706.706,0,0,1,.508.207.706.706,0,0,1,.207.508v4.3a.706.706,0,0,1-.191.535.706.706,0,0,1-.523.221Zm-164.56-.44a.714.714,0,0,1-.715-.706V37.086a.723.723,0,0,1,.714-.714.723.723,0,0,1,.714.714v4.3a.714.714,0,0,1-.714.706Zm164.56-8.158a.714.714,0,0,1-.706-.714V28.92a.706.706,0,0,1,.706-.706.706.706,0,0,1,.5.2.706.706,0,0,1,.21.5v4.3a.714.714,0,0,1-.714.714Zm-164.56-.44a.714.714,0,0,1-.714-.714v-4.37a.723.723,0,0,1,.714-.714.723.723,0,0,1,.714.714v4.3a.714.714,0,0,1-.2.527.715.715,0,0,1-.517.221Zm164.56-8.158a.714.714,0,0,1-.706-.714V20.321a.706.706,0,0,1,.706-.706.706.706,0,0,1,.5.2.706.706,0,0,1,.21.5v4.3a.714.714,0,0,1-.714.714Zm-164.56-.44a.714.714,0,0,1-.714-.714V19.889a.714.714,0,0,1,.714-.714.714.714,0,0,1,.714.714v4.3a.714.714,0,0,1-.714.714Zm164.56-8.167a.706.706,0,0,1-.706-.706V14.082a6.647,6.647,0,0,0-.341-2.094.706.706,0,0,1,.037-.542.706.706,0,0,1,.411-.355.706.706,0,0,1,.542.037.707.707,0,0,1,.355.411,7.949,7.949,0,0,1,.415,2.542v1.911a.706.706,0,0,1-.2.524.706.706,0,0,1-.517.215Zm-164.56-.432a.723.723,0,0,1-.715-.714V14.082a8.032,8.032,0,0,1,.581-3,.723.723,0,0,1,.931-.392.714.714,0,0,1,.39.93,6.538,6.538,0,0,0-.474,2.492v1.5a.723.723,0,0,1-.714.681Zm161.719-7.269a.714.714,0,0,1-.432-.15,6.53,6.53,0,0,0-3.581-1.338.706.706,0,0,1-.491-.239.706.706,0,0,1-.174-.517.714.714,0,0,1,.756-.665,7.976,7.976,0,0,1,4.353,1.662.706.706,0,0,1,.275.471.706.706,0,0,1-.142.526.714.714,0,0,1-.565.208Zm-158.52-.258a.689.689,0,0,1-.59-.316.7.7,0,0,1-.111-.53.7.7,0,0,1,.3-.45,7.91,7.91,0,0,1,4.445-1.371h0a.706.706,0,0,1,.508.207.706.706,0,0,1,.207.508.723.723,0,0,1-.714.714,6.547,6.547,0,0,0-3.647,1.113.723.723,0,0,1-.4.083Zm150.254-1.238h-4.3a.714.714,0,0,1-.714-.714.714.714,0,0,1,.714-.714h4.3a.723.723,0,0,1,.714.714.723.723,0,0,1-.715.673Zm-8.6,0h-4.3a.714.714,0,0,1-.706-.714.715.715,0,0,1,.706-.714h4.3a.723.723,0,0,1,.714.714.723.723,0,0,1-.715.673Zm-8.6,0h-4.3a.723.723,0,0,1-.522-.206.723.723,0,0,1-.218-.517.723.723,0,0,1,.714-.714h4.3a.714.714,0,0,1,.706.714.714.714,0,0,1-.681.681Zm-8.607,0h-4.3a.723.723,0,0,1-.714-.714.723.723,0,0,1,.714-.714h4.3a.714.714,0,0,1,.715.714.714.714,0,0,1-.715.673Zm-8.6,0h-4.3a.714.714,0,0,1-.714-.714.714.714,0,0,1,.714-.714h4.3a.714.714,0,0,1,.714.714.714.714,0,0,1-.715.673Zm-8.6,0h-4.3a.714.714,0,0,1-.69-.723.715.715,0,0,1,.706-.714h4.278a.723.723,0,0,1,.714.714.723.723,0,0,1-.715.681Zm-8.6,0h-4.3a.723.723,0,0,1-.714-.714.723.723,0,0,1,.714-.714h4.3a.714.714,0,0,1,.706.714.715.715,0,0,1-.706.673Zm-8.6,0h-4.3a.723.723,0,0,1-.714-.714.723.723,0,0,1,.714-.714h4.3a.714.714,0,0,1,.706.714.714.714,0,0,1-.706.673Zm-8.607,0h-4.3a.714.714,0,0,1-.714-.714.714.714,0,0,1,.714-.714h4.336a.714.714,0,0,1,.714.714.714.714,0,0,1-.714.673Zm-8.6,0h-4.3a.714.714,0,0,1-.706-.714.714.714,0,0,1,.706-.714h4.3a.723.723,0,0,1,.714.714.723.723,0,0,1-.715.673Zm-8.6,0h-4.3a.714.714,0,0,1-.706-.714.714.714,0,0,1,.706-.714h4.3a.723.723,0,0,1,.715.714.723.723,0,0,1-.715.673Zm-8.6,0h-4.3a.723.723,0,0,1-.715-.714.723.723,0,0,1,.714-.714h4.3a.714.714,0,0,1,.706.714.714.714,0,0,1-.706.673Zm-8.607,0h-4.3a.714.714,0,0,1-.714-.714.714.714,0,0,1,.714-.714h4.3a.714.714,0,0,1,.714.714.715.715,0,0,1-.715.673Zm-8.6,0h-4.312a.714.714,0,0,1-.715-.714.714.714,0,0,1,.715-.714h4.3a.723.723,0,0,1,.715.714.723.723,0,0,1-.7.673Zm-8.6,0h-4.3a.715.715,0,0,1-.706-.714.714.714,0,0,1,.706-.714h4.3a.723.723,0,0,1,.714.714.723.723,0,0,1-.715.673Zm-8.6,0h-4.3a.723.723,0,0,1-.714-.714.723.723,0,0,1,.714-.714h4.3a.714.714,0,0,1,.706.714.714.714,0,0,1-.706.673Zm-8.6,0h-4.271a.723.723,0,0,1-.714-.714.723.723,0,0,1,.714-.714h4.3a.715.715,0,0,1,.681.706.715.715,0,0,1-.714.681Z" transform="translate(1242.292 203.84)" fill="#25565f"/>
    <path id="Path_18147" data-name="Path 18147" d="M-756.568,143.08h-2.293a.374.374,0,0,1-.374-.374.374.374,0,0,1,.374-.374h2.276a.382.382,0,0,1,.382.374.365.365,0,0,1-.1.264A.365.365,0,0,1-756.568,143.08Zm-4.561,0H-763.4a.374.374,0,0,1-.374-.374.374.374,0,0,1,.374-.374h2.268a.374.374,0,0,1,.374.374A.374.374,0,0,1-761.129,143.08Zm-4.536,0h-2.276a.374.374,0,0,1-.374-.374.374.374,0,0,1,.374-.374h2.276a.374.374,0,0,1,.374.374A.374.374,0,0,1-765.665,143.08Zm-4.544,0h-2.268a.374.374,0,0,1-.374-.374.374.374,0,0,1,.374-.374h2.268a.374.374,0,0,1,.374.374A.374.374,0,0,1-770.21,143.08Zm-4.536,0h-2.243a.374.374,0,0,1-.374-.374.374.374,0,0,1,.374-.374h2.276a.374.374,0,0,1,.374.374.374.374,0,0,1-.121.277.374.374,0,0,1-.286.1Zm-4.544,0h-2.268a.374.374,0,0,1-.374-.374.374.374,0,0,1,.374-.374h2.268a.374.374,0,0,1,.374.374.374.374,0,0,1-.374.374Zm-4.536,0h-2.3a.374.374,0,0,1-.374-.374.374.374,0,0,1,.374-.374h2.276a.374.374,0,0,1,.374.374.374.374,0,0,1-.349.374Zm-4.544,0h-2.268a.374.374,0,0,1-.374-.374.374.374,0,0,1,.374-.374h2.268a.374.374,0,0,1,.374.374A.374.374,0,0,1-788.37,143.08Zm-4.536,0h-2.276a.374.374,0,0,1-.374-.374.374.374,0,0,1,.374-.374h2.276a.374.374,0,0,1,.374.374A.374.374,0,0,1-792.906,143.08Zm-4.544,0h-2.285a.374.374,0,0,1-.26-.121.374.374,0,0,1-.1-.269.366.366,0,0,1,.119-.262.366.366,0,0,1,.272-.1h2.251a.374.374,0,0,1,.374.374.374.374,0,0,1-.374.374Zm42.37-1.437h0a.382.382,0,0,1-.366-.39V139a.382.382,0,0,1,.374-.382.391.391,0,0,1,.382.382v2.3a.374.374,0,0,1-.136.258.374.374,0,0,1-.28.082Zm-46.025-.058a.374.374,0,0,1-.374-.374v-2.276a.374.374,0,0,1,.374-.374.382.382,0,0,1,.382.374v2.276a.382.382,0,0,1-.124.274.382.382,0,0,1-.283.1Zm46.025-4.478a.382.382,0,0,1-.374-.382v-2.268a.374.374,0,0,1,.374-.374.382.382,0,0,1,.382.374v2.268a.39.39,0,0,1-.107.3.39.39,0,0,1-.3.119Zm-46.025-.066a.374.374,0,0,1-.374-.374V134.4a.374.374,0,0,1,.374-.374.382.382,0,0,1,.382.374v2.268a.382.382,0,0,1-.124.274.382.382,0,0,1-.283.1Zm46.025-4.478a.374.374,0,0,1-.374-.374v-2.268a.382.382,0,0,1,.374-.382.39.39,0,0,1,.382.382v2.243a.382.382,0,0,1-.114.29.382.382,0,0,1-.293.108Zm-46.025-.058a.374.374,0,0,1-.374-.374v-2.293a.374.374,0,0,1,.121-.26.374.374,0,0,1,.269-.1.382.382,0,0,1,.366.39v2.293a.382.382,0,0,1-.407.341Zm44.613-3.7h-2.268a.382.382,0,0,1-.382-.374.382.382,0,0,1,.382-.374h2.285a.374.374,0,0,1,.26.121.374.374,0,0,1,.1.269.374.374,0,0,1-.112.285.374.374,0,0,1-.287.106Zm-4.544,0h-2.268a.374.374,0,0,1-.374-.374.374.374,0,0,1,.374-.374h2.268a.382.382,0,0,1,.382.374.382.382,0,0,1-.111.3.382.382,0,0,1-.3.111Zm-4.536,0h-2.276a.382.382,0,0,1-.382-.374.382.382,0,0,1,.382-.374h2.268a.374.374,0,0,1,.374.374.374.374,0,0,1-.1.292.374.374,0,0,1-.288.115Zm-4.544,0h-2.268a.374.374,0,0,1-.374-.374.374.374,0,0,1,.374-.374h2.268a.382.382,0,0,1,.382.374.382.382,0,0,1-.111.3.382.382,0,0,1-.3.111Zm-4.536,0h-2.268a.382.382,0,0,1-.382-.374.382.382,0,0,1,.382-.374h2.268a.374.374,0,0,1,.374.374.374.374,0,0,1-.105.3.374.374,0,0,1-.294.111Zm-4.544,0h-2.268a.374.374,0,0,1-.374-.374.374.374,0,0,1,.374-.374h2.268a.382.382,0,0,1,.382.374.382.382,0,0,1-.111.3.382.382,0,0,1-.3.111Zm-4.536,0H-786a.382.382,0,0,1-.382-.374.382.382,0,0,1,.382-.374h2.268a.374.374,0,0,1,.374.374.374.374,0,0,1-.105.3.374.374,0,0,1-.294.111Zm-4.544,0h-2.268a.374.374,0,0,1-.374-.374.374.374,0,0,1,.374-.374h2.268a.382.382,0,0,1,.382.374.382.382,0,0,1-.111.3.382.382,0,0,1-.3.111Zm-4.536,0h-2.268a.374.374,0,0,1-.374-.374.374.374,0,0,1,.374-.374h2.268a.374.374,0,0,1,.374.374.374.374,0,0,1-.105.3.374.374,0,0,1-.294.111Zm-4.544,0h-2.26a.374.374,0,0,1-.374-.374.366.366,0,0,1,.1-.264.366.366,0,0,1,.262-.11h2.268a.382.382,0,0,1,.382.374.382.382,0,0,1-.111.3.382.382,0,0,1-.3.111Z" transform="translate(1193.671 183.208)" fill="#25565f"/>
    <path id="Path_18148" data-name="Path 18148" d="M-851.429,332.778h-2.492a.424.424,0,0,1-.424-.424.424.424,0,0,1,.424-.424h2.492a.424.424,0,0,1,.3.121.424.424,0,0,1,.127.3.415.415,0,0,1-.124.305A.415.415,0,0,1-851.429,332.778Zm-5.035,0h-2.492a.424.424,0,0,1-.424-.424.424.424,0,0,1,.424-.424h2.492a.424.424,0,0,1,.424.424.424.424,0,0,1-.374.424Zm-5.026,0h-2.492a.423.423,0,0,1-.3-.121.424.424,0,0,1-.127-.3.424.424,0,0,1,.127-.3.423.423,0,0,1,.3-.121h2.492a.424.424,0,0,1,.424.424.424.424,0,0,1-.391.424Zm-4.985,0h-2.492a.424.424,0,0,1-.424-.424.424.424,0,0,1,.424-.424h2.492a.424.424,0,0,1,.424.424.424.424,0,0,1-.127.3.424.424,0,0,1-.3.121Zm-4.985,0h-2.492a.424.424,0,0,1-.424-.424.424.424,0,0,1,.424-.424h2.492a.424.424,0,0,1,.424.424.423.423,0,0,1-.141.319.424.424,0,0,1-.332.1Zm-4.985,0h-2.492a.424.424,0,0,1-.424-.424.424.424,0,0,1,.424-.424h2.492a.424.424,0,0,1,.424.424.424.424,0,0,1-.152.333.424.424,0,0,1-.355.09Zm-4.985,0h-2.492a.424.424,0,0,1-.424-.424.424.424,0,0,1,.424-.424h2.492a.424.424,0,0,1,.424.424.423.423,0,0,1-.164.354.423.423,0,0,1-.384.07Zm-4.985-.274a.448.448,0,0,1-.208-.05,2.492,2.492,0,0,1-1.28-2.185v-.307a.424.424,0,0,1,.121-.3.424.424,0,0,1,.3-.127.432.432,0,0,1,.432.432v.307a1.662,1.662,0,0,0,.831,1.446.415.415,0,0,1,.2.253.415.415,0,0,1-.042.32.407.407,0,0,1-.474.216Zm37.069-1.08a.474.474,0,0,1-.15,0,.424.424,0,0,1-.241-.548,1.712,1.712,0,0,0,.1-.582v-1.761a.424.424,0,0,1,.424-.424.423.423,0,0,1,.3.121.424.424,0,0,1,.127.3v1.761a2.494,2.494,0,0,1-.166.881.415.415,0,0,1-.515.249Zm-38.133-3.556a.424.424,0,0,1-.424-.424v-2.492a.424.424,0,0,1,.424-.424.423.423,0,0,1,.3.121.424.424,0,0,1,.127.3v2.492a.424.424,0,0,1-.164.354.424.424,0,0,1-.384.07Zm38.265-1.454a.424.424,0,0,1-.424-.424V323.5a.424.424,0,0,1,.424-.424.424.424,0,0,1,.3.121.424.424,0,0,1,.127.3v2.492a.424.424,0,0,1-.164.354.424.424,0,0,1-.384.07Zm-38.265-3.564a.424.424,0,0,1-.3-.127.424.424,0,0,1-.121-.3v-2.492a.424.424,0,0,1,.424-.424.424.424,0,0,1,.3.121.424.424,0,0,1,.127.3v2.492a.432.432,0,0,1-.164.355.432.432,0,0,1-.384.077Zm38.265-1.454a.424.424,0,0,1-.424-.424V318.48a.424.424,0,0,1,.424-.424.423.423,0,0,1,.3.121.424.424,0,0,1,.127.3v2.492a.424.424,0,0,1-.164.354.424.424,0,0,1-.384.07Zm-38.265-3.572a.424.424,0,0,1-.424-.424v-2.492a.424.424,0,0,1,.424-.424.424.424,0,0,1,.3.121.424.424,0,0,1,.127.3V317.4a.424.424,0,0,1-.164.354.424.424,0,0,1-.384.07Zm38.265-1.454a.424.424,0,0,1-.424-.424v-2.492a.424.424,0,0,1,.121-.3.424.424,0,0,1,.3-.127.432.432,0,0,1,.432.432v2.492a.424.424,0,0,1-.164.354.424.424,0,0,1-.384.07Zm-38.265-3.572a.424.424,0,0,1-.424-.424v-2.492a.424.424,0,0,1,.424-.424.423.423,0,0,1,.3.121.423.423,0,0,1,.127.3v2.492a.424.424,0,0,1-.164.354.424.424,0,0,1-.384.07Zm38.265-1.454a.424.424,0,0,1-.424-.424v-2.492a.424.424,0,0,1,.424-.424.424.424,0,0,1,.3.121.424.424,0,0,1,.127.3v2.492a.424.424,0,0,1-.164.354.424.424,0,0,1-.384.07Zm-38.265-3.572a.424.424,0,0,1-.424-.424v-2.492a.424.424,0,0,1,.424-.424.423.423,0,0,1,.3.121.424.424,0,0,1,.127.3v2.492a.424.424,0,0,1-.164.354.424.424,0,0,1-.384.07Zm38.265-1.454a.424.424,0,0,1-.424-.424V303.4a.424.424,0,0,1,.424-.424.424.424,0,0,1,.3.121.424.424,0,0,1,.127.3v2.492a.424.424,0,0,1-.164.354.424.424,0,0,1-.384.07Zm-38.265-3.564a.424.424,0,0,1-.424-.424v-1.753a2.491,2.491,0,0,1,.166-.9.432.432,0,0,1,.548-.249.432.432,0,0,1,.249.548,1.665,1.665,0,0,0-.108.6v1.753a.424.424,0,0,1-.164.354.424.424,0,0,1-.384.07Zm38.265-1.454a.424.424,0,0,1-.424-.424v-.3a1.662,1.662,0,0,0-.831-1.454.432.432,0,0,1-.158-.582.424.424,0,0,1,.573-.158,2.493,2.493,0,0,1,1.288,2.193v.3a.424.424,0,0,1-.153.388.424.424,0,0,1-.412.069Zm-3.531-2.393h-2.492a.424.424,0,0,1-.424-.424.424.424,0,0,1,.424-.424h2.492a.424.424,0,0,1,.424.424.415.415,0,0,1-.158.355.415.415,0,0,1-.382.069Zm-4.985,0h-2.492a.424.424,0,0,1-.424-.424.424.424,0,0,1,.424-.424h2.492a.424.424,0,0,1,.424.424.424.424,0,0,1-.171.368.424.424,0,0,1-.4.055Zm-4.985,0H-865.2a.416.416,0,0,1-.3-.122.416.416,0,0,1-.122-.3.424.424,0,0,1,.424-.424h2.492a.424.424,0,0,1,.424.424.424.424,0,0,1-.181.4.424.424,0,0,1-.434.028Zm-5.026,0h-2.492a.424.424,0,0,1-.424-.424.424.424,0,0,1,.424-.424h2.492a.424.424,0,0,1,.424.424.424.424,0,0,1-.181.4.424.424,0,0,1-.434.028Zm-4.985,0h-2.492a.424.424,0,0,1-.424-.424.424.424,0,0,1,.424-.424h2.492a.424.424,0,0,1,.424.424.424.424,0,0,1-.186.422.424.424,0,0,1-.462,0Zm-5.026,0h-2.492a.424.424,0,0,1-.424-.424.424.424,0,0,1,.424-.424h2.492a.424.424,0,0,1,.424.424.424.424,0,0,1-.186.422.424.424,0,0,1-.462,0Zm-4.985,0h-2.492a.424.424,0,0,1-.3-.121.424.424,0,0,1-.127-.3.424.424,0,0,1,.424-.424h2.492a.424.424,0,0,1,.424.424.424.424,0,0,1-.189.456.424.424,0,0,1-.492-.032Z" transform="translate(1208.295 154.439)" fill="#25565f"/>
    <path id="Path_18149" data-name="Path 18149" d="M-756.568,168.3h-2.293a.374.374,0,0,1-.374-.374.374.374,0,0,1,.374-.374h2.276a.382.382,0,0,1,.382.374.365.365,0,0,1-.1.264A.365.365,0,0,1-756.568,168.3Zm-4.561,0H-763.4a.374.374,0,0,1-.374-.374.374.374,0,0,1,.374-.374h2.268a.374.374,0,0,1,.374.374A.374.374,0,0,1-761.129,168.3Zm-4.536,0h-2.276a.374.374,0,0,1-.374-.374.374.374,0,0,1,.374-.374h2.276a.374.374,0,0,1,.374.374A.374.374,0,0,1-765.665,168.3Zm-4.544,0h-2.268a.374.374,0,0,1-.374-.374.374.374,0,0,1,.374-.374h2.268a.374.374,0,0,1,.374.374A.374.374,0,0,1-770.21,168.3Zm-4.536,0h-2.243a.374.374,0,0,1-.374-.374.374.374,0,0,1,.374-.374h2.276a.374.374,0,0,1,.374.374.374.374,0,0,1-.121.277.374.374,0,0,1-.286.1Zm-4.544,0h-2.268a.374.374,0,0,1-.374-.374.374.374,0,0,1,.374-.374h2.268a.374.374,0,0,1,.374.374.374.374,0,0,1-.374.374Zm-4.536,0h-2.3a.374.374,0,0,1-.374-.374.374.374,0,0,1,.374-.374h2.276a.374.374,0,0,1,.374.374.374.374,0,0,1-.349.374Zm-4.544,0h-2.268a.374.374,0,0,1-.374-.374.374.374,0,0,1,.374-.374h2.268a.374.374,0,0,1,.374.374A.374.374,0,0,1-788.37,168.3Zm-4.536,0h-2.276a.374.374,0,0,1-.374-.374.374.374,0,0,1,.374-.374h2.276a.374.374,0,0,1,.374.374A.374.374,0,0,1-792.906,168.3Zm-4.544,0h-2.285a.382.382,0,0,1-.357-.4.366.366,0,0,1,.119-.262.366.366,0,0,1,.272-.1h2.251a.374.374,0,0,1,.374.374.374.374,0,0,1-.106.27.374.374,0,0,1-.267.112Zm42.37-1.437h0a.382.382,0,0,1-.366-.39v-2.26a.374.374,0,0,1,.374-.374.382.382,0,0,1,.382.374V166.5a.374.374,0,0,1-.127.275.374.374,0,0,1-.289.091Zm-46.025-.058a.382.382,0,0,1-.374-.382v-2.268a.374.374,0,0,1,.374-.374.382.382,0,0,1,.382.374v2.268a.391.391,0,0,1-.123.277.39.39,0,0,1-.284.105Zm46.025-4.486a.374.374,0,0,1-.374-.374v-2.251a.374.374,0,0,1,.374-.374.382.382,0,0,1,.382.374v2.268a.382.382,0,0,1-.129.263.382.382,0,0,1-.278.094Zm-46.025-.058a.374.374,0,0,1-.374-.374v-2.268a.382.382,0,0,1,.374-.382.39.39,0,0,1,.382.382v2.268a.382.382,0,0,1-.124.274.382.382,0,0,1-.283.1Zm46.025-4.478a.374.374,0,0,1-.374-.374v-2.276a.374.374,0,0,1,.374-.374.382.382,0,0,1,.382.374v2.276a.382.382,0,0,1-.124.274.382.382,0,0,1-.284.1Zm-46.025-.058a.382.382,0,0,1-.374-.382v-2.285a.366.366,0,0,1,.125-.26.366.366,0,0,1,.274-.089.382.382,0,0,1,.366.39v2.251a.39.39,0,0,1-.129.274.391.391,0,0,1-.286.1Zm44.613-3.705h-2.268a.382.382,0,0,1-.382-.374.382.382,0,0,1,.382-.374h2.285a.374.374,0,0,1,.26.121.374.374,0,0,1,.1.269.366.366,0,0,1-.122.265.365.365,0,0,1-.277.092Zm-4.544,0h-2.268a.374.374,0,0,1-.374-.374.374.374,0,0,1,.374-.374h2.268a.382.382,0,0,1,.382.374.382.382,0,0,1-.124.274.382.382,0,0,1-.284.1Zm-4.536,0h-2.276a.382.382,0,0,1-.382-.374.382.382,0,0,1,.382-.374h2.268a.374.374,0,0,1,.374.374.374.374,0,0,1-.115.27.374.374,0,0,1-.275.1Zm-4.544,0h-2.268a.374.374,0,0,1-.374-.374.374.374,0,0,1,.374-.374h2.268a.382.382,0,0,1,.382.374.383.383,0,0,1-.124.274.382.382,0,0,1-.284.1Zm-4.536,0h-2.268a.382.382,0,0,1-.382-.374.382.382,0,0,1,.382-.374h2.268a.374.374,0,0,1,.374.374.374.374,0,0,1-.118.274.374.374,0,0,1-.281.1Zm-4.544,0h-2.268a.374.374,0,0,1-.374-.374.374.374,0,0,1,.374-.374h2.268a.382.382,0,0,1,.382.374.382.382,0,0,1-.124.274.382.382,0,0,1-.284.1Zm-4.536,0H-786a.382.382,0,0,1-.382-.374.382.382,0,0,1,.382-.374h2.268a.374.374,0,0,1,.374.374.374.374,0,0,1-.118.274.374.374,0,0,1-.281.1Zm-4.544,0h-2.268a.374.374,0,0,1-.374-.374.374.374,0,0,1,.374-.374h2.268a.382.382,0,0,1,.382.374.382.382,0,0,1-.124.274.382.382,0,0,1-.284.1Zm-4.536,0h-2.268a.374.374,0,0,1-.374-.374.374.374,0,0,1,.374-.374h2.268a.374.374,0,0,1,.374.374.374.374,0,0,1-.118.274.374.374,0,0,1-.281.1Zm-4.544,0h-2.26a.374.374,0,0,1-.374-.374.366.366,0,0,1,.1-.264.366.366,0,0,1,.261-.11h2.268a.382.382,0,0,1,.382.374.382.382,0,0,1-.124.274.382.382,0,0,1-.284.1Z" transform="translate(1193.671 178.942)" fill="#25565f"/>
    <path id="Path_18150" data-name="Path 18150" d="M-983.281,280.313h-3.863a.64.64,0,0,1-.64-.64.648.648,0,0,1,.64-.64h3.838a.656.656,0,0,1,.656.64.631.631,0,0,1-.182.452.631.631,0,0,1-.449.188Zm-7.7,0h-3.83a.631.631,0,0,1-.455-.185.632.632,0,0,1-.185-.455.64.64,0,0,1,.64-.64h3.838a.648.648,0,0,1,.648.64.639.639,0,0,1-.19.455.64.64,0,0,1-.458.184Zm-7.668,0h-3.838a.631.631,0,0,1-.455-.185.632.632,0,0,1-.185-.455.64.64,0,0,1,.64-.64h3.838a.648.648,0,0,1,.64.64.64.64,0,0,1-.64.64Zm-7.676,0h-3.838a.64.64,0,0,1-.64-.64.648.648,0,0,1,.64-.64h3.838a.64.64,0,0,1,.64.64.632.632,0,0,1-.185.455A.631.631,0,0,1-1006.327,280.313Zm-7.676,0h-3.83a.64.64,0,0,1-.458-.184.64.64,0,0,1-.19-.455.648.648,0,0,1,.648-.64h3.83a.648.648,0,0,1,.648.64.639.639,0,0,1-.19.455.64.64,0,0,1-.458.184Zm-7.668,0h-3.838a.631.631,0,0,1-.455-.185.632.632,0,0,1-.185-.455.64.64,0,0,1,.64-.64h3.838a.648.648,0,0,1,.64.64A.64.64,0,0,1-1021.671,280.313Zm-7.676,0h-3.838a.64.64,0,0,1-.64-.64.648.648,0,0,1,.64-.64h3.838a.64.64,0,0,1,.64.64.631.631,0,0,1-.185.455A.632.632,0,0,1-1029.348,280.313Zm-7.676,0h-3.8a.632.632,0,0,1-.455-.185.631.631,0,0,1-.185-.455.64.64,0,0,1,.64-.64h3.83a.648.648,0,0,1,.648.64.64.64,0,0,1-.2.468.64.64,0,0,1-.479.172Zm-7.668,0h-3.838a.631.631,0,0,1-.455-.185.63.63,0,0,1-.185-.455.64.64,0,0,1,.64-.64h3.838a.648.648,0,0,1,.64.64.64.64,0,0,1-.64.64Zm-7.676,0h-3.838a.64.64,0,0,1-.64-.64.648.648,0,0,1,.64-.64h3.838a.64.64,0,0,1,.64.64.631.631,0,0,1-.185.455A.631.631,0,0,1-1052.368,280.313Zm-7.676,0h-3.83a.631.631,0,0,1-.455-.185.632.632,0,0,1-.185-.455.64.64,0,0,1,.64-.64h3.83a.648.648,0,0,1,.648.64.639.639,0,0,1-.19.455.64.64,0,0,1-.458.184Zm-7.668,0h-3.846a.632.632,0,0,1-.455-.185.631.631,0,0,1-.185-.455.64.64,0,0,1,.64-.64h3.838a.648.648,0,0,1,.64.64.64.64,0,0,1-.631.64Zm-7.676,0h-3.838a.64.64,0,0,1-.64-.64.648.648,0,0,1,.64-.64h3.838a.64.64,0,0,1,.64.64.632.632,0,0,1-.185.455.632.632,0,0,1-.455.185Zm-7.668,0h-3.838a.631.631,0,0,1-.455-.185.631.631,0,0,1-.185-.455.64.64,0,0,1,.64-.64h3.838a.648.648,0,0,1,.64.64.64.64,0,0,1-.64.64Zm-7.676,0h-3.838a.632.632,0,0,1-.455-.185.631.631,0,0,1-.185-.455.64.64,0,0,1,.64-.64h3.838a.648.648,0,0,1,.64.64.64.64,0,0,1-.64.64Zm-7.676,0h-3.057a5.455,5.455,0,0,1-.831-.042.648.648,0,0,1-.565-.714.648.648,0,0,1,.714-.565,4.731,4.731,0,0,0,.689,0h3.066a.64.64,0,0,1,.64.64.632.632,0,0,1-.175.488.631.631,0,0,1-.482.193Zm118.742-1.088a.648.648,0,0,1-.532-.282.648.648,0,0,1,.174-.889,5.89,5.89,0,0,0,2.168-2.634.64.64,0,0,1,.831-.349.631.631,0,0,1,.344.344.631.631,0,0,1,0,.487,7.144,7.144,0,0,1-2.633,3.207.623.623,0,0,1-.349.116Zm-126.037-.449a.607.607,0,0,1-.415-.158,7.136,7.136,0,0,1-2.251-3.481.648.648,0,0,1,.042-.51.648.648,0,0,1,.4-.321.639.639,0,0,1,.512.038.64.64,0,0,1,.319.4,5.815,5.815,0,0,0,1.853,2.866.639.639,0,0,1,.222.439.64.64,0,0,1-.155.467.631.631,0,0,1-.523.241Zm128.936-6.247a.631.631,0,0,1-.455-.185.631.631,0,0,1-.185-.455V268.05a.64.64,0,0,1,.64-.64.64.64,0,0,1,.64.64v3.838a.631.631,0,0,1-.64.623Zm-131.262-.748a.631.631,0,0,1-.455-.185.631.631,0,0,1-.185-.455V267.3a.64.64,0,0,1,.64-.64.648.648,0,0,1,.64.64v3.838a.64.64,0,0,1-.615.606Zm131.262-6.92a.64.64,0,0,1-.64-.64v-3.855a.632.632,0,0,1,.185-.455.631.631,0,0,1,.455-.185.631.631,0,0,1,.455.185.631.631,0,0,1,.185.455V264.2a.64.64,0,0,1-.64.64Zm-131.262-.748a.64.64,0,0,1-.64-.64v-3.855a.631.631,0,0,1,.185-.455.631.631,0,0,1,.455-.185.64.64,0,0,1,.64.64v3.822a.648.648,0,0,1-.615.656Zm131.262-6.929a.631.631,0,0,1-.455-.185.631.631,0,0,1-.185-.455v-3.838a.64.64,0,0,1,.64-.64.64.64,0,0,1,.64.64v3.838a.631.631,0,0,1-.64.623Zm-131.262-.748a.631.631,0,0,1-.455-.185.631.631,0,0,1-.185-.455v-3.838a.64.64,0,0,1,.64-.64.648.648,0,0,1,.64.64V255.8a.64.64,0,0,1-.615.623Zm131.262-6.929a.631.631,0,0,1-.455-.185.632.632,0,0,1-.185-.455V245.03a.64.64,0,0,1,.64-.64.64.64,0,0,1,.64.64v3.838a.631.631,0,0,1-.64.623Zm-131.262-.748a.631.631,0,0,1-.455-.185.631.631,0,0,1-.185-.455v-3.838a.64.64,0,0,1,.64-.64.648.648,0,0,1,.64.64v3.838a.64.64,0,0,1-.615.623Zm131.262-6.92a.64.64,0,0,1-.64-.64v-3.838a.632.632,0,0,1,.185-.455.631.631,0,0,1,.455-.185.631.631,0,0,1,.455.185.631.631,0,0,1,.185.455V241.2a.64.64,0,0,1-.64.64Zm-131.262-.748a.64.64,0,0,1-.64-.64v-3.838a.631.631,0,0,1,.185-.455.631.631,0,0,1,.455-.185.64.64,0,0,1,.64.64v3.838a.648.648,0,0,1-.615.623Zm131.262-6.929a.631.631,0,0,1-.455-.185.632.632,0,0,1-.185-.455v-3.838a.64.64,0,0,1,.64-.64.64.64,0,0,1,.64.64v3.846a.632.632,0,0,1-.64.615Zm-131.262-.748a.631.631,0,0,1-.455-.185.631.631,0,0,1-.185-.455v-3.838a.64.64,0,0,1,.64-.64.648.648,0,0,1,.64.64v3.838a.64.64,0,0,1-.615.623Zm131.262-6.929a.631.631,0,0,1-.455-.185.632.632,0,0,1-.185-.455v-3.838a.64.64,0,0,1,.64-.64.64.64,0,0,1,.64.64v3.838a.632.632,0,0,1-.64.623Zm-131.262-.748a.631.631,0,0,1-.455-.185.631.631,0,0,1-.185-.455v-3.838a.64.64,0,0,1,.64-.64.648.648,0,0,1,.64.64V225.1a.64.64,0,0,1-.615.623Zm131.262-6.92a.64.64,0,0,1-.64-.64v-3.838a.632.632,0,0,1,.185-.455.631.631,0,0,1,.455-.185.631.631,0,0,1,.455.185.631.631,0,0,1,.185.455v3.838a.64.64,0,0,1-.64.623Zm-131.262-.748a.64.64,0,0,1-.64-.64v-3.838a.631.631,0,0,1,.185-.455.631.631,0,0,1,.455-.185.64.64,0,0,1,.64.64v3.838a.648.648,0,0,1-.615.623Zm131.262-6.929a.631.631,0,0,1-.455-.185.632.632,0,0,1-.185-.455v-3.838a.64.64,0,0,1,.64-.64.64.64,0,0,1,.64.64V210.5a.631.631,0,0,1-.64.6Zm-131.262-.748a.631.631,0,0,1-.455-.185.631.631,0,0,1-.185-.455v-3.838a.64.64,0,0,1,.64-.64.648.648,0,0,1,.64.64v3.838a.64.64,0,0,1-.615.623Zm131.262-6.929a.631.631,0,0,1-.455-.185.631.631,0,0,1-.185-.455v-3.855a.64.64,0,0,1,.64-.64.64.64,0,0,1,.64.64v3.822a.631.631,0,0,1-.179.466.631.631,0,0,1-.461.191Zm-131.262-.748a.631.631,0,0,1-.455-.185.631.631,0,0,1-.185-.455v-3.855a.64.64,0,0,1,.64-.64.648.648,0,0,1,.64.64v3.838a.64.64,0,0,1-.615.64Zm131.262-6.92a.64.64,0,0,1-.64-.64V191.32a.631.631,0,0,1,.185-.455.631.631,0,0,1,.455-.185.631.631,0,0,1,.455.185.631.631,0,0,1,.185.455v3.838a.64.64,0,0,1-.64.623Zm-131.262-.748a.64.64,0,0,1-.64-.64v-3.838a.631.631,0,0,1,.185-.455.631.631,0,0,1,.455-.185.64.64,0,0,1,.64.64v3.838a.648.648,0,0,1-.615.623Zm130.98-6.9a.648.648,0,0,1-.615-.465,5.816,5.816,0,0,0-1.853-2.858.648.648,0,0,1-.075-.906.648.648,0,0,1,.906-.075,7.178,7.178,0,0,1,2.251,3.489.631.631,0,0,1-.051.485.631.631,0,0,1-.381.3.692.692,0,0,1-.158.008Zm-130.481-.706a.664.664,0,0,1-.249-.05.64.64,0,0,1-.341-.831,7.2,7.2,0,0,1,2.642-3.2.632.632,0,0,1,.482-.1.631.631,0,0,1,.407.275.648.648,0,0,1-.183.889,5.941,5.941,0,0,0-2.168,2.634.639.639,0,0,1-.565.365Zm124.965-3.971h-.075a6.4,6.4,0,0,0-.69-.042H-986.4a.631.631,0,0,1-.455-.185.631.631,0,0,1-.185-.455.64.64,0,0,1,.64-.64h3.074a6.863,6.863,0,0,1,.831.05.64.64,0,0,1,.565.706.64.64,0,0,1-.607.548Zm-7.676-.05h-3.838a.64.64,0,0,1-.64-.64.648.648,0,0,1,.64-.64h3.838a.64.64,0,0,1,.64.64.631.631,0,0,1-.615.623Zm-7.676,0h-3.83a.64.64,0,0,1-.458-.184.64.64,0,0,1-.19-.455.648.648,0,0,1,.648-.64h3.83a.64.64,0,0,1,.64.64.631.631,0,0,1-.615.623Zm-7.668,0h-3.838a.631.631,0,0,1-.455-.185.631.631,0,0,1-.185-.455.64.64,0,0,1,.64-.64h3.838a.648.648,0,0,1,.64.64.64.64,0,0,1-.615.623Zm-7.676,0h-3.838a.64.64,0,0,1-.64-.64.648.648,0,0,1,.64-.64h3.838a.64.64,0,0,1,.64.64.631.631,0,0,1-.615.623Zm-7.676,0h-3.83a.64.64,0,0,1-.458-.184.64.64,0,0,1-.19-.455.648.648,0,0,1,.648-.64h3.83a.648.648,0,0,1,.648.64.64.64,0,0,1-.59.623Zm-7.668,0h-3.838a.631.631,0,0,1-.455-.185.632.632,0,0,1-.185-.455.64.64,0,0,1,.64-.64h3.838a.648.648,0,0,1,.64.64.64.64,0,0,1-.615.623Zm-7.676,0h-3.838a.64.64,0,0,1-.64-.64.648.648,0,0,1,.64-.64h3.838a.64.64,0,0,1,.64.64.631.631,0,0,1-.615.623Zm-7.676,0h-3.83a.64.64,0,0,1-.458-.184.64.64,0,0,1-.19-.455.648.648,0,0,1,.648-.64h3.83a.648.648,0,0,1,.648.64.639.639,0,0,1-.623.623Zm-7.668,0h-3.838a.631.631,0,0,1-.455-.185.631.631,0,0,1-.185-.455.64.64,0,0,1,.64-.64h3.838a.648.648,0,0,1,.64.64.639.639,0,0,1-.631.623Zm-7.676,0h-3.838a.64.64,0,0,1-.64-.64.648.648,0,0,1,.64-.64h3.838a.64.64,0,0,1,.64.64.632.632,0,0,1-.615.623Zm-7.676,0h-3.83a.64.64,0,0,1-.458-.184.639.639,0,0,1-.19-.455.648.648,0,0,1,.648-.64h3.83a.648.648,0,0,1,.648.64.64.64,0,0,1-.623.623Zm-7.668,0h-3.838a.631.631,0,0,1-.455-.185.63.63,0,0,1-.185-.455.64.64,0,0,1,.64-.64h3.838a.648.648,0,0,1,.64.64.64.64,0,0,1-.615.623Zm-7.676,0h-3.838a.64.64,0,0,1-.64-.64.648.648,0,0,1,.64-.64h3.838a.64.64,0,0,1,.64.64.631.631,0,0,1-.615.623Zm-7.676,0h-3.83a.64.64,0,0,1-.458-.184.64.64,0,0,1-.19-.455.648.648,0,0,1,.648-.64h3.83a.648.648,0,0,1,.648.64.64.64,0,0,1-.623.623Zm-7.668,0h-3.8a.64.64,0,0,1-.64-.64.631.631,0,0,1,.182-.452.631.631,0,0,1,.449-.188h3.838a.648.648,0,0,1,.64.64.64.64,0,0,1-.648.623Z" transform="translate(1245.655 174.056)" fill="#25565f"/>
    <path id="Path_18151" data-name="Path 18151" d="M167.294,269.18H313.826a9.014,9.014,0,0,1,9.014,8.989v77.353a9.014,9.014,0,0,1-9.014,9.047H167.294a9.014,9.014,0,0,1-9.014-9.014V278.169A9.022,9.022,0,0,1,167.294,269.18Z" transform="translate(-24.809 -45.551)" fill="#ddf1f6"/>
    <path id="Path_18152" data-name="Path 18152" d="M-1036.22,56.6V94.434a2.974,2.974,0,0,0,1.56,2.625,2.974,2.974,0,0,0,3.051-.133l28.8-18.9a2.983,2.983,0,0,0,1.344-2.492,2.983,2.983,0,0,0-1.344-2.492l-28.761-18.917a2.974,2.974,0,0,0-3.075-.17A2.974,2.974,0,0,0-1036.22,56.6Z" transform="translate(1233.395 195.807)" fill="#f89520"/>
    <path id="Path_18153" data-name="Path 18153" d="M-1102.61,126.4a2.949,2.949,0,0,1,.867-2.088,2.949,2.949,0,0,1,2.091-.861,2.949,2.949,0,0,1,2.949,2.949,2.957,2.957,0,0,1-2.949,2.958,2.958,2.958,0,0,1-2.958-2.958Z" transform="translate(1244.63 183.988)" fill="#25565f"/>
    <path id="Path_18154" data-name="Path 18154" d="M-964.681,127.662h-133.589a.831.831,0,0,1-.831-.831h0a.831.831,0,0,1,.831-.831h133.589a.831.831,0,0,1,.789.831h0A.831.831,0,0,1-964.681,127.662Z" transform="translate(1244.036 183.556)" fill="#25565f"/>
    <rect id="Rectangle_926" data-name="Rectangle 926" width="50.735" height="75.733" transform="translate(246.24 479.225)" fill="#ddf1f6"/>
    <path id="Path_18155" data-name="Path 18155" d="M-940.912,356.735h-.7v-3.124a2.035,2.035,0,0,1,2.035-2.027h8.582a1.321,1.321,0,0,0,1.288-1l1.362-5.159a1.338,1.338,0,0,0-.233-1.155,1.33,1.33,0,0,0-1.064-.523h-11.2v-.69h11.2a2.011,2.011,0,0,1,1.612.789,2.035,2.035,0,0,1,.357,1.753l-1.362,5.159a2.019,2.019,0,0,1-1.961,1.512h-8.582a1.346,1.346,0,0,0-1.338,1.338Z" transform="translate(1217.384 146.824)" fill="#25565f"/>
    <rect id="Rectangle_927" data-name="Rectangle 927" width="19.257" height="5.857" rx="2.928" transform="translate(267.541 487.292)" fill="#f89520"/>
    <path id="Path_18156" data-name="Path 18156" d="M-941.579,371.978h0a1.911,1.911,0,0,1-1.911-1.9V358.5a1.9,1.9,0,0,1,.56-1.348,1.9,1.9,0,0,1,1.351-.554h0a1.9,1.9,0,0,1,1.351.554,1.9,1.9,0,0,1,.56,1.348v11.573a1.911,1.911,0,0,1-1.911,1.9Z" transform="translate(1217.702 144.533)" fill="#25565f"/>
    <g id="Group_10299" data-name="Group 10299" transform="translate(-2.066 -7.865)">
      <path id="Path_18157" data-name="Path 18157" d="M-852.612,405.331s1.834,5.653,1.683,6.965-1.312,5.711-2.136,6.837-1.23-4.643-1.88-5.456-.128,2.159-.592,2.438-1.416-2.229-1.822-3.111,1-4.132,1.01-6.407S-852.612,405.331-852.612,405.331Z" transform="translate(1231.752 160.304)" fill="#fabcb6"/>
      <path id="Path_18158" data-name="Path 18158" d="M-890.446,367.845a8.033,8.033,0,0,1,3.758-7.482,8.033,8.033,0,0,1,8.372-.075l.337.209c8.323,5.363,26.268,30.343,27.5,32.85s4.887,22.415,4.887,22.415-4.5,1.648-6.616-.058c0,0-7.3-18.886-8.381-19.826s-29.24-16.739-29.472-22.67C-890.168,371.652-890.3,369.76-890.446,367.845Z" transform="translate(1226.44 152.914)" fill="#1d3a3e"/>
      <path id="Path_18159" data-name="Path 18159" d="M-845.491,492.841s3.355,3.053,2.7,5.235-3.691,3.622-4.1,6.28-2.043,4.109-3.482,4.109h-7.023s-1.079-1.869,1.532-2.438,3.61-3.68,3.482-6.582a51.468,51.468,0,0,1,.244-6.767l5.56-1.288Z" transform="translate(1231.724 174.177)" fill="#25565f"/>
      <path id="Path_18160" data-name="Path 18160" d="M-879.888,499.828s.6,6.965-.871,7.7H-899.61s0-2.171,3.03-2.658,8.346-2.252,9.286-6.2S-879.888,499.828-879.888,499.828Z" transform="translate(1224.971 175.106)" fill="#25565f"/>
      <path id="Path_18161" data-name="Path 18161" d="M-896.33,414.911s1,12.211,2.159,26.884c1.59,19.942,3.482,44.435,3.691,49.078.325,8.056,1.637,20.952,1.637,20.952s3.111,3.064,9.286,1.764a207.463,207.463,0,0,0,7.127-37.865,3.907,3.907,0,0,1,.081-.963c1.463-19.815,3.761-61.521,3.761-61.521Z" transform="translate(1225.499 161.611)" fill="#f89520"/>
      <path id="Path_18162" data-name="Path 18162" d="M-896.33,414.911s1,12.211,2.159,26.884l21.776,33.93a3.908,3.908,0,0,1,.081-.963c1.463-19.815,3.761-61.521,3.761-61.521Z" transform="translate(1225.499 161.611)" fill="#bb6928"/>
      <path id="Path_18163" data-name="Path 18163" d="M-892.42,417.036s17.922,44.226,29.7,65,15.462,26.594,15.462,26.594,6.744-2.658,7.359-4.481c0,0-4.5-40.117-12.4-49.914-4.457-5.525-9.693-22.113-9.936-27.917s-1.6-17.272-1.6-17.272Z" transform="translate(1226.128 160.938)" fill="#f89520"/>
      <path id="Path_18164" data-name="Path 18164" d="M-876.473,360.788s-12,6.094-19.037,4.063a16.563,16.563,0,0,1,4.643-3.877c-.267-1.4-.476-2.612-.6-3.645a32.537,32.537,0,0,1-.372-3.726l4.643-3.773,4.364-3.61C-883.02,356.133-876.473,360.788-876.473,360.788Z" transform="translate(1225.631 150.836)" fill="#fabcb6"/>
      <path id="Path_18165" data-name="Path 18165" d="M-863.718,421.152a49.448,49.448,0,0,1-14.8,6.384c-6.338,1.5-14.127,1.056-16.727,1.451a1.057,1.057,0,0,1-.755-.2c-.209-.1-1.358-7.824-2.507-17.574-.058-.395-.1-.789-.128-1.161v-.128c-.441-3.807-.836-7.812-1.161-11.828-.279-3.122-.511-6.21-.673-9.112-.2-3.633-.279-6.965-.2-9.716a31.713,31.713,0,0,1,.221-3.355,23.971,23.971,0,0,1,5.966-12.768l2.124-2.426a11.608,11.608,0,0,0,7.348-1.869c2.589-1.706,5.386-3.54,5.909-3.238,3.981,2.182,7.208,7.812,9.518,15.253a84.885,84.885,0,0,1,2.96,14.22c.209,1.59.383,3.227.522,4.864l.07.894c.313,4.469.824,8.648,1.393,12.374.755,5.038,1.625,9.286,2.229,12.223.313,1.509.545,2.681.685,3.482S-863.068,420.746-863.718,421.152Z" transform="translate(1224.797 152.341)" fill="#25565f"/>
      <path id="Path_18166" data-name="Path 18166" d="M-883.216,349.5s-2.96,5.653-8.752,7.325a32.508,32.508,0,0,1-.372-3.726l4.643-3.773Z" transform="translate(1226.141 151.336)" fill="#f7a4a0"/>
      <path id="Path_18167" data-name="Path 18167" d="M-893.843,355.1s11.608,1.66,12.548-5.467,3.076-11.724-4.295-13.082-9.17,1.161-10.076,3.482S-896.838,354.545-893.843,355.1Z" transform="translate(1225.507 149.22)" fill="#fabcb6"/>
      <path id="Path_18168" data-name="Path 18168" d="M-876.841,336.142c.093-.128.337-.232.882-.267a2.17,2.17,0,0,0-1.021-.267,2.693,2.693,0,0,0-1.846-2.322,1.625,1.625,0,0,1,.813,1.161c-1.532-1.509-4.748-2.565-13.6-1.683-11.608,1.161-7.661,8.555-6.129,9.414s5.293-1.66,8.125-1.486,3.482,4.225,4.4,4.759.569-.441,1.857-1.045,1.439,1.532,1.161,2.925,1.463,3.2,1.463,3.2l1.753-1.973c1.764-1.962,3.285-10.192,2.438-11.921Z" transform="translate(1224.965 148.621)" fill="#4f1a0f"/>
      <path id="Path_18169" data-name="Path 18169" d="M-880.347,376.6s-9.774,7.441-20.151,9.077c-.2-3.633-.279-6.965-.2-9.716Z" transform="translate(1224.792 155.618)" fill="#1d3a3e"/>
      <path id="Path_18170" data-name="Path 18170" d="M-933.426,369.123c-.163-.163-2.147-6.837-5.607-6.349-2.24.313-5.92,1.625-4.945,4.643.383,1.161,7.243,5.177,7.243,5.177Z" transform="translate(1217.813 153.494)" fill="#fabcb6"/>
      <path id="Path_18171" data-name="Path 18171" d="M-873.125,364.578a8.021,8.021,0,0,1,3.917,7.37,8.021,8.021,0,0,1-4.753,6.861l-.371.151c-9.182,3.691-39.943,3.854-42.705,3.413s-21.1-9-21.1-9,1.265-4.643,3.877-5.351c0,0,19.629,4.968,21.033,4.643s30.563-14.138,35.531-10.911C-876.386,362.605-874.773,363.592-873.125,364.578Z" transform="translate(1218.776 153.255)" fill="#25565f"/>
    </g>
    <path id="Path_18172" data-name="Path 18172" d="M-739.515-103.275h-17.529a1.346,1.346,0,0,1-1.346-1.338h0a1.346,1.346,0,0,1,1.346-1.338h17.529a1.346,1.346,0,0,1,1.338,1.338h0A1.346,1.346,0,0,1-739.515-103.275Z" transform="translate(1186.379 222.808)" fill="#fff"/>
    <path id="Path_18173" data-name="Path 18173" d="M-739.515-96.968h-17.529a1.346,1.346,0,0,1-1.346-1.3h0a1.346,1.346,0,0,1,1.346-1.338h17.529a1.346,1.346,0,0,1,1.338,1.338h0A1.346,1.346,0,0,1-739.515-96.968Z" transform="translate(1186.379 221.735)" fill="#fff"/>
    <path id="Path_18174" data-name="Path 18174" d="M-739.515-90.545h-17.529a1.346,1.346,0,0,1-1.346-1.338h0a1.346,1.346,0,0,1,1.346-1.338h17.529a1.346,1.346,0,0,1,1.338,1.338h0A1.346,1.346,0,0,1-739.515-90.545Z" transform="translate(1186.379 220.654)" fill="#fff"/>
    <path id="Path_18175" data-name="Path 18175" d="M-758.241,92.977h-41.73a1.778,1.778,0,0,1-1.77-1.77h0a1.778,1.778,0,0,1,1.77-1.778h41.73a1.778,1.778,0,0,1,1.778,1.778h0A1.778,1.778,0,0,1-758.241,92.977Z" transform="translate(1193.715 189.745)" fill="#fff"/>
    <path id="Path_18176" data-name="Path 18176" d="M-758.241,114.2h-41.73a1.786,1.786,0,0,1-1.77-1.778h0a1.778,1.778,0,0,1,1.77-1.778h41.73a1.778,1.778,0,0,1,1.778,1.778h0a1.786,1.786,0,0,1-1.778,1.778Z" transform="translate(1193.715 186.156)" fill="#fff"/>
    <path id="Path_18177" data-name="Path 18177" d="M-759.907,103.586h-49.9a1.778,1.778,0,0,1-1.778-1.778h0a1.786,1.786,0,0,1,1.778-1.778h49.9a1.786,1.786,0,0,1,1.778,1.778h0a1.778,1.778,0,0,1-1.778,1.778Z" transform="translate(1195.382 187.951)" fill="#fff"/>
    <path id="Path_18178" data-name="Path 18178" d="M-861.082,319.46a5.869,5.869,0,0,1-.939.058,6.231,6.231,0,0,1-4.411-1.886,6.281,6.281,0,0,1,.108-8.864h0a6.281,6.281,0,0,1,8.864.108,6.281,6.281,0,0,1-.108,8.864,6.231,6.231,0,0,1-3.514,1.72Zm-4.519-9.969a5.234,5.234,0,0,0-.091,7.4A5.193,5.193,0,0,0-862,318.471a5.2,5.2,0,0,0,3.714-1.487,5.242,5.242,0,0,0,.091-7.4,5.242,5.242,0,0,0-7.4-.091Z" transform="translate(1204.963 152.928)" fill="#25565f"/>
    <rect id="Rectangle_928" data-name="Rectangle 928" width="1.03" height="8.549" transform="translate(338.524 469.844) rotate(45.66)" fill="#25565f"/>
    <path id="Path_18179" data-name="Path 18179" d="M-875.594,327.963h0a.93.93,0,0,1,0-1.3l3.606-3.514a.922.922,0,0,1,1.3,0h0a.914.914,0,0,1,.269.648.914.914,0,0,1-.269.648l-3.631,3.523A.914.914,0,0,1-875.594,327.963Z" transform="translate(1206.258 150.24)" fill="#25565f"/>
    <path id="Path_18180" data-name="Path 18180" d="M-762.811,529.205h0a2.2,2.2,0,0,1-1.878-1.744l-48.185-197.3a1.671,1.671,0,0,1,.14-1.269.867.867,0,0,1,.882-.487h0a2.185,2.185,0,0,1,1.877,1.733l48.185,197.3a1.686,1.686,0,0,1-.141,1.271A.878.878,0,0,1-762.811,529.205Z" transform="translate(1195.609 143.478)" fill="#25565f"/>
    <path id="Path_18181" data-name="Path 18181" d="M-716.1,528.905h0a2.2,2.2,0,0,1-1.878-1.744l-48.185-197.3a1.671,1.671,0,0,1,.14-1.269.867.867,0,0,1,.882-.486h0a2.185,2.185,0,0,1,1.878,1.733l48.185,197.3a1.685,1.685,0,0,1-.141,1.271A.878.878,0,0,1-716.1,528.905Z" transform="translate(1187.705 143.453)" fill="#25565f"/>
    <path id="Path_18182" data-name="Path 18182" d="M-764.5,354.511l-38.963.293a2.02,2.02,0,0,1-1.77-1.6h0a1.484,1.484,0,0,1,.13-1.164.819.819,0,0,1,.834-.443l38.963-.293a2.016,2.016,0,0,1,1.77,1.584h0a1.5,1.5,0,0,1-.131,1.165.83.83,0,0,1-.833.451Z" transform="translate(1194.316 145.431)" fill="#25565f"/>
    <path id="Path_18183" data-name="Path 18183" d="M-754.38,385.321l-38.963.293a2.016,2.016,0,0,1-1.77-1.584h0a1.5,1.5,0,0,1,.131-1.165.83.83,0,0,1,.833-.451l38.963-.293a2.02,2.02,0,0,1,1.77,1.6h0a1.484,1.484,0,0,1-.13,1.164A.819.819,0,0,1-754.38,385.321Z" transform="translate(1192.604 149.861)" fill="#25565f"/>
    <path id="Path_18184" data-name="Path 18184" d="M-744.631,415l-38.972.293a2.063,2.063,0,0,1-1.77-1.6h0a1.5,1.5,0,0,1,.136-1.157.83.83,0,0,1,.828-.449l38.972-.3a2.063,2.063,0,0,1,1.769,1.6h0a1.5,1.5,0,0,1-.131,1.166.83.83,0,0,1-.833.451Z" transform="translate(1190.955 153.38)" fill="#25565f"/>
    <path id="Path_18185" data-name="Path 18185" d="M-733.66,448.4l-38.963.3a2.046,2.046,0,0,1-1.77-1.6h0a1.5,1.5,0,0,1,.131-1.165.83.83,0,0,1,.833-.451l38.963-.293a2.054,2.054,0,0,1,1.77,1.6h0a1.484,1.484,0,0,1-.13,1.164A.819.819,0,0,1-733.66,448.4Z" transform="translate(1189.098 157.343)" fill="#25565f"/>
    <path id="Path_18186" data-name="Path 18186" d="M-722.171,483.371l-38.972.293a2.033,2.033,0,0,1-1.77-1.584h0a1.5,1.5,0,0,1,.131-1.165.83.83,0,0,1,.833-.451l38.972-.293a2.019,2.019,0,0,1,1.761,1.584h0a1.486,1.486,0,0,1-.123,1.167A.823.823,0,0,1-722.171,483.371Z" transform="translate(1187.154 162.313)" fill="#25565f"/>
    <path id="Path_18187" data-name="Path 18187" d="M-815.1,248.234h0a.573.573,0,0,1-.665-.449l-.623-3.223a.565.565,0,0,1,.086-.426.565.565,0,0,1,.363-.239h0a.565.565,0,0,1,.426.086.565.565,0,0,1,.239.363l.623,3.223a.573.573,0,0,1-.449.665Z" transform="translate(1196.196 163.607)" fill="#25565f"/>
    <rect id="Rectangle_929" data-name="Rectangle 929" width="0.39" height="4.744" transform="translate(378.991 402.056) rotate(-10.95)" fill="#25565f"/>
    <path id="Path_18188" data-name="Path 18188" d="M-817.928,204.489a15.071,15.071,0,0,0-1.146-4.428c-.773-1.221-3.714-2.019-3.9-1.836-.573.557,1.7,2.492,1.786,3.257s-1.155.216-.557,1.662a11.043,11.043,0,0,0,2.168,2.742Z" transform="translate(1197.325 171.338)" fill="#fabcb6"/>
    <path id="Path_18189" data-name="Path 18189" d="M-818.825,205.171c1.072-.831,1.3-.831,1.3-.831s9.911,8.582,10.875,9.346,15.851,5.084,15.851,5.084l2.359,12.1s-20.138-9.728-22.539-11.714c-3.979-3.323-9-12.462-9-12.462A3.864,3.864,0,0,1-818.825,205.171Z" transform="translate(1196.801 170.299)" fill="#bb6928"/>
    <path id="Path_18190" data-name="Path 18190" d="M-786.925,344.946s-.166,4.154-.964,5.134l-11.041.066a1.728,1.728,0,0,1,1.661-1.662,7.394,7.394,0,0,0,5.367-4.229C-790.68,341.548-786.925,344.946-786.925,344.946Z" transform="translate(1193.239 146.799)" fill="#fff"/>
    <path id="Path_18191" data-name="Path 18191" d="M-761.035,344.26s.773,5.491-.274,5.591l-6.314.108c-2.2.042-5.815,0-5.815,0a.581.581,0,0,1-.49-.272.582.582,0,0,1-.033-.559,2.343,2.343,0,0,1,1.662-1.072c1.927-.366,5.134-1.778,6.256-4.353S-761.035,344.26-761.035,344.26Z" transform="translate(1189.023 146.887)" fill="#fff"/>
    <path id="Path_18192" data-name="Path 18192" d="M-791.39,274.676s3.074,10.75,11.872,29.409,9.222,27.656,9.222,27.656a7.668,7.668,0,0,0,3.1.282,8.233,8.233,0,0,0,3.256-1.055s-.565-22.215-4.727-31.628-4.985-35.192-4.985-35.192Z" transform="translate(1191.963 160.178)" fill="#1d3a3e"/>
    <path id="Path_18193" data-name="Path 18193" d="M-797.33,265.69a268.175,268.175,0,0,0,2.642,37.078c2.874,20.429,1.529,29.908,1.529,29.908s.764.557,3.115.548a7.037,7.037,0,0,0,4.154-1.146s4.154-20.445,2.941-30.672,5.641-35.092,5.641-35.092Z" transform="translate(1192.968 159.917)" fill="#25565f"/>
    <path id="Path_18194" data-name="Path 18194" d="M-782.569,217.141l-3.248,2.409-4.7-.989c.067-.432.374-2.21.656-3.822l.05-.282c.241-1.362.457-2.542.457-2.542l4.386-2.185,1.662-.831s-.125,1.52-.141,1.745A14.123,14.123,0,0,0-782.569,217.141Z" transform="translate(1191.816 169.528)" fill="#fabcb6"/>
    <path id="Path_18195" data-name="Path 18195" d="M-774.523,259.551c-1.063,4.86-23.827,2.725-23.527-.241,0-.1.066-1.479.149-3.323.174-4,.44-10.26.474-10.75h0c.407-4.154.831-8.183.831-10.8a37.274,37.274,0,0,1,.756-6.754,49.827,49.827,0,0,1,1.271-5.134,5.733,5.733,0,0,1,1.554-2.492,5.816,5.816,0,0,1,1.778-1.13c.174-.075.366-.133.548-.191,2.675-.773,6.389-1.736,7.386-1.446,2.725.831,4.744,5.591,6.173,11.7C-774.448,240.3-773.833,256.377-774.523,259.551Z" transform="translate(1193.091 168.117)" fill="#f89520"/>
    <path id="Path_18196" data-name="Path 18196" d="M-783.674,210.888c-.964,1.844-4.553,3.439-6.056,4.021l.05-.282c.241-1.362.457-2.542.457-2.542l4.386-2.185C-783.865,209.883-783.308,210.124-783.674,210.888Z" transform="translate(1191.682 169.358)" fill="#f7a4a0"/>
    <path id="Path_18197" data-name="Path 18197" d="M-791.892,209.563s7.917,2.492,9.379-2.492,3.473-7.975-1.52-9.762-6.547-.191-7.435,1.346S-793.919,208.791-791.892,209.563Z" transform="translate(1192.216 171.622)" fill="#fabcb6"/>
    <path id="Path_18198" data-name="Path 18198" d="M-790.952,197.64s.5,5.766,1.662,5.516,2.276-.44,2.1,1.3-1.828,3.739,1.844,4.054,8.964-9.18,7.951-10.975C-780.276,192.365-795.164,191.318-790.952,197.64Z" transform="translate(1192.015 172.172)" fill="#4f1a0f"/>
    <path id="Path_18199" data-name="Path 18199" d="M-797.87,260.042c.174-4,.44-10.26.474-10.75h0l13.442-8.042S-783.431,259.992-797.87,260.042Z" transform="translate(1193.06 164.053)" fill="#bb6928"/>
    <path id="Path_18200" data-name="Path 18200" d="M-812.09,243.165a34.537,34.537,0,0,0-3.257-2,6.738,6.738,0,0,0-2.293-.208c-.083.133-.316.548,0,.681s.665.091.557.191-1.229-.432-1.487.133-.482,2.492.831,3.115,4.544.058,4.777.125C-811,245.774-812.09,243.165-812.09,243.165Z" transform="translate(1196.596 164.107)" fill="#fabcb6"/>
    <path id="Path_18201" data-name="Path 18201" d="M-810.938,239.6s13.292,2.268,14.514,1.662c1.886-.922-.731-14.447-.731-14.447a3.9,3.9,0,0,1,3.473-3.8c3.107-.623,6.115,1.7,6.115,1.7s2.733,2.451,2.384,5.159c-.773,6.007-1.977,18.227-6,20.1-5.184,2.418-20.188-6.7-20.188-6.7a2.591,2.591,0,0,1-.424-1.745,4.02,4.02,0,0,1,.856-1.936Z" transform="translate(1195.419 167.156)" fill="#f89520"/>
    <path id="Path_18202" data-name="Path 18202" d="M-821.759,203.463s-.831-1.662-.989-2.01.191-.249.523-.075.773,1.163,1.279,1.047S-821.759,203.463-821.759,203.463Z" transform="translate(1197.276 170.827)" fill="#fabcb6"/>
    <path id="Path_18203" data-name="Path 18203" d="M-1104.941-59.966a30.805,30.805,0,0,0,17.373,27.724l-14.7-40.26a30.739,30.739,0,0,0-2.667,12.536Zm51.608-1.554a16.174,16.174,0,0,0-2.542-8.5c-1.562-2.492-3.024-4.686-3.024-7.219a5.342,5.342,0,0,1,5.176-5.475h.4a30.739,30.739,0,0,0-20.769-8.083,30.789,30.789,0,0,0-25.754,13.882h1.986c3.223,0,8.208-.39,8.208-.39a1.271,1.271,0,0,1,1.138,1.163,1.271,1.271,0,0,1-.938,1.329s-1.661.2-3.522.291l11.215,33.372,6.746-20.221-4.827-13.01c-1.661-.091-3.232-.291-3.232-.291a1.271,1.271,0,0,1-.941-1.326,1.271,1.271,0,0,1,1.132-1.167s5.093.39,8.117.39c3.223,0,8.216-.39,8.216-.39A1.271,1.271,0,0,1-1065.418-76a1.271,1.271,0,0,1-.941,1.326s-1.661.2-3.522.291l11.132,33.123,3.074-10.268c1.329-4.262,2.343-7.327,2.343-9.969Zm-20.254,4.245-9.247,26.859a30.739,30.739,0,0,0,8.707,1.263,30.64,30.64,0,0,0,10.227-1.753,2.253,2.253,0,0,1-.216-.424Zm26.493-17.446a23.58,23.58,0,0,1,.208,3.165,29.178,29.178,0,0,1-2.343,11.033l-9.413,27.208A30.788,30.788,0,0,0-1043.322-59.9a30.687,30.687,0,0,0-3.772-14.779Zm-27.033-21.135A35.956,35.956,0,0,0-1110-59.966a35.956,35.956,0,0,0,35.914,35.914,35.956,35.956,0,0,0,35.914-35.914,35.956,35.956,0,0,0-35.914-35.914Zm0,70.184a34.311,34.311,0,0,1-34.27-34.269,34.3,34.3,0,0,1,34.27-34.261,34.3,34.3,0,0,1,34.261,34.261,34.311,34.311,0,0,1-34.261,34.269Z" transform="translate(1245.88 221.104)" fill="#fff"/>
  </g>
</svg>
