<svg xmlns="http://www.w3.org/2000/svg" xmlns:xlink="http://www.w3.org/1999/xlink" width="450.5" height="588.212" viewBox="0 0 450.5 588.212"><defs><clipPath id="a"><path d="M1156.276,174.737l-13.808,3.24a6.95,6.95,0,0,1,6.234-7.27C1155.355,169.683,1156.276,174.737,1156.276,174.737Z" transform="translate(-1142.463 -170.57)" fill="#fff"/></clipPath><clipPath id="b"><path d="M1125.91,178.363l9.641-.216s-1.123-5.743-5.844-5.155S1125.91,178.363,1125.91,178.363Z" transform="translate(-1125.837 -172.949)" fill="#fff"/></clipPath></defs><g transform="translate(-849.16 -31.469)"><g transform="translate(849.66 158.424)"><g transform="translate(201.411 106.424)"><g transform="translate(92.12)"><path d="M1141.3,226.726l-46.06,84.4a15.086,15.086,0,0,0,7.05,20.983h0a15.086,15.086,0,0,0,19.25-6.2l47.918-82.817Z" transform="translate(-1093.396 -224.577)" fill="#f4a27d"/><path d="M1113.867,260.4s15.7-44.923,35.344-33.636c22.932,13.179-3.063,61.907-3.063,61.907Z" transform="translate(-1089.163 -224.945)" fill="#4f78fa"/></g><g transform="translate(0 45.785)"><path d="M1040.789,278.6l-8.036-8.791a15.416,15.416,0,0,0-5.025-3.643l-6.83-3.086a1.815,1.815,0,0,0-2.56,1.762h0a1.815,1.815,0,0,0,.892,1.458l9.986,5.875Z" transform="translate(-1016.796 -262.879)" fill="#f4a27d"/><path d="M1048.227,279.887l72.336,16-8.6,25.23-65.31-29.4Z" transform="translate(-1010.941 -259.371)" fill="#f4a27d"/><path d="M1052.768,295.233s-21.092-5.475-22.475-22.789l-12.1-5.774a1.988,1.988,0,0,1-1.1-1.465h0a1.989,1.989,0,0,1,2.587-2.216l12.2,4.052a14.73,14.73,0,0,1,3.644,1.8l19.791,14.917Z" transform="translate(-1017.059 -262.886)" fill="#f4a27d"/></g></g><g transform="translate(0 95.894)"><g transform="translate(98.534 36.852)"><path d="M1109.972,320.4h-62.926l-10.1-7.175H1102.8a7.175,7.175,0,0,1,7.175,7.175Z" transform="translate(-909.471 -233.251)"/><path d="M1042.482,252.923,1070.5,334.1H958.1l-26.663-80.343a5.632,5.632,0,0,1,5.508-6.806H1035A7.666,7.666,0,0,1,1042.482,252.923Z" transform="translate(-931.312 -246.953)" fill="#1e1714"/><path d="M974.041,287.718c1.715,4.5,6.381,6.9,10.423,5.356s5.929-6.437,4.214-10.936-6.381-6.9-10.424-5.356S972.327,283.219,974.041,287.718Z" transform="translate(-922.608 -240.882)" fill="none" stroke="#907d77" stroke-miterlimit="10" stroke-width="1.623"/></g><g transform="translate(0 124.308)"><line y2="234.237" transform="translate(275.95 6.606)" fill="none" stroke="#798897" stroke-miterlimit="10" stroke-width="2.966"/><line y2="234.237" transform="translate(43.846 6.606)" fill="none" stroke="#798897" stroke-miterlimit="10" stroke-width="2.966"/><rect width="325.005" height="13.212" transform="translate(325.005 13.212) rotate(180)" fill="#798897" stroke="#798897" stroke-width="1"/></g><g transform="translate(29.689)"><g transform="translate(0 91.084)"><path d="M874.746,291.893s-5.21,31.873,18.577,33.034,18.2-33.034,18.2-33.034Z" transform="translate(-874.262 -291.893)" fill="#2f4858"/><path d="M908.2,315.4a10.29,10.29,0,1,0-9.979-10.593A10.3,10.3,0,0,0,908.2,315.4Zm.515-17.282a7,7,0,1,1-7.206,6.788A7.008,7.008,0,0,1,908.715,298.114Z" transform="translate(-869.31 -291.288)" fill="#2f4858"/></g><path d="M929.724,231.647a26.266,26.266,0,0,0-13.939-13.529c-.787-.331-1.623-.573-2.44-.845a23.235,23.235,0,0,0-2.66-.568,26.439,26.439,0,0,0-5.055-.267,32.638,32.638,0,0,0-9.141,1.723,37.153,37.153,0,0,0-8.206,3.93,32.173,32.173,0,0,0-3.433,2.56,7.717,7.717,0,1,0,8.972,12.52h0c.01-.006.017-.017.026-.024l.016-.012c.285-.193.491-.48.786-.711a16.584,16.584,0,0,1,1.96-1.506,21.943,21.943,0,0,1,4.8-2.36,20.456,20.456,0,0,1,5.012-1.119,11.8,11.8,0,0,1,2.167.018c.325.031.612.091.886.144.326.116.665.173.993.3a12.513,12.513,0,0,1,3.839,2.192,13.634,13.634,0,0,1,2.917,3.562,10.3,10.3,0,0,1,1.365,4.161,12.162,12.162,0,0,1-.459,4.681,19.455,19.455,0,0,1-2.321,4.921,21.9,21.9,0,0,1-1.732,2.334c-.672.79-1.425,1.574-2.166,2.34a40.276,40.276,0,0,1-4.878,4.225c-.866.647-1.757,1.268-2.675,1.85-.462.285-.926.571-1.4.837l-.713.4-.851.46a14.085,14.085,0,0,0-7.813,11.3,14.074,14.074,0,0,0-.051,2.281,10.508,10.508,0,0,0,.146,1.242,4.5,4.5,0,0,0,.125.557l.125.465a26.068,26.068,0,0,0,3.044,7.249,12.361,12.361,0,0,0,2.737,3.01,7.708,7.708,0,0,0,3.659,1.574.467.467,0,0,0,.281-.876l-.007,0a7.934,7.934,0,0,1-3.807-5.095,25.367,25.367,0,0,1-.889-6.632,8.112,8.112,0,0,1,1.727-4.957,7.277,7.277,0,0,1,4.011-2.585l.807-.265.949-.321c.631-.217,1.253-.459,1.877-.7,1.238-.5,2.461-1.049,3.658-1.652a50.48,50.48,0,0,0,6.845-4.249c1.093-.8,2.118-1.654,3.155-2.569a33.147,33.147,0,0,0,3.046-3.1,28.916,28.916,0,0,0,4.8-7.623,23.578,23.578,0,0,0-.1-19.267Z" transform="translate(-872.823 -216.415)" fill="#b4c2d1"/></g></g><g transform="translate(111.927)"><path d="M1232.933,313.145c-2.742-20.634-32.068-37.7-61.13-9.123v69.624l39.659-8.047S1234.8,327.19,1232.933,313.145Z" transform="translate(-895.82 -105.359)" fill="#dec1b1"/><g transform="translate(0 207.613)"><g transform="translate(0 12.59)"><g transform="translate(84.179)"><g transform="translate(1.683 47.911)"><g transform="translate(20.161 121.365)"><path d="M1056.46,476.861l19.505,46.077a11.537,11.537,0,0,0,16.6,5.372h0a11.537,11.537,0,0,0,4.906-13.71l-19.382-54.9Z" transform="translate(-1025.692 -459.698)" fill="#f4a27d"/><path d="M1092.7,520.627h-52.14V507.778l46.5-14.492Z" transform="translate(-1028.979 -452.753)" fill="#f4a27d"/><path d="M1066.513,497.3s11.688,5.182,15.251,25.762l-42.711.425c-4.694,0-8.089-4.967-8.089-9.663h0c0-5.6,4.843-10.063,8.808-10.863Z" transform="translate(-1030.964 -451.923)" fill="#2f4858"/><rect width="72.504" height="4.042" transform="translate(80.593 71.566) rotate(180)" fill="#2f4858"/></g><path d="M1014.257,379.871l42.59,126.678L1109.03,495.5l-43.7-136.369Z" transform="translate(-1014.257 -359.127)" fill="#221b22"/></g><path d="M1206.964,319.425s46.983,66.339-11.239,85.208H1038.535a25.658,25.658,0,0,1-23.989-16.554h0a25.659,25.659,0,0,1,19.108-34.3l139.882-19.577-4.489-14.78Z" transform="translate(-1012.862 -319.425)" fill="#221b22"/></g><path d="M1221.721,319.425s46.982,66.339-11.239,85.208H1053.292a25.66,25.66,0,0,1-23.99-16.554h0c-5.649-14.884,3.595-33.776,19.225-36.805l106.382-14.889,6.731-16.96Z" transform="translate(-925.63 -319.425)" fill="#221b22"/><g transform="translate(0 47.911)"><g transform="translate(0 126.796)"><path d="M1002.844,464.2l-17.526,46.865a11.535,11.535,0,0,0,8.354,15.314h0a11.536,11.536,0,0,0,12.99-6.579l23.685-53.187Z" transform="translate(-933.69 -464.198)" fill="#fcb791"/><path d="M1004.149,520.627h-52.14V507.778l46.5-14.492Z" transform="translate(-940.425 -458.184)" fill="#fcb791"/><path d="M977.959,497.3s11.688,5.182,15.251,25.762l-42.711.425c-4.694,0-8.089-4.967-8.089-9.663h0c0-5.6,4.843-10.063,8.808-10.863Z" transform="translate(-942.41 -457.353)" fill="#2f4858"/><rect width="72.504" height="4.042" transform="translate(80.593 66.135) rotate(180)" fill="#2f4858"/></g><path d="M1039.5,359.127l-55.571,143.48,49.883,17.736,55.182-136.9Z" transform="translate(-933.826 -359.127)" fill="#221b22"/></g></g><g transform="translate(193.74)"><path d="M1111.841,413.9a7.134,7.134,0,0,1-7.051-5.894c-2.608-15.1-4.745-54.37,41.885-60.244,57.928-7.3,80.735.912,100.349-38.771,0,0,7.974,59.48-22.032,92.43-6.567,7.212-23.059,12.479-32.813,12.479Z" transform="translate(-1103.651 -308.992)" fill="#2f4858"/><line x1="34.219" y2="180.046" transform="translate(2.377 73.386)" fill="none" stroke="#2f4858" stroke-miterlimit="10" stroke-width="2.27"/><line x2="34.219" y2="180.046" transform="translate(90.822 73.386)" fill="none" stroke="#2f4858" stroke-miterlimit="10" stroke-width="2.27"/></g></g><g transform="translate(141.878 99.104)"><g transform="translate(73.356)"><path d="M1168.276,218.881l21.637,3.174s20.42,4.1,24.747,20.259-12.34,97.9-12.34,97.9h-60.081l-17.976-51.31a48.327,48.327,0,0,1-2.639-12.71c-.619-9.176.513-18.6,4.191-26.869l10.079-21.915,16-6.8Z" transform="translate(-1121.463 -218.881)" fill="#4f78fa"/><path d="M1177.644,220.736,1165,218.881l-17.949,2.394-7.406,3.148s-7.541,10.795,4.6,12.194C1158.992,238.318,1170.654,232.534,1177.644,220.736Z" transform="translate(-1118.183 -218.881)" fill="#fcb791"/><path d="M1121.463,265.5a128.361,128.361,0,0,1,7.121-26.382" transform="translate(-1121.463 -214.697)" fill="none" stroke="#000" stroke-linecap="round" stroke-linejoin="round" stroke-width="0.436"/></g><g transform="translate(0 11.355)"><g transform="translate(0 69.308)"><path d="M1085.394,298.931l-9-7.805a15.422,15.422,0,0,0-5.412-3.039l-7.14-2.276a1.815,1.815,0,0,0-2.34,2.045h0a1.814,1.814,0,0,0,1.053,1.344l10.6,4.683Z" transform="translate(-1060.51 -285.723)" fill="#f4a27d"/><path d="M1093.184,303.247l73.7,7.54-5.632,26.055-68.268-21.66Z" transform="translate(-1053.995 -282.1)" fill="#fcb791"/><path d="M1099.664,317.977s-21.582-3-24.956-20.041l-12.687-4.34a1.987,1.987,0,0,1-1.266-1.327h0a1.988,1.988,0,0,1,2.314-2.5l12.589,2.615a14.787,14.787,0,0,1,3.829,1.367l21.381,12.531Z" transform="translate(-1060.675 -284.895)" fill="#fcb791"/></g><g transform="translate(96.728)"><path d="M1177.938,240.609l-36.005,89.155a15.086,15.086,0,0,0,9.426,20.029h0a15.085,15.085,0,0,0,18.406-8.382l38.032-87.8Z" transform="translate(-1140.83 -225.743)" fill="#fcb791"/><g transform="translate(21.763)"><path d="M1158.864,267.772s13.633-47.3,34.445-38.356c24.3,10.443,3.693,61.677,3.693,61.677Z" transform="translate(-1158.864 -228.29)" fill="#4f78fa"/><path d="M1163.2,268.548l-4.334-2.65,11.721-28.549" transform="translate(-1158.864 -226.417)" fill="none" stroke="#000" stroke-linecap="round" stroke-linejoin="round" stroke-width="0.436"/><path d="M1185.184,279.355l4.062,2.484,6.767-15.641" transform="translate(-1153.422 -220.453)" fill="none" stroke="#000" stroke-linecap="round" stroke-linejoin="round" stroke-width="0.436"/></g></g></g></g><g transform="translate(212.117)"><circle cx="28.587" cy="28.587" r="28.587" transform="matrix(0.751, -0.66, 0.66, 0.751, 34.591, 63.705)"/><path d="M1135.14,140.155s-26.207,7.661-12.079,26.648l28.492-21.019Z" transform="translate(-1118.88 -135.952)"/><path d="M1132.354,140.875s34-12.048,48.729,4.652c21.282,24.134-15.686,53.734-15.686,53.734Z" transform="translate(-1116.094 -136.672)"/><path d="M1136.622,185.209a24.033,24.033,0,0,0-3.48-8.426c-2.365-3.558-5.754-6.848-10.033-4.233-7.286,4.453,1.63,16.14,9.611,16.309,2.347.049,4.3-1.779,3.9-3.65Z" transform="translate(-1118.564 -129.448)" fill="#f4a27d"/><path d="M1159.1,183.65l10.759,46.374-23.732,7.965-3.9-43.452Z" transform="translate(-1114.054 -126.959)" fill="#fcb791"/><path d="M1160.313,196.781l-15.775,21.307-1.894-16.927Z" transform="translate(-1113.966 -124.243)"/><path d="M1144.741,143.488s-25.132,1.359-22.249,24.343c3.167,25.241,7.085,39.287,21.541,46.136,5.722,2.712,17.088.8,23.446-10.165,7-12.077,5.613-15.173,5.692-20.151l2.137-9.489S1183.18,139.2,1144.741,143.488Z" transform="translate(-1118.181 -135.338)" fill="#fcb791"/><g transform="translate(4.547 29.504)"><path d="M1137.8,186.832l-2.722-1.856,1.866-5.518" transform="translate(-1120.077 -157.329)" fill="none" stroke="#000" stroke-linecap="round" stroke-linejoin="round" stroke-width="0.436"/><g transform="translate(23.912 11.404)"><path d="M1156.276,174.737l-13.808,3.24a6.95,6.95,0,0,1,6.234-7.27C1155.355,169.683,1156.276,174.737,1156.276,174.737Z" transform="translate(-1142.463 -170.57)" fill="#fff"/><g clip-path="url(#a)"><path d="M1144.474,174.117a3.165,3.165,0,1,0,3.141-3.4A3.268,3.268,0,0,0,1144.474,174.117Z" transform="translate(-1142.047 -170.54)"/></g><path d="M1142.467,177.977s.255-6.056,5.973-7.213c6.186-1.251,7.834,3.973,7.834,3.973" transform="translate(-1142.462 -170.57)" fill="none" stroke="#000" stroke-linecap="round" stroke-linejoin="round" stroke-width="0.435"/></g><g transform="translate(3.849 14.202)"><g transform="translate(0 0.073)"><path d="M1125.91,178.363l9.641-.216s-1.123-5.743-5.844-5.155S1125.91,178.363,1125.91,178.363Z" transform="translate(-1125.837 -172.949)" fill="#fff"/><g clip-path="url(#b)"><path d="M1132.205,175.064c.414,1.691-.208,3.374-1.388,3.76s-2.471-.671-2.885-2.362.208-3.373,1.388-3.759S1131.792,173.375,1132.205,175.064Z" transform="translate(-1125.431 -173.016)"/></g></g><path d="M1135.541,178.159s-1.537-5.516-5.658-5.261c-4.457.276-3.983,5.478-3.983,5.478" transform="translate(-1125.827 -172.889)" fill="none" stroke="#000" stroke-linecap="round" stroke-linejoin="round" stroke-width="0.447"/></g><path d="M1133.307,165.553l-10.659,6.992s1-5.919,3.781-7.781S1133.307,165.553,1133.307,165.553Z" transform="translate(-1122.648 -160.504)"/><path d="M1139.861,163.749l18.739,4.564s-4.574-5.63-9.652-6.917S1139.861,163.749,1139.861,163.749Z" transform="translate(-1119.089 -161.121)"/><g transform="translate(17.096 29.377)"><path d="M1147.513,187.136s-6.69.677-9.963,3.169C1137.55,190.3,1140.854,192.676,1147.513,187.136Z" transform="translate(-1136.663 -185.118)" fill="#f86951"/><path d="M1147.513,187.136a6.994,6.994,0,0,1-6.071,5.356c-4.01.4-3.892-2.187-3.892-2.187Z" transform="translate(-1136.663 -185.118)" fill="#f86951"/><path d="M1149.86,185.464s-5.657,6.9-13.045,4.956" transform="translate(-1136.815 -185.464)" fill="none" stroke="#000" stroke-linecap="round" stroke-linejoin="round" stroke-width="0.436"/></g></g><path d="M1173.892,172.2s-37.768.179-41.432-30.442c0,0,15.789-6.438,32.968,4.739S1173.892,172.2,1173.892,172.2Z" transform="translate(-1116.072 -136.001)"/><path d="M1159.857,160.789l6.651,17.671,5.866-10.912Z" transform="translate(-1110.408 -131.685)"/><g transform="translate(53.901 38.468)"><path d="M1163.6,184.738a24.2,24.2,0,0,1,1.1-9.105c1.331-4.086,3.726-8.189,8.579-6.812,8.264,2.347,2.779,16.081-4.908,18.4-2.261.682-4.642-.564-4.768-2.484Z" transform="translate(-1163.546 -168.549)" fill="#fcb791"/><path d="M1171.974,173.252s-4.56.86-5.323,6.574" transform="translate(-1162.904 -167.577)" fill="none" stroke="#000" stroke-linecap="round" stroke-linejoin="round" stroke-width="0.409"/></g></g></g></g><g transform="translate(923.14 31.469)"><g transform="translate(57.135 197.193)"><path d="M959.049,228.171a.506.506,0,0,1-.891-.332l.03-9.817V198.39a3.515,3.515,0,0,1,3.515-3.514h82.38a3.514,3.514,0,0,1,3.514,3.514v20.984a3.515,3.515,0,0,1-3.514,3.515H963.57Z" transform="translate(-958.158 -194.876)" fill="#ffbcbe"/><line x2="60.054" transform="translate(15.072 10.114)" fill="none" stroke="#000" stroke-linecap="round" stroke-linejoin="round" stroke-width="0.436"/><line x2="30.199" transform="translate(15.072 18.433)" fill="none" stroke="#000" stroke-linecap="round" stroke-linejoin="round" stroke-width="0.436"/></g><g transform="translate(0 46.579)"><rect width="70.933" height="6.558" rx="2.061" transform="translate(254.564 33.168) rotate(180)" fill="#798897"/><path d="M914.169,156.378h92.361a3.356,3.356,0,0,0,3.356-3.356h0a3.356,3.356,0,0,0-3.356-3.356H914.169a3.357,3.357,0,0,0-3.357,3.356h0A3.357,3.357,0,0,0,914.169,156.378Z" transform="translate(-910.812 -53.609)" fill="#798897"/><path d="M3.316,0H11.1a3.315,3.315,0,0,1,3.315,3.315v7.265A3.315,3.315,0,0,1,11.1,13.9H3.316A3.316,3.316,0,0,1,0,10.581V3.316A3.316,3.316,0,0,1,3.316,0Z" transform="translate(209.828)" fill="#ff7477"/><rect width="8.954" height="8.673" rx="1.809" transform="translate(48.181 115.482)" fill="#2f4858"/></g><g transform="translate(39.725)"><g transform="translate(12.92)"><rect width="61.689" height="56.059" fill="#dedede"/><line x2="17.518" transform="translate(7.754 12.952)" fill="none" stroke="#000" stroke-linecap="round" stroke-linejoin="round" stroke-width="0.462"/><line x2="45.787" transform="translate(7.754 20.671)" fill="none" stroke="#000" stroke-linecap="round" stroke-linejoin="round" stroke-width="0.462"/></g><path d="M980.717,62.9,968.5,54.876a2.9,2.9,0,0,0-1.587-.474H946.619a2.889,2.889,0,0,0-2.888,2.889V115a2.888,2.888,0,0,0,2.888,2.888h81.753a2.888,2.888,0,0,0,2.889-2.888V66.268a2.889,2.889,0,0,0-2.889-2.889H982.3A2.88,2.88,0,0,1,980.717,62.9Z" transform="translate(-943.731 -26.728)" fill="#4f78fa"/></g></g></g></svg>